<svg id="Calque_1" data-name="Calque 1" xmlns="http://www.w3.org/2000/svg" viewBox="0 0 306 142"><defs><style>.cls-1{fill:#13322b;}.cls-2{fill:#fff;}.cls-3{fill:#88b04b;}</style></defs><path class="cls-1" d="M203.48,7.35c-72.83-1-93.9,11.15-93.9,11.15l-4.65,61.67h93Z"/><polygon class="cls-1" points="103.48 99.43 196.52 99.43 197.86 81.67 104.81 81.67 103.48 99.43"/><path class="cls-2" d="M134,76.71h-.24c-1.57,0-2.93-1.17-2.74-3.88s1.71-3.89,3.28-3.89,2.93,1.17,2.74,3.89a4,4,0,0,1-1.86,3.53l1.38,1.69H135Zm-.16-1.06c.87,0,1.63-.74,1.77-2.82s-.5-2.83-1.38-2.83-1.63.75-1.78,2.83.51,2.82,1.39,2.82"/><path class="cls-2" d="M144,75.69a7.39,7.39,0,0,0,0,.92h-1.26c0-.29,0-.58,0-.86h0a1.77,1.77,0,0,1-1.55.94c-1.27,0-1.58-.94-1.5-2.06L140,71h1.34l-.23,3.35c-.06.85.15,1.21.71,1.21.72,0,1-.65,1-1.37L143,71h1.35Z"/><path class="cls-2" d="M147.5,71.36a4,4,0,0,1,1.8-.41c1.73,0,2.07.84,2,2.24l-.17,2.43a6.2,6.2,0,0,0,0,1H149.9a2.69,2.69,0,0,1,0-.76h0a2,2,0,0,1-1.62.84,1.47,1.47,0,0,1-1.55-1.63c.11-1.52,1.37-1.9,3.07-1.9H150V73a.88.88,0,0,0-1-1.06,2.76,2.76,0,0,0-1.57.54ZM150,73.88h-.12c-1.15,0-1.85.24-1.9,1.05a.73.73,0,0,0,.79.85c.8,0,1.14-.59,1.21-1.59Z"/><polygon class="cls-2" points="154.65 68.49 156 68.49 155.43 76.61 154.09 76.61 154.65 68.49"/><path class="cls-2" d="M159,71h1.34l-.39,5.58h-1.34Zm.14-2.37h1.39L160.41,70H159Z"/><path class="cls-2" d="M163.91,69.88l1.37-.41L165.17,71h1.12l-.07,1H165.1l-.2,2.89c0,.59.16.77.55.77a1.16,1.16,0,0,0,.52-.12l-.07,1a2.11,2.11,0,0,1-.91.18c-1,0-1.53-.45-1.44-1.62l.21-3h-.89l.07-1h.89Z"/><path class="cls-2" d="M172.54,76.34a4.35,4.35,0,0,1-1.69.35c-1.8,0-2.49-1.29-2.38-2.79.11-1.67,1.08-3,2.5-3,1.2,0,2.18.7,2,3l0,.26h-3.22c-.07.95.27,1.53,1.31,1.53a2.37,2.37,0,0,0,1.49-.43Zm-.81-3c.07-1-.22-1.49-.83-1.49s-1,.75-1.09,1.49Zm-.6-4.48h1.25l-1.21,1.56h-.85Z"/><path class="cls-2" d="M111.46,92.07H109.8l-.45,1.2h-1.46l2.28-5.67h1.68l1.4,5.67h-1.57Zm-.55-3.31h0L110.13,91h1.12Z"/><polygon class="cls-2" points="114.31 87.61 117.65 87.61 117.57 88.72 115.72 88.72 115.64 89.88 117.41 89.88 117.33 91 115.56 91 115.41 93.27 113.91 93.27 114.31 87.61"/><polygon class="cls-2" points="119.7 89.34 119.67 89.34 119.39 93.27 118.06 93.27 118.46 87.61 120.23 87.61 121.44 91.51 121.46 91.51 121.73 87.61 123.06 87.61 122.66 93.27 120.88 93.27 119.7 89.34"/><path class="cls-2" d="M126.53,87.51c1.23,0,2.45.83,2.31,2.93s-1.49,2.93-2.73,2.93-2.45-.83-2.31-2.93,1.49-2.93,2.73-2.93m-.36,4.77h0c.65,0,1-.72,1.08-1.84s-.18-1.84-.82-1.84-1,.73-1.09,1.84.18,1.84.82,1.84"/><path class="cls-2" d="M132,91.66c-.1-.54-.35-.61-.59-.61h-.09l-.15,2.22h-1.53l.4-5.67h2.27c1.14,0,1.75.48,1.68,1.53a1.4,1.4,0,0,1-1.18,1.3v0c.32.11.52.26.69,1l.39,1.77h-1.58ZM131.75,90a.67.67,0,0,0,.67-.61.56.56,0,0,0-.6-.67h-.43L131.31,90Z"/><path class="cls-2" d="M141,93.15a5.27,5.27,0,0,1-1.41.22c-1.65,0-2.76-1-2.62-3a2.86,2.86,0,0,1,3-2.89,3.28,3.28,0,0,1,1.35.26L141.16,89a2.22,2.22,0,0,0-1.09-.33c-1,0-1.47.63-1.55,1.74s.42,1.72,1.38,1.72a2.27,2.27,0,0,0,1.11-.31Z"/><polygon class="cls-2" points="142.25 87.61 145.73 87.61 145.65 88.72 143.67 88.72 143.59 89.81 145.47 89.81 145.4 90.93 143.51 90.93 143.43 92.15 145.51 92.15 145.44 93.27 141.86 93.27 142.25 87.61"/><path class="cls-2" d="M148.7,91.66c-.11-.54-.36-.61-.6-.61H148l-.16,2.22h-1.52l.39-5.67H149c1.14,0,1.76.48,1.69,1.53a1.41,1.41,0,0,1-1.18,1.3v0c.31.11.51.26.69,1l.38,1.77H149ZM148.48,90a.68.68,0,0,0,.67-.61.56.56,0,0,0-.61-.67h-.42L148,90Z"/><polygon class="cls-2" points="152.56 88.76 151.35 88.76 151.43 87.61 155.39 87.61 155.31 88.76 154.09 88.76 153.78 93.27 152.25 93.27 152.56 88.76"/><polygon class="cls-2" points="156.14 87.61 157.67 87.61 157.27 93.27 155.75 93.27 156.14 87.61"/><polygon class="cls-2" points="158.82 87.61 162.16 87.61 162.08 88.72 160.23 88.72 160.15 89.88 161.92 89.88 161.84 91 160.07 91 159.91 93.27 158.42 93.27 158.82 87.61"/><polygon class="cls-2" points="163 87.61 164.52 87.61 164.13 93.27 162.6 93.27 163 87.61"/><path class="cls-2" d="M169.33,93.15a5.27,5.27,0,0,1-1.41.22c-1.65,0-2.76-1-2.62-3a2.86,2.86,0,0,1,3-2.89,3.28,3.28,0,0,1,1.35.26L169.51,89a2.22,2.22,0,0,0-1.09-.33c-1,0-1.47.63-1.55,1.74s.42,1.72,1.38,1.72a2.23,2.23,0,0,0,1.11-.31Z"/><path class="cls-2" d="M173.3,92.07h-1.67l-.45,1.2h-1.46L172,87.6h1.68l1.41,5.67h-1.58Zm-.55-3.31h0L172,91h1.12Z"/><polygon class="cls-2" points="176.59 88.76 175.37 88.76 175.45 87.61 179.41 87.61 179.33 88.76 178.12 88.76 177.8 93.27 176.27 93.27 176.59 88.76"/><polygon class="cls-2" points="180.17 87.61 181.69 87.61 181.3 93.27 179.77 93.27 180.17 87.61"/><path class="cls-2" d="M185.19,87.51c1.24,0,2.46.83,2.31,2.93s-1.48,2.93-2.72,2.93-2.45-.83-2.31-2.93,1.49-2.93,2.72-2.93m-.35,4.77h0c.64,0,1-.72,1.08-1.84s-.18-1.84-.82-1.84-1,.73-1.09,1.84.18,1.84.82,1.84"/><polygon class="cls-2" points="189.89 89.34 189.86 89.34 189.58 93.27 188.25 93.27 188.65 87.61 190.41 87.61 191.63 91.51 191.64 91.51 191.92 87.61 193.25 87.61 192.85 93.27 191.07 93.27 189.89 89.34"/><path class="cls-2" d="M131.08,23.22c-1.76-.67-4.06-1-8.8-1h-4.1a2.49,2.49,0,0,0,1.48,2.21h2.54A15.38,15.38,0,0,1,127,25a1.82,1.82,0,0,1,1.51,2l-.05.54c-5.81,1.4-11,3-13.61,4.67a4.17,4.17,0,0,0-2.41,3.44c-.18,1.71.58,3.17,2.85,4,2.09.79,4.66,1,8.32,1l3.07,0a13.07,13.07,0,0,0,3.54-.54c2.42-.84,2.92-2.69,3.06-4.35l.73-9.41c-.19-1.35-1.12-2.36-2.92-3m-3.51,15.1h-4.95a12.66,12.66,0,0,1-3.24-.49,1.84,1.84,0,0,1-1.5-1.68,3.63,3.63,0,0,1,.63-2.37c1-1.27,3.85-2.21,3.85-2.21a43.94,43.94,0,0,1,5.89-1.65Z"/><path class="cls-2" d="M168.64,23.64a10.52,10.52,0,0,0-2.54-.57c-6.68-.89-13.91.14-21,1.3l.27-3.36c.08-1,.26-1.61,1.4-2a16.68,16.68,0,0,1,4.82-.54h4.73a2.38,2.38,0,0,0,1.41-2.2h-6.28c-3.66,0-5.82.18-8.05,1-2.42.83-3.38,2.27-3.52,3.93l-.33,4.13c-.76.14-1.69.28-2.45.47a2.72,2.72,0,0,0-1,2.62h0c1.05-.21,2.21-.41,3.21-.6l-.94,12.48h5.47l1-13.41c4.42-.84,13.69-2.49,18.7-1.74a9.35,9.35,0,0,1,.91.23c1.08.36,1.58,1,1.51,2l-.05.12c-5.82,1.4-11,3-13.61,4.67A4.15,4.15,0,0,0,150,35.58c-.18,1.71.58,3.17,2.85,4,2.09.79,4.66,1,8.31,1l3.07,0a13.08,13.08,0,0,0,3.55-.54c2.41-.84,2.92-2.69,3.06-4.35l.73-9c-.18-1.35-1.12-2.35-2.92-3m-3.51,14.68h-4.95a12.66,12.66,0,0,1-3.24-.49c-1-.32-1.47-.87-1.5-1.68a3.63,3.63,0,0,1,.63-2.37c1-1.27,3.85-2.21,3.85-2.21a44.19,44.19,0,0,1,5.88-1.65Z"/><path class="cls-2" d="M192.36,27.52l-.71,8.42a2.26,2.26,0,0,1-1.86,2,15.67,15.67,0,0,1-4.23.53,14.51,14.51,0,0,1-4.12-.53,1.81,1.81,0,0,1-1.5-2l.72-8.42a2.27,2.27,0,0,1,1.86-2,15.59,15.59,0,0,1,4.22-.53,14.58,14.58,0,0,1,4.13.53,1.81,1.81,0,0,1,1.49,2M195,23.77a22.79,22.79,0,0,0-7.74-1h-.65a24.1,24.1,0,0,0-7.92,1c-2.43.85-3.42,2.29-3.56,3.95l-.68,8c-.14,1.68.57,3.12,2.86,4a17.51,17.51,0,0,0,5.51.94c0,.22,0,0,0,.25-.15,1.94,1.9,3.9,5.13,3.9h6a2.82,2.82,0,0,0,2.63-2.1H191.8c-4,0-3.51-2.07-3.51-2.07a18.4,18.4,0,0,0,5.33-.92c2.42-.83,3.45-2.27,3.59-4l.63-8c.14-1.66-.56-3.1-2.84-3.95"/><polygon class="cls-2" points="110.35 63.57 195.11 63.57 196.36 46.95 111.58 46.95 110.35 63.57"/><polygon class="cls-3" points="117.56 50.42 120.14 50.42 119.46 60.07 116.89 60.07 117.56 50.42"/><path class="cls-3" d="M123.51,57.69a5.4,5.4,0,0,0,2.61.64c.82,0,1.61-.17,1.66-.94.13-1.8-4.52-.66-4.27-4.18.16-2.32,2.47-3,4.41-3a8,8,0,0,1,2.47.36l-.31,2a5,5,0,0,0-2.11-.44c-.65,0-1.74.06-1.8.9-.11,1.56,4.53.51,4.29,4-.18,2.5-2.33,3.18-4.47,3.18a9.73,9.73,0,0,1-2.85-.42Z"/><path class="cls-3" d="M138.88,50.25c3.18,0,4.7,1.9,4.49,5s-2,5-5.19,5-4.71-1.93-4.5-5,2-5,5.2-5m-.57,8.08c1.56,0,2.29-1.49,2.4-3.09s-.41-3.08-2-3.08-2.28,1.41-2.4,3.08.41,3.09,2,3.09"/><path class="cls-3" d="M153.11,57.9a3.49,3.49,0,0,0,2,.51c1.72,0,2.32-1.13,2.45-2.83h0a2.54,2.54,0,0,1-2.16,1,2.62,2.62,0,0,1-2.68-3,3.69,3.69,0,0,1,3.85-3.27c2.76,0,3.56,2.16,3.39,4.58-.21,3-1.44,5.41-4.64,5.41a6.34,6.34,0,0,1-2.47-.44Zm3.34-6a1.35,1.35,0,0,0-1.33,1.37c-.05.8.23,1.54,1.13,1.54a1.4,1.4,0,0,0,1.36-1.43c0-.79-.33-1.48-1.16-1.48"/><path class="cls-3" d="M162.9,55.25c.17-2.51.9-5,4.1-5s3.57,2.49,3.4,5-.91,5-4.1,5-3.58-2.49-3.4-5m5,0c.1-1.54.13-3.26-1-3.26s-1.37,1.72-1.48,3.26-.13,3.25,1,3.25,1.38-1.72,1.49-3.25"/><path class="cls-3" d="M173.3,55.25c.18-2.51.9-5,4.1-5s3.57,2.49,3.4,5-.91,5-4.1,5-3.57-2.49-3.4-5m5,0c.1-1.54.13-3.26-1-3.26s-1.38,1.72-1.49,3.26-.13,3.25,1,3.25,1.38-1.72,1.49-3.25"/><polygon class="cls-3" points="187.25 52.99 185.33 54.29 184.31 52.55 187.73 50.42 190 50.42 189.33 60.07 186.75 60.07 187.25 52.99"/><polygon class="cls-2" points="104.93 80.17 104.82 81.67 197.86 81.67 197.97 80.17 104.93 80.17"/></svg>