<svg id="Calque_1" data-name="Calque 1" xmlns="http://www.w3.org/2000/svg" viewBox="0 0 600 407"><defs><style>.cls-1{fill:#13322b;}.cls-2{fill:#d0d0ce;}.cls-3{fill:#98bc62;}.cls-4{fill:#fff;}.cls-5,.cls-8{fill:#bfd833;}.cls-6,.cls-9{fill:#88b04b;}.cls-7{isolation:isolate;}.cls-8,.cls-9{fill-rule:evenodd;}</style></defs><rect class="cls-1" x="423.25" width="176.75" height="407"/><rect class="cls-2" x="179.51" y="98.82" width="3.6" height="3.6"/><rect class="cls-2" x="186.71" y="98.82" width="3.6" height="3.6"/><rect class="cls-2" x="179.51" y="91.61" width="3.6" height="3.6"/><rect class="cls-2" x="186.71" y="91.61" width="3.6" height="3.6"/><rect class="cls-2" x="186.71" y="106.02" width="3.6" height="3.6"/><rect class="cls-3" x="178.04" y="111.75" width="6.54" height="6.54"/><rect class="cls-2" x="186.71" y="113.22" width="3.6" height="3.6"/><rect class="cls-2" x="179.51" y="120.42" width="3.6" height="3.6"/><rect class="cls-2" x="186.71" y="120.42" width="3.6" height="3.6"/><rect class="cls-2" x="179.51" y="127.62" width="3.6" height="3.6"/><rect class="cls-2" x="186.71" y="127.62" width="3.6" height="3.6"/><rect class="cls-2" x="193.9" y="98.82" width="3.6" height="3.6"/><rect class="cls-2" x="193.9" y="106.02" width="3.6" height="3.6"/><rect class="cls-2" x="201.1" y="98.82" width="3.6" height="3.6"/><rect class="cls-2" x="193.9" y="91.61" width="3.6" height="3.6"/><rect class="cls-2" x="201.1" y="91.61" width="3.6" height="3.6"/><rect class="cls-2" x="201.1" y="106.02" width="3.6" height="3.6"/><rect class="cls-2" x="193.9" y="113.22" width="3.6" height="3.6"/><rect class="cls-2" x="201.1" y="113.22" width="3.6" height="3.6"/><rect class="cls-2" x="193.9" y="120.42" width="3.6" height="3.6"/><rect class="cls-2" x="201.1" y="120.42" width="3.6" height="3.6"/><rect class="cls-2" x="193.9" y="127.62" width="3.6" height="3.6"/><rect class="cls-2" x="201.1" y="127.62" width="3.6" height="3.6"/><rect class="cls-2" x="208.3" y="98.82" width="3.6" height="3.6"/><rect class="cls-2" x="208.3" y="91.61" width="3.6" height="3.6"/><rect class="cls-2" x="208.3" y="106.02" width="3.6" height="3.6"/><rect class="cls-2" x="208.3" y="113.22" width="3.6" height="3.6"/><rect class="cls-2" x="208.3" y="120.42" width="3.6" height="3.6"/><rect class="cls-2" x="208.3" y="127.62" width="3.6" height="3.6"/><rect class="cls-2" x="215.51" y="98.82" width="3.6" height="3.6"/><rect class="cls-2" x="215.51" y="106.02" width="3.6" height="3.6"/><rect class="cls-2" x="215.51" y="91.61" width="3.6" height="3.6"/><rect class="cls-2" x="222.71" y="91.61" width="3.6" height="3.6"/><rect class="cls-2" x="222.71" y="106.02" width="3.6" height="3.6"/><rect class="cls-2" x="215.51" y="113.22" width="3.6" height="3.6"/><rect class="cls-2" x="222.71" y="113.22" width="3.6" height="3.6"/><rect class="cls-2" x="215.51" y="120.42" width="3.6" height="3.6"/><rect class="cls-2" x="222.71" y="120.42" width="3.6" height="3.6"/><rect class="cls-2" x="215.51" y="127.62" width="3.6" height="3.6"/><rect class="cls-2" x="222.71" y="127.62" width="3.6" height="3.6"/><rect class="cls-2" x="129.11" y="84.41" width="3.6" height="3.6"/><rect class="cls-2" x="136.3" y="84.41" width="3.6" height="3.6"/><rect class="cls-2" x="150.7" y="55.62" width="3.6" height="3.6"/><rect class="cls-2" x="143.5" y="48.41" width="3.6" height="3.6"/><rect class="cls-2" x="150.7" y="62.82" width="3.6" height="3.6"/><rect class="cls-2" x="150.7" y="70.02" width="3.6" height="3.6"/><rect class="cls-2" x="143.5" y="77.21" width="3.6" height="3.6"/><rect class="cls-2" x="150.7" y="77.21" width="3.6" height="3.6"/><rect class="cls-2" x="157.9" y="55.62" width="3.6" height="3.6"/><rect class="cls-2" x="157.9" y="48.41" width="3.6" height="3.6"/><rect class="cls-2" x="157.9" y="62.82" width="3.6" height="3.6"/><rect class="cls-2" x="157.9" y="70.02" width="3.6" height="3.6"/><rect class="cls-2" x="165.1" y="55.62" width="3.6" height="3.6"/><rect class="cls-2" x="165.1" y="62.82" width="3.6" height="3.6"/><rect class="cls-2" x="172.31" y="55.62" width="3.6" height="3.6"/><rect class="cls-2" x="165.1" y="48.41" width="3.6" height="3.6"/><rect class="cls-2" x="172.31" y="48.41" width="3.6" height="3.6"/><rect class="cls-2" x="172.31" y="62.82" width="3.6" height="3.6"/><rect class="cls-2" x="172.31" y="70.02" width="3.6" height="3.6"/><rect class="cls-2" x="179.51" y="55.62" width="3.6" height="3.6"/><rect class="cls-2" x="179.51" y="62.82" width="3.6" height="3.6"/><rect class="cls-2" x="186.71" y="55.62" width="3.6" height="3.6"/><rect class="cls-2" x="179.51" y="48.41" width="3.6" height="3.6"/><rect class="cls-2" x="186.71" y="48.41" width="3.6" height="3.6"/><rect class="cls-2" x="186.71" y="62.82" width="3.6" height="3.6"/><rect class="cls-2" x="179.51" y="70.02" width="3.6" height="3.6"/><rect class="cls-2" x="186.71" y="70.02" width="3.6" height="3.6"/><rect class="cls-2" x="179.51" y="77.21" width="3.6" height="3.6"/><rect class="cls-2" x="186.71" y="77.21" width="3.6" height="3.6"/><rect class="cls-2" x="179.51" y="84.41" width="3.6" height="3.6"/><rect class="cls-2" x="186.71" y="84.41" width="3.6" height="3.6"/><rect class="cls-2" x="193.9" y="55.62" width="3.6" height="3.6"/><rect class="cls-2" x="193.9" y="62.82" width="3.6" height="3.6"/><rect class="cls-2" x="193.9" y="48.41" width="3.6" height="3.6"/><rect class="cls-2" x="201.1" y="48.41" width="3.6" height="3.6"/><rect class="cls-2" x="201.1" y="62.82" width="3.6" height="3.6"/><rect class="cls-2" x="193.9" y="70.02" width="3.6" height="3.6"/><rect class="cls-2" x="201.1" y="70.02" width="3.6" height="3.6"/><rect class="cls-2" x="193.9" y="77.21" width="3.6" height="3.6"/><rect class="cls-2" x="201.1" y="77.21" width="3.6" height="3.6"/><rect class="cls-2" x="193.9" y="84.41" width="3.6" height="3.6"/><rect class="cls-2" x="201.1" y="84.41" width="3.6" height="3.6"/><rect class="cls-2" x="208.3" y="55.62" width="3.6" height="3.6"/><rect class="cls-2" x="208.3" y="48.41" width="3.6" height="3.6"/><rect class="cls-2" x="208.3" y="62.82" width="3.6" height="3.6"/><rect class="cls-2" x="208.3" y="77.21" width="3.6" height="3.6"/><rect class="cls-2" x="208.3" y="84.41" width="3.6" height="3.6"/><rect class="cls-2" x="215.51" y="55.62" width="3.6" height="3.6"/><rect class="cls-2" x="215.51" y="62.82" width="3.6" height="3.6"/><rect class="cls-2" x="215.51" y="48.41" width="3.6" height="3.6"/><rect class="cls-2" x="222.71" y="48.41" width="3.6" height="3.6"/><rect class="cls-2" x="222.71" y="62.82" width="3.6" height="3.6"/><rect class="cls-2" x="215.51" y="70.02" width="3.6" height="3.6"/><rect class="cls-2" x="222.71" y="70.02" width="3.6" height="3.6"/><rect class="cls-2" x="215.51" y="77.21" width="3.6" height="3.6"/><rect class="cls-2" x="222.71" y="77.21" width="3.6" height="3.6"/><rect class="cls-2" x="215.51" y="84.41" width="3.6" height="3.6"/><rect class="cls-2" x="222.71" y="84.41" width="3.6" height="3.6"/><rect class="cls-2" x="229.91" y="98.82" width="3.6" height="3.6"/><rect class="cls-2" x="237.11" y="98.82" width="3.6" height="3.6"/><rect class="cls-2" x="229.91" y="91.61" width="3.6" height="3.6"/><rect class="cls-2" x="237.11" y="91.61" width="3.6" height="3.6"/><rect class="cls-2" x="237.11" y="106.02" width="3.6" height="3.6"/><rect class="cls-2" x="229.91" y="113.22" width="3.6" height="3.6"/><rect class="cls-2" x="229.91" y="120.42" width="3.6" height="3.6"/><rect class="cls-2" x="237.11" y="120.42" width="3.6" height="3.6"/><rect class="cls-2" x="229.91" y="127.62" width="3.6" height="3.6"/><rect class="cls-2" x="237.11" y="127.62" width="3.6" height="3.6"/><rect class="cls-2" x="244.3" y="98.82" width="3.6" height="3.6"/><rect class="cls-2" x="244.3" y="106.02" width="3.6" height="3.6"/><rect class="cls-2" x="251.5" y="98.82" width="3.6" height="3.6"/><rect class="cls-2" x="251.5" y="91.61" width="3.6" height="3.6"/><rect class="cls-2" x="251.5" y="106.02" width="3.6" height="3.6"/><rect class="cls-2" x="244.3" y="113.22" width="3.6" height="3.6"/><rect class="cls-2" x="251.5" y="113.22" width="3.6" height="3.6"/><rect class="cls-2" x="244.3" y="120.42" width="3.6" height="3.6"/><rect class="cls-2" x="251.5" y="120.42" width="3.6" height="3.6"/><rect class="cls-3" x="242.84" y="126.15" width="6.54" height="6.54"/><rect class="cls-2" x="258.7" y="98.82" width="3.6" height="3.6"/><rect class="cls-2" x="258.7" y="91.61" width="3.6" height="3.6"/><rect class="cls-2" x="258.7" y="113.22" width="3.6" height="3.6"/><rect class="cls-2" x="265.91" y="98.82" width="3.6" height="3.6"/><rect class="cls-2" x="265.91" y="106.02" width="3.6" height="3.6"/><rect class="cls-2" x="273.11" y="98.82" width="3.6" height="3.6"/><rect class="cls-2" x="265.91" y="91.61" width="3.6" height="3.6"/><rect class="cls-2" x="273.11" y="106.02" width="3.6" height="3.6"/><rect class="cls-2" x="186.71" y="142.01" width="3.6" height="3.6"/><rect class="cls-2" x="186.71" y="134.81" width="3.6" height="3.6"/><rect class="cls-2" x="193.9" y="149.22" width="3.6" height="3.6"/><rect class="cls-2" x="201.1" y="142.01" width="3.6" height="3.6"/><rect class="cls-2" x="193.9" y="134.81" width="3.6" height="3.6"/><rect class="cls-2" x="201.1" y="134.81" width="3.6" height="3.6"/><rect class="cls-2" x="201.1" y="149.22" width="3.6" height="3.6"/><rect class="cls-2" x="201.1" y="156.42" width="3.6" height="3.6"/><rect class="cls-2" x="208.3" y="142.01" width="3.6" height="3.6"/><rect class="cls-2" x="208.3" y="134.81" width="3.6" height="3.6"/><rect class="cls-2" x="208.3" y="149.22" width="3.6" height="3.6"/><rect class="cls-2" x="208.3" y="156.42" width="3.6" height="3.6"/><rect class="cls-2" x="215.51" y="134.81" width="3.6" height="3.6"/><rect class="cls-2" x="222.71" y="134.81" width="3.6" height="3.6"/><rect class="cls-2" x="215.51" y="156.42" width="3.6" height="3.6"/><rect class="cls-2" x="222.71" y="156.42" width="3.6" height="3.6"/><rect class="cls-2" x="215.51" y="163.62" width="3.6" height="3.6"/><rect class="cls-2" x="222.71" y="163.62" width="3.6" height="3.6"/><rect class="cls-2" x="229.91" y="142.01" width="3.6" height="3.6"/><rect class="cls-2" x="229.91" y="149.22" width="3.6" height="3.6"/><rect class="cls-2" x="229.91" y="134.81" width="3.6" height="3.6"/><rect class="cls-2" x="237.11" y="134.81" width="3.6" height="3.6"/><rect class="cls-2" x="237.11" y="149.22" width="3.6" height="3.6"/><rect class="cls-2" x="237.11" y="156.42" width="3.6" height="3.6"/><rect class="cls-2" x="229.91" y="163.62" width="3.6" height="3.6"/><rect class="cls-2" x="229.91" y="170.82" width="3.6" height="3.6"/><rect class="cls-2" x="237.11" y="170.82" width="3.6" height="3.6"/><rect class="cls-2" x="244.3" y="156.42" width="3.6" height="3.6"/><rect class="cls-2" x="251.5" y="156.42" width="3.6" height="3.6"/><rect class="cls-2" x="244.3" y="170.82" width="3.6" height="3.6"/><rect class="cls-2" x="251.5" y="170.82" width="3.6" height="3.6"/><rect class="cls-2" x="258.7" y="170.82" width="3.6" height="3.6"/><rect class="cls-2" x="265.91" y="170.82" width="3.6" height="3.6"/><rect class="cls-3" x="322.04" y="140.55" width="6.54" height="6.54"/><rect class="cls-2" x="323.51" y="149.22" width="3.6" height="3.6"/><rect class="cls-2" x="316.31" y="156.42" width="3.6" height="3.6"/><rect class="cls-2" x="323.51" y="156.42" width="3.6" height="3.6"/><rect class="cls-2" x="316.31" y="163.62" width="3.6" height="3.6"/><rect class="cls-2" x="323.51" y="163.62" width="3.6" height="3.6"/><rect class="cls-2" x="323.51" y="170.82" width="3.6" height="3.6"/><rect class="cls-2" x="229.91" y="55.62" width="3.6" height="3.6"/><rect class="cls-2" x="229.91" y="62.82" width="3.6" height="3.6"/><rect class="cls-2" x="237.11" y="55.62" width="3.6" height="3.6"/><rect class="cls-2" x="237.11" y="48.41" width="3.6" height="3.6"/><rect class="cls-2" x="237.11" y="62.82" width="3.6" height="3.6"/><rect class="cls-2" x="229.91" y="70.02" width="3.6" height="3.6"/><rect class="cls-2" x="237.11" y="70.02" width="3.6" height="3.6"/><rect class="cls-2" x="229.91" y="77.21" width="3.6" height="3.6"/><rect class="cls-2" x="229.91" y="84.41" width="3.6" height="3.6"/><rect class="cls-2" x="244.3" y="62.82" width="3.6" height="3.6"/><rect class="cls-2" x="251.5" y="55.62" width="3.6" height="3.6"/><rect class="cls-2" x="244.3" y="48.41" width="3.6" height="3.6"/><rect class="cls-2" x="251.5" y="48.41" width="3.6" height="3.6"/><rect class="cls-2" x="244.3" y="70.02" width="3.6" height="3.6"/><rect class="cls-2" x="251.5" y="70.02" width="3.6" height="3.6"/><rect class="cls-2" x="251.5" y="77.21" width="3.6" height="3.6"/><rect class="cls-2" x="251.5" y="84.41" width="3.6" height="3.6"/><rect class="cls-2" x="258.7" y="55.62" width="3.6" height="3.6"/><rect class="cls-2" x="258.7" y="48.41" width="3.6" height="3.6"/><rect class="cls-2" x="258.7" y="62.82" width="3.6" height="3.6"/><rect class="cls-2" x="258.7" y="70.02" width="3.6" height="3.6"/><rect class="cls-2" x="258.7" y="84.41" width="3.6" height="3.6"/><rect class="cls-2" x="265.91" y="55.62" width="3.6" height="3.6"/><rect class="cls-2" x="265.91" y="62.82" width="3.6" height="3.6"/><rect class="cls-2" x="265.91" y="70.02" width="3.6" height="3.6"/><rect class="cls-3" x="264.44" y="75.75" width="6.54" height="6.54"/><rect class="cls-2" x="265.91" y="84.41" width="3.6" height="3.6"/><rect class="cls-2" x="287.51" y="55.62" width="3.6" height="3.6"/><rect class="cls-2" x="287.51" y="48.41" width="3.6" height="3.6"/><rect class="cls-2" x="287.51" y="62.82" width="3.6" height="3.6"/><rect class="cls-2" x="280.31" y="70.02" width="3.6" height="3.6"/><rect class="cls-2" x="287.51" y="70.02" width="3.6" height="3.6"/><rect class="cls-2" x="280.31" y="77.21" width="3.6" height="3.6"/><rect class="cls-2" x="287.51" y="77.21" width="3.6" height="3.6"/><rect class="cls-2" x="287.51" y="84.41" width="3.6" height="3.6"/><rect class="cls-2" x="294.7" y="55.62" width="3.6" height="3.6"/><rect class="cls-2" x="294.7" y="62.82" width="3.6" height="3.6"/><rect class="cls-2" x="301.9" y="55.62" width="3.6" height="3.6"/><rect class="cls-2" x="294.7" y="48.41" width="3.6" height="3.6"/><rect class="cls-2" x="301.9" y="48.41" width="3.6" height="3.6"/><rect class="cls-2" x="301.9" y="62.82" width="3.6" height="3.6"/><rect class="cls-2" x="294.7" y="70.02" width="3.6" height="3.6"/><rect class="cls-2" x="301.9" y="70.02" width="3.6" height="3.6"/><rect class="cls-2" x="294.7" y="77.21" width="3.6" height="3.6"/><rect class="cls-2" x="309.11" y="55.62" width="3.6" height="3.6"/><rect class="cls-2" x="309.11" y="48.41" width="3.6" height="3.6"/><rect class="cls-2" x="309.11" y="62.82" width="3.6" height="3.6"/><rect class="cls-2" x="316.31" y="55.62" width="3.6" height="3.6"/><rect class="cls-2" x="316.31" y="62.82" width="3.6" height="3.6"/><rect class="cls-2" x="323.51" y="48.41" width="3.6" height="3.6"/><rect class="cls-2" x="316.31" y="77.21" width="3.6" height="3.6"/><rect class="cls-2" x="323.51" y="77.21" width="3.6" height="3.6"/><rect class="cls-2" x="323.51" y="70.02" width="3.6" height="3.6"/><rect class="cls-2" x="150.7" y="41.21" width="3.6" height="3.6"/><rect class="cls-2" x="157.9" y="41.21" width="3.6" height="3.6"/><rect class="cls-2" x="165.1" y="34.01" width="3.6" height="3.6"/><rect class="cls-2" x="172.31" y="34.01" width="3.6" height="3.6"/><rect class="cls-2" x="165.1" y="41.21" width="3.6" height="3.6"/><rect class="cls-2" x="172.31" y="41.21" width="3.6" height="3.6"/><rect class="cls-2" x="179.51" y="34.01" width="3.6" height="3.6"/><rect class="cls-2" x="179.51" y="41.21" width="3.6" height="3.6"/><rect class="cls-2" x="186.71" y="41.21" width="3.6" height="3.6"/><rect class="cls-2" x="193.9" y="41.21" width="3.6" height="3.6"/><rect class="cls-2" x="222.71" y="26.81" width="3.6" height="3.6"/><rect class="cls-2" x="215.51" y="34.01" width="3.6" height="3.6"/><rect class="cls-2" x="222.71" y="34.01" width="3.6" height="3.6"/><rect class="cls-2" x="215.51" y="41.21" width="3.6" height="3.6"/><rect class="cls-2" x="222.71" y="41.21" width="3.6" height="3.6"/><rect class="cls-2" x="229.91" y="19.62" width="3.6" height="3.6"/><rect class="cls-2" x="237.11" y="19.62" width="3.6" height="3.6"/><rect class="cls-2" x="229.91" y="26.81" width="3.6" height="3.6"/><rect class="cls-2" x="237.11" y="26.81" width="3.6" height="3.6"/><rect class="cls-2" x="229.91" y="41.21" width="3.6" height="3.6"/><rect class="cls-2" x="237.11" y="41.21" width="3.6" height="3.6"/><rect class="cls-2" x="251.5" y="19.62" width="3.6" height="3.6"/><rect class="cls-2" x="251.5" y="26.81" width="3.6" height="3.6"/><rect class="cls-2" x="244.3" y="34.01" width="3.6" height="3.6"/><rect class="cls-2" x="251.5" y="34.01" width="3.6" height="3.6"/><rect class="cls-2" x="244.3" y="41.21" width="3.6" height="3.6"/><rect class="cls-2" x="258.7" y="19.62" width="3.6" height="3.6"/><rect class="cls-2" x="258.7" y="34.01" width="3.6" height="3.6"/><rect class="cls-2" x="258.7" y="41.21" width="3.6" height="3.6"/><rect class="cls-2" x="265.91" y="12.42" width="3.6" height="3.6"/><rect class="cls-2" x="265.91" y="19.62" width="3.6" height="3.6"/><rect class="cls-2" x="273.11" y="12.42" width="3.6" height="3.6"/><rect class="cls-2" x="273.11" y="19.62" width="3.6" height="3.6"/><rect class="cls-2" x="265.91" y="26.81" width="3.6" height="3.6"/><rect class="cls-2" x="265.91" y="34.01" width="3.6" height="3.6"/><rect class="cls-2" x="273.11" y="34.01" width="3.6" height="3.6"/><rect class="cls-2" x="280.31" y="12.42" width="3.6" height="3.6"/><rect class="cls-2" x="287.51" y="12.42" width="3.6" height="3.6"/><rect class="cls-2" x="287.51" y="19.62" width="3.6" height="3.6"/><rect class="cls-2" x="280.31" y="26.81" width="3.6" height="3.6"/><rect class="cls-2" x="287.51" y="26.81" width="3.6" height="3.6"/><rect class="cls-2" x="280.31" y="34.01" width="3.6" height="3.6"/><rect class="cls-2" x="287.51" y="34.01" width="3.6" height="3.6"/><rect class="cls-2" x="280.31" y="41.21" width="3.6" height="3.6"/><rect class="cls-2" x="287.51" y="41.21" width="3.6" height="3.6"/><rect class="cls-2" x="294.7" y="19.62" width="3.6" height="3.6"/><rect class="cls-2" x="301.9" y="19.62" width="3.6" height="3.6"/><rect class="cls-2" x="294.7" y="26.81" width="3.6" height="3.6"/><rect class="cls-2" x="301.9" y="26.81" width="3.6" height="3.6"/><rect class="cls-2" x="294.7" y="34.01" width="3.6" height="3.6"/><rect class="cls-2" x="301.9" y="34.01" width="3.6" height="3.6"/><rect class="cls-2" x="294.7" y="41.21" width="3.6" height="3.6"/><rect class="cls-2" x="301.9" y="41.21" width="3.6" height="3.6"/><rect class="cls-2" x="309.11" y="12.42" width="3.6" height="3.6"/><rect class="cls-2" x="309.11" y="19.62" width="3.6" height="3.6"/><rect class="cls-2" x="309.11" y="26.81" width="3.6" height="3.6"/><rect class="cls-2" x="309.11" y="34.01" width="3.6" height="3.6"/><rect class="cls-2" x="309.11" y="41.21" width="3.6" height="3.6"/><rect class="cls-2" x="316.31" y="12.42" width="3.6" height="3.6"/><rect class="cls-2" x="323.51" y="19.62" width="3.6" height="3.6"/><rect class="cls-2" x="316.31" y="26.81" width="3.6" height="3.6"/><rect class="cls-2" x="323.51" y="26.81" width="3.6" height="3.6"/><rect class="cls-2" x="316.31" y="34.01" width="3.6" height="3.6"/><rect class="cls-2" x="323.51" y="34.01" width="3.6" height="3.6"/><rect class="cls-2" x="316.31" y="41.21" width="3.6" height="3.6"/><rect class="cls-2" x="323.51" y="41.21" width="3.6" height="3.6"/><rect class="cls-2" x="330.71" y="98.82" width="3.6" height="3.6"/><rect class="cls-2" x="330.71" y="106.02" width="3.6" height="3.6"/><rect class="cls-2" x="337.91" y="98.82" width="3.6" height="3.6"/><rect class="cls-2" x="337.91" y="91.61" width="3.6" height="3.6"/><rect class="cls-2" x="337.91" y="106.02" width="3.6" height="3.6"/><rect class="cls-2" x="337.91" y="113.22" width="3.6" height="3.6"/><rect class="cls-2" x="330.71" y="120.42" width="3.6" height="3.6"/><rect class="cls-2" x="337.91" y="120.42" width="3.6" height="3.6"/><rect class="cls-2" x="330.71" y="127.62" width="3.6" height="3.6"/><rect class="cls-2" x="345.1" y="106.02" width="3.6" height="3.6"/><rect class="cls-2" x="352.3" y="98.82" width="3.6" height="3.6"/><rect class="cls-2" x="352.3" y="106.02" width="3.6" height="3.6"/><rect class="cls-2" x="345.1" y="113.22" width="3.6" height="3.6"/><rect class="cls-2" x="352.3" y="113.22" width="3.6" height="3.6"/><rect class="cls-2" x="345.1" y="120.42" width="3.6" height="3.6"/><rect class="cls-2" x="352.3" y="127.62" width="3.6" height="3.6"/><rect class="cls-2" x="359.51" y="98.82" width="3.6" height="3.6"/><rect class="cls-3" x="358.05" y="104.55" width="6.54" height="6.54"/><rect class="cls-2" x="366.71" y="98.82" width="3.6" height="3.6"/><rect class="cls-2" x="366.71" y="91.61" width="3.6" height="3.6"/><rect class="cls-2" x="366.71" y="106.02" width="3.6" height="3.6"/><rect class="cls-2" x="359.51" y="113.22" width="3.6" height="3.6"/><rect class="cls-2" x="366.71" y="113.22" width="3.6" height="3.6"/><rect class="cls-2" x="359.51" y="120.42" width="3.6" height="3.6"/><rect class="cls-2" x="366.71" y="120.42" width="3.6" height="3.6"/><rect class="cls-2" x="359.51" y="127.62" width="3.6" height="3.6"/><rect class="cls-2" x="373.91" y="98.82" width="3.6" height="3.6"/><rect class="cls-2" x="373.91" y="91.61" width="3.6" height="3.6"/><rect class="cls-2" x="373.91" y="106.02" width="3.6" height="3.6"/><rect class="cls-2" x="373.91" y="113.22" width="3.6" height="3.6"/><rect class="cls-2" x="373.91" y="120.42" width="3.6" height="3.6"/><rect class="cls-2" x="381.11" y="98.82" width="3.6" height="3.6"/><rect class="cls-2" x="381.11" y="106.02" width="3.6" height="3.6"/><rect class="cls-2" x="388.31" y="98.82" width="3.6" height="3.6"/><rect class="cls-2" x="381.11" y="91.61" width="3.6" height="3.6"/><rect class="cls-2" x="388.31" y="91.61" width="3.6" height="3.6"/><rect class="cls-2" x="388.31" y="106.02" width="3.6" height="3.6"/><rect class="cls-2" x="381.11" y="113.22" width="3.6" height="3.6"/><rect class="cls-2" x="388.31" y="113.22" width="3.6" height="3.6"/><rect class="cls-2" x="381.11" y="127.62" width="3.6" height="3.6"/><rect class="cls-2" x="388.31" y="127.62" width="3.6" height="3.6"/><rect class="cls-2" x="352.3" y="77.21" width="3.6" height="3.6"/><rect class="cls-2" x="352.3" y="84.41" width="3.6" height="3.6"/><rect class="cls-2" x="366.71" y="62.82" width="3.6" height="3.6"/><rect class="cls-2" x="359.51" y="70.02" width="3.6" height="3.6"/><rect class="cls-2" x="366.71" y="70.02" width="3.6" height="3.6"/><rect class="cls-2" x="359.51" y="77.21" width="3.6" height="3.6"/><rect class="cls-2" x="359.51" y="84.41" width="3.6" height="3.6"/><rect class="cls-2" x="373.91" y="62.82" width="3.6" height="3.6"/><rect class="cls-2" x="373.91" y="70.02" width="3.6" height="3.6"/><rect class="cls-2" x="373.91" y="77.21" width="3.6" height="3.6"/><rect class="cls-2" x="373.91" y="84.41" width="3.6" height="3.6"/><rect class="cls-2" x="381.11" y="70.02" width="3.6" height="3.6"/><rect class="cls-2" x="388.31" y="70.02" width="3.6" height="3.6"/><rect class="cls-2" x="381.11" y="77.21" width="3.6" height="3.6"/><rect class="cls-2" x="388.31" y="77.21" width="3.6" height="3.6"/><rect class="cls-2" x="381.11" y="84.41" width="3.6" height="3.6"/><rect class="cls-2" x="388.31" y="84.41" width="3.6" height="3.6"/><rect class="cls-2" x="395.5" y="98.82" width="3.6" height="3.6"/><rect class="cls-2" x="395.5" y="106.02" width="3.6" height="3.6"/><rect class="cls-2" x="402.7" y="98.82" width="3.6" height="3.6"/><rect class="cls-2" x="395.5" y="91.61" width="3.6" height="3.6"/><rect class="cls-2" x="402.7" y="91.61" width="3.6" height="3.6"/><rect class="cls-2" x="402.7" y="106.02" width="3.6" height="3.6"/><rect class="cls-2" x="395.5" y="113.22" width="3.6" height="3.6"/><rect class="cls-2" x="395.5" y="120.42" width="3.6" height="3.6"/><rect class="cls-2" x="402.7" y="120.42" width="3.6" height="3.6"/><rect class="cls-2" x="395.5" y="127.62" width="3.6" height="3.6"/><rect class="cls-2" x="402.7" y="127.62" width="3.6" height="3.6"/><rect class="cls-2" x="409.91" y="98.82" width="3.6" height="3.6"/><rect class="cls-2" x="409.91" y="106.02" width="3.6" height="3.6"/><rect class="cls-2" x="417.11" y="98.82" width="3.6" height="3.6"/><rect class="cls-2" x="409.91" y="91.61" width="3.6" height="3.6"/><rect class="cls-2" x="417.11" y="91.61" width="3.6" height="3.6"/><rect class="cls-2" x="417.11" y="106.02" width="3.6" height="3.6"/><rect class="cls-3" x="408.45" y="111.75" width="6.54" height="6.54"/><rect class="cls-2" x="417.11" y="113.22" width="3.6" height="3.6"/><rect class="cls-2" x="417.11" y="120.42" width="3.6" height="3.6"/><rect class="cls-2" x="417.11" y="127.62" width="3.6" height="3.6"/><rect class="cls-4" x="424.31" y="98.82" width="3.6" height="3.6"/><rect class="cls-4" x="424.31" y="91.61" width="3.6" height="3.6"/><rect class="cls-4" x="424.31" y="106.02" width="3.6" height="3.6"/><rect class="cls-4" x="424.31" y="113.22" width="3.6" height="3.6"/><rect class="cls-4" x="424.31" y="120.42" width="3.6" height="3.6"/><rect class="cls-4" x="424.31" y="127.62" width="3.6" height="3.6"/><rect class="cls-4" x="431.51" y="98.82" width="3.6" height="3.6"/><rect class="cls-4" x="431.51" y="106.02" width="3.6" height="3.6"/><rect class="cls-4" x="438.71" y="98.82" width="3.6" height="3.6"/><rect class="cls-4" x="431.51" y="91.61" width="3.6" height="3.6"/><rect class="cls-4" x="438.71" y="91.61" width="3.6" height="3.6"/><rect class="cls-4" x="438.71" y="106.02" width="3.6" height="3.6"/><rect class="cls-4" x="431.51" y="113.22" width="3.6" height="3.6"/><rect class="cls-4" x="438.71" y="113.22" width="3.6" height="3.6"/><rect class="cls-4" x="431.51" y="120.42" width="3.6" height="3.6"/><rect class="cls-4" x="438.71" y="120.42" width="3.6" height="3.6"/><rect class="cls-4" x="431.51" y="127.62" width="3.6" height="3.6"/><rect class="cls-4" x="438.71" y="127.62" width="3.6" height="3.6"/><rect class="cls-4" x="445.91" y="98.82" width="3.6" height="3.6"/><rect class="cls-4" x="445.91" y="106.02" width="3.6" height="3.6"/><rect class="cls-4" x="453.11" y="98.82" width="3.6" height="3.6"/><rect class="cls-4" x="445.91" y="91.61" width="3.6" height="3.6"/><rect class="cls-4" x="453.11" y="91.61" width="3.6" height="3.6"/><rect class="cls-4" x="453.11" y="106.02" width="3.6" height="3.6"/><rect class="cls-4" x="445.91" y="113.22" width="3.6" height="3.6"/><rect class="cls-4" x="453.11" y="113.22" width="3.6" height="3.6"/><rect class="cls-4" x="445.91" y="120.42" width="3.6" height="3.6"/><rect class="cls-4" x="453.11" y="120.42" width="3.6" height="3.6"/><rect class="cls-4" x="445.91" y="127.62" width="3.6" height="3.6"/><rect class="cls-4" x="453.11" y="127.62" width="3.6" height="3.6"/><rect class="cls-4" x="460.31" y="98.82" width="3.6" height="3.6"/><rect class="cls-4" x="460.31" y="106.02" width="3.6" height="3.6"/><rect class="cls-4" x="467.51" y="98.82" width="3.6" height="3.6"/><rect class="cls-4" x="460.31" y="91.61" width="3.6" height="3.6"/><rect class="cls-4" x="467.51" y="91.61" width="3.6" height="3.6"/><rect class="cls-4" x="467.51" y="106.02" width="3.6" height="3.6"/><rect class="cls-4" x="460.31" y="113.22" width="3.6" height="3.6"/><rect class="cls-4" x="467.51" y="113.22" width="3.6" height="3.6"/><rect class="cls-4" x="460.31" y="120.42" width="3.6" height="3.6"/><rect class="cls-4" x="467.51" y="120.42" width="3.6" height="3.6"/><rect class="cls-4" x="460.31" y="127.62" width="3.6" height="3.6"/><rect class="cls-4" x="467.51" y="127.62" width="3.6" height="3.6"/><rect class="cls-4" x="474.71" y="98.82" width="3.6" height="3.6"/><rect class="cls-4" x="474.71" y="106.02" width="3.6" height="3.6"/><rect class="cls-4" x="474.71" y="113.22" width="3.6" height="3.6"/><rect class="cls-4" x="474.71" y="120.42" width="3.6" height="3.6"/><rect class="cls-4" x="474.71" y="127.62" width="3.6" height="3.6"/><rect class="cls-4" x="481.91" y="98.82" width="3.6" height="3.6"/><rect class="cls-4" x="481.91" y="106.02" width="3.6" height="3.6"/><rect class="cls-4" x="489.11" y="98.82" width="3.6" height="3.6"/><rect class="cls-4" x="481.91" y="91.61" width="3.6" height="3.6"/><rect class="cls-4" x="489.11" y="91.61" width="3.6" height="3.6"/><rect class="cls-4" x="489.11" y="106.02" width="3.6" height="3.6"/><rect class="cls-4" x="481.91" y="113.22" width="3.6" height="3.6"/><rect class="cls-4" x="489.11" y="113.22" width="3.6" height="3.6"/><rect class="cls-4" x="481.91" y="120.42" width="3.6" height="3.6"/><rect class="cls-4" x="489.11" y="120.42" width="3.6" height="3.6"/><rect class="cls-4" x="481.91" y="127.62" width="3.6" height="3.6"/><rect class="cls-4" x="489.11" y="127.62" width="3.6" height="3.6"/><rect class="cls-2" x="330.71" y="142.01" width="3.6" height="3.6"/><rect class="cls-2" x="330.71" y="149.22" width="3.6" height="3.6"/><rect class="cls-2" x="337.91" y="142.01" width="3.6" height="3.6"/><rect class="cls-2" x="337.91" y="134.81" width="3.6" height="3.6"/><rect class="cls-2" x="337.91" y="149.22" width="3.6" height="3.6"/><rect class="cls-2" x="330.71" y="156.42" width="3.6" height="3.6"/><rect class="cls-2" x="337.91" y="156.42" width="3.6" height="3.6"/><rect class="cls-2" x="330.71" y="163.62" width="3.6" height="3.6"/><rect class="cls-2" x="337.91" y="163.62" width="3.6" height="3.6"/><rect class="cls-2" x="330.71" y="170.82" width="3.6" height="3.6"/><rect class="cls-2" x="337.91" y="170.82" width="3.6" height="3.6"/><rect class="cls-2" x="345.1" y="142.01" width="3.6" height="3.6"/><rect class="cls-2" x="345.1" y="149.22" width="3.6" height="3.6"/><rect class="cls-2" x="352.3" y="142.01" width="3.6" height="3.6"/><rect class="cls-2" x="345.1" y="134.81" width="3.6" height="3.6"/><rect class="cls-2" x="352.3" y="134.81" width="3.6" height="3.6"/><rect class="cls-2" x="352.3" y="149.22" width="3.6" height="3.6"/><rect class="cls-2" x="345.1" y="156.42" width="3.6" height="3.6"/><rect class="cls-2" x="352.3" y="156.42" width="3.6" height="3.6"/><rect class="cls-2" x="345.1" y="163.62" width="3.6" height="3.6"/><rect class="cls-2" x="352.3" y="163.62" width="3.6" height="3.6"/><rect class="cls-2" x="345.1" y="170.82" width="3.6" height="3.6"/><rect class="cls-2" x="352.3" y="170.82" width="3.6" height="3.6"/><rect class="cls-2" x="359.51" y="142.01" width="3.6" height="3.6"/><rect class="cls-2" x="359.51" y="149.22" width="3.6" height="3.6"/><rect class="cls-2" x="366.71" y="142.01" width="3.6" height="3.6"/><rect class="cls-2" x="359.51" y="134.81" width="3.6" height="3.6"/><rect class="cls-2" x="366.71" y="149.22" width="3.6" height="3.6"/><rect class="cls-2" x="359.51" y="156.42" width="3.6" height="3.6"/><rect class="cls-2" x="366.71" y="156.42" width="3.6" height="3.6"/><rect class="cls-2" x="359.51" y="163.62" width="3.6" height="3.6"/><rect class="cls-2" x="366.71" y="163.62" width="3.6" height="3.6"/><rect class="cls-2" x="359.51" y="170.82" width="3.6" height="3.6"/><rect class="cls-2" x="366.71" y="170.82" width="3.6" height="3.6"/><rect class="cls-2" x="373.91" y="142.01" width="3.6" height="3.6"/><rect class="cls-2" x="373.91" y="134.81" width="3.6" height="3.6"/><rect class="cls-2" x="373.91" y="149.22" width="3.6" height="3.6"/><rect class="cls-2" x="373.91" y="156.42" width="3.6" height="3.6"/><rect class="cls-2" x="373.91" y="163.62" width="3.6" height="3.6"/><rect class="cls-2" x="373.91" y="170.82" width="3.6" height="3.6"/><rect class="cls-2" x="381.11" y="142.01" width="3.6" height="3.6"/><rect class="cls-2" x="381.11" y="149.22" width="3.6" height="3.6"/><rect class="cls-2" x="388.31" y="142.01" width="3.6" height="3.6"/><rect class="cls-2" x="388.31" y="134.81" width="3.6" height="3.6"/><rect class="cls-2" x="381.11" y="156.42" width="3.6" height="3.6"/><rect class="cls-2" x="388.31" y="156.42" width="3.6" height="3.6"/><rect class="cls-2" x="381.11" y="163.62" width="3.6" height="3.6"/><rect class="cls-2" x="388.31" y="163.62" width="3.6" height="3.6"/><rect class="cls-2" x="381.11" y="170.82" width="3.6" height="3.6"/><rect class="cls-2" x="388.31" y="170.82" width="3.6" height="3.6"/><rect class="cls-2" x="395.5" y="142.01" width="3.6" height="3.6"/><rect class="cls-2" x="395.5" y="149.22" width="3.6" height="3.6"/><rect class="cls-2" x="402.7" y="142.01" width="3.6" height="3.6"/><rect class="cls-2" x="395.5" y="134.81" width="3.6" height="3.6"/><rect class="cls-2" x="402.7" y="134.81" width="3.6" height="3.6"/><rect class="cls-2" x="402.7" y="149.22" width="3.6" height="3.6"/><rect class="cls-2" x="402.7" y="156.42" width="3.6" height="3.6"/><rect class="cls-2" x="395.5" y="163.62" width="3.6" height="3.6"/><rect class="cls-2" x="395.5" y="170.82" width="3.6" height="3.6"/><rect class="cls-3" x="401.24" y="169.35" width="6.54" height="6.54"/><rect class="cls-2" x="409.91" y="149.22" width="3.6" height="3.6"/><rect class="cls-2" x="417.11" y="142.01" width="3.6" height="3.6"/><rect class="cls-2" x="409.91" y="134.81" width="3.6" height="3.6"/><rect class="cls-2" x="417.11" y="134.81" width="3.6" height="3.6"/><rect class="cls-3" x="415.64" y="147.76" width="6.54" height="6.54"/><rect class="cls-2" x="409.91" y="156.42" width="3.6" height="3.6"/><rect class="cls-2" x="417.11" y="156.42" width="3.6" height="3.6"/><rect class="cls-2" x="409.91" y="170.82" width="3.6" height="3.6"/><rect class="cls-4" x="424.31" y="142.01" width="3.6" height="3.6"/><rect class="cls-4" x="424.31" y="134.81" width="3.6" height="3.6"/><rect class="cls-4" x="431.51" y="142.01" width="3.6" height="3.6"/><rect class="cls-4" x="431.51" y="149.22" width="3.6" height="3.6"/><rect class="cls-4" x="438.71" y="142.01" width="3.6" height="3.6"/><rect class="cls-4" x="431.51" y="134.81" width="3.6" height="3.6"/><rect class="cls-4" x="438.71" y="134.81" width="3.6" height="3.6"/><rect class="cls-4" x="438.71" y="149.22" width="3.6" height="3.6"/><rect class="cls-4" x="438.71" y="156.42" width="3.6" height="3.6"/><rect class="cls-4" x="445.91" y="142.01" width="3.6" height="3.6"/><rect class="cls-4" x="445.91" y="149.22" width="3.6" height="3.6"/><rect class="cls-4" x="453.11" y="142.01" width="3.6" height="3.6"/><rect class="cls-4" x="445.91" y="134.81" width="3.6" height="3.6"/><rect class="cls-4" x="453.11" y="134.81" width="3.6" height="3.6"/><rect class="cls-4" x="453.11" y="149.22" width="3.6" height="3.6"/><rect class="cls-4" x="445.91" y="156.42" width="3.6" height="3.6"/><rect class="cls-4" x="453.11" y="156.42" width="3.6" height="3.6"/><rect class="cls-4" x="445.91" y="163.62" width="3.6" height="3.6"/><rect class="cls-4" x="453.11" y="163.62" width="3.6" height="3.6"/><rect class="cls-4" x="445.91" y="170.82" width="3.6" height="3.6"/><rect class="cls-4" x="460.31" y="142.01" width="3.6" height="3.6"/><rect class="cls-4" x="460.31" y="149.22" width="3.6" height="3.6"/><rect class="cls-4" x="467.51" y="142.01" width="3.6" height="3.6"/><rect class="cls-4" x="460.31" y="134.81" width="3.6" height="3.6"/><rect class="cls-4" x="467.51" y="134.81" width="3.6" height="3.6"/><rect class="cls-4" x="467.51" y="149.22" width="3.6" height="3.6"/><rect class="cls-5" x="466.04" y="154.95" width="6.54" height="6.54"/><rect class="cls-4" x="474.71" y="142.01" width="3.6" height="3.6"/><rect class="cls-4" x="474.71" y="134.81" width="3.6" height="3.6"/><rect class="cls-4" x="474.71" y="149.22" width="3.6" height="3.6"/><rect class="cls-4" x="474.71" y="156.42" width="3.6" height="3.6"/><rect class="cls-4" x="474.71" y="163.62" width="3.6" height="3.6"/><rect class="cls-4" x="474.71" y="170.82" width="3.6" height="3.6"/><rect class="cls-4" x="481.91" y="142.01" width="3.6" height="3.6"/><rect class="cls-4" x="481.91" y="149.22" width="3.6" height="3.6"/><rect class="cls-4" x="489.11" y="142.01" width="3.6" height="3.6"/><rect class="cls-4" x="481.91" y="134.81" width="3.6" height="3.6"/><rect class="cls-4" x="489.11" y="134.81" width="3.6" height="3.6"/><rect class="cls-4" x="489.11" y="149.22" width="3.6" height="3.6"/><rect class="cls-4" x="481.91" y="156.42" width="3.6" height="3.6"/><rect class="cls-4" x="489.11" y="156.42" width="3.6" height="3.6"/><rect class="cls-4" x="481.91" y="163.62" width="3.6" height="3.6"/><rect class="cls-4" x="489.11" y="163.62" width="3.6" height="3.6"/><rect class="cls-4" x="481.91" y="170.82" width="3.6" height="3.6"/><rect class="cls-2" x="395.5" y="55.62" width="3.6" height="3.6"/><rect class="cls-2" x="395.5" y="62.82" width="3.6" height="3.6"/><rect class="cls-2" x="395.5" y="48.41" width="3.6" height="3.6"/><rect class="cls-2" x="402.7" y="62.82" width="3.6" height="3.6"/><rect class="cls-2" x="395.5" y="70.02" width="3.6" height="3.6"/><rect class="cls-2" x="402.7" y="70.02" width="3.6" height="3.6"/><rect class="cls-2" x="395.5" y="77.21" width="3.6" height="3.6"/><rect class="cls-2" x="402.7" y="77.21" width="3.6" height="3.6"/><rect class="cls-2" x="395.5" y="84.41" width="3.6" height="3.6"/><rect class="cls-2" x="402.7" y="84.41" width="3.6" height="3.6"/><rect class="cls-2" x="409.91" y="55.62" width="3.6" height="3.6"/><rect class="cls-2" x="409.91" y="62.82" width="3.6" height="3.6"/><rect class="cls-2" x="417.11" y="55.62" width="3.6" height="3.6"/><rect class="cls-2" x="409.91" y="48.41" width="3.6" height="3.6"/><rect class="cls-2" x="417.11" y="48.41" width="3.6" height="3.6"/><rect class="cls-2" x="417.11" y="62.82" width="3.6" height="3.6"/><rect class="cls-2" x="409.91" y="70.02" width="3.6" height="3.6"/><rect class="cls-2" x="417.11" y="70.02" width="3.6" height="3.6"/><rect class="cls-2" x="409.91" y="77.21" width="3.6" height="3.6"/><rect class="cls-2" x="417.11" y="77.21" width="3.6" height="3.6"/><rect class="cls-2" x="409.91" y="84.41" width="3.6" height="3.6"/><rect class="cls-2" x="417.11" y="84.41" width="3.6" height="3.6"/><rect class="cls-4" x="424.31" y="55.62" width="3.6" height="3.6"/><rect class="cls-4" x="424.31" y="48.41" width="3.6" height="3.6"/><rect class="cls-4" x="424.31" y="62.82" width="3.6" height="3.6"/><rect class="cls-4" x="424.31" y="70.02" width="3.6" height="3.6"/><rect class="cls-4" x="424.31" y="77.21" width="3.6" height="3.6"/><rect class="cls-4" x="424.31" y="84.41" width="3.6" height="3.6"/><rect class="cls-4" x="431.51" y="55.62" width="3.6" height="3.6"/><rect class="cls-4" x="431.51" y="62.82" width="3.6" height="3.6"/><rect class="cls-4" x="438.71" y="55.62" width="3.6" height="3.6"/><rect class="cls-4" x="431.51" y="48.41" width="3.6" height="3.6"/><rect class="cls-4" x="438.71" y="48.41" width="3.6" height="3.6"/><rect class="cls-4" x="438.71" y="62.82" width="3.6" height="3.6"/><rect class="cls-4" x="431.51" y="70.02" width="3.6" height="3.6"/><rect class="cls-4" x="438.71" y="70.02" width="3.6" height="3.6"/><rect class="cls-4" x="431.51" y="77.21" width="3.6" height="3.6"/><rect class="cls-4" x="438.71" y="77.21" width="3.6" height="3.6"/><rect class="cls-4" x="431.51" y="84.41" width="3.6" height="3.6"/><rect class="cls-4" x="438.71" y="84.41" width="3.6" height="3.6"/><rect class="cls-4" x="445.91" y="55.62" width="3.6" height="3.6"/><rect class="cls-4" x="445.91" y="62.82" width="3.6" height="3.6"/><rect class="cls-4" x="453.11" y="55.62" width="3.6" height="3.6"/><rect class="cls-4" x="445.91" y="48.41" width="3.6" height="3.6"/><rect class="cls-4" x="453.11" y="48.41" width="3.6" height="3.6"/><rect class="cls-4" x="453.11" y="62.82" width="3.6" height="3.6"/><rect class="cls-4" x="445.91" y="70.02" width="3.6" height="3.6"/><rect class="cls-4" x="453.11" y="70.02" width="3.6" height="3.6"/><rect class="cls-4" x="445.91" y="77.21" width="3.6" height="3.6"/><rect class="cls-4" x="453.11" y="77.21" width="3.6" height="3.6"/><rect class="cls-4" x="445.91" y="84.41" width="3.6" height="3.6"/><rect class="cls-4" x="453.11" y="84.41" width="3.6" height="3.6"/><rect class="cls-4" x="460.31" y="55.62" width="3.6" height="3.6"/><rect class="cls-4" x="460.31" y="62.82" width="3.6" height="3.6"/><rect class="cls-4" x="467.51" y="55.62" width="3.6" height="3.6"/><rect class="cls-4" x="460.31" y="48.41" width="3.6" height="3.6"/><rect class="cls-4" x="467.51" y="48.41" width="3.6" height="3.6"/><rect class="cls-4" x="467.51" y="62.82" width="3.6" height="3.6"/><rect class="cls-4" x="460.31" y="70.02" width="3.6" height="3.6"/><rect class="cls-5" x="466.04" y="68.55" width="6.54" height="6.54"/><rect class="cls-4" x="460.31" y="77.21" width="3.6" height="3.6"/><rect class="cls-4" x="467.51" y="77.21" width="3.6" height="3.6"/><rect class="cls-4" x="460.31" y="84.41" width="3.6" height="3.6"/><rect class="cls-4" x="467.51" y="84.41" width="3.6" height="3.6"/><rect class="cls-4" x="474.71" y="55.62" width="3.6" height="3.6"/><rect class="cls-4" x="474.71" y="48.41" width="3.6" height="3.6"/><rect class="cls-4" x="474.71" y="62.82" width="3.6" height="3.6"/><rect class="cls-4" x="474.71" y="70.02" width="3.6" height="3.6"/><rect class="cls-4" x="474.71" y="77.21" width="3.6" height="3.6"/><rect class="cls-4" x="474.71" y="84.41" width="3.6" height="3.6"/><rect class="cls-4" x="481.91" y="55.62" width="3.6" height="3.6"/><rect class="cls-4" x="481.91" y="62.82" width="3.6" height="3.6"/><rect class="cls-4" x="489.11" y="55.62" width="3.6" height="3.6"/><rect class="cls-4" x="481.91" y="48.41" width="3.6" height="3.6"/><rect class="cls-4" x="489.11" y="48.41" width="3.6" height="3.6"/><rect class="cls-4" x="489.11" y="62.82" width="3.6" height="3.6"/><rect class="cls-4" x="481.91" y="70.02" width="3.6" height="3.6"/><rect class="cls-4" x="489.11" y="70.02" width="3.6" height="3.6"/><rect class="cls-4" x="481.91" y="77.21" width="3.6" height="3.6"/><rect class="cls-4" x="489.11" y="77.21" width="3.6" height="3.6"/><rect class="cls-4" x="481.91" y="84.41" width="3.6" height="3.6"/><rect class="cls-4" x="489.11" y="84.41" width="3.6" height="3.6"/><rect class="cls-2" x="330.71" y="26.81" width="3.6" height="3.6"/><rect class="cls-2" x="352.3" y="34.01" width="3.6" height="3.6"/><rect class="cls-2" x="352.3" y="41.21" width="3.6" height="3.6"/><rect class="cls-2" x="359.51" y="34.01" width="3.6" height="3.6"/><rect class="cls-2" x="388.31" y="19.62" width="3.6" height="3.6"/><rect class="cls-2" x="381.11" y="26.81" width="3.6" height="3.6"/><rect class="cls-2" x="388.31" y="26.81" width="3.6" height="3.6"/><rect class="cls-2" x="402.7" y="41.21" width="3.6" height="3.6"/><rect class="cls-2" x="417.11" y="12.42" width="3.6" height="3.6"/><rect class="cls-4" x="424.31" y="19.62" width="3.6" height="3.6"/><rect class="cls-4" x="424.31" y="41.21" width="3.6" height="3.6"/><rect class="cls-4" x="431.51" y="19.62" width="3.6" height="3.6"/><rect class="cls-4" x="431.51" y="26.81" width="3.6" height="3.6"/><rect class="cls-4" x="438.71" y="26.81" width="3.6" height="3.6"/><rect class="cls-4" x="431.51" y="34.01" width="3.6" height="3.6"/><rect class="cls-4" x="438.71" y="34.01" width="3.6" height="3.6"/><rect class="cls-4" x="431.51" y="41.21" width="3.6" height="3.6"/><rect class="cls-4" x="438.71" y="41.21" width="3.6" height="3.6"/><rect class="cls-4" x="445.91" y="26.81" width="3.6" height="3.6"/><rect class="cls-4" x="445.91" y="34.01" width="3.6" height="3.6"/><rect class="cls-4" x="453.11" y="34.01" width="3.6" height="3.6"/><rect class="cls-4" x="445.91" y="41.21" width="3.6" height="3.6"/><rect class="cls-4" x="453.11" y="41.21" width="3.6" height="3.6"/><rect class="cls-4" x="467.51" y="34.01" width="3.6" height="3.6"/><rect class="cls-4" x="460.31" y="41.21" width="3.6" height="3.6"/><rect class="cls-4" x="467.51" y="41.21" width="3.6" height="3.6"/><rect class="cls-4" x="474.71" y="19.62" width="3.6" height="3.6"/><rect class="cls-4" x="474.71" y="26.81" width="3.6" height="3.6"/><rect class="cls-4" x="474.71" y="41.21" width="3.6" height="3.6"/><rect class="cls-4" x="481.91" y="19.62" width="3.6" height="3.6"/><rect class="cls-4" x="489.11" y="19.62" width="3.6" height="3.6"/><rect class="cls-4" x="481.91" y="26.81" width="3.6" height="3.6"/><rect class="cls-4" x="481.91" y="34.01" width="3.6" height="3.6"/><rect class="cls-4" x="489.11" y="34.01" width="3.6" height="3.6"/><rect class="cls-4" x="481.91" y="41.21" width="3.6" height="3.6"/><rect class="cls-4" x="489.11" y="41.21" width="3.6" height="3.6"/><rect class="cls-4" x="496.31" y="98.82" width="3.6" height="3.6"/><rect class="cls-4" x="496.31" y="106.02" width="3.6" height="3.6"/><rect class="cls-4" x="503.51" y="98.82" width="3.6" height="3.6"/><rect class="cls-4" x="496.31" y="91.61" width="3.6" height="3.6"/><rect class="cls-4" x="503.51" y="91.61" width="3.6" height="3.6"/><rect class="cls-4" x="503.51" y="106.02" width="3.6" height="3.6"/><rect class="cls-4" x="496.31" y="113.22" width="3.6" height="3.6"/><rect class="cls-4" x="503.51" y="113.22" width="3.6" height="3.6"/><rect class="cls-4" x="496.31" y="120.42" width="3.6" height="3.6"/><rect class="cls-4" x="503.51" y="120.42" width="3.6" height="3.6"/><rect class="cls-4" x="496.31" y="127.62" width="3.6" height="3.6"/><rect class="cls-4" x="503.51" y="127.62" width="3.6" height="3.6"/><rect class="cls-4" x="510.71" y="98.82" width="3.6" height="3.6"/><rect class="cls-4" x="510.71" y="106.02" width="3.6" height="3.6"/><rect class="cls-4" x="517.91" y="98.82" width="3.6" height="3.6"/><rect class="cls-4" x="510.71" y="91.61" width="3.6" height="3.6"/><rect class="cls-4" x="517.91" y="91.61" width="3.6" height="3.6"/><rect class="cls-4" x="517.91" y="106.02" width="3.6" height="3.6"/><rect class="cls-4" x="510.71" y="113.22" width="3.6" height="3.6"/><rect class="cls-4" x="510.71" y="120.42" width="3.6" height="3.6"/><rect class="cls-4" x="517.91" y="127.62" width="3.6" height="3.6"/><rect class="cls-4" x="525.11" y="98.82" width="3.6" height="3.6"/><rect class="cls-4" x="525.11" y="106.02" width="3.6" height="3.6"/><rect class="cls-4" x="525.11" y="113.22" width="3.6" height="3.6"/><rect class="cls-4" x="525.11" y="120.42" width="3.6" height="3.6"/><rect class="cls-4" x="525.11" y="127.62" width="3.6" height="3.6"/><rect class="cls-4" x="539.51" y="91.61" width="3.6" height="3.6"/><rect class="cls-4" x="496.31" y="142.01" width="3.6" height="3.6"/><rect class="cls-5" x="494.84" y="147.76" width="6.54" height="6.54"/><rect class="cls-4" x="503.51" y="142.01" width="3.6" height="3.6"/><rect class="cls-4" x="496.31" y="134.81" width="3.6" height="3.6"/><rect class="cls-4" x="503.51" y="134.81" width="3.6" height="3.6"/><rect class="cls-4" x="503.51" y="149.22" width="3.6" height="3.6"/><rect class="cls-4" x="503.51" y="163.62" width="3.6" height="3.6"/><rect class="cls-4" x="517.91" y="134.81" width="3.6" height="3.6"/><rect class="cls-4" x="510.71" y="163.62" width="3.6" height="3.6"/><rect class="cls-4" x="510.71" y="170.82" width="3.6" height="3.6"/><rect class="cls-4" x="496.31" y="55.62" width="3.6" height="3.6"/><rect class="cls-4" x="496.31" y="62.82" width="3.6" height="3.6"/><rect class="cls-4" x="503.51" y="55.62" width="3.6" height="3.6"/><rect class="cls-4" x="496.31" y="48.41" width="3.6" height="3.6"/><rect class="cls-4" x="503.51" y="48.41" width="3.6" height="3.6"/><rect class="cls-4" x="503.51" y="62.82" width="3.6" height="3.6"/><rect class="cls-4" x="496.31" y="70.02" width="3.6" height="3.6"/><rect class="cls-4" x="503.51" y="70.02" width="3.6" height="3.6"/><rect class="cls-4" x="496.31" y="77.21" width="3.6" height="3.6"/><rect class="cls-4" x="503.51" y="77.21" width="3.6" height="3.6"/><rect class="cls-4" x="496.31" y="84.41" width="3.6" height="3.6"/><rect class="cls-4" x="503.51" y="84.41" width="3.6" height="3.6"/><rect class="cls-4" x="510.71" y="55.62" width="3.6" height="3.6"/><rect class="cls-4" x="510.71" y="62.82" width="3.6" height="3.6"/><rect class="cls-4" x="517.91" y="55.62" width="3.6" height="3.6"/><rect class="cls-4" x="510.71" y="48.41" width="3.6" height="3.6"/><rect class="cls-4" x="517.91" y="48.41" width="3.6" height="3.6"/><rect class="cls-4" x="517.91" y="62.82" width="3.6" height="3.6"/><rect class="cls-4" x="510.71" y="70.02" width="3.6" height="3.6"/><rect class="cls-4" x="517.91" y="70.02" width="3.6" height="3.6"/><rect class="cls-4" x="510.71" y="77.21" width="3.6" height="3.6"/><rect class="cls-4" x="510.71" y="84.41" width="3.6" height="3.6"/><rect class="cls-4" x="525.11" y="55.62" width="3.6" height="3.6"/><rect class="cls-4" x="525.11" y="48.41" width="3.6" height="3.6"/><rect class="cls-4" x="525.11" y="62.82" width="3.6" height="3.6"/><rect class="cls-4" x="532.31" y="55.62" width="3.6" height="3.6"/><rect class="cls-4" x="532.31" y="62.82" width="3.6" height="3.6"/><rect class="cls-4" x="539.51" y="55.62" width="3.6" height="3.6"/><rect class="cls-4" x="532.31" y="48.41" width="3.6" height="3.6"/><rect class="cls-4" x="539.51" y="48.41" width="3.6" height="3.6"/><rect class="cls-4" x="539.51" y="62.82" width="3.6" height="3.6"/><rect class="cls-4" x="532.31" y="70.02" width="3.6" height="3.6"/><rect class="cls-4" x="532.31" y="77.21" width="3.6" height="3.6"/><rect class="cls-4" x="539.51" y="77.21" width="3.6" height="3.6"/><rect class="cls-4" x="532.31" y="84.41" width="3.6" height="3.6"/><rect class="cls-4" x="539.51" y="84.41" width="3.6" height="3.6"/><rect class="cls-4" x="546.71" y="55.62" width="3.6" height="3.6"/><rect class="cls-4" x="546.71" y="48.41" width="3.6" height="3.6"/><rect class="cls-2" x="251.5" y="214.02" width="3.6" height="3.6"/><rect class="cls-3" x="242.84" y="205.35" width="6.54" height="6.54"/><rect class="cls-2" x="251.5" y="206.82" width="3.6" height="3.6"/><rect class="cls-2" x="251.5" y="221.22" width="3.6" height="3.6"/><rect class="cls-2" x="251.5" y="228.42" width="3.6" height="3.6"/><rect class="cls-2" x="244.3" y="235.62" width="3.6" height="3.6"/><rect class="cls-2" x="251.5" y="235.62" width="3.6" height="3.6"/><rect class="cls-2" x="244.3" y="242.82" width="3.6" height="3.6"/><rect class="cls-2" x="251.5" y="242.82" width="3.6" height="3.6"/><rect class="cls-2" x="258.7" y="214.02" width="3.6" height="3.6"/><rect class="cls-2" x="258.7" y="206.82" width="3.6" height="3.6"/><rect class="cls-2" x="258.7" y="221.22" width="3.6" height="3.6"/><rect class="cls-2" x="258.7" y="228.42" width="3.6" height="3.6"/><rect class="cls-2" x="258.7" y="235.62" width="3.6" height="3.6"/><rect class="cls-2" x="258.7" y="242.82" width="3.6" height="3.6"/><rect class="cls-2" x="265.91" y="214.02" width="3.6" height="3.6"/><rect class="cls-2" x="265.91" y="221.22" width="3.6" height="3.6"/><rect class="cls-2" x="273.11" y="214.02" width="3.6" height="3.6"/><rect class="cls-2" x="265.91" y="206.82" width="3.6" height="3.6"/><rect class="cls-2" x="273.11" y="206.82" width="3.6" height="3.6"/><rect class="cls-2" x="273.11" y="221.22" width="3.6" height="3.6"/><rect class="cls-2" x="265.91" y="228.42" width="3.6" height="3.6"/><rect class="cls-3" x="271.64" y="226.95" width="6.54" height="6.54"/><rect class="cls-2" x="265.91" y="235.62" width="3.6" height="3.6"/><rect class="cls-2" x="265.91" y="242.82" width="3.6" height="3.6"/><rect class="cls-2" x="273.11" y="235.62" width="3.6" height="3.6"/><rect class="cls-2" x="280.31" y="214.02" width="3.6" height="3.6"/><rect class="cls-2" x="280.31" y="221.22" width="3.6" height="3.6"/><rect class="cls-2" x="287.51" y="214.02" width="3.6" height="3.6"/><rect class="cls-2" x="280.31" y="206.82" width="3.6" height="3.6"/><rect class="cls-2" x="287.51" y="206.82" width="3.6" height="3.6"/><rect class="cls-2" x="244.3" y="257.22" width="3.6" height="3.6"/><rect class="cls-2" x="251.5" y="257.22" width="3.6" height="3.6"/><rect class="cls-2" x="244.3" y="250.02" width="3.6" height="3.6"/><rect class="cls-2" x="251.5" y="250.02" width="3.6" height="3.6"/><rect class="cls-2" x="251.5" y="264.42" width="3.6" height="3.6"/><rect class="cls-2" x="258.7" y="257.22" width="3.6" height="3.6"/><rect class="cls-2" x="258.7" y="250.02" width="3.6" height="3.6"/><rect class="cls-2" x="258.7" y="271.62" width="3.6" height="3.6"/><rect class="cls-2" x="237.11" y="178.02" width="3.6" height="3.6"/><rect class="cls-2" x="229.91" y="185.21" width="3.6" height="3.6"/><rect class="cls-2" x="237.11" y="185.21" width="3.6" height="3.6"/><rect class="cls-2" x="229.91" y="192.42" width="3.6" height="3.6"/><rect class="cls-2" x="237.11" y="192.42" width="3.6" height="3.6"/><rect class="cls-2" x="237.11" y="199.62" width="3.6" height="3.6"/><rect class="cls-2" x="244.3" y="178.02" width="3.6" height="3.6"/><rect class="cls-2" x="251.5" y="178.02" width="3.6" height="3.6"/><rect class="cls-2" x="244.3" y="185.21" width="3.6" height="3.6"/><rect class="cls-2" x="251.5" y="185.21" width="3.6" height="3.6"/><rect class="cls-2" x="244.3" y="192.42" width="3.6" height="3.6"/><rect class="cls-2" x="251.5" y="192.42" width="3.6" height="3.6"/><rect class="cls-2" x="244.3" y="199.62" width="3.6" height="3.6"/><rect class="cls-2" x="251.5" y="199.62" width="3.6" height="3.6"/><rect class="cls-2" x="258.7" y="178.02" width="3.6" height="3.6"/><rect class="cls-2" x="258.7" y="185.21" width="3.6" height="3.6"/><rect class="cls-2" x="258.7" y="192.42" width="3.6" height="3.6"/><rect class="cls-2" x="258.7" y="199.62" width="3.6" height="3.6"/><rect class="cls-2" x="265.91" y="178.02" width="3.6" height="3.6"/><rect class="cls-2" x="273.11" y="178.02" width="3.6" height="3.6"/><rect class="cls-2" x="265.91" y="185.21" width="3.6" height="3.6"/><rect class="cls-2" x="273.11" y="185.21" width="3.6" height="3.6"/><rect class="cls-2" x="265.91" y="192.42" width="3.6" height="3.6"/><rect class="cls-2" x="273.11" y="192.42" width="3.6" height="3.6"/><rect class="cls-2" x="265.91" y="199.62" width="3.6" height="3.6"/><rect class="cls-2" x="273.11" y="199.62" width="3.6" height="3.6"/><rect class="cls-2" x="280.31" y="185.21" width="3.6" height="3.6"/><rect class="cls-3" x="286.04" y="183.75" width="6.54" height="6.54"/><rect class="cls-2" x="280.31" y="192.42" width="3.6" height="3.6"/><rect class="cls-2" x="287.51" y="192.42" width="3.6" height="3.6"/><rect class="cls-2" x="280.31" y="199.62" width="3.6" height="3.6"/><rect class="cls-2" x="287.51" y="199.62" width="3.6" height="3.6"/><rect class="cls-2" x="294.7" y="192.42" width="3.6" height="3.6"/><rect class="cls-2" x="359.51" y="214.02" width="3.6" height="3.6"/><rect class="cls-2" x="366.71" y="214.02" width="3.6" height="3.6"/><rect class="cls-2" x="359.51" y="206.82" width="3.6" height="3.6"/><rect class="cls-2" x="366.71" y="206.82" width="3.6" height="3.6"/><rect class="cls-2" x="366.71" y="221.22" width="3.6" height="3.6"/><rect class="cls-2" x="366.71" y="228.42" width="3.6" height="3.6"/><rect class="cls-2" x="373.91" y="214.02" width="3.6" height="3.6"/><rect class="cls-2" x="373.91" y="206.82" width="3.6" height="3.6"/><rect class="cls-2" x="373.91" y="221.22" width="3.6" height="4.47"/><rect class="cls-2" x="373.91" y="228.42" width="3.6" height="3.6"/><rect class="cls-2" x="381.11" y="214.02" width="3.6" height="3.6"/><rect class="cls-3" x="379.64" y="219.75" width="6.54" height="6.54"/><rect class="cls-2" x="388.31" y="214.02" width="3.6" height="3.6"/><rect class="cls-2" x="381.11" y="206.82" width="3.6" height="3.6"/><rect class="cls-2" x="388.31" y="206.82" width="3.6" height="3.6"/><rect class="cls-3" x="350.84" y="176.55" width="6.54" height="6.54"/><rect class="cls-2" x="352.3" y="185.21" width="3.6" height="3.6"/><rect class="cls-2" x="359.51" y="178.02" width="3.6" height="3.6"/><rect class="cls-2" x="366.71" y="178.02" width="3.6" height="3.6"/><rect class="cls-2" x="359.51" y="185.21" width="3.6" height="3.6"/><rect class="cls-2" x="366.71" y="185.21" width="3.6" height="3.6"/><rect class="cls-2" x="359.51" y="192.42" width="3.6" height="3.6"/><rect class="cls-2" x="366.71" y="192.42" width="3.6" height="3.6"/><rect class="cls-2" x="359.51" y="199.62" width="3.6" height="3.6"/><rect class="cls-2" x="366.71" y="199.62" width="3.6" height="3.6"/><rect class="cls-2" x="373.91" y="178.02" width="3.6" height="3.6"/><rect class="cls-2" x="373.91" y="185.21" width="3.6" height="3.6"/><rect class="cls-2" x="373.91" y="192.42" width="3.6" height="3.6"/><rect class="cls-2" x="373.91" y="199.62" width="3.6" height="3.6"/><rect class="cls-2" x="381.11" y="178.02" width="3.6" height="3.6"/><rect class="cls-2" x="388.31" y="178.02" width="3.6" height="3.6"/><rect class="cls-2" x="381.11" y="185.21" width="3.6" height="3.6"/><rect class="cls-2" x="381.11" y="192.42" width="3.6" height="3.6"/><rect class="cls-2" x="388.31" y="192.42" width="3.6" height="3.6"/><rect class="cls-2" x="381.11" y="199.62" width="3.6" height="3.6"/><rect class="cls-2" x="388.31" y="199.62" width="3.6" height="3.6"/><rect class="cls-2" x="402.7" y="214.02" width="3.6" height="3.6"/><rect class="cls-2" x="402.7" y="206.82" width="3.6" height="3.6"/><rect class="cls-2" x="409.91" y="206.82" width="3.6" height="3.6"/><rect class="cls-2" x="395.5" y="178.02" width="3.6" height="3.6"/><rect class="cls-2" x="402.7" y="178.02" width="3.6" height="3.6"/><rect class="cls-2" x="395.5" y="185.21" width="3.6" height="3.6"/><rect class="cls-2" x="395.5" y="192.42" width="3.6" height="3.6"/><rect class="cls-2" x="395.5" y="199.62" width="3.6" height="3.6"/><rect class="cls-2" x="409.91" y="199.62" width="3.6" height="3.6"/><rect class="cls-4" x="474.71" y="178.02" width="3.6" height="3.6"/><rect class="cls-4" x="481.91" y="178.02" width="3.6" height="3.6"/><rect class="cls-4" x="481.91" y="185.21" width="3.6" height="3.6"/><rect class="cls-4" x="489.11" y="185.21" width="3.6" height="3.6"/><rect class="cls-4" x="489.11" y="192.42" width="3.6" height="3.6"/><rect class="cls-4" x="496.31" y="221.22" width="3.6" height="3.6"/><rect class="cls-4" x="503.51" y="214.02" width="3.6" height="3.6"/><rect class="cls-4" x="503.51" y="221.22" width="3.6" height="3.6"/><rect class="cls-4" x="496.31" y="228.42" width="3.6" height="3.6"/><rect class="cls-4" x="503.51" y="228.42" width="3.6" height="3.6"/><rect class="cls-4" x="496.31" y="235.62" width="3.6" height="3.6"/><rect class="cls-4" x="503.51" y="235.62" width="3.6" height="3.6"/><rect class="cls-4" x="510.71" y="214.02" width="3.6" height="3.6"/><rect class="cls-4" x="510.71" y="221.22" width="3.6" height="3.6"/><rect class="cls-4" x="517.91" y="214.02" width="3.6" height="3.6"/><rect class="cls-4" x="510.71" y="206.82" width="3.6" height="3.6"/><rect class="cls-4" x="517.91" y="206.82" width="3.6" height="3.6"/><rect class="cls-4" x="517.91" y="221.22" width="3.6" height="3.6"/><rect class="cls-4" x="510.71" y="228.42" width="3.6" height="3.6"/><rect class="cls-5" x="516.44" y="226.95" width="6.54" height="6.54"/><rect class="cls-4" x="525.11" y="214.02" width="3.6" height="3.6"/><rect class="cls-4" x="525.11" y="206.82" width="3.6" height="3.6"/><rect class="cls-4" x="525.11" y="221.22" width="3.6" height="3.6"/><rect class="cls-4" x="525.11" y="228.42" width="3.6" height="3.6"/><rect class="cls-4" x="525.11" y="235.62" width="3.6" height="3.6"/><rect class="cls-4" x="525.11" y="242.82" width="3.6" height="3.6"/><rect class="cls-4" x="532.31" y="214.02" width="3.6" height="3.6"/><rect class="cls-4" x="532.31" y="221.22" width="3.6" height="3.6"/><rect class="cls-4" x="539.51" y="214.02" width="3.6" height="3.6"/><rect class="cls-4" x="532.31" y="206.82" width="3.6" height="3.6"/><rect class="cls-4" x="539.51" y="206.82" width="3.6" height="3.6"/><rect class="cls-4" x="539.51" y="221.22" width="3.6" height="3.6"/><rect class="cls-4" x="532.31" y="228.42" width="3.6" height="3.6"/><rect class="cls-4" x="539.51" y="228.42" width="3.6" height="3.6"/><rect class="cls-4" x="532.31" y="235.62" width="3.6" height="3.6"/><rect class="cls-4" x="539.51" y="235.62" width="3.6" height="3.6"/><rect class="cls-4" x="532.31" y="242.82" width="3.6" height="3.6"/><rect class="cls-4" x="539.51" y="242.82" width="3.6" height="3.6"/><rect class="cls-4" x="546.71" y="214.02" width="3.6" height="3.6"/><rect class="cls-4" x="546.71" y="221.22" width="3.6" height="3.6"/><rect class="cls-4" x="546.71" y="228.42" width="3.6" height="3.6"/><rect class="cls-4" x="546.71" y="235.62" width="3.6" height="3.6"/><rect class="cls-4" x="575.51" y="242.82" width="3.6" height="3.6"/><rect class="cls-4" x="532.31" y="257.22" width="3.6" height="3.6"/><rect class="cls-4" x="532.31" y="250.02" width="3.6" height="3.6"/><rect class="cls-4" x="553.92" y="264.42" width="3.6" height="3.6"/><rect class="cls-4" x="561.11" y="257.22" width="3.6" height="3.6"/><rect class="cls-4" x="561.11" y="264.42" width="3.6" height="3.6"/><rect class="cls-4" x="568.31" y="257.22" width="3.6" height="3.6"/><rect class="cls-4" x="568.31" y="250.02" width="3.6" height="3.6"/><rect class="cls-4" x="575.51" y="250.02" width="3.6" height="3.6"/><rect class="cls-4" x="496.31" y="178.02" width="3.6" height="3.6"/><rect class="cls-4" x="503.51" y="178.02" width="3.6" height="3.6"/><rect class="cls-4" x="496.31" y="185.21" width="3.6" height="3.6"/><rect class="cls-4" x="503.51" y="185.21" width="3.6" height="3.6"/><rect class="cls-4" x="503.51" y="192.42" width="3.6" height="3.6"/><rect class="cls-4" x="510.71" y="185.21" width="3.6" height="3.6"/><rect class="cls-4" x="510.71" y="199.62" width="3.6" height="3.6"/><rect class="cls-4" x="525.11" y="185.21" width="3.6" height="3.6"/><rect class="cls-4" x="525.11" y="199.62" width="3.6" height="3.6"/><rect class="cls-4" x="532.31" y="185.21" width="3.6" height="3.6"/><rect class="cls-4" x="532.31" y="192.42" width="3.6" height="3.6"/><rect class="cls-4" x="539.51" y="192.42" width="3.6" height="3.6"/><rect class="cls-4" x="532.31" y="199.62" width="3.6" height="3.6"/><rect class="cls-4" x="546.71" y="192.42" width="3.6" height="3.6"/><rect class="cls-4" x="546.71" y="199.62" width="3.6" height="3.6"/><rect class="cls-4" x="496.31" y="34.01" width="3.6" height="3.6"/><rect class="cls-4" x="503.51" y="34.01" width="3.6" height="3.6"/><rect class="cls-4" x="496.31" y="41.21" width="3.6" height="3.6"/><rect class="cls-4" x="503.51" y="41.21" width="3.6" height="3.6"/><rect class="cls-4" x="510.71" y="34.01" width="3.6" height="3.6"/><rect class="cls-4" x="517.91" y="34.01" width="3.6" height="3.6"/><rect class="cls-4" x="510.71" y="41.21" width="3.6" height="3.6"/><rect class="cls-4" x="517.91" y="41.21" width="3.6" height="3.6"/><rect class="cls-4" x="525.11" y="26.81" width="3.6" height="3.6"/><rect class="cls-4" x="525.11" y="34.01" width="3.6" height="3.6"/><rect class="cls-4" x="525.11" y="41.21" width="3.6" height="3.6"/><rect class="cls-4" x="532.31" y="26.81" width="3.6" height="3.6"/><rect class="cls-4" x="532.31" y="34.01" width="3.6" height="3.6"/><rect class="cls-4" x="539.51" y="34.01" width="3.6" height="3.6"/><rect class="cls-4" x="532.31" y="41.21" width="3.6" height="3.6"/><rect class="cls-4" x="539.51" y="41.21" width="3.6" height="3.6"/><rect class="cls-4" x="546.71" y="34.01" width="3.6" height="3.6"/><path class="cls-1" d="M36.5,318.39v-25h5.2l9.56,22.5H52v-22.5h2.74v25H49.68L40,295.88H39.3v22.51Z"/><path class="cls-1" d="M79.6,306.09c0,4.44-.69,7.62-2.12,9.66s-4,3-7.73,3-6.35-1-7.73-3.06-2.14-5.26-2.14-9.65.73-7.62,2.16-9.78,4-3.19,7.62-3.19,6.25,1.06,7.71,3.18S79.6,301.64,79.6,306.09Zm-16.87,0q0,5.48,1.44,7.87t5.58,2.4q4.11,0,5.55-2.35t1.42-7.86q0-5.52-1.47-8t-5.54-2.54q-4,0-5.51,2.54c-1,1.7-1.46,4.33-1.47,7.92Z"/><path class="cls-1" d="M87.29,310.89q0,5.42,5.85,5.41A7,7,0,0,0,97.7,315a5.05,5.05,0,0,0,1.52-4.13V293.43H102v17.38q0,4.2-2.21,6.06a9.94,9.94,0,0,1-6.56,1.88,9.65,9.65,0,0,1-6.5-1.88q-2.19-1.86-2.18-6.06V293.43h2.77Z"/><path class="cls-1" d="M110.7,308.83v9.56h-2.78v-25h9.24a8.45,8.45,0,0,1,6,1.84,7.43,7.43,0,0,1,2,5.74c0,3.81-1.54,6.26-4.58,7.24l4.8,10.16h-3.08l-4.51-9.57Zm6.49-2.45q5.09,0,5.08-5.24t-5.08-5.26h-6.45v10.5Z"/><path class="cls-1" d="M132.92,308.83v9.56h-2.77v-25h9.23a8.49,8.49,0,0,1,6,1.84,7.45,7.45,0,0,1,2,5.74q0,5.78-4.57,7.24l4.8,10.16H144.5L140,308.84Zm6.5-2.45c3.38,0,5.08-1.75,5.08-5.24s-1.7-5.25-5.08-5.26H133v10.5Z"/><path class="cls-1" d="M152.36,318.39v-25h2.78v25Z"/><path class="cls-1" d="M164,308.83v9.56h-2.79v-25h9.24a8.49,8.49,0,0,1,6,1.84,7.46,7.46,0,0,1,2,5.74c0,3.81-1.54,6.26-4.58,7.24l4.8,10.16h-3.08l-4.5-9.57Zm6.48-2.45q5.08,0,5.08-5.24t-5.08-5.26h-6.45v10.5Z"/><path class="cls-1" d="M39.11,351q0,5.41,5.84,5.41a7,7,0,0,0,4.57-1.27A5.05,5.05,0,0,0,51,351V333.51h2.75v17.38c0,2.78-.74,4.81-2.23,6.06a12.29,12.29,0,0,1-13.05,0c-1.45-1.27-2.18-3.28-2.18-6.06V333.51h2.78Z"/><path class="cls-1" d="M59.74,358.46V333.51h5.18l9.57,22.55h.76V333.51H78v24.95H72.91L63.21,336h-.69v22.5Z"/><path class="cls-6" d="M92.79,358.46V325.58h9.28l7.35,25.73,7.37-25.73h9.32v32.94h-5.39V331.44H120l-7.78,25.67h-5.58l-7.8-25.67h-.72v27Z"/><path class="cls-6" d="M156.05,355q-3,4-10.41,4t-10.44-4.06q-3-4.05-3-12.76t3-12.94q3-4.23,10.41-4.23c4.94,0,8.39,1.39,10.39,4.2s3,7.13,3,13S158,352.25,156.05,355Zm-16.66-3.47q1.62,2.83,6.25,2.84c3.07,0,5.16-.92,6.22-2.79s1.61-5,1.61-9.35-.54-7.62-1.66-9.55-3.16-3-6.17-3-5.08,1-6.21,3-1.68,5.16-1.68,9.5.55,7.46,1.64,9.35Z"/><path class="cls-6" d="M165.21,358.46V325.58h9.33l10,28.23h.71V325.58h5.35v32.94h-9.15l-10.23-28.26h-.67v28.26Z"/><path class="cls-6" d="M209.59,358.46H198.16V325.58h11.43q7.62,0,10.39,3.81t2.79,12.08a38.41,38.41,0,0,1-.55,7.1,16.16,16.16,0,0,1-1.95,5.25Q217.52,358.47,209.59,358.46Zm7.62-17q0-6-1.48-8.61c-1-1.77-3-2.65-6.16-2.64h-6.06v23.56h6.06q4.76,0,6.35-3.51a13.87,13.87,0,0,0,1-3.81,39.55,39.55,0,0,0,.29-5Z"/><path class="cls-6" d="M229,358.46V325.58H249.8v4.68H234.41v9.29H247v4.62H234.41v9.62h15.43v4.71Z"/><path class="cls-1" d="M36.3,398.54v-24.7H51.87v3.49H40.3v7h9.41v3.48H40.3V395H51.87v3.53Z"/><path class="cls-1" d="M56.24,398.54v-24.7h7L70.74,395h.53V373.84h4v24.7H68.43l-7.68-21.21h-.51v21.21Z"/><path class="cls-5" d="M109.21,398.06a40.54,40.54,0,0,1-8.42,1,16.12,16.12,0,0,1-6-.93,7.36,7.36,0,0,1-3.52-2.95,12.8,12.8,0,0,1-1.76-4.77,39.5,39.5,0,0,1-.5-6.87c0-5.79.83-9.83,2.45-12.1s4.64-3.41,9-3.41a37.74,37.74,0,0,1,8.78,1.19l-.18,4.84a50.34,50.34,0,0,0-7.25-.65,8.28,8.28,0,0,0-4.13.76,4.79,4.79,0,0,0-1.83,2.94,31.33,31.33,0,0,0-.6,7.36c0,3.47.43,5.87,1.27,7.2s2.43,2,4.86,2a54.06,54.06,0,0,0,7.73-.61Z"/><path class="cls-5" d="M131.38,398.54V386.11H120.23v12.43h-6.08v-30h6.08v12.26h11.15V368.56h6.08v30Z"/><path class="cls-5" d="M141.47,398.54l6.75-30h11.55l6.75,30h-6.09l-1.19-5.42H148.75l-1.19,5.42Zm11.43-25-3,14.23h8.21l-3-14.25Z"/><path class="cls-5" d="M170.53,398.54v-30H180.8L188,393.24h.44V368.56h6.09v30h-10l-7.49-24.7h-.45v24.69Z"/><path class="cls-5" d="M213.55,387.81v-5.29h8.73v15.56a67.92,67.92,0,0,1-10.16,1c-4.67,0-7.89-1.27-9.64-3.75s-2.61-6.46-2.61-11.91.91-9.36,2.73-11.76,4.92-3.62,9.3-3.62a45.7,45.7,0,0,1,8.89.93l1.59.3L222.2,374a78.21,78.21,0,0,0-8.66-.57,10.21,10.21,0,0,0-4.73.78,4.7,4.7,0,0,0-2,2.94,29.44,29.44,0,0,0-.64,7.31c0,3.45.43,5.87,1.27,7.25s2.62,2.07,5.3,2.07l3.66-.18v-5.81Z"/><path class="cls-5" d="M228.06,398.54v-30h19.39v5.28H234.09v7h10.68v5.21H234.09v7.17h13.32v5.3Z"/><path class="cls-5" d="M252.44,398.54v-30h10.35l5.29,21.86,5.29-21.86h10.36v30h-6.08V375.35H277l-5.87,21.87H265l-5.86-21.87h-.64v23.19Z"/><path class="cls-5" d="M290.28,398.54v-30h19.39v5.28H296.34v7H307v5.21H296.34v7.17h13.31v5.3Z"/><path class="cls-5" d="M314.68,398.54v-30H325l7.24,24.68h.44V368.56h6.09v30h-10l-7.5-24.7h-.45v24.69Z"/><path class="cls-5" d="M342.53,373.94v-5.38h22v5.38h-7.93v24.6h-6.09v-24.6Z"/><rect class="cls-1" x="4.57" y="289.11" width="3.81" height="113.95"/><rect class="cls-6" x="441.45" y="327.53" width="133.47" height="73.38" rx="36.69"/><g class="cls-7"><g class="cls-7"><path class="cls-4" d="M464,344.67V343h8.5v1.68h-3.28v10h-1.9v-10Z"/></g><g class="cls-7"><path class="cls-4" d="M472.71,354.64v-8.5h1.84v1a8.1,8.1,0,0,1,2.89-1.2v1.85a11.61,11.61,0,0,0-2.5.75l-.37.15v5.94Z"/></g><g class="cls-7"><path class="cls-4" d="M479.25,347.05a4.41,4.41,0,0,1,5.83,0,5.26,5.26,0,0,1,.88,3.32,5.52,5.52,0,0,1-.85,3.33,4.42,4.42,0,0,1-5.88,0,5.45,5.45,0,0,1-.85-3.33A5.33,5.33,0,0,1,479.25,347.05Zm1.39,5.53a2.06,2.06,0,0,0,3.06,0,4.72,4.72,0,0,0,.39-2.23,4.21,4.21,0,0,0-.42-2.19,2.07,2.07,0,0,0-3,0,4.23,4.23,0,0,0-.41,2.19A4.72,4.72,0,0,0,480.64,352.58Z"/><path class="cls-4" d="M493,346.14h1.83v8.5H493v-.53a4.75,4.75,0,0,1-2.3.71,2.57,2.57,0,0,1-2.35-.94,6.7,6.7,0,0,1-.59-3.31v-4.43h1.85v4.45a5.44,5.44,0,0,0,.26,2.06c.17.35.56.52,1.19.52a4,4,0,0,0,1.68-.34l.26-.1Z"/></g><g class="cls-7"><path class="cls-4" d="M496.23,346.14h1.93l1.64,6.91h.54l1.7-6.91h1.89l-2.21,8.5h-3.3Z"/></g><g class="cls-7"><path class="cls-4" d="M511.29,353.11l.47-.06,0,1.38a17.75,17.75,0,0,1-3.44.39,3.26,3.26,0,0,1-2.71-1,5.37,5.37,0,0,1-.82-3.32q0-4.52,3.69-4.52t3.57,3.89l-.12,1.33H506.7a2.26,2.26,0,0,0,.46,1.54,2.14,2.14,0,0,0,1.64.5C509.61,353.21,510.44,353.17,511.29,353.11Zm-1-3.37a2.94,2.94,0,0,0-.4-1.76,1.65,1.65,0,0,0-1.35-.5,1.67,1.67,0,0,0-1.39.53,2.78,2.78,0,0,0-.45,1.73Z"/><path class="cls-4" d="M513.87,354.64v-8.5h1.84v1a8,8,0,0,1,2.89-1.2v1.85a11.43,11.43,0,0,0-2.5.75l-.38.15v5.94Z"/><path class="cls-4" d="M528.9,346.14h1.83v8.5H528.9v-.53a4.72,4.72,0,0,1-2.3.71,2.55,2.55,0,0,1-2.34-.94,6.56,6.56,0,0,1-.6-3.31v-4.43h1.86v4.45a5.49,5.49,0,0,0,.25,2.06c.17.35.57.52,1.19.52a4,4,0,0,0,1.68-.34l.26-.1Z"/><path class="cls-4" d="M534.83,354.64H533v-8.5h1.83v.52a4.8,4.8,0,0,1,2.35-.71,2.55,2.55,0,0,1,2.32,1,6.12,6.12,0,0,1,.62,3.17v4.56h-1.83v-4.51a4.52,4.52,0,0,0-.3-1.95,1.24,1.24,0,0,0-1.22-.58,4.11,4.11,0,0,0-1.66.34l-.26.1Z"/></g><g class="cls-7"><path class="cls-4" d="M464.91,370.64v-8.5h1.84v1a8.1,8.1,0,0,1,2.89-1.2v1.85a11.61,11.61,0,0,0-2.5.75l-.37.15v5.94Z"/></g><g class="cls-7"><path class="cls-4" d="M477,369.11l.47-.06,0,1.38a17.75,17.75,0,0,1-3.44.39,3.26,3.26,0,0,1-2.71-1,5.37,5.37,0,0,1-.82-3.32q0-4.52,3.69-4.52t3.57,3.89l-.12,1.33h-5.27a2.26,2.26,0,0,0,.46,1.54,2.14,2.14,0,0,0,1.64.5C475.36,369.21,476.19,369.17,477,369.11Zm-5.1-9.47,4-1.72.58,1.6-4.15,1.32Zm4.08,6.1a2.94,2.94,0,0,0-.4-1.76,1.65,1.65,0,0,0-1.35-.5,1.67,1.67,0,0,0-1.39.53,2.78,2.78,0,0,0-.45,1.73Z"/><path class="cls-4" d="M479.62,374.29V362.14h1.84v.52a4.3,4.3,0,0,1,2.19-.71,2.88,2.88,0,0,1,2.46,1,5.73,5.73,0,0,1,.79,3.45,5.07,5.07,0,0,1-.9,3.41,3.77,3.77,0,0,1-2.91,1,10.15,10.15,0,0,1-1.62-.15v3.62Zm3.71-10.69a4,4,0,0,0-1.6.35l-.26.12v5a7.76,7.76,0,0,0,1.5.13,1.79,1.79,0,0,0,1.6-.66,4.3,4.3,0,0,0,.44-2.26Q485,363.6,483.33,363.6Z"/></g><g class="cls-7"><path class="cls-4" d="M488.74,370.64v-8.5h1.84v1a8.1,8.1,0,0,1,2.89-1.2v1.85a11.43,11.43,0,0,0-2.5.75l-.37.15v5.94Z"/></g><g class="cls-7"><path class="cls-4" d="M500.87,369.11l.47-.06,0,1.38a17.75,17.75,0,0,1-3.44.39,3.26,3.26,0,0,1-2.71-1,5.37,5.37,0,0,1-.82-3.32q0-4.52,3.69-4.52t3.57,3.89l-.12,1.33h-5.27a2.26,2.26,0,0,0,.46,1.54,2.14,2.14,0,0,0,1.64.5C499.19,369.21,500,369.17,500.87,369.11Zm-1-3.37a2.94,2.94,0,0,0-.4-1.76,1.65,1.65,0,0,0-1.35-.5,1.67,1.67,0,0,0-1.39.53,2.78,2.78,0,0,0-.45,1.73Z"/><path class="cls-4" d="M509.35,363.89a25.34,25.34,0,0,0-2.91-.28,2.59,2.59,0,0,0-1.25.22.73.73,0,0,0-.35.67.65.65,0,0,0,.39.64,8.31,8.31,0,0,0,1.8.44,4.1,4.1,0,0,1,2,.77,2.41,2.41,0,0,1,.6,1.87,2.28,2.28,0,0,1-.86,2,4.21,4.21,0,0,1-2.51.63,14.5,14.5,0,0,1-2.62-.29l-.52-.08.07-1.55a25.29,25.29,0,0,0,2.94.27,2.69,2.69,0,0,0,1.28-.22.78.78,0,0,0,.38-.73.72.72,0,0,0-.36-.7,7.16,7.16,0,0,0-1.75-.43,4.61,4.61,0,0,1-2-.72,2.15,2.15,0,0,1-.64-1.8,2.26,2.26,0,0,1,.89-2,3.83,3.83,0,0,1,2.29-.64,16.43,16.43,0,0,1,2.67.27l.52.1Z"/><path class="cls-4" d="M517.48,369.11l.47-.06,0,1.38a17.75,17.75,0,0,1-3.44.39,3.26,3.26,0,0,1-2.71-1,5.37,5.37,0,0,1-.82-3.32c0-3,1.22-4.52,3.68-4.52s3.57,1.3,3.57,3.89l-.11,1.33h-5.27a2.32,2.32,0,0,0,.45,1.54,2.18,2.18,0,0,0,1.65.5C515.8,369.21,516.63,369.17,517.48,369.11Zm-1-3.37a3,3,0,0,0-.39-1.76,2.08,2.08,0,0,0-2.74,0,2.78,2.78,0,0,0-.45,1.73Z"/><path class="cls-4" d="M521.91,370.64h-1.85v-8.5h1.84v.52a4.73,4.73,0,0,1,2.34-.71,2.55,2.55,0,0,1,2.32,1,6,6,0,0,1,.62,3.17v4.56h-1.83v-4.51a4.52,4.52,0,0,0-.3-1.95,1.23,1.23,0,0,0-1.22-.58,4.11,4.11,0,0,0-1.66.34l-.26.1Z"/><path class="cls-4" d="M533.91,363.72h-2.34v3.74a4,4,0,0,0,.15,1.37c.1.23.36.34.78.34l1.4-.05.08,1.48a9.67,9.67,0,0,1-1.73.22,2.43,2.43,0,0,1-2-.66,4.16,4.16,0,0,1-.54-2.5v-3.94h-1.09v-1.58h1.09v-2.47h1.84v2.47h2.34Z"/><path class="cls-4" d="M541.72,364.75v3.88a.79.79,0,0,0,.19.55.93.93,0,0,0,.55.23l-.05,1.41a3.59,3.59,0,0,1-2.26-.63,6.43,6.43,0,0,1-2.73.63c-1.69,0-2.54-.9-2.54-2.7a2.3,2.3,0,0,1,.69-1.87,3.74,3.74,0,0,1,2.12-.7l2.19-.18v-.62a1.24,1.24,0,0,0-.3-.95,1.26,1.26,0,0,0-.87-.27c-.73,0-1.63,0-2.72.14l-.55,0-.06-1.31a15,15,0,0,1,3.4-.44,3.14,3.14,0,0,1,2.25.67A2.87,2.87,0,0,1,541.72,364.75Zm-3.81,2.11a1.14,1.14,0,0,0-1.17,1.28c0,.78.34,1.17,1,1.17a6.55,6.55,0,0,0,1.8-.27l.31-.1v-2.27Z"/><path class="cls-4" d="M545.9,370.64h-1.85v-8.5h1.83v.52a4.8,4.8,0,0,1,2.35-.71,2.57,2.57,0,0,1,2.32,1,6.12,6.12,0,0,1,.62,3.17v4.56h-1.84v-4.51a4.52,4.52,0,0,0-.3-1.95,1.21,1.21,0,0,0-1.21-.58,4.19,4.19,0,0,0-1.67.34l-.25.1Z"/><path class="cls-4" d="M557.9,363.72h-2.35v3.74a3.9,3.9,0,0,0,.16,1.37c.1.23.36.34.78.34l1.39-.05.09,1.48a9.66,9.66,0,0,1-1.74.22,2.45,2.45,0,0,1-2-.66,4.24,4.24,0,0,1-.53-2.5v-3.94h-1.09v-1.58h1.09v-2.47h1.83v2.47h2.35Z"/></g><g class="cls-7"><path class="cls-4" d="M468.09,378a11.35,11.35,0,0,1,2.13.24l.42.08-.06,1.46c-.9-.09-1.56-.13-2-.13a2.1,2.1,0,0,0-1.74.58,3.82,3.82,0,0,0-.44,2.17,4,4,0,0,0,.43,2.21,2,2,0,0,0,1.76.61l2-.13.05,1.48a16.34,16.34,0,0,1-2.58.3,3.24,3.24,0,0,1-2.73-1,5.76,5.76,0,0,1-.79-3.43,5.42,5.42,0,0,1,.83-3.39A3.36,3.36,0,0,1,468.09,378Z"/></g><g class="cls-7"><path class="cls-4" d="M472.81,379.05a4.41,4.41,0,0,1,5.83,0,5.26,5.26,0,0,1,.88,3.32,5.45,5.45,0,0,1-.85,3.33,4.42,4.42,0,0,1-5.88,0,5.45,5.45,0,0,1-.85-3.33A5.33,5.33,0,0,1,472.81,379.05Zm1.39,5.53a2.06,2.06,0,0,0,3.06,0,4.72,4.72,0,0,0,.39-2.23,4.21,4.21,0,0,0-.42-2.19,2.07,2.07,0,0,0-3,0,4.33,4.33,0,0,0-.41,2.19A4.72,4.72,0,0,0,474.2,384.58Z"/><path class="cls-4" d="M483.21,386.64h-1.86v-8.5h1.84v.52a4.45,4.45,0,0,1,2.21-.71,2.63,2.63,0,0,1,2.16.83,6.51,6.51,0,0,1,3.08-.83,2.37,2.37,0,0,1,2.15.94,6,6,0,0,1,.63,3.19v4.56h-1.83v-4.51a4.94,4.94,0,0,0-.28-1.95,1.17,1.17,0,0,0-1.17-.58,4.55,4.55,0,0,0-1.65.34l-.29.12a8.52,8.52,0,0,1,.14,2.17v4.41H486.5v-4.37a5.5,5.5,0,0,0-.27-2.09c-.18-.39-.57-.58-1.19-.58a3.68,3.68,0,0,0-1.58.34l-.25.1Z"/><path class="cls-4" d="M497.45,386.64H495.6v-8.5h1.84v.52a4.45,4.45,0,0,1,2.21-.71,2.66,2.66,0,0,1,2.16.83,6.47,6.47,0,0,1,3.07-.83,2.4,2.4,0,0,1,2.16.94,6,6,0,0,1,.63,3.19v4.56h-1.84v-4.51a4.76,4.76,0,0,0-.28-1.95,1.14,1.14,0,0,0-1.16-.58,4.55,4.55,0,0,0-1.65.34l-.29.12a9.06,9.06,0,0,1,.14,2.17v4.41h-1.84v-4.37a5.5,5.5,0,0,0-.27-2.09,1.17,1.17,0,0,0-1.19-.58,3.65,3.65,0,0,0-1.58.34l-.26.1Z"/><path class="cls-4" d="M515.9,385.11l.47-.06,0,1.38a17.66,17.66,0,0,1-3.44.39,3.27,3.27,0,0,1-2.71-1,5.37,5.37,0,0,1-.82-3.32q0-4.52,3.69-4.52t3.57,3.89l-.12,1.33h-5.27a2.26,2.26,0,0,0,.46,1.54,2.15,2.15,0,0,0,1.65.5C514.22,385.21,515.05,385.17,515.9,385.11Zm-1-3.37a2.94,2.94,0,0,0-.4-1.76,1.65,1.65,0,0,0-1.35-.5,1.67,1.67,0,0,0-1.39.53,2.78,2.78,0,0,0-.45,1.73Z"/></g><g class="cls-7"><path class="cls-4" d="M518.48,386.64v-8.5h1.84v1a8.1,8.1,0,0,1,2.89-1.2v1.85a11.61,11.61,0,0,0-2.5.75l-.37.15v5.94Z"/></g><g class="cls-7"><path class="cls-4" d="M527.73,378a11.35,11.35,0,0,1,2.13.24l.42.08-.06,1.46c-.9-.09-1.56-.13-2-.13a2.1,2.1,0,0,0-1.74.58,3.82,3.82,0,0,0-.44,2.17,4,4,0,0,0,.43,2.21,2,2,0,0,0,1.76.61l2-.13,0,1.48a16.34,16.34,0,0,1-2.58.3,3.24,3.24,0,0,1-2.73-1,5.76,5.76,0,0,1-.79-3.43A5.42,5.42,0,0,1,525,379,3.36,3.36,0,0,1,527.73,378Z"/><path class="cls-4" d="M532.07,376.69v-1.95h1.85v1.95Zm0,9.95v-8.5h1.85v8.5Z"/><path class="cls-4" d="M542.45,380.75v3.88a.84.84,0,0,0,.2.55.9.9,0,0,0,.55.23l-.05,1.41a3.58,3.58,0,0,1-2.26-.63,6.48,6.48,0,0,1-2.74.63c-1.68,0-2.53-.9-2.53-2.7a2.3,2.3,0,0,1,.69-1.87,3.71,3.71,0,0,1,2.12-.7l2.19-.18v-.62a1.24,1.24,0,0,0-.3-.95,1.26,1.26,0,0,0-.87-.27c-.73,0-1.64,0-2.72.14l-.55,0-.07-1.31a15.12,15.12,0,0,1,3.41-.44,3.14,3.14,0,0,1,2.25.67A2.87,2.87,0,0,1,542.45,380.75Zm-3.8,2.11a1.15,1.15,0,0,0-1.18,1.28c0,.78.35,1.17,1,1.17a6.55,6.55,0,0,0,1.8-.27l.31-.1v-2.27Z"/><path class="cls-4" d="M544.89,386.64v-12h1.85v12Z"/></g></g><circle class="cls-5" cx="551.44" cy="294.37" r="28.52"/><polygon class="cls-8" points="526.99 309.04 551.44 354.85 577.17 306.65 526.99 309.04"/><ellipse class="cls-4" cx="551.41" cy="298.13" rx="15.53" ry="15.79"/><path class="cls-1" d="M551.53,275.94a19.28,19.28,0,1,0,19.28,19.27h0A19.28,19.28,0,0,0,551.53,275.94Zm0,35.34a16,16,0,0,1-12.44-5.93,3.75,3.75,0,0,1,3-2c3.6-.84,7.16-1.58,5.45-4.73-5.07-9.36-1.44-14.65,4-14.65s9,5.14,4,14.65c-1.66,3.14,1.77,3.86,5.45,4.73a3.79,3.79,0,0,1,3,2A16,16,0,0,1,551.53,311.28Z"/><rect class="cls-1" x="564.12" y="306.68" width="8.9" height="20.99" transform="translate(-73.79 423.2) rotate(-38.53)"/><g id="lake_forest_open_lands_association" data-name="lake forest open lands association"><path class="cls-9" d="M51.24,4.29c5.86,0,11.81.88,18.38.88,3,0,6.32,0,9.48.24,4,.26,8.27-.44,10.49,1.53a8.2,8.2,0,0,1,1.06,1.42,9.4,9.4,0,0,1,.94,1.47c1.16,2.75.88,6.6,1,10.54a.06.06,0,0,0-.06.06,8.28,8.28,0,0,1-2.48,2c-6,4.46-12,8.44-18.2,13-3.33,2.46-6.86,5.08-10.19,7.66-1.62,1.25-3.5,2.35-5.24,3.71a13,13,0,0,1-2.69,1.85A11,11,0,0,1,50.6,50c-2.37.12-2.32-1.65-2.77-3.66-.1-.46-.13-1.13-.23-1.76a5,5,0,0,1-.18-1.71C47.69,42,48.86,42,50,41.7a12.56,12.56,0,0,0,6.42-4,19.92,19.92,0,0,0,2.71-3.3,16.92,16.92,0,0,0,1.12-3,19.68,19.68,0,0,0,.83-3.3,21.4,21.4,0,0,0-.24-5.42,19.1,19.1,0,0,0-2.3-4.77c-2.2-3.79-4.32-7.24-6.48-11.19-.29-.55-1.3-1.81-1-2.3A.37.37,0,0,1,51.24,4.29Z"/><path class="cls-9" d="M46.82,8.12a3.49,3.49,0,0,1-1.18,1.53c-.45.45-.91.9-1.35,1.36-2.37,3-5.21,5.55-7.66,8.48-.52,1.46-1.1,2.9-1.59,4.42a33.35,33.35,0,0,0-1.54,4.48c-.31,1.75.18,3.73.06,5.77,0,.05.06.06.06.12a20.8,20.8,0,0,0,1.77,2.88,18.47,18.47,0,0,0,1.88,2.71c1.63,1.85,4.06,3,6,4.6a7.17,7.17,0,0,1,2.46,4.83c.1.8.16,1.6.18,2.41A3.3,3.3,0,0,1,45.55,54a2,2,0,0,1-1.7-.17,9.77,9.77,0,0,1-1.48-.65,7.33,7.33,0,0,1-1.41-2c-1.27-2.07-2.88-4-4-6.06A20.6,20.6,0,0,0,34.25,41c-.48-.52-1-1.16-1.65-1.71a10.19,10.19,0,0,0-1.82-1.53,19.09,19.09,0,0,0-5.48-1.12,14.07,14.07,0,0,0-4.78.71,18.33,18.33,0,0,0-3.35,1.88c-1.13.71-2.44,1.25-3.42,2a18.43,18.43,0,0,0-2.65,3c-.43.51-.91,1-1.3,1.53s-.64,1.3-1.35,1.42a17.42,17.42,0,0,1-.12-4c0-3.87-.55-7.75-.71-11.79-.1-2.71-.13-5.41-.17-8s-.1-5.42.06-8C7.68,12.55,9,9.86,10.92,8.61c2.71-1.74,8-1.2,12.2-1,5.14.25,10.51-.17,15.85.12,1.34.07,2.68.08,4,.12A13.84,13.84,0,0,1,46.82,8.12Z"/><path class="cls-9" d="M93.6,52a6.26,6.26,0,0,1-2.3.77c-2.38.59-5,1.23-7.54,1.65q-2.58.41-5.24.88c-1.74.31-3.53.45-5.31.76-3.4.6-6.73,1.53-10.31,2a52.73,52.73,0,0,1-5.89.23c-2.81,0-6.23.35-7.3-1.47A9,9,0,0,1,49.77,54a6,6,0,0,1,1.88-2.24A20.2,20.2,0,0,1,54,49.89c1.8-.33,4.59-1.1,6.48-.65a9.75,9.75,0,0,1,1.65.82c.57.27,1.17.46,1.71.71a20.27,20.27,0,0,0,3.35,1.53,43.6,43.6,0,0,0,4.72.47,11.81,11.81,0,0,0,1.47.18,7,7,0,0,0,2.24-.88,44.76,44.76,0,0,0,5.89-3.3c1.11-1.69,2.17-3.54,3.24-5.42a42.75,42.75,0,0,0,2.94-5.66c1.19-3.08,2.49-6.11,3.54-9.37.48-1.49,1.27-2.63,1.71-4.24a5.71,5.71,0,0,1,.29-1.35c.32-.52,1.37-.78,1.89-1,1-.42.62,1.17.58,1.42A52.56,52.56,0,0,0,95.36,29a57,57,0,0,1-.65,7.6c-.32,2.55-.39,5.19-.59,7.66S94,49.61,93.6,52Z"/><path class="cls-9" d="M46.35,65.09A6.84,6.84,0,0,1,42.87,65a23.71,23.71,0,0,1-2.3-1.18c-2.24-1.14-4.08-2.7-6.42-3.83a41.46,41.46,0,0,0-4.89-2c-2.52-.85-5.66-2-8.77-1a9.64,9.64,0,0,0-3.12,2.06,75.92,75.92,0,0,0-8,7.42c-.56.32-.83,1.24-1.65,1.12a3.77,3.77,0,0,1-.31-2.09c-.08-3.83-.06-7.38-.24-11.31,0-.61-.09-1.35-.11-2.18s-.2-1.93.17-2.06a.32.32,0,0,1,.18-.12c3,.19,6.06.65,9.07,1.06,2.74.37,5.53.64,8.25,1.06,4,.61,8,1.19,12,1.94,2.28.43,5,.45,6.12,1.95a11.68,11.68,0,0,1,1,2.29c.31.75.71,1.52,1,2.18C45.48,61.9,46.3,63.29,46.35,65.09Z"/><path class="cls-9" d="M90.36,55.13c.61-.2.41,1.34.41,1.94,0,2.17,0,4.35,0,6.78.06,2.89.33,5.82.53,8.54a112.76,112.76,0,0,1,.06,13c-.06,1.58.18,3.39-.24,4.77-.25.6-.52,1.19-.82,1.77-.73,1.67-2.14,3.81-3.77,4.48-1.11.46-2.55.29-4.13.29s-3-.06-4.41-.11c-3.07-.13-6.33-.06-8.78-.06-2.92,0-5.82-.24-8.72-.24s-5.9-.15-8.72-.35c-.68-1.45-.63-3.31-.82-5.13-.39-3.69-1.08-6.65-1.36-10.49-.11-1.49-.16-4.48.83-4.94a3.32,3.32,0,0,1,2.29.35c.78.31,1.55.47,2.18.71C59,78,63.34,79.72,67.44,81.09,71.78,82.54,76,84,80.34,85.45c.72.24,1.46.49,2.18.71s1.43.67,2.18.41a7.8,7.8,0,0,0-.94-3.06c-.79-1.93-1.6-3.85-2.42-5.78-.41-1-.73-2-1.18-2.88A18.12,18.12,0,0,0,78,71.72a20.93,20.93,0,0,0-2.59-2.65c-4.69-2.17-10.47-.26-15.14.77a22.68,22.68,0,0,0-6,2c-1.52-.08-2.26.54-3.71.83-1,.19-2.55.32-3.06-.3s-.19-2.52-.06-3.41A20.9,20.9,0,0,1,49.18,63a9.54,9.54,0,0,1,1.18-2.6,6.3,6.3,0,0,1,1.53-.59,7.24,7.24,0,0,1,1.65-.47,9.55,9.55,0,0,1,2.83.65,52.2,52.2,0,0,1,6.89,3.36,72,72,0,0,0,7,3.3,11.68,11.68,0,0,0,2.47.87,9.6,9.6,0,0,0,5.89-.88A19.45,19.45,0,0,0,81.73,64c1-.91,2-2,2.88-2.83C86.67,59.3,88.4,57.18,90.36,55.13Z"/><path class="cls-9" d="M43.4,70.63a59.25,59.25,0,0,1,2.24,8.18,7,7,0,0,1,.41,2.77c-.58.46-1.4.21-2.06.18-9.56-.45-19.31-.86-28.69-1.53-.73,0-1.5-.08-2.24-.12s-1.37-.28-1.94.12c0,.87.67,1.54,1.06,2.3S13,84,13.36,84.76a34.81,34.81,0,0,0,2.37,4.42A11.52,11.52,0,0,0,19.27,92a13.67,13.67,0,0,0,1.94,1,11.24,11.24,0,0,0,2.36.77,18.55,18.55,0,0,0,2.36.06,33.92,33.92,0,0,0,3.53-.12,10.23,10.23,0,0,0,2.06-.77c.67-.26,1.33-.58,2-.82,3.52-1.39,5.33-3.67,8.54-5.48.52-.29,1.48-.93,1.88-.88s.74.78,1,1.41.51,1.18.64,1.65a27.17,27.17,0,0,1,.71,4.3,23.06,23.06,0,0,1,.59,4.3,9.28,9.28,0,0,1-3.24.06c-1.15,0-2.33-.12-3.54-.12-6.93,0-14.53.38-21.08.36-.76,0-1.56-.12-2.36-.12a8,8,0,0,1-3.54-.47,7.27,7.27,0,0,1-1.88-1.42C10.13,94.6,9.12,93.82,9,92a41.8,41.8,0,0,1,.24-5.48c.2-4.32.32-9.12.53-13.61a6.28,6.28,0,0,1,.35-2.47,16.39,16.39,0,0,1,5.6.77c1.7.45,3.34,1,5,1.59,3.27,1.2,6.71,2.73,10.48,2.65,2.49-.06,4.52-1.51,6.31-2.6.72-.43,1.48-.88,2.24-1.35C40.73,70.75,42,69.32,43.4,70.63Z"/></g><path class="cls-1" d="M27.29,126.26l1.87-.22.71,2.06-1.22,1H22.79L21,125l-9.24,0-.68,1.83,1.42,2.22H6.37L14.84,110l-1.39-3.44h5.86Zm-14.8-3.47,7.5-.23-3.7-8.88Z"/><path class="cls-1" d="M47.7,115.83c0,1.12,0,2.26,0,3.41s0,2.27,0,3.34v2.62l-3.95,4H35.73l-3.64-3V115.7l-2.22-1.25.8-1.48h6.06l0,11.68L37.88,127l3.67-.35,1.36-2.38,0-8.79a3.3,3.3,0,0,1-.31-.23c-.14-.1-.28-.22-.42-.33l-.38-.33-.24-.17V113H47.7Z"/><path class="cls-1" d="M57.34,122.8c0,1.43,0,2.78,0,4l1.42.55c0,.28,0,.55,0,.82s0,.55,0,.85H52.69c0-.32,0-.77,0-1.33s0-1.21,0-1.92,0-1.45,0-2.24v-8.12l-1.65-1,.78-1.45H57l.2,3a20.29,20.29,0,0,1,2-1.67,12.68,12.68,0,0,1,1.89-1.15,4.3,4.3,0,0,1,1.88-.5,4.74,4.74,0,0,1,1.51.23,7.9,7.9,0,0,1,1.19.5,4.74,4.74,0,0,1,.86.55l.46.37-1.22,3.44-4.18-1a4.82,4.82,0,0,0-1.08.34q-.63.27-1.26.6c-.42.21-.8.43-1.14.64l-.77.48C57.33,120,57.33,121.37,57.34,122.8Z"/><path class="cls-1" d="M74.47,125.73a4.52,4.52,0,0,0,3.49,1.5,4.39,4.39,0,0,0,1.87-1.29c.51-.6,1.07-1.3,1.67-2.09l3.61,1.32a3.08,3.08,0,0,1-.45.88,8.59,8.59,0,0,1-1.08,1.29,8.47,8.47,0,0,1-1.48,1.17,3.2,3.2,0,0,1-1.6.55H72.62a2.53,2.53,0,0,1-1.76-1,10.25,10.25,0,0,1-1.62-2.51,12.67,12.67,0,0,1-1-3.19,6.87,6.87,0,0,1,0-3.07,15.25,15.25,0,0,1,.55-1.48,10.09,10.09,0,0,1,1-1.89,9.18,9.18,0,0,1,1.57-1.75,5.16,5.16,0,0,1,2.22-1.1c.58-.1,1.28-.19,2.1-.25a22.32,22.32,0,0,1,2.46-.07,16.52,16.52,0,0,1,2.32.21,3.89,3.89,0,0,1,1.62.57,5.65,5.65,0,0,1,1,1,8.7,8.7,0,0,1,1,1.53,10.09,10.09,0,0,1,.71,1.86,9.33,9.33,0,0,1,.31,2L83,121.69l-9.72.55A6.28,6.28,0,0,0,74.47,125.73Zm5.53-7.4c-.14-.51-.31-1-.51-1.58a12,12,0,0,0-.64-1.46c-.23-.43-.44-.66-.63-.68a3.12,3.12,0,0,0-.82.06c-.34.07-.68.15-1,.25a9.39,9.39,0,0,0-1,.32,5.39,5.39,0,0,0-.77.34,2.49,2.49,0,0,0-.45.7,9.78,9.78,0,0,0-.42,1.1,8.75,8.75,0,0,0-.3,1.25,6.44,6.44,0,0,0-.12,1.16l7-.45C80.22,119.17,80.14,118.83,80,118.33Z"/><path class="cls-1" d="M94.09,126.36l2.28.67v2H89.61l.07-19.86-2.48-1.12.42-1.55h6.47Z"/><path class="cls-1" d="M70.5,137.55v-1.11h1.82v3.25a14.19,14.19,0,0,1-2.13.22,2.26,2.26,0,0,1-2-.79,4.36,4.36,0,0,1-.55-2.48,4.13,4.13,0,0,1,.57-2.46,2.29,2.29,0,0,1,1.94-.75,9.6,9.6,0,0,1,1.85.19l.33.06,0,1a17.48,17.48,0,0,0-1.81-.12,2.14,2.14,0,0,0-1,.16,1,1,0,0,0-.42.62,5.9,5.9,0,0,0-.13,1.52,3.2,3.2,0,0,0,.26,1.52,1.21,1.21,0,0,0,1.11.43l.76,0v-1.21Z"/><path class="cls-1" d="M74.79,137.7v2.1H73.52v-6.26H76c1.47,0,2.21.68,2.21,2.06a2,2,0,0,1-.92,1.8l.89,2.4H76.74L76,137.7Zm1.85-1.37a1.26,1.26,0,0,0,0-1.44.85.85,0,0,0-.68-.27H74.79v2H76A.79.79,0,0,0,76.64,136.33Z"/><path class="cls-1" d="M83.56,139.13a3,3,0,0,1-4,0,4.07,4.07,0,0,1-.59-2.44,4.21,4.21,0,0,1,.59-2.46,2.93,2.93,0,0,1,4,0,4.21,4.21,0,0,1,.58,2.46A4.08,4.08,0,0,1,83.56,139.13Zm-3-.81a1.31,1.31,0,0,0,2,0,3.37,3.37,0,0,0,.28-1.62,3.71,3.71,0,0,0-.28-1.65,1,1,0,0,0-1-.52,1.06,1.06,0,0,0-1,.52,3.73,3.73,0,0,0-.27,1.65A3.53,3.53,0,0,0,80.53,138.32Z"/><path class="cls-1" d="M86.44,137.71a1.12,1.12,0,0,0,2.23,0v-4.17h1.27v4.14a2.21,2.21,0,0,1-.59,1.69,3.24,3.24,0,0,1-3.58,0,2.17,2.17,0,0,1-.6-1.69v-4.14h1.27Z"/><path class="cls-1" d="M93.55,138h-1v1.83H91.25v-6.26h2.3a2,2,0,0,1,2.23,2.17,2.31,2.31,0,0,1-.57,1.68A2.21,2.21,0,0,1,93.55,138Zm-1-1.08h1c.63,0,.95-.4.95-1.18a1.21,1.21,0,0,0-.23-.83.92.92,0,0,0-.72-.26h-1Z"/></svg>