<svg id="Calque_1" data-name="Calque 1" xmlns="http://www.w3.org/2000/svg" viewBox="0 0 600 407"><defs><style>.cls-1{fill:#13322b;}.cls-2,.cls-4{fill:#88b04b;}.cls-3{fill:#bfd833;}.cls-4{fill-rule:evenodd;}.cls-5{fill:#d0d0ce;}.cls-6{fill:#98bc62;}</style></defs><path class="cls-1" d="M178.18,40.72V16h5.15l9.47,22.28h.75V16h2.72V40.72h-5l-9.61-22.29H181V40.72Z"/><path class="cls-1" d="M220.86,28.54c0,4.4-.69,7.54-2.1,9.57s-4,3-7.66,3-6.28-1-7.65-3-2.12-5.2-2.12-9.55.72-7.55,2.14-9.69,4-3.15,7.55-3.15,6.18,1,7.63,3.14S220.86,24.14,220.86,28.54Zm-16.71,0q0,5.41,1.43,7.79t5.52,2.38q4.08,0,5.5-2.33T218,28.6q0-5.48-1.46-8t-5.48-2.52q-4,0-5.46,2.52c-1,1.68-1.45,4.29-1.46,7.83Z"/><path class="cls-1" d="M228.47,33.29q0,5.35,5.8,5.36a7,7,0,0,0,4.51-1.26,5,5,0,0,0,1.51-4.09V16H243V33.21c0,2.77-.72,4.77-2.18,6a9.8,9.8,0,0,1-6.49,1.86,9.53,9.53,0,0,1-6.44-1.86q-2.17-1.85-2.16-6V16h2.74Z"/><path class="cls-1" d="M251.66,31.25v9.47H248.9V16H258A8.45,8.45,0,0,1,264,17.82a7.39,7.39,0,0,1,2,5.69c0,3.77-1.52,6.2-4.54,7.16l4.75,10.06h-3l-4.46-9.46Zm6.42-2.42c3.35,0,5-1.74,5-5.2s-1.68-5.19-5-5.2h-6.39v10.4Z"/><path class="cls-1" d="M273.65,31.25v9.47h-2.74V16h9.14A8.47,8.47,0,0,1,286,17.82a7.37,7.37,0,0,1,2,5.69q0,5.72-4.52,7.16l4.75,10.06h-3l-4.47-9.46Zm6.44-2.42c3.35,0,5-1.74,5-5.2s-1.68-5.19-5-5.2h-6.4v10.4Z"/><path class="cls-1" d="M292.9,40.72V16h2.75V40.72Z"/><path class="cls-1" d="M304.44,31.25v9.47h-2.75V16h9.14a8.47,8.47,0,0,1,5.91,1.82,7.43,7.43,0,0,1,2,5.69c0,3.77-1.52,6.2-4.54,7.16l4.75,10.06h-3l-4.47-9.46Zm6.43-2.42c3.35,0,5-1.74,5-5.2s-1.68-5.19-5-5.2h-6.39v10.4Z"/><path class="cls-1" d="M180.76,73c0,3.57,1.94,5.35,5.79,5.35a7,7,0,0,0,4.52-1.25A5,5,0,0,0,192.58,73V55.68h2.72V72.9c0,2.75-.73,4.76-2.2,6a12.17,12.17,0,0,1-12.93,0c-1.43-1.26-2.16-3.25-2.16-6V55.68h2.75Z"/><path class="cls-1" d="M201.19,80.39V55.68h5.14L215.79,78h.76V55.68h2.71V80.39h-5l-9.6-22.28H204V80.39Z"/><path class="cls-2" d="M233.91,80.39V47.84h9.2l7.28,25.47,7.29-25.47h9.23V80.46h-5.33V53.63h-.72l-7.71,25.43h-5.52l-7.72-25.43h-.72V80.39Z"/><path class="cls-2" d="M296.56,76.92q-2.94,4-10.31,4t-10.34-4q-2.94-4-3-12.64t3-12.81q3-4.19,10.31-4.19t10.28,4.16q3,4.17,3,12.84C299.49,70,298.51,74.24,296.56,76.92Zm-16.5-3.43q1.6,2.82,6.19,2.82c3,0,5.1-.92,6.16-2.77s1.6-4.93,1.6-9.25-.54-7.55-1.65-9.46-3.13-3-6.11-3-5,1-6.15,3-1.66,5.1-1.66,9.41.54,7.38,1.62,9.25Z"/><path class="cls-2" d="M305.62,80.39V47.84h9.25l9.91,28h.7V47.84h5.29V80.46h-9l-10.14-28h-.66v28Z"/><path class="cls-2" d="M349.57,80.39H338.26V47.84h11.31q7.55,0,10.29,3.77t2.76,12a37.67,37.67,0,0,1-.55,7,16.15,16.15,0,0,1-1.92,5.2Q357.43,80.41,349.57,80.39Zm7.55-16.85q0-5.9-1.47-8.52c-1-1.75-3-2.63-6.1-2.62h-6V75.73h6c3.14,0,5.24-1.16,6.28-3.47a13.77,13.77,0,0,0,1-3.77,38.92,38.92,0,0,0,.29-4.95Z"/><path class="cls-2" d="M368.81,80.39V47.84h20.57v4.63H374.14v9.2h12.43v4.58H374.14v9.52h15.28v4.66Z"/><path class="cls-1" d="M178,120.08V95.62H193.4v3.46H181.94V106h9.32v3.44h-9.32v7.14H193.4v3.5Z"/><path class="cls-1" d="M197.72,120.08V95.62h6.93l7.43,21h.53v-21h4v24.46H209.8l-7.61-21h-.5v21Z"/><path class="cls-3" d="M250.17,119.6a40.28,40.28,0,0,1-8.33,1,16.21,16.21,0,0,1-5.94-.92,7.33,7.33,0,0,1-3.48-2.93,12.49,12.49,0,0,1-1.75-4.72,38.7,38.7,0,0,1-.49-6.8c0-5.73.82-9.73,2.43-12s4.59-3.39,8.92-3.39a38,38,0,0,1,8.69,1.19l-.17,4.79a49.5,49.5,0,0,0-7.18-.64,8.1,8.1,0,0,0-4.09.75,4.75,4.75,0,0,0-1.81,2.9,31.36,31.36,0,0,0-.59,7.3q0,5.15,1.26,7.13c.79,1.33,2.4,2,4.8,2a51.8,51.8,0,0,0,7.66-.6Z"/><path class="cls-3" d="M272.13,120.08V107.77h-11v12.31h-6V90.39h6v12.15h11V90.39h6v29.69Z"/><path class="cls-3" d="M282.12,120.08l6.68-29.69h11.44l6.68,29.69h-6l-1.19-5.37H289.33l-1.18,5.37Zm11.32-24.71-3,14.08h8.12l-3-14.11Z"/><path class="cls-3" d="M310.89,120.08V90.39h10.18l7.15,24.44h.44V90.39h6v29.69h-9.9l-7.42-24.46h-.44v24.45Z"/><path class="cls-3" d="M353.5,109.45v-5.23h8.63v15.4a66.46,66.46,0,0,1-10.06,1c-4.62,0-7.8-1.26-9.54-3.71s-2.59-6.4-2.59-11.79.91-9.27,2.7-11.65,4.88-3.58,9.22-3.58a45.56,45.56,0,0,1,8.8.92l1.57.3-.17,4.68a76.93,76.93,0,0,0-8.58-.57,10.06,10.06,0,0,0-4.69.78,4.64,4.64,0,0,0-2,2.9,28.5,28.5,0,0,0-.63,7.25q0,5.13,1.25,7.18c.86,1.37,2.59,2,5.25,2l3.62-.18v-5.76Z"/><path class="cls-3" d="M367.86,120.08V90.39h19.2v5.23H373.83v6.94H384.4v5.16H373.83v7.1H387v5.25Z"/><path class="cls-3" d="M392,120.08V90.39h10.25L407.49,112l5.23-21.65H423v29.69h-6v-23h-.66l-5.81,21.65h-6l-5.8-21.65H398v23Z"/><path class="cls-3" d="M429.47,120.08V90.39h19.2v5.23h-13.2v6.94H446v5.16H435.47v7.1h13.18v5.25Z"/><path class="cls-3" d="M453.62,120.08V90.39H463.8L471,114.83h.44V90.39h6v29.69h-9.91l-7.43-24.46h-.44v24.45Z"/><path class="cls-3" d="M481.2,95.72V90.39H503v5.33h-7.86v24.36h-6V95.72Z"/><rect class="cls-1" x="146.57" y="11.72" width="3.77" height="112.83"/><g id="lake_forest_open_lands_association" data-name="lake forest open lands association"><path class="cls-4" d="M60.78,3.17c7.65,0,15.41,1.15,24,1.15,3.91,0,8.25,0,12.37.31,5.22.34,10.8-.57,13.69,2a10.06,10.06,0,0,1,1.39,1.85,11.33,11.33,0,0,1,1.22,1.92C115,14,114.59,19,114.75,24.16a.08.08,0,0,0-.08.08,10.54,10.54,0,0,1-3.24,2.61c-7.83,5.82-15.66,11-23.75,17-4.35,3.22-9,6.64-13.3,10-2.12,1.63-4.57,3.07-6.84,4.85A16.57,16.57,0,0,1,64,61.07c-1.31.59-2.85,1.63-4.09,1.7-3.09.15-3-2.16-3.61-4.78-.14-.6-.17-1.47-.3-2.3a6.46,6.46,0,0,1-.24-2.23c.35-1,1.88-1.06,3.38-1.46a16.42,16.42,0,0,0,8.38-5.22,25.23,25.23,0,0,0,3.54-4.31,21.72,21.72,0,0,0,1.46-3.92,24.61,24.61,0,0,0,1.08-4.3,27.55,27.55,0,0,0-.31-7.08,24.46,24.46,0,0,0-3-6.22C67.45,16,64.68,11.5,61.86,6.34c-.38-.72-1.7-2.36-1.31-3A.55.55,0,0,1,60.78,3.17Z"/><path class="cls-4" d="M55,8.17a4.52,4.52,0,0,1-1.54,2c-.59.59-1.19,1.18-1.77,1.78-3.09,3.92-6.8,7.24-10,11.07-.68,1.9-1.44,3.78-2.08,5.77a45.87,45.87,0,0,0-2,5.85c-.4,2.28.24,4.86.08,7.53,0,.06.08.08.08.15a26.33,26.33,0,0,0,2.31,3.76,24.53,24.53,0,0,0,2.45,3.54c2.13,2.41,5.3,3.92,7.83,6a9.29,9.29,0,0,1,3.21,6.31,27.48,27.48,0,0,1,.24,3.14A4.28,4.28,0,0,1,53.35,68a2.62,2.62,0,0,1-2.22-.22,13.3,13.3,0,0,1-1.93-.85,9.5,9.5,0,0,1-1.84-2.61c-1.66-2.7-3.76-5.22-5.22-7.91a26.7,26.7,0,0,0-3.54-5.31c-.63-.68-1.37-1.52-2.15-2.24a12.58,12.58,0,0,0-2.38-2,25,25,0,0,0-7.15-1.47,18.35,18.35,0,0,0-6.24.93,24.6,24.6,0,0,0-4.37,2.45c-1.48.93-3.19,1.64-4.47,2.62A25.75,25.75,0,0,0,8.38,55.3c-.56.67-1.19,1.31-1.69,2S5.85,59,4.92,59.15A22.21,22.21,0,0,1,4.77,54c0-5.06-.72-10.12-.93-15.39-.13-3.54-.17-7.06-.22-10.45s-.13-7.07.08-10.44C3.92,14,5.6,10.44,8.15,8.81,11.68,6.54,18.59,7.24,24.07,7.5c6.71.33,13.72-.22,20.69.16,1.75.09,3.5.1,5.22.16A18.08,18.08,0,0,1,55,8.17Z"/><path class="cls-4" d="M116.07,65.46a8.06,8.06,0,0,1-3,1c-3.11.77-6.47,1.61-9.85,2.15q-3.36.54-6.84,1.15c-2.27.41-4.6.59-6.93,1-4.43.78-8.78,2-13.45,2.54a65.91,65.91,0,0,1-7.69.3c-3.67,0-8.13.46-9.53-1.92A11.71,11.71,0,0,1,58.86,68a8.08,8.08,0,0,1,2.45-2.93,27.4,27.4,0,0,1,3-2.37c2.35-.43,6-1.44,8.46-.85a12.76,12.76,0,0,1,2.16,1.07c.74.35,1.52.6,2.23.93a26.89,26.89,0,0,0,4.37,2,53.11,53.11,0,0,0,6.16.62,13.78,13.78,0,0,0,1.92.23,9.09,9.09,0,0,0,2.92-1.15,56.77,56.77,0,0,0,7.69-4.3c1.45-2.21,2.83-4.62,4.23-7.08a53.92,53.92,0,0,0,3.84-7.39c1.55-4,3.25-8,4.62-12.23.63-1.94,1.66-3.43,2.23-5.53a8.13,8.13,0,0,1,.38-1.76c.42-.68,1.79-1,2.47-1.31,1.3-.55.81,1.53.75,1.86a70.39,70.39,0,0,0-.37,7.68,73.09,73.09,0,0,1-.85,9.92c-.42,3.33-.51,6.78-.77,10S116.52,62.32,116.07,65.46Z"/><path class="cls-4" d="M54.39,82.53a8.85,8.85,0,0,1-4.54-.08,30.28,30.28,0,0,1-3-1.54c-2.92-1.49-5.33-3.52-8.38-5a56.16,56.16,0,0,0-6.38-2.61C28.8,72.19,24.7,70.69,20.64,72a12.58,12.58,0,0,0-4.07,2.68A100.86,100.86,0,0,0,6.12,84.37C5.39,84.79,5,86,4,85.83a4.92,4.92,0,0,1-.4-2.73c-.11-5-.08-9.63-.32-14.76,0-.8-.11-1.76-.14-2.84s-.26-2.52.22-2.69a.63.63,0,0,1,.24-.16c3.91.25,7.91.85,11.83,1.38,3.58.49,7.22.84,10.77,1.39C31.39,66.21,36.62,67,41.84,68c3,.56,6.46.59,8,2.54a14.44,14.44,0,0,1,1.31,3c.4,1,.93,2,1.31,2.85C53.26,78.37,54.33,80.18,54.39,82.53Z"/><path class="cls-4" d="M111.84,69.53c.79-.26.53,1.75.53,2.53,0,2.83-.06,5.68,0,8.85.08,3.77.43,7.6.7,11.15a145.56,145.56,0,0,1,.07,17c-.07,2.06.24,4.42-.31,6.22a24.18,24.18,0,0,1-1.07,2.31c-1,2.18-2.79,5-4.92,5.85-1.45.6-3.33.38-5.39.38s-3.92-.08-5.76-.14c-4-.17-8.26-.08-11.46-.08-3.81,0-7.59-.32-11.38-.32s-7.7-.19-11.38-.45c-.89-1.9-.82-4.32-1.07-6.7-.51-4.82-1.41-8.68-1.78-13.69-.14-2-.21-5.85,1.09-6.45a4.31,4.31,0,0,1,3,.46c1,.4,2,.61,2.85.92,5.35,2,11,4.29,16.38,6.07,5.67,1.9,11.21,3.8,16.84,5.69.94.32,1.91.64,2.85.93s1.86.88,2.84.54a9.88,9.88,0,0,0-1.23-4c-1-2.52-2.08-5-3.15-7.54-.54-1.31-1-2.61-1.55-3.76a23.1,23.1,0,0,0-2.76-4.09,29.08,29.08,0,0,0-3.38-3.46c-6.12-2.83-13.67-.34-19.76,1a30,30,0,0,0-7.77,2.61c-2-.1-2.95.7-4.84,1.08-1.31.25-3.33.42-4-.39s-.25-3.29-.08-4.45a28,28,0,0,1,2.16-7.77,13.3,13.3,0,0,1,1.54-3.39,8.46,8.46,0,0,1,2-.77A10.22,10.22,0,0,1,63.78,75a12,12,0,0,1,3.69.85,67.35,67.35,0,0,1,9,4.38,94.11,94.11,0,0,0,9.13,4.31,14.74,14.74,0,0,0,3.23,1.13,12.42,12.42,0,0,0,7.68-1.14,24.2,24.2,0,0,0,4.06-3.42c1.31-1.19,2.61-2.61,3.76-3.7C107,75,109.28,72.2,111.84,69.53Z"/><path class="cls-4" d="M50.54,89.76a77,77,0,0,1,2.93,10.68,8.69,8.69,0,0,1,.53,3.61c-.76.6-1.83.28-2.69.24-12.48-.59-25.2-1.12-37.45-2l-2.92-.16c-1,0-1.79-.36-2.53.16,0,1.14.87,2,1.38,3s1.05,1.94,1.54,2.91a46.36,46.36,0,0,0,3.1,5.77,14.82,14.82,0,0,0,4.62,3.62,17.26,17.26,0,0,0,2.53,1.3,14.62,14.62,0,0,0,3.08,1,21.09,21.09,0,0,0,3.08.08,43.43,43.43,0,0,0,4.61-.16,13,13,0,0,0,2.69-1c.87-.34,1.73-.76,2.61-1.07,4.59-1.82,7-4.79,11.14-7.16.68-.38,1.94-1.21,2.46-1.15s1,1,1.24,1.84.66,1.54.83,2.16a35.5,35.5,0,0,1,.93,5.61,28.7,28.7,0,0,1,.77,5.61,12,12,0,0,1-4.23.08c-1.5,0-3-.15-4.62-.15-9.05,0-19,.49-27.52.47-1,0-2-.16-3.08-.16a10.27,10.27,0,0,1-4.62-.62,9.41,9.41,0,0,1-2.45-1.85c-1.38-1.38-2.7-2.4-2.92-4.84a55,55,0,0,1,.31-7.15c.26-5.64.42-11.91.69-17.77A8.39,8.39,0,0,1,7,89.45a21.09,21.09,0,0,1,7.31,1c2.22.59,4.36,1.31,6.52,2.08,4.27,1.56,8.76,3.56,13.68,3.46,3.25-.08,5.9-2,8.24-3.4.94-.56,1.93-1.15,2.92-1.76C47.06,89.92,48.77,88.05,50.54,89.76Z"/></g><rect class="cls-5" x="131.95" y="233.07" width="3.44" height="3.44"/><rect class="cls-5" x="138.83" y="233.07" width="3.44" height="3.44"/><rect class="cls-5" x="131.95" y="226.19" width="3.44" height="3.44"/><rect class="cls-5" x="138.83" y="226.19" width="3.44" height="3.44"/><rect class="cls-5" x="138.83" y="239.95" width="3.44" height="3.44"/><rect class="cls-5" x="138.83" y="246.83" width="3.44" height="3.44"/><rect class="cls-5" x="131.95" y="253.71" width="3.44" height="3.44"/><rect class="cls-5" x="138.83" y="253.71" width="3.44" height="3.44"/><rect class="cls-5" x="131.95" y="260.59" width="3.44" height="3.44"/><rect class="cls-5" x="138.83" y="260.59" width="3.44" height="3.44"/><rect class="cls-5" x="145.7" y="233.07" width="3.44" height="3.44"/><rect class="cls-5" x="145.7" y="239.95" width="3.44" height="3.44"/><rect class="cls-5" x="152.58" y="233.07" width="3.44" height="3.44"/><rect class="cls-5" x="145.7" y="226.19" width="3.44" height="3.44"/><rect class="cls-5" x="152.58" y="226.19" width="3.44" height="3.44"/><rect class="cls-5" x="152.58" y="239.95" width="3.44" height="3.44"/><rect class="cls-5" x="145.7" y="246.83" width="3.44" height="3.44"/><rect class="cls-5" x="152.58" y="246.83" width="3.44" height="3.44"/><rect class="cls-5" x="145.7" y="253.71" width="3.44" height="3.44"/><rect class="cls-5" x="152.58" y="253.71" width="3.44" height="3.44"/><rect class="cls-5" x="145.7" y="260.59" width="3.44" height="3.44"/><rect class="cls-5" x="152.58" y="260.59" width="3.44" height="3.44"/><rect class="cls-5" x="159.46" y="233.07" width="3.44" height="3.44"/><rect class="cls-5" x="159.46" y="226.19" width="3.44" height="3.44"/><rect class="cls-5" x="159.46" y="239.95" width="3.44" height="3.44"/><rect class="cls-5" x="159.46" y="246.83" width="3.44" height="3.44"/><rect class="cls-5" x="159.46" y="253.71" width="3.44" height="3.44"/><rect class="cls-5" x="159.46" y="260.59" width="3.44" height="3.44"/><rect class="cls-5" x="166.34" y="233.07" width="3.44" height="3.44"/><rect class="cls-5" x="166.34" y="239.95" width="3.44" height="3.44"/><rect class="cls-5" x="166.34" y="226.19" width="3.44" height="3.44"/><rect class="cls-5" x="173.22" y="226.19" width="3.44" height="3.44"/><rect class="cls-5" x="173.22" y="239.95" width="3.44" height="3.44"/><rect class="cls-5" x="166.34" y="246.83" width="3.44" height="3.44"/><rect class="cls-5" x="173.22" y="246.83" width="3.44" height="3.44"/><rect class="cls-5" x="166.34" y="253.71" width="3.44" height="3.44"/><rect class="cls-5" x="173.22" y="253.71" width="3.44" height="3.44"/><rect class="cls-5" x="166.34" y="260.59" width="3.44" height="3.44"/><rect class="cls-5" x="173.22" y="260.59" width="3.44" height="3.44"/><rect class="cls-5" x="83.79" y="219.3" width="3.44" height="3.44"/><rect class="cls-5" x="90.66" y="219.3" width="3.44" height="3.44"/><rect class="cls-5" x="104.42" y="191.79" width="3.44" height="3.44"/><rect class="cls-5" x="97.54" y="184.91" width="3.44" height="3.44"/><rect class="cls-5" x="104.42" y="198.67" width="3.44" height="3.44"/><rect class="cls-5" x="104.42" y="205.55" width="3.44" height="3.44"/><rect class="cls-5" x="97.54" y="212.42" width="3.44" height="3.44"/><rect class="cls-5" x="104.42" y="212.42" width="3.44" height="3.44"/><rect class="cls-5" x="111.3" y="191.79" width="3.44" height="3.44"/><rect class="cls-5" x="111.3" y="184.91" width="3.44" height="3.44"/><rect class="cls-5" x="111.3" y="198.67" width="3.44" height="3.44"/><rect class="cls-5" x="111.3" y="205.55" width="3.44" height="3.44"/><rect class="cls-5" x="118.18" y="191.79" width="3.44" height="3.44"/><rect class="cls-5" x="118.18" y="198.67" width="3.44" height="3.44"/><rect class="cls-5" x="125.06" y="191.79" width="3.44" height="3.44"/><rect class="cls-5" x="118.18" y="184.91" width="3.44" height="3.44"/><rect class="cls-5" x="125.06" y="184.91" width="3.44" height="3.44"/><rect class="cls-5" x="125.06" y="198.67" width="3.44" height="3.44"/><rect class="cls-5" x="125.06" y="205.55" width="3.44" height="3.44"/><rect class="cls-5" x="131.95" y="191.79" width="3.44" height="3.44"/><rect class="cls-5" x="131.95" y="198.67" width="3.44" height="3.44"/><rect class="cls-5" x="138.83" y="191.79" width="3.44" height="3.44"/><rect class="cls-5" x="131.95" y="184.91" width="3.44" height="3.44"/><rect class="cls-5" x="138.83" y="184.91" width="3.44" height="3.44"/><rect class="cls-5" x="138.83" y="198.67" width="3.44" height="3.44"/><rect class="cls-5" x="131.95" y="205.55" width="3.44" height="3.44"/><rect class="cls-5" x="138.83" y="205.55" width="3.44" height="3.44"/><rect class="cls-5" x="131.95" y="212.42" width="3.44" height="3.44"/><rect class="cls-5" x="138.83" y="212.42" width="3.44" height="3.44"/><rect class="cls-5" x="131.95" y="219.3" width="3.44" height="3.44"/><rect class="cls-5" x="138.83" y="219.3" width="3.44" height="3.44"/><rect class="cls-5" x="145.7" y="191.79" width="3.44" height="3.44"/><rect class="cls-5" x="145.7" y="198.67" width="3.44" height="3.44"/><rect class="cls-5" x="145.7" y="184.91" width="3.44" height="3.44"/><rect class="cls-5" x="152.58" y="184.91" width="3.44" height="3.44"/><rect class="cls-5" x="152.58" y="198.67" width="3.44" height="3.44"/><rect class="cls-5" x="145.7" y="205.55" width="3.44" height="3.44"/><rect class="cls-5" x="152.58" y="205.55" width="3.44" height="3.44"/><rect class="cls-5" x="145.7" y="212.42" width="3.44" height="3.44"/><rect class="cls-5" x="152.58" y="212.42" width="3.44" height="3.44"/><rect class="cls-5" x="145.7" y="219.3" width="3.44" height="3.44"/><rect class="cls-5" x="152.58" y="219.3" width="3.44" height="3.44"/><rect class="cls-5" x="159.46" y="191.79" width="3.44" height="3.44"/><rect class="cls-5" x="159.46" y="184.91" width="3.44" height="3.44"/><rect class="cls-5" x="159.46" y="198.67" width="3.44" height="3.44"/><rect class="cls-5" x="159.46" y="212.42" width="3.44" height="3.44"/><rect class="cls-5" x="159.46" y="219.3" width="3.44" height="3.44"/><rect class="cls-5" x="166.34" y="191.79" width="3.44" height="3.44"/><rect class="cls-5" x="166.34" y="198.67" width="3.44" height="3.44"/><rect class="cls-5" x="166.34" y="184.91" width="3.44" height="3.44"/><rect class="cls-5" x="173.22" y="184.91" width="3.44" height="3.44"/><rect class="cls-5" x="173.22" y="198.67" width="3.44" height="3.44"/><rect class="cls-5" x="166.34" y="205.55" width="3.44" height="3.44"/><rect class="cls-5" x="173.22" y="205.55" width="3.44" height="3.44"/><rect class="cls-5" x="166.34" y="212.42" width="3.44" height="3.44"/><rect class="cls-5" x="173.22" y="212.42" width="3.44" height="3.44"/><rect class="cls-5" x="166.34" y="219.3" width="3.44" height="3.44"/><rect class="cls-5" x="173.22" y="219.3" width="3.44" height="3.44"/><rect class="cls-5" x="180.11" y="233.07" width="3.44" height="3.44"/><rect class="cls-5" x="186.99" y="233.07" width="3.44" height="3.44"/><rect class="cls-5" x="180.11" y="226.19" width="3.44" height="3.44"/><rect class="cls-5" x="186.99" y="226.19" width="3.44" height="3.44"/><rect class="cls-5" x="186.99" y="239.95" width="3.44" height="3.44"/><rect class="cls-5" x="180.11" y="246.83" width="3.44" height="3.44"/><rect class="cls-5" x="180.11" y="253.71" width="3.44" height="3.44"/><rect class="cls-5" x="186.99" y="253.71" width="3.44" height="3.44"/><rect class="cls-5" x="180.11" y="260.59" width="3.44" height="3.44"/><rect class="cls-5" x="186.99" y="260.59" width="3.44" height="3.44"/><rect class="cls-5" x="193.86" y="233.07" width="3.44" height="3.44"/><rect class="cls-5" x="193.86" y="239.95" width="3.44" height="3.44"/><rect class="cls-5" x="200.74" y="233.07" width="3.44" height="3.44"/><rect class="cls-5" x="200.74" y="226.19" width="3.44" height="3.44"/><rect class="cls-5" x="200.74" y="239.95" width="3.44" height="3.44"/><rect class="cls-5" x="193.86" y="246.83" width="3.44" height="3.44"/><rect class="cls-5" x="200.74" y="246.83" width="3.44" height="3.44"/><rect class="cls-5" x="193.86" y="253.71" width="3.44" height="3.44"/><rect class="cls-5" x="200.74" y="253.71" width="3.44" height="3.44"/><rect class="cls-6" x="192.46" y="259.19" width="6.24" height="6.24"/><rect class="cls-5" x="207.62" y="233.07" width="3.44" height="3.44"/><rect class="cls-5" x="207.62" y="226.19" width="3.44" height="3.44"/><rect class="cls-5" x="207.62" y="246.83" width="3.44" height="3.44"/><rect class="cls-5" x="214.5" y="233.07" width="3.44" height="3.44"/><rect class="cls-5" x="214.5" y="239.95" width="3.44" height="3.44"/><rect class="cls-5" x="221.39" y="233.07" width="3.44" height="3.44"/><rect class="cls-5" x="214.5" y="226.19" width="3.44" height="3.44"/><rect class="cls-5" x="221.39" y="239.95" width="3.44" height="3.44"/><rect class="cls-5" x="138.83" y="274.35" width="3.44" height="3.44"/><rect class="cls-5" x="138.83" y="267.46" width="3.44" height="3.44"/><rect class="cls-5" x="145.7" y="281.23" width="3.44" height="3.44"/><rect class="cls-5" x="152.58" y="274.35" width="3.44" height="3.44"/><rect class="cls-5" x="145.7" y="267.46" width="3.44" height="3.44"/><rect class="cls-5" x="152.58" y="267.46" width="3.44" height="3.44"/><rect class="cls-5" x="152.58" y="281.23" width="3.44" height="3.44"/><rect class="cls-5" x="152.58" y="288.11" width="3.44" height="3.44"/><rect class="cls-5" x="159.46" y="274.35" width="3.44" height="3.44"/><rect class="cls-5" x="159.46" y="267.46" width="3.44" height="3.44"/><rect class="cls-5" x="159.46" y="281.23" width="3.44" height="3.44"/><rect class="cls-5" x="159.46" y="288.11" width="3.44" height="3.44"/><rect class="cls-5" x="166.34" y="267.46" width="3.44" height="3.44"/><rect class="cls-5" x="173.22" y="267.46" width="3.44" height="3.44"/><rect class="cls-5" x="166.34" y="288.11" width="3.44" height="3.44"/><rect class="cls-5" x="173.22" y="288.11" width="3.44" height="3.44"/><rect class="cls-5" x="166.34" y="294.99" width="3.44" height="3.44"/><rect class="cls-5" x="173.22" y="294.99" width="3.44" height="3.44"/><rect class="cls-5" x="180.11" y="274.35" width="3.44" height="3.44"/><rect class="cls-5" x="180.11" y="281.23" width="3.44" height="3.44"/><rect class="cls-5" x="180.11" y="267.46" width="3.44" height="3.44"/><rect class="cls-5" x="186.99" y="267.46" width="3.44" height="3.44"/><rect class="cls-5" x="186.99" y="281.23" width="3.44" height="3.44"/><rect class="cls-5" x="186.99" y="288.11" width="3.44" height="3.44"/><rect class="cls-5" x="180.11" y="294.99" width="3.44" height="3.44"/><rect class="cls-5" x="180.11" y="301.87" width="3.44" height="3.44"/><rect class="cls-5" x="186.99" y="301.87" width="3.44" height="3.44"/><rect class="cls-5" x="193.86" y="288.11" width="3.44" height="3.44"/><rect class="cls-5" x="200.74" y="288.11" width="3.44" height="3.44"/><rect class="cls-5" x="193.86" y="301.87" width="3.44" height="3.44"/><rect class="cls-5" x="200.74" y="301.87" width="3.44" height="3.44"/><rect class="cls-5" x="207.62" y="301.87" width="3.44" height="3.44"/><rect class="cls-5" x="214.5" y="301.87" width="3.44" height="3.44"/><rect class="cls-6" x="268.14" y="272.95" width="6.24" height="6.24"/><rect class="cls-5" x="269.55" y="281.23" width="3.44" height="3.44"/><rect class="cls-5" x="262.66" y="288.11" width="3.44" height="3.44"/><rect class="cls-5" x="269.55" y="288.11" width="3.44" height="3.44"/><rect class="cls-5" x="262.66" y="294.99" width="3.44" height="3.44"/><rect class="cls-5" x="269.55" y="294.99" width="3.44" height="3.44"/><rect class="cls-5" x="269.55" y="301.87" width="3.44" height="3.44"/><rect class="cls-5" x="180.11" y="191.79" width="3.44" height="3.44"/><rect class="cls-5" x="180.11" y="198.67" width="3.44" height="3.44"/><rect class="cls-5" x="186.99" y="191.79" width="3.44" height="3.44"/><rect class="cls-5" x="186.99" y="184.91" width="3.44" height="3.44"/><rect class="cls-5" x="186.99" y="198.67" width="3.44" height="3.44"/><rect class="cls-5" x="180.11" y="205.55" width="3.44" height="3.44"/><rect class="cls-5" x="186.99" y="205.55" width="3.44" height="3.44"/><rect class="cls-5" x="180.11" y="212.42" width="3.44" height="3.44"/><rect class="cls-5" x="180.11" y="219.3" width="3.44" height="3.44"/><rect class="cls-5" x="193.86" y="198.67" width="3.44" height="3.44"/><rect class="cls-5" x="200.74" y="191.79" width="3.44" height="3.44"/><rect class="cls-5" x="193.86" y="184.91" width="3.44" height="3.44"/><rect class="cls-5" x="200.74" y="184.91" width="3.44" height="3.44"/><rect class="cls-5" x="193.86" y="205.55" width="3.44" height="3.44"/><rect class="cls-5" x="200.74" y="205.55" width="3.44" height="3.44"/><rect class="cls-5" x="200.74" y="212.42" width="3.44" height="3.44"/><rect class="cls-5" x="200.74" y="219.3" width="3.44" height="3.44"/><rect class="cls-5" x="207.62" y="191.79" width="3.44" height="3.44"/><rect class="cls-5" x="207.62" y="184.91" width="3.44" height="3.44"/><rect class="cls-5" x="207.62" y="198.67" width="3.44" height="3.44"/><rect class="cls-5" x="207.62" y="205.55" width="3.44" height="3.44"/><rect class="cls-5" x="207.62" y="219.3" width="3.44" height="3.44"/><rect class="cls-5" x="214.5" y="191.79" width="3.44" height="3.44"/><rect class="cls-5" x="214.5" y="198.67" width="3.44" height="3.44"/><rect class="cls-5" x="214.5" y="205.55" width="3.44" height="3.44"/><rect class="cls-6" x="213.1" y="211.03" width="6.24" height="6.24"/><rect class="cls-5" x="214.5" y="219.3" width="3.44" height="3.44"/><rect class="cls-5" x="235.15" y="191.79" width="3.44" height="3.44"/><rect class="cls-5" x="235.15" y="184.91" width="3.44" height="3.44"/><rect class="cls-5" x="235.15" y="198.67" width="3.44" height="3.44"/><rect class="cls-5" x="228.27" y="205.55" width="3.44" height="3.44"/><rect class="cls-5" x="235.15" y="205.55" width="3.44" height="3.44"/><rect class="cls-5" x="228.27" y="212.42" width="3.44" height="3.44"/><rect class="cls-5" x="235.15" y="212.42" width="3.44" height="3.44"/><rect class="cls-5" x="235.15" y="219.3" width="3.44" height="3.44"/><rect class="cls-5" x="242.02" y="191.79" width="3.44" height="3.44"/><rect class="cls-5" x="242.02" y="198.67" width="3.44" height="3.44"/><rect class="cls-5" x="248.9" y="191.79" width="3.44" height="3.44"/><rect class="cls-5" x="242.02" y="184.91" width="3.44" height="3.44"/><rect class="cls-5" x="248.9" y="184.91" width="3.44" height="3.44"/><rect class="cls-5" x="248.9" y="198.67" width="3.44" height="3.44"/><rect class="cls-5" x="242.02" y="205.55" width="3.44" height="3.44"/><rect class="cls-5" x="248.9" y="205.55" width="3.44" height="3.44"/><rect class="cls-5" x="242.02" y="212.42" width="3.44" height="3.44"/><rect class="cls-5" x="255.78" y="191.79" width="3.44" height="3.44"/><rect class="cls-5" x="255.78" y="184.91" width="3.44" height="3.44"/><rect class="cls-5" x="255.78" y="198.67" width="3.44" height="3.44"/><rect class="cls-5" x="262.66" y="191.79" width="3.44" height="3.44"/><rect class="cls-5" x="262.66" y="198.67" width="3.44" height="3.44"/><rect class="cls-5" x="269.55" y="184.91" width="3.44" height="3.44"/><rect class="cls-5" x="262.66" y="212.42" width="3.44" height="3.44"/><rect class="cls-5" x="269.55" y="212.42" width="3.44" height="3.44"/><rect class="cls-5" x="269.55" y="205.55" width="3.44" height="3.44"/><rect class="cls-5" x="104.42" y="178.02" width="3.44" height="3.44"/><rect class="cls-5" x="111.3" y="178.02" width="3.44" height="3.44"/><rect class="cls-5" x="118.18" y="171.14" width="3.44" height="3.44"/><rect class="cls-5" x="125.06" y="171.14" width="3.44" height="3.44"/><rect class="cls-5" x="118.18" y="178.02" width="3.44" height="3.44"/><rect class="cls-5" x="125.06" y="178.02" width="3.44" height="3.44"/><rect class="cls-5" x="131.95" y="171.14" width="3.44" height="3.44"/><rect class="cls-5" x="131.95" y="178.02" width="3.44" height="3.44"/><rect class="cls-5" x="138.83" y="178.02" width="3.44" height="3.44"/><rect class="cls-5" x="145.7" y="178.02" width="3.44" height="3.44"/><rect class="cls-5" x="173.22" y="164.26" width="3.44" height="3.44"/><rect class="cls-5" x="166.34" y="171.14" width="3.44" height="3.44"/><rect class="cls-5" x="173.22" y="171.14" width="3.44" height="3.44"/><rect class="cls-5" x="166.34" y="178.02" width="3.44" height="3.44"/><rect class="cls-5" x="173.22" y="178.02" width="3.44" height="3.44"/><rect class="cls-5" x="180.11" y="157.39" width="3.44" height="3.44"/><rect class="cls-5" x="186.99" y="157.39" width="3.44" height="3.44"/><rect class="cls-5" x="180.11" y="164.26" width="3.44" height="3.44"/><rect class="cls-5" x="186.99" y="164.26" width="3.44" height="3.44"/><rect class="cls-5" x="180.11" y="178.02" width="3.44" height="3.44"/><rect class="cls-5" x="186.99" y="178.02" width="3.44" height="3.44"/><rect class="cls-5" x="200.74" y="157.39" width="3.44" height="3.44"/><rect class="cls-5" x="200.74" y="164.26" width="3.44" height="3.44"/><rect class="cls-5" x="193.86" y="171.14" width="3.44" height="3.44"/><rect class="cls-5" x="200.74" y="171.14" width="3.44" height="3.44"/><rect class="cls-5" x="193.86" y="178.02" width="3.44" height="3.44"/><rect class="cls-5" x="207.62" y="157.39" width="3.44" height="3.44"/><rect class="cls-5" x="207.62" y="171.14" width="3.44" height="3.44"/><rect class="cls-5" x="207.62" y="178.02" width="3.44" height="3.44"/><rect class="cls-5" x="214.5" y="150.51" width="3.44" height="3.44"/><rect class="cls-5" x="214.5" y="157.39" width="3.44" height="3.44"/><rect class="cls-5" x="221.39" y="150.51" width="3.44" height="3.44"/><rect class="cls-5" x="221.39" y="157.39" width="3.44" height="3.44"/><rect class="cls-5" x="214.5" y="164.26" width="3.44" height="3.44"/><rect class="cls-5" x="214.5" y="171.14" width="3.44" height="3.44"/><rect class="cls-5" x="221.39" y="171.14" width="3.44" height="3.44"/><rect class="cls-5" x="228.27" y="150.51" width="3.44" height="3.44"/><rect class="cls-5" x="235.15" y="150.51" width="3.44" height="3.44"/><rect class="cls-5" x="235.15" y="157.39" width="3.44" height="3.44"/><rect class="cls-5" x="228.27" y="164.26" width="3.44" height="3.44"/><rect class="cls-5" x="235.15" y="164.26" width="3.44" height="3.44"/><rect class="cls-5" x="228.27" y="171.14" width="3.44" height="3.44"/><rect class="cls-5" x="235.15" y="171.14" width="3.44" height="3.44"/><rect class="cls-5" x="228.27" y="178.02" width="3.44" height="3.44"/><rect class="cls-5" x="235.15" y="178.02" width="3.44" height="3.44"/><rect class="cls-5" x="242.02" y="157.39" width="3.44" height="3.44"/><rect class="cls-5" x="248.9" y="157.39" width="3.44" height="3.44"/><rect class="cls-5" x="242.02" y="164.26" width="3.44" height="3.44"/><rect class="cls-5" x="248.9" y="164.26" width="3.44" height="3.44"/><rect class="cls-5" x="242.02" y="171.14" width="3.44" height="3.44"/><rect class="cls-5" x="248.9" y="171.14" width="3.44" height="3.44"/><rect class="cls-5" x="242.02" y="178.02" width="3.44" height="3.44"/><rect class="cls-5" x="248.9" y="178.02" width="3.44" height="3.44"/><rect class="cls-5" x="255.78" y="150.51" width="3.44" height="3.44"/><rect class="cls-5" x="255.78" y="157.39" width="3.44" height="3.44"/><rect class="cls-5" x="255.78" y="164.26" width="3.44" height="3.44"/><rect class="cls-5" x="255.78" y="171.14" width="3.44" height="3.44"/><rect class="cls-5" x="255.78" y="178.02" width="3.44" height="3.44"/><rect class="cls-5" x="262.66" y="150.51" width="3.44" height="3.44"/><rect class="cls-5" x="269.55" y="157.39" width="3.44" height="3.44"/><rect class="cls-5" x="262.66" y="164.26" width="3.44" height="3.44"/><rect class="cls-5" x="269.55" y="164.26" width="3.44" height="3.44"/><rect class="cls-5" x="262.66" y="171.14" width="3.44" height="3.44"/><rect class="cls-5" x="269.55" y="171.14" width="3.44" height="3.44"/><rect class="cls-5" x="262.66" y="178.02" width="3.44" height="3.44"/><rect class="cls-5" x="269.55" y="178.02" width="3.44" height="3.44"/><rect class="cls-5" x="276.43" y="233.07" width="3.44" height="3.44"/><rect class="cls-5" x="276.43" y="239.95" width="3.44" height="3.44"/><rect class="cls-5" x="283.31" y="233.07" width="3.44" height="3.44"/><rect class="cls-5" x="283.31" y="226.19" width="3.44" height="3.44"/><rect class="cls-5" x="283.31" y="239.95" width="3.44" height="3.44"/><rect class="cls-5" x="283.31" y="246.83" width="3.44" height="3.44"/><rect class="cls-5" x="276.43" y="253.71" width="3.44" height="3.44"/><rect class="cls-5" x="283.31" y="253.71" width="3.44" height="3.44"/><rect class="cls-5" x="276.43" y="260.59" width="3.44" height="3.44"/><rect class="cls-5" x="290.18" y="239.95" width="3.44" height="3.44"/><rect class="cls-5" x="297.06" y="233.07" width="3.44" height="3.44"/><rect class="cls-5" x="297.06" y="239.95" width="3.44" height="3.44"/><rect class="cls-5" x="290.18" y="246.83" width="3.44" height="3.44"/><rect class="cls-5" x="297.06" y="246.83" width="3.44" height="3.44"/><rect class="cls-5" x="290.18" y="253.71" width="3.44" height="3.44"/><rect class="cls-5" x="297.06" y="260.59" width="3.44" height="3.44"/><rect class="cls-5" x="303.94" y="233.07" width="3.44" height="3.44"/><rect class="cls-6" x="302.55" y="238.54" width="6.24" height="6.24"/><rect class="cls-5" x="310.83" y="233.07" width="3.44" height="3.44"/><rect class="cls-5" x="310.83" y="226.19" width="3.44" height="3.44"/><rect class="cls-5" x="310.83" y="239.95" width="3.44" height="3.44"/><rect class="cls-5" x="303.94" y="246.83" width="3.44" height="3.44"/><rect class="cls-5" x="310.83" y="246.83" width="3.44" height="3.44"/><rect class="cls-5" x="303.94" y="253.71" width="3.44" height="3.44"/><rect class="cls-5" x="310.83" y="253.71" width="3.44" height="3.44"/><rect class="cls-5" x="303.94" y="260.59" width="3.44" height="3.44"/><rect class="cls-5" x="317.71" y="233.07" width="3.44" height="3.44"/><rect class="cls-5" x="317.71" y="226.19" width="3.44" height="3.44"/><rect class="cls-5" x="317.71" y="239.95" width="3.44" height="3.44"/><rect class="cls-5" x="317.71" y="246.83" width="3.44" height="3.44"/><rect class="cls-5" x="317.71" y="253.71" width="3.44" height="3.44"/><rect class="cls-5" x="324.59" y="233.07" width="3.44" height="3.44"/><rect class="cls-5" x="324.59" y="239.95" width="3.44" height="3.44"/><rect class="cls-5" x="331.47" y="233.07" width="3.44" height="3.44"/><rect class="cls-5" x="324.59" y="226.19" width="3.44" height="3.44"/><rect class="cls-5" x="331.47" y="226.19" width="3.44" height="3.44"/><rect class="cls-5" x="331.47" y="239.95" width="3.44" height="3.44"/><rect class="cls-5" x="324.59" y="246.83" width="3.44" height="3.44"/><rect class="cls-5" x="331.47" y="246.83" width="3.44" height="3.44"/><rect class="cls-5" x="324.59" y="260.59" width="3.44" height="3.44"/><rect class="cls-5" x="331.47" y="260.59" width="3.44" height="3.44"/><rect class="cls-5" x="297.06" y="212.42" width="3.44" height="3.44"/><rect class="cls-5" x="297.06" y="219.3" width="3.44" height="3.44"/><rect class="cls-5" x="310.83" y="198.67" width="3.44" height="3.44"/><rect class="cls-5" x="303.94" y="205.55" width="3.44" height="3.44"/><rect class="cls-5" x="310.83" y="205.55" width="3.44" height="3.44"/><rect class="cls-5" x="303.94" y="212.42" width="3.44" height="3.44"/><rect class="cls-5" x="303.94" y="219.3" width="3.44" height="3.44"/><rect class="cls-5" x="317.71" y="198.67" width="3.44" height="3.44"/><rect class="cls-5" x="317.71" y="205.55" width="3.44" height="3.44"/><rect class="cls-5" x="317.71" y="212.42" width="3.44" height="3.44"/><rect class="cls-5" x="317.71" y="219.3" width="3.44" height="3.44"/><rect class="cls-5" x="324.59" y="205.55" width="3.44" height="3.44"/><rect class="cls-5" x="331.47" y="205.55" width="3.44" height="3.44"/><rect class="cls-5" x="324.59" y="212.42" width="3.44" height="3.44"/><rect class="cls-5" x="331.47" y="212.42" width="3.44" height="3.44"/><rect class="cls-5" x="324.59" y="219.3" width="3.44" height="3.44"/><rect class="cls-5" x="331.47" y="219.3" width="3.44" height="3.44"/><rect class="cls-5" x="338.34" y="233.07" width="3.44" height="3.44"/><rect class="cls-5" x="338.34" y="239.95" width="3.44" height="3.44"/><rect class="cls-5" x="345.22" y="233.07" width="3.44" height="3.44"/><rect class="cls-5" x="338.34" y="226.19" width="3.44" height="3.44"/><rect class="cls-5" x="345.22" y="226.19" width="3.44" height="3.44"/><rect class="cls-5" x="345.22" y="239.95" width="3.44" height="3.44"/><rect class="cls-5" x="338.34" y="246.83" width="3.44" height="3.44"/><rect class="cls-5" x="338.34" y="253.71" width="3.44" height="3.44"/><rect class="cls-5" x="345.22" y="253.71" width="3.44" height="3.44"/><rect class="cls-5" x="338.34" y="260.59" width="3.44" height="3.44"/><rect class="cls-5" x="345.22" y="260.59" width="3.44" height="3.44"/><rect class="cls-5" x="352.1" y="233.07" width="3.44" height="3.44"/><rect class="cls-5" x="352.1" y="239.95" width="3.44" height="3.44"/><rect class="cls-5" x="358.99" y="233.07" width="3.44" height="3.44"/><rect class="cls-5" x="352.1" y="226.19" width="3.44" height="3.44"/><rect class="cls-5" x="358.99" y="226.19" width="3.44" height="3.44"/><rect class="cls-5" x="358.99" y="239.95" width="3.44" height="3.44"/><rect class="cls-6" x="350.71" y="245.43" width="6.24" height="6.24"/><rect class="cls-5" x="358.99" y="246.83" width="3.44" height="3.44"/><rect class="cls-5" x="358.99" y="253.71" width="3.44" height="3.44"/><rect class="cls-5" x="358.99" y="260.59" width="3.44" height="3.44"/><rect class="cls-5" x="365.87" y="233.07" width="3.44" height="3.44"/><rect class="cls-5" x="365.87" y="226.19" width="3.44" height="3.44"/><rect class="cls-5" x="365.87" y="239.95" width="3.44" height="3.44"/><rect class="cls-5" x="365.87" y="246.83" width="3.44" height="3.44"/><rect class="cls-5" x="365.87" y="253.71" width="3.44" height="3.44"/><rect class="cls-5" x="365.87" y="260.59" width="3.44" height="3.44"/><rect class="cls-5" x="372.75" y="233.07" width="3.44" height="3.44"/><rect class="cls-5" x="372.75" y="239.95" width="3.44" height="3.44"/><rect class="cls-5" x="379.63" y="233.07" width="3.44" height="3.44"/><rect class="cls-5" x="372.75" y="226.19" width="3.44" height="3.44"/><rect class="cls-5" x="379.63" y="226.19" width="3.44" height="3.44"/><rect class="cls-5" x="379.63" y="239.95" width="3.44" height="3.44"/><rect class="cls-5" x="372.75" y="246.83" width="3.44" height="3.44"/><rect class="cls-5" x="379.63" y="246.83" width="3.44" height="3.44"/><rect class="cls-5" x="372.75" y="253.71" width="3.44" height="3.44"/><rect class="cls-5" x="379.63" y="253.71" width="3.44" height="3.44"/><rect class="cls-5" x="372.75" y="260.59" width="3.44" height="3.44"/><rect class="cls-5" x="379.63" y="260.59" width="3.44" height="3.44"/><rect class="cls-5" x="386.51" y="233.07" width="3.44" height="3.44"/><rect class="cls-5" x="386.51" y="239.95" width="3.44" height="3.44"/><rect class="cls-5" x="393.38" y="233.07" width="3.44" height="3.44"/><rect class="cls-5" x="386.51" y="226.19" width="3.44" height="3.44"/><rect class="cls-5" x="393.38" y="226.19" width="3.44" height="3.44"/><rect class="cls-5" x="393.38" y="239.95" width="3.44" height="3.44"/><rect class="cls-5" x="386.51" y="246.83" width="3.44" height="3.44"/><rect class="cls-5" x="393.38" y="246.83" width="3.44" height="3.44"/><rect class="cls-5" x="386.51" y="253.71" width="3.44" height="3.44"/><rect class="cls-5" x="393.38" y="253.71" width="3.44" height="3.44"/><rect class="cls-5" x="386.51" y="260.59" width="3.44" height="3.44"/><rect class="cls-5" x="393.38" y="260.59" width="3.44" height="3.44"/><rect class="cls-5" x="400.26" y="233.07" width="3.44" height="3.44"/><rect class="cls-5" x="400.26" y="239.95" width="3.44" height="3.44"/><rect class="cls-5" x="407.15" y="233.07" width="3.44" height="3.44"/><rect class="cls-5" x="400.26" y="226.19" width="3.44" height="3.44"/><rect class="cls-5" x="407.15" y="226.19" width="3.44" height="3.44"/><rect class="cls-5" x="407.15" y="239.95" width="3.44" height="3.44"/><rect class="cls-5" x="400.26" y="246.83" width="3.44" height="3.44"/><rect class="cls-5" x="407.15" y="246.83" width="3.44" height="3.44"/><rect class="cls-5" x="400.26" y="253.71" width="3.44" height="3.44"/><rect class="cls-5" x="407.15" y="253.71" width="3.44" height="3.44"/><rect class="cls-5" x="400.26" y="260.59" width="3.44" height="3.44"/><rect class="cls-5" x="407.15" y="260.59" width="3.44" height="3.44"/><rect class="cls-5" x="414.03" y="233.07" width="3.44" height="3.44"/><rect class="cls-5" x="414.03" y="239.95" width="3.44" height="3.44"/><rect class="cls-5" x="414.03" y="246.83" width="3.44" height="3.44"/><rect class="cls-5" x="414.03" y="253.71" width="3.44" height="3.44"/><rect class="cls-5" x="414.03" y="260.59" width="3.44" height="3.44"/><rect class="cls-5" x="420.91" y="233.07" width="3.44" height="3.44"/><rect class="cls-5" x="420.91" y="239.95" width="3.44" height="3.44"/><rect class="cls-5" x="427.79" y="233.07" width="3.44" height="3.44"/><rect class="cls-5" x="420.91" y="226.19" width="3.44" height="3.44"/><rect class="cls-5" x="427.79" y="226.19" width="3.44" height="3.44"/><rect class="cls-5" x="427.79" y="239.95" width="3.44" height="3.44"/><rect class="cls-5" x="420.91" y="246.83" width="3.44" height="3.44"/><rect class="cls-5" x="427.79" y="246.83" width="3.44" height="3.44"/><rect class="cls-5" x="420.91" y="253.71" width="3.44" height="3.44"/><rect class="cls-5" x="427.79" y="253.71" width="3.44" height="3.44"/><rect class="cls-5" x="420.91" y="260.59" width="3.44" height="3.44"/><rect class="cls-5" x="427.79" y="260.59" width="3.44" height="3.44"/><rect class="cls-5" x="276.43" y="274.35" width="3.44" height="3.44"/><rect class="cls-5" x="276.43" y="281.23" width="3.44" height="3.44"/><rect class="cls-5" x="283.31" y="274.35" width="3.44" height="3.44"/><rect class="cls-5" x="283.31" y="267.46" width="3.44" height="3.44"/><rect class="cls-5" x="283.31" y="281.23" width="3.44" height="3.44"/><rect class="cls-5" x="276.43" y="288.11" width="3.44" height="3.44"/><rect class="cls-5" x="283.31" y="288.11" width="3.44" height="3.44"/><rect class="cls-5" x="276.43" y="294.99" width="3.44" height="3.44"/><rect class="cls-5" x="283.31" y="294.99" width="3.44" height="3.44"/><rect class="cls-5" x="276.43" y="301.87" width="3.44" height="3.44"/><rect class="cls-5" x="283.31" y="301.87" width="3.44" height="3.44"/><rect class="cls-5" x="290.18" y="274.35" width="3.44" height="3.44"/><rect class="cls-5" x="290.18" y="281.23" width="3.44" height="3.44"/><rect class="cls-5" x="297.06" y="274.35" width="3.44" height="3.44"/><rect class="cls-5" x="290.18" y="267.46" width="3.44" height="3.44"/><rect class="cls-5" x="297.06" y="267.46" width="3.44" height="3.44"/><rect class="cls-5" x="297.06" y="281.23" width="3.44" height="3.44"/><rect class="cls-5" x="290.18" y="288.11" width="3.44" height="3.44"/><rect class="cls-5" x="297.06" y="288.11" width="3.44" height="3.44"/><rect class="cls-5" x="290.18" y="294.99" width="3.44" height="3.44"/><rect class="cls-5" x="297.06" y="294.99" width="3.44" height="3.44"/><rect class="cls-5" x="290.18" y="301.87" width="3.44" height="3.44"/><rect class="cls-5" x="297.06" y="301.87" width="3.44" height="3.44"/><rect class="cls-5" x="303.94" y="274.35" width="3.44" height="3.44"/><rect class="cls-5" x="303.94" y="281.23" width="3.44" height="3.44"/><rect class="cls-5" x="310.83" y="274.35" width="3.44" height="3.44"/><rect class="cls-5" x="303.94" y="267.46" width="3.44" height="3.44"/><rect class="cls-5" x="310.83" y="281.23" width="3.44" height="3.44"/><rect class="cls-5" x="303.94" y="288.11" width="3.44" height="3.44"/><rect class="cls-5" x="310.83" y="288.11" width="3.44" height="3.44"/><rect class="cls-5" x="303.94" y="294.99" width="3.44" height="3.44"/><rect class="cls-5" x="310.83" y="294.99" width="3.44" height="3.44"/><rect class="cls-5" x="303.94" y="301.87" width="3.44" height="3.44"/><rect class="cls-5" x="310.83" y="301.87" width="3.44" height="3.44"/><rect class="cls-5" x="317.71" y="274.35" width="3.44" height="3.44"/><rect class="cls-5" x="317.71" y="267.46" width="3.44" height="3.44"/><rect class="cls-5" x="317.71" y="281.23" width="3.44" height="3.44"/><rect class="cls-5" x="317.71" y="288.11" width="3.44" height="3.44"/><rect class="cls-5" x="317.71" y="294.99" width="3.44" height="3.44"/><rect class="cls-5" x="317.71" y="301.87" width="3.44" height="3.44"/><rect class="cls-5" x="324.59" y="274.35" width="3.44" height="3.44"/><rect class="cls-5" x="324.59" y="281.23" width="3.44" height="3.44"/><rect class="cls-5" x="331.47" y="274.35" width="3.44" height="3.44"/><rect class="cls-5" x="331.47" y="267.46" width="3.44" height="3.44"/><rect class="cls-5" x="324.59" y="288.11" width="3.44" height="3.44"/><rect class="cls-5" x="331.47" y="288.11" width="3.44" height="3.44"/><rect class="cls-5" x="324.59" y="294.99" width="3.44" height="3.44"/><rect class="cls-5" x="331.47" y="294.99" width="3.44" height="3.44"/><rect class="cls-5" x="324.59" y="301.87" width="3.44" height="3.44"/><rect class="cls-5" x="331.47" y="301.87" width="3.44" height="3.44"/><rect class="cls-5" x="338.34" y="274.35" width="3.44" height="3.44"/><rect class="cls-5" x="338.34" y="281.23" width="3.44" height="3.44"/><rect class="cls-5" x="345.22" y="274.35" width="3.44" height="3.44"/><rect class="cls-5" x="338.34" y="267.46" width="3.44" height="3.44"/><rect class="cls-5" x="345.22" y="267.46" width="3.44" height="3.44"/><rect class="cls-5" x="345.22" y="281.23" width="3.44" height="3.44"/><rect class="cls-5" x="345.22" y="288.11" width="3.44" height="3.44"/><rect class="cls-5" x="338.34" y="294.99" width="3.44" height="3.44"/><rect class="cls-5" x="338.34" y="301.87" width="3.44" height="3.44"/><rect class="cls-6" x="343.83" y="300.47" width="6.24" height="6.24"/><rect class="cls-5" x="352.1" y="281.23" width="3.44" height="3.44"/><rect class="cls-5" x="358.99" y="274.35" width="3.44" height="3.44"/><rect class="cls-5" x="352.1" y="267.46" width="3.44" height="3.44"/><rect class="cls-5" x="358.99" y="267.46" width="3.44" height="3.44"/><rect class="cls-6" x="357.58" y="279.83" width="6.24" height="6.24"/><rect class="cls-5" x="352.1" y="288.11" width="3.44" height="3.44"/><rect class="cls-5" x="358.99" y="288.11" width="3.44" height="3.44"/><rect class="cls-5" x="352.1" y="301.87" width="3.44" height="3.44"/><rect class="cls-5" x="365.87" y="274.35" width="3.44" height="3.44"/><rect class="cls-5" x="365.87" y="267.46" width="3.44" height="3.44"/><rect class="cls-5" x="372.75" y="274.35" width="3.44" height="3.44"/><rect class="cls-5" x="372.75" y="281.23" width="3.44" height="3.44"/><rect class="cls-5" x="379.63" y="274.35" width="3.44" height="3.44"/><rect class="cls-5" x="372.75" y="267.46" width="3.44" height="3.44"/><rect class="cls-5" x="379.63" y="267.46" width="3.44" height="3.44"/><rect class="cls-5" x="379.63" y="281.23" width="3.44" height="3.44"/><rect class="cls-5" x="379.63" y="288.11" width="3.44" height="3.44"/><rect class="cls-5" x="386.51" y="274.35" width="3.44" height="3.44"/><rect class="cls-5" x="386.51" y="281.23" width="3.44" height="3.44"/><rect class="cls-5" x="393.38" y="274.35" width="3.44" height="3.44"/><rect class="cls-5" x="386.51" y="267.46" width="3.44" height="3.44"/><rect class="cls-5" x="393.38" y="267.46" width="3.44" height="3.44"/><rect class="cls-5" x="393.38" y="281.23" width="3.44" height="3.44"/><rect class="cls-5" x="386.51" y="288.11" width="3.44" height="3.44"/><rect class="cls-5" x="393.38" y="288.11" width="3.44" height="3.44"/><rect class="cls-5" x="386.51" y="294.99" width="3.44" height="3.44"/><rect class="cls-5" x="393.38" y="294.99" width="3.44" height="3.44"/><rect class="cls-5" x="386.51" y="301.87" width="3.44" height="3.44"/><rect class="cls-5" x="400.26" y="274.35" width="3.44" height="3.44"/><rect class="cls-5" x="400.26" y="281.23" width="3.44" height="3.44"/><rect class="cls-5" x="407.15" y="274.35" width="3.44" height="3.44"/><rect class="cls-5" x="400.26" y="267.46" width="3.44" height="3.44"/><rect class="cls-5" x="407.15" y="267.46" width="3.44" height="3.44"/><rect class="cls-5" x="407.15" y="281.23" width="3.44" height="3.44"/><rect class="cls-6" x="405.74" y="286.7" width="6.24" height="6.24"/><rect class="cls-5" x="414.03" y="274.35" width="3.44" height="3.44"/><rect class="cls-5" x="414.03" y="267.46" width="3.44" height="3.44"/><rect class="cls-5" x="414.03" y="281.23" width="3.44" height="3.44"/><rect class="cls-5" x="414.03" y="288.11" width="3.44" height="3.44"/><rect class="cls-5" x="414.03" y="294.99" width="3.44" height="3.44"/><rect class="cls-5" x="414.03" y="301.87" width="3.44" height="3.44"/><rect class="cls-5" x="420.91" y="274.35" width="3.44" height="3.44"/><rect class="cls-5" x="420.91" y="281.23" width="3.44" height="3.44"/><rect class="cls-5" x="427.79" y="274.35" width="3.44" height="3.44"/><rect class="cls-5" x="420.91" y="267.46" width="3.44" height="3.44"/><rect class="cls-5" x="427.79" y="267.46" width="3.44" height="3.44"/><rect class="cls-5" x="427.79" y="281.23" width="3.44" height="3.44"/><rect class="cls-5" x="420.91" y="288.11" width="3.44" height="3.44"/><rect class="cls-5" x="427.79" y="288.11" width="3.44" height="3.44"/><rect class="cls-5" x="420.91" y="294.99" width="3.44" height="3.44"/><rect class="cls-5" x="427.79" y="294.99" width="3.44" height="3.44"/><rect class="cls-5" x="420.91" y="301.87" width="3.44" height="3.44"/><rect class="cls-5" x="338.34" y="191.79" width="3.44" height="3.44"/><rect class="cls-5" x="338.34" y="198.67" width="3.44" height="3.44"/><rect class="cls-5" x="338.34" y="184.91" width="3.44" height="3.44"/><rect class="cls-5" x="345.22" y="198.67" width="3.44" height="3.44"/><rect class="cls-5" x="338.34" y="205.55" width="3.44" height="3.44"/><rect class="cls-5" x="345.22" y="205.55" width="3.44" height="3.44"/><rect class="cls-5" x="338.34" y="212.42" width="3.44" height="3.44"/><rect class="cls-5" x="345.22" y="212.42" width="3.44" height="3.44"/><rect class="cls-5" x="338.34" y="219.3" width="3.44" height="3.44"/><rect class="cls-5" x="345.22" y="219.3" width="3.44" height="3.44"/><rect class="cls-5" x="352.1" y="191.79" width="3.44" height="3.44"/><rect class="cls-5" x="352.1" y="198.67" width="3.44" height="3.44"/><rect class="cls-5" x="358.99" y="191.79" width="3.44" height="3.44"/><rect class="cls-5" x="352.1" y="184.91" width="3.44" height="3.44"/><rect class="cls-5" x="358.99" y="184.91" width="3.44" height="3.44"/><rect class="cls-5" x="358.99" y="198.67" width="3.44" height="3.44"/><rect class="cls-5" x="352.1" y="205.55" width="3.44" height="3.44"/><rect class="cls-5" x="358.99" y="205.55" width="3.44" height="3.44"/><rect class="cls-5" x="352.1" y="212.42" width="3.44" height="3.44"/><rect class="cls-5" x="358.99" y="212.42" width="3.44" height="3.44"/><rect class="cls-5" x="352.1" y="219.3" width="3.44" height="3.44"/><rect class="cls-5" x="358.99" y="219.3" width="3.44" height="3.44"/><rect class="cls-5" x="365.87" y="191.79" width="3.44" height="3.44"/><rect class="cls-5" x="365.87" y="184.91" width="3.44" height="3.44"/><rect class="cls-5" x="365.87" y="198.67" width="3.44" height="3.44"/><rect class="cls-5" x="365.87" y="205.55" width="3.44" height="3.44"/><rect class="cls-5" x="365.87" y="212.42" width="3.44" height="3.44"/><rect class="cls-5" x="365.87" y="219.3" width="3.44" height="3.44"/><rect class="cls-5" x="372.75" y="191.79" width="3.44" height="3.44"/><rect class="cls-5" x="372.75" y="198.67" width="3.44" height="3.44"/><rect class="cls-5" x="379.63" y="191.79" width="3.44" height="3.44"/><rect class="cls-5" x="372.75" y="184.91" width="3.44" height="3.44"/><rect class="cls-5" x="379.63" y="184.91" width="3.44" height="3.44"/><rect class="cls-5" x="379.63" y="198.67" width="3.44" height="3.44"/><rect class="cls-5" x="372.75" y="205.55" width="3.44" height="3.44"/><rect class="cls-5" x="379.63" y="205.55" width="3.44" height="3.44"/><rect class="cls-5" x="372.75" y="212.42" width="3.44" height="3.44"/><rect class="cls-5" x="379.63" y="212.42" width="3.44" height="3.44"/><rect class="cls-5" x="372.75" y="219.3" width="3.44" height="3.44"/><rect class="cls-5" x="379.63" y="219.3" width="3.44" height="3.44"/><rect class="cls-5" x="386.51" y="191.79" width="3.44" height="3.44"/><rect class="cls-5" x="386.51" y="198.67" width="3.44" height="3.44"/><rect class="cls-5" x="393.38" y="191.79" width="3.44" height="3.44"/><rect class="cls-5" x="386.51" y="184.91" width="3.44" height="3.44"/><rect class="cls-5" x="393.38" y="184.91" width="3.44" height="3.44"/><rect class="cls-5" x="393.38" y="198.67" width="3.44" height="3.44"/><rect class="cls-5" x="386.51" y="205.55" width="3.44" height="3.44"/><rect class="cls-5" x="393.38" y="205.55" width="3.44" height="3.44"/><rect class="cls-5" x="386.51" y="212.42" width="3.44" height="3.44"/><rect class="cls-5" x="393.38" y="212.42" width="3.44" height="3.44"/><rect class="cls-5" x="386.51" y="219.3" width="3.44" height="3.44"/><rect class="cls-5" x="393.38" y="219.3" width="3.44" height="3.44"/><rect class="cls-5" x="400.26" y="191.79" width="3.44" height="3.44"/><rect class="cls-5" x="400.26" y="198.67" width="3.44" height="3.44"/><rect class="cls-5" x="407.15" y="191.79" width="3.44" height="3.44"/><rect class="cls-5" x="400.26" y="184.91" width="3.44" height="3.44"/><rect class="cls-5" x="407.15" y="184.91" width="3.44" height="3.44"/><rect class="cls-5" x="407.15" y="198.67" width="3.44" height="3.44"/><rect class="cls-5" x="400.26" y="205.55" width="3.44" height="3.44"/><rect class="cls-6" x="405.74" y="204.15" width="6.24" height="6.24"/><rect class="cls-5" x="400.26" y="212.42" width="3.44" height="3.44"/><rect class="cls-5" x="407.15" y="212.42" width="3.44" height="3.44"/><rect class="cls-5" x="400.26" y="219.3" width="3.44" height="3.44"/><rect class="cls-5" x="407.15" y="219.3" width="3.44" height="3.44"/><rect class="cls-5" x="414.03" y="191.79" width="3.44" height="3.44"/><rect class="cls-5" x="414.03" y="184.91" width="3.44" height="3.44"/><rect class="cls-5" x="414.03" y="198.67" width="3.44" height="3.44"/><rect class="cls-5" x="414.03" y="205.55" width="3.44" height="3.44"/><rect class="cls-5" x="414.03" y="212.42" width="3.44" height="3.44"/><rect class="cls-5" x="414.03" y="219.3" width="3.44" height="3.44"/><rect class="cls-5" x="420.91" y="191.79" width="3.44" height="3.44"/><rect class="cls-5" x="420.91" y="198.67" width="3.44" height="3.44"/><rect class="cls-5" x="427.79" y="191.79" width="3.44" height="3.44"/><rect class="cls-5" x="420.91" y="184.91" width="3.44" height="3.44"/><rect class="cls-5" x="427.79" y="184.91" width="3.44" height="3.44"/><rect class="cls-5" x="427.79" y="198.67" width="3.44" height="3.44"/><rect class="cls-5" x="420.91" y="205.55" width="3.44" height="3.44"/><rect class="cls-5" x="427.79" y="205.55" width="3.44" height="3.44"/><rect class="cls-5" x="420.91" y="212.42" width="3.44" height="3.44"/><rect class="cls-5" x="427.79" y="212.42" width="3.44" height="3.44"/><rect class="cls-5" x="420.91" y="219.3" width="3.44" height="3.44"/><rect class="cls-5" x="427.79" y="219.3" width="3.44" height="3.44"/><rect class="cls-5" x="276.43" y="164.26" width="3.44" height="3.44"/><rect class="cls-5" x="297.06" y="171.14" width="3.44" height="3.44"/><rect class="cls-5" x="297.06" y="178.02" width="3.44" height="3.44"/><rect class="cls-5" x="303.94" y="171.14" width="3.44" height="3.44"/><rect class="cls-5" x="331.47" y="157.39" width="3.44" height="3.44"/><rect class="cls-5" x="324.59" y="164.26" width="3.44" height="3.44"/><rect class="cls-5" x="331.47" y="164.26" width="3.44" height="3.44"/><rect class="cls-5" x="345.22" y="178.02" width="3.44" height="3.44"/><rect class="cls-5" x="358.99" y="150.51" width="3.44" height="3.44"/><rect class="cls-5" x="365.87" y="157.39" width="3.44" height="3.44"/><rect class="cls-5" x="365.87" y="178.02" width="3.44" height="3.44"/><rect class="cls-5" x="372.75" y="157.39" width="3.44" height="3.44"/><rect class="cls-5" x="372.75" y="164.26" width="3.44" height="3.44"/><rect class="cls-5" x="379.63" y="164.26" width="3.44" height="3.44"/><rect class="cls-5" x="372.75" y="171.14" width="3.44" height="3.44"/><rect class="cls-5" x="379.63" y="171.14" width="3.44" height="3.44"/><rect class="cls-5" x="372.75" y="178.02" width="3.44" height="3.44"/><rect class="cls-5" x="379.63" y="178.02" width="3.44" height="3.44"/><rect class="cls-5" x="386.51" y="164.26" width="3.44" height="3.44"/><rect class="cls-5" x="386.51" y="171.14" width="3.44" height="3.44"/><rect class="cls-5" x="393.38" y="171.14" width="3.44" height="3.44"/><rect class="cls-5" x="386.51" y="178.02" width="3.44" height="3.44"/><rect class="cls-5" x="393.38" y="178.02" width="3.44" height="3.44"/><rect class="cls-5" x="407.15" y="171.14" width="3.44" height="3.44"/><rect class="cls-5" x="400.26" y="178.02" width="3.44" height="3.44"/><rect class="cls-5" x="407.15" y="178.02" width="3.44" height="3.44"/><rect class="cls-5" x="414.03" y="157.39" width="3.44" height="3.44"/><rect class="cls-5" x="414.03" y="164.26" width="3.44" height="3.44"/><rect class="cls-5" x="414.03" y="178.02" width="3.44" height="3.44"/><rect class="cls-5" x="420.91" y="157.39" width="3.44" height="3.44"/><rect class="cls-5" x="427.79" y="157.39" width="3.44" height="3.44"/><rect class="cls-5" x="420.91" y="164.26" width="3.44" height="3.44"/><rect class="cls-5" x="420.91" y="171.14" width="3.44" height="3.44"/><rect class="cls-5" x="427.79" y="171.14" width="3.44" height="3.44"/><rect class="cls-5" x="420.91" y="178.02" width="3.44" height="3.44"/><rect class="cls-5" x="427.79" y="178.02" width="3.44" height="3.44"/><rect class="cls-5" x="434.67" y="233.07" width="3.44" height="3.44"/><rect class="cls-5" x="434.67" y="239.95" width="3.44" height="3.44"/><rect class="cls-5" x="441.54" y="233.07" width="3.44" height="3.44"/><rect class="cls-5" x="434.67" y="226.19" width="3.44" height="3.44"/><rect class="cls-5" x="441.54" y="226.19" width="3.44" height="3.44"/><rect class="cls-5" x="441.54" y="239.95" width="3.44" height="3.44"/><rect class="cls-5" x="434.67" y="246.83" width="3.44" height="3.44"/><rect class="cls-5" x="441.54" y="246.83" width="3.44" height="3.44"/><rect class="cls-5" x="434.67" y="253.71" width="3.44" height="3.44"/><rect class="cls-5" x="441.54" y="253.71" width="3.44" height="3.44"/><rect class="cls-5" x="434.67" y="260.59" width="3.44" height="3.44"/><rect class="cls-5" x="441.54" y="260.59" width="3.44" height="3.44"/><rect class="cls-5" x="448.43" y="233.07" width="3.44" height="3.44"/><rect class="cls-5" x="448.43" y="239.95" width="3.44" height="3.44"/><rect class="cls-5" x="455.31" y="233.07" width="3.44" height="3.44"/><rect class="cls-5" x="448.43" y="226.19" width="3.44" height="3.44"/><rect class="cls-5" x="455.31" y="226.19" width="3.44" height="3.44"/><rect class="cls-5" x="455.31" y="239.95" width="3.44" height="3.44"/><rect class="cls-5" x="448.43" y="246.83" width="3.44" height="3.44"/><rect class="cls-5" x="448.43" y="253.71" width="3.44" height="3.44"/><rect class="cls-5" x="455.31" y="260.59" width="3.44" height="3.44"/><rect class="cls-5" x="462.19" y="233.07" width="3.44" height="3.44"/><rect class="cls-5" x="462.19" y="239.95" width="3.44" height="3.44"/><rect class="cls-5" x="462.19" y="246.83" width="3.44" height="3.44"/><rect class="cls-5" x="462.19" y="253.71" width="3.44" height="3.44"/><rect class="cls-5" x="462.19" y="260.59" width="3.44" height="3.44"/><rect class="cls-5" x="475.95" y="226.19" width="3.44" height="3.44"/><rect class="cls-5" x="434.67" y="274.35" width="3.44" height="3.44"/><rect class="cls-6" x="433.27" y="279.83" width="6.24" height="6.24"/><rect class="cls-5" x="441.54" y="274.35" width="3.44" height="3.44"/><rect class="cls-5" x="434.67" y="267.46" width="3.44" height="3.44"/><rect class="cls-5" x="441.54" y="267.46" width="3.44" height="3.44"/><rect class="cls-5" x="441.54" y="281.23" width="3.44" height="3.44"/><rect class="cls-5" x="441.54" y="294.99" width="3.44" height="3.44"/><rect class="cls-5" x="455.31" y="267.46" width="3.44" height="3.44"/><rect class="cls-5" x="448.43" y="294.99" width="3.44" height="3.44"/><rect class="cls-5" x="448.43" y="301.87" width="3.44" height="3.44"/><rect class="cls-5" x="434.67" y="191.79" width="3.44" height="3.44"/><rect class="cls-5" x="434.67" y="198.67" width="3.44" height="3.44"/><rect class="cls-5" x="441.54" y="191.79" width="3.44" height="3.44"/><rect class="cls-5" x="434.67" y="184.91" width="3.44" height="3.44"/><rect class="cls-5" x="441.54" y="184.91" width="3.44" height="3.44"/><rect class="cls-5" x="441.54" y="198.67" width="3.44" height="3.44"/><rect class="cls-5" x="434.67" y="205.55" width="3.44" height="3.44"/><rect class="cls-5" x="441.54" y="205.55" width="3.44" height="3.44"/><rect class="cls-5" x="434.67" y="212.42" width="3.44" height="3.44"/><rect class="cls-5" x="441.54" y="212.42" width="3.44" height="3.44"/><rect class="cls-5" x="434.67" y="219.3" width="3.44" height="3.44"/><rect class="cls-5" x="441.54" y="219.3" width="3.44" height="3.44"/><rect class="cls-5" x="448.43" y="191.79" width="3.44" height="3.44"/><rect class="cls-5" x="448.43" y="198.67" width="3.44" height="3.44"/><rect class="cls-5" x="455.31" y="191.79" width="3.44" height="3.44"/><rect class="cls-5" x="448.43" y="184.91" width="3.44" height="3.44"/><rect class="cls-5" x="455.31" y="184.91" width="3.44" height="3.44"/><rect class="cls-5" x="455.31" y="198.67" width="3.44" height="3.44"/><rect class="cls-5" x="448.43" y="205.55" width="3.44" height="3.44"/><rect class="cls-5" x="455.31" y="205.55" width="3.44" height="3.44"/><rect class="cls-5" x="448.43" y="212.42" width="3.44" height="3.44"/><rect class="cls-5" x="448.43" y="219.3" width="3.44" height="3.44"/><rect class="cls-5" x="462.19" y="191.79" width="3.44" height="3.44"/><rect class="cls-5" x="462.19" y="184.91" width="3.44" height="3.44"/><rect class="cls-5" x="462.19" y="198.67" width="3.44" height="3.44"/><rect class="cls-5" x="469.07" y="191.79" width="3.44" height="3.44"/><rect class="cls-5" x="469.07" y="198.67" width="3.44" height="3.44"/><rect class="cls-5" x="475.95" y="191.79" width="3.44" height="3.44"/><rect class="cls-5" x="469.07" y="184.91" width="3.44" height="3.44"/><rect class="cls-5" x="475.95" y="184.91" width="3.44" height="3.44"/><rect class="cls-5" x="475.95" y="198.67" width="3.44" height="3.44"/><rect class="cls-5" x="469.07" y="205.55" width="3.44" height="3.44"/><rect class="cls-5" x="469.07" y="212.42" width="3.44" height="3.44"/><rect class="cls-5" x="475.95" y="212.42" width="3.44" height="3.44"/><rect class="cls-5" x="469.07" y="219.3" width="3.44" height="3.44"/><rect class="cls-5" x="475.95" y="219.3" width="3.44" height="3.44"/><rect class="cls-5" x="482.83" y="191.79" width="3.44" height="3.44"/><rect class="cls-5" x="482.83" y="184.91" width="3.44" height="3.44"/><rect class="cls-5" x="200.74" y="343.15" width="3.44" height="3.44"/><rect class="cls-6" x="192.46" y="334.87" width="6.24" height="6.24"/><rect class="cls-5" x="200.74" y="336.27" width="3.44" height="3.44"/><rect class="cls-5" x="200.74" y="350.03" width="3.44" height="3.44"/><rect class="cls-5" x="200.74" y="356.91" width="3.44" height="3.44"/><rect class="cls-5" x="193.86" y="363.79" width="3.44" height="3.44"/><rect class="cls-5" x="200.74" y="363.79" width="3.44" height="3.44"/><rect class="cls-5" x="193.86" y="370.67" width="3.44" height="3.44"/><rect class="cls-5" x="200.74" y="370.67" width="3.44" height="3.44"/><rect class="cls-5" x="207.62" y="343.15" width="3.44" height="3.44"/><rect class="cls-5" x="207.62" y="336.27" width="3.44" height="3.44"/><rect class="cls-5" x="207.62" y="350.03" width="3.44" height="3.44"/><rect class="cls-5" x="207.62" y="356.91" width="3.44" height="3.44"/><rect class="cls-5" x="207.62" y="363.79" width="3.44" height="3.44"/><rect class="cls-5" x="207.62" y="370.67" width="3.44" height="3.44"/><rect class="cls-5" x="214.5" y="343.15" width="3.44" height="3.44"/><rect class="cls-5" x="214.5" y="350.03" width="3.44" height="3.44"/><rect class="cls-5" x="221.39" y="343.15" width="3.44" height="3.44"/><rect class="cls-5" x="214.5" y="336.27" width="3.44" height="3.44"/><rect class="cls-5" x="221.39" y="336.27" width="3.44" height="3.44"/><rect class="cls-5" x="221.39" y="350.03" width="3.44" height="3.44"/><rect class="cls-5" x="214.5" y="356.91" width="3.44" height="3.44"/><rect class="cls-6" x="219.98" y="355.51" width="6.24" height="6.24"/><rect class="cls-5" x="214.5" y="363.79" width="3.44" height="3.44"/><rect class="cls-5" x="214.5" y="370.67" width="3.44" height="3.44"/><rect class="cls-5" x="221.39" y="363.79" width="3.44" height="3.44"/><rect class="cls-5" x="228.27" y="343.15" width="3.44" height="3.44"/><rect class="cls-5" x="228.27" y="350.03" width="3.44" height="3.44"/><rect class="cls-5" x="235.15" y="343.15" width="3.44" height="3.44"/><rect class="cls-5" x="228.27" y="336.27" width="3.44" height="3.44"/><rect class="cls-5" x="235.15" y="336.27" width="3.44" height="3.44"/><rect class="cls-5" x="193.86" y="384.43" width="3.44" height="3.44"/><rect class="cls-5" x="200.74" y="384.43" width="3.44" height="3.44"/><rect class="cls-5" x="193.86" y="377.55" width="3.44" height="3.44"/><rect class="cls-5" x="200.74" y="377.55" width="3.44" height="3.44"/><rect class="cls-5" x="200.74" y="391.31" width="3.44" height="3.44"/><rect class="cls-5" x="207.62" y="384.43" width="3.44" height="3.44"/><rect class="cls-5" x="207.62" y="377.55" width="3.44" height="3.44"/><rect class="cls-5" x="207.62" y="398.19" width="3.44" height="3.44"/><rect class="cls-5" x="186.99" y="308.75" width="3.44" height="3.44"/><rect class="cls-5" x="180.11" y="315.63" width="3.44" height="3.44"/><rect class="cls-5" x="186.99" y="315.63" width="3.44" height="3.44"/><rect class="cls-5" x="180.11" y="322.51" width="3.44" height="3.44"/><rect class="cls-5" x="186.99" y="322.51" width="3.44" height="3.44"/><rect class="cls-5" x="186.99" y="329.39" width="3.44" height="3.44"/><rect class="cls-5" x="193.86" y="308.75" width="3.44" height="3.44"/><rect class="cls-5" x="200.74" y="308.75" width="3.44" height="3.44"/><rect class="cls-5" x="193.86" y="315.63" width="3.44" height="3.44"/><rect class="cls-5" x="200.74" y="315.63" width="3.44" height="3.44"/><rect class="cls-5" x="193.86" y="322.51" width="3.44" height="3.44"/><rect class="cls-5" x="200.74" y="322.51" width="3.44" height="3.44"/><rect class="cls-5" x="193.86" y="329.39" width="3.44" height="3.44"/><rect class="cls-5" x="200.74" y="329.39" width="3.44" height="3.44"/><rect class="cls-5" x="207.62" y="308.75" width="3.44" height="3.44"/><rect class="cls-5" x="207.62" y="315.63" width="3.44" height="3.44"/><rect class="cls-5" x="207.62" y="322.51" width="3.44" height="3.44"/><rect class="cls-5" x="207.62" y="329.39" width="3.44" height="3.44"/><rect class="cls-5" x="214.5" y="308.75" width="3.44" height="3.44"/><rect class="cls-5" x="221.39" y="308.75" width="3.44" height="3.44"/><rect class="cls-5" x="214.5" y="315.63" width="3.44" height="3.44"/><rect class="cls-5" x="221.39" y="315.63" width="3.44" height="3.44"/><rect class="cls-5" x="214.5" y="322.51" width="3.44" height="3.44"/><rect class="cls-5" x="221.39" y="322.51" width="3.44" height="3.44"/><rect class="cls-5" x="214.5" y="329.39" width="3.44" height="3.44"/><rect class="cls-5" x="221.39" y="329.39" width="3.44" height="3.44"/><rect class="cls-5" x="228.27" y="315.63" width="3.44" height="3.44"/><rect class="cls-6" x="233.74" y="314.23" width="6.24" height="6.24"/><rect class="cls-5" x="228.27" y="322.51" width="3.44" height="3.44"/><rect class="cls-5" x="235.15" y="322.51" width="3.44" height="3.44"/><rect class="cls-5" x="228.27" y="329.39" width="3.44" height="3.44"/><rect class="cls-5" x="235.15" y="329.39" width="3.44" height="3.44"/><rect class="cls-5" x="242.02" y="322.51" width="3.44" height="3.44"/><rect class="cls-5" x="303.94" y="343.15" width="3.44" height="3.44"/><rect class="cls-5" x="310.83" y="343.15" width="3.44" height="3.44"/><rect class="cls-5" x="303.94" y="336.27" width="3.44" height="3.44"/><rect class="cls-5" x="310.83" y="336.27" width="3.44" height="3.44"/><rect class="cls-5" x="310.83" y="350.03" width="3.44" height="3.44"/><rect class="cls-5" x="310.83" y="356.91" width="3.44" height="3.44"/><rect class="cls-5" x="317.71" y="343.15" width="3.44" height="3.44"/><rect class="cls-5" x="317.71" y="336.27" width="3.44" height="3.44"/><rect class="cls-5" x="317.71" y="350.03" width="3.44" height="4.27"/><rect class="cls-5" x="317.71" y="356.91" width="3.44" height="3.44"/><rect class="cls-5" x="324.59" y="343.15" width="3.44" height="3.44"/><rect class="cls-6" x="323.18" y="348.63" width="6.24" height="6.24"/><rect class="cls-5" x="331.47" y="343.15" width="3.44" height="3.44"/><rect class="cls-5" x="324.59" y="336.27" width="3.44" height="3.44"/><rect class="cls-5" x="331.47" y="336.27" width="3.44" height="3.44"/><rect class="cls-6" x="295.67" y="307.35" width="6.24" height="6.24"/><rect class="cls-5" x="297.06" y="315.63" width="3.44" height="3.44"/><rect class="cls-5" x="303.94" y="308.75" width="3.44" height="3.44"/><rect class="cls-5" x="310.83" y="308.75" width="3.44" height="3.44"/><rect class="cls-5" x="303.94" y="315.63" width="3.44" height="3.44"/><rect class="cls-5" x="310.83" y="315.63" width="3.44" height="3.44"/><rect class="cls-5" x="303.94" y="322.51" width="3.44" height="3.44"/><rect class="cls-5" x="310.83" y="322.51" width="3.44" height="3.44"/><rect class="cls-5" x="303.94" y="329.39" width="3.44" height="3.44"/><rect class="cls-5" x="310.83" y="329.39" width="3.44" height="3.44"/><rect class="cls-5" x="317.71" y="308.75" width="3.44" height="3.44"/><rect class="cls-5" x="317.71" y="315.63" width="3.44" height="3.44"/><rect class="cls-5" x="317.71" y="322.51" width="3.44" height="3.44"/><rect class="cls-5" x="317.71" y="329.39" width="3.44" height="3.44"/><rect class="cls-5" x="324.59" y="308.75" width="3.44" height="3.44"/><rect class="cls-5" x="331.47" y="308.75" width="3.44" height="3.44"/><rect class="cls-5" x="324.59" y="315.63" width="3.44" height="3.44"/><rect class="cls-5" x="324.59" y="322.51" width="3.44" height="3.44"/><rect class="cls-5" x="331.47" y="322.51" width="3.44" height="3.44"/><rect class="cls-5" x="324.59" y="329.39" width="3.44" height="3.44"/><rect class="cls-5" x="331.47" y="329.39" width="3.44" height="3.44"/><rect class="cls-5" x="345.22" y="343.15" width="3.44" height="3.44"/><rect class="cls-5" x="345.22" y="336.27" width="3.44" height="3.44"/><rect class="cls-5" x="352.1" y="336.27" width="3.44" height="3.44"/><rect class="cls-5" x="338.34" y="308.75" width="3.44" height="3.44"/><rect class="cls-5" x="345.22" y="308.75" width="3.44" height="3.44"/><rect class="cls-5" x="338.34" y="315.63" width="3.44" height="3.44"/><rect class="cls-5" x="338.34" y="322.51" width="3.44" height="3.44"/><rect class="cls-5" x="338.34" y="329.39" width="3.44" height="3.44"/><rect class="cls-5" x="352.1" y="329.39" width="3.44" height="3.44"/><rect class="cls-5" x="414.03" y="308.75" width="3.44" height="3.44"/><rect class="cls-5" x="420.91" y="308.75" width="3.44" height="3.44"/><rect class="cls-5" x="420.91" y="315.63" width="3.44" height="3.44"/><rect class="cls-5" x="427.79" y="315.63" width="3.44" height="3.44"/><rect class="cls-5" x="427.79" y="322.51" width="3.44" height="3.44"/><rect class="cls-5" x="434.67" y="350.03" width="3.44" height="3.44"/><rect class="cls-5" x="441.54" y="343.15" width="3.44" height="3.44"/><rect class="cls-5" x="441.54" y="350.03" width="3.44" height="3.44"/><rect class="cls-5" x="434.67" y="356.91" width="3.44" height="3.44"/><rect class="cls-5" x="441.54" y="356.91" width="3.44" height="3.44"/><rect class="cls-5" x="434.67" y="363.79" width="3.44" height="3.44"/><rect class="cls-5" x="441.54" y="363.79" width="3.44" height="3.44"/><rect class="cls-5" x="448.43" y="343.15" width="3.44" height="3.44"/><rect class="cls-5" x="448.43" y="350.03" width="3.44" height="3.44"/><rect class="cls-5" x="455.31" y="343.15" width="3.44" height="3.44"/><rect class="cls-5" x="448.43" y="336.27" width="3.44" height="3.44"/><rect class="cls-5" x="455.31" y="336.27" width="3.44" height="3.44"/><rect class="cls-5" x="455.31" y="350.03" width="3.44" height="3.44"/><rect class="cls-5" x="448.43" y="356.91" width="3.44" height="3.44"/><rect class="cls-6" x="453.9" y="355.51" width="6.24" height="6.24"/><rect class="cls-5" x="462.19" y="343.15" width="3.44" height="3.44"/><rect class="cls-5" x="462.19" y="336.27" width="3.44" height="3.44"/><rect class="cls-5" x="462.19" y="350.03" width="3.44" height="3.44"/><rect class="cls-5" x="462.19" y="356.91" width="3.44" height="3.44"/><rect class="cls-5" x="462.19" y="363.79" width="3.44" height="3.44"/><rect class="cls-5" x="462.19" y="370.67" width="3.44" height="3.44"/><rect class="cls-5" x="469.07" y="343.15" width="3.44" height="3.44"/><rect class="cls-5" x="469.07" y="350.03" width="3.44" height="3.44"/><rect class="cls-5" x="475.95" y="343.15" width="3.44" height="3.44"/><rect class="cls-5" x="469.07" y="336.27" width="3.44" height="3.44"/><rect class="cls-5" x="475.95" y="336.27" width="3.44" height="3.44"/><rect class="cls-5" x="475.95" y="350.03" width="3.44" height="3.44"/><rect class="cls-5" x="469.07" y="356.91" width="3.44" height="3.44"/><rect class="cls-5" x="475.95" y="356.91" width="3.44" height="3.44"/><rect class="cls-5" x="469.07" y="363.79" width="3.44" height="3.44"/><rect class="cls-5" x="475.95" y="363.79" width="3.44" height="3.44"/><rect class="cls-5" x="469.07" y="370.67" width="3.44" height="3.44"/><rect class="cls-5" x="475.95" y="370.67" width="3.44" height="3.44"/><rect class="cls-5" x="482.83" y="343.15" width="3.44" height="3.44"/><rect class="cls-5" x="482.83" y="350.03" width="3.44" height="3.44"/><rect class="cls-5" x="482.83" y="356.91" width="3.44" height="3.44"/><rect class="cls-5" x="482.83" y="363.79" width="3.44" height="3.44"/><rect class="cls-5" x="510.35" y="370.67" width="3.44" height="3.44"/><rect class="cls-5" x="469.07" y="384.43" width="3.44" height="3.44"/><rect class="cls-5" x="469.07" y="377.55" width="3.44" height="3.44"/><rect class="cls-5" x="489.71" y="391.31" width="3.44" height="3.44"/><rect class="cls-5" x="496.59" y="384.43" width="3.44" height="3.44"/><rect class="cls-5" x="496.59" y="391.31" width="3.44" height="3.44"/><rect class="cls-5" x="503.47" y="384.43" width="3.44" height="3.44"/><rect class="cls-5" x="503.47" y="377.55" width="3.44" height="3.44"/><rect class="cls-5" x="510.35" y="377.55" width="3.44" height="3.44"/><rect class="cls-5" x="434.67" y="308.75" width="3.44" height="3.44"/><rect class="cls-5" x="441.54" y="308.75" width="3.44" height="3.44"/><rect class="cls-5" x="434.67" y="315.63" width="3.44" height="3.44"/><rect class="cls-5" x="441.54" y="315.63" width="3.44" height="3.44"/><rect class="cls-5" x="441.54" y="322.51" width="3.44" height="3.44"/><rect class="cls-5" x="448.43" y="315.63" width="3.44" height="3.44"/><rect class="cls-5" x="448.43" y="329.39" width="3.44" height="3.44"/><rect class="cls-5" x="462.19" y="315.63" width="3.44" height="3.44"/><rect class="cls-5" x="462.19" y="329.39" width="3.44" height="3.44"/><rect class="cls-5" x="469.07" y="315.63" width="3.44" height="3.44"/><rect class="cls-5" x="469.07" y="322.51" width="3.44" height="3.44"/><rect class="cls-5" x="475.95" y="322.51" width="3.44" height="3.44"/><rect class="cls-5" x="469.07" y="329.39" width="3.44" height="3.44"/><rect class="cls-5" x="482.83" y="322.51" width="3.44" height="3.44"/><rect class="cls-5" x="482.83" y="329.39" width="3.44" height="3.44"/><rect class="cls-5" x="434.67" y="171.14" width="3.44" height="3.44"/><rect class="cls-5" x="441.54" y="171.14" width="3.44" height="3.44"/><rect class="cls-5" x="434.67" y="178.02" width="3.44" height="3.44"/><rect class="cls-5" x="441.54" y="178.02" width="3.44" height="3.44"/><rect class="cls-5" x="448.43" y="171.14" width="3.44" height="3.44"/><rect class="cls-5" x="455.31" y="171.14" width="3.44" height="3.44"/><rect class="cls-5" x="448.43" y="178.02" width="3.44" height="3.44"/><rect class="cls-5" x="455.31" y="178.02" width="3.44" height="3.44"/><rect class="cls-5" x="462.19" y="164.26" width="3.44" height="3.44"/><rect class="cls-5" x="462.19" y="171.14" width="3.44" height="3.44"/><rect class="cls-5" x="462.19" y="178.02" width="3.44" height="3.44"/><rect class="cls-5" x="469.07" y="164.26" width="3.44" height="3.44"/><rect class="cls-5" x="469.07" y="171.14" width="3.44" height="3.44"/><rect class="cls-5" x="475.95" y="171.14" width="3.44" height="3.44"/><rect class="cls-5" x="469.07" y="178.02" width="3.44" height="3.44"/><rect class="cls-5" x="475.95" y="178.02" width="3.44" height="3.44"/><rect class="cls-5" x="482.83" y="171.14" width="3.44" height="3.44"/><rect class="cls-6" x="130.54" y="245.43" width="6.24" height="6.24"/></svg>