<svg id="Calque_1" data-name="Calque 1" xmlns="http://www.w3.org/2000/svg" viewBox="0 0 1401 400"><defs><style>.cls-1{fill:#13322b;}.cls-2{fill:#88b04b;}.cls-3{fill:#bfd833;}</style></defs><path class="cls-1" d="M882.87,105.13c.08.4-.22.53-.2,1a2.43,2.43,0,0,1-.25,1.11c-.12.24.2.33-.21.72s-.48.76-.77,1.09a5.37,5.37,0,0,1-.74.77,5.45,5.45,0,0,1-1,.76,8,8,0,0,1-1.1.59,8.4,8.4,0,0,1-1.2.6,6.85,6.85,0,0,1-1.43.12,11.13,11.13,0,0,1-2.45-.09,8.36,8.36,0,0,1-1.15-.49,13.4,13.4,0,0,1-2.11-1.75,4.88,4.88,0,0,1-1.58-3.44,6.25,6.25,0,0,1,.85-3.9c.24-.34.46-.62.68-1a5,5,0,0,1,1.35-1.32c.47-.36.77-.88,1.22-1.22a3.69,3.69,0,0,1,1.47-.35c.55-.11,1.1-.24,1.65-.37a3.45,3.45,0,0,1,1.2,0,7.37,7.37,0,0,1,3.22,1c.38.29.74.38,1,.8a10.32,10.32,0,0,0,.62,1.19,3.71,3.71,0,0,1,.82,2,5,5,0,0,1,.11,1.05A5.43,5.43,0,0,0,882.87,105.13Zm-1.5-1.71c0-.43,0-.87-.07-1.3,0-.25-.12-.51-.12-.77s-.22-.32-.39-.55a1.59,1.59,0,0,0-.58-.41,2.62,2.62,0,0,0-1-.74,8.66,8.66,0,0,0-2.05-.62,7,7,0,0,0-2.77.36,2,2,0,0,0-1,.53c-.35.38-.34.24-.54.21s-1,1-1,1c-.29.75-.94,1.26-1.15,2a5.36,5.36,0,0,0-.09,2.22c.15.66,0,1.15.33,1.81a9.26,9.26,0,0,0,1.49,1.83.37.37,0,0,0,.45-.41c-.12-1.71.52-3.62.72-5.27a6.42,6.42,0,0,1,.4-2.27,1.55,1.55,0,0,1,.58-.61c.32-.13.63.06,1-.07s1.67,0,1.74.21c.62.18,1.3,0,1.85.46a2.78,2.78,0,0,1,.65,1,2.71,2.71,0,0,1-.18,2.34c-.12.25-.26.2-.51.28l-1.87.61.51.72s1.78,2.42,2,2.54.25,0,.25,0,.4,0,.44-.25c.14-.85.89-1.56,1.07-2.43A10.45,10.45,0,0,0,881.37,103.42Zm-3.24,5.6-.47-.64c-.42-.57-.84-1.14-1.28-1.71a6.22,6.22,0,0,0-.78-.92c-.1-.09-1-.56-1-.58s0,.79,0,1c0,.37-.22.68-.25,1,0,.57.09,1-.2,1.51s-.63.75-.58,1.26a5.7,5.7,0,0,0,3-.1c.1,0,.14.15.24.15a5,5,0,0,0,1.16-.21Zm.25-6.72a3.46,3.46,0,0,0-1.38-.55,13.32,13.32,0,0,0-1.41,0l-.59,0v1.87a1.15,1.15,0,0,0,.48.4.82.82,0,0,0,.53.12c.21,0,.16-.07.42,0a1,1,0,0,0,.58,0c.21,0,.54,0,.66,0s.4,0,.47-.23a1.68,1.68,0,0,1,.28-.45l.06-.24a1.41,1.41,0,0,0,0-.31c0-.3.08,0,0-.3S878.89,102.65,878.38,102.3Z"/><rect class="cls-1" x="822" y="97" width="3" height="298"/><path class="cls-2" d="M1002.49,283c0,3.59-4.8,6.24-7.29,8a26.89,26.89,0,0,1-4.81,2.62c-2,1-26.43,10.65-34.28,2.8-2.35-2.35-5.5-8-6.37-10.37a26.32,26.32,0,0,1-1.16-9.59q.87-18.45,15.83-31.68a22.75,22.75,0,0,1,5.16-3.56,20,20,0,0,1,6.32-.66q8.43,0,12.87,3.71a9.83,9.83,0,0,1,3.41,9.81,10.32,10.32,0,0,1-1.38,3.78,4.74,4.74,0,0,1-2.83,1,9.54,9.54,0,0,1-5.74-1.24c-1.8-1-2.5-2.11-2.11-3.27a2.88,2.88,0,0,0-.66-3,3.73,3.73,0,0,0-3-1.52q-3.19,0-9.81,6.83t-6.61,10.17a8.63,8.63,0,0,1-1.45,3.78q-1.46,2.17-1.31,7.41c.06,2.34.23,5.38,1.61,7.4,3.42,5,12.67,6.24,18.07,5.27a27.83,27.83,0,0,0,5.28-1.56,40.27,40.27,0,0,0,9.51-5.39c1.15-.88,3.36-2.46,4.61-1.85.23-.18.5-.36.72-.53C1000,279.15,1002.45,279.13,1002.49,283Z"/><path class="cls-2" d="M1066.18,280.06c0,3.58-4.81,6.23-7.3,7.95-.16.12-.34.21-.51.32-.5.37-1,.7-1.44,1a19.54,19.54,0,0,1-6,3.19,34.35,34.35,0,0,1-6.54,1.17q-10,1-14.89-4.65t-6.9-20.78c-.39-3.2-.82-4.8-1.31-4.8s-2.71,1.84-7,5.53a46.42,46.42,0,0,0-5.16,5.3c-1.75,1.75-2.47,5.17-3.41,7.41-.46,1.09-.92,2.17-1.37,3.25s-1,2.39-1.51,3.59c-1.19,2.83.4,6.92-3.67,7.54-2.23.34-4.16-.65-5.81-3a7.46,7.46,0,0,1-1.67-3.27,11.23,11.23,0,0,1,1.09-4,9.87,9.87,0,0,0,.51-1.23c1.66-5,2.75-8.64,5.42-13.39,3.19-5.69,2.52-12.08,4-18.13a179.9,179.9,0,0,1,6.6-19.91c3.88-10.25,5.09-33.57,19-37.07,11.7-2.93,9.52,13.11,7.93,19.25a51.14,51.14,0,0,1-3.42,8.5c-1.6,3.24-2.69,5.5-3.27,6.75a37.27,37.27,0,0,1-3.78,7.71c-2.59,3.57-4.52,7.77-7.22,11.2q-2.16,2.76-4.52,5.35c-1,1.11-3.1,2.59-3.51,4.08-.13.47.21,1.07.69,1a1.1,1.1,0,0,0,.44-.23c2.54-1.84,4.2-4.7,7.37-5.06.43,0,.94-.12,1.52-.22a13,13,0,0,1,6.83.8,9.79,9.79,0,0,1,4.36,4.58,18.54,18.54,0,0,1,1.6,7.85,41.73,41.73,0,0,0,1.23,9.23,32.62,32.62,0,0,0,2.69,7.92,3.47,3.47,0,0,0,2,1.89,14.35,14.35,0,0,0,4.43-.15,32.19,32.19,0,0,0,6.51-1.42,70.51,70.51,0,0,0,10.62-6.72C1063.66,276.19,1066.14,276.16,1066.18,280.06Zm-45.29-57.75a50,50,0,0,0-3.45,9.4c-1.1,4.24-2.78,7.91-4.3,12-.41,1.09-.12,3,1.28,1.64,3.55-3.53,4.29-7.66,6.51-11.82a58.88,58.88,0,0,0,4.8-13.07c.45-1.78,3.45-6.64,1.73-8.17-.44-.38-1-.19-1.67.59a14.12,14.12,0,0,0-2,3.67c-.31.69-.64,1.36-1,2C1022.16,219.81,1021.5,221,1020.89,222.31Z"/><path class="cls-2" d="M1128.42,282.81c0,3-4,5.15-6,6.57a21.07,21.07,0,0,1-4,2.16c-.42.2-1.26.67-2.31,1.25l-.57.55a13,13,0,0,1-7.56,3.12,17.6,17.6,0,0,1-4.86.05,18.67,18.67,0,0,1-4.74-1.74,26.93,26.93,0,0,1-6-3.48,2.17,2.17,0,0,0-1.67-.71,7.43,7.43,0,0,0-2.53,1.56,26.86,26.86,0,0,1-14.27,4.86q-8.29.54-10.81-3.3-1.56-2.4-1.44-9.48t1.8-10.08q1.44-2.64,2.28-3.9t1.62-2.4q.78-1.14,2.7-3.42,6.12-7.68,9.66-10.44c5.16-4,15.16-7.86,21.49-4.6,8.13,4.19,4.88,17.49,1.5,24.27a35.9,35.9,0,0,0-2.53,8.11q-.84,4.38,0,5.82c1.29,2.48,5.36,2.64,12.25.48a3.48,3.48,0,0,1,.85-.11c.29-.12.58-.24.83-.37a61.59,61.59,0,0,0,9.86-6.13C1126.34,279.63,1128.39,279.61,1128.42,282.81Zm-32.91-20.73c.07-.28-.08-.62-.49-1a6.26,6.26,0,0,0-3.36-1.63,8.83,8.83,0,0,0-4.19.18c-1.37.33-3.43,1.62-6.19,3.91a27,27,0,0,0-5.7,5.94q-1.92,2.88-3.23,5a15.56,15.56,0,0,0-2.29,6.9q-.6,4.5.48,5.82t4.32,1.2a17.63,17.63,0,0,0,6.24-1.08,8.41,8.41,0,0,0,4.21-4.08q2.51-4.92,3.84-7.44,2.5-4.44,2.51-6a3.17,3.17,0,0,1,.85-2,2.3,2.3,0,0,0,.47-2.22c-.32-1,.13-1.88,1.32-2.52C1095,262.7,1095.43,262.36,1095.51,262.08Z"/><path class="cls-2" d="M1132.26,254.51c.35-.43.71-.83,1.08-1.22,1.4-1.49,5-3,7-1.76,1.09.7.61,3.66,1.59,3.82.45.07,1.54-.51,3.25-1.76q4.5-3.19,14.24-5.23a15.9,15.9,0,0,1,5.09-.8,6.83,6.83,0,0,1,2.9,1.82,7.4,7.4,0,0,1,2.4,5.45,9.19,9.19,0,0,1-2.11,6q-1.74,2.47-4.36,9.74t-2.62,10a8.8,8.8,0,0,0,1.31,4.21,13.19,13.19,0,0,0,3.2,3.85,5.71,5.71,0,0,0,3.49,1.52q2.31,0,9.88-3.92a74,74,0,0,0,11.91-7.41c2.13-1.65,3.66-2.42,4.59-2.33s1.38,1.07,1.38,2.91a5.13,5.13,0,0,1-1,2.69,17.71,17.71,0,0,1-2.76,3.12,37,37,0,0,1-4.07,3.2,26.2,26.2,0,0,1-4.8,2.62c-4.36,2-7.45,3.49-9.3,4.36q-4.93,2.32-8.71,1.3t-8.87-6.1c-2.72-2.71-4.31-4.58-4.8-5.59s-.72-3-.72-5.88a41.47,41.47,0,0,1,2.18-12.94q2-6.83,1.59-7.41-.59-.57-7.91,6.32t-14.39,14.61q-7.05,7.71-7.05,8.86a3.18,3.18,0,0,1-1.23,2.18,9.73,9.73,0,0,1-3,1.89,5.56,5.56,0,0,1-3.2.44q-2.18-.3-3-3.49a6.25,6.25,0,0,1-.22-3.85,28.8,28.8,0,0,1,3.27-5.89C1123.1,272.45,1126.58,261.37,1132.26,254.51Z"/><path class="cls-2" d="M1244.45,282.32c0,3.57-4.8,6.23-7.29,7.95a26.61,26.61,0,0,1-4.81,2.62c-1.4.65-6.45,3.76-10.58,5.08a53.19,53.19,0,0,1-5.49,3.35q-5.1,2.91-6.83,6.68c-.3.68-.73,1.52-1.31,2.54s-1.22,2-1.89,3.06-1.44,2.1-2.26,3.27-1.57,2.25-2.25,3.27-1.36,2-2,2.9-1.21,1.63-1.6,2.11q-.73,1.17-4.36,3.49a80.45,80.45,0,0,1-7.41,4.22c-4.19,2.08-8.32,2.56-10-2.74a14.28,14.28,0,0,1-.85-4.27c0-3.37,3.78-6.09,6-8.26a38.66,38.66,0,0,1,10-6.93c1.82-1,3.55-2.1,5.26-3.24a50.81,50.81,0,0,1,5.25-3.35q2.19-1.15,5.38-6c2.13-3.24,3-5.15,2.47-5.73-.39-.29-2.09.05-5.08,1q-12.08,4.08-15.41-8.71c-.67-2.33-.46-5.45.66-9.38a35.53,35.53,0,0,1,4.86-10.53c5.55-8.09,16.29-18.68,27.15-16.75,7.25,1.29,8,7.51,6.5,13.55a78.5,78.5,0,0,1-2.62,8.65,19.34,19.34,0,0,1-2.54,5.3,4.69,4.69,0,0,0-1.31,2.62q0,.87-2.61,6-2.48,5.37-2.48,7.55a5,5,0,0,0,.15,1.34c.55-1.16,7.31-3.45,10-4.83a75.14,75.14,0,0,0,11.93-7.42C1241.92,278.46,1244.41,278.43,1244.45,282.32Zm-43,26.85q-1.89,0-7,4.22a75,75,0,0,0-9.23,8.86c-2.72,3.11-3.78,4.94-3.2,5.52q2,2,8.5-3.27a43.92,43.92,0,0,0,10.4-12.13C1202.13,310.24,1202.33,309.17,1201.45,309.17ZM1215,270.22a7.78,7.78,0,0,1,1.45-4.36,11.13,11.13,0,0,0,1.74-5.24c.29-1.93,0-3-.72-3.19s-2.59.36-5.16,2a18,18,0,0,0-5.16,4.29c-1.07,1.65-6.3,4.75-8.43,9.3s-3,7.85-2.46,9.89c.58,2.42,1.59,3.77,3,4.06s3.53-.43,6.24-2.18a12.79,12.79,0,0,0,3.85-4.36C1210.68,278.26,1215,271.58,1215,270.22Z"/><path class="cls-2" d="M1278.07,283.11a19.37,19.37,0,0,1-3.56,3.56,56.88,56.88,0,0,1-10.9,7.12c-9.42,4.82-20.64.38-27-7.33-3.61-4.37-3.78-9.28-2.68-14.6.64-3.09,1.72-13.77,3.4-15.84,3-3.68,17-1,13.78,5.8-1.46,3.1-2.18,5.28-2.18,6.54s-.68,2.62-2,4.36a9.61,9.61,0,0,0-2,4.8c-.24,1.84.07,3.05,1,3.63.67.29,1,1.12,1,2.47,0,1.16.88,2.52,2.62,4.07a6.86,6.86,0,0,0,2.76,1.81,9.56,9.56,0,0,0,3.78-.5,45.32,45.32,0,0,0,10.32-6q4.94-3.63,7.55-4.14a3.6,3.6,0,0,1,4.07,2A2,2,0,0,1,1278.07,283.11ZM1255.18,232c-1.26-1.25-1.92-2.08-2-2.46s.41-1,1.38-1.75a8.74,8.74,0,0,1,5.23-1.45c2.13,0,3.58.48,4.36,1.45a2.87,2.87,0,0,1,.14,3.56,5.48,5.48,0,0,1-3.78,2.54C1258.72,234.41,1256.92,233.78,1255.18,232Z"/><path class="cls-2" d="M1279.66,254.51c.36-.43.71-.83,1.08-1.22,1.41-1.49,5-3,7-1.76,1.08.7.6,3.66,1.59,3.82.45.07,1.53-.51,3.24-1.76q4.5-3.19,14.24-5.23c2.62-.67,4.31-.94,5.09-.8a6.9,6.9,0,0,1,2.91,1.82,7.36,7.36,0,0,1,2.39,5.45,9.13,9.13,0,0,1-2.11,6q-1.74,2.47-4.35,9.74t-2.62,10a8.7,8.7,0,0,0,1.31,4.21,13.16,13.16,0,0,0,3.19,3.85,5.71,5.71,0,0,0,3.49,1.52q2.33,0,9.88-3.92a74.12,74.12,0,0,0,11.92-7.41c2.13-1.65,3.66-2.42,4.58-2.33s1.38,1.07,1.38,2.91a5.1,5.1,0,0,1-1,2.69,17.4,17.4,0,0,1-2.77,3.12,37.84,37.84,0,0,1-4.06,3.2,26.87,26.87,0,0,1-4.8,2.62q-6.54,3-9.3,4.36-4.95,2.32-8.72,1.3t-8.86-6.1c-2.72-2.71-4.32-4.58-4.8-5.59s-.73-3-.73-5.88a41.76,41.76,0,0,1,2.18-12.94q2-6.83,1.6-7.41t-7.92,6.32q-7.34,6.9-14.38,14.61c-4.71,5.14-7,8.09-7,8.86a3.18,3.18,0,0,1-1.23,2.18,9.73,9.73,0,0,1-3,1.89,5.57,5.57,0,0,1-3.2.44c-1.46-.2-2.47-1.36-3-3.49a6.33,6.33,0,0,1-.23-3.85,29.32,29.32,0,0,1,3.27-5.89C1270.5,272.45,1274,261.37,1279.66,254.51Z"/><path class="cls-2" d="M1391.86,282.32c0,3.57-4.81,6.23-7.3,7.95a26,26,0,0,1-4.81,2.62c-1.39.65-6.45,3.76-10.57,5.08a53.48,53.48,0,0,1-5.5,3.35q-5.09,2.91-6.83,6.68a26.39,26.39,0,0,1-1.31,2.54q-.87,1.53-1.89,3.06t-2.25,3.27c-.82,1.16-1.58,2.25-2.25,3.27s-1.36,2-2,2.9-1.21,1.63-1.6,2.11q-.72,1.17-4.35,3.49a82,82,0,0,1-7.42,4.22c-4.19,2.08-8.32,2.56-10-2.74a14.29,14.29,0,0,1-.86-4.27c0-3.37,3.78-6.09,6-8.26a38.66,38.66,0,0,1,10-6.93c1.82-1,3.54-2.1,5.26-3.24a50.81,50.81,0,0,1,5.25-3.35q2.18-1.15,5.38-6t2.46-5.73c-.38-.29-2.08.05-5.08,1q-12.06,4.08-15.4-8.71-1-3.5.65-9.38a35.55,35.55,0,0,1,4.87-10.53c5.55-8.09,16.28-18.68,27.14-16.75,7.26,1.29,8,7.51,6.5,13.55a78.5,78.5,0,0,1-2.62,8.65,19.34,19.34,0,0,1-2.54,5.3,4.66,4.66,0,0,0-1.3,2.62c0,.58-.88,2.57-2.62,6q-2.48,5.37-2.47,7.55a4.58,4.58,0,0,0,.15,1.34c.55-1.16,7.3-3.45,10-4.83a74.68,74.68,0,0,0,11.93-7.42C1389.33,278.46,1391.82,278.43,1391.86,282.32Zm-43,26.85q-1.89,0-7,4.22a76.45,76.45,0,0,0-9.23,8.86c-2.71,3.11-3.78,4.94-3.19,5.52q2,2,8.5-3.27a43.88,43.88,0,0,0,10.39-12.13Q1350.17,309.18,1348.86,309.17Zm13.51-38.95a7.85,7.85,0,0,1,1.45-4.36,11.13,11.13,0,0,0,1.75-5.24c.29-1.93,0-3-.73-3.19s-2.59.36-5.16,2a18.05,18.05,0,0,0-5.15,4.29c-1.07,1.65-6.31,4.75-8.44,9.3s-2.95,7.85-2.46,9.89q.87,3.63,3,4.06c1.45.29,3.53-.43,6.25-2.18a12.9,12.9,0,0,0,3.85-4.36C1358.09,278.26,1362.37,271.58,1362.37,270.22Z"/><path class="cls-1" d="M910.84,96.39a17.77,17.77,0,0,1,11.58,1.24q6.18,2.63,7.27,6.8a13.57,13.57,0,0,0,1.31,3.86,29.52,29.52,0,0,1,1.62,3.85,4.94,4.94,0,0,0,.77,2.17c.41.62.78.93,1.08.93q1.39,0,6,4.94a34,34,0,0,0,3.24,2.94,13.39,13.39,0,0,0,2.94,1.62,8.93,8.93,0,0,0,3.78.61l5.64-.22a43.91,43.91,0,0,0,8.66-1.78c3.81-1.09,6.17-2,7.11-2.71s3.65-2.26,8.49-4.94c5-2.57,8-3.46,8.81-2.63s.59,2-.38,3.86a10,10,0,0,1-3.94,4.18q-.32.15-4.18,2.7c-6.81,4.49-14.82,9.2-23.17,9.2-1.45.1-2.5.15-3.17.15a4.59,4.59,0,0,0-2.24.7,5.57,5.57,0,0,0-1.7,1.31,13.61,13.61,0,0,0-1.31,2.86,29.63,29.63,0,0,0-1.31,4.32c-.32,1.39-.83,3.58-1.55,6.57q-2.47,10.5-3.7,12.21c-.93,1.75-.88,2.67.15,2.78,1.7,0,2.81-1.58,4.37-2.09a10.87,10.87,0,0,1,4.85-.08,12.62,12.62,0,0,1,7.77,4.57,2.43,2.43,0,0,1,.65,1.47c0,.93-1,1.55-1.77,2a12.28,12.28,0,0,1-4,1.6c-3.82.55-2.89-2.78-5.21-3.46-.31-.09-.87.22-1.69.93a23,23,0,0,1-5.86,3.09c-9.09,3.76-12,16.47-16.22,24.39-3.94,7.41-11.86,6-19.17,6.13a40.38,40.38,0,0,1-9.58-.69,16.1,16.1,0,0,1-3.94-1.63,33.22,33.22,0,0,1-3.94-2.55,24.6,24.6,0,0,1-3.48-3.16,34.57,34.57,0,0,1-2.86-3.56,17,17,0,0,1-1.93-3.55,8.91,8.91,0,0,1-.7-3.17,5.78,5.78,0,0,0-.92-3.24c-.73-.62-1.5-2.57-2.32-5.87a24.87,24.87,0,0,0-3.55-7.42c-1.34-1.85-2-3.22-1.86-4.09s1-1.53,2.78-1.94q4-1.08,8,3.87,2,2.31,6.64,2.93t18.86.47l19.62-.16,2.47-2.93q2.47-2.62,2.47-4.33a8.64,8.64,0,0,1,.93-3.55q1.23-2.32,2.78-10t1.08-9.12c-.52-1.23-.15-2.93,1.08-5.09,1.13-2.37,1.7-3.61,1.7-3.71s-1.44-1.28-4.33-3.25a24.24,24.24,0,0,1-6.33-6.18c-1.24-2-2.16-3.09-2.78-3.09s-2.94,1.65-6.65,4.95q-9.58,8-13.75,3.09a16.27,16.27,0,0,0-5.25-3.71,11.42,11.42,0,0,1-5.41-4.79,4.24,4.24,0,0,1-.77-3.09,23.07,23.07,0,0,1,2.78-5.1,39.46,39.46,0,0,1,6.8-8Q908,97.16,910.84,96.39Zm11,84.83q3.54-7.26,2.78-7.73c-.42-.2-1.65.21-3.71,1.24a8.88,8.88,0,0,1-6,.93,62.33,62.33,0,0,0-9.05-.7q-7-.22-13.21-.23t-6.18.46q0,.93,3.33,8.81a80.46,80.46,0,0,0,3.93,8.66q1.55,1.54,10.36.54T915.63,190Q918.26,188.34,921.81,181.22Zm-2.32-74.79a5.61,5.61,0,0,0-5.79-1.7,9.49,9.49,0,0,0-6,4.17c-1.54,2.27-2,3.86-1.23,4.79s2.32.78,4.79-.46a50.9,50.9,0,0,1,5.87-2.93c2.06-.82,3.19-1.42,3.4-1.78S920.42,107.46,919.49,106.43Z"/><path class="cls-1" d="M1010.65,183c0,3.58-4.8,6.24-7.29,8a26.56,26.56,0,0,1-4.81,2.62c-.51.23-2.89,1.18-2.9,1.18a40.2,40.2,0,0,1-12.82,2.81c-3.38.19-7.25.33-10.35-1.23-2.19-1.1-5-2-7-3.4-2.15-1.46-3.29-4-4.33-6.38-2.09-4.85-3.81-10.16-3.81-15.58a53.52,53.52,0,0,1,1.46-10.83c.73-3.1,1.58-7.74,3.38-10.31a32.84,32.84,0,0,1,3.25-4.17,16.76,16.76,0,0,1,13.42-4.85c3.5.29,8.55,1.39,9.18,5.55,1.65,11-6.28,18.93-11.07,27.88q-4.35,8.15-4.36,9.74,0,1.3,2.47,3.63a6.89,6.89,0,0,0,2.84,1.74,12.49,12.49,0,0,0,4.43-.29,79.37,79.37,0,0,0,11-2.47c2.73-.87,10.48-4.1,11.9-5.24C1008.13,179.18,1010.62,179.15,1010.65,183ZM972.08,166.8q4-7.63,4-9.23a2.33,2.33,0,0,0-2-2.4,2.86,2.86,0,0,0-3.19,1,12.5,12.5,0,0,0-2,3.48,31.88,31.88,0,0,0-1.52,4.8c-.39,1.65-.71,3.22-1,4.72a13.17,13.17,0,0,0-.15,3.78c.15,1,.46,1.52,1,1.52S969.41,171.88,972.08,166.8Z"/><path class="cls-1" d="M1054.79,183c0,3.58-4.81,6.24-7.3,8a26.56,26.56,0,0,1-4.81,2.62c-.5.23-2.89,1.18-2.89,1.18A40.26,40.26,0,0,1,1027,197.6c-3.37.19-7.24.33-10.35-1.23-2.19-1.1-5-2-7-3.4-2.16-1.46-3.3-4-4.33-6.38-2.1-4.85-3.81-10.16-3.81-15.58a54.12,54.12,0,0,1,1.45-10.83c.73-3.1,1.59-7.74,3.38-10.31a32.92,32.92,0,0,1,3.26-4.17,16.76,16.76,0,0,1,13.42-4.85c3.49.29,8.55,1.39,9.17,5.55,1.66,11-6.27,18.93-11.06,27.88q-4.37,8.15-4.36,9.74,0,1.3,2.47,3.63a6.77,6.77,0,0,0,2.84,1.74,12.49,12.49,0,0,0,4.43-.29,79.69,79.69,0,0,0,11-2.47c2.73-.87,10.47-4.1,11.89-5.24C1052.26,179.18,1054.76,179.15,1054.79,183Zm-38.57-16.23q4-7.63,4-9.23a2.33,2.33,0,0,0-2-2.4,2.88,2.88,0,0,0-3.2,1,12.51,12.51,0,0,0-2,3.48,33.1,33.1,0,0,0-1.53,4.8c-.39,1.65-.7,3.22-1,4.72a12.77,12.77,0,0,0-.14,3.78c.14,1,.45,1.52.94,1.52S1013.54,171.88,1016.22,166.8Z"/><path class="cls-1" d="M1129,183c0,3.58-4.81,6.23-7.3,7.95a25.38,25.38,0,0,1-4.81,2.62c-1,.45-1.84,1.12-2.82,1.52a48,48,0,0,1-4.85,1.53q-8.28,1-11.33.36c-2-.44-4.32-1.81-6.83-4.14a18.28,18.28,0,0,1-3.35-4.29,18.58,18.58,0,0,1-1.6-5.3q-1.16-5.37-2.32-5.52c-.58,0-1.26.68-2,2a47.18,47.18,0,0,1-5.6,7.2,39.18,39.18,0,0,1-6.61,6.17,19.4,19.4,0,0,1-8.72,2.91,20.74,20.74,0,0,1-4.65.07,3.53,3.53,0,0,1-2.18-1.81q-3-4.8-2.11-14.32a35.64,35.64,0,0,1,5.31-16.2,44.22,44.22,0,0,1,6.9-7.92,48.83,48.83,0,0,1,9.37-6.91c2.14-1.25,5.77-1.89,10.9-1.89,8.51-.15,8.11-5.95,12.29-12.56q8.1-12.81,16.19-25.62c2.78-4.44,11.1-20.8,14-9.73,3.24,12.52-13.74,30.4-19.35,40.22-2,3.54-2.94,7.58-4.62,11.25-4.21,9.23-8.14,20.91-6.85,31.19.39,3.1,1.18,5.33,2.4,6.68a6.72,6.72,0,0,0,5.3,2,23.57,23.57,0,0,0,6.29-1.08,15.31,15.31,0,0,0,1.69-.66,75.14,75.14,0,0,0,11.93-7.42C1126.49,179.12,1129,179.09,1129,183Zm-42.89-26.05c-.29-1.35-1.52-2-3.7-2a11.2,11.2,0,0,0-6.32,2.25,42.38,42.38,0,0,0-8.21,7.49,34.08,34.08,0,0,0-5.74,8.06,19.36,19.36,0,0,0-1.45,8c0,4,.77,5.86,2.33,5.67q2.74-.3,9.58-9Q1086.59,159.84,1086.13,156.92Z"/><path class="cls-1" d="M934.23,283.41c0,3-4,5.15-6,6.57a21.07,21.07,0,0,1-4,2.16c-.42.2-1.26.68-2.31,1.25l-.57.55a12.89,12.89,0,0,1-7.56,3.12,18.08,18.08,0,0,1-4.86.06,19.49,19.49,0,0,1-4.74-1.74,27.75,27.75,0,0,1-6-3.48,2.15,2.15,0,0,0-1.67-.72,7.43,7.43,0,0,0-2.53,1.56,26.86,26.86,0,0,1-14.27,4.86q-8.29.54-10.81-3.3-1.56-2.4-1.44-9.48t1.8-10.08q1.44-2.64,2.28-3.9c.56-.84,1.1-1.63,1.62-2.4s1.42-1.9,2.7-3.42q6.12-7.68,9.66-10.44c5.16-4,15.16-7.86,21.49-4.6,8.13,4.19,4.88,17.5,1.5,24.28a35.66,35.66,0,0,0-2.53,8.1q-.84,4.38,0,5.82c1.29,2.48,5.36,2.64,12.25.48a3.48,3.48,0,0,1,.85-.11c.29-.12.59-.24.83-.37a62.36,62.36,0,0,0,9.86-6.12C932.15,280.23,934.2,280.21,934.23,283.41Zm-32.91-20.73c.07-.28-.08-.62-.49-1a6.25,6.25,0,0,0-3.36-1.62,8.71,8.71,0,0,0-4.19.18q-2.06.48-6.19,3.9a27.17,27.17,0,0,0-5.7,5.94q-1.92,2.88-3.23,5a15.56,15.56,0,0,0-2.29,6.9q-.6,4.5.48,5.83c.64.79,2.08,1.19,4.32,1.19a17.63,17.63,0,0,0,6.24-1.08,8.41,8.41,0,0,0,4.21-4.08q2.5-4.92,3.84-7.44,2.5-4.44,2.51-6a3.17,3.17,0,0,1,.85-2,2.3,2.3,0,0,0,.47-2.22c-.32-1,.13-1.88,1.32-2.52C900.83,263.3,901.24,263,901.32,262.68Z"/><path class="cls-3" d="M962.4,375c0,3.34-4.66,7.18-7.52,8.19-3.52,1.26-7.44-2.67-7.44-2.67-.25,0-8.2-6.85-11.5-5.27-3.08,1.48-5.75,7.14-8,9.81a29.33,29.33,0,0,1-3,3.2,13.86,13.86,0,0,1-3,2,15.58,15.58,0,0,1-7.56,1.46,19.84,19.84,0,0,1-8-1.89c-2.72-1.36-4.71-2-6-2a3.35,3.35,0,0,0-2.91,2,3,3,0,0,1-1.89,1.74,18.65,18.65,0,0,1-5.08-.14,29.33,29.33,0,0,1-5.23-.88c-19.22-5.45-16.17-23.16-6.54-36.11q1.88-2.55,3.77-2.83c.39-.1.81-.2,1.24-.29s1-.2,1.82-.3c.48,0,1.16.78,2,2.33.68,1.75.44,4.21-.72,7.41a34.2,34.2,0,0,0-2,12.65,39.63,39.63,0,0,0,.29,6.46,2,2,0,0,0,1.75,1.53q1.88.15,5.3-3.2t3.41-5.38c0-1,.87-2,2.62-3.19a24.62,24.62,0,0,0,6.1-7.13c2.33-3.67,4.36-5.71,6.1-6.09,3.21-.88,5.19-.27,6,1.81s0,4.77-2.17,8.07a31.35,31.35,0,0,0-4.08,8.28q-1.59,4.79-.72,6c.3.68,1.41,1,3.35,1s4.55-1.91,8.13-5.73,5.77-7.15,6.54-10a26,26,0,0,1,3.06-7.56,8.28,8.28,0,0,1,2.39-2.69,6.27,6.27,0,0,1,3.2-.65c6.27,0,3.22,9.7,7.57,13.68a17.27,17.27,0,0,0,2.68,1.89c2.73,1.68,5.53,3.4,8.68,4l.09,0a15.48,15.48,0,0,0,1.79-1.11C959.87,371.16,962.36,371.13,962.4,375Z"/><path class="cls-3" d="M1009.62,376.33c0,2-1.16,3.93-3.49,5.64a22.65,22.65,0,0,1-2.92,1.79c-.25.13-.48.27-.7.4a5,5,0,0,1-2.34.88,8.63,8.63,0,0,1-5.72-2.37,8.31,8.31,0,0,1-1.44-2l-.29-.5c-1.16-2-2.1-2.39-3.59-1.61s-2.43,2.9-3.3,4.78a20.4,20.4,0,0,1-1.48,2.82c-1.26,1.82-2.33,2.84-3.26,3.12a49.8,49.8,0,0,0-4.77,2.76,15.07,15.07,0,0,1-7.09,2.4,38.26,38.26,0,0,0-5.65.84,6.72,6.72,0,0,1-1.07.09,4.48,4.48,0,0,1-1.82-.36,14.75,14.75,0,0,1-3.44-2.66,16,16,0,0,1-3.27-4,25.08,25.08,0,0,1-1.76-6.06c-1-4.69-1.24-8.5-.74-11.32a29.33,29.33,0,0,1,4.34-10c3-4.75,5.82-8.25,8.49-10.39a24.75,24.75,0,0,1,9.92-4.62,12.85,12.85,0,0,0,5-2.12c2.33-1.47,4.37-2,6.08-1.68s3.64,1.68,5.93,4.06a33.91,33.91,0,0,1,2.5,3.13,8.19,8.19,0,0,1,1.1,2.28,11.07,11.07,0,0,1,.33,3.13,124,124,0,0,0,.53,13.56c.45,4.06,2.06,5.5,4.94,7.95l.22-.14c.87-.59,1.77-1.2,2.62-1.85,1.87-1.45,3.53-1.94,4.67-1.39C1009.09,373.4,1009.61,374.55,1009.62,376.33Zm-27-8.38a12.33,12.33,0,0,0-2.47-3c-2.15-2.16-3.2-3.87-3.2-5.24a7.4,7.4,0,0,0-.93-3.21,7.25,7.25,0,0,0-1.8-2.52,2,2,0,0,0-1.15-.42,1.47,1.47,0,0,0-.67.16c-.47.24-1.55,1.06-4,3.64a30.39,30.39,0,0,0-4.94,6.75A39.08,39.08,0,0,0,960,371.8c-.7,2.32-.83,4-.39,5.05a12.11,12.11,0,0,1,.9,4.94,13.8,13.8,0,0,0,.75,3.92,2.71,2.71,0,0,0,1.45,1.52,10,10,0,0,0,3.55.45c.79,0,1.45,0,2-.06a9.54,9.54,0,0,0,1.45-.23,5.55,5.55,0,0,0,1.3-.5c.43-.24.89-.52,1.36-.84a16.69,16.69,0,0,0,1.67-1.3c2.45-2,3.88-3.55,4.25-4.68a10.27,10.27,0,0,1,2.3-4,8.58,8.58,0,0,0,2.08-5h0A6,6,0,0,0,982.58,368Zm2.13-16.08a1.18,1.18,0,0,0-.39.44c-.21.35-.46,1.27,0,4a8.62,8.62,0,0,0,.82,2.84,10.54,10.54,0,0,0,.28-3.18C985.47,353,985,352,984.71,351.87Z"/><path class="cls-3" d="M1066.56,381c0,3.61-4.61,6.28-7,8a24.86,24.86,0,0,1-4.61,2.64,5.81,5.81,0,0,0-.53.28,1.73,1.73,0,0,1-.82.81,8.34,8.34,0,0,1-1.62.58c-4.8,2.74-16.68,2.27-18.57,1.14s-4.24-7.25-4.66-9.11a21.56,21.56,0,0,1-.41-6.06q.21-3.3,1.05-10.47v-1.39a.8.8,0,0,0-.35-.72,2.22,2.22,0,0,0-.91-.3,14.34,14.34,0,0,0-1.52-.07c-2.75,0-5.08-1.45-7.7-1.47,0,0-.2.64-.54,1.54-5.8,16.56-12.16,20.74-12.16,20.74-5.18,2.9-3.55-5.64-3.55-5.64,1.32-1,2.52-3.77,3.43-6.45.43-1.8,1-3.78,1.66-5.74v-.05h0c1.48-4.48,3.21-8.78,3.72-10.08,2.32-5.9,5-11.59,5-18.14,0-1.09.65-3,2-5.65s2.31-4.31,3.05-4.9a7.12,7.12,0,0,1,4.11-.66c1.72.15,2.85.57,3.41,1.25q1.11,1.47,0,11.41a63.09,63.09,0,0,0-.76,8.41,5,5,0,0,0,1,3.14,2.73,2.73,0,0,0,1.94,1,10.37,10.37,0,0,0,3.21-1.54c2.31-1.37,4-2,5-2s2,.81,2.92,2.27a5.19,5.19,0,0,1,.9,2.86,21.77,21.77,0,0,1-1.46,4.9,113.21,113.21,0,0,0-3.33,12,23.16,23.16,0,0,0-.7,7.82,14.67,14.67,0,0,0,3.06,6.08c.74,1.07,1.32,1.68,1.74,1.82.72.26,2.83-.92,3.56-1.12a17.37,17.37,0,0,0,3.86-1.3,70.89,70.89,0,0,0,11.42-7.47C1064.13,377.09,1066.52,377.06,1066.56,381Z"/><path class="cls-3" d="M1074.32,366.16q-2.33,3.4-2.18,4.28c0,1.06.92,3.44,2.76,7.12q3.35,6.4,7.77,6.4c2,0,4.08-.92,5.94-1.46a15.4,15.4,0,0,0,3.52-1.8,62.88,62.88,0,0,0,5.84-4c2.87-2.21,5.36-2.24,5.4,1.64,0,3.58-4.81,6.24-7.3,8-1.51,1-3.12,1.91-4.65,2.95a16.09,16.09,0,0,1-6.79,2.71,14.13,14.13,0,0,1-5,0,18.21,18.21,0,0,1-4.87-2.61c-17.39-11.6-9.3-26.28-8.43-42.59.48-8.79,3.06-16.95,5.52-25.33a32,32,0,0,1,1.92-5.31c1.91-3.77,5.21-6.43,8.44-9,4.87-3.87,8.2-7,13.89-9.73,1.8-.88,3.8-1.79,5.76-1.34a6,6,0,0,1,4.13,4.66c1.78,7.46-1.48,15.28-4,22.15q-2.4,6.63-3.85,8.65-1,1.32-5.74,10.25t-6.61,10.68a74.84,74.84,0,0,0-5.88,6.39Q1076.64,362.74,1074.32,366.16Zm1.31-18c.29.29.82,0,1.6-.8a24.51,24.51,0,0,0,2.75-3.85,53.66,53.66,0,0,0,3.2-6.25q3.19-6.39,3.2-7,0-.29,3-6.69c2-4.16,3-6.72,3-7.7q0-2.76-2.61-.58a14.65,14.65,0,0,0-3.2,4.07,53.16,53.16,0,0,1-4.65,7.26,8,8,0,0,0-1.89,4.8,4.5,4.5,0,0,1-1.45,3.49q-1.17,1-2.55,6.68T1075.63,348.21Z"/><path class="cls-3" d="M1178.9,378.33c0,3.58-4.8,6.23-7.29,7.95a26.28,26.28,0,0,1-4.81,2.62c-1,.45-1.84,1.12-2.82,1.52a48,48,0,0,1-4.85,1.53q-8.28,1-11.34.36c-2-.44-4.31-1.81-6.83-4.14a17.94,17.94,0,0,1-3.34-4.29,18.47,18.47,0,0,1-1.6-5.3c-.77-3.58-1.55-5.43-2.32-5.53q-.87,0-2,2a46.52,46.52,0,0,1-5.59,7.19,38.89,38.89,0,0,1-6.62,6.18,19.36,19.36,0,0,1-8.72,2.91,21.41,21.41,0,0,1-4.65.07,3.58,3.58,0,0,1-2.18-1.81c-2-3.21-2.74-8-2.11-14.32a35.72,35.72,0,0,1,5.31-16.2,44.31,44.31,0,0,1,6.91-7.92,47.42,47.42,0,0,1,9.37-6.91c2.13-1.25,5.76-1.89,10.9-1.89,8.5-.15,8.1-5.95,12.28-12.57q8.1-12.81,16.19-25.61c2.78-4.45,11.1-20.8,14-9.73,3.24,12.52-13.74,30.4-19.34,40.22-2,3.53-3,7.57-4.62,11.25-4.21,9.23-8.14,20.91-6.86,31.18.39,3.11,1.19,5.33,2.4,6.69a6.76,6.76,0,0,0,5.31,2,23.32,23.32,0,0,0,6.29-1.09,12.52,12.52,0,0,0,1.68-.66,73.27,73.27,0,0,0,11.93-7.42C1176.38,374.47,1178.87,374.45,1178.9,378.33ZM1136,352.28c-.29-1.36-1.53-2-3.71-2a11.25,11.25,0,0,0-6.32,2.25,43.21,43.21,0,0,0-8.21,7.48q-4.42,5-5.73,8.07a19.3,19.3,0,0,0-1.46,8c0,4,.78,5.86,2.33,5.67q2.76-.28,9.59-9Q1136.46,355.19,1136,352.28Z"/></svg>