<svg id="Calque_1" data-name="Calque 1" xmlns="http://www.w3.org/2000/svg" viewBox="0 0 150 55"><defs><style>.cls-1{fill:#88b04b;fill-rule:evenodd;}.cls-2{fill:#13322b;}.cls-3{fill:#588646;}</style></defs><text/><g id="lake_forest_open_lands_association"><path class="cls-1" d="M25.66.89c3.31,0,6.66.5,10.36.5,1.69,0,3.56,0,5.34.14,2.24.14,4.66-.25,5.91.86a4.79,4.79,0,0,1,.6.79A7.16,7.16,0,0,1,48.4,4c.65,1.55.49,3.73.53,6,0,0,0,0,0,0a4.84,4.84,0,0,1-1.4,1.13c-3.39,2.51-6.74,4.75-10.25,7.33-1.88,1.38-3.87,2.86-5.74,4.32-.91.7-2,1.32-3,2.09a7.34,7.34,0,0,1-1.49,1,6.34,6.34,0,0,1-1.76.73c-1.34.07-1.31-.93-1.56-2.06-.06-.26-.07-.64-.13-1a2.67,2.67,0,0,1-.1-1c.15-.45.81-.46,1.46-.63a7.11,7.11,0,0,0,3.61-2.26,10.85,10.85,0,0,0,1.53-1.85,8.94,8.94,0,0,0,.63-1.7,10.78,10.78,0,0,0,.47-1.86,11.89,11.89,0,0,0-.14-3.05,10.4,10.4,0,0,0-1.29-2.69c-1.24-2.13-2.43-4.07-3.65-6.3-.17-.31-.74-1-.57-1.3Z"/><path class="cls-1" d="M23.17,3.05a2,2,0,0,1-.66.87c-.25.25-.51.5-.76.76-1.34,1.7-2.94,3.13-4.32,4.78-.29.82-.62,1.63-.89,2.49a19.2,19.2,0,0,0-.87,2.52,29.79,29.79,0,0,0,0,3.25s0,0,0,.07a12.57,12.57,0,0,0,1,1.63,12.15,12.15,0,0,0,1.07,1.52,28.7,28.7,0,0,0,3.38,2.59,4.06,4.06,0,0,1,1.4,2.72c.06.41.07.9.1,1.36a1.82,1.82,0,0,1-.2,1.26,1.07,1.07,0,0,1-1-.1,5.44,5.44,0,0,1-.84-.36,4.3,4.3,0,0,1-.79-1.13c-.72-1.17-1.62-2.27-2.26-3.42a11.58,11.58,0,0,0-1.53-2.29c-.26-.29-.59-.65-.93-1a5,5,0,0,0-1-.86,10.58,10.58,0,0,0-3.09-.63,7.82,7.82,0,0,0-2.69.39,10.16,10.16,0,0,0-1.89,1.07c-.64.39-1.37.7-1.93,1.12a11.7,11.7,0,0,0-1.49,1.7c-.24.28-.51.55-.73.86s-.36.73-.76.8a9.74,9.74,0,0,1-.07-2.23c0-2.18-.31-4.36-.4-6.64C1,14.66,1,13.14,1,11.68S1,8.63,1,7.17A4.94,4.94,0,0,1,3,3.32c1.53-1,4.51-.68,6.87-.57,2.9.14,5.92-.09,8.93.07.76,0,1.51.05,2.26.07A7.72,7.72,0,0,1,23.17,3.05Z"/><path class="cls-1" d="M49.53,27.78a3.56,3.56,0,0,1-1.3.43c-1.34.33-2.79.69-4.24.93-1,.16-2,.32-3,.5s-2,.25-3,.43c-1.92.34-3.79.86-5.8,1.09a29.05,29.05,0,0,1-3.32.14c-1.59,0-3.52.19-4.12-.83a5.24,5.24,0,0,1,0-1.6,3.47,3.47,0,0,1,1.07-1.26,11.17,11.17,0,0,1,1.29-1,10.46,10.46,0,0,1,3.65-.36,5,5,0,0,1,.93.46c.32.15.66.26,1,.4a12.34,12.34,0,0,0,1.89.86,23.44,23.44,0,0,0,2.66.27,6.67,6.67,0,0,0,.83.1,3.9,3.9,0,0,0,1.26-.5A24.13,24.13,0,0,0,42.69,26c.62-.95,1.22-2,1.83-3.05a24.57,24.57,0,0,0,1.65-3.19c.67-1.73,1.41-3.44,2-5.27.27-.85.71-1.49,1-2.4a3.9,3.9,0,0,1,.16-.76c.18-.29.78-.44,1.07-.56.55-.25.34.65.33.79a29.66,29.66,0,0,0-.17,3.32,31.85,31.85,0,0,1-.36,4.28c-.19,1.44-.23,2.93-.34,4.32S49.73,26.43,49.53,27.78Z"/><path class="cls-1" d="M22.91,35.15a3.73,3.73,0,0,1-2,0,10.48,10.48,0,0,1-1.29-.66c-1.27-.64-2.31-1.52-3.62-2.16a25.64,25.64,0,0,0-2.76-1.13c-1.42-.48-3.19-1.13-4.94-.56a5.72,5.72,0,0,0-1.76,1.16,43.76,43.76,0,0,0-4.51,4.18c-.32.19-.48.7-.93.63A2.11,2.11,0,0,1,1,35.41c0-2.15,0-4.16-.13-6.37,0-.34,0-.76-.07-1.23s-.11-1.09.1-1.16l.1-.07c1.7.11,3.42.37,5.11.6,1.54.21,3.12.37,4.65.6,2.27.34,4.51.67,6.77,1.09,1.29.25,2.79.25,3.45,1.1a6.09,6.09,0,0,1,.53,1.29c.18.43.4.86.57,1.23A7.12,7.12,0,0,1,22.91,35.15Z"/><path class="cls-1" d="M47.7,29.54c.35-.12.24.75.24,1.09,0,1.23,0,2.45,0,3.82,0,1.63.18,3.28.29,4.81a63.46,63.46,0,0,1,0,7.3,11.8,11.8,0,0,1-.14,2.69,10.67,10.67,0,0,1-.46,1,5,5,0,0,1-2.12,2.52,6.55,6.55,0,0,1-2.33.17c-.9,0-1.7,0-2.49-.07-1.73-.07-3.56,0-4.94,0-1.65,0-3.28-.14-4.91-.14s-3.33-.08-4.92-.19a9.62,9.62,0,0,1-.46-2.89c-.22-2.08-.61-3.75-.76-5.91-.07-.84-.09-2.53.46-2.79a1.94,1.94,0,0,1,1.29.2c.44.17.88.27,1.23.4,2.31.85,4.76,1.85,7.07,2.62l7.27,2.46,1.23.4c.39.11.8.37,1.23.23A4.46,4.46,0,0,0,44,45.5c-.45-1.08-.91-2.17-1.37-3.25-.23-.54-.41-1.12-.66-1.63a10.66,10.66,0,0,0-1.19-1.76,11.51,11.51,0,0,0-1.47-1.49c-2.64-1.22-5.89-.15-8.53.43a13.05,13.05,0,0,0-3.35,1.13,7.6,7.6,0,0,0-2.09.46c-.55.12-1.43.19-1.72-.16s-.11-1.42,0-1.93A12.58,12.58,0,0,1,24.5,34a5.89,5.89,0,0,1,.67-1.46,3.21,3.21,0,0,1,.86-.33,4.66,4.66,0,0,1,.93-.27,5,5,0,0,1,1.59.37,28.07,28.07,0,0,1,3.89,1.89A42.78,42.78,0,0,0,36.35,36a6.79,6.79,0,0,0,1.43.5A5.41,5.41,0,0,0,41.1,36a11.07,11.07,0,0,0,1.76-1.46C43.43,34,44,33.44,44.48,33,45.62,31.89,46.6,30.69,47.7,29.54Z"/><path class="cls-1" d="M21.25,38.27a34.73,34.73,0,0,1,1.26,4.61,4,4,0,0,1,.23,1.56c-.33.26-.79.12-1.16.1-5.39-.26-10.88-.48-16.16-.86l-1.26-.07c-.37,0-.78-.16-1.1.07,0,.49.38.87.6,1.29s.45.84.66,1.26a19.56,19.56,0,0,0,1.36,2.49,6.51,6.51,0,0,0,2,1.56,8.11,8.11,0,0,0,1.1.57,6.47,6.47,0,0,0,1.33.43,9.4,9.4,0,0,0,1.32,0,18.72,18.72,0,0,0,2-.07,5.56,5.56,0,0,0,1.16-.43c.38-.14.75-.32,1.09-.46,2-.79,3-2.07,4.82-3.09.29-.16.83-.52,1.06-.49s.42.44.53.79.29.67.36.93a15.09,15.09,0,0,1,.4,2.42,12.16,12.16,0,0,1,.33,2.43,5.29,5.29,0,0,1-1.82,0c-.65,0-1.31-.07-2-.07-3.91,0-8.19.21-11.88.2-.43,0-.88-.06-1.33-.06a4.43,4.43,0,0,1-2-.27,4,4,0,0,1-1.07-.8,3.14,3.14,0,0,1-1.26-2.09A25.29,25.29,0,0,1,2,47.2c.11-2.44.18-5.14.3-7.67a3.83,3.83,0,0,1,.19-1.4,9.2,9.2,0,0,1,3.16.44c1,.25,1.88.56,2.79.89,1.84.68,3.78,1.55,5.9,1.5a7.49,7.49,0,0,0,3.56-1.46l1.26-.77C19.76,38.34,20.48,37.53,21.25,38.27Z"/></g><path class="cls-2" d="M80.57,23l1.66-.2.63,1.83-1.09.86h-5.2L75,21.94l-8.21,0-.6,1.63,1.26,2H62l7.53-17L68.27,5.49h5.21ZM67.41,19.94l6.67-.2-3.29-7.9Z"/><path class="cls-2" d="M98.71,13.76c0,1,0,2,0,3s0,2,0,3v2.33L95.22,25.6H88.07l-3.23-2.69V13.64l-2-1.11.72-1.32H89L89,21.6l1,2.09,3.26-.32,1.2-2.12,0-7.81a2.91,2.91,0,0,1-.27-.2c-.13-.09-.25-.19-.38-.3s-.23-.2-.34-.28a1.62,1.62,0,0,0-.21-.16V11.21h5.43Z"/><path class="cls-2" d="M107.28,20c0,1.27,0,2.47,0,3.59l1.25.49c0,.25,0,.49,0,.73s0,.49,0,.76h-5.38c0-.29,0-.69,0-1.19s0-1.07,0-1.7,0-1.3,0-2V13.41l-1.46-.91.69-1.29H107l.17,2.63a20.08,20.08,0,0,1,1.81-1.49,10.3,10.3,0,0,1,1.67-1,3.75,3.75,0,0,1,1.67-.44,4.08,4.08,0,0,1,1.35.2,7.05,7.05,0,0,1,1.06.44,4.35,4.35,0,0,1,.76.49c.2.16.33.27.41.32l-1.09,3.07L111,14.56a4,4,0,0,0-1,.3c-.38.16-.75.34-1.12.53s-.71.38-1,.57l-.68.43C107.27,17.5,107.27,18.68,107.28,20Z"/><path class="cls-2" d="M122.5,22.56a4,4,0,0,0,3.11,1.33,3.81,3.81,0,0,0,1.66-1.15c.45-.53,1-1.15,1.48-1.86L132,22.05a2.25,2.25,0,0,1-.4.79,8.47,8.47,0,0,1-1,1.15,7.57,7.57,0,0,1-1.32,1,2.82,2.82,0,0,1-1.41.49h-7a2.22,2.22,0,0,1-1.56-.9,9.41,9.41,0,0,1-1.45-2.24,11.57,11.57,0,0,1-.91-2.83,6.24,6.24,0,0,1,0-2.73,12.18,12.18,0,0,1,.48-1.32,9.59,9.59,0,0,1,.92-1.67,8.17,8.17,0,0,1,1.4-1.56,4.4,4.4,0,0,1,2-1,15.71,15.71,0,0,1,1.86-.23,20,20,0,0,1,2.19-.06,14.44,14.44,0,0,1,2.06.19,3.49,3.49,0,0,1,1.45.5,5.07,5.07,0,0,1,.9.9,7.73,7.73,0,0,1,.86,1.36,8.64,8.64,0,0,1,.63,1.66,7.75,7.75,0,0,1,.27,1.77L130,19l-8.64.49A5.64,5.64,0,0,0,122.5,22.56ZM127.42,16c-.12-.44-.27-.91-.45-1.4a11.44,11.44,0,0,0-.58-1.3c-.2-.38-.38-.58-.55-.6a2.48,2.48,0,0,0-.73.06c-.3,0-.6.13-.92.21s-.61.18-.9.29a3.91,3.91,0,0,0-.69.3,2.37,2.37,0,0,0-.4.63,9.47,9.47,0,0,0-.37,1,9.64,9.64,0,0,0-.27,1.12,5.67,5.67,0,0,0-.1,1l6.18-.4A7.09,7.09,0,0,0,127.42,16Z"/><path class="cls-2" d="M139.94,23.11l2,.6v1.81h-6L136,7.86l-2.2-1,.37-1.37h5.75Z"/><path class="cls-3" d="M62.54,41.2l1.9-6.92h1.68L68,41.2h-.76l-.5-1.78h-3l-.5,1.78ZM65,34.94l-1,3.79h2.62l-1-3.79Z"/><path class="cls-3" d="M70.82,43.55a3.08,3.08,0,0,1-1.67-.33A1.32,1.32,0,0,1,68.67,42a1.13,1.13,0,0,1,.18-.67,2.87,2.87,0,0,1,.61-.57.8.8,0,0,1-.28-.69,1.76,1.76,0,0,1,.25-.63l.09-.16a1.5,1.5,0,0,1-.79-1.51c0-1.14.63-1.71,1.87-1.71a3.57,3.57,0,0,1,.89.1l.15,0,1.48,0v.64l-1,0a1.35,1.35,0,0,1,.33,1A1.6,1.6,0,0,1,72,39.12a2.33,2.33,0,0,1-1.47.38,3.6,3.6,0,0,1-.49,0,2,2,0,0,0-.18.57.37.37,0,0,0,.19.38,4.65,4.65,0,0,0,1.15.08,2.43,2.43,0,0,1,1.38.3A1.36,1.36,0,0,1,73,42Q73,43.55,70.82,43.55ZM69.41,42a.81.81,0,0,0,.3.73,2,2,0,0,0,1.09.21,2.28,2.28,0,0,0,1.14-.22.81.81,0,0,0,.34-.74c0-.34-.08-.56-.25-.66a2.11,2.11,0,0,0-1-.15L70,41.1a1.79,1.79,0,0,0-.44.42A.81.81,0,0,0,69.41,42Zm.07-4.17a1.11,1.11,0,0,0,.27.84,1.29,1.29,0,0,0,.87.25,1.25,1.25,0,0,0,.87-.25,1.12,1.12,0,0,0,.26-.85,1.1,1.1,0,0,0-.26-.84,1.21,1.21,0,0,0-.87-.25,1.24,1.24,0,0,0-.87.25A1.13,1.13,0,0,0,69.48,37.81Z"/><path class="cls-3" d="M74,41.2v-5h.74v.68a4.77,4.77,0,0,1,1.83-.79v.76a4.43,4.43,0,0,0-.87.25,4.66,4.66,0,0,0-.7.3l-.25.13V41.2Z"/><path class="cls-3" d="M77.49,35.07V34.2h.75v.87Zm0,6.13v-5h.75v5Z"/><path class="cls-3" d="M81.55,36.1a8.53,8.53,0,0,1,1.12.12l.24,0,0,.61a11.53,11.53,0,0,0-1.18-.09,1.37,1.37,0,0,0-1.15.4,2.66,2.66,0,0,0-.31,1.5,3,3,0,0,0,.29,1.53,1.34,1.34,0,0,0,1.18.43l1.18-.09,0,.62a10.81,10.81,0,0,1-1.39.14,1.89,1.89,0,0,1-1.61-.6,3.48,3.48,0,0,1-.45-2,3.19,3.19,0,0,1,.48-2A2,2,0,0,1,81.55,36.1Z"/><path class="cls-3" d="M87.16,36.2h.75v5h-.75v-.35a2.85,2.85,0,0,1-1.48.45,1.48,1.48,0,0,1-1.35-.53,3.93,3.93,0,0,1-.34-2V36.2h.75v2.6a3.85,3.85,0,0,0,.19,1.46.9.9,0,0,0,.86.37,2.22,2.22,0,0,0,.67-.1,2.76,2.76,0,0,0,.52-.18l.18-.09Z"/><path class="cls-3" d="M89.41,41.2V34h.75V41.2Z"/><path class="cls-3" d="M94.25,36.85H92.66v2.39a3.29,3.29,0,0,0,.13,1.13c.08.18.28.27.59.27l.89-.06,0,.62a7.13,7.13,0,0,1-1,.11,1.32,1.32,0,0,1-1.08-.38,2.5,2.5,0,0,1-.3-1.45V36.85h-.71V36.2h.71V34.67h.74V36.2h1.59Z"/><path class="cls-3" d="M98.29,36.2H99v5h-.75v-.35a2.85,2.85,0,0,1-1.48.45,1.48,1.48,0,0,1-1.35-.53,3.93,3.93,0,0,1-.34-2V36.2h.75v2.6a3.85,3.85,0,0,0,.19,1.46.9.9,0,0,0,.86.37,2.22,2.22,0,0,0,.67-.1,2.76,2.76,0,0,0,.52-.18l.18-.09Z"/><path class="cls-3" d="M100.48,41.2v-5h.74v.68a4.77,4.77,0,0,1,1.83-.79v.76a4.43,4.43,0,0,0-.87.25,4.66,4.66,0,0,0-.7.3l-.25.13V41.2Z"/><path class="cls-3" d="M107.47,37.71v2.56c0,.24.22.39.58.44l0,.59a1.66,1.66,0,0,1-1.19-.4,4.51,4.51,0,0,1-1.8.4,1.36,1.36,0,0,1-1-.39,1.6,1.6,0,0,1-.36-1.12,1.44,1.44,0,0,1,.37-1.08,2,2,0,0,1,1.16-.42l1.57-.15v-.43a1,1,0,0,0-.22-.73.78.78,0,0,0-.6-.22,13.79,13.79,0,0,0-1.66.1l-.31,0,0-.57a9.93,9.93,0,0,1,1.95-.22,1.39,1.39,0,0,1,1.62,1.61Zm-3.08,2c0,.61.26.92.76.92a4.1,4.1,0,0,0,1.34-.23l.23-.08V38.71l-1.48.14a.8.8,0,0,0-.85.9Z"/><path class="cls-3" d="M109,41.2V34h.75V41.2Z"/><path class="cls-3" d="M67.33,52.09a9.28,9.28,0,0,1-1.85.21,3.29,3.29,0,0,1-1.32-.23,1.61,1.61,0,0,1-.78-.7A3.27,3.27,0,0,1,63,50.28a9.25,9.25,0,0,1-.11-1.53A9.52,9.52,0,0,1,63,47.2a3.41,3.41,0,0,1,.38-1.1,1.59,1.59,0,0,1,.77-.7,3.23,3.23,0,0,1,1.3-.22,9.29,9.29,0,0,1,1.88.22l0,.65a10.32,10.32,0,0,0-1.8-.18,1.51,1.51,0,0,0-1.45.65,5,5,0,0,0-.36,2.24A8.74,8.74,0,0,0,63.76,50a2.79,2.79,0,0,0,.25.86,1.15,1.15,0,0,0,.56.55,2.67,2.67,0,0,0,1.07.17,9.16,9.16,0,0,0,1.66-.18Z"/><path class="cls-3" d="M68.14,49.69a3.19,3.19,0,0,1,.49-2,2,2,0,0,1,1.66-.61,2,2,0,0,1,1.65.61,3.2,3.2,0,0,1,.48,2,3.38,3.38,0,0,1-.46,2,2,2,0,0,1-1.68.62,2,2,0,0,1-1.68-.62A3.45,3.45,0,0,1,68.14,49.69Zm.77,0a3.17,3.17,0,0,0,.27,1.54,1.21,1.21,0,0,0,1.11.44,1.18,1.18,0,0,0,1.1-.44,3.13,3.13,0,0,0,.26-1.53,2.77,2.77,0,0,0-.29-1.52,1.23,1.23,0,0,0-1.07-.41,1.25,1.25,0,0,0-1.08.41A2.73,2.73,0,0,0,68.91,49.67Z"/><path class="cls-3" d="M74.39,52.2h-.75v-5h.74v.35a2.84,2.84,0,0,1,1.46-.45,1.49,1.49,0,0,1,1.3.51,3.71,3.71,0,0,1,.86-.36,3.43,3.43,0,0,1,.92-.15,1.51,1.51,0,0,1,1.35.53,3.84,3.84,0,0,1,.34,1.93V52.2h-.75V49.58a3.36,3.36,0,0,0-.2-1.43.87.87,0,0,0-.85-.38,2.77,2.77,0,0,0-.68.09,4.53,4.53,0,0,0-.54.19l-.19.09a4.85,4.85,0,0,1,.13,1.46v2.6h-.75V49.62a3.74,3.74,0,0,0-.19-1.47.88.88,0,0,0-.86-.38,2.48,2.48,0,0,0-.65.09,4,4,0,0,0-.52.19l-.17.09Z"/><path class="cls-3" d="M82.75,52.2H82v-5h.74v.35a2.84,2.84,0,0,1,1.46-.45,1.49,1.49,0,0,1,1.3.51,3.71,3.71,0,0,1,.86-.36,3.43,3.43,0,0,1,.92-.15,1.51,1.51,0,0,1,1.35.53A3.84,3.84,0,0,1,89,49.56V52.2h-.75V49.58a3.36,3.36,0,0,0-.2-1.43.87.87,0,0,0-.85-.38,2.77,2.77,0,0,0-.68.09,4.53,4.53,0,0,0-.54.19l-.19.09a4.85,4.85,0,0,1,.13,1.46v2.6h-.75V49.62A3.74,3.74,0,0,0,85,48.15a.88.88,0,0,0-.86-.38,2.48,2.48,0,0,0-.65.09,3.53,3.53,0,0,0-.52.19l-.17.09Z"/><path class="cls-3" d="M90.14,49.69a3.19,3.19,0,0,1,.49-2,2,2,0,0,1,1.66-.61,2,2,0,0,1,1.65.61,3.2,3.2,0,0,1,.48,2,3.38,3.38,0,0,1-.46,2,2,2,0,0,1-1.68.62,2,2,0,0,1-1.68-.62A3.45,3.45,0,0,1,90.14,49.69Zm.77,0a3.17,3.17,0,0,0,.27,1.54,1.21,1.21,0,0,0,1.11.44,1.18,1.18,0,0,0,1.1-.44,3.13,3.13,0,0,0,.26-1.53,2.77,2.77,0,0,0-.29-1.52,1.23,1.23,0,0,0-1.07-.41,1.25,1.25,0,0,0-1.08.41A2.73,2.73,0,0,0,90.91,49.67Z"/><path class="cls-3" d="M99.48,45V52.2h-.74v-.34a3.07,3.07,0,0,1-1.52.44,2.46,2.46,0,0,1-.7-.1,1.57,1.57,0,0,1-.56-.36,2.83,2.83,0,0,1-.54-2,3.49,3.49,0,0,1,.49-2.1,1.87,1.87,0,0,1,1.6-.64,6,6,0,0,1,1.23.13V45Zm-2.6,6.54a1.5,1.5,0,0,0,.47.07,2.28,2.28,0,0,0,.64-.1,3.21,3.21,0,0,0,.55-.18l.2-.09V47.87a6.4,6.4,0,0,0-1.19-.12,1.16,1.16,0,0,0-1.06.48,3,3,0,0,0-.3,1.51,2.51,2.51,0,0,0,.35,1.56A1,1,0,0,0,96.88,51.56Z"/><path class="cls-3" d="M100.93,46.07V45.2h.75v.87Zm0,6.13v-5h.75v5Z"/><path class="cls-3" d="M105.71,47.85h-1.59v2.39a3.29,3.29,0,0,0,.13,1.13c.08.18.28.27.59.27l.89-.06,0,.62a7.13,7.13,0,0,1-1,.11,1.32,1.32,0,0,1-1.08-.38,2.5,2.5,0,0,1-.3-1.45V47.85h-.71V47.2h.71V45.67h.74V47.2h1.59Z"/><path class="cls-3" d="M106.63,46.07V45.2h.75v.87Zm0,6.13v-5h.75v5Z"/><path class="cls-3" d="M112.22,51.58l.29,0,0,.59a15.52,15.52,0,0,1-2,.16,1.75,1.75,0,0,1-1.53-.63,3.32,3.32,0,0,1-.45-1.94c0-1.76.7-2.63,2.09-2.63a1.92,1.92,0,0,1,1.51.56,2.61,2.61,0,0,1,.5,1.78l0,.57h-3.3a2.06,2.06,0,0,0,.3,1.23,1.25,1.25,0,0,0,1,.4C111.21,51.64,111.71,51.62,112.22,51.58ZM112,49.41a2.13,2.13,0,0,0-.29-1.3,1.13,1.13,0,0,0-1-.38,1.21,1.21,0,0,0-1,.4,2,2,0,0,0-.35,1.28Z"/><path class="cls-3" d="M115.44,47.77c-.72,0-1.09.25-1.09.76a.53.53,0,0,0,.25.49,4.07,4.07,0,0,0,1.14.3,3,3,0,0,1,1.26.44,1.22,1.22,0,0,1,.37,1.05,1.3,1.3,0,0,1-.49,1.13,2.44,2.44,0,0,1-1.45.36,9.48,9.48,0,0,1-1.46-.14l-.3,0,0-.65a13.43,13.43,0,0,0,1.72.17,1.66,1.66,0,0,0,.89-.19.67.67,0,0,0,.3-.62.62.62,0,0,0-.26-.59,3.83,3.83,0,0,0-1.14-.29,3.17,3.17,0,0,1-1.25-.41,1.45,1.45,0,0,1,.15-2.08,2.17,2.17,0,0,1,1.28-.35,9.59,9.59,0,0,1,1.53.14l.28,0,0,.64A12.44,12.44,0,0,0,115.44,47.77Z"/></svg>