<svg xmlns="http://www.w3.org/2000/svg" viewBox="0 0 794.21 118.29"><defs><style>.cls-1,.cls-4,.cls-5{fill:#fff;}.cls-1,.cls-5{stroke:#13322b;stroke-miterlimit:10;}.cls-2{fill:#13322b;}.cls-3{fill:#f5f5f5;}.cls-5{stroke-width:2px;}.cls-6{fill:#b2d0a5;}</style></defs><g id="Calque_2" data-name="Calque 2"><g id="Calque_1-2" data-name="Calque 1"><rect class="cls-1" x="0.5" y="15.9" width="149.97" height="90" rx="2.98"/><path class="cls-2" d="M794.21.45c-83-1.18-107,12.71-107,12.71l-5.29,70.28h106Z"/><polygon class="cls-2" points="680.25 105.38 786.28 105.38 787.81 85.15 681.78 85.15 680.25 105.38"/><path class="cls-3" d="M715,79.5h-.27c-1.79,0-3.33-1.34-3.12-4.43s2-4.43,3.74-4.43,3.34,1.33,3.12,4.43c-.15,2.13-1,3.43-2.12,4L718,81h-1.81Zm-.18-1.21c1,0,1.86-.85,2-3.22s-.57-3.22-1.57-3.22-1.86.85-2,3.22.58,3.22,1.58,3.22"/><path class="cls-3" d="M726.47,78.32a9.68,9.68,0,0,0,0,1.05H725c0-.32,0-.65,0-1h0a2,2,0,0,1-1.76,1.07c-1.44,0-1.8-1.07-1.71-2.35l.28-4.1h1.53l-.26,3.81c-.07,1,.17,1.38.81,1.38.82,0,1.1-.74,1.16-1.55l.26-3.64h1.53Z"/><path class="cls-3" d="M730.42,73.39a4.62,4.62,0,0,1,2-.47c2,0,2.37,1,2.26,2.55l-.2,2.78a7.88,7.88,0,0,0,0,1.12h-1.38a3,3,0,0,1,0-.86h0a2.21,2.21,0,0,1-1.85,1,1.67,1.67,0,0,1-1.76-1.86c.11-1.73,1.55-2.16,3.49-2.16h.31v-.23A1,1,0,0,0,732.2,74a3.18,3.18,0,0,0-1.78.61Zm2.81,2.87h-.13c-1.31,0-2.11.28-2.17,1.2a.85.85,0,0,0,.9,1c.92,0,1.3-.68,1.38-1.82Z"/><polygon class="cls-3" points="738.57 70.12 740.1 70.12 739.45 79.37 737.92 79.37 738.57 70.12"/><path class="cls-3" d="M743.48,73H745l-.45,6.35H743Zm.17-2.7h1.58l-.11,1.5h-1.57Z"/><path class="cls-3" d="M749.12,71.71l1.56-.47L750.55,73h1.27l-.07,1.12h-1.27l-.24,3.29c0,.68.19.88.64.88a1.24,1.24,0,0,0,.58-.13l-.07,1.08a2.46,2.46,0,0,1-1,.21c-1.14,0-1.74-.52-1.65-1.85l.25-3.48h-1L748,73h1Z"/><path class="cls-3" d="M759,79.06a4.84,4.84,0,0,1-1.93.41c-2,0-2.83-1.47-2.71-3.18.13-1.9,1.23-3.37,2.85-3.37,1.37,0,2.49.8,2.31,3.39l0,.3h-3.67c-.08,1.08.31,1.74,1.49,1.74a2.68,2.68,0,0,0,1.7-.49ZM758,75.65c.08-1.12-.25-1.69-.94-1.69s-1.2.85-1.25,1.69Zm-.69-5.11h1.43l-1.38,1.78h-1Z"/><path class="cls-3" d="M686.48,97h-1.89l-.51,1.37h-1.67l2.6-6.45h1.91l1.6,6.45h-1.79Zm-.62-3.77h0L685,95.75h1.28Z"/><polygon class="cls-3" points="689.73 91.91 693.54 91.91 693.45 93.18 691.34 93.18 691.25 94.5 693.26 94.5 693.18 95.77 691.16 95.77 690.98 98.36 689.28 98.36 689.73 91.91"/><polygon class="cls-3" points="695.87 93.89 695.83 93.89 695.52 98.36 694 98.36 694.45 91.91 696.47 91.91 697.85 96.36 697.87 96.36 698.18 91.91 699.7 91.91 699.25 98.36 697.21 98.36 695.87 93.89"/><path class="cls-3" d="M706.52,91.8c1.4,0,2.8.94,2.63,3.33s-1.7,3.34-3.1,3.34-2.8-.94-2.64-3.34,1.7-3.33,3.11-3.33m-.4,5.43h0c.73,0,1.14-.82,1.23-2.1s-.21-2.09-.94-2.09-1.15.84-1.24,2.09.21,2.1.94,2.1"/><path class="cls-3" d="M712.73,96.53c-.13-.62-.41-.69-.69-.69H712l-.18,2.52H710l.45-6.45h2.58c1.3,0,2,.54,1.92,1.73a1.62,1.62,0,0,1-1.34,1.49v0c.37.12.6.3.79,1.2l.44,2h-1.79Zm-.26-1.93a.76.76,0,0,0,.76-.69.62.62,0,0,0-.68-.76h-.49L712,94.6Z"/><path class="cls-3" d="M723,98.22a5.65,5.65,0,0,1-1.61.25c-1.88,0-3.14-1.12-3-3.38a3.26,3.26,0,0,1,3.44-3.29,4,4,0,0,1,1.54.29l-.19,1.42a2.68,2.68,0,0,0-1.23-.36c-1.12,0-1.68.72-1.77,2s.47,2,1.56,2a2.51,2.51,0,0,0,1.27-.35Z"/><polygon class="cls-3" points="724.44 91.91 728.4 91.91 728.31 93.18 726.05 93.18 725.97 94.42 728.11 94.42 728.02 95.7 725.88 95.7 725.78 97.08 728.16 97.08 728.07 98.36 723.99 98.36 724.44 91.91"/><path class="cls-3" d="M731.78,96.53c-.12-.62-.4-.69-.68-.69H731l-.18,2.52h-1.74l.46-6.45h2.58c1.3,0,2,.54,1.92,1.73a1.62,1.62,0,0,1-1.34,1.49v0c.37.12.59.3.79,1.2l.44,2h-1.79Zm-.25-1.93a.76.76,0,0,0,.76-.69.63.63,0,0,0-.69-.76h-.48L731,94.6Z"/><polygon class="cls-3" points="736.19 93.22 734.8 93.22 734.89 91.91 739.41 91.91 739.32 93.22 737.93 93.22 737.57 98.36 735.83 98.36 736.19 93.22"/><polygon class="cls-3" points="740.27 91.91 742.01 91.91 741.56 98.36 739.82 98.36 740.27 91.91"/><polygon class="cls-3" points="743.31 91.91 747.13 91.91 747.03 93.18 744.93 93.18 744.83 94.5 746.85 94.5 746.76 95.77 744.74 95.77 744.56 98.36 742.86 98.36 743.31 91.91"/><polygon class="cls-3" points="748.08 91.91 749.82 91.91 749.36 98.36 747.63 98.36 748.08 91.91"/><path class="cls-3" d="M755.3,98.22a5.65,5.65,0,0,1-1.61.25c-1.88,0-3.15-1.12-3-3.38a3.27,3.27,0,0,1,3.44-3.29,4.05,4.05,0,0,1,1.55.29l-.2,1.42a2.6,2.6,0,0,0-1.23-.36c-1.11,0-1.68.72-1.77,2s.48,2,1.57,2a2.51,2.51,0,0,0,1.27-.35Z"/><path class="cls-3" d="M759.81,97h-1.89l-.52,1.37h-1.66l2.6-6.45h1.91l1.6,6.45h-1.79Zm-.62-3.77h0l-.87,2.53h1.28Z"/><polygon class="cls-3" points="763.57 93.22 762.18 93.22 762.27 91.91 766.78 91.91 766.69 93.22 765.3 93.22 764.94 98.36 763.21 98.36 763.57 93.22"/><polygon class="cls-3" points="767.64 91.91 769.38 91.91 768.93 98.36 767.19 98.36 767.64 91.91"/><path class="cls-3" d="M773.37,91.8c1.41,0,2.8.94,2.63,3.33s-1.69,3.34-3.1,3.34-2.8-.94-2.63-3.34,1.69-3.33,3.1-3.33m-.4,5.43h0c.73,0,1.14-.82,1.23-2.1S774,93,773.27,93s-1.15.84-1.23,2.09.2,2.1.93,2.1"/><polygon class="cls-3" points="778.72 93.89 778.68 93.89 778.37 98.36 776.85 98.36 777.3 91.91 779.32 91.91 780.7 96.36 780.72 96.36 781.03 91.91 782.55 91.91 782.1 98.36 780.06 98.36 778.72 93.89"/><path class="cls-4" d="M711.71,18.53c-2-.75-4.63-1.13-10-1.12H697a2.82,2.82,0,0,0,1.68,2.51h2.9a17.35,17.35,0,0,1,5.45.61c1.24.41,1.81,1.13,1.72,2.23l0,.62c-6.62,1.59-12.5,3.44-15.51,5.32a4.71,4.71,0,0,0-2.74,3.93c-.21,1.94.65,3.6,3.24,4.56,2.39.9,5.31,1.11,9.48,1.12l3.5,0a15.2,15.2,0,0,0,4-.62c2.76-1,3.34-3.07,3.5-5L715,22c-.21-1.54-1.28-2.68-3.32-3.46m-4,17.22h-5.64a14.76,14.76,0,0,1-3.7-.57,2.08,2.08,0,0,1-1.7-1.91,4.15,4.15,0,0,1,.71-2.7c1.13-1.44,4.39-2.52,4.39-2.52a49.91,49.91,0,0,1,6.71-1.87Z"/><path class="cls-4" d="M754.51,19a12.12,12.12,0,0,0-2.9-.65c-7.61-1-15.85.16-23.88,1.48L728,16c.1-1.11.3-1.84,1.6-2.24a19.5,19.5,0,0,1,5.49-.6h5.4a2.73,2.73,0,0,0,1.6-2.52H735c-4.17,0-6.63.21-9.17,1.12-2.75,1-3.85,2.59-4,4.47L721.4,21c-.87.16-1.92.32-2.79.53a3.09,3.09,0,0,0-1.1,3h0c1.19-.24,2.52-.47,3.66-.69L720.12,38h6.23l1.16-15.28c5-1,15.59-2.85,21.3-2a9.38,9.38,0,0,1,1,.26c1.23.41,1.8,1.13,1.72,2.23l-.06.14C744.88,25,739,26.82,736,28.7a4.71,4.71,0,0,0-2.74,3.93c-.21,1.94.65,3.6,3.24,4.56,2.38.9,5.31,1.11,9.48,1.12l3.49,0a15.28,15.28,0,0,0,4-.62c2.76-1,3.33-3.07,3.49-5l.84-10.24c-.21-1.54-1.28-2.68-3.33-3.45m-4,16.73h-5.64a14.59,14.59,0,0,1-3.69-.57c-1.11-.36-1.68-1-1.71-1.91a4.15,4.15,0,0,1,.71-2.7c1.13-1.44,4.39-2.52,4.39-2.52a50.16,50.16,0,0,1,6.7-1.87Z"/><path class="cls-4" d="M781.53,23.43l-.8,9.61a2.6,2.6,0,0,1-2.13,2.25,18.2,18.2,0,0,1-4.81.6,17,17,0,0,1-4.7-.6,2.06,2.06,0,0,1-1.7-2.25l.81-9.61a2.6,2.6,0,0,1,2.12-2.25,18.26,18.26,0,0,1,4.81-.6,17.08,17.08,0,0,1,4.71.6,2,2,0,0,1,1.69,2.25m3-4.26c-2.26-.86-5-1.09-8.81-1.12H775c-3.82,0-6.62.26-9,1.12-2.77,1-3.89,2.6-4.05,4.5l-.78,9.13c-.16,1.9.65,3.55,3.26,4.5a19.84,19.84,0,0,0,6.27,1.06c0,.26,0,0,0,.29-.17,2.21,2.17,4.45,5.84,4.45h6.85a3.21,3.21,0,0,0,3-2.4h-5.43c-4.51,0-4-2.35-4-2.35A21.32,21.32,0,0,0,783,37.3c2.77-.95,3.94-2.6,4.1-4.5l.71-9.13c.16-1.9-.63-3.54-3.24-4.5"/><polygon class="cls-4" points="688.08 64.52 784.67 64.52 786.09 45.58 689.49 45.58 688.08 64.52"/><polygon class="cls-2" points="693.44 49.53 696.37 49.53 695.6 60.53 692.67 60.53 693.44 49.53"/><path class="cls-2" d="M703.08,57.82a6.17,6.17,0,0,0,3,.73c.93,0,1.83-.19,1.89-1.07.14-2-5.15-.76-4.87-4.77.18-2.64,2.82-3.37,5-3.37a9,9,0,0,1,2.8.41L710.57,52a5.66,5.66,0,0,0-2.41-.5c-.74,0-2,.06-2,1-.13,1.78,5.16.58,4.88,4.56-.2,2.85-2.65,3.62-5.09,3.62a11.06,11.06,0,0,1-3.25-.47Z"/><path class="cls-2" d="M720.59,49.34c3.62,0,5.36,2.16,5.12,5.69s-2.32,5.69-5.92,5.69-5.36-2.19-5.12-5.69,2.29-5.69,5.92-5.69M720,58.55c1.78,0,2.61-1.71,2.73-3.52s-.46-3.51-2.24-3.51-2.61,1.6-2.74,3.51.47,3.52,2.25,3.52"/><path class="cls-2" d="M736.81,58.06a4,4,0,0,0,2.28.58c1.95,0,2.64-1.29,2.79-3.23h0a2.87,2.87,0,0,1-2.45,1.12,3,3,0,0,1-3.06-3.47,4.22,4.22,0,0,1,4.39-3.72c3.14,0,4.06,2.46,3.86,5.22-.23,3.37-1.64,6.16-5.28,6.16a7.25,7.25,0,0,1-2.82-.5Zm3.81-6.83a1.53,1.53,0,0,0-1.52,1.56c-.06.92.26,1.75,1.28,1.75a1.58,1.58,0,0,0,1.55-1.62c.07-.9-.37-1.69-1.31-1.69"/><path class="cls-2" d="M748,55c.21-2.85,1-5.69,4.67-5.69s4.08,2.84,3.88,5.69-1,5.69-4.67,5.69S747.77,57.89,748,55m5.71,0c.12-1.75.15-3.7-1.18-3.7s-1.57,2-1.69,3.7-.15,3.71,1.18,3.71,1.57-2,1.69-3.71"/><path class="cls-2" d="M759.82,55c.2-2.85,1-5.69,4.67-5.69s4.07,2.84,3.87,5.69-1,5.69-4.67,5.69-4.07-2.83-3.87-5.69m5.7,0c.13-1.75.15-3.7-1.17-3.7s-1.57,2-1.69,3.7-.15,3.71,1.17,3.71,1.57-2,1.69-3.71"/><polygon class="cls-2" points="775.71 52.46 773.53 53.94 772.36 51.96 776.26 49.53 778.85 49.53 778.08 60.53 775.15 60.53 775.71 52.46"/><polygon class="cls-4" points="681.91 83.44 681.78 85.15 787.81 85.15 787.93 83.44 681.91 83.44"/><path class="cls-2" d="M68.92,87.34h-2.7V81H75.4v20.73H68.92Z"/><path class="cls-2" d="M87.1,101.72V97.56H79.37V92.08L86.15,80.8h7.13V92.08h2v5.48h-2v4.16ZM85,92.08h2.58V89.25c0-.55,0-1,0-1.37s0-.69.09-1A9.35,9.35,0,0,1,87.25,88c-.18.38-.44.87-.78,1.48Z"/><path class="cls-2" d="M97.74,91.42c0-3.37.69-6,2.07-7.94a7.07,7.07,0,0,1,11.4,0q2.06,2.87,2.06,8t-2.06,8a7,7,0,0,1-11.39,0A13.41,13.41,0,0,1,97.74,91.42Zm6.31,0a11.16,11.16,0,0,0,.35,3.31q.34,1,1.11,1c.5,0,.87-.35,1.1-1a11.45,11.45,0,0,0,.35-3.32,11.42,11.42,0,0,0-.35-3.31c-.23-.7-.6-1-1.1-1s-.89.35-1.12,1A11.56,11.56,0,0,0,104.05,91.42Z"/><path class="cls-2" d="M116,91.42c0-3.37.69-6,2.08-7.94a7.06,7.06,0,0,1,11.39,0c1.38,1.91,2.06,4.56,2.06,8s-.68,6-2.06,8a7,7,0,0,1-11.38,0A13.41,13.41,0,0,1,116,91.42Zm6.31,0a11.51,11.51,0,0,0,.35,3.31q.36,1,1.11,1c.51,0,.87-.35,1.11-1a11.53,11.53,0,0,0,.34-3.32,11.49,11.49,0,0,0-.34-3.31c-.24-.7-.6-1-1.11-1s-.88.35-1.11,1A11.48,11.48,0,0,0,122.35,91.42Z"/><path class="cls-2" d="M137.09,87.34h-2.7V81h9.18v20.73h-6.48Z"/><path class="cls-2" d="M4.89,54.83c-.77-1.31-1.45-2.5-2-3.55v4.63c.47-.22.9-.43,1.29-.65S4.62,55,4.89,54.83ZM22.36,43.77c3,.34,5.83.78,8.37,1.26-1.49-1.34-3.21-2.82-5.19-4.43C24.55,41.66,23.47,42.72,22.36,43.77ZM9.05,30.43a39.76,39.76,0,0,0-6.21-1.78v4.77l1.24,1.27A25.58,25.58,0,0,0,9.05,30.43ZM5.51,36.2c1.88,2,4,4.37,6.06,6.88,2.83.05,5.54.2,8.1.42h0c1.52-1.38,3-2.8,4.3-4.19l-2.24-1.75A49.74,49.74,0,0,0,11,31.24,26.57,26.57,0,0,1,5.51,36.2ZM2.84,72.76v1.79l1-.33C3.46,73.75,3.16,73.25,2.84,72.76Zm11.71-2.82,0,0c-3.1-4.36-6.16-9.24-8.64-13.38-.29.18-.57.34-.82.47-.65.36-1.44.73-2.27,1.09V68.86c.93,1.58,1.9,3.14,3,4.65C8.2,72.64,11.24,71.43,14.55,69.94Zm-5.2,11a47.32,47.32,0,0,1-4.28-5c-.87.3-1.62.55-2.23.74v11a51.79,51.79,0,0,0,11.33-2.34C12.67,84.09,11.07,82.64,9.35,80.92Zm2.3,9.27a40,40,0,0,0,8-.8q-1.61-1-3.53-2.5A52.43,52.43,0,0,1,4.66,89.57,40.2,40.2,0,0,0,11.65,90.19ZM30.06,29.55c-.6-.4-1.2-.79-1.83-1.17A32.76,32.76,0,0,0,14.08,24a8.68,8.68,0,0,1-.31,2.1,12.62,12.62,0,0,1-1.51,3.45A52.51,52.51,0,0,1,23,35.94c.83.64,1.62,1.25,2.37,1.86,2.35-2.68,4.05-5.21,4.53-7.24C29.93,30.21,30,29.88,30.06,29.55ZM10.79,79.47a69.2,69.2,0,0,0,5.62,5.09,43.6,43.6,0,0,0,7.73-3.87,27.71,27.71,0,0,1-2.88-2.51,59.36,59.36,0,0,1-5.45-6.52h0c-3.26,1.48-6.29,2.68-8.73,3.57A44.37,44.37,0,0,0,10.79,79.47Zm1.82-59.33a4.44,4.44,0,0,1,1.14,1.71,35.17,35.17,0,0,1,15.54,4.79c.39.23.75.48,1.13.72a25,25,0,0,0,.17-5,39.36,39.36,0,0,0-14.82-4.56H7.42c-1.15.12-2.29.28-3.4.5C7.69,18,10.84,18.45,12.61,20.14Zm-1.33,1.57s0-.07-.07-.09C9.88,20.36,7,20,2.84,20.49v1.68A52.69,52.69,0,0,1,11.28,21.71Zm.52,3.84A6.69,6.69,0,0,0,12,23.83a51.89,51.89,0,0,0-9.19.43v2.27a41.28,41.28,0,0,1,7.52,2.18A11,11,0,0,0,11.8,25.55ZM8.89,43.07C7.12,41,5.35,39,3.76,37.33l-.92.54v5.41c2.07-.13,4.09-.19,6.06-.21Zm23.8-19.46a29.09,29.09,0,0,1-.38,5A60.82,60.82,0,0,1,44.24,38.79c.19-1.15.31-2.22.39-3.21A37.4,37.4,0,0,0,32.69,23.61ZM31.84,31c-.56,2.36-2.41,5.16-4.93,8.06,3.2,2.61,5.72,4.87,7.69,6.76,3,.68,5.42,1.38,7.29,2a17.72,17.72,0,0,0,.91-2.49c.38-1.39.69-2.69,1-3.92A56.51,56.51,0,0,0,31.89,30.76C31.87,30.85,31.86,30.93,31.84,31Zm-.59,54h0a38.91,38.91,0,0,1-5.36-3,45.14,45.14,0,0,1-7.59,4,39.57,39.57,0,0,0,4.13,2.69A39.43,39.43,0,0,0,31.25,85ZM44.77,45.87a21.54,21.54,0,0,1-.92,2.59l-.3-.1,1.36.48A20.55,20.55,0,0,1,47.38,50c0-.69.08-1.37.08-2.09V46.75a37.72,37.72,0,0,0-2.09-3.23C45.19,44.28,45,45.06,44.77,45.87Zm2.69-4.66c-.34-.87-.72-1.72-1.13-2.56-.11.71-.23,1.44-.38,2.2.53.68,1,1.37,1.51,2.06Z"/><path class="cls-2" d="M128,38.91h-.94v1.28h1a1.26,1.26,0,0,0,.72-.15.55.55,0,0,0,.2-.49.59.59,0,0,0-.2-.5A1.5,1.5,0,0,0,128,38.91ZM141.6,39H141v3.37h.59a1.47,1.47,0,0,0,1.14-.36,2.09,2.09,0,0,0,.32-1.32,2.11,2.11,0,0,0-.32-1.31A1.42,1.42,0,0,0,141.6,39Zm-58.44-.07h-.94v1.28h1a1.24,1.24,0,0,0,.72-.15.55.55,0,0,0,.2-.49.59.59,0,0,0-.2-.5A1.5,1.5,0,0,0,83.16,38.91Zm53.06,16.45a4.88,4.88,0,0,0-4.29-1.93,5,5,0,0,0-4.33,1.94q-1.38,1.93-1.38,6.08t1.38,6.06a5.78,5.78,0,0,0,8.62,0c.91-1.29,1.36-3.31,1.36-6.08S137.13,56.64,136.22,55.36ZM55.77,17.88A53.93,53.93,0,0,1,69.53,54a54.16,54.16,0,0,1-4.64,22H80.45V46.87H90V76h8.38a11.44,11.44,0,0,1-3.5-1.78,9.82,9.82,0,0,1-3.8-7.29h9.1a3.7,3.7,0,0,0,1.35,2.28,5.14,5.14,0,0,0,2.94.7,5,5,0,0,0,2.57-.57,1.73,1.73,0,0,0,.93-1.55c0-1.06-1.3-1.91-3.91-2.57l-1.2-.3c-2.15-.55-3.86-1.06-5.13-1.51a13,13,0,0,1-2.78-1.28,7.84,7.84,0,0,1-2.52-2.88,8.46,8.46,0,0,1-.84-3.83,8.07,8.07,0,0,1,3.26-6.8c2.17-1.64,5.16-2.47,9-2.47s6.68.79,8.83,2.37a9,9,0,0,1,3.63,6.77h-8.86a2.75,2.75,0,0,0-1.13-1.92,4.63,4.63,0,0,0-2.62-.63,4,4,0,0,0-2.23.49,1.68,1.68,0,0,0-.73,1.5c0,1,1.27,1.77,3.83,2.41a4.19,4.19,0,0,0,.51.14l1.68.42A24.58,24.58,0,0,1,113.33,60a8.29,8.29,0,0,1,2.82,2.92,8,8,0,0,1,.89,3.87,8.78,8.78,0,0,1-3.37,7.4A11.12,11.12,0,0,1,110.09,76h16.26a13.13,13.13,0,0,1-5.51-3.31q-4.05-4.11-4.06-11.21t4.06-11.22q4.06-4.11,11.08-4.11t11,4.11Q147,54.34,147,61.45T143,72.66A13,13,0,0,1,137.47,76H148.3V17.88Zm30.65,26.2H84.2c0-.16-.07-.31-.09-.43a1.63,1.63,0,0,1,0-.28v-.69a1,1,0,0,0-.21-.74,1,1,0,0,0-.73-.21h-.93v2.35H80.05V37.25h3.27a4,4,0,0,1,2.19.46,1.71,1.71,0,0,1,.66,1.51,1.89,1.89,0,0,1-.27,1,1.85,1.85,0,0,1-.83.65,1.33,1.33,0,0,1,.83.47,1.87,1.87,0,0,1,.28,1l0,.95v0c0,.27.08.41.2.42Zm6.47,0H87.3V37.25h5.45v1.64H89.49v.91h2.76v1.56H89.49v1.06h3.4Zm7.51,0H99l-.11-.59a2.35,2.35,0,0,1-.89.59,3.51,3.51,0,0,1-1.22.19,2.91,2.91,0,0,1-2.31-1,3.87,3.87,0,0,1-.84-2.64,3.27,3.27,0,0,1,3.58-3.59,3.34,3.34,0,0,1,2.15.66,2.78,2.78,0,0,1,1,1.87H98.24a1.17,1.17,0,0,0-.41-.62,1.19,1.19,0,0,0-1.67.29,2.76,2.76,0,0,0-.33,1.5,2.4,2.4,0,0,0,.33,1.39,1.14,1.14,0,0,0,1,.46A1.41,1.41,0,0,0,98,42.4a.91.91,0,0,0,.42-.6h-1V40.34h3Zm3.52,0h-2.24V37.25h2.24Zm6.32-.42a3.6,3.6,0,0,1-2.26.61,3.46,3.46,0,0,1-2.16-.61,2.33,2.33,0,0,1-.89-1.71h2.13a.9.9,0,0,0,.32.54,1.23,1.23,0,0,0,.7.16,1.2,1.2,0,0,0,.61-.13.42.42,0,0,0,.22-.37c0-.24-.31-.45-.93-.6l-.28-.07c-.51-.13-.91-.25-1.21-.35a3.74,3.74,0,0,1-.65-.3,1.9,1.9,0,0,1-.59-.68,2,2,0,0,1-.2-.9,1.89,1.89,0,0,1,.77-1.59,3.38,3.38,0,0,1,2.1-.58,3.47,3.47,0,0,1,2.08.55,2.14,2.14,0,0,1,.85,1.59h-2.08a.69.69,0,0,0-.27-.45,1.06,1.06,0,0,0-.61-.15.94.94,0,0,0-.53.12.4.4,0,0,0-.17.35c0,.23.3.41.9.56l.12,0,.4.09a5.83,5.83,0,0,1,1.55.55,1.91,1.91,0,0,1,.67.69,1.84,1.84,0,0,1,.21.9A2.05,2.05,0,0,1,110.24,43.66Zm7.38-4.61h-2v5h-2.19v-5h-2v-1.8h6.13Zm6.29,5h-5.59V37.25h5.45v1.64h-3.26v.91h2.76v1.56h-2.76v1.06h3.4Zm7.39,0h-2.22c0-.16-.07-.31-.09-.43a1.63,1.63,0,0,1,0-.28v-.69a1.09,1.09,0,0,0-.21-.74,1,1,0,0,0-.73-.21h-.93v2.35h-2.17V37.25h3.27a4,4,0,0,1,2.19.46,1.71,1.71,0,0,1,.66,1.51,1.89,1.89,0,0,1-.27,1,1.85,1.85,0,0,1-.83.65,1.33,1.33,0,0,1,.83.47,1.87,1.87,0,0,1,.28,1l0,.95s0,0,0,0c0,.27.07.41.2.42Zm6.46,0h-5.58V37.25h5.45v1.64h-3.26v.91h2.76v1.56h-2.76v1.06h3.39Zm7-1.46a2.74,2.74,0,0,1-1.31,1.18,2.87,2.87,0,0,1-.83.21,12.53,12.53,0,0,1-1.61.07h-2.25V37.25h2.65a9.19,9.19,0,0,1,1.51.09,2.73,2.73,0,0,1,.86.3,2.67,2.67,0,0,1,1.06,1.17,4.35,4.35,0,0,1,.36,1.86A4,4,0,0,1,144.79,42.62Z"/><path class="cls-2" d="M48.08,17.82H23.45C39.52,23,50.9,35.54,51.44,52.56a28.27,28.27,0,0,0-6.53-3.72A107.24,107.24,0,0,0,2.56,43.29v2c17.21-1.13,32.63,2.08,41.67,5.43,5.12,1.9,13.37,9.56,17.47,16.74a24,24,0,0,0,.66-3.53,50.63,50.63,0,0,0,1-9.76A51.24,51.24,0,0,0,48.08,17.82Zm-25.44,59c-7.57-7.58-18.14-26.5-20.08-30v4c3.82,6.73,12.22,20.91,18.7,27.39a36.81,36.81,0,0,0,11.49,7.51A42.82,42.82,0,0,1,5.51,91.42q-1.35-.17-2.67-.36v12.59H27.11a55.69,55.69,0,0,0,23-15.39h.08c.45-.69.92-1.46,1.38-2.3C41,88.26,29.12,83.27,22.64,76.8Z"/><path class="cls-2" d="M19,54.39,29.5,62.57l-6.59,3.18,8.35-2,8.52,5L29.59,73.1,41.7,70.59l8.69,4.18-13,5,15.91-3.21,8,5.13s3.59-.42,1.8-1.79-9.57-6.14-9.57-6.14L50.05,59.9l.59,12.45-6.93-4-4.1-12.62,1.51,11.36-8.86-5-2.09-8.94v7.94Z"/><polygon class="cls-2" points="297.12 20.13 273.3 20.13 256.46 3.29 239.62 20.13 215.8 20.13 215.8 43.95 198.96 60.79 215.8 77.63 215.8 101.45 239.62 101.45 256.46 118.29 273.3 101.45 297.12 101.45 297.12 77.63 313.96 60.79 297.12 43.95 297.12 20.13 297.12 20.13"/><path class="cls-4" d="M274.1,67.84a22.92,22.92,0,0,0,11.45-4s-2.83-1.69-4.24-2.32a14,14,0,0,0-4.62-1.07,6.3,6.3,0,0,0-2.47.35,24.23,24.23,0,0,0-4.75,3.2,33.8,33.8,0,0,1,3.25-6.17,7,7,0,0,1,8-3.08c2.91.65,5.39,2.22,7.9,3.73a18,18,0,0,0,5.68,2.67c1.42.28,1.86.48,3.29.66.69.09,2.61.26,2.61.26L298.81,64c-.8,1.12-2.48,3.72-2.48,3.72s-2.48-.14-3.86-.1c-6.4-.09-10,5.13-21.21,4-3.92-.53-5.32-4-6.66-6.86a16.83,16.83,0,0,1-1.33-5.34c-.19-1.65-.29-3.3-.4-4.95-.06-1-.07-2-.05-2.94,0-2,.1-6.16.09-6.26,0,.1-.73,2.87-1.11,4.14-.78,2.66-1.58,5.32-2.46,8a24.71,24.71,0,0,1-2.56,5.52,17,17,0,0,1-5.09,5.07A23.08,23.08,0,0,1,241,71.66a36.47,36.47,0,0,1-6.93-.12,8.87,8.87,0,0,1-1-.18.7.7,0,0,1-.21-.14c.06-.07.11-.17.18-.19.34-.09.68-.14,1-.23a44.43,44.43,0,0,0,11.18-4.62,34,34,0,0,0,7.44-5.83,25.08,25.08,0,0,0,5.73-9.15c.68-2,1.2-4.07,1.76-6.12.41-1.46.76-2.93,1.15-4.4s.83-3.21,1.28-4.8c.25-.9.57-1.78.87-2.66.09-.28.18-.37.49-.14a3.12,3.12,0,0,1,1.15,1.7c.43,1.4-3.4,34.31,9,33.06Z"/><path class="cls-4" d="M236.52,56.38c-.05-1.64-.06-3.67-.18-5.7s-.32-4.24-.55-6.35c-.19-1.8-.45-3.59-.69-5.39s-.43-3.37-.68-5c-.15-1.08-.38-2.16-.52-3.24s2.92-5,3-5.12c1,3.29,3.94,5.8,3.45,6.94-1.49,2.52-1.69,5.31-1.63,8.14,0,1.65.15,3.31.23,5s.41,12.45.42,13.15a10.27,10.27,0,0,1-2,6.8A21.82,21.82,0,0,1,232,69.75a12.19,12.19,0,0,1-7.48,2.19,13.08,13.08,0,0,1-8-2.92A8.29,8.29,0,0,1,214,65.14a11.17,11.17,0,0,1,.85-8.18,29.52,29.52,0,0,1,3.84-5.29,37.15,37.15,0,0,0-2.41,7.25,6.59,6.59,0,0,0,.3,3.11,4,4,0,0,0,1.8,2.18A12.34,12.34,0,0,0,223.54,66a17.1,17.1,0,0,0,2,.2,16,16,0,0,0,8.28-2,4,4,0,0,0,2-2.69,28.24,28.24,0,0,0,.64-5.1Z"/><path class="cls-4" d="M253.29,57.94c0-.09-1.11-3.36-1.67-4.87A13.58,13.58,0,0,0,249.29,49,8.64,8.64,0,0,0,246,46.79c-1-.44-2-.87-3-1.35a4,4,0,0,1-2.15-2,5.53,5.53,0,0,1-.37-1.26,28.49,28.49,0,0,1,0-5.54c0-.61.23-.7.83-.44a21.71,21.71,0,0,1,5.4,3.36,20.13,20.13,0,0,1,4.47,5.18,18.4,18.4,0,0,1,2.49,8.32c0,.77-.28,4.8-.34,4.89Z"/><path class="cls-4" d="M236.85,78.61v4.55h-4.58V78.61H230V90h2.27V85.43h4.58V90h2.28V78.61Zm7.57,8.12L246,83.32l1.6,3.41ZM246,78.61,240.3,90H243l.44-1h5.19l.43,1h2.67L246,78.61Zm6.86,0V90h7.53V87.74h-5.25V78.61Zm12.82,8.12,1.6-3.41,1.6,3.41Zm1.6-8.12L261.57,90h2.68l.43-1h5.2l.42,1H273l-5.68-11.4Zm6.85,0V90h7.54V87.74h-5.26V78.61Z"/><path class="cls-4" d="M244.86,96.3a1.27,1.27,0,0,1-1.15.66,1.32,1.32,0,0,1-1-.41,1.3,1.3,0,0,1-.39-1,1.26,1.26,0,0,1,.39-.94,1.31,1.31,0,0,1,1-.4,1.28,1.28,0,0,1,1.15.64l.64-.64a2.13,2.13,0,0,0-1.79-.9,2.21,2.21,0,0,0-1.6.66,2.16,2.16,0,0,0-.65,1.58,2.22,2.22,0,0,0,2.25,2.25A2.15,2.15,0,0,0,245.5,97l-.64-.66Zm1.1-2.94v4.49h3.15V97h-2.25v-.91h1.88v-.9h-1.88v-.89h2.25v-.9Zm4.5,2.69v-1.8h.91a.94.94,0,0,1,.44.12.78.78,0,0,1,.45.78.81.81,0,0,1-.45.79,1.06,1.06,0,0,1-.44.11Zm1.8-2.47a2,2,0,0,0-.89-.23h-1.8v4.5h.89v-.91h1.11l.34.92h1l-.44-1.22a1.64,1.64,0,0,0,.74-1.48,1.6,1.6,0,0,0-.9-1.57Zm1.19-.22v.9h1.34v3.59h.9V94.26H257v-.9Zm4.05,0v4.49h.89V93.36Zm1.35,0v4.49h.9v-1.8h1.88v-.9h-1.88v-.89H262v-.9Zm3.61,0v4.49h.89V93.36Zm1.35,0v4.49H267V97h-2.25v-.91h1.88v-.9h-1.88v-.89H267v-.9Zm4.5,3.6v-2.7h.91a1.47,1.47,0,0,1,.66.17,1.18,1.18,0,0,1,.68,1.17,1.19,1.19,0,0,1-.68,1.18,1.37,1.37,0,0,1-.66.18Zm-.89-3.6v4.49h1.8a2.4,2.4,0,0,0,1.11-.28,2,2,0,0,0,1.13-2,2,2,0,0,0-1.13-2,2.53,2.53,0,0,0-1.11-.28Z"/><circle class="cls-5" cx="582.3" cy="58.87" r="57.5"/><path class="cls-2" d="M619.25,57.74a37.69,37.69,0,1,1-37.68-37.68,37.68,37.68,0,0,1,37.68,37.68"/><path class="cls-4" d="M600.08,55.73a2,2,0,0,1-1.2,1.49,4.11,4.11,0,0,1-3.43-.21,3,3,0,0,1-1-2.41,16.19,16.19,0,0,1,.28-5.27A2.55,2.55,0,0,1,597.15,48a3.08,3.08,0,0,1,2.64,1,4.5,4.5,0,0,1,.45,2.06,32.25,32.25,0,0,1-.16,4.7m6.17-7.32a6.82,6.82,0,0,0-2.62-3.13,12.59,12.59,0,0,0-12.07-.36A7,7,0,0,0,588,49.8c-.71,3.26-.53,7.13,2,9.58a11.89,11.89,0,0,0,11,2.07,4.52,4.52,0,0,0,1.14-.38l.11,0a7.73,7.73,0,0,0,3.14-2.36c1.93-2.83,2.07-7.07.89-10.25"/><path class="cls-4" d="M569.11,57.32c-.86,0-1.83,0-2.66-.08l0-9,0-.08,2.59,0c0-1.46,0-3,0-4.37l-9.85,0-1.62,0c0,1.36,0,3,0,4.34.89,0,1.72,0,2.59.08v8.73l0,.36-2.59,0c-.05,1.44-.05,2.83,0,4.24h11.53"/><path class="cls-4" d="M588.4,70.88l-1.23.39a2.84,2.84,0,0,1-.58-.42l.06-.07a23.72,23.72,0,0,0,4.62-3.57,10.41,10.41,0,0,1,2,1.1,17.75,17.75,0,0,1-4.89,2.57m-2.51.72a19.94,19.94,0,0,1-8.63,0c0-.13.13-.16.21-.23a8.17,8.17,0,0,1,8.6.12c.08.16-.13.11-.18.16m-9.7-.33a18.71,18.71,0,0,1-6.11-2.88v-.08A15.14,15.14,0,0,1,572,67.23a26.29,26.29,0,0,0,4.71,3.62,2.13,2.13,0,0,1-.53.42m-3.37-4.39A17.07,17.07,0,0,1,576,65.74l.11,0a38.72,38.72,0,0,0,2.63,4.08c-.36.21-.81.34-1.17.54A17.51,17.51,0,0,1,572.82,67ZM577,65.49a22.46,22.46,0,0,1,4.23-.46l0,4.34c-.55.13-1.15.13-1.67.26a23.07,23.07,0,0,1-2.72-4Zm5-.46a20.25,20.25,0,0,1,4.37.51l0,.08a26.15,26.15,0,0,1-2.64,4,7.22,7.22,0,0,1-1.3-.16l-.45,0c-.05-1.51-.08-2.85,0-4.36m5.15.77.08-.06a14.49,14.49,0,0,1,3.19,1.11,16.38,16.38,0,0,1-2.9,2.46c-.6.36-1.21.75-1.83,1.06l-1.13-.49.08-.18a31.12,31.12,0,0,0,2.51-3.9m10.9-2.31a20.21,20.21,0,0,1-4,4.26c0,.08-.21,0-.26,0-.65-.41-1.36-.74-2-1.15a21.19,21.19,0,0,0,2.28-3.11h-.81a18,18,0,0,1-2.2,2.8,26.44,26.44,0,0,0-3.37-1.18l-.13-.1a14.84,14.84,0,0,0,.63-1.52h-.71l-.7,1.39a32.46,32.46,0,0,0-4.81-.62c-.08-.23,0-.57-.08-.77h-.68c0,.31.08.54-.08.8a29.76,29.76,0,0,0-4.7.56l-.71-1.36a2.14,2.14,0,0,0-.73,0l.65,1.51-.08.08a31.81,31.81,0,0,0-3.44,1.2l-.11,0a19.32,19.32,0,0,1-2-2.54c-.13-.44-.66-.18-.94-.23a21.55,21.55,0,0,0,2.3,3.16c-.71.41-1.41.87-2.15,1.21a19.11,19.11,0,0,1-4.13-4.34,2.89,2.89,0,0,0-.83,0,20.57,20.57,0,0,0,7.87,7s0,0,0,0,.08,0,0,.08a21.61,21.61,0,0,0,6.58,2A20.59,20.59,0,0,0,599,63.49a3.93,3.93,0,0,0-.84,0"/><path class="cls-4" d="M570,37a19.1,19.1,0,0,1,5.41-2.72c.08-.08.13-.15.24-.15v0c.21.05.36-.18.55,0s.34.23.47.36A26.24,26.24,0,0,0,572,38.11,8.74,8.74,0,0,1,570,37Zm15.95-3.18v.05a8,8,0,0,1-8.37.28c-.13-.1-.39-.15-.42-.33a19.47,19.47,0,0,1,8.79,0m1,.25a18.56,18.56,0,0,1,6.14,2.88l-.05.1-1.8,1h-.13a22.94,22.94,0,0,0-4.66-3.54c.06-.18.32-.31.5-.44m3.35,4.39a17.14,17.14,0,0,1-3.19,1.09,41.17,41.17,0,0,0-2.7-4c.37-.2.82-.36,1.21-.56a18.74,18.74,0,0,1,4.73,3.43ZM582,40.24c-.05-1.36,0-2.87,0-4.29l1.62-.23a22.25,22.25,0,0,1,2.69,4,18.35,18.35,0,0,1-4.31.52m-.81,0a10,10,0,0,1-2.12-.08,14.47,14.47,0,0,1-2.3-.42,23.49,23.49,0,0,1,2.72-4l1.67.23c.08,1.33,0,2.87,0,4.29m-5.2-.69-.11,0a21.86,21.86,0,0,1-3.11-1l0-.16A20.61,20.61,0,0,1,577.42,35c.39.15.78.28,1.18.46l-.08.2A31.78,31.78,0,0,0,576,39.53m-10.85,2.25a24.81,24.81,0,0,1,2.12-2.54,13.49,13.49,0,0,1,2-1.72c.68.44,1.43.8,2.09,1.21a21.82,21.82,0,0,0-2.25,3.08,1.58,1.58,0,0,0,.78,0,20.4,20.4,0,0,1,2.2-2.75c1.12.41,2.22.85,3.37,1.16l.1.1-.65,1.49a2.42,2.42,0,0,0,.76,0c.23-.44.42-.92.68-1.36a26.14,26.14,0,0,0,4.73.56c.21.18,0,.57.13.8h.71c.07-.26,0-.54.07-.77a25.07,25.07,0,0,0,4.58-.59l.13,0,.7,1.34a1.79,1.79,0,0,0,.74-.05l-.66-1.49.06-.05A28.61,28.61,0,0,0,591,39a23,23,0,0,1,2.25,2.82,2.4,2.4,0,0,0,.78-.05,9.53,9.53,0,0,0-1.12-1.62,12.09,12.09,0,0,0-1.15-1.39v-.13l1.83-1,.26-.1A18.88,18.88,0,0,1,598,41.76c.31,0,.57.1.84,0a20.71,20.71,0,0,0-15.53-9.09l0,0-.06,0a12.78,12.78,0,0,0-2.32,0,6.48,6.48,0,0,0-1,0,20.51,20.51,0,0,0-15.66,9.17c.27,0,.58.08.84,0"/><path class="cls-4" d="M581.19,57.52a7,7,0,0,1-6.91-1.69c-.2-.26-.34-.56-.54-.82l-3.53,0c-.06,2.08-.08,4.47,0,6.52l3.92,0,0-1.24c.45.21.89.46,1.33.69a11,11,0,0,0,8.91,0,5.27,5.27,0,0,0,2.72-5.39,6.19,6.19,0,0,0-4.49-4.7l-6.33-1.82-.47-.23a.73.73,0,0,1-.29-.7c.5-.84,1.65-.59,2.52-.56a6.38,6.38,0,0,1,4.78,2.54c1.15,0,2.48,0,3.73,0,.06-2.1,0-4-.05-6.08-1.17,0-2.61,0-3.79,0a4.69,4.69,0,0,1-.08,1.05l-1.2-.65c-2.87-1.2-6.9-1.33-9.51.55a5.18,5.18,0,0,0-1.78,5.39c.34,1.85,2.12,3.21,3.82,3.85,2.32.82,4.75,1.41,7.11,2.21.23.1.54.33.49.62s-.23.36-.41.45"/><path class="cls-2" d="M553.49,25l1,1c1.21,1.23,1.16,2.66-.26,4.06s-2.85,1.44-4.07.22l-3.93-4c-1.22-1.23-1.17-2.66.25-4.07s2.86-1.44,4.07-.21l.73.74-1.37,1.36-.81-.82a1.06,1.06,0,1,0-1.5,1.49l4.09,4.13a1.06,1.06,0,0,0,1.5-1.49l-1.08-1.09"/><path class="cls-2" d="M557.21,19.6l2.37-1.48.82,1.31L558,20.91l1.66,2.68,3-1.86.81,1.31L558.76,26l-5.68-9.15,4.73-2.93.81,1.3-3,1.86"/><path class="cls-2" d="M565.23,12.32l1,3.14.76-.26c.72-.24,1.07-.65.79-1.47l-.34-1c-.24-.73-.65-1-1.33-.72Zm5.06,8a2.78,2.78,0,0,1-.6-1.2l-.54-1.6c-.32-.95-.83-1.17-1.71-.87l-.66.22,1.4,4.16-1.93.65-3.45-10.2,2.92-1c2-.67,3.12-.19,3.65,1.38l.27.8a2.07,2.07,0,0,1-.57,2.49v0c1.08,0,1.66.66,2,1.72l.53,1.57a2.68,2.68,0,0,0,.63,1.17"/><path class="cls-2" d="M573.49,8.51l6.28-.62.15,1.53-2.12.21.9,9.18-2,.2-.9-9.18-2.13.21"/><path class="cls-2" d="M584.8,8.05l2,.17L585.93,19l-2-.17Z"/><path class="cls-2" d="M593.1,14.23l2.54.7-.4,1.48-2.54-.7L591.52,20l-2-.54L592.4,9.08l5.21,1.42L597.2,12,594,11.1"/><path class="cls-2" d="M602.35,12.47l1.83.9-4.69,9.69-1.84-.9Z"/><path class="cls-2" d="M608,21l2.25,1.67-.92,1.23-2.25-1.67-1.88,2.53,2.83,2.11-.92,1.23-4.46-3.32,6.42-8.64,4.46,3.31-.91,1.24-2.83-2.1"/><path class="cls-2" d="M617.74,25.79l-5.87,5,.75.88a.91.91,0,0,0,1.47.11l4.27-3.62a.91.91,0,0,0,.13-1.47Zm-.14-2.55,2.08,2.46c1.32,1.56,1.25,2.93-.06,4.05l-4.15,3.52c-1.32,1.11-2.68.95-4-.6l-2.09-2.46"/><path class="cls-2" d="M550,93.4l-1.14,1c-1.38,1.19-2.88,1-4.25-.56s-1.31-3.1.07-4.28l4.46-3.85c1.37-1.18,2.87-1,4.25.56s1.3,3.1-.07,4.29l-.84.71-1.32-1.53.92-.79a1,1,0,0,0,.12-1.58,1,1,0,0,0-1.57-.11l-4.64,4a1.11,1.11,0,0,0,1.46,1.68l1.22-1.06"/><path class="cls-2" d="M555.19,99.7a1,1,0,0,0,.31,1.55,1,1,0,0,0,1.54-.32l3.39-5.09a1.11,1.11,0,1,0-1.85-1.23Zm1.54-6.19c1-1.5,2.53-1.73,4.29-.56s2.14,2.66,1.14,4.17L558.89,102c-1,1.51-2.53,1.73-4.29.57s-2.13-2.67-1.13-4.18"/><path class="cls-2" d="M569.44,105.67h0L573,98.32l2.88.79-3,10.92-2-.54,2.18-7.83h0l-3.56,7.44-2-.54.64-8.14h0L566,108.12l-1.81-.5,3-10.92,2.88.8"/><path class="cls-2" d="M582.3,100.88l.14,3.84,1,0c.68,0,1-.3,1-1.11l-.07-1.7c0-.8-.41-1.05-1.09-1Zm4.25,1,.06,1.47c.06,1.81-1,2.84-3.1,2.92l-1,0,.16,4.26-2.15.08-.42-11.32,3.16-.12c2.14-.08,3.23.87,3.3,2.68"/><path class="cls-2" d="M594,105.27l2-.63-2.69-5.15h0Zm5.76,2-2.07.65-1-1.85-2.51.8.26,2.07-1.88.59L591.31,98l3-1"/><path class="cls-2" d="M603,96.28l0,0,4.6,6.8-1.6,1.08-6.35-9.38,2.23-1.51,5.6,4.4,0,0-3.8-5.62L605.25,91l6.35,9.39-1.83,1.23"/><path class="cls-2" d="M615.42,91.45l-7.56-2.76L609.3,87l5,2,0,0-2.94-4.54,1.31-1.58,4.09,6.93,2.89,2.4-1.37,1.65"/><path class="cls-4" d="M561.39,86.53v-.84l1.08-1c2.6-2.48,3.77-3.8,3.79-5.33a1.81,1.81,0,0,0-2-2,3.49,3.49,0,0,0-2.17.86l-.43-1a4.42,4.42,0,0,1,2.88-1,2.87,2.87,0,0,1,3.12,3c0,1.88-1.37,3.4-3.51,5.47l-.82.75v0h4.58v1.14Z"/><path class="cls-4" d="M584.24,81.33c0,3.46-1.29,5.38-3.55,5.38-2,0-3.33-1.87-3.37-5.24s1.48-5.3,3.55-5.3S584.24,78.09,584.24,81.33Zm-5.54.16c0,2.65.82,4.15,2.07,4.15,1.41,0,2.09-1.65,2.09-4.25s-.65-4.15-2.07-4.15C579.58,77.24,578.7,78.71,578.7,81.49Z"/><path class="cls-4" d="M592.28,81.33c0,3.46-1.29,5.38-3.55,5.38-2,0-3.33-1.87-3.37-5.24s1.48-5.3,3.55-5.3S592.28,78.09,592.28,81.33Zm-5.54.16c0,2.65.82,4.15,2.07,4.15,1.41,0,2.09-1.65,2.09-4.25s-.65-4.15-2.07-4.15C587.62,77.24,586.74,78.71,586.74,81.49Z"/><path class="cls-4" d="M600.32,81.33c0,3.46-1.29,5.38-3.55,5.38-2,0-3.33-1.87-3.37-5.24s1.48-5.3,3.55-5.3S600.32,78.09,600.32,81.33Zm-5.54.16c0,2.65.82,4.15,2.07,4.15,1.41,0,2.09-1.65,2.09-4.25s-.65-4.15-2.07-4.15C595.66,77.24,594.78,78.71,594.78,81.49Z"/><path class="cls-4" d="M569.57,86.53v-.84l1.08-1c2.6-2.48,3.78-3.8,3.79-5.33a1.81,1.81,0,0,0-2-2,3.48,3.48,0,0,0-2.16.86l-.44-1a4.44,4.44,0,0,1,2.88-1,2.87,2.87,0,0,1,3.12,3c0,1.88-1.36,3.4-3.51,5.47l-.81.75v0h4.57v1.14Z"/><path class="cls-4" d="M362.3,57.51A57.5,57.5,0,1,0,419.79,0,57.5,57.5,0,0,0,362.3,57.51Z"/><path class="cls-4" d="M419.79,9.08a48.42,48.42,0,1,0,48.43,48.41A48.41,48.41,0,0,0,419.79,9.08Zm0,94.9A46.48,46.48,0,1,1,466.28,57.5,46.47,46.47,0,0,1,419.8,104Z"/><path class="cls-6" d="M419.79,1.33A56.17,56.17,0,1,0,476,57.49,56.18,56.18,0,0,0,419.79,1.33Zm0,104.59a48.42,48.42,0,1,1,48.42-48.43,48.41,48.41,0,0,1-48.42,48.43Z"/><path class="cls-2" d="M484.11,57.52a19.22,19.22,0,0,1-19.22,19.23h-90a19.23,19.23,0,1,1,0-38.45h90a19.22,19.22,0,0,1,19.23,19.22Z"/><path class="cls-4" d="M386.53,50.66a.59.59,0,0,0-.2-.39,3.13,3.13,0,0,0-2-.63A5,5,0,0,0,380.88,51c-1.5,1.36-2.46,4-2.46,6.94,0,2.83.66,4.79,1.83,6.05a5.14,5.14,0,0,0,4.11,1.89c.61,0,.77-.13.8-.39l0-4.52-2.59-.07c0-.9,0-2,.06-2.93h9.74c0,.9,0,2-.06,2.93l-1.37.06c-.09,0-.16.07-.16.14l-.1,6.45a14.16,14.16,0,0,1-6.45,1.2c-3.75,0-6.48-.84-8.38-2.3a9.87,9.87,0,0,1-3.68-8,11.56,11.56,0,0,1,5-9.71,15.14,15.14,0,0,1,8.31-2.29,12.74,12.74,0,0,1,5,.8c.17,2.16.3,4.35.37,6.58-1.1.14-2.36.27-3.52.37l-.73-3.53Zm8.34-.86c0-.93,0-2.06.06-3h8.31c1,2.65,3.23,9.1,4.73,13.56h.26c1.6-4.45,3.46-9.77,4.82-13.56h7.71c0,.93,0,2-.06,3l-1.63.1c-.07,0-.1.06-.1.16,0,4.72,0,10.44.07,15.43l1.82.1c0,.86,0,1.89,0,2.79H412c0-.9,0-1.93,0-2.79l1.9-.1c.06,0,.1-.07.1-.14,0-3.49-.07-7.18-.14-11.17h-.26c-2,5.79-3.76,9.81-5.12,12.94-.46,0-1.86.06-2.89.06-1.53-3.62-3-7.51-5-13.42h-.3c-.07,4.08-.13,7.87-.2,11.7l2.3.13c0,.86,0,1.89,0,2.79H394.7c0-.9,0-1.93,0-2.79l1.69-.1c.1,0,.14-.07.14-.13,0-4.76.1-10.77.13-15.46l-1.83-.1Zm29.25-.17c0-.9,0-1.93,0-2.79,2.39-.07,5.32-.1,8.08-.1a15.67,15.67,0,0,1,4.88.56,6.73,6.73,0,0,1,4.46,6.42,7.16,7.16,0,0,1-3.92,6.18,12.64,12.64,0,0,1-4.65,1c-.44,0-1.33,0-1.57,0l0,4.62,3,.1c0,.86,0,1.86,0,2.76-1.66,0-3.95,0-6,0-1.43,0-3,0-4.26,0,0-.9,0-1.9.07-2.76l1.56-.1a.12.12,0,0,0,.13-.14V49.7l-1.79-.07Zm7.31,8.14c0,.34.6.33,1.16.33a3.29,3.29,0,0,0,2.27-.86A4.77,4.77,0,0,0,436,53.88c0-2.46-1.5-4.45-3.39-4.45a3.41,3.41,0,0,0-1.06.1l-.07,8.24Zm26.77,1.74c-.05,3.08-.05,6.2-.05,8.63-1.33.1-2.89.14-4.27.14,0-2.34,0-5.42-.05-8.82h-8c0-1.28.09-2.75.14-4.08,1.88,0,4.82,0,7.94-.05-.05-3,0-6-.05-8.4,1.47-.09,3.17-.19,4.55-.18-.05,2.34-.09,5.37-.14,8.49,2.94-.05,5.79-.05,7.81-.09,0,1.33-.05,3-.19,4.36Z"/><path class="cls-2" d="M394.76,90.24a.08.08,0,0,0,.09,0c1.54-1.13,3.77-2.8,5.33-3.94.18.1.6.36,1.29.8-.48,1.92-1.2,4.6-1.66,6.43l.44.35-.51.77-1.11-.73c-.49-.31-1.07-.7-1.5-1,.17-.27.35-.52.52-.78l.47.27a0,0,0,0,0,.07,0c0-.17.15-.52.19-.7a.08.08,0,0,0,0-.09l-1.72-1.1c-.17.18-.42.39-.59.56l.49.36c-.16.25-.34.52-.52.77l-1.29-.85-.91-.59c.17-.27.34-.53.52-.77l.44.25Zm4.62-2-2,1.63s0,.06,0,.07l1.29.84c.21-.73.49-1.63.74-2.51l0,0Zm3.2,6.47a.27.27,0,0,0,0,.15,1.31,1.31,0,0,0,.49.39,1.11,1.11,0,0,0,.42.12.38.38,0,0,0,.37-.24c.11-.25,0-.37-.6-.86-.79-.66-1.05-1.3-.77-1.94a1.6,1.6,0,0,1,1.42-.89,3.48,3.48,0,0,1,1.58.34,4.32,4.32,0,0,1,1.16.67c-.14.47-.29.94-.44,1.41l-1-.25.08-.61a.14.14,0,0,0,0-.14.78.78,0,0,0-.35-.28.8.8,0,0,0-.42-.09.43.43,0,0,0-.34.28c-.09.22.06.35.75.9s1,1,.66,1.84a1.61,1.61,0,0,1-1.47.93,4.15,4.15,0,0,1-1.62-.4,5.53,5.53,0,0,1-1.27-.75c.14-.49.29-1,.44-1.46.31.07.64.14,1,.23l-.09.65Zm5.05,1.94a.18.18,0,0,0,.05.14,1.17,1.17,0,0,0,.54.33,1.09,1.09,0,0,0,.43.06.38.38,0,0,0,.33-.28c.08-.27,0-.38-.69-.77-.89-.55-1.22-1.15-1-1.82a1.61,1.61,0,0,1,1.29-1.08,3.52,3.52,0,0,1,1.61.13,4.51,4.51,0,0,1,1.24.51c-.08.48-.16,1-.26,1.46-.33,0-.67-.08-1-.13v-.61a.16.16,0,0,0,0-.14.83.83,0,0,0-.38-.23.91.91,0,0,0-.43,0,.46.46,0,0,0-.3.32c-.06.23.1.34.86.79s1.14.89.9,1.74a1.62,1.62,0,0,1-1.33,1.12,4.22,4.22,0,0,1-1.66-.18,5.4,5.4,0,0,1-1.36-.57l.24-1.51c.32,0,.66.05,1,.1v.65Zm7.64,2.28a2.61,2.61,0,0,1-1.63.35,1.82,1.82,0,0,1-1.31-1.73c.11-.83.23-1.7.31-2.42l-.48-.08c0-.29.09-.61.12-.9l2.25.2a0,0,0,0,1,0,0c-.1.77-.25,1.73-.35,2.53a2.19,2.19,0,0,0,0,1,.45.45,0,0,0,.41.28,1.33,1.33,0,0,0,.69-.15c.1-.74.23-1.83.31-2.5l-.53-.09c0-.31.08-.65.12-.94l2.31.24a.11.11,0,0,1,0,0c-.16,1.16-.34,2.48-.5,3.74,0,0,0,.07,0,.07l.62.06c0,.28-.08.61-.13.91a8.8,8.8,0,0,1-1.81,0,2.62,2.62,0,0,1-.45-.62Zm3.34-3.06c0-.3,0-.63,0-.91l2.19-.35,0,0c0,.47.09.93.13,1.41H421c.65-1.32.9-1.49,1.45-1.5a2.32,2.32,0,0,1,.8.13,3.17,3.17,0,0,1-.48,1.61,3.89,3.89,0,0,0-.71-.09.47.47,0,0,0-.3.11,2,2,0,0,0-.55.79,2.07,2.07,0,0,0-.15.94c0,.19,0,.44,0,.61H422v.89l-1.68,0-1.56,0c0-.29,0-.62,0-.89l.52,0s0,0,0,0c0-.89,0-1.91-.08-2.79Zm8.54,2.72a3.63,3.63,0,0,1-1.51.74,1.53,1.53,0,0,1-1.63-1c-.1-.6.45-1.76,2.18-2l.52-.09c0-.54-.31-.83-.81-.76a3.44,3.44,0,0,0-1.27.85,8.84,8.84,0,0,1-.69-.68A4.07,4.07,0,0,1,426.4,94a1.72,1.72,0,0,1,1.94,1.36c.12.72.28,1.76.35,2.23,0,.07,0,.09.07.07l.57-.12c.05.28.12.61.16.89a7.15,7.15,0,0,1-1.79.53,4.16,4.16,0,0,1-.5-.41Zm-.86-.44a1.66,1.66,0,0,0,.69-.36.1.1,0,0,0,0-.07c0-.27-.08-.48-.13-.75l-.23,0c-.72.12-1,.48-.91.83a.49.49,0,0,0,.57.33Zm3.17-3.39c-.1-.28-.2-.6-.29-.86.51-.21,1.95-1,2-1s0,0,0,0c.12.2.24.4.37.6h.06c.79-1,1-1.13,1.47-1.3a1.54,1.54,0,0,1,1.36.38,1.8,1.8,0,0,1,.56.84c.24.71.48,1.43.7,2.15l.53-.15c.1.27.2.58.29.85-.4.15-.9.32-1.35.47s-.93.35-1.3.47c-.09-.27-.19-.59-.29-.86l.41-.18s0,0,0,0c-.14-.43-.36-1-.5-1.41a2.29,2.29,0,0,0-.39-.87.41.41,0,0,0-.48-.09,1.73,1.73,0,0,0-.71.65c.21.62.53,1.62.74,2.22l.46-.12c.1.27.21.58.29.85l-1.31.46-1.38.49-.28-.86.5-.21s0,0,0-.06l-.91-2.59-.66.21Zm8.73-5a2.63,2.63,0,0,1,1.21-.33,2.09,2.09,0,0,1,.08,1.34,3.78,3.78,0,0,0-1.17.26.62.62,0,0,0-.37.58,2,2,0,0,0,.32,1.11,1.55,1.55,0,0,0,.8.78,1,1,0,0,0,.79-.13,4,4,0,0,0,1-.86c.2.22.43.47.6.68a5,5,0,0,1-1.55,1.45,2.22,2.22,0,0,1-3.17-.83,3,3,0,0,1,1.47-4.05Zm3.67-2.42a2,2,0,0,1,1.56-.41A2.59,2.59,0,0,1,444.89,88a1.6,1.6,0,0,1-.11.86c-.22.21-1.13.88-1.93,1.45a1,1,0,0,0,.67.41,1.13,1.13,0,0,0,.82-.27,5.52,5.52,0,0,0,1.08-1.16,7.09,7.09,0,0,1,.71.61,6.46,6.46,0,0,1-1.43,1.69c-1.19.86-2.52.94-3.45-.33a2.72,2.72,0,0,1,.61-3.92Zm.12,1.43a1.39,1.39,0,0,0,.35.83l1-.76c.05,0,.05-.09,0-.15a1.6,1.6,0,0,0-.52-.49.5.5,0,0,0-.59,0,.54.54,0,0,0-.25.54Z"/><path class="cls-2" d="M391.41,30c-.2-.23-.43-.48-.62-.71l1.08-1,1.91-1.75c.34-.3.61-.57.81-.74.49.47,1,.94,1.49,1.43-.21.25-.46.55-.71.83l-.8-.56a.21.21,0,0,0-.29,0,7.92,7.92,0,0,0-.93.73l-.06.07,1.6,1.77c.26-.23.51-.46.76-.71s.13-.2.05-.32l-.26-.39.78-.68.78.9c.28.3.54.6.76.85-.24.24-.49.47-.75.71l-.38-.34c-.11-.11-.2-.11-.33,0s-.53.44-.78.67l1.27,1.42.91-.78c.21.23.43.47.63.71-.45.41-1.08,1-1.59,1.43l-1.12,1c-.21-.23-.42-.46-.62-.7l.4-.4a.06.06,0,0,0,0-.06l-3.51-3.86-.48.41Zm8-4.78A2,2,0,0,1,401,24.9,2.61,2.61,0,0,1,402.37,26a1.72,1.72,0,0,1-.15.86c-.24.19-1.18.81-2,1.34a1,1,0,0,0,.64.44,1.05,1.05,0,0,0,.83-.22,5,5,0,0,0,1.14-1.11,8.55,8.55,0,0,1,.68.66,6.18,6.18,0,0,1-1.52,1.6c-1.23.8-2.57.81-3.42-.51a2.73,2.73,0,0,1,.81-3.88Zm.05,1.44a1.45,1.45,0,0,0,.31.84l1-.7c.06,0,.07-.09,0-.16a1.6,1.6,0,0,0-.49-.51.53.53,0,0,0-.6,0A.6.6,0,0,0,399.42,26.66Zm5.31-4.27a2.05,2.05,0,0,1,1.62-.07,2.64,2.64,0,0,1,1.21,1.36,1.64,1.64,0,0,1-.29.82c-.26.15-1.29.61-2.19,1a1,1,0,0,0,1.42.45,5.74,5.74,0,0,0,1.3-.91,6.64,6.64,0,0,1,.56.75,6.11,6.11,0,0,1-1.75,1.34c-1.34.59-2.66.39-3.3-1.05A2.73,2.73,0,0,1,404.73,22.39Zm-.18,1.43a1.43,1.43,0,0,0,.17.88l1.14-.52c.06,0,.07-.09,0-.16a1.72,1.72,0,0,0-.41-.58.52.52,0,0,0-.58-.11.57.57,0,0,0-.36.49Zm7.74.93c-.85.69-1.08.78-1.33.84a1.76,1.76,0,0,1-1.39-.2,2.39,2.39,0,0,1-1.07-1.49,3.17,3.17,0,0,1,.3-2.34,2.18,2.18,0,0,1,1.32-1,3.86,3.86,0,0,1,1-.09l.06-.05c-.12-.48-.27-1-.41-1.56l-.82.18c-.08-.3-.15-.61-.22-.9.62-.21,2.36-.89,2.47-.91a0,0,0,0,1,0,0c.42,1.72,1.06,4.47,1.55,6.42,0,.07.05.1.09.1l.54-.17c.08.26.16.6.23.87a7.64,7.64,0,0,1-1.75.67,1.42,1.42,0,0,1-.51-.39l-.07,0Zm-.9-3.26a1.56,1.56,0,0,0-.68,0,.61.61,0,0,0-.46.43,2.31,2.31,0,0,0,.05,1.32,1.89,1.89,0,0,0,.46.92.67.67,0,0,0,.56.16A1.28,1.28,0,0,0,412,24s0-.08,0-.2C411.76,23,411.57,22.25,411.39,21.49ZM418.71,23s0,.09.07.1a1.15,1.15,0,0,0,.73.22,1.25,1.25,0,0,0,.77-.2.77.77,0,0,0,.28-.6c0-.55-.27-.67-1.12-1-1.12-.44-2-1.13-1.95-2.21a2.2,2.2,0,0,1,.78-1.64,3.43,3.43,0,0,1,2.36-.67,4.13,4.13,0,0,1,1.48.23c.05.67.09,1.36.12,2-.34,0-.74.09-1.13.12l-.23-1s0-.07-.05-.08a.86.86,0,0,0-.55-.18,1,1,0,0,0-.67.18.8.8,0,0,0-.31.63c0,.55.23.67,1.25,1,1.21.44,1.84,1.07,1.82,2.11a2.22,2.22,0,0,1-.85,1.76,3.6,3.6,0,0,1-2.35.59,6.07,6.07,0,0,1-1.69-.25c-.08-.69-.15-1.38-.21-2.06a11.19,11.19,0,0,1,1.16-.18l.29,1.1Zm7.15,1.46a3.87,3.87,0,0,1-1.67.21A1.53,1.53,0,0,1,423,23.16c.1-.6,1-1.52,2.73-1.23l.53.09c.12-.53,0-.89-.52-1a3.25,3.25,0,0,0-1.48.37,7.82,7.82,0,0,1-.43-.87,4.06,4.06,0,0,1,2.82-.63A1.72,1.72,0,0,1,428,21.84c-.12.72-.31,1.76-.4,2.22,0,.07,0,.09,0,.09l.59.08c0,.28-.1.61-.16.89a6.84,6.84,0,0,1-1.86-.09,6,6,0,0,1-.33-.55Zm-.66-.7a1.53,1.53,0,0,0,.77-.11.08.08,0,0,0,0-.07c.05-.26.08-.46.13-.75l-.22-.05c-.73-.12-1.09.13-1.15.48S425,23.73,425.2,23.77Zm6.63,1.75c-.09.29-.2.58-.29.86l-1.81-.58-1.39-.44c.1-.29.19-.58.29-.86l.53.14s0,0,.06,0c.29-.9.58-1.8.86-2.7l-.73-.23c.11-.32.22-.64.31-.93.2.06.46.14.64.18s.07,0,.09-.06a2.25,2.25,0,0,1,1.19-1.6,2.52,2.52,0,0,1,2.07-.22,3.26,3.26,0,0,1,1.09.56,1.93,1.93,0,0,1-.9,1,3.33,3.33,0,0,0-.82-.56c-.17-.06-.3-.07-.4.07a5.41,5.41,0,0,0-.53,1.37l1.35.42c-.1.31-.23.67-.35,1l-1.31-.42c-.24.74-.64,1.94-.89,2.73l.94.33Zm4.87-2.28a2,2,0,0,1,1.1,1.18,2.62,2.62,0,0,1-.24,1.8,1.66,1.66,0,0,1-.82.32c-.28-.1-1.3-.59-2.19-1a1,1,0,0,0,0,.78,1.07,1.07,0,0,0,.62.6,5.75,5.75,0,0,0,1.54.4,7.62,7.62,0,0,1-.21.92,6.43,6.43,0,0,1-2.16-.47c-1.31-.63-2-1.77-1.33-3.19a2.71,2.71,0,0,1,3.73-1.32Zm-1.2.79a1.35,1.35,0,0,0-.56.7l1.13.52c.06,0,.11,0,.14-.07a1.52,1.52,0,0,0,.19-.68.53.53,0,0,0-.31-.52.56.56,0,0,0-.59.05Zm2.15,5.19a1,1,0,0,1,.17-.94l.73-1.06.82-1.19-.64-.43c.17-.27.36-.52.55-.77.19.12.44.25.63.36a.08.08,0,0,0,.11,0l.58-.72a11.71,11.71,0,0,1,1.7.43s0,0,0,.06c-.15.2-.72,1-.9,1.26l1.42.95c-.18.27-.41.58-.62.84L440.84,27c0,.07-.18.25-.52.76l-.76,1.11a.51.51,0,0,0,.14.7,5.24,5.24,0,0,0,1.09.54c-.12.27-.27.58-.41.84a6.65,6.65,0,0,1-2.21-1,1.18,1.18,0,0,1-.52-.75Zm9.07,2.59-2.28,1.11a28.1,28.1,0,0,1-3.5,1.38,3.18,3.18,0,0,1-1.33.19c-.27-.24-.54-1.37-.35-1.58a3.81,3.81,0,0,0,1,.11,2.88,2.88,0,0,0,1.31-.23c.32-.86.57-1.51.9-2.33s.54-1.36.73-1.82c0,0,0-.05,0-.08l-.3-.3c.21-.23.45-.47.65-.68l1,.89,1.16,1.07c-.19.21-.43.47-.64.68l-.39-.33c-.11.22-.28.56-.52,1.09s-.35.79-.55,1.25l.05.05c.34-.2.69-.4,1-.64l1-.7s0-.05,0-.07l-.27-.27.65-.69c.28.26.65.59.93.86s.51.44.7.62c-.21.23-.42.45-.64.67Z"/></g></g></svg>