<svg xmlns="http://www.w3.org/2000/svg" xmlns:xlink="http://www.w3.org/1999/xlink" viewBox="0 0 817.74 850"><defs><style>.cls-1{fill:none;}.cls-2{fill:#13322b;}.cls-3{fill:#fff;}.cls-4{clip-path:url(#clip-path);}.cls-5{fill:#88b04b;fill-rule:evenodd;}</style><clipPath id="clip-path"><rect class="cls-1" x="393.29" y="80.5" width="398.42" height="450"/></clipPath></defs><g id="Calque_2" data-name="Calque 2"><g id="Calque_1-2" data-name="Calque 1"><rect class="cls-2" width="790" height="850"/><path class="cls-3" d="M247.81,729.8l11.4-1.38L263.54,741l-7.47,5.9h-35.8l-11-24.59-56.45-.2-4.13,11.22,8.65,13.57H120l51.73-116.65-8.46-21H199Zm-90.49-21.25,45.83-1.38-22.62-54.29Z"/><path class="cls-3" d="M372.52,666.06q0,10.23.1,20.85t.1,20.36v16l-24.2,24.2H299.34L277.12,729V665.27l-13.58-7.67,4.92-9h37l.2,71.4,6.88,14.36L335,732.16l8.26-14.56.2-53.7c-.4-.26-1-.72-1.87-1.38s-1.71-1.34-2.56-2.06-1.64-1.38-2.36-2a9.84,9.84,0,0,0-1.48-1.08v-8.85h37.38Z"/><path class="cls-3" d="M431.43,708.65q.1,13.08.1,24.69l8.66,3.34c0,1.7,0,3.38-.1,5s-.1,3.37-.1,5.21H403q0-3,.1-8.16c.06-3.48.13-7.38.19-11.71s.1-8.88.1-13.67V663.7l-10-6.29,4.72-8.85h31.08l1.18,18.09a127,127,0,0,1,12.39-10.23,74.67,74.67,0,0,1,11.51-7,26.31,26.31,0,0,1,11.51-3.05,29,29,0,0,1,9.24,1.38,47.21,47.21,0,0,1,7.28,3.05,32.88,32.88,0,0,1,5.22,3.34c1.37,1.12,2.32,1.87,2.85,2.26l-7.48,21.05-25.57-5.9a26.6,26.6,0,0,0-6.59,2.06c-2.56,1.12-5.11,2.33-7.67,3.64s-4.89,2.63-7,3.94l-4.72,2.95Q431.34,695.58,431.43,708.65Z"/><path class="cls-3" d="M536.08,726.55q6.6,8.36,21.35,9.15a26.45,26.45,0,0,0,11.41-7.87q4.71-5.51,10.22-12.79l22,8.07q-.2,1.57-2.76,5.41a51.92,51.92,0,0,1-6.59,7.86,50.7,50.7,0,0,1-9,7.18,19.9,19.9,0,0,1-9.73,3.35h-48.2q-5.1,0-10.72-6.2a62.58,62.58,0,0,1-9.93-15.34,80.37,80.37,0,0,1-6.29-19.47,42.87,42.87,0,0,1,.19-18.79,95.85,95.85,0,0,1,3.35-9.05,64.69,64.69,0,0,1,6.29-11.51,55,55,0,0,1,9.64-10.72,30.72,30.72,0,0,1,13.57-6.68,123.8,123.8,0,0,1,12.79-1.58,144.93,144.93,0,0,1,15.05-.39,104.3,104.3,0,0,1,14.16,1.28q6.58,1.08,9.93,3.44a34.07,34.07,0,0,1,6.2,6.2,51.64,51.64,0,0,1,5.9,9.34,62.52,62.52,0,0,1,4.33,11.41A52.51,52.51,0,0,1,601.1,691l-13.18,10.82-59.41,3.35Q529.5,718.19,536.08,726.55Zm33.84-45.24q-1.27-4.62-3.15-9.64a77.11,77.11,0,0,0-3.93-8.95c-1.38-2.63-2.66-4-3.84-4.13a18.05,18.05,0,0,0-5,.39c-2,.39-4.14.89-6.3,1.48s-4.23,1.24-6.2,2a33.93,33.93,0,0,0-4.72,2.07,15.66,15.66,0,0,0-2.75,4.33,54.78,54.78,0,0,0-2.56,6.68,61,61,0,0,0-1.87,7.68,41.34,41.34,0,0,0-.69,7.08l42.49-2.76A54.62,54.62,0,0,0,569.92,681.31Z"/><path class="cls-3" d="M656,730.38l14,4.14v12.39H628.64L629,625.54l-15.15-6.88,2.56-9.45H656Z"/><g class="cls-4"><g id="lake_forest_open_lands_association"><path class="cls-5" d="M627,107.3c25.11.16,50.62,3.78,78.77,3.78,12.84,0,27.07.14,40.65,1,17,1.1,35.43-1.89,45,6.56,1.62,1.44,3,3.84,4.55,6.06s3.15,4.22,4,6.31c5,11.8,3.74,28.32,4,45.2-.21,0-.23.09-.25.25-2.44,4-7,5.9-10.6,8.58-25.8,19.1-51.34,36.15-78,55.8-14.28,10.51-29.41,21.77-43.68,32.82-6.92,5.36-15,10.05-22.47,15.91-3.27,2.56-6.65,5.74-11.36,7.83-4.35,1.91-9.3,5.34-13.38,5.55-10.17.54-10-7.06-11.87-15.65-.43-2-.56-4.88-1-7.57s-1.29-5.76-.76-7.32c1.16-3.44,6.17-3.48,11.1-4.8,12.23-3.27,19.68-8.84,27.52-17.17,4.28-4.54,9-9.59,11.62-14.14,1.88-3.33,3.3-8.08,4.79-12.87a81.84,81.84,0,0,0,3.54-14.15c.7-5.85.26-17.8-1-23.23-1.64-7-6.22-14.22-9.85-20.45-9.46-16.24-18.51-31-27.77-48-1.28-2.34-5.58-7.75-4.29-9.84A1.76,1.76,0,0,1,627,107.3Z"/><path class="cls-5" d="M608.06,123.71c-.7,2.9-3.2,4.71-5.06,6.56s-3.89,3.85-5.8,5.81c-10.14,12.93-22.31,23.81-32.83,36.36-2.21,6.27-4.7,12.44-6.81,18.94-2,6.28-5.37,12.49-6.57,19.19-1.36,7.53.76,16,.25,24.74,0,.2.26.25.26.5,2.1,4.88,5.12,8.46,7.57,12.38a85.21,85.21,0,0,0,8.07,11.61c7,7.93,17.37,12.7,25.76,19.69,6.17,5.15,9.05,11.22,10.61,20.71a94,94,0,0,1,.75,10.35c.15,3.29.56,7.24-1.51,9.59-2.55,1.23-5.25.17-7.32-.76s-4.67-1.59-6.31-2.77c-2.27-1.63-4.13-5.43-6.06-8.59-5.45-8.9-12.33-17.31-17.18-26-3.29-5.92-6.76-12.14-11.6-17.42-2-2.22-4.52-5-7.08-7.32-2.33-2.15-5.32-5.36-7.82-6.57-5.34-2.56-16.21-4.22-23.48-4.8-6.16-.47-15.39,1.26-20.46,3s-9.8,5.23-14.39,8.07c-4.85,3-10.43,5.33-14.65,8.59s-7.7,8.56-11.35,12.87c-1.84,2.17-3.91,4.25-5.56,6.57s-2.75,5.56-5.8,6.06c-1.26-5.45-.51-11.24-.51-16.92,0-16.59-2.38-33.22-3-50.5-.44-11.64-.58-23.2-.76-34.34-.18-11.72-.42-23.23.26-34.33.75-12.4,6.27-23.91,14.64-29.29,11.62-7.46,34.32-5.14,52.27-4.28,22,1,45.05-.72,67.92.51,5.75.31,11.49.36,17.16.5C597.11,122.58,602.79,122.1,608.06,123.71Z"/><path class="cls-5" d="M808.54,311.81c-2.8,2.09-6.44,2.44-9.85,3.29-10.2,2.54-21.22,5.28-32.32,7.07-7.37,1.18-14.87,2.41-22.47,3.78-7.43,1.35-15.12,1.95-22.73,3.28-14.6,2.58-28.84,6.53-44.18,8.33a221.8,221.8,0,0,1-25.25,1c-12.06,0-26.72,1.51-31.31-6.31-.3-4.35-.68-9,.25-12.12,1.12-3.71,5.23-7,8.08-9.59a82.86,82.86,0,0,1,9.85-7.83c7.72-1.38,19.66-4.71,27.77-2.78,2.55.61,4.5,2.33,7.07,3.54s5,2,7.32,3c4.62,2.13,9.42,5.26,14.39,6.56s14.16,1.36,20.2,2c2.14.24,4.5.85,6.31.76,2.89-.16,6.71-2.32,9.6-3.79,8.76-4.48,17.74-8.65,25.24-14.14,4.76-7.25,9.3-15.16,13.89-23.23,4.41-7.74,9.26-15.51,12.63-24.24,5.09-13.21,10.65-26.2,15.14-40.15,2.07-6.42,5.45-11.29,7.32-18.18.54-2,.38-4.39,1.26-5.8,1.38-2.22,5.88-3.33,8.08-4.3,4.19-1.84,2.66,5,2.53,6.06a224.79,224.79,0,0,0-1.26,25.25c0,12.26-1.48,22.39-2.78,32.57-1.4,11-1.7,22.24-2.53,32.82C810,289.66,810.05,301.51,808.54,311.81Z"/><path class="cls-5" d="M606,367.87c-3.71,1.2-10.92,1.18-14.9-.26-3.34-1.2-6.52-3.36-9.85-5.05-9.61-4.87-17.51-11.57-27.52-16.41a183.33,183.33,0,0,0-21-8.59c-10.81-3.64-24.28-8.66-37.62-4.29-5,1.64-9.18,5.3-13.37,8.84-12,10.11-24.06,20.26-34.34,31.81-2.4,1.39-3.59,5.33-7.07,4.8-1.63-2.4-1.2-5.78-1.26-8.84-.33-16.4-.25-31.63-1-48.48-.11-2.6-.39-5.78-.5-9.34-.1-3.1-.84-8.27.76-8.83a1.76,1.76,0,0,1,.76-.51c13,.83,26,2.8,38.88,4.54,11.72,1.59,23.7,2.78,35.35,4.55,17.29,2.63,34.33,5.09,51.51,8.33,9.79,1.85,21.21,1.9,26.25,8.33,1.93,2.45,2.66,6.56,4.05,9.85s3,6.5,4.29,9.34C602.3,354.22,605.83,360.17,606,367.87Z"/><path class="cls-5" d="M794.65,325.19c2.63-.86,1.77,5.73,1.77,8.33,0,9.3-.21,18.63,0,29,.24,12.38,1.41,24.94,2.27,36.62,1.42,19.15,1,36.14.25,55.54-.25,6.74.77,14.52-1,20.45-.73,2.43-2.36,4.86-3.53,7.58-3.1,7.13-9.16,16.31-16.16,19.19-4.77,2-10.94,1.26-17.68,1.26s-13-.26-18.93-.51c-13.15-.55-27.13-.25-37.63-.25-12.51,0-24.94-1-37.36-1-12.7,0-25.3-.66-37.37-1.52-2.92-6.21-2.71-14.17-3.53-22-1.66-15.8-4.62-28.5-5.81-44.94-.46-6.41-.68-19.22,3.54-21.21,2.62-1.24,6.84.34,9.84,1.52,3.33,1.31,6.64,2,9.35,3,17.54,6.5,36.19,14.05,53.77,20,18.59,6.22,36.81,12.47,55.3,18.68,3.08,1,6.25,2.1,9.34,3s6.1,2.86,9.34,1.76c.17-4.65-2.32-8.93-4-13.13-3.38-8.24-6.85-16.49-10.35-24.74-1.76-4.14-3.15-8.49-5-12.37-2.36-4.8-5.84-9.31-9.09-13.38a89.23,89.23,0,0,0-11.11-11.36c-20.12-9.31-44.87-1.11-64.9,3.28-9.25,2-18.53,4.7-25.49,8.59-6.51-.35-9.71,2.29-15.91,3.53-4.2.84-10.92,1.37-13.12-1.26s-.8-10.81-.26-14.65a93.6,93.6,0,0,1,7.07-25.5c1.49-3.48,3.16-9.47,5.05-11.11,1.21-1.05,4.7-1.9,6.57-2.52,2-.69,5-1.93,7.07-2,3.44-.16,8.47,1.51,12.12,2.78,10.61,3.68,20.44,9.61,29.54,14.39,9.7,5.09,19.1,9.77,29.79,14.14,3.58,1.46,7.48,3.32,10.86,3.78,9.32,1.29,18,.11,25.24-3.78,4.67-2.49,9-7.21,13.38-11.11s8.46-8.44,12.38-12.12C778.84,343.05,786.27,334,794.65,325.19Z"/><path class="cls-5" d="M593.42,391.6c4.11,10.77,6.78,22.75,9.59,35.1.87,3.82,2.53,7.85,1.77,11.86-2.51,2-6,.9-8.85.76-41-1.95-82.79-3.68-122.95-6.56-3.16-.23-6.45-.35-9.6-.51-2.75-.13-5.87-1.21-8.33.51.09,3.72,2.86,6.63,4.55,9.85s3.43,6.38,5,9.59c3.29,6.54,6.47,13.43,10.36,18.94,3.2,4.54,9.76,8.81,15.14,11.87a63.83,63.83,0,0,0,8.34,4.29c3.22,1.24,6.58,2.78,10.09,3.28a73.29,73.29,0,0,0,10.1.25,149.9,149.9,0,0,0,15.15-.51c2.72-.33,5.72-2.06,8.84-3.28,2.87-1.12,5.71-2.49,8.33-3.53,15.09-6,22.85-15.72,36.62-23.48,2.24-1.27,6.36-4,8.07-3.78,2.23.28,3.18,3.37,4.05,6.05s2.18,5.06,2.77,7.07c1.73,5.87,2.18,11.84,3,18.43.74,5.67,3,12.35,2.53,18.43-4.43,1.54-9.22.33-13.89.25-4.95-.08-10-.5-15.15-.5-29.72,0-62.28,1.61-90.39,1.51-3.22,0-6.68-.5-10.1-.5-6.33,0-10.95.07-15.15-2a30.84,30.84,0,0,1-8.07-6c-4.55-4.54-8.86-7.91-9.6-15.91-.66-7.16.63-15.5,1-23.48.88-18.53,1.4-39.08,2.28-58.32.16-3.59,0-7.47,1.51-10.61,8.72-.7,16.62,1.31,24,3.28s14.3,4.29,21.21,6.82c14,5.15,28.78,11.74,44.94,11.36,10.68-.25,19.36-6.47,27-11.11,3.08-1.86,6.36-3.79,9.59-5.81C582.06,392.13,587.56,386,593.42,391.6Z"/></g></g></g></g></svg>