<svg id="Calque_1" data-name="Calque 1" xmlns="http://www.w3.org/2000/svg" viewBox="0 0 306 142"><defs><style>.cls-1{fill:none;}.cls-2{fill:#13322b;}</style></defs><circle class="cls-1" cx="98.51" cy="59.39" r="44.46"/><path class="cls-2" d="M205.17,12.71l-103.62,0a71.14,71.14,0,0,0-12.62.83,46.54,46.54,0,0,0-4.41,90.12l.35.1c.42.12.83.25,1.26.36,3.93,1.06,8.09,1.46,16.22,1.46H205.16a46.44,46.44,0,1,0,0-92.87Zm0,88.74H117.9a46.54,46.54,0,0,0-.12-84.62h87.37a42.31,42.31,0,1,1,0,84.62ZM140.69,59.06a42.37,42.37,0,1,1-12.41-29.95A42.36,42.36,0,0,1,140.69,59.06Z"/><path class="cls-2" d="M111.34,38.14a1.51,1.51,0,1,0-1.51-1.5A1.51,1.51,0,0,0,111.34,38.14Zm-5.5-10.57v7.78c0,1.78.84,2.68,2.72,2.68a2.38,2.38,0,0,0,.46,0V36.12c-.66,0-.88-.21-.88-.78V27.57ZM107,26a1.5,1.5,0,0,0,1.4-.92,1.51,1.51,0,1,0-2.9-.58A1.5,1.5,0,0,0,107,26Zm-6.08,7.6c1.39.13,1.72.52,1.72,1.31s-.8,1.31-2.46,1.31a8.93,8.93,0,0,1-3.07-.57v2a9.65,9.65,0,0,0,3.41.56c3.28,0,4.4-1.55,4.4-3.32S104.09,32,101,31.75c-1.34-.12-1.71-.43-1.71-1.15,0-.93.76-1.31,2-1.31a8.55,8.55,0,0,1,3.16.58v-2a8,8,0,0,0-3.2-.52c-3,0-4.19,1.51-4.19,3.28S97.81,33.35,100.91,33.62ZM98.47,96.73s22.94-38.9,23.14-39.28H75.19C75.35,57.85,98.47,96.73,98.47,96.73Zm10.79-55.36a12.8,12.8,0,0,0-10.72,5.71,12.78,12.78,0,0,0-10.71-5.71A13,13,0,0,0,74.72,53.65h47.46A12.92,12.92,0,0,0,109.26,41.37ZM88.89,37.08a5.43,5.43,0,0,0,3.34,1.08c3,0,4.13-2,4.13-5.41s-1.12-5.41-4.13-5.41a5.32,5.32,0,0,0-2.77.81V22.41H87.15V37.89h1.36Zm.57-7.21a4.38,4.38,0,0,1,2.23-.59c2,0,2.34,1.54,2.34,3.44s-.31,3.45-2.34,3.45a4.39,4.39,0,0,1-2.23-.6Zm60.36,6.46V25.79h1.58V36.34Zm3.71-1.46a17.2,17.2,0,0,0,2.49.23,3.42,3.42,0,0,0,2.24-.59,1.49,1.49,0,0,0,.44-1.09c0-1-.66-1.37-2.46-1.91s-3-1.28-3-3.06a2.58,2.58,0,0,1,1-2.1,4.17,4.17,0,0,1,2.63-.72,15.82,15.82,0,0,1,2.91.33l-.19,1.31a14.29,14.29,0,0,0-2.44-.23,3.38,3.38,0,0,0-1.82.37,1.18,1.18,0,0,0-.49,1c0,1.08.83,1.39,2.57,1.91s2.86,1.25,2.86,3.09a2.83,2.83,0,0,1-1.06,2.33,4.63,4.63,0,0,1-2.89.77,17.75,17.75,0,0,1-3-.31Zm7.93-3.81c0-3.57,1.35-5.44,4.55-5.44s4.56,1.87,4.56,5.44S169.21,36.5,166,36.5,161.46,34.63,161.46,31.06Zm7.5,0c0-2.78-.83-4-3-4s-2.95,1.25-2.95,4,.84,4.06,2.92,4.06S169,33.85,169,31.06Zm2.43,5.27,4.09-10.55h1.28L172.7,36.33Zm6.75,0V25.79h1.57V36.34Zm3.8,0V25.79h6.27v1.39h-4.7v3h3.85v1.37h-3.85v3.36h4.7v1.39Zm15.11-.63a7.92,7.92,0,0,1-3.38.8A4.05,4.05,0,0,1,190.23,35a6.64,6.64,0,0,1-1-3.93,6.32,6.32,0,0,1,1.16-4.1A4.33,4.33,0,0,1,194,25.65a13.21,13.21,0,0,1,2.73.31l-.15,1.31A13.81,13.81,0,0,0,194,27a2.9,2.9,0,0,0-2.5.94,5.21,5.21,0,0,0-.72,3.08,5.47,5.47,0,0,0,.6,2.95,2.54,2.54,0,0,0,2.32,1.11,7.81,7.81,0,0,0,2.86-.66Zm-47.46,17V51.5c2.92-2.54,5-4.52,5-6.27,0-1.31-1-1.78-2.08-1.78a7.65,7.65,0,0,0-2.67.57l-.44-1.24a8,8,0,0,1,3.23-.74c2.11,0,3.57,1.07,3.57,3.15,0,2.29-2.31,4.27-4.55,6.17h4.7v1.39Zm9.84,0a36.38,36.38,0,0,1,3.71-9.18H157.9V42.17h6.89v1.31a33.43,33.43,0,0,0-3.65,9.25Zm6.88-5.27c0-3.54.73-5.44,3.81-5.44s3.8,1.9,3.8,5.44-.73,5.44-3.8,5.44S166.31,51,166.31,47.45Zm6,0c0-2.5-.15-4.06-2.23-4.06s-2.24,1.55-2.24,4.06.13,4.08,2.24,4.08S172.35,49.94,172.35,47.45Zm3.4,0c0-3.54.73-5.44,3.81-5.44s3.8,1.9,3.8,5.44-.73,5.44-3.8,5.44S175.75,51,175.75,47.45Zm6,0c0-2.5-.15-4.06-2.23-4.06s-2.24,1.55-2.24,4.06.13,4.08,2.24,4.08S181.79,49.94,181.79,47.45Zm5,5.27v-9l-2.19.83-.47-1.06L187,42.17h1.43V52.73ZM149.88,66.05v-7.6H151v7.6Zm6.12,0V62.47c0-.69-.32-1-.91-1a3,3,0,0,0-1.31.35v4.26H152.7V60.6h.79l.1.5a2.73,2.73,0,0,1,1.65-.62,1.71,1.71,0,0,1,1.85,1.9v3.67Zm2.88,0V61.46h-.8v-.78l.8,0V60a1.8,1.8,0,0,1,.43-1.31,1.93,1.93,0,0,1,1.39-.41,5.36,5.36,0,0,1,.8,0l-.06.9h-.74s-.48,0-.59.19a1.1,1.1,0,0,0-.16.71v.45h1.19v.88H160v4.59Zm5.42.12a2.37,2.37,0,0,1-1.73-.6,3.86,3.86,0,0,1,0-4.49,2.78,2.78,0,0,1,3.45,0,3.86,3.86,0,0,1,0,4.49,2.36,2.36,0,0,1-1.72.6Zm1.35-2.87a2.33,2.33,0,0,0-.38-1.52,1.44,1.44,0,0,0-2,0,2.34,2.34,0,0,0-.39,1.52,2.28,2.28,0,0,0,.39,1.52,1.22,1.22,0,0,0,1,.38,1.31,1.31,0,0,0,1-.38A2.28,2.28,0,0,0,165.65,63.3Zm2.3,2.75V60.6h.8l.14.65h.05a1.75,1.75,0,0,1,1.63-.76,3.69,3.69,0,0,1,.47,0l-.07,1a4.89,4.89,0,0,0-.66,0,2,2,0,0,0-1.31.42v4.21Zm10.4,0V62.44a.86.86,0,0,0-.93-1,2.69,2.69,0,0,0-1.27.38,3.68,3.68,0,0,1,.06.66v3.56h-1.05V62.44c0-.65-.32-1-.92-1a2.55,2.55,0,0,0-1.21.33v4.27H172V60.6h.79l.1.5a2.72,2.72,0,0,1,1.63-.62,1.57,1.57,0,0,1,1.42.7,2.7,2.7,0,0,1,1.7-.7c1.21,0,1.85.66,1.85,2v3.56Zm5.75,0-.12-.46a2.38,2.38,0,0,1-1.59.58,1.67,1.67,0,0,1-1.81-1.71,1.59,1.59,0,0,1,.58-1.27,2.31,2.31,0,0,1,1.46-.42,9.48,9.48,0,0,1,1.19,0v-.46a.86.86,0,0,0-.22-.65,1.39,1.39,0,0,0-1-.24,7.89,7.89,0,0,0-1.53.18l-.17-.9a6.85,6.85,0,0,1,1.8-.24,2.51,2.51,0,0,1,1.64.43,1.7,1.7,0,0,1,.53,1.4v3.71Zm-.29-2.44c-.26,0-.65,0-1,0-.79,0-1.16.29-1.16.89a.82.82,0,0,0,.27.64.8.8,0,0,0,.66.22,2,2,0,0,0,1.2-.4Zm5.48,2.21a2.88,2.88,0,0,1-1.31.32c-.89,0-1.39-.49-1.39-1.48V61.48h-.82v-.8l.86,0,.08-1.6h1v1.56h1.52v.88h-1.52v3c0,.4.07.65.48.65a1.72,1.72,0,0,0,.8-.2Zm1.6-7.4a.59.59,0,0,1,.42,1,.59.59,0,0,1-.84-.84.56.56,0,0,1,.42-.18Zm-.53,7.63V60.6h1.07v5.45Zm4.71.12a2.39,2.39,0,0,1-1.73-.6,3.86,3.86,0,0,1,0-4.49,2.78,2.78,0,0,1,3.45,0,3.81,3.81,0,0,1,0,4.46,2.39,2.39,0,0,1-1.72.63Zm1.36-2.87a2.34,2.34,0,0,0-.39-1.52,1.44,1.44,0,0,0-2,0,3.23,3.23,0,0,0,0,3,1.22,1.22,0,0,0,1,.38,1.3,1.3,0,0,0,1-.38A2.29,2.29,0,0,0,196.43,63.3Zm5.6,2.75V62.47c0-.69-.32-1-.92-1a3,3,0,0,0-1.31.35v4.26h-1.05V60.6h.8l.09.5a2.78,2.78,0,0,1,1.65-.62,1.7,1.7,0,0,1,1.38.51,1.67,1.67,0,0,1,.47,1.39v3.67ZM207.37,65a11,11,0,0,0,1.8.16,2.39,2.39,0,0,0,1.62-.42,1,1,0,0,0,.32-.78c0-.74-.46-1-1.77-1.38s-2.15-.92-2.15-2.21a1.86,1.86,0,0,1,.73-1.51,3,3,0,0,1,1.88-.52,10.65,10.65,0,0,1,2.1.24l-.14.94a10.38,10.38,0,0,0-1.76-.16,2.3,2.3,0,0,0-1.31.27.79.79,0,0,0-.35.7c0,.78.6,1,1.85,1.39s2.06.89,2.06,2.23a2,2,0,0,1-.76,1.67,3.31,3.31,0,0,1-2.09.56,13,13,0,0,1-2.16-.22Zm10.15.74a4.59,4.59,0,0,1-1.89.44c-1.61,0-2.46-1-2.46-2.81,0-1.5.65-2.88,2.34-2.88,1.31,0,2.09.94,2.09,2.41a4.56,4.56,0,0,1-.08.82h-3.28a1.74,1.74,0,0,0,.37,1.12,1.38,1.38,0,0,0,1.09.38,4,4,0,0,0,1.56-.34Zm-.93-2.86c0-.82-.24-1.46-1.11-1.46s-1.17.7-1.21,1.46Zm6.09,2.86a4.5,4.5,0,0,1-1.87.44c-1.42,0-2.34-.8-2.34-2.82,0-2.31,1.16-2.86,2.5-2.86a7,7,0,0,1,1.51.16l-.13.89a8.64,8.64,0,0,0-1.24-.1c-1.05,0-1.59.41-1.59,1.89,0,1.31.44,1.88,1.37,1.88a3.71,3.71,0,0,0,1.46-.34Zm4.62.32-.09-.46a2.75,2.75,0,0,1-1.65.59,1.69,1.69,0,0,1-1.84-1.9V60.6h1.07v3.57c0,.74.32,1,1,1a3,3,0,0,0,1.27-.31V60.6h1.07v5.45Zm2.36,0V60.6h.8l.13.65h0a1.74,1.74,0,0,1,1.62-.78h.47l-.07,1a3.66,3.66,0,0,0-.66,0,2,2,0,0,0-1.31.41v4.23Zm4.49-7.63a.59.59,0,0,1,.42.17.59.59,0,0,1,0,.85.61.61,0,0,1-.42.17.59.59,0,0,1-.42-.17.6.6,0,0,1,0-.84A.56.56,0,0,1,234.15,58.42Zm-.53,7.63V60.6h1.07v5.45Zm5.53-.23a2.82,2.82,0,0,1-1.31.32,1.29,1.29,0,0,1-1.39-1.48V61.48h-.81v-.8l.85,0,.09-1.6h1v1.56h1.52v.88h-1.52v3c0,.4.07.65.48.65a1.66,1.66,0,0,0,.79-.2Zm2,2.38c.32-.84.58-1.58.77-2.15h-.54c-.56-1.51-1.12-3.49-1.62-5.45h1.12c.37,1.6.77,3.14,1.24,4.59h.08c.44-1.31.9-3,1.25-4.59h1.11a64.69,64.69,0,0,1-2.32,7.6Zm-85,11c-.06-2-.15-4.12-.25-6.12h-.06l-1.72,4.84h-1.25L151.15,73h-.06c-.09,2-.19,4.1-.25,6.12h-1.11c.08-2.52.2-5.06.35-7.6h1.65l1.74,5h.06l1.74-5h1.65c.15,2.53.27,5.07.36,7.6Zm5.86,0-.12-.46a2.38,2.38,0,0,1-1.59.58,1.68,1.68,0,0,1-1.28-.45,1.64,1.64,0,0,1-.52-1.26,1.58,1.58,0,0,1,.57-1.27,2.31,2.31,0,0,1,1.46-.42,9.63,9.63,0,0,1,1.2.05v-.46a.91.91,0,0,0-.23-.65,1.39,1.39,0,0,0-1-.24,7.89,7.89,0,0,0-1.53.18l-.16-.9a6.77,6.77,0,0,1,1.79-.24,2.51,2.51,0,0,1,1.64.43,1.69,1.69,0,0,1,.53,1.39V79.2Zm-.28-2.44c-.27,0-.66,0-1,0-.8,0-1.17.29-1.17.89a.84.84,0,0,0,.93.86,2,2,0,0,0,1.21-.4Zm5.91,2.44V75.58c0-.69-.32-1-.92-1a3.14,3.14,0,0,0-1.31.34v4.26h-1.07V73.71h.79l.09.5a2.78,2.78,0,0,1,1.65-.62,1.69,1.69,0,0,1,1.38.51,1.71,1.71,0,0,1,.48,1.39v3.67Zm5.74,0-.12-.46a2.38,2.38,0,0,1-1.59.58,1.68,1.68,0,0,1-1.28-.45,1.64,1.64,0,0,1-.52-1.26,1.62,1.62,0,0,1,.57-1.27,2.34,2.34,0,0,1,1.47-.42,9.48,9.48,0,0,1,1.19.05v-.46a1,1,0,0,0-.22-.65,1.4,1.4,0,0,0-1-.24,8,8,0,0,0-1.54.18l-.16-.9a6.77,6.77,0,0,1,1.79-.24,2.51,2.51,0,0,1,1.64.43,1.66,1.66,0,0,1,.53,1.39V79.2Zm-.28-2.44c-.27,0-.66,0-1,0-.79,0-1.17.29-1.17.89a.84.84,0,0,0,.93.86,2,2,0,0,0,1.21-.4Zm5.75,2.13a2.38,2.38,0,0,1-1.31.43c-1.55,0-2.11-1-2.11-2.8,0-2,.65-2.89,2.15-2.89a8.06,8.06,0,0,1,2.33.38v5.72a1.71,1.71,0,0,1-.5,1.31,2.51,2.51,0,0,1-1.68.47,10.19,10.19,0,0,1-1.75-.19l.14-.92a10.16,10.16,0,0,0,1.46.14,1.53,1.53,0,0,0,1-.24,1,1,0,0,0,.21-.66Zm0-4.2a6.41,6.41,0,0,0-1.16-.1c-.93,0-1.16.65-1.16,2s.25,1.9,1.15,1.9a2.53,2.53,0,0,0,1.17-.26Zm6.53,4.19a4.55,4.55,0,0,1-1.89.44c-1.6,0-2.46-1-2.46-2.81,0-1.5.65-2.88,2.35-2.88,1.31,0,2.09.94,2.09,2.41a4.57,4.57,0,0,1-.09.82H182.1a1.86,1.86,0,0,0,.37,1.12,1.41,1.41,0,0,0,1.09.38,4.06,4.06,0,0,0,1.57-.34ZM184.45,76c0-.81-.24-1.46-1.11-1.46s-1.16.71-1.21,1.46Zm8.63,3.19V75.55c0-.66-.32-1-.93-1a2.65,2.65,0,0,0-1.26.38q0,.33.06.66v3.55h-1.08v-3.6c0-.66-.32-1-.92-1a2.54,2.54,0,0,0-1.22.33v4.27h-1.07V73.71h.79l.09.5a2.75,2.75,0,0,1,1.64-.62,1.58,1.58,0,0,1,1.42.69,2.74,2.74,0,0,1,1.7-.69c1.21,0,1.85.66,1.85,2v3.56Zm6.5-.32a4.55,4.55,0,0,1-1.88.44c-1.61,0-2.47-1-2.47-2.81,0-1.5.66-2.88,2.35-2.88,1.31,0,2.09.94,2.09,2.41a3.81,3.81,0,0,1-.09.82h-3.27a1.79,1.79,0,0,0,.36,1.12,1.43,1.43,0,0,0,1.09.38,4.06,4.06,0,0,0,1.57-.34ZM198.65,76c0-.81-.23-1.46-1.1-1.46s-1.17.71-1.22,1.46Zm5.54,3.19V75.58c0-.69-.33-1-.92-1a3.11,3.11,0,0,0-1.31.34v4.26h-1.08V73.71h.8l.09.5a2.78,2.78,0,0,1,1.65-.62,1.7,1.7,0,0,1,1.38.51,1.67,1.67,0,0,1,.47,1.39v3.67Zm5.42-.23a3,3,0,0,1-1.31.32c-.88,0-1.39-.5-1.39-1.49V74.59h-.81v-.8l.85-.05.09-1.61h1v1.56h1.52v.89H208v3c0,.4.08.65.49.65a1.66,1.66,0,0,0,.79-.2Z"/></svg>