<svg id="Calque_1" data-name="Calque 1" xmlns="http://www.w3.org/2000/svg" viewBox="0 0 600 350"><defs><style>.cls-1,.cls-3{fill:#d0d0ce;}.cls-2{fill:#98bc62;}.cls-3{opacity:0.45;}.cls-4,.cls-6{fill:#88b04b;}.cls-4{fill-rule:evenodd;}.cls-5{fill:#13322b;}.cls-7{fill:#bfd833;}</style></defs><rect class="cls-1" x="70.79" y="116.06" width="4.72" height="4.72"/><rect class="cls-1" x="80.23" y="116.06" width="4.72" height="4.72"/><rect class="cls-1" x="70.79" y="106.63" width="4.72" height="4.72"/><rect class="cls-1" x="80.23" y="106.63" width="4.72" height="4.72"/><rect class="cls-1" x="80.23" y="125.51" width="4.72" height="4.72"/><rect class="cls-2" x="68.87" y="133.02" width="8.56" height="8.56"/><rect class="cls-1" x="80.23" y="134.95" width="4.72" height="4.72"/><rect class="cls-1" x="70.79" y="144.38" width="4.72" height="4.72"/><rect class="cls-1" x="80.23" y="144.38" width="4.72" height="4.72"/><rect class="cls-1" x="70.79" y="153.83" width="4.72" height="4.72"/><rect class="cls-1" x="80.23" y="153.83" width="4.72" height="4.72"/><rect class="cls-1" x="89.67" y="116.06" width="4.72" height="4.72"/><rect class="cls-1" x="89.67" y="125.51" width="4.72" height="4.72"/><rect class="cls-1" x="99.11" y="116.06" width="4.72" height="4.72"/><rect class="cls-1" x="89.67" y="106.63" width="4.72" height="4.72"/><rect class="cls-1" x="99.11" y="106.63" width="4.72" height="4.72"/><rect class="cls-1" x="99.11" y="125.51" width="4.72" height="4.72"/><rect class="cls-1" x="89.67" y="134.95" width="4.72" height="4.72"/><rect class="cls-1" x="99.11" y="134.95" width="4.72" height="4.72"/><rect class="cls-1" x="89.67" y="144.38" width="4.72" height="4.72"/><rect class="cls-1" x="99.11" y="144.38" width="4.72" height="4.72"/><rect class="cls-1" x="89.67" y="153.83" width="4.72" height="4.72"/><rect class="cls-1" x="99.11" y="153.83" width="4.72" height="4.72"/><rect class="cls-1" x="108.55" y="116.06" width="4.72" height="4.72"/><rect class="cls-1" x="108.55" y="106.63" width="4.72" height="4.72"/><rect class="cls-1" x="108.55" y="125.51" width="4.72" height="4.72"/><rect class="cls-1" x="108.55" y="134.95" width="4.72" height="4.72"/><rect class="cls-1" x="108.55" y="144.38" width="4.72" height="4.72"/><rect class="cls-1" x="108.55" y="153.83" width="4.72" height="4.72"/><rect class="cls-1" x="117.99" y="116.06" width="4.72" height="4.72"/><rect class="cls-1" x="117.99" y="125.51" width="4.72" height="4.72"/><rect class="cls-1" x="117.99" y="106.63" width="4.72" height="4.72"/><rect class="cls-1" x="127.43" y="106.63" width="4.72" height="4.72"/><rect class="cls-1" x="127.43" y="125.51" width="4.72" height="4.72"/><rect class="cls-1" x="117.99" y="134.95" width="4.72" height="4.72"/><rect class="cls-1" x="127.43" y="134.95" width="4.72" height="4.72"/><rect class="cls-1" x="117.99" y="144.38" width="4.72" height="4.72"/><rect class="cls-1" x="127.43" y="144.38" width="4.72" height="4.72"/><rect class="cls-1" x="117.99" y="153.83" width="4.72" height="4.72"/><rect class="cls-1" x="127.43" y="153.83" width="4.72" height="4.72"/><rect class="cls-1" x="4.71" y="97.19" width="4.72" height="4.72"/><rect class="cls-1" x="14.15" y="97.19" width="4.72" height="4.72"/><rect class="cls-1" x="33.03" y="59.42" width="4.72" height="4.72"/><rect class="cls-1" x="23.59" y="49.99" width="4.72" height="4.72"/><rect class="cls-1" x="33.03" y="68.87" width="4.72" height="4.72"/><rect class="cls-1" x="33.03" y="78.31" width="4.72" height="4.72"/><rect class="cls-1" x="23.59" y="87.74" width="4.72" height="4.72"/><rect class="cls-1" x="33.03" y="87.74" width="4.72" height="4.72"/><rect class="cls-1" x="42.47" y="59.42" width="4.72" height="4.72"/><rect class="cls-1" x="42.47" y="49.99" width="4.72" height="4.72"/><rect class="cls-1" x="42.47" y="68.87" width="4.72" height="4.72"/><rect class="cls-1" x="42.47" y="78.31" width="4.72" height="4.72"/><rect class="cls-1" x="51.91" y="59.42" width="4.72" height="4.72"/><rect class="cls-1" x="51.91" y="68.87" width="4.72" height="4.72"/><rect class="cls-1" x="61.35" y="59.42" width="4.72" height="4.72"/><rect class="cls-1" x="51.91" y="49.99" width="4.72" height="4.72"/><rect class="cls-1" x="61.35" y="49.99" width="4.72" height="4.72"/><rect class="cls-1" x="61.35" y="68.87" width="4.72" height="4.72"/><rect class="cls-1" x="61.35" y="78.31" width="4.72" height="4.72"/><rect class="cls-1" x="70.79" y="59.42" width="4.72" height="4.72"/><rect class="cls-1" x="70.79" y="68.87" width="4.72" height="4.72"/><rect class="cls-1" x="80.23" y="59.42" width="4.72" height="4.72"/><rect class="cls-1" x="70.79" y="49.99" width="4.72" height="4.72"/><rect class="cls-1" x="80.23" y="49.99" width="4.72" height="4.72"/><rect class="cls-1" x="80.23" y="68.87" width="4.72" height="4.72"/><rect class="cls-1" x="70.79" y="78.31" width="4.72" height="4.72"/><rect class="cls-1" x="80.23" y="78.31" width="4.72" height="4.72"/><rect class="cls-1" x="70.79" y="87.74" width="4.72" height="4.72"/><rect class="cls-1" x="80.23" y="87.74" width="4.72" height="4.72"/><rect class="cls-1" x="70.79" y="97.19" width="4.72" height="4.72"/><rect class="cls-1" x="80.23" y="97.19" width="4.72" height="4.72"/><rect class="cls-1" x="89.67" y="59.42" width="4.72" height="4.72"/><rect class="cls-1" x="89.67" y="68.87" width="4.72" height="4.72"/><rect class="cls-1" x="89.67" y="49.99" width="4.72" height="4.72"/><rect class="cls-1" x="99.11" y="49.99" width="4.72" height="4.72"/><rect class="cls-1" x="99.11" y="68.87" width="4.72" height="4.72"/><rect class="cls-1" x="89.67" y="78.31" width="4.72" height="4.72"/><rect class="cls-1" x="99.11" y="78.31" width="4.72" height="4.72"/><rect class="cls-1" x="89.67" y="87.74" width="4.72" height="4.72"/><rect class="cls-1" x="99.11" y="87.74" width="4.72" height="4.72"/><rect class="cls-1" x="89.67" y="97.19" width="4.72" height="4.72"/><rect class="cls-1" x="99.11" y="97.19" width="4.72" height="4.72"/><rect class="cls-1" x="108.55" y="59.42" width="4.72" height="4.72"/><rect class="cls-1" x="108.55" y="49.99" width="4.72" height="4.72"/><rect class="cls-1" x="108.55" y="68.87" width="4.72" height="4.72"/><rect class="cls-1" x="108.55" y="87.74" width="4.72" height="4.72"/><rect class="cls-1" x="108.55" y="97.19" width="4.72" height="4.72"/><rect class="cls-1" x="117.99" y="59.42" width="4.72" height="4.72"/><rect class="cls-1" x="117.99" y="68.87" width="4.72" height="4.72"/><rect class="cls-1" x="117.99" y="49.99" width="4.72" height="4.72"/><rect class="cls-1" x="127.43" y="49.99" width="4.72" height="4.72"/><rect class="cls-1" x="127.43" y="68.87" width="4.72" height="4.72"/><rect class="cls-1" x="117.99" y="78.31" width="4.72" height="4.72"/><rect class="cls-1" x="127.43" y="78.31" width="4.72" height="4.72"/><rect class="cls-1" x="117.99" y="87.74" width="4.72" height="4.72"/><rect class="cls-1" x="127.43" y="87.74" width="4.72" height="4.72"/><rect class="cls-1" x="117.99" y="97.19" width="4.72" height="4.72"/><rect class="cls-1" x="127.43" y="97.19" width="4.72" height="4.72"/><rect class="cls-1" x="136.87" y="116.06" width="4.72" height="4.72"/><rect class="cls-1" x="146.31" y="116.06" width="4.72" height="4.72"/><rect class="cls-1" x="136.87" y="106.63" width="4.72" height="4.72"/><rect class="cls-1" x="146.31" y="106.63" width="4.72" height="4.72"/><rect class="cls-1" x="146.31" y="125.51" width="4.72" height="4.72"/><rect class="cls-1" x="136.87" y="134.95" width="4.72" height="4.72"/><rect class="cls-1" x="136.87" y="144.38" width="4.72" height="4.72"/><rect class="cls-1" x="146.31" y="144.38" width="4.72" height="4.72"/><rect class="cls-1" x="136.87" y="153.83" width="4.72" height="4.72"/><rect class="cls-1" x="146.31" y="153.83" width="4.72" height="4.72"/><rect class="cls-1" x="155.75" y="116.06" width="4.72" height="4.72"/><rect class="cls-1" x="155.75" y="125.51" width="4.72" height="4.72"/><rect class="cls-1" x="165.19" y="116.06" width="4.72" height="4.72"/><rect class="cls-1" x="165.19" y="106.63" width="4.72" height="4.72"/><rect class="cls-1" x="165.19" y="125.51" width="4.72" height="4.72"/><rect class="cls-1" x="155.75" y="134.95" width="4.72" height="4.72"/><rect class="cls-1" x="165.19" y="134.95" width="4.72" height="4.72"/><rect class="cls-1" x="155.75" y="144.38" width="4.72" height="4.72"/><rect class="cls-1" x="165.19" y="144.38" width="4.72" height="4.72"/><rect class="cls-2" x="153.83" y="151.9" width="8.56" height="8.56"/><rect class="cls-1" x="174.63" y="116.06" width="4.72" height="4.72"/><rect class="cls-1" x="174.63" y="106.63" width="4.72" height="4.72"/><rect class="cls-1" x="174.63" y="134.95" width="4.72" height="4.72"/><rect class="cls-1" x="184.07" y="116.06" width="4.72" height="4.72"/><rect class="cls-1" x="184.07" y="125.51" width="4.72" height="4.72"/><rect class="cls-1" x="193.51" y="116.06" width="4.72" height="4.72"/><rect class="cls-1" x="184.07" y="106.63" width="4.72" height="4.72"/><rect class="cls-1" x="193.51" y="125.51" width="4.72" height="4.72"/><rect class="cls-1" x="80.23" y="172.7" width="4.72" height="4.72"/><rect class="cls-1" x="80.23" y="163.27" width="4.72" height="4.72"/><rect class="cls-1" x="89.67" y="182.15" width="4.72" height="4.72"/><rect class="cls-1" x="99.11" y="172.7" width="4.72" height="4.72"/><rect class="cls-1" x="89.67" y="163.27" width="4.72" height="4.72"/><rect class="cls-1" x="99.11" y="163.27" width="4.72" height="4.72"/><rect class="cls-1" x="99.11" y="182.15" width="4.72" height="4.72"/><rect class="cls-1" x="99.11" y="191.59" width="4.72" height="4.72"/><rect class="cls-1" x="108.55" y="172.7" width="4.72" height="4.72"/><rect class="cls-1" x="108.55" y="163.27" width="4.72" height="4.72"/><rect class="cls-1" x="108.55" y="182.15" width="4.72" height="4.72"/><rect class="cls-1" x="108.55" y="191.59" width="4.72" height="4.72"/><rect class="cls-1" x="117.99" y="163.27" width="4.72" height="4.72"/><rect class="cls-1" x="127.43" y="163.27" width="4.72" height="4.72"/><rect class="cls-1" x="117.99" y="191.59" width="4.72" height="4.72"/><rect class="cls-1" x="127.43" y="191.59" width="4.72" height="4.72"/><rect class="cls-1" x="117.99" y="201.02" width="4.72" height="4.72"/><rect class="cls-1" x="127.43" y="201.02" width="4.72" height="4.72"/><rect class="cls-1" x="136.87" y="172.7" width="4.72" height="4.72"/><rect class="cls-1" x="136.87" y="182.15" width="4.72" height="4.72"/><rect class="cls-1" x="136.87" y="163.27" width="4.72" height="4.72"/><rect class="cls-1" x="146.31" y="163.27" width="4.72" height="4.72"/><rect class="cls-1" x="146.31" y="182.15" width="4.72" height="4.72"/><rect class="cls-1" x="146.31" y="191.59" width="4.72" height="4.72"/><rect class="cls-1" x="136.87" y="201.02" width="4.72" height="4.72"/><rect class="cls-1" x="136.87" y="210.47" width="4.72" height="4.72"/><rect class="cls-1" x="146.31" y="210.47" width="4.72" height="4.72"/><rect class="cls-1" x="155.75" y="191.59" width="4.72" height="4.72"/><rect class="cls-1" x="165.19" y="191.59" width="4.72" height="4.72"/><rect class="cls-1" x="155.75" y="210.47" width="4.72" height="4.72"/><rect class="cls-1" x="165.19" y="210.47" width="4.72" height="4.72"/><rect class="cls-1" x="174.63" y="210.47" width="4.72" height="4.72"/><rect class="cls-1" x="184.07" y="210.47" width="4.72" height="4.72"/><rect class="cls-2" x="257.67" y="170.78" width="8.56" height="8.56"/><rect class="cls-1" x="259.59" y="182.15" width="4.72" height="4.72"/><rect class="cls-1" x="250.15" y="191.59" width="4.72" height="4.72"/><rect class="cls-1" x="259.59" y="191.59" width="4.72" height="4.72"/><rect class="cls-1" x="250.15" y="201.02" width="4.72" height="4.72"/><rect class="cls-1" x="259.59" y="201.02" width="4.72" height="4.72"/><rect class="cls-1" x="259.59" y="210.47" width="4.72" height="4.72"/><rect class="cls-1" x="136.87" y="59.42" width="4.72" height="4.72"/><rect class="cls-1" x="136.87" y="68.87" width="4.72" height="4.72"/><rect class="cls-1" x="146.31" y="59.42" width="4.72" height="4.72"/><rect class="cls-1" x="146.31" y="49.99" width="4.72" height="4.72"/><rect class="cls-1" x="146.31" y="68.87" width="4.72" height="4.72"/><rect class="cls-1" x="136.87" y="78.31" width="4.72" height="4.72"/><rect class="cls-1" x="146.31" y="78.31" width="4.72" height="4.72"/><rect class="cls-1" x="136.87" y="87.74" width="4.72" height="4.72"/><rect class="cls-1" x="136.87" y="97.19" width="4.72" height="4.72"/><rect class="cls-1" x="155.75" y="68.87" width="4.72" height="4.72"/><rect class="cls-1" x="165.19" y="59.42" width="4.72" height="4.72"/><rect class="cls-1" x="155.75" y="49.99" width="4.72" height="4.72"/><rect class="cls-1" x="165.19" y="49.99" width="4.72" height="4.72"/><rect class="cls-1" x="155.75" y="78.31" width="4.72" height="4.72"/><rect class="cls-1" x="165.19" y="78.31" width="4.72" height="4.72"/><rect class="cls-1" x="165.19" y="87.74" width="4.72" height="4.72"/><rect class="cls-1" x="165.19" y="97.19" width="4.72" height="4.72"/><rect class="cls-1" x="174.63" y="59.42" width="4.72" height="4.72"/><rect class="cls-1" x="174.63" y="49.99" width="4.72" height="4.72"/><rect class="cls-1" x="174.63" y="68.87" width="4.72" height="4.72"/><rect class="cls-1" x="174.63" y="78.31" width="4.72" height="4.72"/><rect class="cls-1" x="174.63" y="97.19" width="4.72" height="4.72"/><rect class="cls-1" x="184.07" y="59.42" width="4.72" height="4.72"/><rect class="cls-1" x="184.07" y="68.87" width="4.72" height="4.72"/><rect class="cls-1" x="184.07" y="78.31" width="4.72" height="4.72"/><rect class="cls-2" x="182.15" y="85.82" width="8.56" height="8.56"/><rect class="cls-1" x="184.07" y="97.19" width="4.72" height="4.72"/><rect class="cls-1" x="212.39" y="59.42" width="4.72" height="4.72"/><rect class="cls-1" x="212.39" y="49.99" width="4.72" height="4.72"/><rect class="cls-1" x="212.39" y="68.87" width="4.72" height="4.72"/><rect class="cls-1" x="202.95" y="78.31" width="4.72" height="4.72"/><rect class="cls-1" x="212.39" y="78.31" width="4.72" height="4.72"/><rect class="cls-1" x="202.95" y="87.74" width="4.72" height="4.72"/><rect class="cls-1" x="212.39" y="87.74" width="4.72" height="4.72"/><rect class="cls-1" x="212.39" y="97.19" width="4.72" height="4.72"/><rect class="cls-1" x="221.83" y="59.42" width="4.72" height="4.72"/><rect class="cls-1" x="221.83" y="68.87" width="4.72" height="4.72"/><rect class="cls-1" x="231.27" y="59.42" width="4.72" height="4.72"/><rect class="cls-1" x="221.83" y="49.99" width="4.72" height="4.72"/><rect class="cls-1" x="231.27" y="49.99" width="4.72" height="4.72"/><rect class="cls-1" x="231.27" y="68.87" width="4.72" height="4.72"/><rect class="cls-1" x="221.83" y="78.31" width="4.72" height="4.72"/><rect class="cls-1" x="231.27" y="78.31" width="4.72" height="4.72"/><rect class="cls-1" x="221.83" y="87.74" width="4.72" height="4.72"/><rect class="cls-1" x="240.71" y="59.42" width="4.72" height="4.72"/><rect class="cls-1" x="240.71" y="49.99" width="4.72" height="4.72"/><rect class="cls-1" x="240.71" y="68.87" width="4.72" height="4.72"/><rect class="cls-1" x="250.15" y="59.42" width="4.72" height="4.72"/><rect class="cls-1" x="250.15" y="68.87" width="4.72" height="4.72"/><rect class="cls-1" x="259.59" y="49.99" width="4.72" height="4.72"/><rect class="cls-1" x="250.15" y="87.74" width="4.72" height="4.72"/><rect class="cls-1" x="259.59" y="87.74" width="4.72" height="4.72"/><rect class="cls-1" x="259.59" y="78.31" width="4.72" height="4.72"/><rect class="cls-1" x="33.03" y="40.55" width="4.72" height="4.72"/><rect class="cls-1" x="42.47" y="40.55" width="4.72" height="4.72"/><rect class="cls-1" x="51.91" y="31.1" width="4.72" height="4.72"/><rect class="cls-1" x="61.35" y="31.1" width="4.72" height="4.72"/><rect class="cls-1" x="51.91" y="40.55" width="4.72" height="4.72"/><rect class="cls-1" x="61.35" y="40.55" width="4.72" height="4.72"/><rect class="cls-1" x="70.79" y="31.1" width="4.72" height="4.72"/><rect class="cls-1" x="70.79" y="40.55" width="4.72" height="4.72"/><rect class="cls-1" x="80.23" y="40.55" width="4.72" height="4.72"/><rect class="cls-1" x="89.67" y="40.55" width="4.72" height="4.72"/><rect class="cls-1" x="127.43" y="21.67" width="4.72" height="4.72"/><rect class="cls-1" x="117.99" y="31.1" width="4.72" height="4.72"/><rect class="cls-1" x="127.43" y="31.1" width="4.72" height="4.72"/><rect class="cls-1" x="117.99" y="40.55" width="4.72" height="4.72"/><rect class="cls-1" x="127.43" y="40.55" width="4.72" height="4.72"/><rect class="cls-1" x="136.87" y="12.23" width="4.72" height="4.72"/><rect class="cls-1" x="146.31" y="12.23" width="4.72" height="4.72"/><rect class="cls-1" x="136.87" y="21.67" width="4.72" height="4.72"/><rect class="cls-1" x="146.31" y="21.67" width="4.72" height="4.72"/><rect class="cls-1" x="136.87" y="40.55" width="4.72" height="4.72"/><rect class="cls-1" x="146.31" y="40.55" width="4.72" height="4.72"/><rect class="cls-1" x="165.19" y="12.23" width="4.72" height="4.72"/><rect class="cls-1" x="165.19" y="21.67" width="4.72" height="4.72"/><rect class="cls-1" x="155.75" y="31.1" width="4.72" height="4.72"/><rect class="cls-1" x="165.19" y="31.1" width="4.72" height="4.72"/><rect class="cls-1" x="155.75" y="40.55" width="4.72" height="4.72"/><rect class="cls-1" x="174.63" y="12.23" width="4.72" height="4.72"/><rect class="cls-1" x="174.63" y="31.1" width="4.72" height="4.72"/><rect class="cls-1" x="174.63" y="40.55" width="4.72" height="4.72"/><rect class="cls-1" x="184.07" y="2.78" width="4.72" height="4.72"/><rect class="cls-1" x="184.07" y="12.23" width="4.72" height="4.72"/><rect class="cls-1" x="193.51" y="2.78" width="4.72" height="4.72"/><rect class="cls-1" x="193.51" y="12.23" width="4.72" height="4.72"/><rect class="cls-1" x="184.07" y="21.67" width="4.72" height="4.72"/><rect class="cls-1" x="184.07" y="31.1" width="4.72" height="4.72"/><rect class="cls-1" x="193.51" y="31.1" width="4.72" height="4.72"/><rect class="cls-1" x="202.95" y="2.78" width="4.72" height="4.72"/><rect class="cls-1" x="212.39" y="2.78" width="4.72" height="4.72"/><rect class="cls-1" x="212.39" y="12.23" width="4.72" height="4.72"/><rect class="cls-1" x="202.95" y="21.67" width="4.72" height="4.72"/><rect class="cls-1" x="212.39" y="21.67" width="4.72" height="4.72"/><rect class="cls-1" x="202.95" y="31.1" width="4.72" height="4.72"/><rect class="cls-1" x="212.39" y="31.1" width="4.72" height="4.72"/><rect class="cls-1" x="202.95" y="40.55" width="4.72" height="4.72"/><rect class="cls-1" x="212.39" y="40.55" width="4.72" height="4.72"/><rect class="cls-1" x="221.83" y="12.23" width="4.72" height="4.72"/><rect class="cls-1" x="231.27" y="12.23" width="4.72" height="4.72"/><rect class="cls-1" x="221.83" y="21.67" width="4.72" height="4.72"/><rect class="cls-1" x="231.27" y="21.67" width="4.72" height="4.72"/><rect class="cls-1" x="221.83" y="31.1" width="4.72" height="4.72"/><rect class="cls-1" x="231.27" y="31.1" width="4.72" height="4.72"/><rect class="cls-1" x="221.83" y="40.55" width="4.72" height="4.72"/><rect class="cls-1" x="231.27" y="40.55" width="4.72" height="4.72"/><rect class="cls-1" x="240.71" y="2.78" width="4.72" height="4.72"/><rect class="cls-1" x="240.71" y="12.23" width="4.72" height="4.72"/><rect class="cls-1" x="240.71" y="21.67" width="4.72" height="4.72"/><rect class="cls-1" x="240.71" y="31.1" width="4.72" height="4.72"/><rect class="cls-1" x="240.71" y="40.55" width="4.72" height="4.72"/><rect class="cls-1" x="250.15" y="2.78" width="4.72" height="4.72"/><rect class="cls-1" x="259.59" y="12.23" width="4.72" height="4.72"/><rect class="cls-1" x="250.15" y="21.67" width="4.72" height="4.72"/><rect class="cls-1" x="259.59" y="21.67" width="4.72" height="4.72"/><rect class="cls-1" x="250.15" y="31.1" width="4.72" height="4.72"/><rect class="cls-1" x="259.59" y="31.1" width="4.72" height="4.72"/><rect class="cls-1" x="250.15" y="40.55" width="4.72" height="4.72"/><rect class="cls-1" x="259.59" y="40.55" width="4.72" height="4.72"/><rect class="cls-1" x="269.03" y="116.06" width="4.72" height="4.72"/><rect class="cls-1" x="269.03" y="125.51" width="4.72" height="4.72"/><rect class="cls-1" x="278.47" y="116.06" width="4.72" height="4.72"/><rect class="cls-1" x="278.47" y="106.63" width="4.72" height="4.72"/><rect class="cls-1" x="278.47" y="125.51" width="4.72" height="4.72"/><rect class="cls-1" x="278.47" y="134.95" width="4.72" height="4.72"/><rect class="cls-1" x="269.03" y="144.38" width="4.72" height="4.72"/><rect class="cls-1" x="278.47" y="144.38" width="4.72" height="4.72"/><rect class="cls-1" x="269.03" y="153.83" width="4.72" height="4.72"/><rect class="cls-1" x="287.91" y="125.51" width="4.72" height="4.72"/><rect class="cls-1" x="297.35" y="116.06" width="4.72" height="4.72"/><rect class="cls-1" x="297.35" y="125.51" width="4.72" height="4.72"/><rect class="cls-1" x="287.91" y="134.95" width="4.72" height="4.72"/><rect class="cls-1" x="297.35" y="134.95" width="4.72" height="4.72"/><rect class="cls-1" x="287.91" y="144.38" width="4.72" height="4.72"/><rect class="cls-1" x="297.35" y="153.83" width="4.72" height="4.72"/><rect class="cls-1" x="306.79" y="116.06" width="4.72" height="4.72"/><rect class="cls-2" x="304.87" y="123.58" width="8.56" height="8.56"/><rect class="cls-1" x="316.23" y="116.06" width="4.72" height="4.72"/><rect class="cls-1" x="316.23" y="106.63" width="4.72" height="4.72"/><rect class="cls-1" x="316.23" y="125.51" width="4.72" height="4.72"/><rect class="cls-1" x="306.79" y="134.95" width="4.72" height="4.72"/><rect class="cls-1" x="316.23" y="134.95" width="4.72" height="4.72"/><rect class="cls-1" x="306.79" y="144.38" width="4.72" height="4.72"/><rect class="cls-1" x="316.23" y="144.38" width="4.72" height="4.72"/><rect class="cls-1" x="306.79" y="153.83" width="4.72" height="4.72"/><rect class="cls-1" x="325.67" y="116.06" width="4.72" height="4.72"/><rect class="cls-1" x="325.67" y="106.63" width="4.72" height="4.72"/><rect class="cls-1" x="325.67" y="125.51" width="4.72" height="4.72"/><rect class="cls-1" x="325.67" y="134.95" width="4.72" height="4.72"/><rect class="cls-1" x="325.67" y="144.38" width="4.72" height="4.72"/><rect class="cls-1" x="335.11" y="116.06" width="4.72" height="4.72"/><rect class="cls-1" x="335.11" y="125.51" width="4.72" height="4.72"/><rect class="cls-1" x="344.55" y="116.06" width="4.72" height="4.72"/><rect class="cls-1" x="335.11" y="106.63" width="4.72" height="4.72"/><rect class="cls-1" x="344.55" y="106.63" width="4.72" height="4.72"/><rect class="cls-1" x="344.55" y="125.51" width="4.72" height="4.72"/><rect class="cls-1" x="335.11" y="134.95" width="4.72" height="4.72"/><rect class="cls-1" x="344.55" y="134.95" width="4.72" height="4.72"/><rect class="cls-1" x="335.11" y="153.83" width="4.72" height="4.72"/><rect class="cls-1" x="344.55" y="153.83" width="4.72" height="4.72"/><rect class="cls-1" x="297.35" y="87.74" width="4.72" height="4.72"/><rect class="cls-1" x="297.35" y="97.19" width="4.72" height="4.72"/><rect class="cls-1" x="316.23" y="68.87" width="4.72" height="4.72"/><rect class="cls-1" x="306.79" y="78.31" width="4.72" height="4.72"/><rect class="cls-1" x="316.23" y="78.31" width="4.72" height="4.72"/><rect class="cls-1" x="306.79" y="87.74" width="4.72" height="4.72"/><rect class="cls-1" x="306.79" y="97.19" width="4.72" height="4.72"/><rect class="cls-1" x="325.67" y="68.87" width="4.72" height="4.72"/><rect class="cls-1" x="325.67" y="78.31" width="4.72" height="4.72"/><rect class="cls-1" x="325.67" y="87.74" width="4.72" height="4.72"/><rect class="cls-1" x="325.67" y="97.19" width="4.72" height="4.72"/><rect class="cls-1" x="335.11" y="78.31" width="4.72" height="4.72"/><rect class="cls-1" x="344.55" y="78.31" width="4.72" height="4.72"/><rect class="cls-1" x="335.11" y="87.74" width="4.72" height="4.72"/><rect class="cls-1" x="344.55" y="87.74" width="4.72" height="4.72"/><rect class="cls-1" x="335.11" y="97.19" width="4.72" height="4.72"/><rect class="cls-1" x="344.55" y="97.19" width="4.72" height="4.72"/><rect class="cls-1" x="353.99" y="116.06" width="4.72" height="4.72"/><rect class="cls-1" x="353.99" y="125.51" width="4.72" height="4.72"/><rect class="cls-1" x="363.43" y="116.06" width="4.72" height="4.72"/><rect class="cls-1" x="353.99" y="106.63" width="4.72" height="4.72"/><rect class="cls-1" x="363.43" y="106.63" width="4.72" height="4.72"/><rect class="cls-1" x="363.43" y="125.51" width="4.72" height="4.72"/><rect class="cls-1" x="353.99" y="134.95" width="4.72" height="4.72"/><rect class="cls-1" x="353.99" y="144.38" width="4.72" height="4.72"/><rect class="cls-1" x="363.43" y="144.38" width="4.72" height="4.72"/><rect class="cls-1" x="353.99" y="153.83" width="4.72" height="4.72"/><rect class="cls-1" x="363.43" y="153.83" width="4.72" height="4.72"/><rect class="cls-1" x="372.87" y="116.06" width="4.72" height="4.72"/><rect class="cls-1" x="372.87" y="125.51" width="4.72" height="4.72"/><rect class="cls-1" x="382.31" y="116.06" width="4.72" height="4.72"/><rect class="cls-1" x="372.87" y="106.63" width="4.72" height="4.72"/><rect class="cls-1" x="382.31" y="106.63" width="4.72" height="4.72"/><rect class="cls-1" x="382.31" y="125.51" width="4.72" height="4.72"/><rect class="cls-2" x="370.95" y="133.02" width="8.56" height="8.56"/><rect class="cls-1" x="382.31" y="134.95" width="4.72" height="4.72"/><rect class="cls-1" x="382.31" y="144.38" width="4.72" height="4.72"/><rect class="cls-1" x="382.31" y="153.83" width="4.72" height="4.72"/><rect class="cls-1" x="391.75" y="116.06" width="4.72" height="4.72"/><rect class="cls-1" x="391.75" y="106.63" width="4.72" height="4.72"/><rect class="cls-1" x="391.75" y="125.51" width="4.72" height="4.72"/><rect class="cls-1" x="391.75" y="134.95" width="4.72" height="4.72"/><rect class="cls-1" x="391.75" y="144.38" width="4.72" height="4.72"/><rect class="cls-1" x="391.75" y="153.83" width="4.72" height="4.72"/><rect class="cls-1" x="401.19" y="116.06" width="4.72" height="4.72"/><rect class="cls-1" x="401.19" y="125.51" width="4.72" height="4.72"/><rect class="cls-1" x="410.63" y="116.06" width="4.72" height="4.72"/><rect class="cls-1" x="401.19" y="106.63" width="4.72" height="4.72"/><rect class="cls-1" x="410.63" y="106.63" width="4.72" height="4.72"/><rect class="cls-1" x="410.63" y="125.51" width="4.72" height="4.72"/><rect class="cls-1" x="401.19" y="134.95" width="4.72" height="4.72"/><rect class="cls-1" x="410.63" y="134.95" width="4.72" height="4.72"/><rect class="cls-1" x="401.19" y="144.38" width="4.72" height="4.72"/><rect class="cls-1" x="410.63" y="144.38" width="4.72" height="4.72"/><rect class="cls-1" x="401.19" y="153.83" width="4.72" height="4.72"/><rect class="cls-1" x="410.63" y="153.83" width="4.72" height="4.72"/><rect class="cls-1" x="420.07" y="116.06" width="4.72" height="4.72"/><rect class="cls-1" x="420.07" y="125.51" width="4.72" height="4.72"/><rect class="cls-1" x="429.51" y="116.06" width="4.72" height="4.72"/><rect class="cls-1" x="420.07" y="106.63" width="4.72" height="4.72"/><rect class="cls-1" x="429.51" y="106.63" width="4.72" height="4.72"/><rect class="cls-1" x="429.51" y="125.51" width="4.72" height="4.72"/><rect class="cls-1" x="420.07" y="134.95" width="4.72" height="4.72"/><rect class="cls-1" x="429.51" y="134.95" width="4.72" height="4.72"/><rect class="cls-1" x="420.07" y="144.38" width="4.72" height="4.72"/><rect class="cls-1" x="429.51" y="144.38" width="4.72" height="4.72"/><rect class="cls-1" x="420.07" y="153.83" width="4.72" height="4.72"/><rect class="cls-1" x="429.51" y="153.83" width="4.72" height="4.72"/><rect class="cls-1" x="438.95" y="116.06" width="4.72" height="4.72"/><rect class="cls-1" x="438.95" y="125.51" width="4.72" height="4.72"/><rect class="cls-1" x="448.39" y="116.06" width="4.72" height="4.72"/><rect class="cls-1" x="438.95" y="106.63" width="4.72" height="4.72"/><rect class="cls-1" x="448.39" y="106.63" width="4.72" height="4.72"/><rect class="cls-1" x="448.39" y="125.51" width="4.72" height="4.72"/><rect class="cls-1" x="438.95" y="134.95" width="4.72" height="4.72"/><rect class="cls-1" x="448.39" y="134.95" width="4.72" height="4.72"/><rect class="cls-1" x="438.95" y="144.38" width="4.72" height="4.72"/><rect class="cls-1" x="448.39" y="144.38" width="4.72" height="4.72"/><rect class="cls-1" x="438.95" y="153.83" width="4.72" height="4.72"/><rect class="cls-1" x="448.39" y="153.83" width="4.72" height="4.72"/><rect class="cls-1" x="457.83" y="116.06" width="4.72" height="4.72"/><rect class="cls-1" x="457.83" y="125.51" width="4.72" height="4.72"/><rect class="cls-1" x="457.83" y="134.95" width="4.72" height="4.72"/><rect class="cls-1" x="457.83" y="144.38" width="4.72" height="4.72"/><rect class="cls-1" x="457.83" y="153.83" width="4.72" height="4.72"/><rect class="cls-1" x="467.27" y="116.06" width="4.72" height="4.72"/><rect class="cls-1" x="467.27" y="125.51" width="4.72" height="4.72"/><rect class="cls-1" x="476.71" y="116.06" width="4.72" height="4.72"/><rect class="cls-1" x="467.27" y="106.63" width="4.72" height="4.72"/><rect class="cls-1" x="476.71" y="106.63" width="4.72" height="4.72"/><rect class="cls-1" x="476.71" y="125.51" width="4.72" height="4.72"/><rect class="cls-1" x="467.27" y="134.95" width="4.72" height="4.72"/><rect class="cls-1" x="476.71" y="134.95" width="4.72" height="4.72"/><rect class="cls-1" x="467.27" y="144.38" width="4.72" height="4.72"/><rect class="cls-1" x="476.71" y="144.38" width="4.72" height="4.72"/><rect class="cls-1" x="467.27" y="153.83" width="4.72" height="4.72"/><rect class="cls-1" x="476.71" y="153.83" width="4.72" height="4.72"/><rect class="cls-1" x="269.03" y="172.7" width="4.72" height="4.72"/><rect class="cls-1" x="269.03" y="182.15" width="4.72" height="4.72"/><rect class="cls-1" x="278.47" y="172.7" width="4.72" height="4.72"/><rect class="cls-1" x="278.47" y="163.27" width="4.72" height="4.72"/><rect class="cls-1" x="278.47" y="182.15" width="4.72" height="4.72"/><rect class="cls-1" x="269.03" y="191.59" width="4.72" height="4.72"/><rect class="cls-1" x="278.47" y="191.59" width="4.72" height="4.72"/><rect class="cls-1" x="269.03" y="201.02" width="4.72" height="4.72"/><rect class="cls-1" x="278.47" y="201.02" width="4.72" height="4.72"/><rect class="cls-1" x="269.03" y="210.47" width="4.72" height="4.72"/><rect class="cls-1" x="278.47" y="210.47" width="4.72" height="4.72"/><rect class="cls-1" x="287.91" y="172.7" width="4.72" height="4.72"/><rect class="cls-1" x="287.91" y="182.15" width="4.72" height="4.72"/><rect class="cls-1" x="297.35" y="172.7" width="4.72" height="4.72"/><rect class="cls-1" x="287.91" y="163.27" width="4.72" height="4.72"/><rect class="cls-1" x="297.35" y="163.27" width="4.72" height="4.72"/><rect class="cls-1" x="297.35" y="182.15" width="4.72" height="4.72"/><rect class="cls-1" x="287.91" y="191.59" width="4.72" height="4.72"/><rect class="cls-1" x="297.35" y="191.59" width="4.72" height="4.72"/><rect class="cls-1" x="287.91" y="201.02" width="4.72" height="4.72"/><rect class="cls-1" x="297.35" y="201.02" width="4.72" height="4.72"/><rect class="cls-1" x="287.91" y="210.47" width="4.72" height="4.72"/><rect class="cls-1" x="297.35" y="210.47" width="4.72" height="4.72"/><rect class="cls-1" x="306.79" y="172.7" width="4.72" height="4.72"/><rect class="cls-1" x="306.79" y="182.15" width="4.72" height="4.72"/><rect class="cls-1" x="316.23" y="172.7" width="4.72" height="4.72"/><rect class="cls-1" x="306.79" y="163.27" width="4.72" height="4.72"/><rect class="cls-1" x="316.23" y="182.15" width="4.72" height="4.72"/><rect class="cls-1" x="306.79" y="191.59" width="4.72" height="4.72"/><rect class="cls-1" x="316.23" y="191.59" width="4.72" height="4.72"/><rect class="cls-1" x="306.79" y="201.02" width="4.72" height="4.72"/><rect class="cls-1" x="316.23" y="201.02" width="4.72" height="4.72"/><rect class="cls-1" x="306.79" y="210.47" width="4.72" height="4.72"/><rect class="cls-1" x="316.23" y="210.47" width="4.72" height="4.72"/><rect class="cls-1" x="325.67" y="172.7" width="4.72" height="4.72"/><rect class="cls-1" x="325.67" y="163.27" width="4.72" height="4.72"/><rect class="cls-1" x="325.67" y="182.15" width="4.72" height="4.72"/><rect class="cls-1" x="325.67" y="191.59" width="4.72" height="4.72"/><rect class="cls-1" x="325.67" y="201.02" width="4.72" height="4.72"/><rect class="cls-1" x="325.67" y="210.47" width="4.72" height="4.72"/><rect class="cls-1" x="335.11" y="172.7" width="4.72" height="4.72"/><rect class="cls-1" x="335.11" y="182.15" width="4.72" height="4.72"/><rect class="cls-1" x="344.55" y="172.7" width="4.72" height="4.72"/><rect class="cls-1" x="344.55" y="163.27" width="4.72" height="4.72"/><rect class="cls-1" x="335.11" y="191.59" width="4.72" height="4.72"/><rect class="cls-1" x="344.55" y="191.59" width="4.72" height="4.72"/><rect class="cls-1" x="335.11" y="201.02" width="4.72" height="4.72"/><rect class="cls-1" x="344.55" y="201.02" width="4.72" height="4.72"/><rect class="cls-1" x="335.11" y="210.47" width="4.72" height="4.72"/><rect class="cls-1" x="344.55" y="210.47" width="4.72" height="4.72"/><rect class="cls-1" x="353.99" y="172.7" width="4.72" height="4.72"/><rect class="cls-1" x="353.99" y="182.15" width="4.72" height="4.72"/><rect class="cls-1" x="363.43" y="172.7" width="4.72" height="4.72"/><rect class="cls-1" x="353.99" y="163.27" width="4.72" height="4.72"/><rect class="cls-1" x="363.43" y="163.27" width="4.72" height="4.72"/><rect class="cls-1" x="363.43" y="182.15" width="4.72" height="4.72"/><rect class="cls-1" x="363.43" y="191.59" width="4.72" height="4.72"/><rect class="cls-1" x="353.99" y="201.02" width="4.72" height="4.72"/><rect class="cls-1" x="353.99" y="210.47" width="4.72" height="4.72"/><rect class="cls-2" x="361.51" y="208.54" width="8.56" height="8.56"/><rect class="cls-1" x="372.87" y="182.15" width="4.72" height="4.72"/><rect class="cls-1" x="382.31" y="172.7" width="4.72" height="4.72"/><rect class="cls-1" x="372.87" y="163.27" width="4.72" height="4.72"/><rect class="cls-1" x="382.31" y="163.27" width="4.72" height="4.72"/><rect class="cls-2" x="380.39" y="180.22" width="8.56" height="8.56"/><rect class="cls-1" x="372.87" y="191.59" width="4.72" height="4.72"/><rect class="cls-1" x="382.31" y="191.59" width="4.72" height="4.72"/><rect class="cls-1" x="372.87" y="210.47" width="4.72" height="4.72"/><rect class="cls-1" x="391.75" y="172.7" width="4.72" height="4.72"/><rect class="cls-1" x="391.75" y="163.27" width="4.72" height="4.72"/><rect class="cls-1" x="401.19" y="172.7" width="4.72" height="4.72"/><rect class="cls-1" x="401.19" y="182.15" width="4.72" height="4.72"/><rect class="cls-1" x="410.63" y="172.7" width="4.72" height="4.72"/><rect class="cls-1" x="401.19" y="163.27" width="4.72" height="4.72"/><rect class="cls-1" x="410.63" y="163.27" width="4.72" height="4.72"/><rect class="cls-1" x="410.63" y="182.15" width="4.72" height="4.72"/><rect class="cls-1" x="410.63" y="191.59" width="4.72" height="4.72"/><rect class="cls-1" x="420.07" y="172.7" width="4.72" height="4.72"/><rect class="cls-1" x="420.07" y="182.15" width="4.72" height="4.72"/><rect class="cls-1" x="429.51" y="172.7" width="4.72" height="4.72"/><rect class="cls-1" x="420.07" y="163.27" width="4.72" height="4.72"/><rect class="cls-1" x="429.51" y="163.27" width="4.72" height="4.72"/><rect class="cls-1" x="429.51" y="182.15" width="4.72" height="4.72"/><rect class="cls-1" x="420.07" y="191.59" width="4.72" height="4.72"/><rect class="cls-1" x="429.51" y="191.59" width="4.72" height="4.72"/><rect class="cls-1" x="420.07" y="201.02" width="4.72" height="4.72"/><rect class="cls-1" x="429.51" y="201.02" width="4.72" height="4.72"/><rect class="cls-1" x="420.07" y="210.47" width="4.72" height="4.72"/><rect class="cls-1" x="438.95" y="172.7" width="4.72" height="4.72"/><rect class="cls-1" x="438.95" y="182.15" width="4.72" height="4.72"/><rect class="cls-1" x="448.39" y="172.7" width="4.72" height="4.72"/><rect class="cls-1" x="438.95" y="163.27" width="4.72" height="4.72"/><rect class="cls-1" x="448.39" y="163.27" width="4.72" height="4.72"/><rect class="cls-1" x="448.39" y="182.15" width="4.72" height="4.72"/><rect class="cls-2" x="446.47" y="189.66" width="8.56" height="8.56"/><rect class="cls-1" x="457.83" y="172.7" width="4.72" height="4.72"/><rect class="cls-1" x="457.83" y="163.27" width="4.72" height="4.72"/><rect class="cls-1" x="457.83" y="182.15" width="4.72" height="4.72"/><rect class="cls-1" x="457.83" y="191.59" width="4.72" height="4.72"/><rect class="cls-1" x="457.83" y="201.02" width="4.72" height="4.72"/><rect class="cls-1" x="457.83" y="210.47" width="4.72" height="4.72"/><rect class="cls-1" x="467.27" y="172.7" width="4.72" height="4.72"/><rect class="cls-1" x="467.27" y="182.15" width="4.72" height="4.72"/><rect class="cls-1" x="476.71" y="172.7" width="4.72" height="4.72"/><rect class="cls-1" x="467.27" y="163.27" width="4.72" height="4.72"/><rect class="cls-1" x="476.71" y="163.27" width="4.72" height="4.72"/><rect class="cls-1" x="476.71" y="182.15" width="4.72" height="4.72"/><rect class="cls-1" x="467.27" y="191.59" width="4.72" height="4.72"/><rect class="cls-1" x="476.71" y="191.59" width="4.72" height="4.72"/><rect class="cls-1" x="467.27" y="201.02" width="4.72" height="4.72"/><rect class="cls-1" x="476.71" y="201.02" width="4.72" height="4.72"/><rect class="cls-1" x="467.27" y="210.47" width="4.72" height="4.72"/><rect class="cls-1" x="353.99" y="59.42" width="4.72" height="4.72"/><rect class="cls-1" x="353.99" y="68.87" width="4.72" height="4.72"/><rect class="cls-1" x="353.99" y="49.99" width="4.72" height="4.72"/><rect class="cls-1" x="363.43" y="68.87" width="4.72" height="4.72"/><rect class="cls-1" x="353.99" y="78.31" width="4.72" height="4.72"/><rect class="cls-1" x="363.43" y="78.31" width="4.72" height="4.72"/><rect class="cls-1" x="353.99" y="87.74" width="4.72" height="4.72"/><rect class="cls-1" x="363.43" y="87.74" width="4.72" height="4.72"/><rect class="cls-1" x="353.99" y="97.19" width="4.72" height="4.72"/><rect class="cls-1" x="363.43" y="97.19" width="4.72" height="4.72"/><rect class="cls-1" x="372.87" y="59.42" width="4.72" height="4.72"/><rect class="cls-1" x="372.87" y="68.87" width="4.72" height="4.72"/><rect class="cls-1" x="382.31" y="59.42" width="4.72" height="4.72"/><rect class="cls-1" x="372.87" y="49.99" width="4.72" height="4.72"/><rect class="cls-1" x="382.31" y="49.99" width="4.72" height="4.72"/><rect class="cls-1" x="382.31" y="68.87" width="4.72" height="4.72"/><rect class="cls-1" x="372.87" y="78.31" width="4.72" height="4.72"/><rect class="cls-1" x="382.31" y="78.31" width="4.72" height="4.72"/><rect class="cls-1" x="372.87" y="87.74" width="4.72" height="4.72"/><rect class="cls-1" x="382.31" y="87.74" width="4.72" height="4.72"/><rect class="cls-1" x="372.87" y="97.19" width="4.72" height="4.72"/><rect class="cls-1" x="382.31" y="97.19" width="4.72" height="4.72"/><rect class="cls-1" x="391.75" y="59.42" width="4.72" height="4.72"/><rect class="cls-1" x="391.75" y="49.99" width="4.72" height="4.72"/><rect class="cls-1" x="391.75" y="68.87" width="4.72" height="4.72"/><rect class="cls-1" x="391.75" y="78.31" width="4.72" height="4.72"/><rect class="cls-1" x="391.75" y="87.74" width="4.72" height="4.72"/><rect class="cls-1" x="391.75" y="97.19" width="4.72" height="4.72"/><rect class="cls-1" x="401.19" y="59.42" width="4.72" height="4.72"/><rect class="cls-1" x="401.19" y="68.87" width="4.72" height="4.72"/><rect class="cls-1" x="410.63" y="59.42" width="4.72" height="4.72"/><rect class="cls-1" x="401.19" y="49.99" width="4.72" height="4.72"/><rect class="cls-1" x="410.63" y="49.99" width="4.72" height="4.72"/><rect class="cls-1" x="410.63" y="68.87" width="4.72" height="4.72"/><rect class="cls-1" x="401.19" y="78.31" width="4.72" height="4.72"/><rect class="cls-1" x="410.63" y="78.31" width="4.72" height="4.72"/><rect class="cls-1" x="401.19" y="87.74" width="4.72" height="4.72"/><rect class="cls-1" x="410.63" y="87.74" width="4.72" height="4.72"/><rect class="cls-1" x="401.19" y="97.19" width="4.72" height="4.72"/><rect class="cls-1" x="410.63" y="97.19" width="4.72" height="4.72"/><rect class="cls-1" x="420.07" y="59.42" width="4.72" height="4.72"/><rect class="cls-1" x="420.07" y="68.87" width="4.72" height="4.72"/><rect class="cls-1" x="429.51" y="59.42" width="4.72" height="4.72"/><rect class="cls-1" x="420.07" y="49.99" width="4.72" height="4.72"/><rect class="cls-1" x="429.51" y="49.99" width="4.72" height="4.72"/><rect class="cls-1" x="429.51" y="68.87" width="4.72" height="4.72"/><rect class="cls-1" x="420.07" y="78.31" width="4.72" height="4.72"/><rect class="cls-1" x="429.51" y="78.31" width="4.72" height="4.72"/><rect class="cls-1" x="420.07" y="87.74" width="4.72" height="4.72"/><rect class="cls-1" x="429.51" y="87.74" width="4.72" height="4.72"/><rect class="cls-1" x="420.07" y="97.19" width="4.72" height="4.72"/><rect class="cls-1" x="429.51" y="97.19" width="4.72" height="4.72"/><rect class="cls-1" x="438.95" y="59.42" width="4.72" height="4.72"/><rect class="cls-1" x="438.95" y="68.87" width="4.72" height="4.72"/><rect class="cls-1" x="448.39" y="59.42" width="4.72" height="4.72"/><rect class="cls-1" x="438.95" y="49.99" width="4.72" height="4.72"/><rect class="cls-1" x="448.39" y="49.99" width="4.72" height="4.72"/><rect class="cls-1" x="448.39" y="68.87" width="4.72" height="4.72"/><rect class="cls-1" x="438.95" y="78.31" width="4.72" height="4.72"/><rect class="cls-2" x="446.47" y="76.38" width="8.56" height="8.56"/><rect class="cls-1" x="438.95" y="87.74" width="4.72" height="4.72"/><rect class="cls-1" x="448.39" y="87.74" width="4.72" height="4.72"/><rect class="cls-1" x="438.95" y="97.19" width="4.72" height="4.72"/><rect class="cls-1" x="448.39" y="97.19" width="4.72" height="4.72"/><rect class="cls-1" x="457.83" y="59.42" width="4.72" height="4.72"/><rect class="cls-1" x="457.83" y="49.99" width="4.72" height="4.72"/><rect class="cls-1" x="457.83" y="68.87" width="4.72" height="4.72"/><rect class="cls-1" x="457.83" y="78.31" width="4.72" height="4.72"/><rect class="cls-1" x="457.83" y="87.74" width="4.72" height="4.72"/><rect class="cls-1" x="457.83" y="97.19" width="4.72" height="4.72"/><rect class="cls-1" x="467.27" y="59.42" width="4.72" height="4.72"/><rect class="cls-1" x="467.27" y="68.87" width="4.72" height="4.72"/><rect class="cls-1" x="476.71" y="59.42" width="4.72" height="4.72"/><rect class="cls-1" x="467.27" y="49.99" width="4.72" height="4.72"/><rect class="cls-1" x="476.71" y="49.99" width="4.72" height="4.72"/><rect class="cls-1" x="476.71" y="68.87" width="4.72" height="4.72"/><rect class="cls-1" x="467.27" y="78.31" width="4.72" height="4.72"/><rect class="cls-1" x="476.71" y="78.31" width="4.72" height="4.72"/><rect class="cls-1" x="467.27" y="87.74" width="4.72" height="4.72"/><rect class="cls-1" x="476.71" y="87.74" width="4.72" height="4.72"/><rect class="cls-1" x="467.27" y="97.19" width="4.72" height="4.72"/><rect class="cls-1" x="476.71" y="97.19" width="4.72" height="4.72"/><rect class="cls-1" x="269.03" y="21.67" width="4.72" height="4.72"/><rect class="cls-1" x="297.35" y="31.1" width="4.72" height="4.72"/><rect class="cls-1" x="297.35" y="40.55" width="4.72" height="4.72"/><rect class="cls-1" x="306.79" y="31.1" width="4.72" height="4.72"/><rect class="cls-1" x="344.55" y="12.23" width="4.72" height="4.72"/><rect class="cls-1" x="335.11" y="21.67" width="4.72" height="4.72"/><rect class="cls-1" x="344.55" y="21.67" width="4.72" height="4.72"/><rect class="cls-1" x="363.43" y="40.55" width="4.72" height="4.72"/><rect class="cls-1" x="382.31" y="2.78" width="4.72" height="4.72"/><rect class="cls-1" x="391.75" y="12.23" width="4.72" height="4.72"/><rect class="cls-1" x="391.75" y="40.55" width="4.72" height="4.72"/><rect class="cls-1" x="401.19" y="12.23" width="4.72" height="4.72"/><rect class="cls-1" x="401.19" y="21.67" width="4.72" height="4.72"/><rect class="cls-1" x="410.63" y="21.67" width="4.72" height="4.72"/><rect class="cls-1" x="401.19" y="31.1" width="4.72" height="4.72"/><rect class="cls-1" x="410.63" y="31.1" width="4.72" height="4.72"/><rect class="cls-1" x="401.19" y="40.55" width="4.72" height="4.72"/><rect class="cls-1" x="410.63" y="40.55" width="4.72" height="4.72"/><rect class="cls-1" x="420.07" y="21.67" width="4.72" height="4.72"/><rect class="cls-1" x="420.07" y="31.1" width="4.72" height="4.72"/><rect class="cls-1" x="429.51" y="31.1" width="4.72" height="4.72"/><rect class="cls-1" x="420.07" y="40.55" width="4.72" height="4.72"/><rect class="cls-1" x="429.51" y="40.55" width="4.72" height="4.72"/><rect class="cls-1" x="448.39" y="31.1" width="4.72" height="4.72"/><rect class="cls-1" x="438.95" y="40.55" width="4.72" height="4.72"/><rect class="cls-1" x="448.39" y="40.55" width="4.72" height="4.72"/><rect class="cls-1" x="457.83" y="12.23" width="4.72" height="4.72"/><rect class="cls-1" x="457.83" y="21.67" width="4.72" height="4.72"/><rect class="cls-1" x="457.83" y="40.55" width="4.72" height="4.72"/><rect class="cls-1" x="467.27" y="12.23" width="4.72" height="4.72"/><rect class="cls-1" x="476.71" y="12.23" width="4.72" height="4.72"/><rect class="cls-1" x="467.27" y="21.67" width="4.72" height="4.72"/><rect class="cls-1" x="467.27" y="31.1" width="4.72" height="4.72"/><rect class="cls-1" x="476.71" y="31.1" width="4.72" height="4.72"/><rect class="cls-1" x="467.27" y="40.55" width="4.72" height="4.72"/><rect class="cls-1" x="476.71" y="40.55" width="4.72" height="4.72"/><rect class="cls-1" x="486.15" y="116.06" width="4.72" height="4.72"/><rect class="cls-1" x="486.15" y="125.51" width="4.72" height="4.72"/><rect class="cls-1" x="495.59" y="116.06" width="4.72" height="4.72"/><rect class="cls-1" x="486.15" y="106.63" width="4.72" height="4.72"/><rect class="cls-1" x="495.59" y="106.63" width="4.72" height="4.72"/><rect class="cls-1" x="495.59" y="125.51" width="4.72" height="4.72"/><rect class="cls-1" x="486.15" y="134.95" width="4.72" height="4.72"/><rect class="cls-1" x="495.59" y="134.95" width="4.72" height="4.72"/><rect class="cls-1" x="486.15" y="144.38" width="4.72" height="4.72"/><rect class="cls-1" x="495.59" y="144.38" width="4.72" height="4.72"/><rect class="cls-1" x="486.15" y="153.83" width="4.72" height="4.72"/><rect class="cls-1" x="495.59" y="153.83" width="4.72" height="4.72"/><rect class="cls-1" x="505.03" y="116.06" width="4.72" height="4.72"/><rect class="cls-1" x="505.03" y="125.51" width="4.72" height="4.72"/><rect class="cls-1" x="514.47" y="116.06" width="4.72" height="4.72"/><rect class="cls-1" x="505.03" y="106.63" width="4.72" height="4.72"/><rect class="cls-1" x="514.47" y="106.63" width="4.72" height="4.72"/><rect class="cls-1" x="514.47" y="125.51" width="4.72" height="4.72"/><rect class="cls-1" x="505.03" y="134.95" width="4.72" height="4.72"/><rect class="cls-1" x="505.03" y="144.38" width="4.72" height="4.72"/><rect class="cls-1" x="514.47" y="153.83" width="4.72" height="4.72"/><rect class="cls-1" x="523.91" y="116.06" width="4.72" height="4.72"/><rect class="cls-1" x="523.91" y="125.51" width="4.72" height="4.72"/><rect class="cls-1" x="523.91" y="134.95" width="4.72" height="4.72"/><rect class="cls-1" x="523.91" y="144.38" width="4.72" height="4.72"/><rect class="cls-1" x="523.91" y="153.83" width="4.72" height="4.72"/><rect class="cls-1" x="542.79" y="106.63" width="4.72" height="4.72"/><rect class="cls-1" x="486.15" y="172.7" width="4.72" height="4.72"/><rect class="cls-2" x="484.23" y="180.22" width="8.56" height="8.56"/><rect class="cls-1" x="495.59" y="172.7" width="4.72" height="4.72"/><rect class="cls-1" x="486.15" y="163.27" width="4.72" height="4.72"/><rect class="cls-1" x="495.59" y="163.27" width="4.72" height="4.72"/><rect class="cls-1" x="495.59" y="182.15" width="4.72" height="4.72"/><rect class="cls-1" x="495.59" y="201.02" width="4.72" height="4.72"/><rect class="cls-1" x="514.47" y="163.27" width="4.72" height="4.72"/><rect class="cls-1" x="505.03" y="201.02" width="4.72" height="4.72"/><rect class="cls-1" x="505.03" y="210.47" width="4.72" height="4.72"/><rect class="cls-1" x="486.15" y="59.42" width="4.72" height="4.72"/><rect class="cls-1" x="486.15" y="68.87" width="4.72" height="4.72"/><rect class="cls-1" x="495.59" y="59.42" width="4.72" height="4.72"/><rect class="cls-1" x="486.15" y="49.99" width="4.72" height="4.72"/><rect class="cls-1" x="495.59" y="49.99" width="4.72" height="4.72"/><rect class="cls-1" x="495.59" y="68.87" width="4.72" height="4.72"/><rect class="cls-1" x="486.15" y="78.31" width="4.72" height="4.72"/><rect class="cls-1" x="495.59" y="78.31" width="4.72" height="4.72"/><rect class="cls-1" x="486.15" y="87.74" width="4.72" height="4.72"/><rect class="cls-1" x="495.59" y="87.74" width="4.72" height="4.72"/><rect class="cls-1" x="486.15" y="97.19" width="4.72" height="4.72"/><rect class="cls-1" x="495.59" y="97.19" width="4.72" height="4.72"/><rect class="cls-1" x="505.03" y="59.42" width="4.72" height="4.72"/><rect class="cls-1" x="505.03" y="68.87" width="4.72" height="4.72"/><rect class="cls-1" x="514.47" y="59.42" width="4.72" height="4.72"/><rect class="cls-1" x="505.03" y="49.99" width="4.72" height="4.72"/><rect class="cls-1" x="514.47" y="49.99" width="4.72" height="4.72"/><rect class="cls-1" x="514.47" y="68.87" width="4.72" height="4.72"/><rect class="cls-1" x="505.03" y="78.31" width="4.72" height="4.72"/><rect class="cls-1" x="514.47" y="78.31" width="4.72" height="4.72"/><rect class="cls-1" x="505.03" y="87.74" width="4.72" height="4.72"/><rect class="cls-1" x="505.03" y="97.19" width="4.72" height="4.72"/><rect class="cls-1" x="523.91" y="59.42" width="4.72" height="4.72"/><rect class="cls-1" x="523.91" y="49.99" width="4.72" height="4.72"/><rect class="cls-1" x="523.91" y="68.87" width="4.72" height="4.72"/><rect class="cls-1" x="533.35" y="59.42" width="4.72" height="4.72"/><rect class="cls-1" x="533.35" y="68.87" width="4.72" height="4.72"/><rect class="cls-1" x="542.79" y="59.42" width="4.72" height="4.72"/><rect class="cls-1" x="533.35" y="49.99" width="4.72" height="4.72"/><rect class="cls-1" x="542.79" y="49.99" width="4.72" height="4.72"/><rect class="cls-1" x="542.79" y="68.87" width="4.72" height="4.72"/><rect class="cls-1" x="533.35" y="78.31" width="4.72" height="4.72"/><rect class="cls-1" x="533.35" y="87.74" width="4.72" height="4.72"/><rect class="cls-1" x="542.79" y="87.74" width="4.72" height="4.72"/><rect class="cls-1" x="533.35" y="97.19" width="4.72" height="4.72"/><rect class="cls-1" x="542.79" y="97.19" width="4.72" height="4.72"/><rect class="cls-1" x="552.23" y="59.42" width="4.72" height="4.72"/><rect class="cls-1" x="552.23" y="49.99" width="4.72" height="4.72"/><rect class="cls-3" x="165.19" y="267.1" width="4.72" height="4.72"/><rect class="cls-3" x="153.83" y="255.74" width="8.56" height="8.56"/><rect class="cls-3" x="165.19" y="257.66" width="4.72" height="4.72"/><rect class="cls-3" x="165.19" y="276.55" width="4.72" height="4.72"/><rect class="cls-3" x="165.19" y="285.98" width="4.72" height="4.72"/><rect class="cls-3" x="155.75" y="295.43" width="4.72" height="4.72"/><rect class="cls-3" x="165.19" y="295.43" width="4.72" height="4.72"/><rect class="cls-3" x="155.75" y="304.86" width="4.72" height="4.72"/><rect class="cls-3" x="165.19" y="304.86" width="4.72" height="4.72"/><rect class="cls-3" x="174.63" y="267.1" width="4.72" height="4.72"/><rect class="cls-3" x="174.63" y="257.66" width="4.72" height="4.72"/><rect class="cls-3" x="174.63" y="276.55" width="4.72" height="4.72"/><rect class="cls-3" x="174.63" y="285.98" width="4.72" height="4.72"/><rect class="cls-3" x="174.63" y="295.43" width="4.72" height="4.72"/><rect class="cls-3" x="174.63" y="304.86" width="4.72" height="4.72"/><rect class="cls-3" x="184.07" y="267.1" width="4.72" height="4.72"/><rect class="cls-3" x="184.07" y="276.55" width="4.72" height="4.72"/><rect class="cls-3" x="193.51" y="267.1" width="4.72" height="4.72"/><rect class="cls-3" x="184.07" y="257.66" width="4.72" height="4.72"/><rect class="cls-3" x="193.51" y="257.66" width="4.72" height="4.72"/><rect class="cls-3" x="193.51" y="276.55" width="4.72" height="4.72"/><rect class="cls-3" x="184.07" y="285.98" width="4.72" height="4.72"/><rect class="cls-3" x="191.59" y="284.06" width="8.56" height="8.56"/><rect class="cls-3" x="184.07" y="295.43" width="4.72" height="4.72"/><rect class="cls-3" x="184.07" y="304.86" width="4.72" height="4.72"/><rect class="cls-3" x="193.51" y="295.43" width="4.72" height="4.72"/><rect class="cls-3" x="202.95" y="267.1" width="4.72" height="4.72"/><rect class="cls-3" x="202.95" y="276.55" width="4.72" height="4.72"/><rect class="cls-3" x="212.39" y="267.1" width="4.72" height="4.72"/><rect class="cls-3" x="202.95" y="257.66" width="4.72" height="4.72"/><rect class="cls-3" x="212.39" y="257.66" width="4.72" height="4.72"/><rect class="cls-3" x="155.75" y="323.74" width="4.72" height="4.72"/><rect class="cls-3" x="165.19" y="323.74" width="4.72" height="4.72"/><rect class="cls-3" x="155.75" y="314.3" width="4.72" height="4.72"/><rect class="cls-3" x="165.19" y="314.3" width="4.72" height="4.72"/><rect class="cls-3" x="165.19" y="333.18" width="4.72" height="4.72"/><rect class="cls-3" x="174.63" y="323.74" width="4.72" height="4.72"/><rect class="cls-3" x="174.63" y="314.3" width="4.72" height="4.72"/><rect class="cls-3" x="174.63" y="342.62" width="4.72" height="4.72"/><rect class="cls-1" x="146.31" y="219.91" width="4.72" height="4.72"/><rect class="cls-1" x="136.87" y="229.34" width="4.72" height="4.72"/><rect class="cls-1" x="146.31" y="229.34" width="4.72" height="4.72"/><rect class="cls-1" x="136.87" y="238.79" width="4.72" height="4.72"/><rect class="cls-1" x="146.31" y="238.79" width="4.72" height="4.72"/><rect class="cls-3" x="146.31" y="248.23" width="4.72" height="4.72"/><rect class="cls-1" x="155.75" y="219.91" width="4.72" height="4.72"/><rect class="cls-1" x="165.19" y="219.91" width="4.72" height="4.72"/><rect class="cls-1" x="155.75" y="229.34" width="4.72" height="4.72"/><rect class="cls-1" x="165.19" y="229.34" width="4.72" height="4.72"/><rect class="cls-1" x="155.75" y="238.79" width="4.72" height="4.72"/><rect class="cls-1" x="165.19" y="238.79" width="4.72" height="4.72"/><rect class="cls-3" x="155.75" y="248.23" width="4.72" height="4.72"/><rect class="cls-3" x="165.19" y="248.23" width="4.72" height="4.72"/><rect class="cls-1" x="174.63" y="219.91" width="4.72" height="4.72"/><rect class="cls-1" x="174.63" y="229.34" width="4.72" height="4.72"/><rect class="cls-1" x="174.63" y="238.79" width="4.72" height="4.72"/><rect class="cls-3" x="174.63" y="248.23" width="4.72" height="4.72"/><rect class="cls-1" x="184.07" y="219.91" width="4.72" height="4.72"/><rect class="cls-1" x="193.51" y="219.91" width="4.72" height="4.72"/><rect class="cls-1" x="184.07" y="229.34" width="4.72" height="4.72"/><rect class="cls-1" x="193.51" y="229.34" width="4.72" height="4.72"/><rect class="cls-1" x="184.07" y="238.79" width="4.72" height="4.72"/><rect class="cls-1" x="193.51" y="238.79" width="4.72" height="4.72"/><rect class="cls-3" x="184.07" y="248.23" width="4.72" height="4.72"/><rect class="cls-3" x="193.51" y="248.23" width="4.72" height="4.72"/><rect class="cls-1" x="202.95" y="229.34" width="4.72" height="4.72"/><rect class="cls-2" x="210.47" y="227.42" width="8.56" height="8.56"/><rect class="cls-1" x="202.95" y="238.79" width="4.72" height="4.72"/><rect class="cls-1" x="212.39" y="238.79" width="4.72" height="4.72"/><rect class="cls-3" x="202.95" y="248.23" width="4.72" height="4.72"/><rect class="cls-3" x="212.39" y="248.23" width="4.72" height="4.72"/><rect class="cls-1" x="221.83" y="238.79" width="4.72" height="4.72"/><rect class="cls-1" x="306.79" y="267.1" width="4.72" height="4.72"/><rect class="cls-1" x="316.23" y="267.1" width="4.72" height="4.72"/><rect class="cls-1" x="306.79" y="257.66" width="4.72" height="4.72"/><rect class="cls-1" x="316.23" y="257.66" width="4.72" height="4.72"/><rect class="cls-1" x="316.23" y="276.55" width="4.72" height="4.72"/><rect class="cls-1" x="316.23" y="285.98" width="4.72" height="4.72"/><rect class="cls-1" x="325.67" y="267.1" width="4.72" height="4.72"/><rect class="cls-1" x="325.67" y="257.66" width="4.72" height="4.72"/><rect class="cls-1" x="325.67" y="276.55" width="4.72" height="5.87"/><rect class="cls-1" x="325.67" y="285.98" width="4.72" height="4.72"/><rect class="cls-1" x="335.11" y="267.1" width="4.72" height="4.72"/><rect class="cls-2" x="333.19" y="274.62" width="8.56" height="8.56"/><rect class="cls-1" x="344.55" y="267.1" width="4.72" height="4.72"/><rect class="cls-1" x="335.11" y="257.66" width="4.72" height="4.72"/><rect class="cls-1" x="344.55" y="257.66" width="4.72" height="4.72"/><rect class="cls-2" x="295.43" y="217.98" width="8.56" height="8.56"/><rect class="cls-1" x="297.35" y="229.34" width="4.72" height="4.72"/><rect class="cls-1" x="306.79" y="219.91" width="4.72" height="4.72"/><rect class="cls-1" x="316.23" y="219.91" width="4.72" height="4.72"/><rect class="cls-1" x="306.79" y="229.34" width="4.72" height="4.72"/><rect class="cls-1" x="316.23" y="229.34" width="4.72" height="4.72"/><rect class="cls-1" x="306.79" y="238.79" width="4.72" height="4.72"/><rect class="cls-1" x="316.23" y="238.79" width="4.72" height="4.72"/><rect class="cls-1" x="306.79" y="248.23" width="4.72" height="4.72"/><rect class="cls-1" x="316.23" y="248.23" width="4.72" height="4.72"/><rect class="cls-1" x="325.67" y="219.91" width="4.72" height="4.72"/><rect class="cls-1" x="325.67" y="229.34" width="4.72" height="4.72"/><rect class="cls-1" x="325.67" y="238.79" width="4.72" height="4.72"/><rect class="cls-1" x="325.67" y="248.23" width="4.72" height="4.72"/><rect class="cls-1" x="335.11" y="219.91" width="4.72" height="4.72"/><rect class="cls-1" x="344.55" y="219.91" width="4.72" height="4.72"/><rect class="cls-1" x="335.11" y="229.34" width="4.72" height="4.72"/><rect class="cls-1" x="335.11" y="238.79" width="4.72" height="4.72"/><rect class="cls-1" x="344.55" y="238.79" width="4.72" height="4.72"/><rect class="cls-1" x="335.11" y="248.23" width="4.72" height="4.72"/><rect class="cls-1" x="344.55" y="248.23" width="4.72" height="4.72"/><rect class="cls-1" x="363.43" y="267.1" width="4.72" height="4.72"/><rect class="cls-1" x="363.43" y="257.66" width="4.72" height="4.72"/><rect class="cls-1" x="372.87" y="257.66" width="4.72" height="4.72"/><rect class="cls-1" x="353.99" y="219.91" width="4.72" height="4.72"/><rect class="cls-1" x="363.43" y="219.91" width="4.72" height="4.72"/><rect class="cls-1" x="353.99" y="229.34" width="4.72" height="4.72"/><rect class="cls-1" x="353.99" y="238.79" width="4.72" height="4.72"/><rect class="cls-1" x="353.99" y="248.23" width="4.72" height="4.72"/><rect class="cls-1" x="372.87" y="248.23" width="4.72" height="4.72"/><rect class="cls-1" x="457.83" y="219.91" width="4.72" height="4.72"/><rect class="cls-1" x="467.27" y="219.91" width="4.72" height="4.72"/><rect class="cls-1" x="467.27" y="229.34" width="4.72" height="4.72"/><rect class="cls-1" x="476.71" y="229.34" width="4.72" height="4.72"/><rect class="cls-1" x="476.71" y="238.79" width="4.72" height="4.72"/><rect class="cls-1" x="486.15" y="276.55" width="4.72" height="4.72"/><rect class="cls-1" x="495.59" y="267.1" width="4.72" height="4.72"/><rect class="cls-1" x="495.59" y="276.55" width="4.72" height="4.72"/><rect class="cls-1" x="486.15" y="285.98" width="4.72" height="4.72"/><rect class="cls-1" x="495.59" y="285.98" width="4.72" height="4.72"/><rect class="cls-1" x="486.15" y="295.43" width="4.72" height="4.72"/><rect class="cls-1" x="495.59" y="295.43" width="4.72" height="4.72"/><rect class="cls-1" x="505.03" y="267.1" width="4.72" height="4.72"/><rect class="cls-1" x="505.03" y="276.55" width="4.72" height="4.72"/><rect class="cls-1" x="514.47" y="267.1" width="4.72" height="4.72"/><rect class="cls-1" x="505.03" y="257.66" width="4.72" height="4.72"/><rect class="cls-1" x="514.47" y="257.66" width="4.72" height="4.72"/><rect class="cls-1" x="514.47" y="276.55" width="4.72" height="4.72"/><rect class="cls-1" x="505.03" y="285.98" width="4.72" height="4.72"/><rect class="cls-2" x="512.55" y="284.06" width="8.56" height="8.56"/><rect class="cls-1" x="523.91" y="267.1" width="4.72" height="4.72"/><rect class="cls-1" x="523.91" y="257.66" width="4.72" height="4.72"/><rect class="cls-1" x="523.91" y="276.55" width="4.72" height="4.72"/><rect class="cls-1" x="523.91" y="285.98" width="4.72" height="4.72"/><rect class="cls-1" x="523.91" y="295.43" width="4.72" height="4.72"/><rect class="cls-1" x="523.91" y="304.86" width="4.72" height="4.72"/><rect class="cls-1" x="533.35" y="267.1" width="4.72" height="4.72"/><rect class="cls-1" x="533.35" y="276.55" width="4.72" height="4.72"/><rect class="cls-1" x="542.79" y="267.1" width="4.72" height="4.72"/><rect class="cls-1" x="533.35" y="257.66" width="4.72" height="4.72"/><rect class="cls-1" x="542.79" y="257.66" width="4.72" height="4.72"/><rect class="cls-1" x="542.79" y="276.55" width="4.72" height="4.72"/><rect class="cls-1" x="533.35" y="285.98" width="4.72" height="4.72"/><rect class="cls-1" x="542.79" y="285.98" width="4.72" height="4.72"/><rect class="cls-1" x="533.35" y="295.43" width="4.72" height="4.72"/><rect class="cls-1" x="542.79" y="295.43" width="4.72" height="4.72"/><rect class="cls-1" x="533.35" y="304.86" width="4.72" height="4.72"/><rect class="cls-1" x="542.79" y="304.86" width="4.72" height="4.72"/><rect class="cls-1" x="552.23" y="267.1" width="4.72" height="4.72"/><rect class="cls-1" x="552.23" y="276.55" width="4.72" height="4.72"/><rect class="cls-1" x="552.23" y="285.98" width="4.72" height="4.72"/><rect class="cls-1" x="552.23" y="295.43" width="4.72" height="4.72"/><rect class="cls-1" x="589.99" y="304.86" width="4.72" height="4.72"/><rect class="cls-1" x="533.35" y="323.74" width="4.72" height="4.72"/><rect class="cls-1" x="533.35" y="314.3" width="4.72" height="4.72"/><rect class="cls-1" x="561.67" y="333.18" width="4.72" height="4.72"/><rect class="cls-1" x="571.11" y="323.74" width="4.72" height="4.72"/><rect class="cls-1" x="571.11" y="333.18" width="4.72" height="4.72"/><rect class="cls-1" x="580.55" y="323.74" width="4.72" height="4.72"/><rect class="cls-1" x="580.55" y="314.3" width="4.72" height="4.72"/><rect class="cls-1" x="589.99" y="314.3" width="4.72" height="4.72"/><rect class="cls-1" x="486.15" y="219.91" width="4.72" height="4.72"/><rect class="cls-1" x="495.59" y="219.91" width="4.72" height="4.72"/><rect class="cls-1" x="486.15" y="229.34" width="4.72" height="4.72"/><rect class="cls-1" x="495.59" y="229.34" width="4.72" height="4.72"/><rect class="cls-1" x="495.59" y="238.79" width="4.72" height="4.72"/><rect class="cls-1" x="505.03" y="229.34" width="4.72" height="4.72"/><rect class="cls-1" x="505.03" y="248.23" width="4.72" height="4.72"/><rect class="cls-1" x="523.91" y="229.34" width="4.72" height="4.72"/><rect class="cls-1" x="523.91" y="248.23" width="4.72" height="4.72"/><rect class="cls-1" x="533.35" y="229.34" width="4.72" height="4.72"/><rect class="cls-1" x="533.35" y="238.79" width="4.72" height="4.72"/><rect class="cls-1" x="542.79" y="238.79" width="4.72" height="4.72"/><rect class="cls-1" x="533.35" y="248.23" width="4.72" height="4.72"/><rect class="cls-1" x="552.23" y="238.79" width="4.72" height="4.72"/><rect class="cls-1" x="552.23" y="248.23" width="4.72" height="4.72"/><rect class="cls-1" x="486.15" y="31.1" width="4.72" height="4.72"/><rect class="cls-1" x="495.59" y="31.1" width="4.72" height="4.72"/><rect class="cls-1" x="486.15" y="40.55" width="4.72" height="4.72"/><rect class="cls-1" x="495.59" y="40.55" width="4.72" height="4.72"/><rect class="cls-1" x="505.03" y="31.1" width="4.72" height="4.72"/><rect class="cls-1" x="514.47" y="31.1" width="4.72" height="4.72"/><rect class="cls-1" x="505.03" y="40.55" width="4.72" height="4.72"/><rect class="cls-1" x="514.47" y="40.55" width="4.72" height="4.72"/><rect class="cls-1" x="523.91" y="21.67" width="4.72" height="4.72"/><rect class="cls-1" x="523.91" y="31.1" width="4.72" height="4.72"/><rect class="cls-1" x="523.91" y="40.55" width="4.72" height="4.72"/><rect class="cls-1" x="533.35" y="21.67" width="4.72" height="4.72"/><rect class="cls-1" x="533.35" y="31.1" width="4.72" height="4.72"/><rect class="cls-1" x="542.79" y="31.1" width="4.72" height="4.72"/><rect class="cls-1" x="533.35" y="40.55" width="4.72" height="4.72"/><rect class="cls-1" x="542.79" y="40.55" width="4.72" height="4.72"/><rect class="cls-1" x="552.23" y="31.1" width="4.72" height="4.72"/><g id="lake_forest_open_lands_association"><path class="cls-4" d="M53.68,244.51c5.84,0,11.78.88,18.33.88,3,0,6.3,0,9.46.24,4,.25,8.24-.44,10.45,1.53a7.76,7.76,0,0,1,1.06,1.4,9.75,9.75,0,0,1,.94,1.47c1.16,2.75.87,6.59.94,10.52,0,0,0,0-.06.06a8.12,8.12,0,0,1-2.47,2c-6,4.45-11.94,8.42-18.15,13-3.32,2.44-6.84,5.06-10.16,7.63-1.61,1.25-3.49,2.34-5.23,3.71a12.73,12.73,0,0,1-2.64,1.82C55.14,289.19,54,290,53,290c-2.36.12-2.32-1.64-2.76-3.64-.1-.46-.13-1.14-.23-1.76a5.08,5.08,0,0,1-.18-1.71c.27-.8,1.44-.81,2.58-1.11a12.63,12.63,0,0,0,6.41-4,20,20,0,0,0,2.7-3.29,16.66,16.66,0,0,0,1.12-3,19.79,19.79,0,0,0,.82-3.29,21.13,21.13,0,0,0-.24-5.41A18.64,18.64,0,0,0,61,258.08c-2.2-3.78-4.31-7.21-6.46-11.16-.3-.55-1.3-1.8-1-2.29A.44.44,0,0,1,53.68,244.51Z"/><path class="cls-4" d="M49.27,248.33a3.5,3.5,0,0,1-1.17,1.53c-.45.45-.91.89-1.35,1.35-2.36,3-5.2,5.54-7.64,8.46-.52,1.46-1.1,2.89-1.59,4.4A34.11,34.11,0,0,0,36,268.54c-.31,1.75.18,3.73.06,5.76,0,0,.06.06.06.11a20.19,20.19,0,0,0,1.76,2.88A20.14,20.14,0,0,0,39.75,280c1.62,1.84,4,2.95,6,4.58a7.1,7.1,0,0,1,2.47,4.81,22.32,22.32,0,0,1,.18,2.41A3.28,3.28,0,0,1,48,294a2.06,2.06,0,0,1-1.71-.18,9.45,9.45,0,0,1-1.47-.65,7.54,7.54,0,0,1-1.4-2c-1.27-2.07-2.87-4-4-6a20.7,20.7,0,0,0-2.7-4.05c-.48-.52-1-1.15-1.65-1.7a9.73,9.73,0,0,0-1.82-1.53,18.86,18.86,0,0,0-5.46-1.12,13.86,13.86,0,0,0-4.76.71,18,18,0,0,0-3.35,1.88c-1.13.7-2.43,1.24-3.41,2a20.68,20.68,0,0,0-2.64,3c-.43.5-.91,1-1.29,1.53s-.64,1.29-1.35,1.41a17.24,17.24,0,0,1-.12-3.94c0-3.86-.55-7.73-.71-11.75-.1-2.71-.13-5.4-.17-8s-.1-5.4.06-8c.17-2.88,1.46-5.56,3.4-6.81,2.71-1.74,8-1.2,12.17-1,5.12.25,10.48-.16,15.8.12,1.34.07,2.67.08,4,.12A13.93,13.93,0,0,1,49.27,248.33Z"/><path class="cls-4" d="M95.92,292.1a6.32,6.32,0,0,1-2.29.76c-2.38.59-4.94,1.23-7.52,1.65q-2.58.4-5.23.88c-1.73.31-3.52.45-5.29.76-3.4.6-6.71,1.52-10.28,1.94a52.06,52.06,0,0,1-5.88.23c-2.8,0-6.21.35-7.28-1.46a8.94,8.94,0,0,1,.06-2.82,6.11,6.11,0,0,1,1.88-2.24A20.2,20.2,0,0,1,56.38,290c1.8-.32,4.57-1.09,6.46-.65a9.81,9.81,0,0,1,1.65.83c.56.26,1.16.46,1.7.7a20.66,20.66,0,0,0,3.35,1.53,40.83,40.83,0,0,0,4.7.47,12.22,12.22,0,0,0,1.47.18,6.72,6.72,0,0,0,2.23-.89,42.45,42.45,0,0,0,5.87-3.29c1.11-1.68,2.17-3.52,3.23-5.4A41.17,41.17,0,0,0,90,277.82c1.19-3.08,2.48-6.1,3.53-9.34.48-1.5,1.26-2.63,1.7-4.23a6,6,0,0,1,.29-1.35c.32-.52,1.37-.78,1.88-1,1-.43.62,1.16.59,1.41a52.26,52.26,0,0,0-.29,5.87,56.71,56.71,0,0,1-.65,7.58c-.32,2.55-.4,5.18-.59,7.64S96.27,289.7,95.92,292.1Z"/><path class="cls-4" d="M48.8,305.14a6.71,6.71,0,0,1-3.47-.06A21.68,21.68,0,0,1,43,303.9c-2.23-1.13-4.07-2.69-6.4-3.81a42.47,42.47,0,0,0-4.88-2c-2.51-.85-5.65-2-8.75-1a9.75,9.75,0,0,0-3.11,2.06,75,75,0,0,0-8,7.4c-.56.32-.84,1.24-1.65,1.11a3.74,3.74,0,0,1-.29-2.05c-.07-3.82-.06-7.36-.23-11.28,0-.61-.1-1.35-.12-2.18s-.2-1.92.18-2A.35.35,0,0,1,10,290c3,.19,6,.65,9,1.06,2.73.37,5.51.64,8.22,1.06,4,.61,8,1.18,12,1.93,2.28.44,4.93.45,6.11,1.94a11.76,11.76,0,0,1,.94,2.29c.31.75.71,1.52,1,2.18C47.93,302,48.75,303.35,48.8,305.14Z"/><path class="cls-4" d="M92.69,295.21c.61-.2.41,1.33.41,1.94,0,2.16,0,4.33,0,6.75.05,2.89.33,5.81.53,8.52a113.76,113.76,0,0,1,.06,12.93c-.06,1.57.17,3.38-.24,4.76-.17.56-.55,1.13-.82,1.76-.72,1.66-2.13,3.79-3.76,4.46a11.54,11.54,0,0,1-4.11.3c-1.61,0-3-.06-4.41-.12-3.06-.13-6.31-.06-8.75-.06-2.92,0-5.81-.24-8.7-.24s-5.89-.15-8.69-.35c-.68-1.44-.63-3.29-.82-5.11-.39-3.68-1.08-6.63-1.36-10.46-.1-1.49-.15-4.47.83-4.93a3.4,3.4,0,0,1,2.29.35c.77.31,1.54.47,2.17.71,4.08,1.51,8.42,3.27,12.51,4.64,4.33,1.45,8.57,2.9,12.87,4.35l2.17.7c.7.21,1.42.67,2.18.41a7.58,7.58,0,0,0-.94-3c-.79-1.92-1.6-3.84-2.41-5.76-.41-1-.73-2-1.18-2.88a17.71,17.71,0,0,0-2.11-3.11,21,21,0,0,0-2.59-2.65c-4.68-2.16-10.44-.25-15.1.77a22.34,22.34,0,0,0-5.93,2c-1.51-.09-2.26.53-3.7.82-1,.19-2.54.32-3.05-.3s-.19-2.51-.06-3.4A21.72,21.72,0,0,1,51.62,303a10.25,10.25,0,0,1,1.18-2.58,6,6,0,0,1,1.52-.59,7.31,7.31,0,0,1,1.65-.47,8.77,8.77,0,0,1,2.82.65,48.68,48.68,0,0,1,6.87,3.35c2.26,1.18,4.45,2.27,6.94,3.29a11.86,11.86,0,0,0,2.52.88,9.6,9.6,0,0,0,5.88-.88,18.74,18.74,0,0,0,3.11-2.59c1-.9,2-2,2.88-2.82C89,299.37,90.74,297.25,92.69,295.21Z"/><path class="cls-4" d="M45.86,310.66a62.25,62.25,0,0,1,2.24,8.17,7,7,0,0,1,.41,2.76c-.58.46-1.41.21-2.06.17-9.53-.45-19.26-.85-28.61-1.52-.73-.05-1.5-.08-2.23-.12s-1.37-.28-1.94.12a5.63,5.63,0,0,0,1.06,2.29c.39.73.8,1.48,1.17,2.23a36.76,36.76,0,0,0,2.41,4.41,11.6,11.6,0,0,0,3.53,2.76,14.67,14.67,0,0,0,1.94,1,11,11,0,0,0,2.34.76,16.26,16.26,0,0,0,2.35.06,33.92,33.92,0,0,0,3.53-.12,10.5,10.5,0,0,0,2.06-.76c.66-.26,1.32-.58,1.93-.82,3.51-1.39,5.32-3.66,8.52-5.47.53-.29,1.48-.93,1.88-.88s.74.79.94,1.41.51,1.18.65,1.65a26.69,26.69,0,0,1,.7,4.29,21.43,21.43,0,0,1,.59,4.28,9.2,9.2,0,0,1-3.23.06c-1.15,0-2.32-.12-3.53-.12-6.91,0-14.49.38-21,.36-.75,0-1.55-.12-2.35-.12a7.68,7.68,0,0,1-3.52-.47,7.57,7.57,0,0,1-1.88-1.41c-1.06-1.06-2.06-1.84-2.23-3.7a41.34,41.34,0,0,1,.23-5.47c.21-4.31.33-9.09.53-13.57a6.67,6.67,0,0,1,.35-2.46,16,16,0,0,1,5.59.76c1.69.45,3.32,1,4.93,1.59,3.26,1.19,6.7,2.73,10.46,2.64,2.48-.06,4.5-1.51,6.28-2.59.72-.43,1.48-.88,2.24-1.35C43.22,310.79,44.5,309.36,45.86,310.66Z"/></g><path class="cls-5" d="M117.18,269v-19.6h4.08l7.51,17.67h.59V249.42h2.16V269h-4l-7.62-17.68h-.53V269Z"/><path class="cls-5" d="M151,259.36q0,5.24-1.67,7.59c-1.12,1.57-3.14,2.35-6.08,2.35s-5-.8-6.07-2.4-1.67-4.14-1.67-7.58.57-6,1.7-7.68,3.14-2.5,6-2.5,4.9.83,6,2.49S151,255.87,151,259.36Zm-13.26-.06c0,2.87.38,4.94,1.14,6.19s2.21,1.88,4.37,1.88,3.62-.61,4.37-1.84,1.11-3.28,1.11-6.17-.38-5-1.16-6.32-2.22-2-4.34-2-3.57.66-4.34,2S137.77,256.43,137.77,259.3Z"/><path class="cls-5" d="M157.06,263.13q0,4.25,4.59,4.24a5.46,5.46,0,0,0,3.58-1,4,4,0,0,0,1.21-3.24V249.42h2.15v13.65q0,3.29-1.74,4.76a7.8,7.8,0,0,1-5.14,1.47,7.7,7.7,0,0,1-5.12-1.47q-1.71-1.47-1.71-4.76V249.42h2.18Z"/><path class="cls-5" d="M175.44,261.51V269h-2.18v-19.6h7.25a6.69,6.69,0,0,1,4.69,1.45,5.82,5.82,0,0,1,1.57,4.5c0,3-1.2,4.91-3.6,5.69l3.77,8h-2.41L181,261.51Zm5.1-1.92c2.66,0,4-1.38,4-4.12s-1.34-4.13-4-4.13h-5.07v8.25Z"/><path class="cls-5" d="M192.89,261.51V269h-2.18v-19.6H198a6.69,6.69,0,0,1,4.69,1.45,5.82,5.82,0,0,1,1.57,4.5c0,3-1.2,4.91-3.6,5.69l3.77,8H202l-3.54-7.51Zm5.1-1.92c2.66,0,4-1.38,4-4.12s-1.34-4.13-4-4.13h-5.07v8.25Z"/><path class="cls-5" d="M208.16,269v-19.6h2.18V269Z"/><path class="cls-5" d="M217.31,261.51V269h-2.19v-19.6h7.26a6.68,6.68,0,0,1,4.68,1.45,5.82,5.82,0,0,1,1.57,4.5c0,3-1.2,4.91-3.59,5.69l3.77,8H226.4l-3.54-7.51Zm5.09-1.92c2.67,0,4-1.38,4-4.12s-1.34-4.13-4-4.13h-5.07v8.25Z"/><path class="cls-5" d="M119.22,294.6c0,2.83,1.54,4.24,4.59,4.24a5.51,5.51,0,0,0,3.59-1,4,4,0,0,0,1.2-3.24V280.89h2.15v13.65q0,3.29-1.74,4.76a7.78,7.78,0,0,1-5.14,1.47,7.66,7.66,0,0,1-5.11-1.47q-1.73-1.47-1.72-4.76V280.89h2.18Z"/><path class="cls-5" d="M135.42,300.49v-19.6h4.08L147,298.56h.59V280.89h2.16v19.6h-4l-7.62-17.68h-.53v17.68Z"/><path class="cls-6" d="M161.38,300.49V274.62h7.28l5.78,20.2,5.78-20.2h7.32v25.87h-4.22V279.26h-.57l-6.12,20.17h-4.38l-6.12-20.17h-.56v21.23Z"/><path class="cls-6" d="M211.05,297.73c-1.54,2.12-4.27,3.17-8.17,3.17s-6.64-1.06-8.2-3.19-2.34-5.47-2.34-10,.79-7.95,2.36-10.16,4.3-3.32,8.18-3.32,6.6,1.1,8.16,3.3,2.34,5.59,2.34,10.18S212.6,295.62,211.05,297.73ZM198,295q1.28,2.24,4.91,2.23c2.42,0,4-.73,4.89-2.19s1.26-3.91,1.26-7.34-.43-5.94-1.3-7.5-2.49-2.34-4.85-2.34-4,.78-4.87,2.34-1.33,4.05-1.33,7.46S197.11,293.53,198,295Z"/><path class="cls-6" d="M218.25,300.49V274.62h7.33l7.85,22.17H234V274.62h4.19v25.87H231l-8-22.21h-.53v22.21Z"/><path class="cls-6" d="M253.1,300.49h-8.95V274.62h8.95q6,0,8.16,3c1.46,2,2.19,5.17,2.19,9.48a31.28,31.28,0,0,1-.43,5.57,13.16,13.16,0,0,1-1.53,4.13Q259.33,300.5,253.1,300.49Zm6-13.37c0-3.12-.39-5.38-1.17-6.76s-2.39-2.08-4.84-2.08h-4.76v18.51h4.76c2.49,0,4.16-.92,5-2.76a11.31,11.31,0,0,0,.81-3A30.77,30.77,0,0,0,259.11,287.12Z"/><path class="cls-6" d="M268.36,300.49V274.62h16.31v3.66H272.55v7.33h9.86v3.62h-9.86v7.56h12.12v3.7Z"/><path class="cls-5" d="M117,332v-19.4h12.23v2.74h-9.09v5.5h7.39v2.72h-7.39v5.66h9.09V332Z"/><path class="cls-5" d="M132.68,332v-19.4h5.49l5.89,16.62h.43V312.56h3.14V332h-5.38l-6-16.66h-.4V332Z"/><path class="cls-7" d="M174.27,331.58a31.45,31.45,0,0,1-6.61.79,12.73,12.73,0,0,1-4.71-.72,5.88,5.88,0,0,1-2.77-2.32,10.23,10.23,0,0,1-1.38-3.74,32.15,32.15,0,0,1-.38-5.4q0-6.82,1.92-9.5t7.08-2.69a30.38,30.38,0,0,1,6.89.94l-.14,3.8a40.16,40.16,0,0,0-5.69-.51,6.44,6.44,0,0,0-3.24.6,3.74,3.74,0,0,0-1.44,2.31,24.59,24.59,0,0,0-.47,5.78c0,2.72.32,4.61,1,5.65s1.9,1.58,3.8,1.58a40.07,40.07,0,0,0,6.08-.49Z"/><path class="cls-7" d="M191.68,332V322.2h-8.75V332h-4.78V308.42h4.78V318h8.75v-9.62h4.78V332Z"/><path class="cls-7" d="M199.61,332l5.3-23.54H214L219.27,332H214.5l-.94-4.26h-8.24l-.93,4.26Zm9-19.59-2.39,11.18h6.44l-2.39-11.18Z"/><path class="cls-7" d="M222.43,332V308.42h8.06l5.68,19.38h.34V308.42h4.78V332h-7.86l-5.88-19.39h-.35V332Z"/><path class="cls-7" d="M256.21,323.51v-4.15h6.86v12.22a53,53,0,0,1-8,.79q-5.5,0-7.56-2.94t-2.06-9.35c0-4.27.72-7.35,2.14-9.24s3.87-2.84,7.31-2.84a36.23,36.23,0,0,1,7,.73l1.25.24-.15,3.71a65.56,65.56,0,0,0-6.8-.45,7.93,7.93,0,0,0-3.72.62,3.72,3.72,0,0,0-1.57,2.3,22.33,22.33,0,0,0-.51,5.75q0,4.07,1,5.69c.67,1.09,2,1.63,4.15,1.63l2.88-.14v-4.57Z"/><path class="cls-7" d="M267.56,332V308.42H282.8v4.15H272.34v5.51h8.38v4.08h-8.38v5.64H282.8V332Z"/><path class="cls-7" d="M286.74,332V308.42h8.14L299,325.59l4.15-17.17h8.14V332h-4.78V313.75H306l-4.6,17.17h-4.78L292,313.75h-.52V332Z"/><path class="cls-7" d="M316.44,332V308.42h15.23v4.15H321.22v5.51h8.37v4.08h-8.37v5.64h10.45V332Z"/><path class="cls-7" d="M335.62,332V308.42h8.06l5.68,19.38h.35V308.42h4.77V332h-7.85l-5.89-19.39h-.34V332Z"/><path class="cls-7" d="M357.49,312.64v-4.22H374.8v4.22h-6.23V332h-4.78V312.64Z"/></svg>