<svg xmlns="http://www.w3.org/2000/svg" viewBox="0 0 675.18 117"><defs><style>.cls-1,.cls-4{fill:none;}.cls-2,.cls-5{fill:#13322b;}.cls-3{fill:#f5f5f5;}.cls-4{stroke:#13322b;stroke-miterlimit:10;stroke-width:2px;}.cls-5{font-size:10px;font-family:TitilliumWeb-Light, Titillium Web;font-weight:300;}.cls-6{letter-spacing:-0.01em;}.cls-7{letter-spacing:-0.05em;}.cls-8{letter-spacing:-0.01em;}.cls-9{letter-spacing:0em;}</style></defs><g id="Calque_2" data-name="Calque 2"><g id="Calque_1-2" data-name="Calque 1"><circle class="cls-1" cx="381.15" cy="57.02" r="44.46"/><path class="cls-2" d="M487.81,10.34l-103.62,0a70.08,70.08,0,0,0-12.62.84,46.53,46.53,0,0,0-4.41,90.11l.35.1c.42.12.83.25,1.26.36,3.93,1.06,8.09,1.46,16.22,1.46H487.8a46.44,46.44,0,1,0,0-92.87Zm0,88.74H400.54a46.53,46.53,0,0,0-.12-84.61h87.37a42.31,42.31,0,1,1,0,84.61ZM423.33,56.69a42.37,42.37,0,1,1-12.41-29.95A42.35,42.35,0,0,1,423.33,56.69Z"/><path class="cls-2" d="M394,35.77a1.51,1.51,0,1,0-1.5-1.5A1.5,1.5,0,0,0,394,35.77Zm-5.5-10.57V33c0,1.78.84,2.68,2.72,2.68a2.32,2.32,0,0,0,.46,0V33.75c-.66,0-.87-.2-.87-.78V25.2Zm1.15-1.55a1.5,1.5,0,0,0,1.4-.92,1.51,1.51,0,1,0-2.9-.58A1.5,1.5,0,0,0,389.63,23.65Zm-6.07,7.6c1.38.13,1.71.52,1.71,1.31s-.8,1.31-2.46,1.31a8.93,8.93,0,0,1-3.07-.57v2a9.65,9.65,0,0,0,3.41.56c3.28,0,4.4-1.55,4.4-3.32s-.82-2.85-3.94-3.12c-1.34-.12-1.71-.43-1.71-1.15,0-.93.76-1.31,2-1.31a8.55,8.55,0,0,1,3.16.58v-2a8,8,0,0,0-3.2-.52c-3,0-4.19,1.51-4.19,3.28S380.46,31,383.56,31.25Zm-2.45,63.11s22.94-38.9,23.14-39.28H357.83C358,55.48,381.11,94.36,381.11,94.36ZM391.9,39a12.77,12.77,0,0,0-10.72,5.7A12.74,12.74,0,0,0,370.47,39a13,13,0,0,0-13.11,12.27h47.46A12.89,12.89,0,0,0,391.9,39Zm-20.37-4.3a5.43,5.43,0,0,0,3.34,1.08c3,0,4.13-2,4.13-5.41S377.89,25,374.87,25a5.26,5.26,0,0,0-2.76.81V20h-2.32V35.52h1.36Zm.58-7.21a4.32,4.32,0,0,1,2.22-.59c2,0,2.34,1.54,2.34,3.44s-.31,3.45-2.34,3.45a4.33,4.33,0,0,1-2.22-.6ZM432.46,34V23.42H434V34Zm3.71-1.47a17.2,17.2,0,0,0,2.49.23,3.31,3.31,0,0,0,2.24-.59,1.49,1.49,0,0,0,.44-1.09c0-1-.66-1.37-2.46-1.91s-3-1.28-3-3.06a2.56,2.56,0,0,1,1-2.1,4.19,4.19,0,0,1,2.62-.72,15.82,15.82,0,0,1,2.91.33l-.19,1.31a15.38,15.38,0,0,0-2.44-.23A3.38,3.38,0,0,0,438,25a1.18,1.18,0,0,0-.49,1c0,1.08.83,1.39,2.57,1.91S443,29.19,443,31a2.82,2.82,0,0,1-1.07,2.32,4.63,4.63,0,0,1-2.89.77,17.75,17.75,0,0,1-3-.31Zm7.93-3.8c0-3.58,1.36-5.44,4.55-5.44s4.56,1.86,4.56,5.44-1.36,5.44-4.56,5.44S444.1,32.26,444.1,28.7Zm7.5,0c0-2.79-.83-4-3-4s-2.95,1.25-2.95,4,.84,4.05,2.92,4.05S451.6,31.48,451.6,28.7ZM454,34l4.1-10.56h1.27L455.34,34Zm6.75,0V23.42h1.57V34Zm3.8,0V23.42h6.27v1.39h-4.7v3H470v1.37h-3.85v3.36h4.7V34Zm15.11-.64a7.92,7.92,0,0,1-3.38.8,4.05,4.05,0,0,1-3.44-1.51,6.62,6.62,0,0,1-1-3.93,6.32,6.32,0,0,1,1.16-4.1,4.34,4.34,0,0,1,3.54-1.31,13.21,13.21,0,0,1,2.73.31l-.15,1.31a13.81,13.81,0,0,0-2.49-.23,2.94,2.94,0,0,0-2.5.94,5.23,5.23,0,0,0-.72,3.09,5.44,5.44,0,0,0,.61,2.94,2.51,2.51,0,0,0,2.31,1.11,7.81,7.81,0,0,0,2.86-.66Zm-47.45,17V49.13c2.91-2.53,5-4.52,5-6.27,0-1.31-1-1.78-2.08-1.78a7.93,7.93,0,0,0-2.67.57l-.43-1.24a8,8,0,0,1,3.22-.74c2.11,0,3.57,1.07,3.57,3.15,0,2.29-2.3,4.27-4.55,6.17H439v1.39Zm9.83,0a37.14,37.14,0,0,1,3.71-9.18h-5.24V39.8h6.9v1.31a33.14,33.14,0,0,0-3.66,9.25ZM449,45.08c0-3.54.73-5.44,3.81-5.44s3.81,1.9,3.81,5.44-.74,5.44-3.81,5.44S449,48.6,449,45.08Zm6,0c0-2.5-.15-4.06-2.23-4.06s-2.24,1.55-2.24,4.06.13,4.08,2.24,4.08S455,47.57,455,45.08Zm3.4,0c0-3.54.73-5.44,3.81-5.44s3.8,1.9,3.8,5.44-.73,5.44-3.8,5.44S458.39,48.6,458.39,45.08Zm6,0c0-2.5-.15-4.06-2.23-4.06S460,42.57,460,45.08s.13,4.08,2.24,4.08S464.43,47.57,464.43,45.08Zm5,5.27v-9l-2.19.83-.47-1.06,2.82-1.35H471V50.36ZM432.52,63.68v-7.6h1.14v7.6Zm6.13,0V60.1c0-.69-.33-1-.92-1a3,3,0,0,0-1.31.34v4.26h-1.08V58.23h.8l.09.5a2.78,2.78,0,0,1,1.65-.62,1.7,1.7,0,0,1,1.38.51,1.67,1.67,0,0,1,.47,1.39v3.67Zm2.87,0V59.09h-.8v-.78l.8-.05v-.59a1.8,1.8,0,0,1,.43-1.31,1.93,1.93,0,0,1,1.39-.41,5.36,5.36,0,0,1,.8,0l-.06.9h-.73s-.49,0-.59.19a1.05,1.05,0,0,0-.17.71v.45h1.19v.88h-1.19v4.59Zm5.42.12a2.37,2.37,0,0,1-1.73-.6,3.86,3.86,0,0,1,0-4.49,2.78,2.78,0,0,1,3.45,0,3.86,3.86,0,0,1,0,4.49,2.36,2.36,0,0,1-1.72.6Zm1.35-2.87a2.33,2.33,0,0,0-.38-1.52,1.44,1.44,0,0,0-2,0,3.16,3.16,0,0,0,0,3,1.19,1.19,0,0,0,1,.38,1.31,1.31,0,0,0,1-.38A2.28,2.28,0,0,0,448.29,60.93Zm2.3,2.75V58.23h.8l.14.65h.05a1.75,1.75,0,0,1,1.63-.76h.47l-.07,1a3.66,3.66,0,0,0-.66,0,2,2,0,0,0-1.31.41v4.21Zm10.4,0V60.07a.86.86,0,0,0-.93-1,2.72,2.72,0,0,0-1.27.38,3.68,3.68,0,0,1,.06.66v3.56H457.8V60.07c0-.65-.32-1-.92-1a2.55,2.55,0,0,0-1.21.33v4.27h-1.08V58.23h.8l.09.5a2.73,2.73,0,0,1,1.64-.62,1.56,1.56,0,0,1,1.41.7,2.7,2.7,0,0,1,1.7-.7c1.21,0,1.85.66,1.85,2v3.56Zm5.75,0-.12-.46a2.38,2.38,0,0,1-1.59.58,1.66,1.66,0,0,1-1.28-.45,1.69,1.69,0,0,1-.53-1.26,1.62,1.62,0,0,1,.58-1.27,2.25,2.25,0,0,1,1.46-.41c.38,0,.82,0,1.2,0V60a.91.91,0,0,0-.23-.65,1.39,1.39,0,0,0-1-.24,7.89,7.89,0,0,0-1.53.18l-.16-.9a6.77,6.77,0,0,1,1.79-.24,2.51,2.51,0,0,1,1.64.43,1.7,1.7,0,0,1,.53,1.4v3.71Zm-.28-2.44-1,0c-.8,0-1.17.28-1.17.88a.84.84,0,0,0,.93.86,2,2,0,0,0,1.21-.4Zm5.47,2.21a2.88,2.88,0,0,1-1.31.32c-.89,0-1.39-.49-1.39-1.48V59.11h-.81v-.8l.85-.05.08-1.6h1v1.56h1.52v.88h-1.52v3c0,.4.07.66.49.66a1.86,1.86,0,0,0,.79-.21Zm1.6-7.4a.6.6,0,0,1,.6.6.56.56,0,0,1-.18.42.59.59,0,0,1-.84-.84.56.56,0,0,1,.42-.18ZM473,63.68V58.23h1.07v5.45Zm4.71.12a2.36,2.36,0,0,1-1.72-.6,3.86,3.86,0,0,1,0-4.49,2.77,2.77,0,0,1,3.44,0,3,3,0,0,1,.72,2.22,3.05,3.05,0,0,1-.72,2.24,2.39,2.39,0,0,1-1.72.63Zm1.36-2.87a2.34,2.34,0,0,0-.39-1.52,1.44,1.44,0,0,0-2,0,2.33,2.33,0,0,0-.38,1.52,2.26,2.26,0,0,0,.38,1.52,1.19,1.19,0,0,0,1,.38,1.28,1.28,0,0,0,1-.38A2.29,2.29,0,0,0,479.07,60.93Zm5.6,2.75V60.1c0-.69-.32-1-.92-1a3,3,0,0,0-1.31.34v4.26h-1.05V58.23h.8l.09.5a2.78,2.78,0,0,1,1.65-.62,1.72,1.72,0,0,1,1.86,1.9v3.67ZM490,62.62a11,11,0,0,0,1.8.16,2.39,2.39,0,0,0,1.62-.42,1,1,0,0,0,.32-.78c0-.74-.46-1-1.77-1.38s-2.15-.92-2.15-2.21a1.86,1.86,0,0,1,.73-1.51,3,3,0,0,1,1.88-.52,10.56,10.56,0,0,1,2.1.24l-.14.94a10.38,10.38,0,0,0-1.76-.16,2.3,2.3,0,0,0-1.31.27.81.81,0,0,0-.35.7c0,.78.6,1,1.85,1.39s2.07.9,2.07,2.23a2,2,0,0,1-.77,1.67,3.31,3.31,0,0,1-2.09.56,12,12,0,0,1-2.16-.22Zm10.15.74a4.59,4.59,0,0,1-1.89.44c-1.6,0-2.46-1-2.46-2.81,0-1.5.65-2.88,2.34-2.88,1.31,0,2.09,1,2.09,2.41a4.56,4.56,0,0,1-.08.82h-3.28a1.74,1.74,0,0,0,.37,1.12,1.38,1.38,0,0,0,1.09.38,4,4,0,0,0,1.56-.34Zm-.93-2.86c0-.82-.24-1.46-1.11-1.46s-1.17.7-1.21,1.46Zm6.09,2.86a4.49,4.49,0,0,1-1.86.44c-1.43,0-2.35-.8-2.35-2.82,0-2.31,1.17-2.86,2.5-2.86a6.91,6.91,0,0,1,1.51.16l-.13.89a8.52,8.52,0,0,0-1.24-.1c-1.05,0-1.59.41-1.59,1.89,0,1.31.44,1.88,1.37,1.88A3.55,3.55,0,0,0,505,62.5Zm4.62.32-.09-.46a2.75,2.75,0,0,1-1.65.59,1.7,1.7,0,0,1-1.38-.51,1.72,1.72,0,0,1-.46-1.39V58.23h1.07V61.8c0,.74.33,1,1,1a3,3,0,0,0,1.27-.31V58.23h1.07v5.45Zm2.36,0V58.23h.8l.14.65h0a1.71,1.71,0,0,1,1.62-.77h.47l-.07,1a3.66,3.66,0,0,0-.66,0,2,2,0,0,0-1.31.41v4.23Zm4.49-7.63a.59.59,0,0,1,.42.17.59.59,0,0,1,0,.85.59.59,0,0,1-.84-.84A.56.56,0,0,1,516.79,56.05Zm-.53,7.63V58.23h1.07v5.45Zm5.54-.23a2.89,2.89,0,0,1-1.32.32,1.29,1.29,0,0,1-1.39-1.48V59.11h-.81v-.8l.85-.05.09-1.6h1v1.56h1.52v.88h-1.52v3c0,.4.07.66.48.66a1.79,1.79,0,0,0,.79-.21Zm2,2.38c.33-.84.58-1.58.77-2.15H524c-.56-1.5-1.12-3.49-1.62-5.45h1.12c.37,1.61.77,3.14,1.24,4.59h.08c.44-1.31.9-3,1.26-4.59h1.1a64.69,64.69,0,0,1-2.32,7.6Zm-85,11c-.06-2-.15-4.11-.25-6.12h-.06l-1.72,4.84h-1.25l-1.72-4.84h-.06c-.09,2-.19,4.1-.25,6.12h-1.11c.08-2.52.21-5.06.35-7.6h1.65l1.75,5h.05l1.74-5h1.65q.22,3.81.36,7.6Zm5.86,0-.12-.46a2.38,2.38,0,0,1-1.59.58,1.68,1.68,0,0,1-1.28-.45,1.64,1.64,0,0,1-.52-1.26,1.58,1.58,0,0,1,.57-1.27,2.33,2.33,0,0,1,1.46-.42,9.63,9.63,0,0,1,1.2,0V73.1a.91.91,0,0,0-.23-.65,1.38,1.38,0,0,0-1-.24,8,8,0,0,0-1.53.18l-.16-.9a6.77,6.77,0,0,1,1.79-.24,2.51,2.51,0,0,1,1.64.43,1.7,1.7,0,0,1,.53,1.4v3.75Zm-.28-2.44c-.27,0-.66,0-1,0-.8,0-1.17.29-1.17.89a.84.84,0,0,0,.93.86,2,2,0,0,0,1.21-.4Zm5.91,2.44V73.21c0-.69-.32-1-.92-1a3.18,3.18,0,0,0-1.31.34v4.27H447V71.34h.79l.09.5a2.78,2.78,0,0,1,1.65-.62,1.71,1.71,0,0,1,1.86,1.9v3.67Zm5.74,0-.12-.46a2.38,2.38,0,0,1-1.59.58,1.67,1.67,0,0,1-1.8-1.71,1.59,1.59,0,0,1,.58-1.27,2.3,2.3,0,0,1,1.46-.42,9.48,9.48,0,0,1,1.19,0V73.1a1,1,0,0,0-.22-.65,1.4,1.4,0,0,0-1-.24,8,8,0,0,0-1.54.18l-.16-.9a6.79,6.79,0,0,1,1.8-.24,2.5,2.5,0,0,1,1.63.43,1.67,1.67,0,0,1,.53,1.4v3.75Zm-.28-2.44c-.27,0-.66,0-1,0-.79,0-1.17.29-1.17.89a.84.84,0,0,0,.93.86,2,2,0,0,0,1.21-.4Zm5.75,2.13a2.38,2.38,0,0,1-1.31.43c-1.55,0-2.11-1-2.11-2.8,0-2,.65-2.89,2.15-2.89a8,8,0,0,1,2.33.38v5.72a1.71,1.71,0,0,1-.5,1.31,2.51,2.51,0,0,1-1.68.47,10.3,10.3,0,0,1-1.75-.19l.14-.92a11.84,11.84,0,0,0,1.46.15,1.59,1.59,0,0,0,1-.25,1,1,0,0,0,.21-.66Zm0-4.2a7.46,7.46,0,0,0-1.16-.1c-.93,0-1.16.65-1.16,2s.25,1.9,1.15,1.9a2.5,2.5,0,0,0,1.17-.26ZM468,76.47a4.55,4.55,0,0,1-1.88.44c-1.61,0-2.47-1-2.47-2.81,0-1.5.66-2.88,2.35-2.88,1.31,0,2.09.94,2.09,2.41a3.81,3.81,0,0,1-.09.82h-3.27a1.79,1.79,0,0,0,.36,1.12,1.39,1.39,0,0,0,1.09.38,4.06,4.06,0,0,0,1.57-.34Zm-.93-2.87c0-.81-.23-1.46-1.11-1.46s-1.16.71-1.21,1.46Zm8.63,3.19V73.18c0-.66-.32-1-.93-1a2.68,2.68,0,0,0-1.26.38q0,.33.06.66v3.55h-1.08v-3.6c0-.66-.32-1-.92-1a2.47,2.47,0,0,0-1.21.33v4.27H469.3V71.34h.79l.1.5a2.72,2.72,0,0,1,1.63-.62,1.57,1.57,0,0,1,1.42.7,2.7,2.7,0,0,1,1.7-.7c1.21,0,1.85.66,1.85,2v3.56Zm6.51-.32a4.63,4.63,0,0,1-1.89.44c-1.61,0-2.47-1-2.47-2.81,0-1.5.66-2.88,2.35-2.88,1.31,0,2.09.94,2.09,2.41a4.56,4.56,0,0,1-.08.82H479a1.74,1.74,0,0,0,.37,1.12,1.35,1.35,0,0,0,1.08.38,4,4,0,0,0,1.57-.34Zm-.93-2.87c0-.81-.24-1.46-1.11-1.46S479,72.85,479,73.6Zm5.53,3.19V73.21c0-.69-.32-1-.92-1a3.11,3.11,0,0,0-1.31.34v4.27h-1.08V71.34h.8l.09.5a2.78,2.78,0,0,1,1.65-.62,1.72,1.72,0,0,1,1.86,1.9v3.67Zm5.42-.23a2.82,2.82,0,0,1-1.31.32,1.29,1.29,0,0,1-1.39-1.48V72.22h-.81v-.8l.85,0,.09-1.6h1v1.56h1.52v.88h-1.52v3c0,.4.07.65.48.65a1.66,1.66,0,0,0,.79-.2Z"/><path class="cls-2" d="M675.18,7.84C602.35,6.8,581.28,19,581.28,19l-4.65,61.68h93Z"/><polygon class="cls-2" points="575.18 99.92 668.22 99.92 669.57 82.16 576.52 82.16 575.18 99.92"/><path class="cls-3" d="M605.71,77.21h-.24c-1.56,0-2.92-1.17-2.73-3.89s1.71-3.89,3.28-3.89,2.93,1.17,2.74,3.89a4.07,4.07,0,0,1-1.86,3.53l1.37,1.69h-1.59Zm-.16-1.07c.88,0,1.63-.74,1.78-2.82s-.51-2.83-1.39-2.83-1.63.75-1.78,2.83.51,2.82,1.39,2.82"/><path class="cls-3" d="M615.74,76.18c0,.34,0,.67,0,.92h-1.25c0-.29,0-.58,0-.86h0a1.77,1.77,0,0,1-1.55.94c-1.26,0-1.58-.94-1.5-2.06l.25-3.6H613l-.24,3.35c-.06.85.16,1.21.72,1.21s1-.65,1-1.36l.23-3.2h1.34Z"/><path class="cls-3" d="M619.21,71.85a4,4,0,0,1,1.79-.41c1.73,0,2.07.84,2,2.24l-.17,2.43a8,8,0,0,0,0,1H621.6a2.71,2.71,0,0,1,0-.76h0a2,2,0,0,1-1.62.84,1.46,1.46,0,0,1-1.55-1.63c.1-1.52,1.36-1.9,3.06-1.9h.27l0-.2a.89.89,0,0,0-1-1.06,2.7,2.7,0,0,0-1.56.54Zm2.46,2.52h-.12c-1.14,0-1.84.24-1.9,1a.75.75,0,0,0,.8.86c.8,0,1.13-.6,1.2-1.6Z"/><polygon class="cls-3" points="626.36 68.98 627.7 68.98 627.13 77.1 625.79 77.1 626.36 68.98"/><path class="cls-3" d="M630.67,71.52H632l-.4,5.58h-1.34Zm.15-2.37h1.38l-.09,1.32h-1.38Z"/><path class="cls-3" d="M635.61,70.37,637,70l-.1,1.56H638l-.07,1h-1.11l-.21,2.89c0,.59.17.77.56.77a1.15,1.15,0,0,0,.51-.12l-.06,1a2.15,2.15,0,0,1-.91.18c-1,0-1.53-.45-1.45-1.62l.21-3h-.88l.06-1h.89Z"/><path class="cls-3" d="M644.24,76.83a4.3,4.3,0,0,1-1.69.35c-1.79,0-2.48-1.28-2.38-2.79.12-1.67,1.08-3,2.5-3,1.2,0,2.18.7,2,3l0,.26h-3.23c-.07,1,.27,1.53,1.31,1.53a2.35,2.35,0,0,0,1.49-.43Zm-.8-3c.07-1-.22-1.49-.83-1.49s-1.05.75-1.1,1.49Zm-.61-4.48h1.25l-1.21,1.56H642Z"/><path class="cls-3" d="M583.17,92.56H581.5l-.45,1.2h-1.46l2.28-5.66h1.68L585,93.76h-1.58Zm-.55-3.31h0l-.76,2.22H583Z"/><polygon class="cls-3" points="586.01 88.1 589.36 88.1 589.28 89.22 587.43 89.22 587.35 90.37 589.12 90.37 589.04 91.49 587.27 91.49 587.11 93.76 585.62 93.76 586.01 88.1"/><polygon class="cls-3" points="591.4 89.83 591.37 89.83 591.1 93.76 589.76 93.76 590.16 88.1 591.93 88.1 593.14 92 593.16 92 593.43 88.1 594.76 88.1 594.37 93.76 592.58 93.76 591.4 89.83"/><path class="cls-3" d="M598.23,88c1.23,0,2.46.83,2.31,2.93s-1.49,2.93-2.72,2.93-2.46-.83-2.31-2.93S597,88,598.23,88m-.35,4.77h0c.64,0,1-.72,1.08-1.84s-.18-1.84-.82-1.84-1,.74-1.09,1.84.18,1.84.82,1.84"/><path class="cls-3" d="M603.68,92.16c-.11-.55-.36-.62-.6-.62H603l-.16,2.22h-1.52l.39-5.66H604c1.14,0,1.76.48,1.69,1.52a1.41,1.41,0,0,1-1.18,1.3v0c.31.11.51.26.69,1l.38,1.77H604Zm-.22-1.7a.66.66,0,0,0,.66-.61.55.55,0,0,0-.6-.67h-.42L603,90.46Z"/><path class="cls-3" d="M612.68,93.64a5.27,5.27,0,0,1-1.41.22c-1.65,0-2.75-1-2.61-3a2.85,2.85,0,0,1,3-2.89,3.4,3.4,0,0,1,1.36.26l-.17,1.25a2.14,2.14,0,0,0-1.08-.33c-1,0-1.48.64-1.55,1.74s.41,1.72,1.37,1.72a2.23,2.23,0,0,0,1.11-.31Z"/><polygon class="cls-3" points="613.96 88.1 617.43 88.1 617.35 89.22 615.37 89.22 615.3 90.3 617.18 90.3 617.1 91.42 615.22 91.42 615.13 92.64 617.22 92.64 617.14 93.76 613.56 93.76 613.96 88.1"/><path class="cls-3" d="M620.4,92.16c-.1-.55-.35-.62-.6-.62h-.08l-.15,2.22H618l.4-5.66h2.26c1.15,0,1.76.48,1.69,1.52a1.4,1.4,0,0,1-1.18,1.3v0c.32.11.52.26.69,1l.39,1.77h-1.58Zm-.22-1.7a.66.66,0,0,0,.67-.61.56.56,0,0,0-.6-.67h-.43l-.09,1.28Z"/><polygon class="cls-3" points="624.27 89.25 623.05 89.25 623.13 88.1 627.09 88.1 627.01 89.25 625.79 89.25 625.48 93.76 623.95 93.76 624.27 89.25"/><polygon class="cls-3" points="627.85 88.1 629.37 88.1 628.98 93.76 627.45 93.76 627.85 88.1"/><polygon class="cls-3" points="630.52 88.1 633.87 88.1 633.78 89.22 631.94 89.22 631.85 90.37 633.62 90.37 633.55 91.49 631.78 91.49 631.62 93.76 630.12 93.76 630.52 88.1"/><polygon class="cls-3" points="634.7 88.1 636.23 88.1 635.83 93.76 634.3 93.76 634.7 88.1"/><path class="cls-3" d="M641,93.64a5.4,5.4,0,0,1-1.42.22c-1.64,0-2.75-1-2.61-3A2.86,2.86,0,0,1,640,88a3.33,3.33,0,0,1,1.35.26l-.17,1.25a2.14,2.14,0,0,0-1.08-.33c-1,0-1.47.64-1.55,1.74s.41,1.72,1.37,1.72a2.19,2.19,0,0,0,1.11-.31Z"/><path class="cls-3" d="M645,92.56h-1.66l-.45,1.2h-1.47l2.28-5.66h1.69l1.4,5.66h-1.57Zm-.55-3.31h0l-.77,2.22h1.12Z"/><polygon class="cls-3" points="648.29 89.25 647.08 89.25 647.16 88.1 651.12 88.1 651.04 89.25 649.82 89.25 649.5 93.76 647.98 93.76 648.29 89.25"/><polygon class="cls-3" points="651.87 88.1 653.4 88.1 653 93.76 651.48 93.76 651.87 88.1"/><path class="cls-3" d="M656.9,88c1.23,0,2.46.83,2.31,2.93s-1.49,2.93-2.72,2.93S654,93,654.18,90.93,655.66,88,656.9,88m-.35,4.77h0c.64,0,1-.72,1.07-1.84s-.17-1.84-.82-1.84-1,.74-1.08,1.84.18,1.84.82,1.84"/><polygon class="cls-3" points="661.59 89.83 661.56 89.83 661.28 93.76 659.95 93.76 660.35 88.1 662.12 88.1 663.33 92 663.35 92 663.62 88.1 664.95 88.1 664.56 93.76 662.77 93.76 661.59 89.83"/><path class="cls-3" d="M602.79,23.71c-1.77-.67-4.06-1-8.81-1h-4.09a2.48,2.48,0,0,0,1.47,2.21h2.55a15.28,15.28,0,0,1,4.78.53c1.08.36,1.59,1,1.51,2l0,.54c-5.82,1.4-11,3-13.62,4.67a4.14,4.14,0,0,0-2.4,3.45c-.18,1.7.57,3.16,2.84,4,2.1.79,4.66,1,8.32,1h3.07a13.33,13.33,0,0,0,3.54-.55c2.42-.84,2.93-2.69,3.07-4.35l.72-9.41c-.18-1.35-1.12-2.36-2.91-3m-3.51,15.1h-4.95a12.75,12.75,0,0,1-3.25-.49c-1-.32-1.46-.87-1.49-1.68a3.62,3.62,0,0,1,.62-2.37c1-1.26,3.85-2.21,3.85-2.21A43.94,43.94,0,0,1,600,30.41Z"/><path class="cls-3" d="M640.35,24.13a10.28,10.28,0,0,0-2.55-.56c-6.68-.9-13.9.13-21,1.29l.27-3.36c.09-1,.26-1.61,1.4-2a16.83,16.83,0,0,1,4.82-.53h4.74a2.39,2.39,0,0,0,1.4-2.21h-6.28c-3.66,0-5.82.18-8,1-2.42.84-3.39,2.27-3.53,3.93l-.33,4.13c-.76.14-1.68.28-2.45.47a2.72,2.72,0,0,0-1,2.62h0c1-.21,2.2-.41,3.21-.6l-1,12.48h5.48l1-13.4c4.42-.85,13.68-2.5,18.7-1.75.44.09.74.18.91.23,1.08.36,1.58,1,1.51,2l0,.12c-5.82,1.4-11,3-13.62,4.67a4.14,4.14,0,0,0-2.4,3.45c-.19,1.7.57,3.16,2.84,4,2.09.79,4.66,1,8.32,1h3.07a13.4,13.4,0,0,0,3.54-.55c2.42-.84,2.92-2.69,3.06-4.35l.74-9c-.19-1.35-1.13-2.35-2.92-3m-3.52,14.68h-4.94a12.75,12.75,0,0,1-3.25-.49c-1-.32-1.46-.87-1.49-1.68a3.56,3.56,0,0,1,.62-2.37c1-1.26,3.85-2.21,3.85-2.21a43.94,43.94,0,0,1,5.89-1.65Z"/><path class="cls-3" d="M664.06,28l-.71,8.43a2.26,2.26,0,0,1-1.86,2,15.61,15.61,0,0,1-4.23.53,14.56,14.56,0,0,1-4.12-.53,1.8,1.8,0,0,1-1.49-2l.71-8.43a2.28,2.28,0,0,1,1.86-2,16.06,16.06,0,0,1,4.22-.53,14.9,14.9,0,0,1,4.13.53c1.09.36,1.58,1,1.49,2m2.64-3.75c-2-.75-4.39-1-7.73-1h-.65a24.07,24.07,0,0,0-7.92,1c-2.44.85-3.42,2.29-3.56,3.95l-.68,8c-.14,1.67.57,3.11,2.85,4a17.88,17.88,0,0,0,5.51.93c0,.22,0,0,0,.25-.14,1.94,1.9,3.9,5.13,3.9h6a2.81,2.81,0,0,0,2.62-2.1H663.5c-4,0-3.5-2.07-3.5-2.07a18.34,18.34,0,0,0,5.32-.91c2.43-.84,3.46-2.28,3.6-4l.62-8c.14-1.66-.55-3.1-2.84-3.95"/><polygon class="cls-3" points="582.05 64.06 666.81 64.06 668.06 47.45 583.28 47.45 582.05 64.06"/><polygon class="cls-2" points="589.27 50.91 591.84 50.91 591.16 60.56 588.59 60.56 589.27 50.91"/><path class="cls-2" d="M595.22,58.18a5.37,5.37,0,0,0,2.61.64c.81,0,1.6-.16,1.65-.94.13-1.8-4.51-.66-4.27-4.18.16-2.32,2.48-3,4.41-3a8,8,0,0,1,2.47.36l-.31,2a5,5,0,0,0-2.11-.44c-.65,0-1.73.06-1.79.9-.11,1.56,4.53.51,4.28,4-.17,2.5-2.32,3.18-4.46,3.18a10.07,10.07,0,0,1-2.85-.41Z"/><path class="cls-2" d="M610.58,50.74c3.18,0,4.71,1.9,4.49,5s-2,5-5.19,5-4.71-1.92-4.49-5,2-5,5.19-5M610,58.82c1.57,0,2.29-1.49,2.41-3.08s-.41-3.09-2-3.09-2.29,1.41-2.41,3.09.41,3.08,2,3.08"/><path class="cls-2" d="M624.82,58.39a3.43,3.43,0,0,0,2,.51c1.72,0,2.33-1.13,2.46-2.83h0a2.53,2.53,0,0,1-2.16,1,2.62,2.62,0,0,1-2.68-3,3.7,3.7,0,0,1,3.86-3.27c2.75,0,3.55,2.16,3.38,4.58-.2,3-1.44,5.41-4.63,5.41a6.36,6.36,0,0,1-2.48-.44Zm3.33-6a1.34,1.34,0,0,0-1.32,1.37c-.06.8.22,1.54,1.12,1.54a1.39,1.39,0,0,0,1.36-1.43c.06-.79-.33-1.48-1.16-1.48"/><path class="cls-2" d="M634.6,55.74c.18-2.51.91-5,4.1-5s3.57,2.49,3.4,5-.9,5-4.1,5-3.57-2.49-3.4-5m5,0c.11-1.54.13-3.25-1-3.25s-1.38,1.71-1.49,3.25S637,59,638.12,59s1.38-1.72,1.49-3.25"/><path class="cls-2" d="M645,55.74c.17-2.51.9-5,4.09-5s3.58,2.49,3.4,5-.9,5-4.1,5-3.57-2.49-3.39-5m5,0c.11-1.54.13-3.25-1-3.25s-1.38,1.71-1.48,3.25-.14,3.25,1,3.25,1.38-1.72,1.48-3.25"/><polygon class="cls-2" points="658.95 53.48 657.04 54.78 656.01 53.04 659.44 50.91 661.71 50.91 661.03 60.56 658.46 60.56 658.95 53.48"/><polygon class="cls-3" points="576.63 80.67 576.52 82.16 669.57 82.16 669.68 80.67 576.63 80.67"/><path class="cls-2" d="M61.85,80.11H59.33V74.18h8.56V93.51h-6Z"/><path class="cls-2" d="M78.79,93.51V89.63h-7.2V84.52L77.91,74h6.65V84.52h1.82v5.11H84.56v3.88Zm-2-9h2.4V81.89c0-.52,0-.94,0-1.28s0-.64.09-.91q-.18.52-.42,1c-.17.35-.41.81-.73,1.38Z"/><path class="cls-2" d="M88.71,83.9a12.45,12.45,0,0,1,1.93-7.39,6.59,6.59,0,0,1,10.62,0,12.5,12.5,0,0,1,1.92,7.41,12.65,12.65,0,0,1-1.92,7.44,6.55,6.55,0,0,1-10.61,0A12.56,12.56,0,0,1,88.71,83.9Zm5.88,0A10.44,10.44,0,0,0,94.92,87c.22.65.56,1,1,1s.81-.32,1-1a10.81,10.81,0,0,0,.32-3.09A10.91,10.91,0,0,0,97,80.82c-.22-.65-.56-1-1-1s-.82.32-1,1A10.84,10.84,0,0,0,94.59,83.91Z"/><path class="cls-2" d="M105.77,83.9a12.45,12.45,0,0,1,1.94-7.39,6.58,6.58,0,0,1,10.61,0c1.29,1.78,1.92,4.25,1.92,7.41a12.57,12.57,0,0,1-1.92,7.44,6.55,6.55,0,0,1-10.61,0A12.56,12.56,0,0,1,105.77,83.9Zm5.88,0A10.44,10.44,0,0,0,112,87c.22.65.56,1,1,1s.82-.32,1-1a10.46,10.46,0,0,0,.32-3.09,10.55,10.55,0,0,0-.32-3.09c-.21-.65-.56-1-1-1s-.82.32-1,1A10.84,10.84,0,0,0,111.65,83.91Z"/><path class="cls-2" d="M125.39,80.11h-2.52V74.18h8.56V93.51h-6Z"/><path class="cls-2" d="M2.17,49.8.26,46.5v4.31c.44-.2.84-.41,1.21-.6ZM18.45,39.5c2.83.31,5.44.72,7.8,1.17-1.38-1.25-3-2.63-4.83-4.13C20.49,37.53,19.48,38.52,18.45,39.5ZM6.05,27.06A37.52,37.52,0,0,0,.26,25.4v4.45L1.41,31A23.49,23.49,0,0,0,6.05,27.06Zm-3.3,5.38c1.75,1.87,3.73,4.08,5.65,6.41,2.64,0,5.16.18,7.54.39h0c1.41-1.29,2.77-2.6,4-3.91L17.85,33.7a46.83,46.83,0,0,0-10-5.89A24.32,24.32,0,0,1,2.75,32.44ZM.26,66.52v1.66l.89-.3C.84,67.43.56,67,.26,66.52Zm10.92-2.64v0c-2.89-4-5.74-8.61-8-12.46l-.76.44c-.61.33-1.34.67-2.12,1v10C1.12,64.35,2,65.81,3,67.21,5.25,66.4,8.09,65.28,11.18,63.88ZM6.32,74.12a45.21,45.21,0,0,1-4-4.62c-.81.28-1.51.51-2.08.69V80.43a47.7,47.7,0,0,0,10.56-2.18C9.43,77.08,7.93,75.73,6.32,74.12Zm2.15,8.64A37.62,37.62,0,0,0,15.88,82c-1-.64-2.1-1.41-3.29-2.34A48.69,48.69,0,0,1,2,82.18,36.94,36.94,0,0,0,8.47,82.76ZM25.63,26.24c-.56-.37-1.12-.73-1.7-1.09A30.61,30.61,0,0,0,10.74,21a9.12,9.12,0,0,1-.29,2A12.07,12.07,0,0,1,9,26.21a48.7,48.7,0,0,1,10,6c.78.59,1.51,1.16,2.22,1.73,2.18-2.49,3.77-4.85,4.21-6.75C25.51,26.86,25.57,26.55,25.63,26.24Zm-18,46.53a64.22,64.22,0,0,0,5.24,4.75,41.42,41.42,0,0,0,7.2-3.61,28.6,28.6,0,0,1-2.68-2.34,54.76,54.76,0,0,1-5.08-6.08h0c-3,1.38-5.86,2.5-8.14,3.33A40.8,40.8,0,0,0,7.67,72.77Zm1.7-55.3a4.19,4.19,0,0,1,1.06,1.6,32.87,32.87,0,0,1,14.49,4.46l1,.67a24.64,24.64,0,0,0,.16-4.64,36.77,36.77,0,0,0-13.82-4.25H4.53c-1.07.11-2.13.26-3.17.46C4.78,15.51,7.71,15.9,9.37,17.47ZM8.13,18.93s0-.06-.07-.08c-1.23-1.17-4-1.51-7.8-1.05v1.56A49.39,49.39,0,0,1,8.13,18.93Zm.48,3.58a6.07,6.07,0,0,0,.21-1.6,48,48,0,0,0-8.56.4v2.12a37.72,37.72,0,0,1,7,2A10.18,10.18,0,0,0,8.61,22.51ZM5.9,38.84c-1.65-1.94-3.3-3.77-4.78-5.35-.29.18-.57.34-.86.5v5c1.93-.12,3.81-.18,5.65-.2ZM28.08,20.7a26.74,26.74,0,0,1-.35,4.62,57.79,57.79,0,0,1,11.12,9.53c.17-1.07.29-2.06.36-3A34.89,34.89,0,0,0,28.08,20.7Zm-.79,6.91c-.52,2.2-2.25,4.81-4.59,7.51,3,2.44,5.33,4.54,7.16,6.31,2.77.63,5,1.28,6.8,1.84A16.52,16.52,0,0,0,37.5,41c.36-1.3.65-2.51.89-3.66a52.57,52.57,0,0,0-11-9.92A2,2,0,0,0,27.29,27.61Zm-.55,50.33h0a37.41,37.41,0,0,1-5-2.83,43.06,43.06,0,0,1-7.07,3.77,35.74,35.74,0,0,0,3.85,2.5A36.81,36.81,0,0,0,26.74,77.94Zm12.6-36.49a20.4,20.4,0,0,1-.85,2.42l-.29-.1,1.27.45a19.35,19.35,0,0,1,2.31,1.07c0-.64.07-1.27.07-1.94V42.27c-.59-1-1.24-2-2-3C39.73,40,39.55,40.7,39.34,41.45Zm2.51-4.34c-.32-.81-.68-1.61-1.06-2.39-.1.66-.21,1.34-.35,2.06.5.63,1,1.27,1.41,1.92Z"/><path class="cls-2" d="M117,35h-.88v1.18H117a1.22,1.22,0,0,0,.68-.13.54.54,0,0,0,.19-.46.53.53,0,0,0-.19-.46A1.36,1.36,0,0,0,117,35Zm12.64.06H129v3.14h.55a1.35,1.35,0,0,0,1.06-.34,1.88,1.88,0,0,0,.29-1.22,1.93,1.93,0,0,0-.3-1.22A1.27,1.27,0,0,0,129.59,35ZM75.12,35h-.88v1.18h.93a1.22,1.22,0,0,0,.68-.13.53.53,0,0,0,.18-.46.52.52,0,0,0-.18-.46A1.36,1.36,0,0,0,75.12,35ZM124.58,50.3a4.56,4.56,0,0,0-4-1.8,4.64,4.64,0,0,0-4,1.8q-1.29,1.81-1.29,5.68t1.29,5.65a4.64,4.64,0,0,0,4,1.8,4.58,4.58,0,0,0,4-1.79c.84-1.2,1.27-3.09,1.27-5.66S125.42,51.49,124.58,50.3Zm-75-34.94A50.23,50.23,0,0,1,62.42,49,50.44,50.44,0,0,1,58.1,69.51H72.6V42.38h8.87V69.51h7.81A10.78,10.78,0,0,1,86,67.85a9.15,9.15,0,0,1-3.54-6.8H91a3.48,3.48,0,0,0,1.27,2.13,4.75,4.75,0,0,0,2.74.65,4.63,4.63,0,0,0,2.39-.53,1.62,1.62,0,0,0,.87-1.45q0-1.47-3.65-2.39l-1.11-.28c-2-.52-3.6-1-4.79-1.41a11.82,11.82,0,0,1-2.58-1.19,7.29,7.29,0,0,1-2.35-2.68A8,8,0,0,1,83,50.32,7.52,7.52,0,0,1,86,44c2-1.53,4.81-2.3,8.36-2.3s6.23.73,8.23,2.2A8.37,8.37,0,0,1,106,50.2H97.71a2.6,2.6,0,0,0-1.06-1.78,4.23,4.23,0,0,0-2.44-.59,3.73,3.73,0,0,0-2.08.46,1.57,1.57,0,0,0-.68,1.4c0,.89,1.19,1.64,3.57,2.24l.48.13,1.56.39a23.32,23.32,0,0,1,6.18,2.17,7.78,7.78,0,0,1,2.63,2.72A7.49,7.49,0,0,1,106.7,61a8.18,8.18,0,0,1-3.14,6.9,10.45,10.45,0,0,1-3.34,1.66h15.16a12.16,12.16,0,0,1-5.13-3.09q-3.8-3.84-3.79-10.44t3.79-10.46q3.78-3.83,10.32-3.83t10.29,3.83q3.78,3.82,3.78,10.46t-3.78,10.44a12.15,12.15,0,0,1-5.11,3.09h10.09V15.36ZM78.16,39.78H76.1c0-.15-.07-.28-.09-.4a1.38,1.38,0,0,1,0-.26v-.64a1,1,0,0,0-.2-.69,1,1,0,0,0-.68-.2h-.87v2.19h-2V33.42h3a3.6,3.6,0,0,1,2,.43,1.58,1.58,0,0,1,.62,1.4,1.81,1.81,0,0,1-.25,1,1.69,1.69,0,0,1-.78.61,1.23,1.23,0,0,1,.78.44,1.78,1.78,0,0,1,.26,1l0,.89v0q0,.38.18.39Zm6,0H79V33.42h5.08V35H81v.84h2.57v1.46H81v1h3.17Zm7,0H89.88l-.1-.55a2.09,2.09,0,0,1-.84.55,3.23,3.23,0,0,1-1.13.18,2.7,2.7,0,0,1-2.15-.9,3.54,3.54,0,0,1-.79-2.45,3.05,3.05,0,0,1,3.33-3.35,3.11,3.11,0,0,1,2,.61,2.55,2.55,0,0,1,.9,1.74H89.17A1.06,1.06,0,0,0,88.8,35a1,1,0,0,0-.65-.2,1,1,0,0,0-.91.47,2.53,2.53,0,0,0-.31,1.4A2.15,2.15,0,0,0,87.24,38a1,1,0,0,0,.93.43,1.33,1.33,0,0,0,.76-.21.88.88,0,0,0,.39-.56H88.4V36.3h2.79Zm3.28,0H92.39V33.42h2.08Zm5.9-.38a3.48,3.48,0,0,1-2.12.56,3.25,3.25,0,0,1-2-.56,2.13,2.13,0,0,1-.83-1.6h2a.86.86,0,0,0,.3.5,1.16,1.16,0,0,0,.65.15,1.11,1.11,0,0,0,.56-.12.38.38,0,0,0,.21-.34c0-.23-.29-.42-.86-.56L98,37.36c-.47-.12-.84-.23-1.12-.33a2.75,2.75,0,0,1-.61-.28,1.75,1.75,0,0,1-.55-.63,1.86,1.86,0,0,1-.18-.84,1.76,1.76,0,0,1,.71-1.48,3.19,3.19,0,0,1,2-.54,3.26,3.26,0,0,1,1.94.51,2,2,0,0,1,.79,1.48H99a.61.61,0,0,0-.25-.41.92.92,0,0,0-.57-.14.83.83,0,0,0-.49.11.35.35,0,0,0-.16.32c0,.21.28.39.84.53l.11,0,.37.09a5.67,5.67,0,0,1,1.45.51,1.88,1.88,0,0,1,.62.64,1.75,1.75,0,0,1,.19.85A1.93,1.93,0,0,1,100.37,39.4Zm6.87-4.3h-1.83v4.68h-2V35.1h-1.83V33.42h5.71Zm5.86,4.68h-5.21V33.42H113V35h-3v.84h2.57v1.46h-2.57v1h3.16Zm6.89,0h-2.06c0-.15-.07-.28-.09-.4a1.38,1.38,0,0,1,0-.26v-.64a1,1,0,0,0-.2-.69,1,1,0,0,0-.68-.2h-.87v2.19h-2V33.42h3a3.58,3.58,0,0,1,2,.43,1.58,1.58,0,0,1,.62,1.4,1.81,1.81,0,0,1-.25,1,1.69,1.69,0,0,1-.78.61,1.2,1.2,0,0,1,.78.44,1.78,1.78,0,0,1,.26,1l0,.89v0q0,.38.18.39Zm6,0h-5.21V33.42h5.08V35h-3v.84h2.57v1.46h-2.57v1H126Zm6.54-1.36a2.54,2.54,0,0,1-1.21,1.1,3,3,0,0,1-.78.2,13.39,13.39,0,0,1-1.5.06H127V33.42h2.48a8,8,0,0,1,1.4.09,2.3,2.3,0,0,1,1.79,1.37,4,4,0,0,1,.33,1.73A3.59,3.59,0,0,1,132.56,38.42Z"/><path class="cls-2" d="M42.43,15.31h-23c15,4.8,25.59,16.51,26.09,32.38a26.64,26.64,0,0,0-6.09-3.47A99.81,99.81,0,0,0,0,39.05v1.83c16-1.06,30.41,1.93,38.84,5,4.77,1.77,12.46,8.92,16.28,15.61a23.4,23.4,0,0,0,.62-3.29,47.12,47.12,0,0,0,.89-9.1A47.8,47.8,0,0,0,42.43,15.31Zm-23.71,55C11.66,63.22,1.81,45.58,0,42.3V46c3.56,6.27,11.39,19.49,17.43,25.53a34.3,34.3,0,0,0,10.71,7A39.92,39.92,0,0,1,2.75,83.91c-.84-.1-1.67-.22-2.49-.34V95.31H22.88A52,52,0,0,0,44.35,81l.08,0c.42-.64.86-1.36,1.28-2.14C35.86,81,24.75,76.31,18.72,70.28Z"/><path class="cls-2" d="M15.3,49.39,25.11,57,19,60l7.79-1.87,7.94,4.67-9.5,4L36.48,64.5l8.1,3.89L32.51,73.06l14.83-3,7.44,4.79s3.34-.39,1.67-1.67-8.91-5.73-8.91-5.73L44.27,54.53l.54,11.6-6.46-3.74L34.53,50.64l1.4,10.58-8.25-4.67-1.94-8.33v7.4Z"/><path class="cls-2" d="M272.64,57.37A37.69,37.69,0,1,1,235,19.69a37.68,37.68,0,0,1,37.69,37.68"/><path class="cls-3" d="M253.47,55.36a2,2,0,0,1-1.21,1.49,4.09,4.09,0,0,1-3.42-.21,3.08,3.08,0,0,1-1-2.41,15.93,15.93,0,0,1,.29-5.27,2.54,2.54,0,0,1,2.43-1.33,3.06,3.06,0,0,1,2.64,1,4.42,4.42,0,0,1,.44,2,30.89,30.89,0,0,1-.15,4.7M259.63,48A6.85,6.85,0,0,0,257,44.91,12.59,12.59,0,0,0,245,44.55a7,7,0,0,0-3.56,4.88c-.71,3.26-.52,7.13,2,9.58a11.9,11.9,0,0,0,11,2.08,5.32,5.32,0,0,0,1.15-.39l.11-.05a7.7,7.7,0,0,0,3.13-2.36c1.94-2.83,2.07-7.07.89-10.25"/><path class="cls-3" d="M222.49,57c-.86-.05-1.82,0-2.66-.08l0-9,0-.08,2.58,0c0-1.46.06-3,0-4.37l-9.85,0-1.63,0c0,1.36,0,3,0,4.34.89,0,1.73,0,2.59.08v8.73l0,.36L211,57c-.05,1.44-.05,2.83,0,4.24h11.52"/><path class="cls-3" d="M241.78,70.51l-1.22.39a2.9,2.9,0,0,1-.58-.41l.05-.08a23.78,23.78,0,0,0,4.63-3.57,10.62,10.62,0,0,1,2,1.1,17.47,17.47,0,0,1-4.89,2.57m-2.51.72a19.89,19.89,0,0,1-8.62,0c-.05-.13.13-.15.21-.23a8.17,8.17,0,0,1,8.6.12c.08.16-.13.11-.19.16m-9.69-.33A18.66,18.66,0,0,1,223.46,68v-.08a16,16,0,0,1,1.94-1.08,27.13,27.13,0,0,0,4.7,3.63,2.09,2.09,0,0,1-.52.41m-3.37-4.39a16.5,16.5,0,0,1,3.18-1.13l.11,0a40.49,40.49,0,0,0,2.64,4.08c-.37.21-.81.34-1.18.54a17.47,17.47,0,0,1-4.75-3.44Zm4.21-1.39a22.28,22.28,0,0,1,4.23-.46l0,4.34c-.56.13-1.16.13-1.68.26a23.64,23.64,0,0,1-2.72-4Zm5-.46a20.09,20.09,0,0,1,4.36.51l0,.08a26.92,26.92,0,0,1-2.64,4,8.35,8.35,0,0,1-1.31-.15l-.44-.06c-.05-1.51-.08-2.85,0-4.36m5.15.77.07-.05a14,14,0,0,1,3.19,1.1,15.7,15.7,0,0,1-2.9,2.46c-.6.36-1.2.75-1.83,1.06L238,69.51l.08-.18a31.12,31.12,0,0,0,2.51-3.9m10.89-2.31a20.16,20.16,0,0,1-4,4.26.17.17,0,0,1-.26,0c-.66-.41-1.36-.74-2-1.15a21.12,21.12,0,0,0,2.27-3.11h-.81a18.59,18.59,0,0,1-2.19,2.8,28.71,28.71,0,0,0-3.37-1.18l-.13-.1a12.79,12.79,0,0,0,.62-1.52H241l-.71,1.39a32.46,32.46,0,0,0-4.81-.62c-.08-.23,0-.56-.08-.77h-.67c-.06.31.07.54-.08.8a30,30,0,0,0-4.71.56l-.71-1.36a2.17,2.17,0,0,0-.73,0l.66,1.51-.08.08a33.45,33.45,0,0,0-3.45,1.2l-.1,0a19.4,19.4,0,0,1-2-2.54c-.13-.44-.65-.18-.94-.23a23.13,23.13,0,0,0,2.3,3.16c-.71.41-1.41.87-2.14,1.21a19.11,19.11,0,0,1-4.13-4.34,3,3,0,0,0-.84,0,20.57,20.57,0,0,0,7.87,7,0,0,0,0,1,0,0s.07.05,0,.08a21.67,21.67,0,0,0,6.59,2,20.58,20.58,0,0,0,20.12-9.09,3.93,3.93,0,0,0-.84,0"/><path class="cls-3" d="M223.36,36.61a18.84,18.84,0,0,1,5.41-2.72c.08-.08.13-.15.23-.15v0c.21.05.37-.18.55,0s.34.23.47.36a26.6,26.6,0,0,0-4.68,3.62,8.5,8.5,0,0,1-2-1.08Zm15.94-3.18v0a8,8,0,0,1-8.36.28c-.14-.1-.39-.15-.42-.33a19.43,19.43,0,0,1,8.78,0m1,.25a18.65,18.65,0,0,1,6.14,2.88l-.06.1-1.8,1h-.13a22.61,22.61,0,0,0-4.65-3.54c.05-.18.31-.31.5-.44m3.34,4.39a17.14,17.14,0,0,1-3.19,1.09,42.28,42.28,0,0,0-2.69-4c.36-.2.81-.36,1.2-.56A18.56,18.56,0,0,1,243.74,38Zm-8.34,1.81c0-1.37,0-2.88,0-4.3l1.62-.23a22,22,0,0,1,2.7,4,19,19,0,0,1-4.32.52m-.81,0a9.94,9.94,0,0,1-2.11-.08,14,14,0,0,1-2.3-.41,22.11,22.11,0,0,1,2.72-4l1.67.23c.08,1.33,0,2.87,0,4.29m-5.2-.69-.1,0a21.45,21.45,0,0,1-3.11-1l.05-.16a20.56,20.56,0,0,1,4.62-3.36c.4.15.79.28,1.18.46l-.08.2a34.29,34.29,0,0,0-2.56,3.89M218.5,41.41a23.47,23.47,0,0,1,2.11-2.54,14,14,0,0,1,2-1.72c.68.44,1.44.8,2.09,1.21a23.28,23.28,0,0,0-2.25,3.08,1.62,1.62,0,0,0,.79,0,19.65,19.65,0,0,1,2.2-2.75c1.12.41,2.22.85,3.37,1.16l.1.1-.65,1.49a2.42,2.42,0,0,0,.76,0c.23-.44.41-.92.67-1.36a26.25,26.25,0,0,0,4.74.56c.2.18.05.57.13.8h.7c.08-.25,0-.54.08-.77a25.07,25.07,0,0,0,4.58-.59l.12,0,.71,1.33a1.73,1.73,0,0,0,.73,0l-.65-1.49,0,0a28.75,28.75,0,0,0,3.48-1.23,24,24,0,0,1,2.25,2.82,2.42,2.42,0,0,0,.78,0,10.84,10.84,0,0,0-1.12-1.62,12.21,12.21,0,0,0-1.16-1.39v-.13l1.83-1,.27-.1a18.84,18.84,0,0,1,4.12,4.29c.32,0,.58.1.84,0a20.69,20.69,0,0,0-15.52-9.09l0,0,0,0a12.89,12.89,0,0,0-2.33,0,6.52,6.52,0,0,0-1,0,20.5,20.5,0,0,0-15.65,9.17c.26,0,.58.08.84,0"/><path class="cls-3" d="M234.57,57.15a6.94,6.94,0,0,1-6.9-1.69c-.21-.26-.34-.56-.55-.82l-3.53,0c-.05,2.08-.08,4.47,0,6.52l3.92,0,.05-1.24c.45.21.89.46,1.34.69a10.93,10.93,0,0,0,8.91,0,5.27,5.27,0,0,0,2.72-5.39,6.21,6.21,0,0,0-4.5-4.7l-6.32-1.82-.47-.23a.73.73,0,0,1-.29-.7c.5-.84,1.65-.58,2.51-.56a6.37,6.37,0,0,1,4.78,2.54c1.15,0,2.49,0,3.74,0,.05-2.1,0-3.95,0-6.08-1.18,0-2.62,0-3.79,0a4.69,4.69,0,0,1-.08,1l-1.2-.65c-2.88-1.2-6.9-1.33-9.52.55A5.16,5.16,0,0,0,223.57,50c.34,1.85,2.11,3.21,3.81,3.85,2.33.82,4.76,1.41,7.11,2.21.24.1.55.33.5.62s-.24.36-.42.45"/><path class="cls-2" d="M206.88,24.61l1,1c1.21,1.23,1.17,2.66-.25,4.06s-2.86,1.44-4.07.22l-3.94-4c-1.21-1.23-1.16-2.66.26-4.07s2.85-1.44,4.07-.21l.73.74-1.37,1.36-.81-.82a1.06,1.06,0,1,0-1.5,1.49l4.09,4.13a.91.91,0,0,0,1.48,0,.93.93,0,0,0,0-1.49L205.51,26"/><path class="cls-2" d="M210.59,19.23,213,17.75l.81,1.31-2.38,1.48,1.66,2.68,3-1.86.81,1.31-4.73,2.93-5.67-9.15,4.72-2.93.81,1.3-3,1.86"/><path class="cls-2" d="M218.61,12l1.06,3.14.75-.26c.73-.24,1.08-.65.8-1.47l-.34-1c-.25-.73-.65-.95-1.34-.72Zm5.06,8a2.91,2.91,0,0,1-.6-1.2l-.54-1.6c-.32-1-.82-1.17-1.7-.87l-.67.23,1.4,4.15-1.93.65-3.44-10.2,2.91-1c2-.67,3.13-.19,3.66,1.38l.27.81a2.07,2.07,0,0,1-.57,2.48v0c1.08,0,1.65.66,2,1.72l.53,1.57a2.68,2.68,0,0,0,.63,1.17"/><path class="cls-2" d="M226.88,8.14l6.27-.62.15,1.53-2.12.21.91,9.18-2,.2-.91-9.18L227,9.67"/><path class="cls-2" d="M238.19,7.68l2,.17-.91,10.73-2-.17Z"/><path class="cls-2" d="M246.49,13.86l2.54.7L248.62,16l-2.54-.7-1.17,4.29-2-.54,2.85-10.38,5.2,1.42-.4,1.49-3.24-.89"/><path class="cls-2" d="M255.73,12.11l1.84.89-4.7,9.69L251,21.8Z"/><path class="cls-2" d="M261.4,20.65l2.25,1.67-.92,1.23-2.24-1.67-1.88,2.54,2.82,2.1-.91,1.23-4.47-3.32,6.42-8.64,4.47,3.32L266,20.34l-2.83-2.1"/><path class="cls-2" d="M271.13,25.42l-5.87,5,.74.88a.91.91,0,0,0,1.47.11l4.27-3.62a.91.91,0,0,0,.13-1.47ZM271,22.87l2.09,2.46c1.32,1.56,1.25,2.93-.06,4.05l-4.16,3.52c-1.31,1.11-2.68,1-4-.6l-2.08-2.46"/><path class="cls-2" d="M203.42,93l-1.14,1c-1.37,1.19-2.87,1-4.25-.56s-1.3-3.1.07-4.28l4.46-3.85c1.38-1.18,2.88-1,4.25.56s1.31,3.1-.07,4.29l-.83.72-1.33-1.54.92-.79a1.11,1.11,0,1,0-1.45-1.69l-4.63,4a1.11,1.11,0,0,0,1.45,1.68l1.23-1.06"/><path class="cls-2" d="M208.58,99.33a1.11,1.11,0,1,0,1.85,1.24l3.39-5.1A1.11,1.11,0,0,0,212,94.24Zm1.53-6.18c1-1.51,2.54-1.74,4.29-.57s2.14,2.66,1.14,4.17l-3.26,4.91c-1,1.51-2.54,1.73-4.29.57s-2.14-2.67-1.14-4.18"/><path class="cls-2" d="M222.83,105.3h0L226.41,98l2.87.8-3,10.91-1.95-.54,2.17-7.83h0l-3.56,7.44-2-.54.63-8.14h0l-2.15,7.72-1.8-.5,3-10.92,2.87.8"/><path class="cls-2" d="M235.68,100.51l.14,3.84,1,0c.68,0,1-.3,1-1.11l-.06-1.69c0-.81-.41-1.06-1.09-1Zm4.26,1L240,103c.07,1.81-1,2.84-3.09,2.92l-1,0,.16,4.26-2.14.08L233.48,99l3.15-.12c2.15-.08,3.24.87,3.31,2.68"/><path class="cls-2" d="M247.43,104.9l2-.63-2.69-5.15h0Zm5.75,1.95-2.06.65-1-1.85-2.51.8.27,2.07-1.88.59-1.33-11.46,3-1"/><path class="cls-2" d="M256.38,95.91l0,0,4.6,6.8-1.6,1.08L253,94.43l2.23-1.51,5.59,4.4,0,0-3.79-5.62,1.58-1.07L265,100l-1.83,1.23"/><path class="cls-2" d="M268.81,91.08l-7.56-2.76,1.43-1.72,5,2.05,0,0-2.93-4.54,1.3-1.58,4.1,6.93,2.88,2.4-1.37,1.65"/><circle class="cls-4" cx="235.68" cy="58.5" r="57.5"/><path class="cls-3" d="M214.77,86.16v-.84l1.08-1c2.6-2.48,3.78-3.79,3.79-5.33a1.81,1.81,0,0,0-2-2,3.48,3.48,0,0,0-2.16.86l-.44-1a4.45,4.45,0,0,1,2.88-1,2.86,2.86,0,0,1,3.12,3c0,1.88-1.36,3.4-3.51,5.47l-.81.75v0h4.57v1.14Z"/><path class="cls-3" d="M228.62,77a4.81,4.81,0,0,0-1,.06,4.13,4.13,0,0,0-3.54,3.62h0a3.11,3.11,0,0,1,5.53,2.12,3.41,3.41,0,0,1-3.39,3.59c-2.18,0-3.6-1.7-3.6-4.34a6.44,6.44,0,0,1,1.72-4.6,5.59,5.59,0,0,1,3.26-1.5,7,7,0,0,1,1-.08Zm-.39,5.88a2.07,2.07,0,0,0-2.1-2.34,2.26,2.26,0,0,0-2,1.25,1.16,1.16,0,0,0-.16.62c0,1.67.8,2.91,2.24,2.91C227.43,85.27,228.23,84.28,228.23,82.83Z"/><path class="cls-3" d="M237.62,81c0,3.46-1.28,5.38-3.54,5.38-2,0-3.34-1.87-3.37-5.24s1.47-5.29,3.54-5.29S237.62,77.72,237.62,81Zm-5.53.16c0,2.65.81,4.15,2.07,4.15,1.41,0,2.08-1.65,2.08-4.25s-.64-4.15-2.07-4.15C233,76.87,232.09,78.34,232.09,81.12Z"/><path class="cls-3" d="M245.66,81c0,3.46-1.28,5.38-3.54,5.38-2,0-3.34-1.87-3.37-5.24s1.47-5.29,3.54-5.29S245.66,77.72,245.66,81Zm-5.53.16c0,2.65.81,4.15,2.07,4.15,1.41,0,2.08-1.65,2.08-4.25s-.64-4.15-2.07-4.15C241,76.87,240.13,78.34,240.13,81.12Z"/><path class="cls-3" d="M253.7,81c0,3.46-1.28,5.38-3.54,5.38-2,0-3.34-1.87-3.37-5.24s1.47-5.29,3.54-5.29S253.7,77.72,253.7,81Zm-5.53.16c0,2.65.81,4.15,2.07,4.15s2.08-1.65,2.08-4.25-.64-4.15-2.07-4.15C249.05,76.87,248.17,78.34,248.17,81.12Z"/><text class="cls-5" transform="translate(547.35 113.25)">*CE<tspan class="cls-6" x="15.15" y="0">R</tspan><tspan x="21.18" y="0">TIFIC</tspan><tspan class="cls-7" x="41.85" y="0">A</tspan><tspan x="47.3" y="0">TIONS EN </tspan><tspan class="cls-8" x="90.31" y="0">C</tspan><tspan class="cls-9" x="95.63" y="0">OURS</tspan></text></g></g></svg>