<svg id="Calque_1" data-name="Calque 1" xmlns="http://www.w3.org/2000/svg" viewBox="0 0 1401 133"><defs><style>.cls-1{fill:#d0d0ce;fill-rule:evenodd;}</style></defs><path class="cls-1" d="M1241.75,91.7c2.73.18,5.47.59,8.18,1,2.47.33,5,.58,7.44,1,3.63.56,7.22,1.07,10.83,1.76,2.06.38,4.46.39,5.52,1.75a9.32,9.32,0,0,1,.85,2.07c.29.68.65,1.37.91,2a11.24,11.24,0,0,1,1.37,4.25,6,6,0,0,1-3.13-.05,20.27,20.27,0,0,1-2.07-1.06c-2-1-3.68-2.44-5.79-3.45a36.89,36.89,0,0,0-4.41-1.81c-2.27-.77-5.1-1.82-7.91-.9a8.77,8.77,0,0,0-2.81,1.86,67.53,67.53,0,0,0-7.22,6.69c-.51.29-.76,1.12-1.49,1l-1.28,2.23,3.4.26a14.92,14.92,0,0,1,5,.69c1.53.41,3,.9,4.46,1.44,2.95,1.08,6,2.47,9.45,2.39,2.25-.06,4.07-1.36,5.69-2.34l2-1.22c1-.63,2.17-1.92,3.4-.74a54.27,54.27,0,0,1,2,7.38,6.24,6.24,0,0,1,.37,2.49c-.53.42-1.27.19-1.86.16-8.62-.41-17.41-.77-25.86-1.38-.67,0-1.36-.07-2-.1s-1.23-.26-1.75.1a5.06,5.06,0,0,0,1,2.07c.35.67.73,1.35,1.07,2a31.81,31.81,0,0,0,2.17,4,10.43,10.43,0,0,0,3.19,2.5,13,13,0,0,0,1.75.9,9.82,9.82,0,0,0,2.13.69,16,16,0,0,0,2.12.06c1,0,2.24,0,3.19-.11a9.54,9.54,0,0,0,1.86-.69c.6-.24,1.2-.52,1.75-.74,3.17-1.26,4.8-3.31,7.7-4.94.47-.27,1.34-.84,1.7-.8s.67.71.85,1.28.46,1.06.58,1.48a24.36,24.36,0,0,1,.64,3.88c.11.82.35,1.75.47,2.66,0,0,5.18-.07,4.52-.11-.61-1.31-.57-3-.74-4.62-.35-3.33-1-6-1.22-9.46-.1-1.35-.15-4,.74-4.46a3.06,3.06,0,0,1,2.07.32c.7.28,1.4.43,2,.64,3.69,1.36,7.61,3,11.31,4.19,3.91,1.31,7.74,2.63,11.63,3.93.64.22,1.31.45,2,.64s1.29.6,2,.37a7,7,0,0,0-.85-2.76c-.71-1.73-1.44-3.47-2.18-5.2-.37-.87-.66-1.79-1.06-2.61a16.55,16.55,0,0,0-1.91-2.81,19.62,19.62,0,0,0-2.34-2.39c-4.23-2-9.44-.23-13.65.69a20.33,20.33,0,0,0-5.36,1.81c-1.37-.08-2,.48-3.35.74-.88.18-2.29.29-2.76-.27s-.17-2.27,0-3.08a20,20,0,0,1,1.48-5.36,9.53,9.53,0,0,1,1.07-2.34,5.44,5.44,0,0,1,1.38-.53,7,7,0,0,1,1.48-.42,8.3,8.3,0,0,1,2.55.58,47.26,47.26,0,0,1,6.22,3c2,1.07,4,2,6.26,3a10.81,10.81,0,0,0,2.29.8,8.63,8.63,0,0,0,5.31-.8,16.53,16.53,0,0,0,2.81-2.33c.92-.82,1.78-1.78,2.6-2.55,1.83-1.72,3.39-3.63,5.16-5.47l2.92-2.82a5.63,5.63,0,0,1-2.08.7c-2.14.53-4.46,1.1-6.79,1.48-1.55.25-3.13.51-4.73.8s-3.18.41-4.78.69c-3.07.54-6.07,1.37-9.29,1.75a47,47,0,0,1-5.31.21c-2.54,0-5.62.32-6.59-1.32a8.48,8.48,0,0,1,0-2.55,5.48,5.48,0,0,1,1.7-2,17.59,17.59,0,0,1,2.08-1.65c1.62-.29,4.13-1,5.84-.58a8.89,8.89,0,0,1,1.48.74c.51.24,1.06.42,1.54.64a19.2,19.2,0,0,0,3,1.38,38.23,38.23,0,0,0,4.25.42,9.78,9.78,0,0,0,1.33.16,6,6,0,0,0,2-.79,38.65,38.65,0,0,0,5.31-3c1-1.52,2-3.19,2.92-4.88a38.4,38.4,0,0,0,2.66-5.1c1.07-2.78,2.24-5.51,3.19-8.45.43-1.35,1.14-2.37,1.53-3.82a6.31,6.31,0,0,1,.27-1.22l2.31-4.37-2.94,2.3a7.5,7.5,0,0,1-2.23,1.8c-5.43,4-10.8,7.61-16.41,11.74-3,2.21-6.19,4.58-9.19,6.9-1.45,1.13-3.15,2.12-4.73,3.35a10.82,10.82,0,0,1-2.38,1.65,10,10,0,0,1-2.82,1.16c-2.14.12-2.1-1.48-2.49-3.29-.1-.41-.12-1-.22-1.59a4.51,4.51,0,0,1-.16-1.54c.25-.72,1.3-.73,2.34-1a11.45,11.45,0,0,0,5.79-3.61,18.13,18.13,0,0,0,2.44-3,16,16,0,0,0,1-2.71,18,18,0,0,0,.74-3,18.86,18.86,0,0,0-.21-4.88,17.38,17.38,0,0,0-2.07-4.3c-2-3.42-3.9-6.53-5.84-10.09-.27-.5-1.18-1.63-.91-2.07l-3.82,3.34a3.17,3.17,0,0,1-1.06,1.38L1275,56.65c-2.14,2.72-4.7,5-6.91,7.65-.46,1.32-1,2.62-1.43,4a30.5,30.5,0,0,0-1.38,4c-.29,1.58.16,3.37,0,5.2,0,0,.05.06.05.11a18.32,18.32,0,0,0,1.6,2.6,17.94,17.94,0,0,0,1.69,2.44c1.47,1.67,3.66,2.67,5.42,4.15a6.39,6.39,0,0,1,2.23,4.35,18.28,18.28,0,0,1,.16,2.18,2.91,2.91,0,0,1-.32,2,1.87,1.87,0,0,1-1.54-.16,8.07,8.07,0,0,1-1.32-.59,6.71,6.71,0,0,1-1.28-1.8c-1.14-1.87-2.59-3.64-3.61-5.47a18.44,18.44,0,0,0-2.44-3.67c-.43-.47-1-1-1.49-1.54a8.64,8.64,0,0,0-1.65-1.38,17.15,17.15,0,0,0-4.93-1,12.77,12.77,0,0,0-4.31.64,16.16,16.16,0,0,0-3,1.7c-1,.63-2.2,1.12-3.08,1.8a18.38,18.38,0,0,0-2.39,2.71c-.39.46-.82.9-1.17,1.38s-.58,1.17-1.22,1.28l-2.09,2.44,1,.11A.46.46,0,0,1,1241.75,91.7Z"/></svg>