<svg xmlns="http://www.w3.org/2000/svg" viewBox="0 0 791 351"><defs><style>.cls-1{fill:#13322b;}.cls-2{fill:#88b04b;fill-rule:evenodd;}.cls-3{fill:#fff;}</style></defs><g id="Calque_2" data-name="Calque 2"><g id="Calque_1-2" data-name="Calque 1"><rect class="cls-1" width="791" height="351"/><g id="lake_forest_open_lands_association"><path class="cls-2" d="M659.06,64c9.41.06,19,1.42,29.52,1.42,4.81,0,10.15,0,15.24.38,6.39.41,13.28-.71,16.85,2.46a11.87,11.87,0,0,1,1.7,2.27,15.55,15.55,0,0,1,1.51,2.36c1.87,4.42,1.41,10.61,1.52,16.94-.08,0-.09,0-.1.1-.91,1.5-2.61,2.21-4,3.21-9.67,7.16-19.24,13.55-29.24,20.92-5.35,3.94-11,8.16-16.37,12.3-2.6,2-5.62,3.77-8.43,6a19.59,19.59,0,0,1-4.25,2.94c-1.63.71-3.49,2-5,2.08-3.81.2-3.74-2.65-4.45-5.87-.16-.74-.21-1.83-.38-2.84a7.89,7.89,0,0,1-.28-2.74c.43-1.29,2.31-1.3,4.16-1.8a20.3,20.3,0,0,0,10.31-6.43,31.7,31.7,0,0,0,4.36-5.3,27.33,27.33,0,0,0,1.8-4.83,31.12,31.12,0,0,0,1.32-5.3,34.11,34.11,0,0,0-.38-8.71c-.61-2.62-2.33-5.33-3.69-7.66-3.54-6.09-6.94-11.62-10.41-18-.48-.88-2.09-2.91-1.61-3.69A.59.59,0,0,1,659.06,64Z"/><path class="cls-2" d="M652,70.1a5.66,5.66,0,0,1-1.9,2.46c-.72.73-1.46,1.44-2.17,2.18-3.8,4.84-8.36,8.92-12.31,13.62-.82,2.35-1.76,4.66-2.55,7.1s-2,4.68-2.46,7.19c-.51,2.83.28,6,.09,9.28,0,.07.1.09.1.19a33.49,33.49,0,0,0,2.84,4.63,31.23,31.23,0,0,0,3,4.36c2.61,3,6.51,4.76,9.66,7.38,2.31,1.93,3.39,4.2,4,7.76a35.26,35.26,0,0,1,.29,3.88c.05,1.23.21,2.71-.57,3.59a3.22,3.22,0,0,1-2.74-.28,14.82,14.82,0,0,1-2.37-1,11.76,11.76,0,0,1-2.27-3.22c-2-3.33-4.62-6.49-6.44-9.75a33,33,0,0,0-4.35-6.53c-.77-.83-1.69-1.86-2.65-2.74a15.56,15.56,0,0,0-2.93-2.46c-2-1-6.08-1.59-8.8-1.8a22.64,22.64,0,0,0-7.67,1.13,30.42,30.42,0,0,0-5.4,3c-1.81,1.13-3.9,2-5.49,3.22s-2.88,3.21-4.25,4.83c-.69.81-1.47,1.59-2.08,2.46s-1,2.08-2.18,2.27c-.47-2-.19-4.21-.19-6.34,0-6.22-.89-12.45-1.13-18.93-.17-4.37-.22-8.7-.29-12.87-.07-4.4-.16-8.71.1-12.87.28-4.65,2.35-9,5.49-11,4.35-2.79,12.86-1.92,19.59-1.6,8.26.39,16.88-.27,25.45.19,2.16.11,4.31.13,6.44.19A22.21,22.21,0,0,1,652,70.1Z"/><path class="cls-2" d="M727.1,140.6a10,10,0,0,1-3.69,1.23c-3.82.95-7.95,2-12.11,2.65-2.77.45-5.58.91-8.43,1.42s-5.66.73-8.51,1.23c-5.48,1-10.81,2.45-16.57,3.12a83.18,83.18,0,0,1-9.46.38c-4.52,0-10,.57-11.73-2.36a14.41,14.41,0,0,1,.09-4.55c.42-1.39,2-2.62,3-3.59a31.17,31.17,0,0,1,3.69-2.94c2.89-.51,7.37-1.76,10.41-1a14.93,14.93,0,0,1,2.65,1.33c.91.42,1.88.74,2.74,1.13a33.67,33.67,0,0,0,5.4,2.46c1.9.5,5.31.51,7.57.76a16.37,16.37,0,0,0,2.36.28,10.52,10.52,0,0,0,3.6-1.42,68.86,68.86,0,0,0,9.46-5.3c1.78-2.71,3.49-5.68,5.21-8.7a67.82,67.82,0,0,0,4.73-9.09c1.91-4.95,4-9.82,5.68-15,.77-2.4,2-4.23,2.74-6.81a9.67,9.67,0,0,1,.47-2.18c.52-.83,2.21-1.24,3-1.61,1.57-.69,1,1.87.95,2.27a84.62,84.62,0,0,0-.47,9.47,90.26,90.26,0,0,1-1.05,12.21c-.52,4.1-.63,8.33-.94,12.3S727.67,136.74,727.1,140.6Z"/><path class="cls-2" d="M651.2,161.61a10.79,10.79,0,0,1-5.58-.09,33.12,33.12,0,0,1-3.69-1.9c-3.61-1.82-6.57-4.34-10.32-6.15a71,71,0,0,0-7.85-3.22c-4.06-1.36-9.11-3.24-14.1-1.61a16,16,0,0,0-5,3.32,121.59,121.59,0,0,0-12.87,11.92c-.9.52-1.35,2-2.65,1.8-.61-.9-.45-2.17-.47-3.31-.12-6.15-.09-11.86-.38-18.17,0-1-.15-2.17-.19-3.5,0-1.17-.31-3.11.29-3.32a.63.63,0,0,1,.28-.19c4.86.31,9.74,1.05,14.57,1.71,4.4.59,8.89,1,13.25,1.7,6.48,1,12.87,1.91,19.31,3.12,3.67.7,8,.72,9.84,3.12.72.92,1,2.46,1.51,3.7s1.15,2.43,1.61,3.5C649.8,156.5,651.12,158.73,651.2,161.61Z"/><path class="cls-2" d="M721.9,145.62c1-.33.66,2.14.66,3.12,0,3.49-.08,7,0,10.88.09,4.64.53,9.35.85,13.73a180.66,180.66,0,0,1,.1,20.82c-.1,2.52.28,5.44-.38,7.66-.28.91-.89,1.82-1.33,2.84-1.16,2.67-3.43,6.11-6,7.19-1.79.74-4.11.48-6.63.48s-4.86-.1-7.1-.19c-4.92-.21-10.16-.1-14.1-.1-4.69,0-9.35-.38-14-.38s-9.49-.24-14-.57c-1.1-2.32-1-5.31-1.32-8.23-.62-5.92-1.73-10.68-2.18-16.85-.17-2.4-.26-7.2,1.33-7.94,1-.47,2.56.12,3.69.56s2.48.76,3.5,1.14c6.57,2.43,13.56,5.27,20.15,7.48,7,2.33,13.8,4.67,20.73,7,1.15.38,2.34.79,3.5,1.13s2.29,1.08,3.5.67c.06-1.75-.87-3.35-1.51-4.93-1.27-3.08-2.57-6.18-3.88-9.27-.66-1.55-1.18-3.18-1.9-4.64a28.48,28.48,0,0,0-3.4-5A33,33,0,0,0,698,168c-7.54-3.49-16.81-.42-24.32,1.23a36.27,36.27,0,0,0-9.56,3.22c-2.44-.13-3.64.86-6,1.32-1.57.32-4.09.52-4.92-.47s-.3-4.05-.1-5.49a35.72,35.72,0,0,1,2.65-9.56c.56-1.3,1.19-3.55,1.9-4.16a10.1,10.1,0,0,1,2.46-.95,11.83,11.83,0,0,1,2.65-.75,14.24,14.24,0,0,1,4.54,1c4,1.38,7.66,3.6,11.08,5.39,3.63,1.91,7.15,3.66,11.16,5.3a18.49,18.49,0,0,0,4.07,1.42,15.38,15.38,0,0,0,9.46-1.42c1.75-.93,3.38-2.7,5-4.16s3.17-3.17,4.64-4.54C716,152.31,718.76,148.9,721.9,145.62Z"/><path class="cls-2" d="M646.47,170.51a98.66,98.66,0,0,1,3.6,13.15c.32,1.43.94,3,.66,4.45-.94.74-2.26.33-3.31.28-15.37-.73-31-1.38-46.09-2.46-1.19-.08-2.42-.13-3.6-.19s-2.2-.45-3.12.19c0,1.4,1.07,2.49,1.7,3.7s1.29,2.39,1.89,3.59a58.22,58.22,0,0,0,3.89,7.1c1.2,1.7,3.66,3.3,5.67,4.45a25.45,25.45,0,0,0,3.13,1.61,17.39,17.39,0,0,0,3.78,1.22,25.78,25.78,0,0,0,3.79.1,55.25,55.25,0,0,0,5.67-.19,16.24,16.24,0,0,0,3.32-1.23c1.07-.42,2.14-.93,3.12-1.32,5.65-2.24,8.56-5.89,13.72-8.8.84-.48,2.39-1.51,3-1.42.84.1,1.19,1.26,1.52,2.27s.81,1.89,1,2.65a44.3,44.3,0,0,1,1.13,6.91c.28,2.12,1.11,4.62,1,6.9-1.66.58-3.46.13-5.21.1s-3.74-.19-5.68-.19c-11.14,0-23.34.6-33.87.57-1.21,0-2.51-.19-3.79-.19-2.37,0-4.11,0-5.68-.76a11.55,11.55,0,0,1-3-2.27c-1.71-1.7-3.32-3-3.6-6-.25-2.69.23-5.81.38-8.81.33-6.94.52-14.64.85-21.86a10.42,10.42,0,0,1,.57-4,26.1,26.1,0,0,1,9,1.23c2.73.73,5.36,1.61,8,2.55,5.25,1.93,10.79,4.4,16.84,4.26,4-.09,7.26-2.42,10.13-4.16,1.15-.7,2.39-1.42,3.6-2.18C642.22,170.71,644.27,168.41,646.47,170.51Z"/></g><path class="cls-3" d="M190.68,233.62l10.37-1.25L205,243.81l-6.8,5.37H165.65l-10-22.36-51.32-.18-3.76,10.2,7.87,12.34h-34l47-106L113.79,124h32.54Zm-82.26-19.31,41.67-1.26L129.52,163.7Z"/><path class="cls-3" d="M304.06,175.68q0,9.3.09,18.95t.09,18.51v14.58l-22,22h-44.7L217.33,232.9V175L205,168l4.47-8.23h33.62l.18,64.92,6.26,13,20.38-2,7.51-13.23.18-48.82c-.36-.24-.92-.65-1.7-1.25s-1.55-1.22-2.32-1.88l-2.15-1.79a9.66,9.66,0,0,0-1.34-1v-8.05h34Z"/><path class="cls-3" d="M357.62,214.39q.09,11.9.09,22.45l7.86,3c0,1.55,0,3.07-.09,4.56s-.08,3.07-.08,4.74H331.78c0-1.79,0-4.27.09-7.42s.12-6.71.17-10.64.09-8.08.09-12.43V173.53L323,167.81l4.3-8.05h28.25l1.07,16.46a112.74,112.74,0,0,1,11.27-9.3,67.89,67.89,0,0,1,10.46-6.35,23.85,23.85,0,0,1,10.46-2.77,26.39,26.39,0,0,1,8.41,1.25,43,43,0,0,1,6.61,2.77,29.57,29.57,0,0,1,4.74,3c1.25,1,2.12,1.7,2.59,2.06l-6.79,19.13-23.25-5.36a24.23,24.23,0,0,0-6,1.87c-2.32,1-4.65,2.12-7,3.31s-4.44,2.39-6.35,3.58l-4.29,2.68Q357.53,202.51,357.62,214.39Z"/><path class="cls-3" d="M452.75,230.67q6,7.59,19.41,8.31a24,24,0,0,0,10.37-7.15q4.29-5,9.3-11.62l20,7.33q-.18,1.43-2.51,4.92a47.8,47.8,0,0,1-6,7.15,46.75,46.75,0,0,1-8.22,6.53,18.24,18.24,0,0,1-8.86,3H442.47q-4.65,0-9.74-5.64a56.66,56.66,0,0,1-9-13.94A73.43,73.43,0,0,1,418,211.89a39.1,39.1,0,0,1,.18-17.08c.6-2,1.61-4.77,3-8.22a58.62,58.62,0,0,1,5.72-10.46,49.76,49.76,0,0,1,8.77-9.75A27.89,27.89,0,0,1,448,160.3a113.69,113.69,0,0,1,11.62-1.43,129.76,129.76,0,0,1,13.68-.36,95.69,95.69,0,0,1,12.87,1.16q6,1,9,3.13a31.46,31.46,0,0,1,5.64,5.64,47.25,47.25,0,0,1,5.36,8.49,57.22,57.22,0,0,1,3.94,10.37,47.86,47.86,0,0,1,1.7,11.09l-12,9.84-54,3Q446.77,223.06,452.75,230.67Zm30.76-41.13c-.77-2.8-1.73-5.72-2.86-8.76a68.44,68.44,0,0,0-3.58-8.14q-1.87-3.58-3.48-3.76a16.58,16.58,0,0,0-4.56.36q-2.77.54-5.73,1.34t-5.63,1.79a30.92,30.92,0,0,0-4.29,1.88,14,14,0,0,0-2.5,3.93,50.37,50.37,0,0,0-2.33,6.08,55.52,55.52,0,0,0-1.7,7,38.35,38.35,0,0,0-.62,6.43l38.62-2.5A48.94,48.94,0,0,0,483.51,189.54Z"/><path class="cls-3" d="M561.75,234.15l12.7,3.76v11.27H536.89l.36-110.34-13.77-6.26,2.33-8.58h35.94Z"/></g></g></svg>