<svg xmlns="http://www.w3.org/2000/svg" viewBox="0 0 143.9 87.47"><defs><style>.cls-1{fill:#88b04b;fill-rule:evenodd;}.cls-2{fill:#13322b;}.cls-3{fill:#686864;}.cls-4{fill:#d0d0ce;}</style></defs><g id="Calque_2" data-name="Calque 2"><g id="Calque_1-2" data-name="Calque 1"><g id="lake_forest_open_lands_association"><path class="cls-1" d="M29.91,0c4,0,8,.6,12.43.6,2,0,4.27,0,6.41.16,2.69.17,5.59-.3,7.09,1a5.46,5.46,0,0,1,.72,1,6.05,6.05,0,0,1,.63,1c.79,1.86.59,4.47.64,7.13,0,0,0,0,0,0a5.67,5.67,0,0,1-1.67,1.36c-4.07,3-8.1,5.7-12.31,8.8-2.25,1.66-4.64,3.43-6.89,5.18-1.09.84-2.36,1.58-3.54,2.5A8.29,8.29,0,0,1,31.59,30a7.92,7.92,0,0,1-2.11.88c-1.61.08-1.58-1.12-1.88-2.47-.07-.31-.08-.77-.16-1.2a3.36,3.36,0,0,1-.12-1.15c.19-.54,1-.55,1.76-.76a8.53,8.53,0,0,0,4.34-2.71,13.4,13.4,0,0,0,1.83-2.23,11.13,11.13,0,0,0,.76-2,13.21,13.21,0,0,0,.55-2.23,14.36,14.36,0,0,0-.16-3.66A12.81,12.81,0,0,0,34.85,9.2c-1.49-2.56-2.92-4.89-4.38-7.57-.2-.37-.88-1.22-.68-1.55A.25.25,0,0,1,29.91,0Z"/><path class="cls-1" d="M26.92,2.59a2.33,2.33,0,0,1-.79,1l-.92.92c-1.6,2-3.52,3.76-5.18,5.74-.35,1-.74,2-1.07,3a23.51,23.51,0,0,0-1,3c-.21,1.19.12,2.53,0,3.9,0,0,0,0,0,.08a13,13,0,0,0,1.2,1.95,13,13,0,0,0,1.27,1.84c1.1,1.25,2.74,2,4.06,3.1a4.84,4.84,0,0,1,1.68,3.27,16.18,16.18,0,0,1,.12,1.63,2.27,2.27,0,0,1-.24,1.52,1.41,1.41,0,0,1-1.16-.12,7,7,0,0,1-1-.44,5.16,5.16,0,0,1-1-1.36c-.86-1.4-1.94-2.73-2.71-4.1a14.3,14.3,0,0,0-1.83-2.75c-.32-.35-.71-.78-1.12-1.15a6.18,6.18,0,0,0-1.23-1,13.11,13.11,0,0,0-3.7-.76,9.64,9.64,0,0,0-3.23.48,12.78,12.78,0,0,0-2.27,1.28A26.51,26.51,0,0,0,4.58,25a13.47,13.47,0,0,0-1.79,2c-.29.34-.62.67-.88,1s-.43.87-.91.95a11.86,11.86,0,0,1-.08-2.67c0-2.61-.38-5.24-.48-8C.37,16.52.35,14.7.32,12.94S.25,9.28.36,7.53A5.92,5.92,0,0,1,2.67,2.91c1.83-1.18,5.41-.81,8.24-.68,3.48.17,7.11-.11,10.72.08.91,0,1.81.06,2.71.08A9.28,9.28,0,0,1,26.92,2.59Z"/><path class="cls-1" d="M58.55,32.26a4.12,4.12,0,0,1-1.55.52c-1.61.4-3.35.83-5.1,1.11-1.17.19-2.35.38-3.55.6S46,34.8,44.77,35c-2.31.4-4.55,1-7,1.31a33.65,33.65,0,0,1-4,.16c-1.9,0-4.21.24-4.93-1a6,6,0,0,1,0-1.91,4,4,0,0,1,1.27-1.52,13,13,0,0,1,1.55-1.23c1.22-.22,3.1-.75,4.38-.44a5.86,5.86,0,0,1,1.12.56c.38.18.79.31,1.15.47a15,15,0,0,0,2.27,1,29.92,29.92,0,0,0,3.19.32,10,10,0,0,0,1,.12,4.86,4.86,0,0,0,1.51-.6,29.27,29.27,0,0,0,4-2.23c.75-1.14,1.47-2.39,2.19-3.67a27.56,27.56,0,0,0,2-3.82c.81-2.08,1.69-4.13,2.39-6.33.33-1,.86-1.78,1.16-2.87a3.91,3.91,0,0,1,.2-.92c.21-.35.92-.52,1.27-.67.66-.29.42.78.4,1a34.71,34.71,0,0,0-.2,4,37.19,37.19,0,0,1-.44,5.13c-.22,1.73-.27,3.51-.4,5.18S58.79,30.64,58.55,32.26Z"/><path class="cls-1" d="M26.61,41.1a4.47,4.47,0,0,1-2.35,0,16.33,16.33,0,0,1-1.56-.79c-1.51-.77-2.76-1.83-4.34-2.59a28.57,28.57,0,0,0-3.31-1.36c-1.7-.57-3.83-1.36-5.93-.67A6.5,6.5,0,0,0,7,37a51.8,51.8,0,0,0-5.42,5c-.38.22-.56.84-1.11.76a2.59,2.59,0,0,1-.2-1.4c-.05-2.59,0-5-.16-7.65,0-.41-.06-.91-.08-1.47S-.09,31,.16,30.91a.25.25,0,0,1,.12-.08c2,.13,4.1.44,6.13.71,1.85.25,3.74.44,5.58.72,2.73.41,5.42.8,8.12,1.31,1.55.3,3.35.3,4.15,1.32a7.59,7.59,0,0,1,.63,1.55c.22.51.49,1,.68,1.48A8.46,8.46,0,0,1,26.61,41.1Z"/><path class="cls-1" d="M56.36,34.37c.41-.13.28.9.28,1.32,0,1.46,0,2.93,0,4.58,0,1.95.22,3.93.36,5.77a77.53,77.53,0,0,1,0,8.76A14.2,14.2,0,0,1,56.88,58c-.12.38-.38.77-.56,1.19a6,6,0,0,1-2.55,3,7.89,7.89,0,0,1-2.79.2c-1.09,0-2,0-3-.08-2.07-.09-4.27,0-5.93,0-2,0-3.93-.16-5.89-.16s-4-.1-5.9-.24a11.25,11.25,0,0,1-.56-3.46C29.45,56,29,54,28.8,51.38c-.08-1-.11-3,.56-3.35a2.31,2.31,0,0,1,1.55.24c.52.21,1,.32,1.47.48,2.77,1,5.71,2.22,8.49,3.15l8.72,2.94c.48.17,1,.33,1.47.48s1,.45,1.47.28a5.13,5.13,0,0,0-.63-2.07c-.54-1.3-1.08-2.6-1.64-3.9-.27-.66-.49-1.34-.79-2A12.1,12.1,0,0,0,48,45.56a13.48,13.48,0,0,0-1.75-1.79c-3.17-1.47-7.08-.17-10.24.52a15.43,15.43,0,0,0-4,1.35,8.77,8.77,0,0,0-2.51.56c-.66.13-1.72.22-2.07-.2s-.12-1.7,0-2.31a14.52,14.52,0,0,1,1.12-4,6.87,6.87,0,0,1,.79-1.75,4.25,4.25,0,0,1,1-.4,4.59,4.59,0,0,1,1.12-.32,6,6,0,0,1,1.91.44A34.15,34.15,0,0,1,38,39.91c1.53.8,3,1.54,4.7,2.23a8.33,8.33,0,0,0,1.71.6,6.51,6.51,0,0,0,4-.6,12.47,12.47,0,0,0,2.11-1.75c.69-.62,1.34-1.34,2-1.92C53.86,37.19,55,35.75,56.36,34.37Z"/><path class="cls-1" d="M24.61,44.85a41.23,41.23,0,0,1,1.52,5.53,4.83,4.83,0,0,1,.28,1.88c-.4.31-1,.14-1.4.11-6.46-.3-13.06-.58-19.39-1-.5,0-1-.06-1.52-.08s-.92-.19-1.31.08c0,.59.45,1,.72,1.55s.54,1,.79,1.52a24.71,24.71,0,0,0,1.63,3,8.08,8.08,0,0,0,2.39,1.88,10.17,10.17,0,0,0,1.32.67,7.4,7.4,0,0,0,1.59.52,10.25,10.25,0,0,0,1.59,0,23.26,23.26,0,0,0,2.39-.08,6.74,6.74,0,0,0,1.4-.52c.45-.17.9-.39,1.31-.55,2.38-1,3.61-2.48,5.78-3.71.35-.2,1-.63,1.27-.6s.5.54.64,1,.34.8.44,1.12a19.5,19.5,0,0,1,.48,2.9,15.45,15.45,0,0,1,.39,2.91,6.42,6.42,0,0,1-2.19,0c-.78,0-1.57-.08-2.39-.08-4.69,0-9.82.25-14.25.24-.51,0-1.06-.08-1.6-.08a5.23,5.23,0,0,1-2.39-.32,4.73,4.73,0,0,1-1.27-1,3.72,3.72,0,0,1-1.52-2.51,29.73,29.73,0,0,1,.16-3.7c.14-2.92.23-6.16.36-9.2a4.57,4.57,0,0,1,.24-1.67,10.81,10.81,0,0,1,3.79.52c1.14.3,2.25.67,3.34,1.07,2.21.81,4.54,1.85,7.09,1.79a8.72,8.72,0,0,0,4.26-1.75c.49-.29,1-.6,1.52-.92C22.82,44.93,23.69,44,24.61,44.85Z"/></g><path class="cls-2" d="M89.85,22l1.35-.16.51,1.49-.89.69H86.59l-1.3-2.9-6.67,0-.49,1.33,1,1.6H74.74l6.11-13.78-1-2.49h4.23Zm-10.7-2.51,5.42-.16L81.9,12.9Z"/><path class="cls-2" d="M104.59,14.46c0,.8,0,1.63,0,2.46s0,1.64,0,2.41v1.89l-2.86,2.86H95.94L93.31,21.9V14.37l-1.6-.91.58-1.07h4.37l0,8.44.82,1.69,2.65-.25,1-1.72,0-6.35-.23-.16-.3-.24-.28-.24a.67.67,0,0,0-.17-.12v-1h4.42Z"/><path class="cls-2" d="M111.55,19.49c0,1,0,2,0,2.92l1,.39c0,.21,0,.4,0,.6s0,.4,0,.61h-4.37c0-.23,0-.55,0-1s0-.87,0-1.39,0-1.05,0-1.61V14.18l-1.19-.74.56-1h3.67l.14,2.14a14.71,14.71,0,0,1,1.47-1.21,8.36,8.36,0,0,1,1.36-.83,3.07,3.07,0,0,1,1.36-.36,3.41,3.41,0,0,1,1.09.17,4.54,4.54,0,0,1,.86.36,3.59,3.59,0,0,1,.61.39l.34.27-.88,2.49-3-.7a3.07,3.07,0,0,0-.78.24c-.31.13-.61.28-.91.43s-.58.31-.83.47l-.55.35C111.54,17.5,111.54,18.46,111.55,19.49Z"/><path class="cls-2" d="M123.92,21.61a3.24,3.24,0,0,0,2.52,1.08,3.22,3.22,0,0,0,1.35-.93c.37-.44.77-.94,1.21-1.51l2.6.95a1.89,1.89,0,0,1-.33.64,6.75,6.75,0,0,1-.77.93,6.35,6.35,0,0,1-1.07.85,2.29,2.29,0,0,1-1.15.39h-5.7a1.81,1.81,0,0,1-1.27-.73,7.44,7.44,0,0,1-1.17-1.81,9.84,9.84,0,0,1-.75-2.3,5.15,5.15,0,0,1,0-2.22c.08-.27.21-.62.39-1.07a7.67,7.67,0,0,1,.75-1.36,6.46,6.46,0,0,1,1.14-1.27,3.6,3.6,0,0,1,1.6-.79,15.05,15.05,0,0,1,1.51-.19,17.56,17.56,0,0,1,1.78,0,10.8,10.8,0,0,1,1.67.15,3,3,0,0,1,1.18.4,4.27,4.27,0,0,1,.73.74,5.61,5.61,0,0,1,.7,1.1,7.24,7.24,0,0,1,.51,1.35,6.52,6.52,0,0,1,.22,1.44L130,18.69l-7,.39A4.55,4.55,0,0,0,123.92,21.61Zm4-5.35c-.1-.36-.22-.74-.37-1.14a8.86,8.86,0,0,0-.46-1.06c-.16-.31-.32-.47-.46-.49a2.22,2.22,0,0,0-.59,0l-.74.18a7,7,0,0,0-.73.23,3.11,3.11,0,0,0-.56.24,1.87,1.87,0,0,0-.33.51,6.53,6.53,0,0,0-.3.79,7.09,7.09,0,0,0-.22.91,4.39,4.39,0,0,0-.08.84l5-.33A5.9,5.9,0,0,0,127.91,16.26Z"/><path class="cls-2" d="M138.09,22.06l1.65.49V24h-4.89l.05-14.34-1.79-.81.3-1.12h4.68Z"/><path class="cls-3" d="M75.45,52.88V46.65h1.29l2.39,5.61h.19V46.65H80v6.23H78.73l-2.42-5.62h-.17v5.62Z"/><path class="cls-3" d="M86.2,49.81a4.2,4.2,0,0,1-.53,2.41,2.83,2.83,0,0,1-3.86,0,4.32,4.32,0,0,1-.53-2.41,4.41,4.41,0,0,1,.54-2.44,2.15,2.15,0,0,1,1.92-.79,2.17,2.17,0,0,1,1.92.79A4.44,4.44,0,0,1,86.2,49.81Zm-4.21,0a4,4,0,0,0,.36,2,1.94,1.94,0,0,0,2.78,0,4.09,4.09,0,0,0,.35-2,4.09,4.09,0,0,0-.37-2,1.82,1.82,0,0,0-2.75,0A4,4,0,0,0,82,49.79Z"/><path class="cls-3" d="M88.12,51c0,.9.49,1.35,1.46,1.35A1.72,1.72,0,0,0,90.72,52a1.27,1.27,0,0,0,.38-1V46.65h.68V51a1.87,1.87,0,0,1-.55,1.51,2.49,2.49,0,0,1-1.64.47A2.45,2.45,0,0,1,88,52.5,1.9,1.9,0,0,1,87.43,51V46.65h.69Z"/><path class="cls-3" d="M94,50.49v2.39h-.69V46.65h2.3a2.11,2.11,0,0,1,1.49.46,1.85,1.85,0,0,1,.5,1.43,1.68,1.68,0,0,1-1.14,1.81l1.19,2.53h-.76l-1.13-2.39Zm1.62-.61a1.31,1.31,0,0,0,0-2.62H94v2.62Z"/><path class="cls-3" d="M99.5,50.49v2.39h-.69V46.65h2.31a2.13,2.13,0,0,1,1.49.46,1.85,1.85,0,0,1,.49,1.43A1.68,1.68,0,0,1,102,50.35l1.2,2.53h-.77l-1.12-2.39Zm1.63-.61c.84,0,1.26-.44,1.26-1.31a1.14,1.14,0,0,0-1.27-1.31H99.5v2.62Z"/><path class="cls-3" d="M104.36,52.88V46.65h.69v6.23Z"/><path class="cls-3" d="M107.26,50.49v2.39h-.69V46.65h2.3a2.11,2.11,0,0,1,1.49.46,1.82,1.82,0,0,1,.5,1.43,1.68,1.68,0,0,1-1.14,1.81l1.2,2.53h-.77L109,50.49Zm1.62-.61a1.31,1.31,0,0,0,0-2.62h-1.61v2.62Z"/><path class="cls-3" d="M76.1,60c0,.9.48,1.35,1.45,1.35A1.69,1.69,0,0,0,78.69,61a1.24,1.24,0,0,0,.38-1V55.65h.69V60a1.91,1.91,0,0,1-.55,1.51,2.51,2.51,0,0,1-1.64.47A2.43,2.43,0,0,1,76,61.5,1.87,1.87,0,0,1,75.4,60V55.65h.7Z"/><path class="cls-3" d="M81.24,61.88V55.65h1.3l2.38,5.61h.19V55.65h.69v6.23H84.53l-2.42-5.62h-.17v5.62Z"/><path class="cls-3" d="M89.31,61.88V55.65h1.25l1.76,5.26,1.77-5.26h1.25v6.23h-.7v-5.5h-.12l-1.81,5.27h-.78l-1.8-5.27H90v5.5Z"/><path class="cls-3" d="M101.54,58.81a4.28,4.28,0,0,1-.53,2.41,2.22,2.22,0,0,1-1.93.75,2.18,2.18,0,0,1-1.93-.77,4.24,4.24,0,0,1-.53-2.41,4.41,4.41,0,0,1,.54-2.44,2.72,2.72,0,0,1,3.83,0A4.35,4.35,0,0,1,101.54,58.81Zm-4.21,0a4,4,0,0,0,.36,2,1.5,1.5,0,0,0,1.39.59,1.48,1.48,0,0,0,1.38-.58,4,4,0,0,0,.36-2,4.09,4.09,0,0,0-.37-2,1.47,1.47,0,0,0-1.38-.63,1.45,1.45,0,0,0-1.38.63A4.14,4.14,0,0,0,97.33,58.79Z"/><path class="cls-3" d="M102.81,61.88V55.65h1.29l2.39,5.61h.19V55.65h.68v6.23h-1.27l-2.42-5.62h-.17v5.62Z"/><path class="cls-3" d="M111.11,61.88h-2.22V55.65h2.22a2,2,0,0,1,2,1.2,4.88,4.88,0,0,1,.29,1.82c0,1.57-.39,2.55-1.17,3A2.46,2.46,0,0,1,111.11,61.88Zm1.6-3.21c0-1.19-.27-1.94-.8-2.23a1.63,1.63,0,0,0-.8-.18h-1.53v5h1.53C112.18,61.26,112.71,60.4,112.71,58.67Z"/><path class="cls-3" d="M114.7,61.88V55.65h3.78v.61h-3.09v2.15h2.55V59h-2.55v2.25h3.09v.62Z"/><path class="cls-3" d="M75.45,70.88V64.65h3.79v.61h-3.1v2.15H78.7V68H76.14v2.25h3.1v.62Z"/><path class="cls-3" d="M80.42,70.88V64.65h1.3l2.39,5.61h.18V64.65H85v6.23H83.71l-2.42-5.62h-.17v5.62Z"/><path class="cls-3" d="M92.25,70.78a8.89,8.89,0,0,1-1.66.19,2.9,2.9,0,0,1-1.2-.21,1.47,1.47,0,0,1-.7-.63,2.91,2.91,0,0,1-.34-1,8.69,8.69,0,0,1-.1-1.38,8.93,8.93,0,0,1,.1-1.39,3.11,3.11,0,0,1,.34-1,1.51,1.51,0,0,1,.7-.62,2.8,2.8,0,0,1,1.17-.2,8.08,8.08,0,0,1,1.69.2l0,.58a9,9,0,0,0-1.62-.16,1.37,1.37,0,0,0-1.31.59,4.56,4.56,0,0,0-.32,2A8.68,8.68,0,0,0,89,68.92a2.63,2.63,0,0,0,.23.78,1.05,1.05,0,0,0,.5.5,2.45,2.45,0,0,0,1,.14,8,8,0,0,0,1.49-.16Z"/><path class="cls-3" d="M97.25,70.88V68.06H94.08v2.82h-.7V64.65h.7v2.79h3.17V64.65h.68v6.23Z"/><path class="cls-3" d="M98.91,70.88l1.71-6.23h1.51l1.71,6.23h-.68l-.45-1.61H100l-.45,1.61Zm2.23-5.64-.94,3.41h2.36l-1-3.41Z"/><path class="cls-3" d="M104.82,70.88V64.65h1.3l2.38,5.61h.19V64.65h.69v6.23h-1.27l-2.42-5.62h-.17v5.62Z"/><path class="cls-3" d="M113.37,68.31v-.62h1.72v3.06a11.27,11.27,0,0,1-2,.22,2.12,2.12,0,0,1-1.89-.79,4.4,4.4,0,0,1-.52-2.41,4.48,4.48,0,0,1,.52-2.43,2.1,2.1,0,0,1,1.87-.78,8.87,8.87,0,0,1,1.74.18l.3.05,0,.58a11.47,11.47,0,0,0-1.94-.19,1.48,1.48,0,0,0-1.39.6,5.68,5.68,0,0,0,0,4,1.49,1.49,0,0,0,1.38.59,7.2,7.2,0,0,0,1.29-.12V68.31Z"/><path class="cls-3" d="M116.45,70.88V64.65h3.79v.61h-3.1v2.15h2.56V68h-2.56v2.25h3.1v.62Z"/><path class="cls-3" d="M121.43,70.88V64.65h1.25l1.76,5.26,1.77-5.26h1.25v6.23h-.7v-5.5h-.12l-1.81,5.27h-.77l-1.81-5.27h-.13v5.5Z"/><path class="cls-3" d="M129,70.88V64.65h3.79v.61h-3.1v2.15h2.56V68h-2.56v2.25h3.1v.62Z"/><path class="cls-3" d="M134,70.88V64.65h1.3l2.39,5.61h.19V64.65h.68v6.23h-1.27l-2.42-5.62h-.17v5.62Z"/><path class="cls-3" d="M139.4,65.27v-.62h4.5v.62H142v5.61h-.68V65.27Z"/><path class="cls-2" d="M115,32v-.89h1.75v3.14a9.13,9.13,0,0,1-1,.13c-.5.05-.85.07-1.08.07a2.19,2.19,0,0,1-1.93-.77,4.34,4.34,0,0,1-.53-2.43,4.17,4.17,0,0,1,.54-2.4,2.17,2.17,0,0,1,1.89-.76,10,10,0,0,1,1.78.18l.31.06,0,.8a14.54,14.54,0,0,0-2-.15,1.32,1.32,0,0,0-1.19.49,3.56,3.56,0,0,0-.32,1.8,3.82,3.82,0,0,0,.3,1.81,1.32,1.32,0,0,0,1.22.5,4.58,4.58,0,0,0,1-.08V32Z"/><path class="cls-2" d="M119,32.18v2.19h-1V28.21h2.33c1.4,0,2.09.65,2.09,2a1.77,1.77,0,0,1-1,1.78l1,2.42h-1.1l-.89-2.19Zm2.41-2a1,1,0,0,0-1.07-1.11H119v2.24h1.36a1,1,0,0,0,.8-.31A1.29,1.29,0,0,0,121.36,30.18Z"/><path class="cls-2" d="M127.71,33.72a2.27,2.27,0,0,1-1.95.75,2.25,2.25,0,0,1-2-.76,4,4,0,0,1-.56-2.39,4.26,4.26,0,0,1,.56-2.42,2.79,2.79,0,0,1,3.89,0,4.22,4.22,0,0,1,.56,2.42A4.13,4.13,0,0,1,127.71,33.72Zm-3.12-.65a1.23,1.23,0,0,0,1.17.53,1.21,1.21,0,0,0,1.16-.52,3.59,3.59,0,0,0,.31-1.75,4,4,0,0,0-.31-1.79,1.48,1.48,0,0,0-2.32,0,3.78,3.78,0,0,0-.32,1.78A3.64,3.64,0,0,0,124.59,33.07Z"/><path class="cls-2" d="M130.38,32.4c0,.8.41,1.2,1.25,1.2s1.26-.4,1.26-1.2V28.21h1v4.17a2,2,0,0,1-.57,1.59,3.14,3.14,0,0,1-3.4,0,2,2,0,0,1-.56-1.59V28.21h1Z"/><path class="cls-2" d="M137.53,32.46h-1.26v1.91h-1V28.21h2.26a1.84,1.84,0,0,1,2.1,2.07,2.27,2.27,0,0,1-.53,1.62A2.06,2.06,0,0,1,137.53,32.46Zm-1.26-.87h1.25c.72,0,1.08-.43,1.08-1.31a1.37,1.37,0,0,0-.26-.92,1.06,1.06,0,0,0-.82-.29h-1.25Z"/><path class="cls-4" d="M45.44,64.48a54.78,54.78,0,0,0-4.72,23,63.57,63.57,0,0,1,8.27-23Z"/><path class="cls-4" d="M68.84,39.46A50.51,50.51,0,0,0,59.13,46v5.89a52,52,0,0,1,13.61-9,56.08,56.08,0,0,1,58.15,7.25C114.25,33.31,88.93,29.11,68.84,39.46Z"/></g></g></svg>