<svg xmlns="http://www.w3.org/2000/svg" viewBox="0 0 2599.3 840"><defs><style>.cls-1{fill:#1c4a3f;}.cls-2{fill:#bfd833;fill-rule:evenodd;}</style></defs><g id="Calque_2" data-name="Calque 2"><g id="Calque_1-2" data-name="Calque 1"><rect class="cls-1" width="840" height="840"/><path class="cls-1" d="M1448,561.4l31.12-3.76,11.8,34.34-20.39,16.09H1372.9l-30-67.06-154-.53-11.26,30.57,23.6,37H1099.3l141.1-318.13-23.07-57.4H1315Zm-246.78-57.94,125-3.76-61.69-148.06Z"/><path class="cls-1" d="M1788.14,387.58q0,27.9.27,56.87t.27,55.52v43.72l-66,66H1588.57L1528,559.25V385.43l-37-20.92,13.42-24.68H1605.2l.54,194.74,18.77,39.17,61.16-5.91,22.54-39.7.53-146.45q-1.6-1.08-5.09-3.76t-7-5.63q-3.48-3-6.44-5.36a28.33,28.33,0,0,0-4-3V339.83h101.93Z"/><path class="cls-1" d="M1948.82,503.73q.27,35.67.27,67.32l23.6,9.12q0,7-.27,13.68c-.18,4.48-.27,9.21-.27,14.22H1871.3q0-8.05.27-22.26t.53-31.92q.27-17.71.27-37.29V381.14L1845,364l12.87-24.14h84.77l3.22,49.36a340.8,340.8,0,0,1,33.79-27.9,203.55,203.55,0,0,1,31.39-19q16.89-8.33,31.38-8.32a79.29,79.29,0,0,1,25.22,3.76,129.54,129.54,0,0,1,19.84,8.31,88.71,88.71,0,0,1,14.22,9.12q5.64,4.56,7.78,6.17L2089.1,418.7l-69.74-16.1a72.42,72.42,0,0,0-18,5.63q-10.46,4.56-20.92,9.93t-19,10.73l-12.87,8.05Q1948.55,468.05,1948.82,503.73Z"/><path class="cls-1" d="M2234.23,552.55q18,22.79,58.21,24.94A71.81,71.81,0,0,0,2323.55,556q12.87-15,27.9-34.87l60.08,22q-.54,4.29-7.51,14.75a143.14,143.14,0,0,1-18,21.46A139.8,139.8,0,0,1,2361.37,599q-13.68,8.58-26.55,9.12H2203.38q-14,0-29.24-16.9t-27.09-41.84a220,220,0,0,1-17.17-53.11q-5.36-28.17.54-51.24,2.68-9.12,9.12-24.68a175.69,175.69,0,0,1,17.17-31.38A149,149,0,0,1,2183,359.68a84,84,0,0,1,37-18.24,342.39,342.39,0,0,1,34.87-4.29,392,392,0,0,1,41-1.07,285.91,285.91,0,0,1,38.63,3.48q18,3,27.09,9.39,8,5.91,16.9,16.9a141.46,141.46,0,0,1,16.09,25.48,169.7,169.7,0,0,1,11.81,31.12,142.94,142.94,0,0,1,5.09,33.26l-35.94,29.51-162,9.12Q2216.26,529.74,2234.23,552.55Zm92.27-123.39q-3.48-12.62-8.58-26.29a212.65,212.65,0,0,0-10.73-24.41q-5.64-10.72-10.46-11.27a49,49,0,0,0-13.68,1.08q-8.33,1.61-17.17,4t-16.9,5.37a92.21,92.21,0,0,0-12.87,5.63q-3.77,3.75-7.51,11.8a150.53,150.53,0,0,0-7,18.24,163.28,163.28,0,0,0-5.1,20.92,113.2,113.2,0,0,0-1.87,19.31l115.87-7.51Q2330,441.76,2326.5,429.16Z"/><path class="cls-1" d="M2561.22,563l38.08,11.26v33.8H2486.65l1.07-331-41.31-18.78,7-25.75h107.83Z"/><g id="lake_forest_open_lands_association"><path class="cls-2" d="M430.08,146.94c35.14.22,70.84,5.29,110.23,5.29,18,0,37.88.19,56.89,1.42,23.84,1.54,49.57-2.64,62.89,9.18,2.27,2,4.26,5.38,6.36,8.48,2,2.91,4.42,5.91,5.65,8.84,7,16.5,5.23,39.61,5.65,63.23-.29-.06-.33.14-.35.36-3.42,5.6-9.77,8.26-14.84,12-36.09,26.72-71.83,50.58-109.17,78.08-20,14.71-41.14,30.46-61.12,45.93-9.68,7.49-21,14.06-31.45,22.25-4.57,3.58-9.3,8-15.89,11-6.08,2.67-13,7.47-18.72,7.77-14.23.75-14-9.88-16.61-21.9-.61-2.76-.78-6.83-1.41-10.6s-1.8-8.05-1.06-10.24c1.62-4.81,8.62-4.87,15.53-6.71,17.11-4.58,27.53-12.37,38.51-24,6-6.36,12.66-13.42,16.25-19.78,2.64-4.66,4.63-11.31,6.72-18,1.95-6.28,4.16-13.21,4.95-19.79,1-8.18.36-24.91-1.42-32.51-2.3-9.79-8.7-19.89-13.78-28.61C460.65,205.82,448,185.16,435,161.42c-1.79-3.28-7.82-10.85-6-13.78A2.47,2.47,0,0,1,430.08,146.94Z"/><path class="cls-2" d="M403.58,169.9c-1,4-4.48,6.59-7.07,9.19s-5.45,5.37-8.12,8.12c-14.19,18.09-31.22,33.31-45.94,50.88-3.09,8.77-6.58,17.4-9.54,26.5-2.86,8.79-7.5,17.48-9.19,26.85-1.9,10.54,1.06,22.41.35,34.62.08.29.37.35.37.71,2.94,6.82,7.17,11.83,10.59,17.31,3.2,5.14,6.62,10.92,11.3,16.25,9.74,11.1,24.3,17.77,36,27.56,8.63,7.2,12.66,15.69,14.84,29a129,129,0,0,1,1.06,14.48c.21,4.62.79,10.13-2.11,13.43-3.57,1.72-7.36.23-10.24-1.06s-6.54-2.24-8.84-3.89c-3.18-2.28-5.77-7.59-8.48-12-7.63-12.44-17.25-24.21-24-36.39-4.61-8.29-9.47-17-16.25-24.38-2.86-3.1-6.31-6.93-9.9-10.24-3.26-3-7.44-7.5-10.94-9.19-7.47-3.59-22.68-5.91-32.86-6.71-8.61-.67-21.54,1.76-28.62,4.24s-13.72,7.32-20.14,11.3c-6.79,4.21-14.59,7.46-20.5,12s-10.78,12-15.89,18c-2.57,3-5.47,6-7.77,9.19-2.19,3.08-3.85,7.78-8.13,8.47-1.76-7.61-.7-15.71-.7-23.67,0-23.21-3.33-46.48-4.24-70.67-.62-16.29-.81-32.45-1.07-48-.25-16.4-.59-32.51.36-48.05,1.06-17.35,8.78-33.45,20.5-41,16.26-10.43,48-7.19,73.13-6,30.85,1.47,63-1,95,.71,8.06.44,16.08.51,24,.71C388.26,168.32,396.21,167.64,403.58,169.9Z"/><path class="cls-2" d="M684.11,433.12c-3.91,2.91-9,3.4-13.78,4.59-14.27,3.55-29.69,7.38-45.22,9.89-10.31,1.66-20.82,3.37-31.45,5.3-10.39,1.88-21.15,2.72-31.8,4.59-20.43,3.6-40.35,9.14-61.83,11.65-10.85,1.28-22.72,1.41-35.33,1.42-16.87,0-37.38,2.1-43.81-8.83-.42-6.09-.95-12.65.36-17,1.56-5.19,7.31-9.79,11.3-13.43a116.47,116.47,0,0,1,13.78-10.95c10.8-1.94,27.51-6.59,38.87-3.89,3.56.85,6.29,3.26,9.88,4.95,3.41,1.59,7,2.76,10.25,4.24,6.46,3,13.18,7.36,20.14,9.18s19.81,1.91,28.26,2.83c3,.33,6.3,1.19,8.83,1.06,4.05-.22,9.39-3.24,13.43-5.31,12.26-6.26,24.82-12.09,35.33-19.78,6.65-10.14,13-21.22,19.43-32.5,6.17-10.84,13-21.71,17.67-33.92,7.12-18.49,14.91-36.67,21.19-56.18,2.89-9,7.62-15.8,10.24-25.44.75-2.75.53-6.15,1.77-8.13,1.92-3.1,8.22-4.65,11.3-6,5.86-2.58,3.72,7,3.53,8.48a318.17,318.17,0,0,0-1.76,35.33c0,17.16-2.07,31.34-3.89,45.58-1.95,15.32-2.38,31.12-3.53,45.93C686.09,402.12,686.23,418.7,684.11,433.12Z"/><path class="cls-2" d="M400.75,511.55c-5.19,1.69-15.28,1.65-20.85-.36-4.66-1.68-9.12-4.7-13.78-7.06-13.45-6.81-24.49-16.2-38.5-23a257.18,257.18,0,0,0-29.33-12c-15.13-5.1-34-12.12-52.64-6-7,2.3-12.85,7.42-18.72,12.36-16.83,14.16-33.67,28.36-48.05,44.52-3.36,1.94-5,7.46-9.89,6.72-2.29-3.36-1.68-8.09-1.77-12.37-.45-22.95-.34-44.27-1.41-67.84-.17-3.64-.55-8.1-.71-13.07-.14-4.35-1.17-11.58,1.07-12.36a2.45,2.45,0,0,1,1.05-.71c18.15,1.16,36.36,3.92,54.42,6.36,16.4,2.22,33.16,3.88,49.46,6.36,24.19,3.67,48,7.12,72.07,11.65,13.71,2.6,29.68,2.66,36.74,11.66,2.7,3.43,3.72,9.18,5.66,13.78s4.28,9.09,6,13.07C395.53,492.46,400.46,500.77,400.75,511.55Z"/><path class="cls-2" d="M664.68,451.84c3.68-1.21,2.47,8,2.47,11.65,0,13-.28,26.07,0,40.64.34,17.32,2,34.9,3.18,51.23,2,26.8,1.37,50.57.36,77.73-.36,9.43,1.07,20.31-1.42,28.61-1,3.4-3.3,6.8-4.94,10.6-4.34,10-12.82,22.82-22.61,26.86-6.67,2.74-15.31,1.76-24.74,1.76-9.64,0-18.16-.36-26.5-.71-18.39-.78-38-.35-52.64-.35-17.51,0-34.9-1.42-52.28-1.42-17.77,0-35.41-.92-52.29-2.12-4.1-8.69-3.8-19.83-4.94-30.74-2.32-22.11-6.47-39.88-8.13-62.89-.65-9-1-26.89,4.95-29.68,3.67-1.73,9.57.47,13.77,2.13,4.65,1.83,9.28,2.83,13.07,4.23,24.55,9.1,50.65,19.67,75.26,27.92,26,8.72,51.5,17.46,77.37,26.14,4.31,1.44,8.75,2.94,13.07,4.24,4.17,1.24,8.54,4,13.07,2.47.24-6.51-3.25-12.5-5.65-18.37q-7.11-17.31-14.49-34.62c-2.45-5.8-4.4-11.89-7.06-17.32-3.3-6.72-8.18-13-12.72-18.72a124.59,124.59,0,0,0-15.55-15.9c-28.14-13-62.78-1.55-90.81,4.6-13,2.84-25.93,6.58-35.67,12-9.11-.48-13.59,3.21-22.26,4.94-5.88,1.19-15.28,1.92-18.37-1.76s-1.11-15.13-.36-20.49a131.23,131.23,0,0,1,9.89-35.69c2.09-4.86,4.43-13.25,7.07-15.54,1.69-1.47,6.58-2.66,9.19-3.53,2.86-1,7-2.7,9.89-2.83,4.83-.22,11.86,2.11,17,3.89,14.86,5.15,28.61,13.45,41.34,20.14,13.57,7.12,26.73,13.66,41.69,19.78,5,2,10.47,4.65,15.19,5.3,13,1.8,25.14.14,35.33-5.3,6.53-3.48,12.6-10.09,18.72-15.54s11.83-11.81,17.32-17C642.56,476.83,653,464.1,664.68,451.84Z"/><path class="cls-2" d="M383.09,544.76c5.76,15.07,9.5,31.84,13.43,49.11,1.21,5.35,3.53,11,2.47,16.61-3.5,2.76-8.45,1.25-12.37,1.06-57.35-2.73-115.85-5.16-172.06-9.19-4.42-.31-9-.49-13.42-.71-3.86-.18-8.22-1.69-11.66.71.12,5.21,4,9.28,6.36,13.78s4.81,8.93,7.06,13.43c4.6,9.15,9,18.79,14.49,26.5,4.48,6.35,13.66,12.32,21.19,16.6a87.83,87.83,0,0,0,11.66,6c4.51,1.73,9.21,3.89,14.13,4.59,4,.58,9.31.41,14.14.35,6.79-.08,14.87.08,21.19-.71,3.81-.46,8-2.89,12.37-4.59,4-1.56,8-3.48,11.66-4.94,21.11-8.36,32-22,51.23-32.86,3.14-1.77,8.91-5.6,11.3-5.29,3.12.4,4.45,4.71,5.66,8.47,1.27,3.92,3.05,7.08,3.89,9.9,2.42,8.2,3,16.57,4.23,25.79,1,7.93,4.16,17.27,3.54,25.79-6.2,2.15-12.89.46-19.43.34-6.93-.11-14-.7-21.21-.7-41.59,0-87.15,2.25-126.48,2.12-4.5,0-9.34-.71-14.13-.71-8.85,0-15.33.1-21.19-2.83a43.15,43.15,0,0,1-11.31-8.48c-6.36-6.35-12.38-11.07-13.42-22.25-.93-10,.88-21.7,1.41-32.86,1.23-25.93,2-54.69,3.18-81.61.23-5,0-10.45,2.12-14.85,12.2-1,23.26,1.84,33.57,4.6s20,6,29.68,9.54c19.62,7.2,40.28,16.42,62.89,15.9,14.94-.35,27.09-9.06,37.81-15.55,4.3-2.6,8.9-5.3,13.42-8.13C367.21,545.51,374.89,537,383.09,544.76Z"/></g></g></g></svg>