<svg xmlns="http://www.w3.org/2000/svg" viewBox="0 0 171 248"><defs><style>.cls-1{fill:#d0d0ce;}.cls-2,.cls-4{fill:#13322b;}.cls-3{fill:#fff;}.cls-4,.cls-5{fill-rule:evenodd;}.cls-5{fill:#88b04b;}</style></defs><g id="Calque_2" data-name="Calque 2"><g id="Calque_1-2" data-name="Calque 1"><rect class="cls-1" width="171" height="248"/><polygon class="cls-2" points="18.32 159.04 18.3 170.31 17.5 183.01 18.2 199.82 18.29 213.12 19.32 217.11 21.95 220.26 26.63 222.49 46.29 221.84 71.52 221.31 95.86 221.49 120.56 221.13 139.66 221.46 144.91 221.49 147.19 219.73 148.39 217.9 148.36 214.41 149.05 197.37 148.35 183.71 147.92 168.05 148.17 154.28 92.32 156.16 80.45 163.51 46.29 165.43 18.32 159.04"/><path class="cls-3" d="M53.2,206.05l2.36-.28.9,2.6-1.55,1.23H47.5l-2.28-5.09-11.69,0-.86,2.33,1.8,2.81H26.73l10.71-24.15-1.75-4.36H43.1Zm-18.73-4.4,9.48-.28-4.68-11.24Z"/><path class="cls-3" d="M79,192.86c0,1.41,0,2.85,0,4.32s0,2.87,0,4.21v3.32l-5,5H63.87l-4.6-3.83V192.7l-2.81-1.59,1-1.87h7.66l0,14.78,1.42,3,4.65-.45,1.71-3,0-11.12-.39-.28-.53-.43-.49-.41a2,2,0,0,0-.3-.22v-1.83H79Z"/><path class="cls-3" d="M91.21,201.68c0,1.8,0,3.5,0,5.11l1.79.69c0,.35,0,.7,0,1s0,.7,0,1.08H85.33c0-.41,0-1,0-1.69s0-1.53,0-2.43,0-1.84,0-2.83V192.37l-2.08-1.3,1-1.83h6.43L91,193a25.89,25.89,0,0,1,2.56-2.12,15.68,15.68,0,0,1,2.38-1.44,5.47,5.47,0,0,1,2.39-.63,6,6,0,0,1,1.91.28,10.25,10.25,0,0,1,1.51.63,7.23,7.23,0,0,1,1.08.7c.28.23.48.38.59.46l-1.55,4.36L96.57,194a5.39,5.39,0,0,0-1.37.43q-.8.34-1.59.75t-1.44.81l-1,.62C91.19,198.18,91.2,199.87,91.21,201.68Z"/><path class="cls-3" d="M112.87,205.38a5.7,5.7,0,0,0,4.42,1.89,5.34,5.34,0,0,0,2.36-1.62c.66-.76,1.36-1.65,2.12-2.65l4.56,1.67a3.06,3.06,0,0,1-.57,1.12,11.17,11.17,0,0,1-1.36,1.63,10.88,10.88,0,0,1-1.87,1.48,4.16,4.16,0,0,1-2,.7h-10a3.19,3.19,0,0,1-2.22-1.29,12.75,12.75,0,0,1-2-3.17,17.13,17.13,0,0,1-1.31-4,8.88,8.88,0,0,1,0-3.89,16.93,16.93,0,0,1,.69-1.88A13.38,13.38,0,0,1,107,193a11.23,11.23,0,0,1,2-2.22,6.24,6.24,0,0,1,2.81-1.38,24.24,24.24,0,0,1,2.64-.33,29.41,29.41,0,0,1,3.12-.08,23.82,23.82,0,0,1,2.93.26,5,5,0,0,1,2.06.72,7.32,7.32,0,0,1,1.28,1.28,11,11,0,0,1,1.22,1.93,12.64,12.64,0,0,1,.9,2.37,10.46,10.46,0,0,1,.38,2.52l-2.73,2.24-12.29.69A7.88,7.88,0,0,0,112.87,205.38Zm7-9.36c-.18-.64-.4-1.31-.65-2a15.46,15.46,0,0,0-.82-1.85c-.28-.55-.55-.83-.79-.86a3.67,3.67,0,0,0-1,.08c-.42.08-.86.19-1.3.31s-.88.26-1.29.41a8.15,8.15,0,0,0-1,.42,3.18,3.18,0,0,0-.57.9,11.4,11.4,0,0,0-.53,1.38,12.29,12.29,0,0,0-.39,1.59,9.06,9.06,0,0,0-.14,1.47l8.79-.57A10.32,10.32,0,0,0,119.88,196Z"/><path class="cls-3" d="M137.69,206.17l2.9.86v2.57H132l.09-25.13L129,183.05l.53-2h8.18Z"/><polygon class="cls-4" points="61.73 34.06 78 28.52 84.69 22.67 122.43 27.31 144.71 34.06 149.95 47.92 153.34 45.27 151.06 51.54 151.57 64.13 151.71 97.68 146.61 102.6 142.3 132.15 141.07 158.95 100.61 165.78 85.81 166.84 78 169.16 24.24 164.21 21.26 153 20.08 126.64 13.9 124.97 16.37 122.28 15.63 94.52 19.71 87.83 25.29 34.94 61.73 34.06"/><path class="cls-5" d="M85,22.49c9.23.06,18.61,1.39,29,1.39,4.72,0,9.95.05,14.95.37,6.26.41,13-.69,16.52,2.41a12.45,12.45,0,0,1,1.67,2.23,15.87,15.87,0,0,1,1.49,2.32c1.82,4.34,1.37,10.41,1.48,16.62-.07,0-.08,0-.09.09-.9,1.47-2.57,2.17-3.9,3.16-9.48,7-18.87,13.29-28.68,20.51-5.25,3.87-10.81,8-16.06,12.07-2.55,2-5.51,3.7-8.27,5.85a19.44,19.44,0,0,1-4.17,2.88c-1.6.7-3.42,2-4.92,2-3.74.2-3.67-2.6-4.36-5.76-.16-.72-.21-1.79-.37-2.78a7.42,7.42,0,0,1-.28-2.69c.42-1.27,2.26-1.28,4.08-1.76a20.08,20.08,0,0,0,10.12-6.32,31.12,31.12,0,0,0,4.27-5.2,26.51,26.51,0,0,0,1.76-4.73,30.91,30.91,0,0,0,1.3-5.2,33.24,33.24,0,0,0-.37-8.54c-.61-2.57-2.29-5.23-3.62-7.52C93,38,89.67,32.53,86.27,26.29c-.47-.86-2.06-2.85-1.58-3.62A.68.68,0,0,1,85,22.49Z"/><path class="cls-5" d="M78,28.52a5.43,5.43,0,0,1-1.85,2.41c-.71.72-1.44,1.42-2.14,2.14-3.72,4.75-8.2,8.75-12.07,13.37-.81,2.3-1.73,4.57-2.5,7S57.46,58,57,60.46c-.5,2.76.28,5.88.09,9.09,0,.08.1.09.1.19A32.32,32.32,0,0,0,60,74.29a30.93,30.93,0,0,0,3,4.27c2.56,2.91,6.39,4.66,9.47,7.24,2.27,1.89,3.33,4.12,3.9,7.61a34.22,34.22,0,0,1,.28,3.8c0,1.22.21,2.67-.56,3.53a3.18,3.18,0,0,1-2.69-.28,13.75,13.75,0,0,1-2.32-1,11.7,11.7,0,0,1-2.23-3.16c-2-3.27-4.53-6.36-6.31-9.56a32.89,32.89,0,0,0-4.27-6.4c-.75-.82-1.66-1.82-2.6-2.69a15.05,15.05,0,0,0-2.88-2.42c-2-.94-6-1.55-8.63-1.76a22,22,0,0,0-7.52,1.11,29.82,29.82,0,0,0-5.29,3c-1.78,1.11-3.83,2-5.39,3.16s-2.83,3.14-4.17,4.73c-.68.8-1.44,1.56-2,2.42s-1,2-2.14,2.22c-.46-2-.18-4.13-.18-6.22,0-6.1-.88-12.21-1.12-18.56-.16-4.28-.21-8.53-.28-12.63-.07-4.31-.15-8.54.1-12.62.27-4.56,2.3-8.79,5.38-10.77,4.27-2.74,12.62-1.89,19.22-1.57,8.1.38,16.56-.27,25,.18,2.11.12,4.22.14,6.31.19A22.49,22.49,0,0,1,78,28.52Z"/><path class="cls-5" d="M151.71,97.68a9.75,9.75,0,0,1-3.62,1.21c-3.75.93-7.8,1.94-11.88,2.6-2.71.43-5.47.88-8.26,1.39s-5.56.71-8.36,1.2c-5.37,1-10.6,2.41-16.24,3.07a82.65,82.65,0,0,1-9.29.37c-4.43,0-9.82.55-11.51-2.32a14.11,14.11,0,0,1,.1-4.46c.41-1.36,1.92-2.57,3-3.53a28.85,28.85,0,0,1,3.62-2.87c2.83-.51,7.23-1.73,10.21-1a14.74,14.74,0,0,1,2.6,1.31c.89.41,1.84.72,2.69,1.11A34.52,34.52,0,0,0,110,98.14c1.86.49,5.21.5,7.43.74a15.7,15.7,0,0,0,2.32.28,10.55,10.55,0,0,0,3.52-1.39,68.48,68.48,0,0,0,9.29-5.2c1.74-2.66,3.41-5.57,5.1-8.54a66.92,66.92,0,0,0,4.64-8.91c1.88-4.86,3.92-9.63,5.57-14.76.76-2.36,2-4.15,2.69-6.69a9.33,9.33,0,0,1,.47-2.13c.5-.82,2.16-1.22,3-1.58,1.54-.68,1,1.83.93,2.23a81.23,81.23,0,0,0-.47,9.28,88.71,88.71,0,0,1-1,12c-.51,4-.62,8.17-.93,12.06S152.27,93.89,151.71,97.68Z"/><path class="cls-5" d="M77.26,118.29a10.52,10.52,0,0,1-5.48-.1,35.39,35.39,0,0,1-3.62-1.85c-3.53-1.79-6.43-4.26-10.12-6a66.51,66.51,0,0,0-7.7-3.15c-4-1.34-8.93-3.19-13.83-1.58a15.6,15.6,0,0,0-4.92,3.25A119,119,0,0,0,19,120.52c-.89.5-1.33,2-2.6,1.76-.6-.88-.45-2.13-.47-3.25-.12-6-.09-11.63-.37-17.82,0-1-.14-2.13-.19-3.44,0-1.14-.3-3,.29-3.25a.59.59,0,0,1,.27-.18c4.77.3,9.56,1,14.3,1.67,4.31.58,8.71,1,13,1.67,6.35,1,12.62,1.87,18.93,3.06,3.6.68,7.8.7,9.66,3.06.7.91,1,2.42,1.48,3.62s1.13,2.39,1.58,3.44C75.89,113.27,77.18,115.46,77.26,118.29Z"/><path class="cls-5" d="M146.61,102.6c1-.32.65,2.1.65,3.06,0,3.42-.08,6.85,0,10.68.09,4.55.52,9.17.83,13.46a178.25,178.25,0,0,1,.1,20.42c-.1,2.48.28,5.34-.38,7.52a27,27,0,0,1-1.3,2.79c-1.14,2.62-3.36,6-5.94,7.05-1.75.72-4,.46-6.5.46s-4.77-.09-7-.18c-4.83-.21-10-.1-13.83-.1-4.6,0-9.17-.37-13.74-.37s-9.3-.24-13.73-.55c-1.08-2.29-1-5.21-1.3-8.08-.61-5.81-1.7-10.48-2.14-16.52-.17-2.36-.25-7.07,1.3-7.8,1-.46,2.52.12,3.62.56s2.44.74,3.43,1.11c6.45,2.39,13.31,5.17,19.78,7.33,6.83,2.29,13.53,4.59,20.33,6.87,1.13.38,2.3.77,3.43,1.11s2.25,1.06,3.44.65c.06-1.71-.86-3.28-1.49-4.82-1.24-3-2.52-6.07-3.81-9.1-.64-1.52-1.15-3.12-1.85-4.55a28.77,28.77,0,0,0-3.34-4.92,33.65,33.65,0,0,0-4.09-4.17c-7.39-3.43-16.49-.41-23.86,1.2a35.81,35.81,0,0,0-9.37,3.16c-2.39-.13-3.57.84-5.85,1.3-1.55.31-4,.5-4.83-.47s-.29-4-.09-5.38a34.49,34.49,0,0,1,2.6-9.38c.55-1.27,1.16-3.48,1.85-4.08a9.54,9.54,0,0,1,2.42-.93,11.55,11.55,0,0,1,2.6-.74,14,14,0,0,1,4.45,1c3.91,1.36,7.52,3.54,10.87,5.29,3.56,1.88,7,3.59,11,5.2a18.27,18.27,0,0,0,4,1.39,15,15,0,0,0,9.28-1.39c1.72-.91,3.31-2.65,4.92-4.08s3.11-3.11,4.55-4.46C140.8,109.17,143.53,105.82,146.61,102.6Z"/><path class="cls-5" d="M72.62,127a95.5,95.5,0,0,1,3.53,12.91c.32,1.4.93,2.89.65,4.36-.92.73-2.22.33-3.25.28-15.07-.72-30.44-1.35-45.21-2.41-1.16-.09-2.37-.13-3.53-.19-1-.05-2.16-.45-3.06.19,0,1.36,1.05,2.43,1.67,3.62s1.26,2.34,1.86,3.52a56.05,56.05,0,0,0,3.8,7c1.18,1.67,3.59,3.24,5.57,4.36a23.22,23.22,0,0,0,3.07,1.58,17.49,17.49,0,0,0,3.71,1.2,26.14,26.14,0,0,0,3.71.1c1.79,0,3.91,0,5.57-.19a16.12,16.12,0,0,0,3.25-1.2c1.06-.42,2.1-.92,3.06-1.3,5.55-2.2,8.4-5.78,13.46-8.64.83-.46,2.34-1.47,3-1.39.82.11,1.17,1.24,1.49,2.23s.8,1.86,1,2.6a43.67,43.67,0,0,1,1.12,6.77c.27,2.09,1.09,4.54.92,6.78-1.62.57-3.38.12-5.1.09s-3.67-.18-5.57-.18c-10.93,0-22.9.59-33.23.55-1.19,0-2.46-.18-3.72-.18-2.32,0-4,0-5.57-.75a11.27,11.27,0,0,1-3-2.22c-1.67-1.67-3.25-2.91-3.52-5.85-.25-2.63.23-5.7.37-8.63.32-6.82.51-14.37.83-21.45a10.28,10.28,0,0,1,.56-3.9,25.4,25.4,0,0,1,8.82,1.21c2.68.71,5.26,1.58,7.8,2.51,5.15,1.89,10.58,4.31,16.52,4.17,3.93-.09,7.12-2.38,9.94-4.08,1.13-.69,2.33-1.39,3.52-2.14C68.45,127.21,70.47,125,72.62,127Z"/></g></g></svg>