<svg xmlns="http://www.w3.org/2000/svg" viewBox="0 0 2628.84 840"><defs><style>.cls-1{fill:#13322b;}.cls-2{fill:#bfd833;}.cls-2,.cls-3{fill-rule:evenodd;}.cls-3{fill:#22594c;}</style></defs><g id="Calque_2" data-name="Calque 2"><g id="Calque_1-2" data-name="Calque 1"><path class="cls-1" d="M348.71,592.46l31.11-3.75L391.63,623l-20.39,16.09H273.6l-30-67.06-154-.53L78.32,602.12l23.61,37H0L141.09,321,118,263.6h97.64ZM101.93,534.52l125-3.75L165.23,382.7Z"/><path class="cls-1" d="M688.83,418.64q0,27.9.27,56.87t.27,55.52v43.73l-66,66H489.27l-60.62-50.43V416.5l-37-20.93L405,370.9H505.9l.53,194.74,18.78,39.16,61.16-5.9,22.53-39.7.54-146.46q-1.62-1.07-5.1-3.75t-7-5.64c-2.33-2-4.47-3.75-6.44-5.36a29.45,29.45,0,0,0-4-2.95V370.9H688.83Z"/><path class="cls-1" d="M849.51,534.79q.27,35.67.27,67.33l23.61,9.12q0,7-.27,13.68t-.27,14.21H772q0-8,.27-22.26T772.8,585q.27-17.7.27-37.28V412.21L745.7,395l12.88-24.14h84.76l3.22,49.35a339.37,339.37,0,0,1,33.8-27.89,202.71,202.71,0,0,1,31.38-19.05q16.9-8.31,31.39-8.31a79.52,79.52,0,0,1,25.21,3.75,130.67,130.67,0,0,1,19.85,8.32,89.62,89.62,0,0,1,14.22,9.12q5.63,4.56,7.78,6.17l-20.39,57.4-69.74-16.09q-7.51,1.06-18,5.63t-20.93,9.92q-10.45,5.37-19,10.73L849.24,468Q849.24,499.11,849.51,534.79Z"/><path class="cls-1" d="M1134.92,583.61q18,22.8,58.21,24.95a72.06,72.06,0,0,0,31.12-21.46q12.87-15,27.89-34.87l60.09,22q-.54,4.29-7.51,14.75a142.64,142.64,0,0,1-18,21.46A140.16,140.16,0,0,1,1262.07,630q-13.68,8.6-26.56,9.12H1104.08q-13.95,0-29.24-16.89t-27.09-41.85a219.81,219.81,0,0,1-17.17-53.11q-5.37-28.17.54-51.23a261,261,0,0,1,9.12-24.68A176.67,176.67,0,0,1,1057.4,420a149.36,149.36,0,0,1,26.29-29.23,83.87,83.87,0,0,1,37-18.24,342,342,0,0,1,34.87-4.29,389.27,389.27,0,0,1,41-1.08,284.1,284.1,0,0,1,38.62,3.49q18,3,27.09,9.39,8.06,5.89,16.91,16.9a141.11,141.11,0,0,1,16.09,25.48,169.58,169.58,0,0,1,11.8,31.11,143,143,0,0,1,5.1,33.27l-36,29.5-162,9.12Q1117,560.82,1134.92,583.61Zm92.28-123.39q-3.5-12.6-8.59-26.29a211.72,211.72,0,0,0-10.72-24.41q-5.64-10.72-10.47-11.26a49,49,0,0,0-13.68,1.07q-8.31,1.6-17.17,4t-16.89,5.37a93.62,93.62,0,0,0-12.88,5.63q-3.75,3.76-7.51,11.81a149.3,149.3,0,0,0-7,18.24,160.83,160.83,0,0,0-5.1,20.92,113.3,113.3,0,0,0-1.88,19.31l115.88-7.51Q1230.68,472.83,1227.2,460.22Z"/><path class="cls-1" d="M1461.91,594.07,1500,605.34v33.79H1387.34l1.08-331-41.31-18.78,7-25.75h107.83Z"/><polygon class="cls-2" points="2095.79 66.06 2188.72 34.45 2226.89 1.06 2442.33 27.53 2569.55 66.06 2599.46 145.2 2618.79 130.06 2605.79 165.85 2608.7 237.72 2609.53 429.27 2580.38 457.35 2555.79 626.06 2548.79 779.06 2317.79 818.06 2233.26 824.08 2188.72 837.35 1881.79 809.06 1864.79 745.06 1858.04 594.61 1822.79 585.06 1836.84 569.7 1832.61 411.24 1855.9 373.07 1887.79 71.06 2095.79 66.06"/><g id="lake_forest_open_lands_association"><path class="cls-3" d="M2228.48,0c52.71.34,106.26,8,165.35,8,26.94,0,56.82.28,85.32,2.12,35.76,2.31,74.37-4,94.35,13.78,3.4,3,6.38,8,9.54,12.71,2.95,4.36,6.62,8.86,8.47,13.26,10.43,24.75,7.85,59.42,8.48,94.85-.44-.1-.5.21-.53.53-5.13,8.4-14.66,12.39-22.25,18-54.15,40.08-107.75,75.87-163.76,117.12-30,22.07-61.72,45.69-91.68,68.89-14.53,11.25-31.46,21.1-47.18,33.39-6.86,5.36-14,12.05-23.83,16.43-9.12,4-19.53,11.21-28.09,11.66-21.34,1.12-20.94-14.83-24.9-32.85-.92-4.15-1.18-10.24-2.13-15.9s-2.7-12.08-1.59-15.36c2.43-7.22,12.94-7.3,23.3-10.07,25.67-6.86,41.3-18.56,57.76-36,9-9.54,19-20.13,24.38-29.68,4-7,6.94-17,10.07-27,2.94-9.43,6.25-19.81,7.43-29.69,1.47-12.28.54-37.37-2.13-48.76-3.45-14.69-13.05-29.85-20.67-42.92-19.86-34.1-38.85-65.09-58.29-100.69-2.68-4.92-11.72-16.27-9-20.67A3.87,3.87,0,0,1,2228.48,0Z"/><path class="cls-3" d="M2188.72,34.45c-1.45,6.08-6.71,9.89-10.6,13.77-4,4.07-8.18,8.07-12.18,12.2-21.28,27.12-46.83,50-68.91,76.31-4.63,13.16-9.86,26.1-14.3,39.74-4.3,13.19-11.26,26.24-13.79,40.28-2.85,15.81,1.59,33.63.53,51.93.11.43.54.54.54,1.07,4.42,10.24,10.76,17.74,15.89,26,4.81,7.71,9.94,16.37,16.95,24.38,14.61,16.64,36.45,26.64,54.06,41.33,13,10.8,19,23.54,22.26,43.46,1.08,6.52,1.26,14.25,1.6,21.72.3,6.92,1.17,15.19-3.18,20.14-5.34,2.58-11,.34-15.36-1.59s-9.81-3.36-13.25-5.83c-4.77-3.43-8.66-11.38-12.72-18-11.45-18.67-25.88-36.32-36.05-54.59-6.92-12.43-14.19-25.48-24.37-36.57-4.29-4.65-9.47-10.39-14.85-15.36-4.89-4.52-11.16-11.25-16.42-13.78-11.2-5.38-34-8.88-49.28-10.07-12.92-1-32.3,2.64-42.94,6.36-10.4,3.64-20.57,11-30.21,16.95-10.17,6.32-21.88,11.19-30.74,18-9.07,7-16.17,18-23.83,27-3.87,4.55-8.21,8.92-11.67,13.78-3.27,4.62-5.76,11.67-12.18,12.71-2.64-11.43-1.06-23.57-1.06-35.51,0-34.82-5-69.72-6.35-106-.93-24.43-1.22-48.68-1.61-72.07-.38-24.6-.88-48.75.54-72.07,1.59-26,13.17-50.18,30.74-61.47,24.39-15.65,72-10.78,109.71-9,46.27,2.2,94.56-1.51,142.56,1.06,12.08.66,24.11.77,36,1.06C2165.75,32.07,2177.67,31.06,2188.72,34.45Z"/><path class="cls-3" d="M2609.53,429.27c-5.87,4.37-13.52,5.11-20.67,6.89-21.41,5.33-44.54,11.08-67.83,14.84-15.48,2.49-31.23,5.05-47.18,7.95-15.58,2.82-31.72,4.08-47.7,6.88-30.64,5.4-60.53,13.71-92.74,17.48-16.28,1.91-34.09,2.12-53,2.13-25.31,0-56.07,3.15-65.71-13.25-.64-9.13-1.43-19,.53-25.44,2.35-7.78,11-14.69,17-20.14a172.67,172.67,0,0,1,20.67-16.43c16.2-2.9,41.26-9.88,58.29-5.83,5.35,1.28,9.44,4.89,14.83,7.42,5.11,2.39,10.54,4.14,15.37,6.36,9.7,4.47,19.78,11.05,30.21,13.77,10.64,2.78,29.72,2.86,42.39,4.24,4.5.5,9.45,1.79,13.25,1.59,6.07-.32,14.08-4.86,20.14-8,18.4-9.39,37.24-18.14,53-29.68,10-15.21,19.51-31.83,29.15-48.76,9.25-16.25,19.43-32.56,26.5-50.88,10.69-27.73,22.37-55,31.79-84.26,4.34-13.47,11.44-23.7,15.36-38.17,1.13-4.12.8-9.21,2.66-12.18,2.88-4.65,12.33-7,16.95-9,8.79-3.86,5.57,10.47,5.3,12.72-2.07,16.75-2.64,38-2.64,53,0,25.74-3.11,47-5.84,68.36-2.92,23-3.57,46.69-5.3,68.9C2612.5,382.77,2612.7,407.65,2609.53,429.27Z"/><path class="cls-3" d="M2184.49,546.92c-7.79,2.53-22.92,2.47-31.28-.53-7-2.52-13.68-7.07-20.67-10.6-20.17-10.22-36.74-24.3-57.76-34.45a385.52,385.52,0,0,0-44-18c-22.7-7.65-51-18.18-79-9-10.51,3.44-19.27,11.13-28.07,18.54-25.25,21.24-50.51,42.54-72.08,66.78-5,2.91-7.54,11.19-14.84,10.07-3.43-5-2.52-12.12-2.65-18.55-.68-34.43-.51-66.4-2.12-101.75-.25-5.47-.83-12.15-1.06-19.61-.21-6.52-1.76-17.37,1.6-18.55a3.77,3.77,0,0,1,1.58-1.06c27.22,1.74,54.54,5.88,81.62,9.54,24.61,3.33,49.74,5.82,74.2,9.54,36.29,5.51,72.06,10.68,108.11,17.48,20.56,3.89,44.52,4,55.11,17.49,4,5.15,5.57,13.77,8.48,20.67s6.42,13.64,9,19.6C2176.65,518.28,2184.05,530.76,2184.49,546.92Z"/><path class="cls-3" d="M2580.38,457.35c5.52-1.82,3.71,12,3.71,17.49,0,19.52-.43,39.09,0,60.95.51,26,3,52.35,4.77,76.85,3,40.2,2,75.85.53,116.59-.53,14.14,1.6,30.46-2.13,42.92-1.52,5.1-5,10.19-7.41,15.9-6.51,15-19.22,34.23-33.92,40.28-10,4.11-23,2.64-37.1,2.64-14.47,0-27.24-.53-39.75-1.06-27.58-1.16-56.92-.53-79-.53-26.27,0-52.35-2.12-78.42-2.12-26.66,0-53.12-1.38-78.44-3.18-6.14-13-5.7-29.75-7.41-46.11-3.48-33.17-9.7-59.82-12.19-94.34-1-13.46-1.44-40.33,7.42-44.51,5.5-2.6,14.35.7,20.66,3.18,7,2.75,13.92,4.25,19.61,6.36,36.82,13.64,76,29.49,112.88,41.87,39,13.07,77.26,26.18,116.05,39.22,6.47,2.15,13.14,4.4,19.61,6.35,6.25,1.86,12.82,6,19.61,3.7.35-9.76-4.87-18.75-8.47-27.55q-10.67-25.95-21.74-51.93c-3.68-8.69-6.6-17.83-10.6-26-5-10.08-12.26-19.54-19.08-28.09a186.76,186.76,0,0,0-23.32-23.84c-42.21-19.54-94.17-2.33-136.21,6.89-19.43,4.26-38.9,9.87-53.51,18-13.65-.73-20.38,4.81-33.39,7.41-8.82,1.77-22.92,2.88-27.55-2.64s-1.66-22.7-.54-30.75a196.54,196.54,0,0,1,14.84-53.52c3.13-7.3,6.64-19.88,10.6-23.31,2.54-2.21,9.87-4,13.78-5.31,4.29-1.43,10.56-4,14.84-4.23,7.24-.33,17.79,3.16,25.44,5.83,22.29,7.73,42.92,20.18,62,30.21,20.35,10.69,40.08,20.5,62.53,29.68,7.5,3.06,15.7,7,22.78,7.94,19.56,2.7,37.7.22,53-7.94,9.79-5.23,18.9-15.14,28.09-23.32s17.74-17.72,26-25.44C2547.2,494.84,2562.8,475.74,2580.38,457.35Z"/><path class="cls-3" d="M2158,596.74c8.65,22.6,14.26,47.76,20.14,73.66,1.82,8,5.3,16.49,3.71,24.91-5.25,4.15-12.67,1.88-18.56,1.59-86-4.09-173.77-7.73-258.08-13.77-6.63-.48-13.53-.74-20.14-1.07-5.79-.28-12.33-2.54-17.48,1.07.18,7.81,6,13.91,9.54,20.67s7.21,13.39,10.59,20.14c6.9,13.73,13.57,28.18,21.73,39.74,6.72,9.53,20.5,18.49,31.79,24.91,5.18,2.95,11.31,6.64,17.49,9,6.76,2.6,13.82,5.83,21.2,6.88,6,.87,13.95.62,21.2.53,10.19-.12,22.31.12,31.79-1.06,5.71-.7,12-4.34,18.56-6.88,6-2.35,12-5.23,17.48-7.42,31.67-12.54,48-33,76.85-49.28,4.71-2.66,13.36-8.41,16.95-8,4.68.6,6.67,7.08,8.49,12.72,1.9,5.87,4.58,10.61,5.83,14.84,3.63,12.3,4.57,24.85,6.35,38.68,1.55,11.9,6.23,25.92,5.3,38.69-9.29,3.23-19.33.69-29.14.52-10.39-.17-20.94-1.06-31.81-1.06-62.38,0-130.72,3.37-189.72,3.18-6.75,0-14-1.06-21.2-1.06-13.28,0-23,.15-31.79-4.25a64.81,64.81,0,0,1-17-12.71c-9.54-9.53-18.58-16.61-20.14-33.39-1.39-15,1.32-32.54,2.12-49.29,1.85-38.88,2.94-82,4.77-122.41.34-7.53.06-15.68,3.18-22.27,18.3-1.47,34.89,2.76,50.35,6.9,15.29,4.08,30,9,44.53,14.3,29.43,10.81,60.41,24.64,94.33,23.85,22.41-.52,40.63-13.58,56.71-23.32,6.46-3.91,13.35-8,20.13-12.19C2134.17,597.86,2145.7,585,2158,596.74Z"/></g></g></g></svg>