<svg xmlns="http://www.w3.org/2000/svg" viewBox="0 0 283.67 200"><defs><style>.cls-1,.cls-5{fill:#88b04b;}.cls-2,.cls-4{fill:#13322b;}.cls-3{fill:#fff;}.cls-4,.cls-5{fill-rule:evenodd;}.cls-6{fill:#bfd833;}</style></defs><g id="Calque_2" data-name="Calque 2"><g id="Calque_1-2" data-name="Calque 1"><path class="cls-1" d="M184,129.06c0,.92-1.23,1.6-1.87,2a6.13,6.13,0,0,1-1.23.67c-.52.24-6.76,2.73-8.77.72a10.05,10.05,0,0,1-1.63-2.66,6.88,6.88,0,0,1-.3-2.45,11.24,11.24,0,0,1,4-8.11,6,6,0,0,1,1.33-.91,5.11,5.11,0,0,1,1.61-.17,5.05,5.05,0,0,1,3.3,1,2.53,2.53,0,0,1,.87,2.51,2.92,2.92,0,0,1-.35,1,1.31,1.31,0,0,1-.73.26,2.45,2.45,0,0,1-1.47-.32c-.46-.26-.64-.54-.54-.83a.74.74,0,0,0-.17-.77.94.94,0,0,0-.76-.39c-.54,0-1.38.59-2.51,1.75s-1.69,2-1.69,2.6a2.24,2.24,0,0,1-.37,1,3.43,3.43,0,0,0-.34,1.9,3.71,3.71,0,0,0,.41,1.89c.88,1.28,3.25,1.6,4.63,1.35a6.53,6.53,0,0,0,1.35-.4,9.9,9.9,0,0,0,2.43-1.38c.3-.22.86-.63,1.18-.47l.19-.14C183.36,128.08,184,128.07,184,129.06Z"/><path class="cls-1" d="M200.31,128.31c0,.91-1.23,1.59-1.87,2l-.13.08-.37.26a5,5,0,0,1-1.53.81,9.54,9.54,0,0,1-1.68.3,4.16,4.16,0,0,1-3.81-1.19q-1.24-1.46-1.77-5.32-.15-1.23-.33-1.23a12.12,12.12,0,0,0-1.79,1.42,11.89,11.89,0,0,0-1.32,1.36,6.16,6.16,0,0,0-.87,1.89l-.35.84c-.13.3-.26.61-.38.91-.31.73.1,1.77-.94,1.93a1.49,1.49,0,0,1-1.49-.76,1.92,1.92,0,0,1-.43-.84,3,3,0,0,1,.28-1,2.37,2.37,0,0,0,.13-.32,17.92,17.92,0,0,1,1.39-3.42c.81-1.46.64-3.09,1-4.64a46.14,46.14,0,0,1,1.69-5.1c1-2.62,1.31-8.59,4.86-9.49,3-.75,2.44,3.36,2,4.93a12.58,12.58,0,0,1-.87,2.18c-.41.83-.69,1.4-.84,1.73a9.69,9.69,0,0,1-1,2c-.66.91-1.16,2-1.85,2.86-.37.47-.75.93-1.15,1.37s-.8.67-.9,1.05c0,.12.05.27.17.25a.26.26,0,0,0,.12-.05c.65-.47,1.07-1.21,1.88-1.3l.39,0a3.27,3.27,0,0,1,1.75.2,2.5,2.5,0,0,1,1.12,1.17,4.85,4.85,0,0,1,.41,2,10.56,10.56,0,0,0,.31,2.36,8.1,8.1,0,0,0,.69,2,.88.88,0,0,0,.5.48,3.72,3.72,0,0,0,1.14,0,7.8,7.8,0,0,0,1.66-.37,17.3,17.3,0,0,0,2.72-1.72C199.67,127.32,200.3,127.31,200.31,128.31Zm-11.59-14.78a13,13,0,0,0-.88,2.4c-.29,1.09-.72,2-1.1,3.07-.11.28,0,.78.32.42.91-.9,1.1-2,1.67-3a15.29,15.29,0,0,0,1.23-3.35c.11-.45.88-1.7.44-2.09-.11-.1-.25,0-.43.15a3.72,3.72,0,0,0-.51.94c-.08.18-.17.35-.25.52C189.05,112.89,188.88,113.2,188.72,113.53Z"/><path class="cls-1" d="M216.24,129c0,.76-1,1.32-1.54,1.68a5.67,5.67,0,0,1-1,.56l-.59.32-.14.14a3.29,3.29,0,0,1-1.94.79,4.34,4.34,0,0,1-1.24,0,5,5,0,0,1-1.22-.45,6.47,6.47,0,0,1-1.53-.89.57.57,0,0,0-.43-.18,1.88,1.88,0,0,0-.65.4,6.82,6.82,0,0,1-3.65,1.24c-1.42.1-2.34-.19-2.77-.84a4.89,4.89,0,0,1-.37-2.43,5.91,5.91,0,0,1,.46-2.58c.25-.45.44-.78.59-1l.41-.61c.14-.19.37-.49.69-.88a17.18,17.18,0,0,1,2.48-2.67c1.32-1,3.88-2,5.5-1.17,2.08,1.07,1.25,4.47.38,6.21a9.28,9.28,0,0,0-.65,2.07,2.53,2.53,0,0,0,0,1.49c.33.64,1.38.68,3.14.13a.78.78,0,0,1,.22,0l.21-.1a15.33,15.33,0,0,0,2.52-1.57C215.71,128.2,216.23,128.19,216.24,129Zm-8.42-5.3c0-.08,0-.16-.13-.27a1.62,1.62,0,0,0-.86-.41,2.28,2.28,0,0,0-1.07,0,4.93,4.93,0,0,0-1.58,1,6.81,6.81,0,0,0-1.46,1.52c-.33.5-.61.93-.83,1.29a4.08,4.08,0,0,0-.59,1.77,2.15,2.15,0,0,0,.13,1.49c.16.21.53.31,1.1.31a4.37,4.37,0,0,0,1.6-.28,2.15,2.15,0,0,0,1.08-1c.42-.84.75-1.48,1-1.91a4.12,4.12,0,0,0,.64-1.53.82.82,0,0,1,.22-.51.59.59,0,0,0,.12-.57c-.08-.26,0-.48.34-.64S207.8,123.78,207.82,123.71Z"/><path class="cls-1" d="M217.22,121.77a4.12,4.12,0,0,1,.28-.31c.36-.38,1.28-.78,1.79-.45.28.18.16.93.41,1s.39-.13.83-.45a10,10,0,0,1,3.64-1.33,3.81,3.81,0,0,1,1.31-.21,1.75,1.75,0,0,1,.74.47,1.85,1.85,0,0,1,.61,1.39,2.26,2.26,0,0,1-.54,1.54,12.43,12.43,0,0,0-1.11,2.5,9.19,9.19,0,0,0-.67,2.56,2.23,2.23,0,0,0,.33,1.08,3.5,3.5,0,0,0,.82,1,1.47,1.47,0,0,0,.89.39,7.79,7.79,0,0,0,2.53-1,19.18,19.18,0,0,0,3-1.89,2.13,2.13,0,0,1,1.18-.6c.23,0,.35.27.35.74a1.32,1.32,0,0,1-.26.69,4.59,4.59,0,0,1-.71.8,9.44,9.44,0,0,1-1,.82,6.73,6.73,0,0,1-1.23.67L228,132.25a3.29,3.29,0,0,1-2.23.33,5.61,5.61,0,0,1-2.27-1.56,7.64,7.64,0,0,1-1.23-1.43,4.19,4.19,0,0,1-.18-1.51,10.45,10.45,0,0,1,.56-3.31,5.82,5.82,0,0,0,.41-1.9c-.1-.09-.78.44-2,1.62s-2.48,2.43-3.68,3.74a9.39,9.39,0,0,0-1.81,2.27.82.82,0,0,1-.31.56,2.46,2.46,0,0,1-.76.48,1.44,1.44,0,0,1-.82.11c-.38-.05-.64-.34-.78-.89a1.56,1.56,0,0,1-.06-1,7.4,7.4,0,0,1,.84-1.5C214.88,126.36,215.77,123.53,217.22,121.77Z"/><path class="cls-1" d="M245.94,128.89c0,.91-1.23,1.59-1.87,2a6.73,6.73,0,0,1-1.23.67,19.55,19.55,0,0,1-2.71,1.3,12.87,12.87,0,0,1-1.4.86,4,4,0,0,0-1.75,1.71c-.08.17-.19.39-.34.65s-.31.52-.48.78-.37.54-.58.84l-.57.84-.52.74c-.18.24-.31.42-.41.54a4.1,4.1,0,0,1-1.12.89,18.89,18.89,0,0,1-1.9,1.08c-1.07.54-2.12.66-2.55-.7a3.4,3.4,0,0,1-.21-1.09c0-.86,1-1.56,1.54-2.12a9.72,9.72,0,0,1,2.55-1.77c.47-.25.91-.54,1.35-.83a13.28,13.28,0,0,1,1.34-.86,4.7,4.7,0,0,0,1.38-1.54q.81-1.24.63-1.47c-.1-.07-.53,0-1.3.26-2.06.7-3.37,0-3.94-2.23a4.47,4.47,0,0,1,.16-2.4,9.1,9.1,0,0,1,1.25-2.69c1.42-2.07,4.17-4.78,7-4.29,1.85.33,2,1.92,1.66,3.47a21.08,21.08,0,0,1-.67,2.21,5.15,5.15,0,0,1-.65,1.36,1.2,1.2,0,0,0-.33.67,6.84,6.84,0,0,1-.67,1.52,5.6,5.6,0,0,0-.64,1.94,1.25,1.25,0,0,0,0,.34,14.48,14.48,0,0,1,2.55-1.24,19,19,0,0,0,3.06-1.9C245.29,127.9,245.93,127.89,245.94,128.89Zm-11,6.87a4.12,4.12,0,0,0-1.8,1.08,18.9,18.9,0,0,0-2.36,2.27c-.7.79-1,1.26-.82,1.41.35.35,1.07.07,2.18-.84a11.31,11.31,0,0,0,2.66-3.1C235.11,136,235.16,135.76,234.93,135.76Zm3.46-10a2.07,2.07,0,0,1,.37-1.12,2.81,2.81,0,0,0,.45-1.34c.07-.49,0-.76-.19-.81s-.66.09-1.32.5a4.66,4.66,0,0,0-1.32,1.1c-.27.42-1.61,1.21-2.15,2.38a4.48,4.48,0,0,0-.64,2.53c.15.62.41,1,.79,1a2.43,2.43,0,0,0,1.59-.56,3.2,3.2,0,0,0,1-1.12A14.16,14.16,0,0,0,238.39,125.79Z"/><path class="cls-1" d="M254.54,129.09a4.59,4.59,0,0,1-.91.91,14.16,14.16,0,0,1-2.79,1.82c-2.41,1.24-5.28.1-6.91-1.87a4.14,4.14,0,0,1-.68-3.74c.16-.79.43-3.53.87-4.06.76-.94,4.34-.25,3.52,1.49a4.88,4.88,0,0,0-.56,1.67,2,2,0,0,1-.52,1.12,2.5,2.5,0,0,0-.5,1.23q-.09.71.24.93c.18.07.26.28.26.63s.23.64.67,1a1.87,1.87,0,0,0,.71.47,2.81,2.81,0,0,0,1-.13,11.77,11.77,0,0,0,2.64-1.53,5.65,5.65,0,0,1,1.93-1.06.91.91,0,0,1,1,.5A.51.51,0,0,1,254.54,129.09ZM248.68,116a1.82,1.82,0,0,1-.5-.64c0-.1.11-.24.35-.44a2.26,2.26,0,0,1,1.34-.37,1.37,1.37,0,0,1,1.12.37.75.75,0,0,1,0,.91,1.48,1.48,0,0,1-2.35.17Z"/><path class="cls-1" d="M255,121.77a4.12,4.12,0,0,1,.28-.31c.36-.38,1.28-.78,1.79-.45.28.18.15.93.41,1s.39-.13.83-.45a10,10,0,0,1,3.64-1.33,3.77,3.77,0,0,1,1.3-.21,1.71,1.71,0,0,1,.75.47,1.89,1.89,0,0,1,.61,1.39,2.36,2.36,0,0,1-.54,1.54,11.87,11.87,0,0,0-1.11,2.5,9.19,9.19,0,0,0-.67,2.56,2.23,2.23,0,0,0,.33,1.08,3.34,3.34,0,0,0,.82,1,1.47,1.47,0,0,0,.89.39,7.79,7.79,0,0,0,2.53-1,19.18,19.18,0,0,0,3.05-1.89,2.14,2.14,0,0,1,1.17-.6c.24,0,.36.27.36.74a1.32,1.32,0,0,1-.26.69,4.59,4.59,0,0,1-.71.8,10.49,10.49,0,0,1-1,.82,6.73,6.73,0,0,1-1.23.67l-2.38,1.12a3.3,3.3,0,0,1-2.23.33,5.54,5.54,0,0,1-2.27-1.56,7.25,7.25,0,0,1-1.23-1.43,4.19,4.19,0,0,1-.18-1.51,10.72,10.72,0,0,1,.55-3.31,5.25,5.25,0,0,0,.41-1.9c-.1-.09-.77.44-2,1.62s-2.48,2.43-3.69,3.74a9.49,9.49,0,0,0-1.8,2.27.82.82,0,0,1-.31.56,2.51,2.51,0,0,1-.77.48,1.43,1.43,0,0,1-.82.11c-.37-.05-.63-.34-.78-.89a1.62,1.62,0,0,1,0-1,7.19,7.19,0,0,1,.83-1.5C252.61,126.36,253.5,123.53,255,121.77Z"/><path class="cls-1" d="M283.67,128.89c0,.91-1.24,1.59-1.87,2a6.73,6.73,0,0,1-1.23.67,19.55,19.55,0,0,1-2.71,1.3,13.14,13.14,0,0,1-1.41.86,4,4,0,0,0-1.74,1.71c-.08.17-.19.39-.34.65s-.31.52-.48.78l-.58.84-.58.84c-.17.26-.34.5-.52.74s-.31.42-.41.54a3.84,3.84,0,0,1-1.11.89,18.89,18.89,0,0,1-1.9,1.08c-1.07.54-2.13.66-2.55-.7A3.71,3.71,0,0,1,266,140c0-.86,1-1.56,1.54-2.12a9.94,9.94,0,0,1,2.56-1.77c.46-.25.9-.54,1.34-.83a13.43,13.43,0,0,1,1.35-.86,4.59,4.59,0,0,0,1.37-1.54c.55-.83.76-1.32.64-1.47s-.54,0-1.31.26c-2.05.7-3.37,0-3.94-2.23a4.49,4.49,0,0,1,.17-2.4,8.86,8.86,0,0,1,1.25-2.69c1.42-2.07,4.16-4.78,6.94-4.29,1.86.33,2,1.92,1.67,3.47a21.08,21.08,0,0,1-.67,2.21,5.15,5.15,0,0,1-.65,1.36,1.17,1.17,0,0,0-.34.67,6.33,6.33,0,0,1-.67,1.52,5.74,5.74,0,0,0-.63,1.94,1.25,1.25,0,0,0,0,.34,14.48,14.48,0,0,1,2.55-1.24,18.44,18.44,0,0,0,3-1.9C283,127.9,283.65,127.89,283.67,128.89Zm-11,6.87a4.12,4.12,0,0,0-1.8,1.08,19.72,19.72,0,0,0-2.37,2.27q-1,1.19-.81,1.41c.34.35,1.07.07,2.17-.84a11.14,11.14,0,0,0,2.66-3.1C272.83,136,272.88,135.76,272.66,135.76Zm3.46-10a2,2,0,0,1,.37-1.12,2.81,2.81,0,0,0,.45-1.34c.07-.49,0-.76-.19-.81s-.66.09-1.32.5a4.38,4.38,0,0,0-1.32,1.1c-.27.42-1.61,1.21-2.16,2.38a4.53,4.53,0,0,0-.63,2.53c.15.62.41,1,.78,1a2.46,2.46,0,0,0,1.6-.56,3.41,3.41,0,0,0,1-1.12A14.79,14.79,0,0,0,276.12,125.79Z"/><polygon class="cls-2" points="4.41 136.55 4.39 147.83 3.6 160.52 4.3 177.34 4.38 190.63 5.41 194.62 8.04 197.77 12.72 200 32.39 199.35 57.61 198.82 81.96 199 106.66 198.65 125.75 198.97 131.01 199 133.28 197.25 134.49 195.41 134.45 191.92 135.14 174.88 134.44 161.22 134.02 145.56 134.27 131.79 78.41 133.68 66.55 141.02 32.39 142.94 4.41 136.55"/><path class="cls-3" d="M39.29,183.56l2.36-.28.9,2.61L41,187.11H33.59L31.31,182l-11.69,0-.85,2.32,1.79,2.81H12.82L23.53,163l-1.75-4.36h7.41Zm-18.73-4.39,9.49-.29-4.68-11.24Z"/><path class="cls-3" d="M65.11,170.37c0,1.41,0,2.85,0,4.32s0,2.87,0,4.21v3.32l-5,5H50l-4.6-3.83V170.21l-2.81-1.59,1-1.87h7.65l0,14.78,1.43,3,4.64-.45L59,181l0-11.12-.38-.28c-.18-.14-.36-.28-.53-.43l-.49-.41a2.13,2.13,0,0,0-.31-.22v-1.83h7.74Z"/><path class="cls-3" d="M77.31,179.19c0,1.8,0,3.51,0,5.11l1.79.69c0,.35,0,.7,0,1s0,.7,0,1.08H71.42c0-.41,0-1,0-1.69s0-1.53,0-2.43,0-1.83,0-2.83V169.88l-2.07-1.3,1-1.83h6.44l.24,3.74a25.85,25.85,0,0,1,2.57-2.11A14.52,14.52,0,0,1,82,166.93a5.43,5.43,0,0,1,2.38-.63,6,6,0,0,1,1.91.28,8.9,8.9,0,0,1,1.51.64,6.33,6.33,0,0,1,1.08.69l.59.47L88,172.73l-5.29-1.22a5.76,5.76,0,0,0-1.36.43q-.8.34-1.59.75c-.53.27-1,.55-1.45.82l-1,.61Q77.28,176.48,77.31,179.19Z"/><path class="cls-3" d="M99,182.89a5.69,5.69,0,0,0,4.42,1.9,5.5,5.5,0,0,0,2.36-1.63c.65-.76,1.36-1.64,2.12-2.65l4.56,1.67a3.44,3.44,0,0,1-.57,1.12,11.29,11.29,0,0,1-1.37,1.63,10.56,10.56,0,0,1-1.87,1.49,4.17,4.17,0,0,1-2,.69h-10a3.16,3.16,0,0,1-2.22-1.29,12.77,12.77,0,0,1-2.06-3.17,16.52,16.52,0,0,1-1.3-4,8.9,8.9,0,0,1,0-3.89c.14-.46.37-1.09.69-1.87a13.75,13.75,0,0,1,1.3-2.39,11.55,11.55,0,0,1,2-2.22,6.4,6.4,0,0,1,2.81-1.38c.73-.14,1.62-.24,2.65-.33s2.07-.1,3.11-.08a21.81,21.81,0,0,1,2.93.27,5,5,0,0,1,2.06.71,7.33,7.33,0,0,1,1.28,1.28,10.2,10.2,0,0,1,1.22,1.94A12.54,12.54,0,0,1,112,173a11,11,0,0,1,.39,2.52l-2.73,2.24-12.3.69A7.93,7.93,0,0,0,99,182.89Zm7-9.36a21,21,0,0,0-.65-2,17.3,17.3,0,0,0-.81-1.85c-.29-.54-.55-.83-.8-.86a3.75,3.75,0,0,0-1,.09c-.42.08-.85.18-1.3.3s-.87.26-1.28.41a6.86,6.86,0,0,0-1,.43,3.11,3.11,0,0,0-.57.89,12.73,12.73,0,0,0-.53,1.39,11.74,11.74,0,0,0-.38,1.58,8.32,8.32,0,0,0-.15,1.47l8.8-.57A11.55,11.55,0,0,0,106,173.53Z"/><path class="cls-3" d="M123.79,183.69l2.89.85v2.57h-8.55l.08-25.13-3.14-1.42.53-2h8.19Z"/><polygon class="cls-4" points="47.82 11.57 64.1 6.03 70.78 0.19 108.52 4.82 130.81 11.57 136.04 25.43 139.43 22.78 137.15 29.05 137.66 41.64 137.81 75.19 132.7 80.11 128.4 109.66 127.17 136.46 86.71 143.29 71.9 144.35 64.1 146.67 10.34 141.72 7.36 130.51 6.17 104.15 0 102.48 2.46 99.79 1.72 72.03 5.8 65.35 11.39 12.45 47.82 11.57"/><path class="cls-5" d="M71.06,0c9.24.06,18.61,1.39,29,1.39,4.72,0,10,.05,15,.37,6.26.41,13-.69,16.53,2.42a12.84,12.84,0,0,1,1.67,2.22,15.85,15.85,0,0,1,1.48,2.33c1.83,4.33,1.38,10.41,1.49,16.61-.08,0-.09,0-.1.09-.89,1.48-2.56,2.17-3.89,3.16-9.49,7-18.88,13.29-28.69,20.51-5.25,3.87-10.81,8-16.06,12.07-2.54,2-5.51,3.7-8.26,5.85A19.52,19.52,0,0,1,75,69.9c-1.59.7-3.42,2-4.92,2-3.73.2-3.66-2.6-4.36-5.75-.16-.73-.2-1.8-.37-2.79A7.85,7.85,0,0,1,65,60.71c.43-1.26,2.27-1.28,4.08-1.76a19.86,19.86,0,0,0,10.12-6.32,31,31,0,0,0,4.27-5.19,26.16,26.16,0,0,0,1.76-4.74,29.1,29.1,0,0,0,1.3-5.2A33.24,33.24,0,0,0,86.19,29c-.6-2.57-2.28-5.23-3.62-7.52-3.48-6-6.8-11.4-10.21-17.63-.47-.87-2-2.85-1.58-3.62A.7.7,0,0,1,71.06,0Z"/><path class="cls-5" d="M64.1,6a5.55,5.55,0,0,1-1.86,2.42c-.71.71-1.43,1.41-2.13,2.13C56.38,15.33,51.9,19.34,48,24c-.81,2.31-1.73,4.57-2.51,7s-2,4.6-2.41,7.06c-.5,2.77.28,5.89.09,9.09,0,.08.09.1.09.19a33.3,33.3,0,0,0,2.79,4.55,30.93,30.93,0,0,0,3,4.27c2.55,2.92,6.38,4.67,9.47,7.24,2.26,1.89,3.32,4.12,3.9,7.61a34.31,34.31,0,0,1,.27,3.81c.06,1.21.21,2.66-.55,3.52A3.18,3.18,0,0,1,59.46,78a13.41,13.41,0,0,1-2.32-1,11.57,11.57,0,0,1-2.23-3.15c-2-3.27-4.53-6.37-6.32-9.57a32.84,32.84,0,0,0-4.26-6.4c-.76-.82-1.66-1.82-2.61-2.69a15.44,15.44,0,0,0-2.87-2.42c-2-.94-6-1.55-8.64-1.76a22.09,22.09,0,0,0-7.52,1.11,29.82,29.82,0,0,0-5.29,3c-1.78,1.11-3.83,2-5.38,3.16s-2.83,3.15-4.18,4.73c-.67.8-1.43,1.57-2,2.42s-1,2-2.13,2.22c-.47-2-.19-4.12-.19-6.22,0-6.09-.88-12.21-1.11-18.56-.16-4.28-.22-8.53-.28-12.63-.07-4.31-.16-8.54.09-12.62C2.46,13,4.49,8.75,7.57,6.77,11.84,4,20.18,4.88,26.78,5.2c8.11.38,16.57-.26,25,.18,2.12.12,4.23.14,6.31.19A22.6,22.6,0,0,1,64.1,6Z"/><path class="cls-5" d="M137.81,75.19a9.69,9.69,0,0,1-3.62,1.21c-3.75.93-7.8,1.94-11.88,2.6-2.71.43-5.47.88-8.27,1.39s-5.55.72-8.35,1.21c-5.37.94-10.61,2.4-16.25,3.06a82.56,82.56,0,0,1-9.28.37c-4.44,0-9.82.55-11.51-2.32a14.45,14.45,0,0,1,.09-4.46c.41-1.36,1.92-2.57,3-3.52a30.73,30.73,0,0,1,3.62-2.88c2.84-.51,7.23-1.73,10.21-1a13.72,13.72,0,0,1,2.6,1.3c.9.42,1.85.72,2.69,1.11a34,34,0,0,0,5.29,2.41c1.87.49,5.21.5,7.43.75a17.44,17.44,0,0,0,2.32.27,10.6,10.6,0,0,0,3.53-1.39,67.88,67.88,0,0,0,9.28-5.2c1.75-2.66,3.42-5.57,5.11-8.54a66.31,66.31,0,0,0,4.64-8.91c1.87-4.86,3.92-9.63,5.57-14.76.76-2.36,2-4.15,2.69-6.68a9.88,9.88,0,0,1,.46-2.14c.51-.81,2.16-1.22,3-1.58,1.54-.68,1,1.83.93,2.23a83.49,83.49,0,0,0-.46,9.28,90.22,90.22,0,0,1-1,12c-.52,4-.63,8.18-.93,12.07S138.36,71.41,137.81,75.19Z"/><path class="cls-5" d="M63.36,95.8a10.63,10.63,0,0,1-5.48-.09,33.55,33.55,0,0,1-3.62-1.86c-3.54-1.79-6.44-4.26-10.12-6a66.69,66.69,0,0,0-7.71-3.16c-4-1.34-8.92-3.19-13.83-1.58a15.56,15.56,0,0,0-4.91,3.25A119.11,119.11,0,0,0,5.06,98c-.88.51-1.32,2-2.6,1.76-.6-.88-.44-2.12-.46-3.25-.12-6-.09-11.63-.37-17.82,0-1-.15-2.13-.19-3.44,0-1.14-.31-3,.28-3.25A.68.68,0,0,1,2,71.85c4.76.3,9.55,1,14.29,1.67,4.31.58,8.72,1,13,1.67,6.36,1,12.62,1.87,18.94,3.06,3.6.68,7.8.7,9.65,3.07.71.9,1,2.41,1.49,3.62s1.12,2.39,1.57,3.43C62,90.78,63.28,93,63.36,95.8Z"/><path class="cls-5" d="M132.7,80.11c1-.32.65,2.11.65,3.06,0,3.42-.07,6.85,0,10.68.09,4.55.52,9.17.84,13.46a176,176,0,0,1,.09,20.42c-.09,2.48.28,5.34-.37,7.52-.27.89-.87,1.79-1.3,2.79-1.14,2.62-3.37,6-5.94,7.05-1.75.72-4,.47-6.5.47s-4.77-.1-7-.19c-4.84-.2-10-.09-13.83-.09-4.61,0-9.17-.38-13.74-.38s-9.31-.24-13.74-.55c-1.08-2.28-1-5.21-1.3-8.08-.61-5.81-1.7-10.48-2.13-16.52-.18-2.36-.26-7.07,1.3-7.8,1-.46,2.51.12,3.61.56s2.44.74,3.44,1.11c6.45,2.39,13.31,5.17,19.77,7.34,6.84,2.29,13.53,4.58,20.33,6.86,1.13.38,2.3.78,3.44,1.12s2.24,1.05,3.43.65c.06-1.71-.85-3.29-1.48-4.83q-1.87-4.55-3.81-9.1c-.65-1.52-1.16-3.12-1.86-4.55a28.3,28.3,0,0,0-3.34-4.91,31.75,31.75,0,0,0-4.09-4.18c-7.39-3.42-16.49-.41-23.85,1.21A35.4,35.4,0,0,0,76,106.38c-2.39-.13-3.57.84-5.85,1.3-1.54.31-4,.5-4.82-.46s-.29-4-.1-5.39a34.77,34.77,0,0,1,2.6-9.37c.55-1.28,1.17-3.49,1.86-4.09a9.85,9.85,0,0,1,2.41-.93,12.09,12.09,0,0,1,2.6-.74,14.28,14.28,0,0,1,4.46,1C83,89.08,86.66,91.26,90,93a120.3,120.3,0,0,0,11,5.2,18.35,18.35,0,0,0,4,1.39,15,15,0,0,0,9.28-1.39c1.71-.91,3.31-2.65,4.92-4.08s3.11-3.1,4.55-4.46C126.89,86.68,129.62,83.33,132.7,80.11Z"/><path class="cls-5" d="M58.72,104.53a96.85,96.85,0,0,1,3.52,12.9c.32,1.41.93,2.89.65,4.36-.92.73-2.22.33-3.25.28-15.06-.71-30.44-1.35-45.2-2.41-1.17-.08-2.37-.13-3.53-.19s-2.16-.44-3.06.19c0,1.37,1,2.44,1.67,3.62s1.26,2.35,1.85,3.53a56.67,56.67,0,0,0,3.81,7c1.18,1.67,3.59,3.24,5.57,4.36a23.08,23.08,0,0,0,3.06,1.58,17.51,17.51,0,0,0,3.71,1.21,28,28,0,0,0,3.72.09,53.49,53.49,0,0,0,5.57-.19,16.34,16.34,0,0,0,3.25-1.2c1-.41,2.09-.92,3.06-1.3,5.54-2.2,8.4-5.78,13.46-8.63.83-.47,2.34-1.48,3-1.4.82.11,1.17,1.24,1.49,2.23s.8,1.86,1,2.6a43.82,43.82,0,0,1,1.11,6.78c.27,2.08,1.09,4.54.93,6.77-1.63.57-3.39.12-5.11.09s-3.67-.18-5.57-.18c-10.93,0-22.9.59-33.23.56-1.18,0-2.45-.19-3.71-.19-2.33,0-4,0-5.57-.74a11.54,11.54,0,0,1-3-2.23c-1.67-1.67-3.26-2.91-3.53-5.85-.24-2.63.23-5.7.37-8.63.33-6.81.52-14.37.84-21.45a10.51,10.51,0,0,1,.55-3.9A25.81,25.81,0,0,1,15,105.36c2.68.72,5.26,1.58,7.8,2.51,5.16,1.89,10.59,4.31,16.53,4.17,3.92-.09,7.11-2.37,9.93-4.08,1.13-.68,2.34-1.39,3.53-2.14C54.54,104.72,56.56,102.47,58.72,104.53Z"/><path class="cls-2" d="M160.55,81.3a4.55,4.55,0,0,1,3,.32,2.84,2.84,0,0,1,1.86,1.74,3.43,3.43,0,0,0,.33,1,9.72,9.72,0,0,1,.42,1,1.18,1.18,0,0,0,.2.56c.1.15.19.23.27.23.24,0,.75.43,1.54,1.27a10.28,10.28,0,0,0,.83.75,3.21,3.21,0,0,0,.76.42,2.28,2.28,0,0,0,1,.15l1.45-.06a10.26,10.26,0,0,0,2.21-.45,6.93,6.93,0,0,0,1.82-.69c.21-.16.94-.58,2.18-1.27s2-.88,2.25-.67.15.51-.1,1a2.55,2.55,0,0,1-1,1.07c-.05,0-.4.25-1.06.69-1.75,1.15-3.8,2.35-5.94,2.35-.37,0-.64,0-.81,0a1.17,1.17,0,0,0-.57.18,1.77,1.77,0,0,0-.44.33,4.08,4.08,0,0,0-.33.74,7.62,7.62,0,0,0-.34,1.1q-.12.54-.39,1.68a13.28,13.28,0,0,1-1,3.13c-.24.45-.22.68,0,.71.43,0,.72-.4,1.12-.53a2.73,2.73,0,0,1,1.24,0,3.21,3.21,0,0,1,2,1.16.62.62,0,0,1,.16.38c0,.24-.24.4-.45.51a3,3,0,0,1-1,.41c-1,.14-.74-.71-1.33-.88-.08,0-.23,0-.43.24a6.22,6.22,0,0,1-1.51.79c-2.32,1-3.07,4.21-4.15,6.24s-3,1.54-4.9,1.57a10.52,10.52,0,0,1-2.46-.18,4.13,4.13,0,0,1-1-.42,7,7,0,0,1-1-.65,5.67,5.67,0,0,1-.89-.81,8.31,8.31,0,0,1-.73-.91,3.9,3.9,0,0,1-.5-.91,2.21,2.21,0,0,1-.18-.81,1.54,1.54,0,0,0-.23-.83,3.44,3.44,0,0,1-.6-1.5,6.34,6.34,0,0,0-.91-1.9,1.78,1.78,0,0,1-.47-1c0-.22.26-.39.71-.49.69-.19,1.37.14,2.06,1a2.67,2.67,0,0,0,1.7.75,45.21,45.21,0,0,0,4.82.12l5,0,.63-.75A1.88,1.88,0,0,0,166,98a2.2,2.2,0,0,1,.24-.91,11.89,11.89,0,0,0,.71-2.57,8.17,8.17,0,0,0,.28-2.34,1.53,1.53,0,0,1,.27-1.3c.29-.61.44-.92.44-1a6.08,6.08,0,0,0-1.11-.83,6.11,6.11,0,0,1-1.62-1.58c-.32-.53-.55-.79-.71-.79a5.73,5.73,0,0,0-1.7,1.26c-1.64,1.37-2.81,1.64-3.52.79a4.39,4.39,0,0,0-1.35-1,3,3,0,0,1-1.38-1.22,1.09,1.09,0,0,1-.2-.79,6.15,6.15,0,0,1,.71-1.31,10.7,10.7,0,0,1,1.74-2A4.85,4.85,0,0,1,160.55,81.3ZM163.36,103c.61-1.24.84-1.9.71-2s-.42.06-.95.32a2.31,2.31,0,0,1-1.54.24,15.51,15.51,0,0,0-2.31-.18q-1.8-.06-3.39-.06c-1,0-1.58,0-1.58.12a15.1,15.1,0,0,0,.85,2.25,21.51,21.51,0,0,0,1,2.22c.27.26,1.15.31,2.65.14a6.68,6.68,0,0,0,3-.81A6.14,6.14,0,0,0,163.36,103Zm-.59-19.14a1.46,1.46,0,0,0-1.49-.44,2.46,2.46,0,0,0-1.52,1.07c-.39.58-.5,1-.32,1.23s.6.2,1.23-.12a12.84,12.84,0,0,1,1.5-.75,2.24,2.24,0,0,0,.87-.46C163.1,84.31,163,84.13,162.77,83.87Z"/><path class="cls-2" d="M186.1,103.48c0,.91-1.23,1.59-1.87,2a6.13,6.13,0,0,1-1.23.67l-.74.3a10.12,10.12,0,0,1-3.28.72,5.29,5.29,0,0,1-2.65-.31,15.73,15.73,0,0,1-1.8-.87,3.66,3.66,0,0,1-1.11-1.63,10.31,10.31,0,0,1-1-4,14.2,14.2,0,0,1,.37-2.77,8.63,8.63,0,0,1,.87-2.64,8.73,8.73,0,0,1,.83-1.07A4.31,4.31,0,0,1,178,92.68c.89.07,2.18.35,2.34,1.42.43,2.81-1.6,4.84-2.83,7.13a9.66,9.66,0,0,0-1.11,2.5q0,.33.63.93a1.81,1.81,0,0,0,.72.44,3.22,3.22,0,0,0,1.14-.07,22.13,22.13,0,0,0,2.82-.63,18.74,18.74,0,0,0,3.05-1.35C185.45,102.49,186.09,102.48,186.1,103.48Zm-9.87-4.16a9,9,0,0,0,1-2.36.6.6,0,0,0-.52-.62.75.75,0,0,0-.82.25,3.08,3.08,0,0,0-.5.89,8.39,8.39,0,0,0-.39,1.23q-.15.63-.24,1.2a3,3,0,0,0,0,1q0,.39.24.39C175.13,101.27,175.54,100.62,176.23,99.32Z"/><path class="cls-2" d="M197.4,103.48c0,.91-1.23,1.59-1.87,2a6.73,6.73,0,0,1-1.23.67l-.74.3a10.18,10.18,0,0,1-3.29.72,5.26,5.26,0,0,1-2.64-.31,15,15,0,0,1-1.8-.87,3.66,3.66,0,0,1-1.11-1.63,10.14,10.14,0,0,1-1-4,13.47,13.47,0,0,1,.37-2.77A8.36,8.36,0,0,1,185,95a7.92,7.92,0,0,1,.84-1.07,4.29,4.29,0,0,1,3.43-1.24c.9.07,2.19.35,2.35,1.42.42,2.81-1.61,4.84-2.83,7.13a9.49,9.49,0,0,0-1.12,2.5q0,.33.63.93a1.9,1.9,0,0,0,.73.44,3.16,3.16,0,0,0,1.13-.07,22.65,22.65,0,0,0,2.83-.63,18.22,18.22,0,0,0,3-1.35C196.75,102.49,197.39,102.48,197.4,103.48Zm-9.88-4.16a8.82,8.82,0,0,0,1-2.36.61.61,0,0,0-.52-.62.75.75,0,0,0-.82.25,3.07,3.07,0,0,0-.51.89,8.39,8.39,0,0,0-.39,1.23q-.15.63-.24,1.2a3.69,3.69,0,0,0,0,1c0,.26.12.39.25.39S186.84,100.62,187.52,99.32Z"/><path class="cls-2" d="M216.39,103.46c0,.92-1.23,1.59-1.86,2a6.18,6.18,0,0,1-1.23.67c-.25.12-.48.29-.73.39a7.52,7.52,0,0,1-4.14.49,4.06,4.06,0,0,1-1.75-1.06,4.88,4.88,0,0,1-.85-1.1,4.58,4.58,0,0,1-.41-1.36c-.2-.91-.4-1.39-.6-1.41s-.32.17-.52.52a11.67,11.67,0,0,1-1.43,1.84,10.14,10.14,0,0,1-1.69,1.58,5,5,0,0,1-2.23.75,6,6,0,0,1-1.19,0,.93.93,0,0,1-.56-.47,5.82,5.82,0,0,1-.54-3.66A9,9,0,0,1,198,98.54a11.43,11.43,0,0,1,1.76-2,13.24,13.24,0,0,1,2.4-1.77,5.9,5.9,0,0,1,2.79-.48c2.18,0,2.08-1.52,3.15-3.22l4.14-6.55c.71-1.14,2.84-5.33,3.58-2.49.83,3.2-3.52,7.78-5,10.29-.51.91-.75,1.94-1.18,2.88-1.08,2.36-2.08,5.35-1.75,8a3.12,3.12,0,0,0,.61,1.71,1.73,1.73,0,0,0,1.36.52,6.31,6.31,0,0,0,1.61-.27l.43-.17a18.44,18.44,0,0,0,3-1.9C215.75,102.47,216.38,102.47,216.39,103.46Zm-11-6.67c-.08-.34-.39-.51-.95-.5a2.79,2.79,0,0,0-1.62.58,11.25,11.25,0,0,0-2.1,1.91,8.91,8.91,0,0,0-1.47,2.07,4.86,4.86,0,0,0-.37,2c0,1,.2,1.5.6,1.45s1.28-.81,2.45-2.3Q205.53,97.54,205.42,96.79Z"/><path class="cls-2" d="M166.54,129.17c0,.75-1,1.31-1.54,1.68a5.62,5.62,0,0,1-1,.55l-.59.32-.14.14a3.3,3.3,0,0,1-1.94.8,4.27,4.27,0,0,1-1.24,0,5.12,5.12,0,0,1-1.22-.44,7,7,0,0,1-1.53-.89.59.59,0,0,0-.43-.19,2,2,0,0,0-.65.4,6.91,6.91,0,0,1-3.65,1.25c-1.42.09-2.34-.19-2.77-.85a4.84,4.84,0,0,1-.37-2.42,5.91,5.91,0,0,1,.46-2.58c.25-.45.44-.79.59-1l.41-.62q.21-.28.69-.87a17.18,17.18,0,0,1,2.48-2.67c1.32-1,3.87-2,5.5-1.18,2.08,1.07,1.25,4.48.38,6.21a9.54,9.54,0,0,0-.65,2.08,2.54,2.54,0,0,0,0,1.49c.33.63,1.37.67,3.14.12l.21,0,.22-.09a16.81,16.81,0,0,0,2.52-1.57C166,128.35,166.53,128.35,166.54,129.17Zm-8.42-5.31a.34.34,0,0,0-.13-.26,1.62,1.62,0,0,0-.86-.42,2.27,2.27,0,0,0-1.07,0,4.58,4.58,0,0,0-1.58,1,6.6,6.6,0,0,0-1.46,1.52c-.33.49-.61.92-.83,1.29a4.08,4.08,0,0,0-.59,1.76,2.18,2.18,0,0,0,.13,1.5c.16.2.53.3,1.1.3a4.59,4.59,0,0,0,1.6-.27,2.21,2.21,0,0,0,1.08-1.05c.42-.84.75-1.47,1-1.9a4.14,4.14,0,0,0,.64-1.54.81.81,0,0,1,.22-.51.58.58,0,0,0,.12-.56.52.52,0,0,1,.34-.65A.71.71,0,0,0,158.12,123.86Z"/><path class="cls-6" d="M173.75,152.61c0,.86-1.19,1.84-1.93,2.1-.9.32-1.9-.68-1.9-.68s-2.1-1.76-2.94-1.35-1.47,1.82-2,2.51a8.29,8.29,0,0,1-.76.82,3.79,3.79,0,0,1-.77.5,4,4,0,0,1-1.93.37,5.14,5.14,0,0,1-2-.48,3.7,3.7,0,0,0-1.52-.51.88.88,0,0,0-.75.51.73.73,0,0,1-.48.44,4.8,4.8,0,0,1-1.3,0,7.35,7.35,0,0,1-1.34-.23c-4.92-1.39-4.14-5.93-1.67-9.24a1.63,1.63,0,0,1,1-.73l.32-.07.47-.07c.12,0,.29.19.52.59a2.83,2.83,0,0,1-.19,1.9,8.67,8.67,0,0,0-.52,3.23,10.54,10.54,0,0,0,.07,1.66.52.52,0,0,0,.45.39c.32,0,.77-.25,1.36-.82s.87-1,.87-1.38.22-.52.67-.81a6.23,6.23,0,0,0,1.56-1.83q.9-1.41,1.56-1.56c.82-.22,1.33-.06,1.53.47a2.36,2.36,0,0,1-.56,2.06,8.06,8.06,0,0,0-1,2.12q-.41,1.23-.18,1.53c.07.17.36.26.85.26s1.17-.49,2.08-1.47a6.72,6.72,0,0,0,1.68-2.55,6.51,6.51,0,0,1,.78-1.93,2.16,2.16,0,0,1,.61-.69,1.64,1.64,0,0,1,.82-.17c1.61,0,.82,2.48,1.94,3.5a4.06,4.06,0,0,0,.69.48,6.4,6.4,0,0,0,2.22,1h0a3.9,3.9,0,0,0,.46-.28C173.1,151.62,173.74,151.62,173.75,152.61Z"/><path class="cls-6" d="M185.84,153a1.83,1.83,0,0,1-.9,1.44,5.33,5.33,0,0,1-.75.46l-.17.1a1.4,1.4,0,0,1-.6.23,2.25,2.25,0,0,1-1.47-.61,2.73,2.73,0,0,1-.37-.52l-.07-.13c-.3-.5-.54-.61-.92-.41a2.63,2.63,0,0,0-.84,1.22,7,7,0,0,1-.38.73,1.94,1.94,0,0,1-.84.79c-.28.14-.7.38-1.22.71a3.78,3.78,0,0,1-1.81.61,11.44,11.44,0,0,0-1.45.22,1.23,1.23,0,0,1-.27,0,1.19,1.19,0,0,1-.47-.09,3.75,3.75,0,0,1-.88-.68,4.24,4.24,0,0,1-.84-1,6.51,6.51,0,0,1-.45-1.55,8.25,8.25,0,0,1-.19-2.9,7.47,7.47,0,0,1,1.12-2.54,10.41,10.41,0,0,1,2.17-2.67,6.42,6.42,0,0,1,2.54-1.18,3.3,3.3,0,0,0,1.27-.54,2.14,2.14,0,0,1,1.55-.43,3.21,3.21,0,0,1,1.52,1,8.73,8.73,0,0,1,.64.8,2,2,0,0,1,.28.58,2.82,2.82,0,0,1,.09.81,33,33,0,0,0,.13,3.46,2.71,2.71,0,0,0,1.27,2l.05,0a8,8,0,0,0,.67-.47c.48-.37.91-.5,1.2-.35S185.83,152.49,185.84,153Zm-6.93-2.15a3.11,3.11,0,0,0-.63-.77,2.22,2.22,0,0,1-.82-1.34,2,2,0,0,0-.23-.83,1.88,1.88,0,0,0-.47-.64.42.42,0,0,0-.46-.07,5.54,5.54,0,0,0-1,.93,7.73,7.73,0,0,0-1.26,1.73,9.44,9.44,0,0,0-.87,2,2.08,2.08,0,0,0-.1,1.29,3.1,3.1,0,0,1,.23,1.27,4,4,0,0,0,.19,1,.73.73,0,0,0,.38.39,2.7,2.7,0,0,0,.9.11h.51a2.2,2.2,0,0,0,.37-.06,1.51,1.51,0,0,0,.33-.13l.35-.21a3.3,3.3,0,0,0,.42-.34,3.25,3.25,0,0,0,1.09-1.2,2.76,2.76,0,0,1,.59-1,2.2,2.2,0,0,0,.54-1.28h0A1.57,1.57,0,0,0,178.91,150.8Zm.55-4.11a.27.27,0,0,0-.1.11c-.06.09-.12.33,0,1a2.25,2.25,0,0,0,.21.73,2.63,2.63,0,0,0,.07-.81C179.65,147,179.54,146.73,179.46,146.69Z"/><path class="cls-6" d="M200.41,154.14c0,.92-1.18,1.6-1.79,2.05a6,6,0,0,1-1.18.67l-.14.08a.41.41,0,0,1-.21.2,1.61,1.61,0,0,1-.41.15,8.06,8.06,0,0,1-4.75.29,5.64,5.64,0,0,1-1.2-2.33,5.55,5.55,0,0,1-.1-1.55c0-.56.12-1.46.27-2.68v-.35a.21.21,0,0,0-.09-.19.69.69,0,0,0-.23-.08l-.4,0c-.7,0-1.29-.36-2-.37l-.14.39c-1.49,4.24-3.11,5.31-3.11,5.31-1.33.74-.91-1.44-.91-1.44a4,4,0,0,0,.87-1.65c.11-.46.26-1,.43-1.47h0c.38-1.15.82-2.25.95-2.58a12.59,12.59,0,0,0,1.27-4.65,6.68,6.68,0,0,1,1.29-2.7,1.85,1.85,0,0,1,1-.17,1.27,1.27,0,0,1,.87.32c.19.25.19,1.23,0,2.92a18.4,18.4,0,0,0-.2,2.16,1.39,1.39,0,0,0,.27.8.71.71,0,0,0,.5.25,2.91,2.91,0,0,0,.82-.4,2.85,2.85,0,0,1,1.28-.51,1.06,1.06,0,0,1,.75.59,1.37,1.37,0,0,1,.23.73,5.6,5.6,0,0,1-.37,1.25,29.25,29.25,0,0,0-.86,3.07,6,6,0,0,0-.18,2,3.8,3.8,0,0,0,.79,1.56c.19.27.34.43.44.46s.73-.23.91-.28a4.29,4.29,0,0,0,1-.34,18,18,0,0,0,2.93-1.91C199.79,153.14,200.4,153.14,200.41,154.14Z"/><path class="cls-6" d="M202.39,150.34c-.39.59-.58.95-.55,1.1a5.84,5.84,0,0,0,.7,1.82c.57,1.1,1.24,1.64,2,1.64a6.14,6.14,0,0,0,1.52-.37,4.24,4.24,0,0,0,.9-.46,17.29,17.29,0,0,0,1.5-1c.73-.57,1.37-.57,1.38.42s-1.23,1.6-1.87,2c-.39.26-.8.49-1.19.75a4.21,4.21,0,0,1-1.74.7,3.82,3.82,0,0,1-1.28,0,4.87,4.87,0,0,1-1.24-.67c-4.46-3-2.38-6.73-2.16-10.9a28.39,28.39,0,0,1,1.41-6.49,8.06,8.06,0,0,1,.49-1.35,7.33,7.33,0,0,1,2.16-2.31,18.05,18.05,0,0,1,3.56-2.49,2.23,2.23,0,0,1,1.47-.34,1.54,1.54,0,0,1,1.06,1.19c.45,1.91-.38,3.91-1,5.67a10.69,10.69,0,0,1-1,2.21c-.17.23-.66,1.1-1.46,2.62a13.61,13.61,0,0,1-1.7,2.74,19.92,19.92,0,0,0-1.5,1.63C203.27,149.13,202.79,149.76,202.39,150.34Zm.34-4.59c.07.07.21,0,.41-.2a6.36,6.36,0,0,0,.7-1,12.44,12.44,0,0,0,.82-1.6,12,12,0,0,0,.82-1.79s.26-.62.78-1.71a7.22,7.22,0,0,0,.78-2c0-.47-.22-.52-.67-.15a4.13,4.13,0,0,0-.82,1,13.55,13.55,0,0,1-1.18,1.86,2,2,0,0,0-.49,1.23,1.13,1.13,0,0,1-.37.89,4.12,4.12,0,0,0-.65,1.71C202.62,145,202.58,145.6,202.73,145.75Z"/><path class="cls-6" d="M229.16,153.46c0,.92-1.23,1.59-1.87,2a5.67,5.67,0,0,1-1.23.67c-.24.12-.47.29-.72.39a7.52,7.52,0,0,1-4.14.49,4,4,0,0,1-1.75-1.06,5,5,0,0,1-.86-1.1,4.61,4.61,0,0,1-.4-1.36c-.2-.91-.4-1.39-.6-1.41s-.32.17-.52.52a11.67,11.67,0,0,1-1.43,1.84,10.14,10.14,0,0,1-1.69,1.58,5,5,0,0,1-2.24.75,6.05,6.05,0,0,1-1.19,0,1,1,0,0,1-.55-.47,5.75,5.75,0,0,1-.54-3.66,9.14,9.14,0,0,1,1.35-4.15,12,12,0,0,1,1.77-2,13.24,13.24,0,0,1,2.4-1.77,5.87,5.87,0,0,1,2.79-.48c2.18,0,2.07-1.52,3.14-3.22,1.39-2.18,2.77-4.37,4.15-6.55.71-1.14,2.84-5.33,3.57-2.49.83,3.2-3.51,7.78-4.95,10.29-.51.91-.75,1.94-1.18,2.88-1.08,2.36-2.08,5.35-1.75,8a3,3,0,0,0,.61,1.71,1.71,1.71,0,0,0,1.36.52,6.31,6.31,0,0,0,1.61-.27l.43-.17a18.88,18.88,0,0,0,3.05-1.9C228.51,152.47,229.15,152.47,229.16,153.46Zm-11-6.67c-.08-.34-.39-.51-.95-.5a2.79,2.79,0,0,0-1.62.58,11,11,0,0,0-2.1,1.91,8.61,8.61,0,0,0-1.47,2.07,4.86,4.86,0,0,0-.37,2c0,1,.2,1.5.59,1.45s1.29-.81,2.46-2.3Q218.3,147.54,218.19,146.79Z"/><path class="cls-2" d="M163.52,19.65c.08.39-.22.53-.2,1a2.72,2.72,0,0,1-.25,1.11c-.12.24.2.32-.22.72s-.47.76-.76,1.09a6,6,0,0,1-.74.77,5,5,0,0,1-1,.75,9,9,0,0,1-1.1.6,7.42,7.42,0,0,1-1.2.59,5.76,5.76,0,0,1-1.43.12,10.55,10.55,0,0,1-2.45-.08,8.55,8.55,0,0,1-1.15-.5A13,13,0,0,1,151,24.05a4.9,4.9,0,0,1-1.58-3.45,6.31,6.31,0,0,1,.84-3.9c.24-.33.47-.62.68-1a4.75,4.75,0,0,1,1.36-1.32c.46-.36.77-.88,1.22-1.22a3.83,3.83,0,0,1,1.47-.36q.83-.16,1.65-.36a3.45,3.45,0,0,1,1.2,0,7.41,7.41,0,0,1,3.22,1c.38.28.74.37,1,.79s.33.84.61,1.2a3.65,3.65,0,0,1,.83,2,5.13,5.13,0,0,1,.11,1.06A4.79,4.79,0,0,0,163.52,19.65ZM162,17.94c0-.43-.05-.87-.07-1.3,0-.25-.12-.51-.13-.77s-.21-.33-.38-.56a1.66,1.66,0,0,0-.58-.4,2.6,2.6,0,0,0-1-.74,8.47,8.47,0,0,0-2-.63,7,7,0,0,0-2.77.37,2,2,0,0,0-1,.53c-.35.37-.34.23-.54.21s-1,1-1,1c-.29.74-.94,1.26-1.15,2a5.53,5.53,0,0,0-.1,2.22c.15.66,0,1.14.33,1.8a9.44,9.44,0,0,0,1.5,1.84.38.38,0,0,0,.45-.42c-.13-1.7.52-3.61.71-5.26a6.57,6.57,0,0,1,.41-2.27,1.55,1.55,0,0,1,.58-.61c.32-.14.63,0,1-.07s1.67,0,1.73.21c.63.18,1.31,0,1.86.46a2.78,2.78,0,0,1,.65,1,2.71,2.71,0,0,1-.18,2.34c-.12.25-.26.2-.51.27l-1.87.61.51.73s1.78,2.42,1.95,2.54.25,0,.25,0,.4,0,.44-.25c.14-.85.89-1.56,1.07-2.44A10.37,10.37,0,0,0,162,17.94Zm-3.25,5.6-.46-.64c-.42-.57-.84-1.15-1.28-1.71a5.75,5.75,0,0,0-.78-.92c-.11-.09-1-.56-1-.58s0,.79,0,1c0,.36-.22.68-.25,1.05-.05.57.09,1-.2,1.5s-.63.75-.58,1.27a5.8,5.8,0,0,0,3-.1c.1,0,.14.15.24.15a4.5,4.5,0,0,0,1.15-.22Zm.26-6.72a3.19,3.19,0,0,0-1.38-.55,13.32,13.32,0,0,0-1.41,0l-.59,0v1.87a1.23,1.23,0,0,0,.48.4.81.81,0,0,0,.52.12c.22,0,.17-.07.42,0a1.1,1.1,0,0,0,.59,0c.21,0,.54,0,.66,0s.4,0,.46-.23a1.91,1.91,0,0,1,.29-.45l.06-.25a1.32,1.32,0,0,0,0-.3c0-.3.08.05,0-.3S159.54,17.16,159,16.82Z"/></g></g></svg>