<svg xmlns="http://www.w3.org/2000/svg" viewBox="0 0 458.04 147.14"><defs><style>.cls-1,.cls-3{fill:#241c16;}.cls-2{fill:#f5d400;}.cls-2,.cls-3{fill-rule:evenodd;}</style></defs><g id="Calque_2" data-name="Calque 2"><g id="Calque_1-2" data-name="Calque 1"><path class="cls-1" d="M198.16,65.41l-2.39-10.25c1.53-.4,3.25-.77,5.18-1.1q2.49-.39,5.87-.75a75.34,75.34,0,0,1,7.57-.34,46.35,46.35,0,0,1,5.78.39,31.86,31.86,0,0,1,5.92,1.35A16,16,0,0,1,231,57.3a7.89,7.89,0,0,1,2.79,4q1,3.58,1.59,6.62c.4,2,.78,4,1.15,6s.73,4.06,1.09,6.22.85,4.63,1.45,7.42l2.38,5.77,5.88-.49,1.49,6.47-5.37,4.18H228.33l-2.89-5.48a11.31,11.31,0,0,1-3.18,2.54,22.94,22.94,0,0,1-3.79,1.69,23.73,23.73,0,0,1-3.53,1,15.14,15.14,0,0,1-2.44.3H192.68a27.67,27.67,0,0,1-2.83-4.18,12.49,12.49,0,0,1-1.35-6.18,22.72,22.72,0,0,1,.55-4.83,25.91,25.91,0,0,1,1.59-4.92A23.9,23.9,0,0,1,193.18,79a14.06,14.06,0,0,1,3.39-3.33l23.9-3.39-.6-5.27-3.59-5.68Zm5.18,24.65a8.28,8.28,0,0,0,2.59,6.72q2.69-.19,5.37-.65t5.08-1c1.6-.4,3-.82,4.28-1.25s2.26-.81,3-1.14l-2-13.55L206,82.94A16.59,16.59,0,0,0,203.34,90.06Z"/><path class="cls-1" d="M307.49,62.62c0,3.46,0,7,.05,10.56s0,7,0,10.31V91.6l-12.25,12.25H270.45l-11.26-9.36V62.23l-6.87-3.89,2.49-4.58h18.72l.1,36.15,3.49,7.27,11.35-1.1,4.18-7.37.1-27.18c-.2-.13-.51-.37-.94-.7s-.87-.68-1.3-1l-1.19-1a6.16,6.16,0,0,0-.75-.55V53.76h18.92Z"/><path class="cls-1" d="M337.31,84.18q0,6.63.05,12.5l4.38,1.69c0,.86,0,1.71-.05,2.54s-.05,1.71-.05,2.64H322.92c0-1,0-2.37.05-4.13s.07-3.74.1-5.93.05-4.49.05-6.92V61.43L318,58.24l2.39-4.48h15.73l.6,9.16A63.52,63.52,0,0,1,343,57.75a38.18,38.18,0,0,1,5.83-3.54,13.26,13.26,0,0,1,5.82-1.54,14.85,14.85,0,0,1,4.68.69,23.83,23.83,0,0,1,3.69,1.55,16.82,16.82,0,0,1,2.64,1.69l1.44,1.15L363.35,68.4l-13-3a13.38,13.38,0,0,0-3.33,1c-1.3.56-2.59,1.18-3.89,1.84s-2.47,1.33-3.53,2l-2.39,1.5Q337.26,77.57,337.31,84.18Z"/><path class="cls-1" d="M390.28,93.24c2.22,2.82,5.83,4.37,10.8,4.63a13.25,13.25,0,0,0,5.78-4q2.38-2.79,5.18-6.47l11.15,4.08a8.34,8.34,0,0,1-1.39,2.74,27.23,27.23,0,0,1-3.34,4,26.47,26.47,0,0,1-4.58,3.64,10.15,10.15,0,0,1-4.93,1.69H384.56q-2.6,0-5.43-3.14a31.79,31.79,0,0,1-5-7.76,41.23,41.23,0,0,1-3.19-9.86,21.8,21.8,0,0,1,.1-9.51c.34-1.13.9-2.66,1.7-4.58a32,32,0,0,1,3.18-5.83,27.85,27.85,0,0,1,4.88-5.42,15.65,15.65,0,0,1,6.87-3.39,64.42,64.42,0,0,1,6.47-.8,74.42,74.42,0,0,1,7.62-.19,52.5,52.5,0,0,1,7.17.64,12.32,12.32,0,0,1,5,1.75,17.38,17.38,0,0,1,3.14,3.13,26.19,26.19,0,0,1,3,4.73,30.86,30.86,0,0,1,2.19,5.78,26.3,26.3,0,0,1,.95,6.17l-6.67,5.48-30.07,1.69A19.38,19.38,0,0,0,390.28,93.24Zm17.13-22.9c-.43-1.56-1-3.18-1.6-4.88a39,39,0,0,0-2-4.53c-.69-1.33-1.34-2-1.94-2.09a8.94,8.94,0,0,0-2.54.2q-1.54.3-3.18.75c-1.1.3-2.15.63-3.14,1a18.08,18.08,0,0,0-2.39,1A7.46,7.46,0,0,0,389.24,64a26.91,26.91,0,0,0-1.3,3.38,29.8,29.8,0,0,0-.94,3.89,20.25,20.25,0,0,0-.35,3.58l21.5-1.39A26.24,26.24,0,0,0,407.41,70.34Z"/><path class="cls-1" d="M451,95.18l7.07,2.1v6.27H437.13l.2-61.44-7.67-3.48L431,33.85h20Z"/><polygon class="cls-2" points="47.82 11.57 64.1 6.03 70.78 0.19 108.52 4.82 130.81 11.57 136.04 25.43 139.43 22.78 137.15 29.05 137.66 41.64 137.81 75.19 132.7 80.11 128.4 109.66 127.17 136.46 86.71 143.29 71.9 144.35 64.1 146.67 10.34 141.72 7.36 130.51 6.17 104.15 0 102.48 2.46 99.79 1.72 72.03 5.8 65.35 11.39 12.45 47.82 11.57"/><path class="cls-3" d="M71.06,0c9.24.06,18.61,1.39,29,1.39,4.72,0,10,.05,15,.37,6.26.41,13-.69,16.53,2.42a12.84,12.84,0,0,1,1.67,2.22,15.85,15.85,0,0,1,1.48,2.33c1.83,4.33,1.38,10.41,1.49,16.61-.08,0-.09,0-.1.09-.89,1.48-2.56,2.17-3.89,3.16-9.49,7-18.88,13.29-28.69,20.51-5.25,3.87-10.81,8-16.06,12.07-2.54,2-5.51,3.7-8.26,5.85A19.52,19.52,0,0,1,75,69.9c-1.59.7-3.42,2-4.92,2-3.73.2-3.66-2.6-4.36-5.75-.16-.73-.2-1.8-.37-2.79A7.85,7.85,0,0,1,65,60.71c.43-1.26,2.27-1.28,4.08-1.76a19.86,19.86,0,0,0,10.12-6.32,31,31,0,0,0,4.27-5.19,26.16,26.16,0,0,0,1.76-4.74,29.1,29.1,0,0,0,1.3-5.2A33.24,33.24,0,0,0,86.19,29c-.6-2.57-2.28-5.23-3.62-7.52-3.48-6-6.8-11.4-10.21-17.63-.47-.87-2-2.85-1.58-3.62A.7.7,0,0,1,71.06,0Z"/><path class="cls-3" d="M64.1,6a5.55,5.55,0,0,1-1.86,2.42c-.71.71-1.43,1.41-2.13,2.13C56.38,15.33,51.9,19.34,48,24c-.81,2.31-1.73,4.57-2.51,7s-2,4.6-2.41,7.06c-.5,2.77.28,5.89.09,9.09,0,.08.09.1.09.19a33.3,33.3,0,0,0,2.79,4.55,30.93,30.93,0,0,0,3,4.27c2.55,2.92,6.38,4.67,9.47,7.24,2.26,1.89,3.32,4.12,3.9,7.61a34.31,34.31,0,0,1,.27,3.81c.06,1.21.21,2.66-.55,3.52A3.18,3.18,0,0,1,59.46,78a13.41,13.41,0,0,1-2.32-1,11.57,11.57,0,0,1-2.23-3.15c-2-3.27-4.53-6.37-6.32-9.57a32.84,32.84,0,0,0-4.26-6.4c-.76-.82-1.66-1.82-2.61-2.69a15.44,15.44,0,0,0-2.87-2.42c-2-.94-6-1.55-8.64-1.76a22.09,22.09,0,0,0-7.52,1.11,29.82,29.82,0,0,0-5.29,3c-1.78,1.11-3.83,2-5.38,3.16s-2.83,3.15-4.18,4.73c-.67.8-1.43,1.57-2,2.42s-1,2-2.13,2.22c-.47-2-.19-4.12-.19-6.22,0-6.09-.88-12.21-1.11-18.56-.16-4.28-.22-8.53-.28-12.63-.07-4.31-.16-8.54.09-12.62C2.46,13,4.49,8.75,7.57,6.77,11.84,4,20.18,4.88,26.78,5.2c8.11.38,16.57-.26,25,.18,2.12.12,4.23.14,6.31.19A22.6,22.6,0,0,1,64.1,6Z"/><path class="cls-3" d="M137.81,75.19a9.69,9.69,0,0,1-3.62,1.21c-3.75.93-7.8,1.94-11.88,2.6-2.71.43-5.47.88-8.27,1.39s-5.55.72-8.35,1.21c-5.37.94-10.61,2.4-16.25,3.06a82.56,82.56,0,0,1-9.28.37c-4.44,0-9.82.55-11.51-2.32a14.45,14.45,0,0,1,.09-4.46c.41-1.36,1.92-2.57,3-3.52a30.73,30.73,0,0,1,3.62-2.88c2.84-.51,7.23-1.73,10.21-1a13.72,13.72,0,0,1,2.6,1.3c.9.42,1.85.72,2.69,1.11a34,34,0,0,0,5.29,2.41c1.87.49,5.21.5,7.43.75a17.44,17.44,0,0,0,2.32.27,10.6,10.6,0,0,0,3.53-1.39,67.88,67.88,0,0,0,9.28-5.2c1.75-2.66,3.42-5.57,5.11-8.54a66.31,66.31,0,0,0,4.64-8.91c1.87-4.86,3.92-9.63,5.57-14.76.76-2.36,2-4.15,2.69-6.68a9.88,9.88,0,0,1,.46-2.14c.51-.81,2.16-1.22,3-1.58,1.54-.68,1,1.83.93,2.23a83.49,83.49,0,0,0-.46,9.28,90.22,90.22,0,0,1-1,12c-.52,4-.63,8.18-.93,12.07S138.36,71.41,137.81,75.19Z"/><path class="cls-3" d="M63.36,95.8a10.63,10.63,0,0,1-5.48-.09,33.55,33.55,0,0,1-3.62-1.86c-3.54-1.79-6.44-4.26-10.12-6a66.69,66.69,0,0,0-7.71-3.16c-4-1.34-8.92-3.19-13.83-1.58a15.56,15.56,0,0,0-4.91,3.25A119.11,119.11,0,0,0,5.06,98c-.88.51-1.32,2-2.6,1.76-.6-.88-.44-2.12-.46-3.25-.12-6-.09-11.63-.37-17.82,0-1-.15-2.13-.19-3.44,0-1.14-.31-3,.28-3.25A.68.68,0,0,1,2,71.85c4.76.3,9.55,1,14.29,1.67,4.31.58,8.72,1,13,1.67,6.36,1,12.62,1.87,18.94,3.06,3.6.68,7.8.7,9.65,3.07.71.9,1,2.41,1.49,3.62s1.12,2.39,1.57,3.43C62,90.78,63.28,93,63.36,95.8Z"/><path class="cls-3" d="M132.7,80.11c1-.32.65,2.11.65,3.06,0,3.42-.07,6.85,0,10.68.09,4.55.52,9.17.84,13.46a176,176,0,0,1,.09,20.42c-.09,2.48.28,5.34-.37,7.52-.27.89-.87,1.79-1.3,2.79-1.14,2.62-3.37,6-5.94,7.05-1.75.72-4,.47-6.5.47s-4.77-.1-7-.19c-4.84-.2-10-.09-13.83-.09-4.61,0-9.17-.38-13.74-.38s-9.31-.24-13.74-.55c-1.08-2.28-1-5.21-1.3-8.08-.61-5.81-1.7-10.48-2.13-16.52-.18-2.36-.26-7.07,1.3-7.8,1-.46,2.51.12,3.61.56s2.44.74,3.44,1.11c6.45,2.39,13.31,5.17,19.77,7.34,6.84,2.29,13.53,4.58,20.33,6.86,1.13.38,2.3.78,3.44,1.12s2.24,1.05,3.43.65c.06-1.71-.85-3.29-1.48-4.83q-1.87-4.55-3.81-9.1c-.65-1.52-1.16-3.12-1.86-4.55a28.3,28.3,0,0,0-3.34-4.91,31.75,31.75,0,0,0-4.09-4.18c-7.39-3.42-16.49-.41-23.85,1.21A35.4,35.4,0,0,0,76,106.38c-2.39-.13-3.57.84-5.85,1.3-1.54.31-4,.5-4.82-.46s-.29-4-.1-5.39a34.77,34.77,0,0,1,2.6-9.37c.55-1.28,1.17-3.49,1.86-4.09a9.85,9.85,0,0,1,2.41-.93,12.09,12.09,0,0,1,2.6-.74,14.28,14.28,0,0,1,4.46,1C83,89.08,86.66,91.26,90,93a120.3,120.3,0,0,0,11,5.2,18.35,18.35,0,0,0,4,1.39,15,15,0,0,0,9.28-1.39c1.71-.91,3.31-2.65,4.92-4.08s3.11-3.1,4.55-4.46C126.89,86.68,129.62,83.33,132.7,80.11Z"/><path class="cls-3" d="M58.72,104.53a96.85,96.85,0,0,1,3.52,12.9c.32,1.41.93,2.89.65,4.36-.92.73-2.22.33-3.25.28-15.06-.71-30.44-1.35-45.2-2.41-1.17-.08-2.37-.13-3.53-.19s-2.16-.44-3.06.19c0,1.37,1,2.44,1.67,3.62s1.26,2.35,1.85,3.53a56.67,56.67,0,0,0,3.81,7c1.18,1.67,3.59,3.24,5.57,4.36a23.08,23.08,0,0,0,3.06,1.58,17.51,17.51,0,0,0,3.71,1.21,28,28,0,0,0,3.72.09,53.49,53.49,0,0,0,5.57-.19,16.34,16.34,0,0,0,3.25-1.2c1-.41,2.09-.92,3.06-1.3,5.54-2.2,8.4-5.78,13.46-8.63.83-.47,2.34-1.48,3-1.4.82.11,1.17,1.24,1.49,2.23s.8,1.86,1,2.6a43.82,43.82,0,0,1,1.11,6.78c.27,2.08,1.09,4.54.93,6.77-1.63.57-3.39.12-5.11.09s-3.67-.18-5.57-.18c-10.93,0-22.9.59-33.23.56-1.18,0-2.45-.19-3.71-.19-2.33,0-4,0-5.57-.74a11.54,11.54,0,0,1-3-2.23c-1.67-1.67-3.26-2.91-3.53-5.85-.24-2.63.23-5.7.37-8.63.33-6.81.52-14.37.84-21.45a10.51,10.51,0,0,1,.55-3.9A25.81,25.81,0,0,1,15,105.36c2.68.72,5.26,1.58,7.8,2.51,5.16,1.89,10.59,4.31,16.53,4.17,3.92-.09,7.11-2.37,9.93-4.08,1.13-.68,2.34-1.39,3.53-2.14C54.54,104.72,56.56,102.47,58.72,104.53Z"/></g></g></svg>