<svg xmlns="http://www.w3.org/2000/svg" viewBox="0 0 678.92 91.91"><defs><style>.cls-1{fill:#13322b;stroke:#13322b;stroke-miterlimit:10;stroke-width:4px;}.cls-2{fill:#b2d0a5;}</style></defs><g id="Calque_2" data-name="Calque 2"><g id="Calque_1-2" data-name="Calque 1"><rect class="cls-1" x="2" y="2" width="674.92" height="87.91" rx="43.96"/><path class="cls-2" d="M50.44,35.08V29.71h22v5.37H64.52V59.63H58.45V35.08Z"/><path class="cls-2" d="M82.34,49.6v10H76.27V29.71H87.88q10.56,0,10.56,9.86,0,5.85-4.4,8.62l4.27,11.44H91.67l-3.48-10Zm8.84-6.51a5.37,5.37,0,0,0,1.06-3.48,5,5,0,0,0-1.12-3.43,4.09,4.09,0,0,0-3.24-1.27H82.34v9.5H88A3.85,3.85,0,0,0,91.18,43.09Z"/><path class="cls-2" d="M124.25,56.44q-2.79,3.72-9.61,3.72T105,56.44q-2.79-3.7-2.79-11.63T105,33q2.79-3.86,9.62-3.85T124.25,33Q127,36.88,127,44.81T124.25,56.44Zm-14.48-3.87q1.31,2.31,4.87,2.31t4.86-2.31c.86-1.54,1.3-4.12,1.3-7.74s-.44-6.26-1.32-7.9-2.5-2.46-4.84-2.46-4,.82-4.84,2.46-1.32,4.27-1.32,7.9S108.91,51,109.77,52.57Z"/><path class="cls-2" d="M138,49.65q0,5.24,5.33,5.23t5.32-5.23V29.71h6.07v19.8q0,5.51-2.83,8.08t-8.56,2.57q-5.73,0-8.56-2.57T132,49.51V29.71H138Z"/><path class="cls-2" d="M177.2,29.71h6.38l-7,29.92H165.41l-6.95-29.92h6.38L170,54.35h2Z"/><path class="cls-2" d="M187.54,59.63V29.71H206.9V35H193.62v7h10.64v5.19H193.62v7.17H206.9v5.28Z"/><path class="cls-2" d="M218,49.6v10h-6.07V29.71h11.62q10.56,0,10.56,9.86,0,5.85-4.4,8.62L234,59.63h-6.64l-3.48-10Zm8.84-6.51a5.37,5.37,0,0,0,1.06-3.48,5,5,0,0,0-1.12-3.43,4.08,4.08,0,0,0-3.23-1.27H218v9.5h5.63A3.85,3.85,0,0,0,226.83,43.09Z"/><path class="cls-2" d="M254.69,49.65q0,5.24,5.32,5.23t5.32-5.23V29.71h6.08v19.8q0,5.51-2.84,8.08c-1.89,1.71-4.75,2.57-8.56,2.57s-6.67-.86-8.56-2.57-2.84-4.41-2.84-8.08V29.71h6.08Z"/><path class="cls-2" d="M277.65,59.63V29.71h10.26l7.21,24.64h.44V29.71h6.07V59.63h-10L284.17,35h-.44V59.63Z"/><path class="cls-2" d="M323.9,49.6v10h-6.08V29.71h11.62q10.56,0,10.56,9.86,0,5.85-4.4,8.62l4.27,11.44h-6.65l-3.47-10Zm8.84-6.51a5.43,5.43,0,0,0,1.06-3.48,5,5,0,0,0-1.13-3.43,4.05,4.05,0,0,0-3.23-1.27H323.9v9.5h5.63A3.85,3.85,0,0,0,332.74,43.09Z"/><path class="cls-2" d="M345.1,59.63V29.71h19.36V35H351.18v7h10.64v5.19H351.18v7.17h13.28v5.28Z"/><path class="cls-2" d="M380.48,50.92h-4.93v8.71h-6.07V29.71h11q10.65,0,10.65,10.39,0,5.24-2.71,8T380.48,50.92Zm-4.93-5.19h4.89q4.53,0,4.53-5.63a5.84,5.84,0,0,0-1.1-4,4.42,4.42,0,0,0-3.43-1.21h-4.89Z"/><path class="cls-2" d="M401.47,49.6v10H395.4V29.71H407q10.56,0,10.56,9.86,0,5.85-4.4,8.62l4.27,11.44H410.8l-3.48-10Zm8.84-6.51a5.37,5.37,0,0,0,1.06-3.48,5.06,5.06,0,0,0-1.12-3.43A4.09,4.09,0,0,0,407,34.91h-5.54v9.5h5.63A3.85,3.85,0,0,0,410.31,43.09Z"/><path class="cls-2" d="M422.67,59.63V29.71H442V35H428.75v7h10.64v5.19H428.75v7.17H442v5.28Zm3.53-36.91,11.08-4.67,1.81,5.28-11.44,3.48Z"/><path class="cls-2" d="M456.25,34.47q-4.8,0-4.8,3.16a2.41,2.41,0,0,0,1.19,2.16,30.21,30.21,0,0,0,5.57,2.15,15.35,15.35,0,0,1,6.13,3.2c1.18,1.18,1.76,3,1.76,5.47q0,4.71-2.86,7.13a11.14,11.14,0,0,1-7.48,2.42,41.76,41.76,0,0,1-8.4-1l-1.58-.31.61-4.71a72.8,72.8,0,0,0,9,.79q4.66,0,4.67-3.87a2.58,2.58,0,0,0-1.08-2.2,15.33,15.33,0,0,0-4.29-1.72c-3.41-1-5.8-2.12-7.2-3.45a7.35,7.35,0,0,1-2.09-5.57q0-4.49,2.73-6.68a11.57,11.57,0,0,1,7.48-2.2,49.29,49.29,0,0,1,8.27.88l1.59.3-.49,4.8Q458.81,34.47,456.25,34.47Z"/><path class="cls-2" d="M471,59.63V29.71h19.36V35H477.06v7h10.65v5.19H477.06v7.17h13.29v5.28Z"/><path class="cls-2" d="M495.36,59.63V29.71h10.25l7.22,24.64h.44V29.71h6.07V59.63h-10L501.87,35h-.44V59.63Z"/><path class="cls-2" d="M523.17,35.08V29.71h22v5.37h-7.92V59.63h-6.07V35.08Z"/><path class="cls-2" d="M544.86,59.63l6.73-29.92h11.53l6.73,29.92h-6.07l-1.19-5.41H552.12l-1.19,5.41Zm11.44-24.9-3,14.21h8.18l-3-14.21Z"/><path class="cls-2" d="M573.86,59.63V29.71h10.25l7.21,24.64h.44V29.71h6.08V59.63h-10L580.37,35h-.44V59.63Z"/><path class="cls-2" d="M601.67,35.08V29.71h22v5.37h-7.92V59.63h-6.08V35.08Z"/></g></g></svg>