<svg xmlns="http://www.w3.org/2000/svg" viewBox="0 0 806.05 1150.79"><defs><style>.cls-1,.cls-3{fill:#13322b;}.cls-2{fill:#fff;}.cls-3,.cls-4{fill-rule:evenodd;}.cls-4{fill:#88b04b;}</style></defs><g id="Calque_2" data-name="Calque 2"><g id="Calque_1-2" data-name="Calque 1"><polygon class="cls-1" points="25.18 788.58 24.79 1021.21 25.02 1097.32 30.91 1120.06 45.91 1138.06 72.62 1150.79 184.91 1147.06 328.91 1144.06 467.91 1145.06 608.91 1143.06 717.91 1144.94 747.91 1145.06 760.91 1135.06 767.77 1124.58 767.59 1104.66 764.47 772.15 447.65 772.15 379.91 814.06 184.91 825.06 25.18 788.58"/><path class="cls-2" d="M224.32,1048l13.48-1.62,5.11,14.87-8.83,7H191.77l-13-29.06L112,1038.9l-4.88,13.25,10.23,16H73.21l61.14-137.86-10-24.87h42.31Zm-106.94-25.1,54.16-1.63-26.73-64.16Z"/><path class="cls-2" d="M371.7,972.64q0,12.09.12,24.65t.12,24.06v18.94l-28.6,28.6H285.23L259,1047V971.71l-16-9.06,5.81-10.7h43.7l.23,84.39,8.14,17,26.5-2.56,9.77-17.2.23-63.46c-.47-.31-1.2-.86-2.21-1.63s-2-1.59-3-2.44l-2.79-2.33a13.58,13.58,0,0,0-1.74-1.28V952H371.7Z"/><path class="cls-2" d="M441.33,1023q.12,15.46.12,29.18l10.23,3.95q0,3-.12,5.93t-.12,6.16h-43.7c0-2.33,0-5.54.12-9.65s.15-8.72.23-13.83.11-10.5.11-16.16v-58.7l-11.85-7.44L401.93,952h36.73l1.39,21.39a149.49,149.49,0,0,1,14.65-12.09A87.88,87.88,0,0,1,468.3,953a31,31,0,0,1,13.6-3.6A34.51,34.51,0,0,1,492.82,951a56.51,56.51,0,0,1,8.61,3.61,38.09,38.09,0,0,1,6.16,4c1.62,1.32,2.75,2.21,3.37,2.67l-8.84,24.88-30.22-7a31.65,31.65,0,0,0-7.79,2.44q-4.53,2-9.06,4.3t-8.26,4.65L441.22,994Q441.22,1007.52,441.33,1023Z"/><path class="cls-2" d="M565,1044.13q7.79,9.88,25.22,10.81a31.18,31.18,0,0,0,13.49-9.3q5.58-6.51,12.08-15.11l26,9.53c-.15,1.24-1.24,3.37-3.25,6.39a61.84,61.84,0,0,1-7.79,9.3,60.67,60.67,0,0,1-10.69,8.49,23.64,23.64,0,0,1-11.51,4h-57q-6,0-12.67-7.32a74.33,74.33,0,0,1-11.74-18.14,95.05,95.05,0,0,1-7.44-23,50.65,50.65,0,0,1,.24-22.2,112.44,112.44,0,0,1,4-10.7,76.79,76.79,0,0,1,7.44-13.6,64.66,64.66,0,0,1,11.39-12.67,36.41,36.41,0,0,1,16-7.9A151.56,151.56,0,0,1,574,950.79a169.75,169.75,0,0,1,17.78-.46,121.19,121.19,0,0,1,16.74,1.51q7.78,1.27,11.74,4.07a40.29,40.29,0,0,1,7.33,7.32,61.67,61.67,0,0,1,7,11,73.15,73.15,0,0,1,5.11,13.48,61.55,61.55,0,0,1,2.21,14.42L626.27,1015l-70.21,4Q557.22,1034.24,565,1044.13Zm40-53.47q-1.5-5.46-3.71-11.39a94.57,94.57,0,0,0-4.65-10.58q-2.45-4.65-4.54-4.88a21.11,21.11,0,0,0-5.92.46q-3.61.71-7.44,1.75t-7.33,2.32a42.76,42.76,0,0,0-5.58,2.44,18.27,18.27,0,0,0-3.25,5.12,64.23,64.23,0,0,0-3,7.9,70.17,70.17,0,0,0-2.21,9.07,49.34,49.34,0,0,0-.82,8.37L606.74,998A65.86,65.86,0,0,0,605,990.66Z"/><path class="cls-2" d="M706.7,1048.66l16.51,4.88v14.65H674.39l.47-143.44L657,916.62l3-11.16H706.7Z"/><polygon class="cls-3" points="273 66.06 365.93 34.45 404.1 1.06 619.54 27.53 746.76 66.06 776.67 145.2 796 130.06 783 165.85 785.91 237.72 786.74 429.27 757.59 457.35 733 626.06 726 779.06 495 818.06 410.47 824.08 365.93 837.35 59 809.06 42 745.06 35.25 594.61 0 585.06 14.05 569.7 9.82 411.24 33.11 373.07 65 71.06 273 66.06"/><path class="cls-4" d="M405.69,0C458.4.34,512,8,571,8c26.94,0,56.82.28,85.32,2.12,35.76,2.31,74.37-4,94.35,13.78,3.4,3,6.38,8,9.54,12.71,3,4.36,6.62,8.86,8.47,13.26,10.43,24.75,7.85,59.42,8.48,94.85-.44-.1-.5.21-.53.53-5.13,8.4-14.66,12.39-22.25,18-54.15,40.08-107.75,75.87-163.77,117.12-30,22.07-61.71,45.69-91.67,68.89-14.53,11.25-31.46,21.1-47.18,33.39-6.86,5.36-13.95,12.05-23.83,16.43-9.12,4-19.53,11.21-28.09,11.66-21.35,1.12-20.94-14.83-24.91-32.85-.91-4.15-1.17-10.24-2.12-15.9s-2.7-12.08-1.59-15.36c2.43-7.22,12.94-7.3,23.3-10.07,25.67-6.86,41.3-18.56,57.76-36,9-9.54,19-20.13,24.38-29.68,4-7,6.94-17,10.07-27,2.94-9.43,6.25-19.81,7.43-29.69,1.46-12.28.54-37.37-2.13-48.76-3.45-14.69-13.05-29.85-20.67-42.92-19.86-34.1-38.85-65.09-58.29-100.69-2.68-4.92-11.72-16.27-9-20.67A3.81,3.81,0,0,1,405.69,0Z"/><path class="cls-4" d="M365.93,34.45c-1.45,6.08-6.71,9.89-10.6,13.77-4.05,4.07-8.18,8.07-12.18,12.2-21.28,27.12-46.83,50-68.91,76.31-4.63,13.16-9.86,26.1-14.3,39.74-4.3,13.19-11.26,26.24-13.79,40.28-2.85,15.81,1.59,33.63.53,51.93.11.43.54.54.54,1.07,4.42,10.24,10.76,17.74,15.89,26,4.8,7.71,9.94,16.37,16.95,24.38,14.61,16.64,36.45,26.64,54.06,41.33,12.95,10.8,19,23.54,22.26,43.46,1.08,6.52,1.26,14.25,1.6,21.72.3,6.92,1.17,15.19-3.18,20.14-5.34,2.58-11,.34-15.36-1.59s-9.81-3.36-13.25-5.83c-4.77-3.43-8.66-11.38-12.72-18C302,402.63,287.59,385,277.42,366.71c-6.92-12.43-14.2-25.48-24.37-36.57-4.29-4.65-9.47-10.39-14.85-15.36-4.89-4.52-11.16-11.25-16.42-13.78-11.2-5.38-34-8.88-49.28-10.07-12.92-1-32.3,2.64-42.94,6.36-10.4,3.64-20.57,11-30.21,16.95-10.17,6.32-21.88,11.19-30.74,18-9.07,7-16.17,18-23.83,27-3.87,4.55-8.21,8.92-11.67,13.78-3.28,4.62-5.76,11.67-12.18,12.71-2.65-11.43-1.06-23.57-1.06-35.51,0-34.82-5-69.72-6.35-106-.93-24.43-1.23-48.68-1.61-72.07-.38-24.6-.88-48.75.54-72.07C14,74.1,25.62,50,43.19,38.66c24.39-15.65,72-10.78,109.71-9,46.27,2.2,94.56-1.51,142.56,1.06,12.08.66,24.11.77,36,1.06C343,32.07,354.88,31.06,365.93,34.45Z"/><path class="cls-4" d="M786.74,429.27c-5.87,4.37-13.52,5.11-20.67,6.89-21.41,5.33-44.54,11.08-67.84,14.84-15.47,2.49-31.22,5.05-47.17,7.95-15.58,2.82-31.72,4.08-47.7,6.88-30.64,5.4-60.53,13.71-92.74,17.48-16.28,1.91-34.09,2.12-53,2.13-25.31,0-56.08,3.15-65.72-13.25-.63-9.13-1.42-19,.54-25.44,2.35-7.78,11-14.69,17-20.14a172.67,172.67,0,0,1,20.67-16.43c16.2-2.9,41.26-9.88,58.29-5.83,5.35,1.28,9.44,4.89,14.83,7.42,5.11,2.39,10.53,4.14,15.37,6.36,9.7,4.47,19.78,11.05,30.21,13.77,10.64,2.78,29.72,2.86,42.39,4.24,4.5.5,9.45,1.79,13.25,1.59,6.07-.32,14.08-4.86,20.14-8,18.4-9.39,37.24-18.14,53-29.68,10-15.21,19.51-31.83,29.15-48.76,9.25-16.25,19.43-32.56,26.5-50.88,10.69-27.73,22.37-55,31.79-84.26,4.34-13.47,11.44-23.7,15.36-38.17,1.13-4.12.8-9.21,2.66-12.18,2.88-4.65,12.33-7,17-9,8.79-3.86,5.57,10.47,5.3,12.72-2.07,16.75-2.64,38-2.64,53,0,25.74-3.11,47-5.84,68.36-2.92,23-3.57,46.69-5.3,68.9C789.71,382.77,789.91,407.65,786.74,429.27Z"/><path class="cls-4" d="M361.7,546.92c-7.79,2.53-22.92,2.47-31.28-.53-7-2.52-13.68-7.07-20.67-10.6C289.58,525.57,273,511.49,252,501.34a384.94,384.94,0,0,0-44-18c-22.69-7.65-51-18.18-79-9-10.51,3.44-19.27,11.13-28.07,18.54-25.25,21.24-50.51,42.54-72.08,66.78-5,2.91-7.54,11.19-14.84,10.07-3.43-5-2.52-12.12-2.65-18.55-.68-34.43-.51-66.4-2.12-101.75-.25-5.47-.83-12.15-1.07-19.61-.2-6.52-1.75-17.37,1.61-18.55a3.77,3.77,0,0,1,1.58-1.06c27.22,1.74,54.54,5.88,81.62,9.54,24.61,3.33,49.74,5.82,74.2,9.54,36.29,5.51,72.06,10.68,108.11,17.48,20.56,3.89,44.52,4,55.11,17.49,4,5.15,5.57,13.77,8.48,20.67s6.42,13.64,9,19.6C353.86,518.28,361.25,530.76,361.7,546.92Z"/><path class="cls-4" d="M757.59,457.35c5.52-1.82,3.71,12,3.71,17.49,0,19.52-.43,39.09,0,60.95.51,26,3,52.35,4.77,76.85,3,40.2,2,75.85.53,116.59-.53,14.14,1.6,30.46-2.13,42.92-1.52,5.1-5,10.19-7.41,15.9-6.51,15-19.22,34.23-33.92,40.28-10,4.11-23,2.64-37.1,2.64-14.47,0-27.24-.53-39.75-1.06-27.58-1.16-56.92-.53-79-.53-26.27,0-52.35-2.12-78.42-2.12-26.66,0-53.12-1.38-78.44-3.18-6.14-13-5.7-29.75-7.41-46.11-3.48-33.17-9.7-59.82-12.2-94.34-1-13.46-1.43-40.33,7.43-44.51,5.5-2.6,14.35.7,20.66,3.18,7,2.75,13.92,4.25,19.61,6.36,36.82,13.64,76,29.49,112.88,41.87,39,13.07,77.26,26.18,116,39.22,6.47,2.15,13.14,4.4,19.61,6.35,6.25,1.86,12.82,6,19.61,3.7.35-9.76-4.87-18.75-8.48-27.55q-10.65-25.95-21.73-51.93c-3.68-8.69-6.6-17.83-10.6-26-4.95-10.08-12.26-19.54-19.08-28.09a186.76,186.76,0,0,0-23.32-23.84c-42.21-19.54-94.17-2.33-136.21,6.89-19.43,4.26-38.9,9.87-53.51,18-13.66-.73-20.38,4.81-33.39,7.41-8.82,1.77-22.92,2.88-27.55-2.64s-1.66-22.7-.54-30.75a196.54,196.54,0,0,1,14.84-53.52c3.13-7.3,6.64-19.88,10.6-23.31,2.54-2.21,9.87-4,13.78-5.31,4.29-1.43,10.56-4,14.84-4.23,7.24-.33,17.79,3.16,25.44,5.83,22.29,7.73,42.92,20.18,62,30.21,20.35,10.69,40.08,20.5,62.53,29.68,7.5,3.06,15.7,7,22.78,7.94,19.56,2.7,37.7.22,53-7.94,9.79-5.23,18.9-15.14,28.09-23.32s17.74-17.72,26-25.44C724.41,494.84,740,475.74,757.59,457.35Z"/><path class="cls-4" d="M335.2,596.74c8.65,22.6,14.26,47.76,20.14,73.66,1.82,8,5.3,16.49,3.71,24.91-5.25,4.15-12.67,1.88-18.56,1.59-86-4.09-173.77-7.73-258.08-13.77-6.63-.48-13.53-.74-20.14-1.07-5.79-.28-12.33-2.54-17.48,1.07.18,7.81,6,13.91,9.54,20.67s7.21,13.39,10.59,20.14c6.9,13.73,13.57,28.18,21.73,39.74,6.72,9.53,20.5,18.49,31.79,24.91,5.18,2.95,11.31,6.64,17.49,9,6.76,2.6,13.82,5.83,21.19,6.88,6,.87,14,.62,21.21.53,10.19-.12,22.31.12,31.79-1.06,5.71-.7,12-4.34,18.56-6.88,6-2.35,12-5.23,17.48-7.42,31.67-12.54,48-33,76.85-49.28,4.71-2.66,13.36-8.41,16.95-8,4.68.6,6.67,7.08,8.49,12.72,1.9,5.87,4.58,10.61,5.83,14.84,3.63,12.3,4.57,24.85,6.35,38.68,1.55,11.9,6.23,25.92,5.3,38.69-9.29,3.23-19.33.69-29.14.52-10.39-.17-21-1.06-31.81-1.06-62.38,0-130.72,3.37-189.72,3.18-6.75,0-14-1.06-21.2-1.06-13.28,0-23,.15-31.79-4.25a64.81,64.81,0,0,1-17-12.71c-9.54-9.53-18.58-16.61-20.14-33.39-1.39-15,1.32-32.54,2.12-49.29,1.85-38.88,2.94-82,4.77-122.41.34-7.53.06-15.68,3.18-22.27,18.3-1.47,34.89,2.76,50.35,6.9,15.29,4.08,30,9,44.53,14.3,29.42,10.81,60.41,24.64,94.33,23.85,22.41-.52,40.63-13.58,56.71-23.32,6.45-3.91,13.35-8,20.13-12.19C311.38,597.86,322.91,585,335.2,596.74Z"/></g></g></svg>