<svg xmlns="http://www.w3.org/2000/svg" viewBox="0 0 156.24 87.47"><defs><style>.cls-1,.cls-4{fill:#88b04b;}.cls-1{fill-rule:evenodd;}.cls-2{fill:#13322b;}.cls-3{fill:#686864;}.cls-5{fill:#d0d0ce;}</style></defs><g id="Calque_2" data-name="Calque 2"><g id="Calque_1-2" data-name="Calque 1"><g id="lake_forest_open_lands_association"><path class="cls-1" d="M29.91,0c4,0,8,.6,12.43.6,2,0,4.27,0,6.41.16,2.69.17,5.59-.3,7.09,1a5.46,5.46,0,0,1,.72,1,6.05,6.05,0,0,1,.63,1c.79,1.86.59,4.47.64,7.13,0,0,0,0,0,0a5.67,5.67,0,0,1-1.67,1.36c-4.07,3-8.1,5.7-12.31,8.8-2.25,1.66-4.64,3.43-6.89,5.18-1.09.84-2.36,1.58-3.54,2.5A8.29,8.29,0,0,1,31.59,30a7.92,7.92,0,0,1-2.11.88c-1.61.08-1.58-1.12-1.88-2.47-.07-.31-.08-.77-.16-1.2a3.36,3.36,0,0,1-.12-1.15c.19-.54,1-.55,1.76-.76a8.53,8.53,0,0,0,4.34-2.71,13.4,13.4,0,0,0,1.83-2.23,11.13,11.13,0,0,0,.76-2,13.21,13.21,0,0,0,.55-2.23,14.36,14.36,0,0,0-.16-3.66A12.81,12.81,0,0,0,34.85,9.2c-1.49-2.56-2.92-4.89-4.38-7.57-.2-.37-.88-1.22-.68-1.55A.25.25,0,0,1,29.91,0Z"/><path class="cls-1" d="M26.92,2.59a2.33,2.33,0,0,1-.79,1l-.92.92c-1.6,2-3.52,3.76-5.18,5.74-.35,1-.74,2-1.07,3a23.51,23.51,0,0,0-1,3c-.21,1.19.12,2.53,0,3.9,0,0,0,0,0,.08a13,13,0,0,0,1.2,1.95,13,13,0,0,0,1.27,1.84c1.1,1.25,2.74,2,4.06,3.1a4.84,4.84,0,0,1,1.68,3.27,16.18,16.18,0,0,1,.12,1.63,2.27,2.27,0,0,1-.24,1.52,1.41,1.41,0,0,1-1.16-.12,7,7,0,0,1-1-.44,5.16,5.16,0,0,1-1-1.36c-.86-1.4-1.94-2.73-2.71-4.1a14.3,14.3,0,0,0-1.83-2.75c-.32-.35-.71-.78-1.12-1.15a6.18,6.18,0,0,0-1.23-1,13.11,13.11,0,0,0-3.7-.76,9.64,9.64,0,0,0-3.23.48,12.78,12.78,0,0,0-2.27,1.28A26.51,26.51,0,0,0,4.58,25a13.47,13.47,0,0,0-1.79,2c-.29.34-.62.67-.88,1s-.43.87-.91.95a11.86,11.86,0,0,1-.08-2.67c0-2.61-.38-5.24-.48-8C.37,16.52.35,14.7.32,12.94S.25,9.28.36,7.53A5.92,5.92,0,0,1,2.67,2.91c1.83-1.18,5.41-.81,8.24-.68,3.48.17,7.11-.11,10.72.08.91,0,1.81.06,2.71.08A9.28,9.28,0,0,1,26.92,2.59Z"/><path class="cls-1" d="M58.55,32.26a4.12,4.12,0,0,1-1.55.52c-1.61.4-3.35.83-5.1,1.11-1.17.19-2.35.38-3.55.6S46,34.8,44.77,35c-2.31.4-4.55,1-7,1.31a33.65,33.65,0,0,1-4,.16c-1.9,0-4.21.24-4.93-1a6,6,0,0,1,0-1.91,4,4,0,0,1,1.27-1.52,13,13,0,0,1,1.55-1.23c1.22-.22,3.1-.75,4.38-.44a5.86,5.86,0,0,1,1.12.56c.38.18.79.31,1.15.47a15,15,0,0,0,2.27,1,29.92,29.92,0,0,0,3.19.32,10,10,0,0,0,1,.12,4.86,4.86,0,0,0,1.51-.6,29.27,29.27,0,0,0,4-2.23c.75-1.14,1.47-2.39,2.19-3.67a27.56,27.56,0,0,0,2-3.82c.81-2.08,1.69-4.13,2.39-6.33.33-1,.86-1.78,1.16-2.87a3.91,3.91,0,0,1,.2-.92c.21-.35.92-.52,1.27-.67.66-.29.42.78.4,1a34.71,34.71,0,0,0-.2,4,37.19,37.19,0,0,1-.44,5.13c-.22,1.73-.27,3.51-.4,5.18S58.79,30.64,58.55,32.26Z"/><path class="cls-1" d="M26.61,41.1a4.47,4.47,0,0,1-2.35,0,16.33,16.33,0,0,1-1.56-.79c-1.51-.77-2.76-1.83-4.34-2.59a28.57,28.57,0,0,0-3.31-1.36c-1.7-.57-3.83-1.36-5.93-.67A6.5,6.5,0,0,0,7,37a51.8,51.8,0,0,0-5.42,5c-.38.22-.56.84-1.11.76a2.59,2.59,0,0,1-.2-1.4c-.05-2.59,0-5-.16-7.65,0-.41-.06-.91-.08-1.47S-.09,31,.16,30.91a.25.25,0,0,1,.12-.08c2,.13,4.1.44,6.13.71,1.85.25,3.74.44,5.58.72,2.73.41,5.42.8,8.12,1.31,1.55.3,3.35.3,4.15,1.32a7.59,7.59,0,0,1,.63,1.55c.22.51.49,1,.68,1.48A8.46,8.46,0,0,1,26.61,41.1Z"/><path class="cls-1" d="M56.36,34.37c.41-.13.28.9.28,1.32,0,1.46,0,2.93,0,4.58,0,1.95.22,3.93.36,5.77a77.53,77.53,0,0,1,0,8.76A14.2,14.2,0,0,1,56.88,58c-.12.38-.38.77-.56,1.19a6,6,0,0,1-2.55,3,7.89,7.89,0,0,1-2.79.2c-1.09,0-2,0-3-.08-2.07-.09-4.27,0-5.93,0-2,0-3.93-.16-5.89-.16s-4-.1-5.9-.24a11.25,11.25,0,0,1-.56-3.46C29.45,56,29,54,28.8,51.38c-.08-1-.11-3,.56-3.35a2.31,2.31,0,0,1,1.55.24c.52.21,1,.32,1.47.48,2.77,1,5.71,2.22,8.49,3.15l8.72,2.94c.48.17,1,.33,1.47.48s1,.45,1.47.28a5.13,5.13,0,0,0-.63-2.07c-.54-1.3-1.08-2.6-1.64-3.9-.27-.66-.49-1.34-.79-2A12.1,12.1,0,0,0,48,45.56a13.48,13.48,0,0,0-1.75-1.79c-3.17-1.47-7.08-.17-10.24.52a15.43,15.43,0,0,0-4,1.35,8.77,8.77,0,0,0-2.51.56c-.66.13-1.72.22-2.07-.2s-.12-1.7,0-2.31a14.52,14.52,0,0,1,1.12-4,6.87,6.87,0,0,1,.79-1.75,4.25,4.25,0,0,1,1-.4,4.59,4.59,0,0,1,1.12-.32,6,6,0,0,1,1.91.44A34.15,34.15,0,0,1,38,39.91c1.53.8,3,1.54,4.7,2.23a8.33,8.33,0,0,0,1.71.6,6.51,6.51,0,0,0,4-.6,12.47,12.47,0,0,0,2.11-1.75c.69-.62,1.34-1.34,2-1.92C53.86,37.19,55,35.75,56.36,34.37Z"/><path class="cls-1" d="M24.61,44.85a41.23,41.23,0,0,1,1.52,5.53,4.83,4.83,0,0,1,.28,1.88c-.4.31-1,.14-1.4.11-6.46-.3-13.06-.58-19.39-1-.5,0-1-.06-1.52-.08s-.92-.19-1.31.08c0,.59.45,1,.72,1.55s.54,1,.79,1.52a24.71,24.71,0,0,0,1.63,3,8.08,8.08,0,0,0,2.39,1.88,10.17,10.17,0,0,0,1.32.67,7.4,7.4,0,0,0,1.59.52,10.25,10.25,0,0,0,1.59,0,23.26,23.26,0,0,0,2.39-.08,6.74,6.74,0,0,0,1.4-.52c.45-.17.9-.39,1.31-.55,2.38-1,3.61-2.48,5.78-3.71.35-.2,1-.63,1.27-.6s.5.54.64,1,.34.8.44,1.12a19.5,19.5,0,0,1,.48,2.9,15.45,15.45,0,0,1,.39,2.91,6.42,6.42,0,0,1-2.19,0c-.78,0-1.57-.08-2.39-.08-4.69,0-9.82.25-14.25.24-.51,0-1.06-.08-1.6-.08a5.23,5.23,0,0,1-2.39-.32,4.73,4.73,0,0,1-1.27-1,3.72,3.72,0,0,1-1.52-2.51,29.73,29.73,0,0,1,.16-3.7c.14-2.92.23-6.16.36-9.2a4.57,4.57,0,0,1,.24-1.67,10.81,10.81,0,0,1,3.79.52c1.14.3,2.25.67,3.34,1.07,2.21.81,4.54,1.85,7.09,1.79a8.72,8.72,0,0,0,4.26-1.75c.49-.29,1-.6,1.52-.92C22.82,44.93,23.69,44,24.61,44.85Z"/></g><path class="cls-2" d="M88.69,23.14l1.83-.22.69,2L90,25.88H84.29L82.53,22l-9,0-.66,1.8,1.39,2.17h-6L76.51,7.22,75.16,3.85h5.73Zm-14.47-3.4,7.33-.22-3.62-8.68Z"/><path class="cls-2" d="M108.65,12.94c0,1.09,0,2.21,0,3.34s0,2.22,0,3.26V22.1L104.81,26H96.94L93.38,23V12.82l-2.17-1.23L92,10.14h5.92l0,11.43,1.1,2.3,3.59-.35L104,21.19l0-8.59-.3-.22-.41-.33c-.13-.12-.26-.22-.38-.32l-.23-.17V10.14h6Z"/><path class="cls-2" d="M118.07,19.76c0,1.39,0,2.71,0,3.95l1.38.53c0,.28,0,.54,0,.81s0,.54,0,.83h-5.91c0-.32,0-.75,0-1.31s0-1.18,0-1.87,0-1.42,0-2.19V12.57l-1.61-1,.76-1.42h5l.19,2.9a19.53,19.53,0,0,1,2-1.64,12.13,12.13,0,0,1,1.85-1.12,4.24,4.24,0,0,1,1.84-.48,4.6,4.6,0,0,1,1.48.22,8,8,0,0,1,1.16.48A5,5,0,0,1,127,11l.46.36-1.2,3.37-4.09-.94a4.11,4.11,0,0,0-1,.33c-.41.17-.82.37-1.23.58s-.78.42-1.12.63l-.75.47C118.06,17.06,118.06,18.36,118.07,19.76Z"/><path class="cls-2" d="M134.82,22.62a4.43,4.43,0,0,0,3.41,1.47,4.31,4.31,0,0,0,1.83-1.26c.5-.59,1.05-1.27,1.64-2l3.52,1.29a2.61,2.61,0,0,1-.44.87,8.32,8.32,0,0,1-2.5,2.4,3.18,3.18,0,0,1-1.56.54H133a2.46,2.46,0,0,1-1.72-1,10.44,10.44,0,0,1-1.59-2.46,12.86,12.86,0,0,1-1-3.11,6.9,6.9,0,0,1,0-3,14.16,14.16,0,0,1,.53-1.45,11.25,11.25,0,0,1,1-1.84,8.52,8.52,0,0,1,1.54-1.71A4.93,4.93,0,0,1,134,10.24,18.25,18.25,0,0,1,136,10a21.49,21.49,0,0,1,2.41-.07,15.65,15.65,0,0,1,2.26.21,3.76,3.76,0,0,1,1.59.55,5.12,5.12,0,0,1,1,1,8.09,8.09,0,0,1,.95,1.49,10.49,10.49,0,0,1,.69,1.83,8.23,8.23,0,0,1,.3,2l-2.11,1.73-9.5.54A6.1,6.1,0,0,0,134.82,22.62Zm5.41-7.24c-.13-.49-.3-1-.5-1.54a13,13,0,0,0-.63-1.43c-.22-.42-.43-.64-.61-.66a3.07,3.07,0,0,0-.81.06c-.32.06-.66.14-1,.24s-.68.2-1,.31a7.37,7.37,0,0,0-.75.33,2.35,2.35,0,0,0-.44.69,8.25,8.25,0,0,0-.41,1.07,8.49,8.49,0,0,0-.3,1.23,7,7,0,0,0-.11,1.14l6.8-.45A8.82,8.82,0,0,0,140.23,15.38Z"/><path class="cls-2" d="M154,23.24l2.24.66v2h-6.61l.06-19.42-2.42-1.1.41-1.51H154Z"/><path class="cls-3" d="M70.36,61.88V56.34h1.15l2.12,5h.17v-5h.61v5.54H73.28l-2.15-5H71v5Z"/><path class="cls-3" d="M79.92,59.15a3.73,3.73,0,0,1-.47,2.14,2,2,0,0,1-1.72.67A2,2,0,0,1,76,61.28a3.81,3.81,0,0,1-.47-2.15A3.88,3.88,0,0,1,76,57a2.41,2.41,0,0,1,3.41,0A4,4,0,0,1,79.92,59.15Zm-3.74,0a3.62,3.62,0,0,0,.32,1.75,1.72,1.72,0,0,0,2.47,0,3.57,3.57,0,0,0,.31-1.74A3.83,3.83,0,0,0,79,57.36a1.63,1.63,0,0,0-2.46,0A3.74,3.74,0,0,0,76.18,59.13Z"/><path class="cls-3" d="M81.63,60.21q0,1.2,1.29,1.2a1.52,1.52,0,0,0,1-.28,1.13,1.13,0,0,0,.34-.92V56.34h.61V60.2a1.67,1.67,0,0,1-.49,1.34,2.71,2.71,0,0,1-2.9,0A1.7,1.7,0,0,1,81,60.2V56.34h.62Z"/><path class="cls-3" d="M86.82,59.76v2.12H86.2V56.34h2a1.83,1.83,0,0,1,1.32.41A1.62,1.62,0,0,1,90,58a1.49,1.49,0,0,1-1,1.61l1.07,2.25h-.68l-1-2.12Zm1.44-.55a1.17,1.17,0,0,0,0-2.33H86.82v2.33Z"/><path class="cls-3" d="M91.75,59.76v2.12h-.62V56.34h2.05a1.85,1.85,0,0,1,1.32.41A1.62,1.62,0,0,1,95,58a1.49,1.49,0,0,1-1,1.61L95,61.88h-.68l-1-2.12Zm1.44-.55c.75,0,1.12-.39,1.12-1.16s-.37-1.17-1.13-1.17H91.75v2.33Z"/><path class="cls-3" d="M96.06,61.88V56.34h.61v5.54Z"/><path class="cls-3" d="M98.64,59.76v2.12H98V56.34h2a1.88,1.88,0,0,1,1.33.41,1.66,1.66,0,0,1,.44,1.27,1.5,1.5,0,0,1-1,1.61l1.06,2.25h-.68l-1-2.12Zm1.44-.55a1,1,0,0,0,1.13-1.16,1,1,0,0,0-1.14-1.17H98.64v2.33Z"/><path class="cls-3" d="M70.94,69.21q0,1.2,1.29,1.2a1.57,1.57,0,0,0,1-.28,1.16,1.16,0,0,0,.34-.92V65.34h.6V69.2a1.67,1.67,0,0,1-.49,1.34,2.16,2.16,0,0,1-1.45.42,2.13,2.13,0,0,1-1.44-.42,1.67,1.67,0,0,1-.49-1.34V65.34h.62Z"/><path class="cls-3" d="M75.51,70.88V65.34h1.16l2.12,5H79v-5h.6v5.54H78.43l-2.15-5h-.15v5Z"/><path class="cls-4" d="M83.09,70.88V63.34h2.12l1.69,5.88,1.68-5.88h2.13v7.54H89.48V64.69h-.16l-1.78,5.88H86.26l-1.78-5.88h-.17v6.19Z"/><path class="cls-4" d="M97.56,70.07a2.75,2.75,0,0,1-2.38.93,2.78,2.78,0,0,1-2.39-.93,5,5,0,0,1-.68-2.92,5.11,5.11,0,0,1,.69-3,3.42,3.42,0,0,1,4.76,0,5.21,5.21,0,0,1,.68,3A5,5,0,0,1,97.56,70.07Zm-3.81-.79a1.52,1.52,0,0,0,1.43.65,1.48,1.48,0,0,0,1.42-.64A4.47,4.47,0,0,0,97,67.15,4.59,4.59,0,0,0,96.59,65a1.45,1.45,0,0,0-1.41-.68,1.48,1.48,0,0,0-1.42.68,4.57,4.57,0,0,0-.38,2.17A4.53,4.53,0,0,0,93.75,69.28Z"/><path class="cls-4" d="M99.66,70.88V63.34h2.13l2.29,6.46h.16V63.34h1.22v7.54h-2.08L101,64.41h-.15v6.47Z"/><path class="cls-4" d="M109.81,70.88H107.2V63.34h2.61a2.76,2.76,0,0,1,2.38.88,4.81,4.81,0,0,1,.63,2.76,9.25,9.25,0,0,1-.12,1.62,3.89,3.89,0,0,1-.45,1.21A2.6,2.6,0,0,1,109.81,70.88Zm1.75-3.9a4.21,4.21,0,0,0-.34-2,1.49,1.49,0,0,0-1.41-.6h-1.39V69.8h1.39a1.42,1.42,0,0,0,1.45-.81,3.14,3.14,0,0,0,.24-.86A9.18,9.18,0,0,0,111.56,67Z"/><path class="cls-4" d="M114.25,70.88V63.34H119v1.07h-3.54v2.13h2.88V67.6h-2.88v2.2H119v1.08Z"/><path class="cls-2" d="M70.39,79.88V73.71h3.89v.87H71.39v1.75h2.35v.86H71.39V79h2.89v.89Z"/><path class="cls-2" d="M75.37,79.88V73.71h1.75L79,79h.13V73.71h1v6.17H78.41l-1.91-5.3h-.13v5.3Z"/><path class="cls-2" d="M85.59,80a2,2,0,0,1-1.83-.74,4.74,4.74,0,0,1-.48-2.46,4.46,4.46,0,0,1,.49-2.43,2,2,0,0,1,1.82-.73,7.82,7.82,0,0,1,1.77.23l0,.81a8.88,8.88,0,0,0-1.62-.15,1.19,1.19,0,0,0-1.1.48,6,6,0,0,0,0,3.62,1.13,1.13,0,0,0,1.08.48A10.16,10.16,0,0,0,87.32,79l0,.83A8.52,8.52,0,0,1,85.59,80Z"/><path class="cls-2" d="M92.08,79.88V77.21H89.42v2.67h-1V73.71h1v2.63h2.66V73.71h1v6.17Z"/><path class="cls-2" d="M94,79.88l1.52-6.17h2L99,79.88H98l-.33-1.33H95.3L95,79.88Zm2.3-5.33-.77,3.12h2l-.75-3.12Z"/><path class="cls-2" d="M99.9,79.88V73.71h1.74L103.51,79h.14V73.71h1v6.17h-1.71L101,74.58h-.13v5.3Z"/><path class="cls-2" d="M108.58,77.52v-.89h1.76v3.14a9.88,9.88,0,0,1-1,.13c-.5,0-.85.07-1.08.07a2.16,2.16,0,0,1-1.93-.77,4.4,4.4,0,0,1-.53-2.43,4.17,4.17,0,0,1,.54-2.4,2.17,2.17,0,0,1,1.89-.76,10,10,0,0,1,1.78.18l.32.06,0,.8a14.54,14.54,0,0,0-2-.15,1.32,1.32,0,0,0-1.19.49,3.56,3.56,0,0,0-.32,1.8,3.82,3.82,0,0,0,.3,1.81,1.33,1.33,0,0,0,1.22.5,4.75,4.75,0,0,0,1-.08v-1.5Z"/><path class="cls-2" d="M111.59,79.88V73.71h3.88v.87h-2.88v1.75h2.34v.86h-2.34V79h2.88v.89Z"/><path class="cls-2" d="M116.56,79.88V73.71h1.74l1.38,4.82,1.37-4.82h1.75v6.17h-1V74.82h-.13l-1.46,4.8h-1l-1.45-4.8h-.14v5.06Z"/><path class="cls-2" d="M124.21,79.88V73.71h3.89v.87h-2.89v1.75h2.35v.86h-2.35V79h2.89v.89Z"/><path class="cls-2" d="M129.19,79.88V73.71h1.75L132.81,79h.13V73.71h1v6.17h-1.71l-1.92-5.3h-.12v5.3Z"/><path class="cls-2" d="M134.77,74.6v-.89h4.5v.89h-1.74v5.28h-1V74.6Z"/><path class="cls-2" d="M131,34v-.89h1.75v3.14a9.13,9.13,0,0,1-1,.13c-.5.05-.85.07-1.08.07a2.19,2.19,0,0,1-1.93-.77,4.34,4.34,0,0,1-.53-2.43,4.17,4.17,0,0,1,.54-2.4,2.17,2.17,0,0,1,1.89-.76,10,10,0,0,1,1.78.18l.31.06,0,.8a14.54,14.54,0,0,0-1.95-.15,1.32,1.32,0,0,0-1.19.49,3.56,3.56,0,0,0-.32,1.8,3.82,3.82,0,0,0,.3,1.81,1.32,1.32,0,0,0,1.22.5,4.58,4.58,0,0,0,1-.08V34Z"/><path class="cls-2" d="M135,34.18v2.19h-1V30.21h2.33c1.4,0,2.09.65,2.09,2a1.77,1.77,0,0,1-1,1.78l1,2.42h-1.1l-.89-2.19Zm2.41-2a1,1,0,0,0-1.07-1.11H135v2.24h1.36a1,1,0,0,0,.8-.31A1.29,1.29,0,0,0,137.36,32.18Z"/><path class="cls-2" d="M143.71,35.72a2.27,2.27,0,0,1-2,.75,2.25,2.25,0,0,1-1.95-.76,4,4,0,0,1-.56-2.39,4.26,4.26,0,0,1,.56-2.42,2.79,2.79,0,0,1,3.89,0,4.22,4.22,0,0,1,.56,2.42A4.13,4.13,0,0,1,143.71,35.72Zm-3.12-.65a1.23,1.23,0,0,0,1.17.53,1.21,1.21,0,0,0,1.16-.52,3.59,3.59,0,0,0,.31-1.75,4,4,0,0,0-.31-1.79,1.48,1.48,0,0,0-2.32,0,3.78,3.78,0,0,0-.32,1.78A3.64,3.64,0,0,0,140.59,35.07Z"/><path class="cls-2" d="M146.38,34.4c0,.8.41,1.2,1.25,1.2s1.26-.4,1.26-1.2V30.21h1v4.17a2,2,0,0,1-.57,1.59,3.14,3.14,0,0,1-3.4,0,2,2,0,0,1-.56-1.59V30.21h1Z"/><path class="cls-2" d="M153.53,34.46h-1.26v1.91h-1V30.21h2.26a1.84,1.84,0,0,1,2.1,2.07,2.27,2.27,0,0,1-.53,1.62A2.06,2.06,0,0,1,153.53,34.46Zm-1.26-.87h1.25c.72,0,1.08-.43,1.08-1.31a1.37,1.37,0,0,0-.26-.92,1.06,1.06,0,0,0-.82-.29h-1.25Z"/><path class="cls-5" d="M45.44,64.48a54.78,54.78,0,0,0-4.72,23,63.57,63.57,0,0,1,8.27-23Z"/><path class="cls-5" d="M68.84,39.46A50.51,50.51,0,0,0,59.13,46v5.89a52,52,0,0,1,13.61-9,56.08,56.08,0,0,1,58.15,7.25C114.25,33.31,88.93,29.11,68.84,39.46Z"/></g></g></svg>