<svg xmlns="http://www.w3.org/2000/svg" viewBox="0 0 156.24 99.97"><defs><style>.cls-1,.cls-3{fill:#88b04b;}.cls-1{fill-rule:evenodd;}.cls-2{fill:#13322b;}.cls-4{fill:#bfd833;}</style></defs><g id="Calque_2" data-name="Calque 2"><g id="Calque_1-2" data-name="Calque 1"><g id="lake_forest_open_lands_association"><path class="cls-1" d="M29.91,0c4,0,8,.6,12.43.6,2,0,4.27,0,6.41.16,2.69.17,5.59-.3,7.09,1a5.46,5.46,0,0,1,.72,1,6.05,6.05,0,0,1,.63,1c.79,1.86.59,4.47.64,7.13,0,0,0,0,0,0a5.67,5.67,0,0,1-1.67,1.36c-4.07,3-8.1,5.7-12.31,8.8-2.25,1.66-4.64,3.43-6.89,5.18-1.09.84-2.36,1.58-3.54,2.5A8.29,8.29,0,0,1,31.59,30a7.92,7.92,0,0,1-2.11.88c-1.61.08-1.58-1.12-1.88-2.47-.07-.31-.08-.77-.16-1.2a3.36,3.36,0,0,1-.12-1.15c.19-.54,1-.55,1.76-.76a8.53,8.53,0,0,0,4.34-2.71,13.4,13.4,0,0,0,1.83-2.23,11.13,11.13,0,0,0,.76-2,13.21,13.21,0,0,0,.55-2.23,14.36,14.36,0,0,0-.16-3.66A12.81,12.81,0,0,0,34.85,9.2c-1.49-2.56-2.92-4.89-4.38-7.57-.2-.37-.88-1.22-.68-1.55A.25.25,0,0,1,29.91,0Z"/><path class="cls-1" d="M26.92,2.59a2.33,2.33,0,0,1-.79,1l-.92.92c-1.6,2-3.52,3.76-5.18,5.74-.35,1-.74,2-1.07,3a23.51,23.51,0,0,0-1,3c-.21,1.19.12,2.53,0,3.9,0,0,0,0,0,.08a13,13,0,0,0,1.2,1.95,13,13,0,0,0,1.27,1.84c1.1,1.25,2.74,2,4.06,3.1a4.84,4.84,0,0,1,1.68,3.27,16.18,16.18,0,0,1,.12,1.63,2.27,2.27,0,0,1-.24,1.52,1.41,1.41,0,0,1-1.16-.12,7,7,0,0,1-1-.44,5.16,5.16,0,0,1-1-1.36c-.86-1.4-1.94-2.73-2.71-4.1a14.3,14.3,0,0,0-1.83-2.75c-.32-.35-.71-.78-1.12-1.15a6.18,6.18,0,0,0-1.23-1,13.11,13.11,0,0,0-3.7-.76,9.64,9.64,0,0,0-3.23.48,12.78,12.78,0,0,0-2.27,1.28A26.51,26.51,0,0,0,4.58,25a13.47,13.47,0,0,0-1.79,2c-.29.34-.62.67-.88,1s-.43.87-.91.95a11.86,11.86,0,0,1-.08-2.67c0-2.61-.38-5.24-.48-8C.37,16.52.35,14.7.32,12.94S.25,9.28.36,7.53A5.92,5.92,0,0,1,2.67,2.91c1.83-1.18,5.41-.81,8.24-.68,3.48.17,7.11-.11,10.72.08.91,0,1.81.06,2.71.08A9.28,9.28,0,0,1,26.92,2.59Z"/><path class="cls-1" d="M58.55,32.26a4.12,4.12,0,0,1-1.55.52c-1.61.4-3.35.83-5.1,1.11-1.17.19-2.35.38-3.55.6S46,34.8,44.77,35c-2.31.4-4.55,1-7,1.31a33.65,33.65,0,0,1-4,.16c-1.9,0-4.21.24-4.93-1a6,6,0,0,1,0-1.91,4,4,0,0,1,1.27-1.52,13,13,0,0,1,1.55-1.23c1.22-.22,3.1-.75,4.38-.44a5.86,5.86,0,0,1,1.12.56c.38.18.79.31,1.15.47a15,15,0,0,0,2.27,1,29.92,29.92,0,0,0,3.19.32,10,10,0,0,0,1,.12,4.86,4.86,0,0,0,1.51-.6,29.27,29.27,0,0,0,4-2.23c.75-1.14,1.47-2.39,2.19-3.67a27.56,27.56,0,0,0,2-3.82c.81-2.08,1.69-4.13,2.39-6.33.33-1,.86-1.78,1.16-2.87a3.91,3.91,0,0,1,.2-.92c.21-.35.92-.52,1.27-.67.66-.29.42.78.4,1a34.71,34.71,0,0,0-.2,4,37.19,37.19,0,0,1-.44,5.13c-.22,1.73-.27,3.51-.4,5.18S58.79,30.64,58.55,32.26Z"/><path class="cls-1" d="M26.61,41.1a4.47,4.47,0,0,1-2.35,0,16.33,16.33,0,0,1-1.56-.79c-1.51-.77-2.76-1.83-4.34-2.59a28.57,28.57,0,0,0-3.31-1.36c-1.7-.57-3.83-1.36-5.93-.67A6.5,6.5,0,0,0,7,37a51.8,51.8,0,0,0-5.42,5c-.38.22-.56.84-1.11.76a2.59,2.59,0,0,1-.2-1.4c-.05-2.59,0-5-.16-7.65,0-.41-.06-.91-.08-1.47S-.09,31,.16,30.91a.25.25,0,0,1,.12-.08c2,.13,4.1.44,6.13.71,1.85.25,3.74.44,5.58.72,2.73.41,5.42.8,8.12,1.31,1.55.3,3.35.3,4.15,1.32a7.59,7.59,0,0,1,.63,1.55c.22.51.49,1,.68,1.48A8.46,8.46,0,0,1,26.61,41.1Z"/><path class="cls-1" d="M56.36,34.37c.41-.13.28.9.28,1.32,0,1.46,0,2.93,0,4.58,0,1.95.22,3.93.36,5.77a77.53,77.53,0,0,1,0,8.76A14.2,14.2,0,0,1,56.88,58c-.12.38-.38.77-.56,1.19a6,6,0,0,1-2.55,3,7.89,7.89,0,0,1-2.79.2c-1.09,0-2,0-3-.08-2.07-.09-4.27,0-5.93,0-2,0-3.93-.16-5.89-.16s-4-.1-5.9-.24a11.25,11.25,0,0,1-.56-3.46C29.45,56,29,54,28.8,51.38c-.08-1-.11-3,.56-3.35a2.31,2.31,0,0,1,1.55.24c.52.21,1,.32,1.47.48,2.77,1,5.71,2.22,8.49,3.15l8.72,2.94c.48.17,1,.33,1.47.48s1,.45,1.47.28a5.13,5.13,0,0,0-.63-2.07c-.54-1.3-1.08-2.6-1.64-3.9-.27-.66-.49-1.34-.79-2A12.1,12.1,0,0,0,48,45.56a13.48,13.48,0,0,0-1.75-1.79c-3.17-1.47-7.08-.17-10.24.52a15.43,15.43,0,0,0-4,1.35,8.77,8.77,0,0,0-2.51.56c-.66.13-1.72.22-2.07-.2s-.12-1.7,0-2.31a14.52,14.52,0,0,1,1.12-4,6.87,6.87,0,0,1,.79-1.75,4.25,4.25,0,0,1,1-.4,4.59,4.59,0,0,1,1.12-.32,6,6,0,0,1,1.91.44A34.15,34.15,0,0,1,38,39.91c1.53.8,3,1.54,4.7,2.23a8.33,8.33,0,0,0,1.71.6,6.51,6.51,0,0,0,4-.6,12.47,12.47,0,0,0,2.11-1.75c.69-.62,1.34-1.34,2-1.92C53.86,37.19,55,35.75,56.36,34.37Z"/><path class="cls-1" d="M24.61,44.85a41.23,41.23,0,0,1,1.52,5.53,4.83,4.83,0,0,1,.28,1.88c-.4.31-1,.14-1.4.11-6.46-.3-13.06-.58-19.39-1-.5,0-1-.06-1.52-.08s-.92-.19-1.31.08c0,.59.45,1,.72,1.55s.54,1,.79,1.52a24.71,24.71,0,0,0,1.63,3,8.08,8.08,0,0,0,2.39,1.88,10.17,10.17,0,0,0,1.32.67,7.4,7.4,0,0,0,1.59.52,10.25,10.25,0,0,0,1.59,0,23.26,23.26,0,0,0,2.39-.08,6.74,6.74,0,0,0,1.4-.52c.45-.17.9-.39,1.31-.55,2.38-1,3.61-2.48,5.78-3.71.35-.2,1-.63,1.27-.6s.5.54.64,1,.34.8.44,1.12a19.5,19.5,0,0,1,.48,2.9,15.45,15.45,0,0,1,.39,2.91,6.42,6.42,0,0,1-2.19,0c-.78,0-1.57-.08-2.39-.08-4.69,0-9.82.25-14.25.24-.51,0-1.06-.08-1.6-.08a5.23,5.23,0,0,1-2.39-.32,4.73,4.73,0,0,1-1.27-1,3.72,3.72,0,0,1-1.52-2.51,29.73,29.73,0,0,1,.16-3.7c.14-2.92.23-6.16.36-9.2a4.57,4.57,0,0,1,.24-1.67,10.81,10.81,0,0,1,3.79.52c1.14.3,2.25.67,3.34,1.07,2.21.81,4.54,1.85,7.09,1.79a8.72,8.72,0,0,0,4.26-1.75c.49-.29,1-.6,1.52-.92C22.82,44.93,23.69,44,24.61,44.85Z"/></g><path class="cls-2" d="M88.69,39.14l1.83-.22.69,2L90,41.88H84.29L82.53,38l-9,0-.66,1.8,1.39,2.17h-6l8.27-18.66-1.35-3.37h5.73Zm-14.47-3.4,7.33-.22-3.62-8.68Z"/><path class="cls-2" d="M108.65,28.94c0,1.09,0,2.21,0,3.34s0,2.22,0,3.26V38.1L104.81,42H96.94L93.38,39V28.82l-2.17-1.23L92,26.14h5.92l0,11.43,1.1,2.3,3.59-.35L104,37.19l0-8.59-.3-.22-.41-.33c-.13-.12-.26-.22-.38-.32l-.23-.17V26.14h6Z"/><path class="cls-2" d="M118.07,35.76c0,1.39,0,2.71,0,4l1.38.53c0,.28,0,.54,0,.81s0,.54,0,.83h-5.91c0-.32,0-.75,0-1.31s0-1.18,0-1.87,0-1.42,0-2.19V28.57l-1.61-1,.76-1.42h5l.19,2.9a19.53,19.53,0,0,1,2-1.64,12.13,12.13,0,0,1,1.85-1.12,4.24,4.24,0,0,1,1.84-.48,4.6,4.6,0,0,1,1.48.22,8,8,0,0,1,1.16.48A5,5,0,0,1,127,27l.46.36-1.2,3.37-4.09-.94a4.11,4.11,0,0,0-1,.33c-.41.17-.82.37-1.23.58s-.78.42-1.12.63l-.75.47C118.06,33.06,118.06,34.36,118.07,35.76Z"/><path class="cls-2" d="M134.82,38.62a4.43,4.43,0,0,0,3.41,1.47,4.31,4.31,0,0,0,1.83-1.26c.5-.59,1.05-1.27,1.64-2l3.52,1.29a2.61,2.61,0,0,1-.44.87,8.32,8.32,0,0,1-2.5,2.4,3.18,3.18,0,0,1-1.56.54H133a2.46,2.46,0,0,1-1.72-1,10.44,10.44,0,0,1-1.59-2.46,12.86,12.86,0,0,1-1-3.11,6.9,6.9,0,0,1,0-3,14.16,14.16,0,0,1,.53-1.45,11.25,11.25,0,0,1,1-1.84,8.52,8.52,0,0,1,1.54-1.71A4.93,4.93,0,0,1,134,26.24,18.25,18.25,0,0,1,136,26a21.49,21.49,0,0,1,2.41-.07,15.65,15.65,0,0,1,2.26.21,3.76,3.76,0,0,1,1.59.55,5.12,5.12,0,0,1,1,1,8.09,8.09,0,0,1,.95,1.49,10.49,10.49,0,0,1,.69,1.83,8.23,8.23,0,0,1,.3,1.95l-2.11,1.73-9.5.54A6.1,6.1,0,0,0,134.82,38.62Zm5.41-7.24c-.13-.49-.3-1-.5-1.54a13,13,0,0,0-.63-1.43c-.22-.42-.43-.64-.61-.66a3.07,3.07,0,0,0-.81.06c-.32.06-.66.14-1,.24s-.68.2-1,.31a7.37,7.37,0,0,0-.75.33,2.35,2.35,0,0,0-.44.69,8.25,8.25,0,0,0-.41,1.07,8.49,8.49,0,0,0-.3,1.23,7,7,0,0,0-.11,1.14l6.8-.45A8.82,8.82,0,0,0,140.23,31.38Z"/><path class="cls-2" d="M154,39.24l2.24.66v2h-6.61l.06-19.42-2.42-1.1.41-1.51H154Z"/><path class="cls-2" d="M130.94,50.18V49.1h1.78v3.18a14.66,14.66,0,0,1-2.09.2,2.24,2.24,0,0,1-2-.76,4.28,4.28,0,0,1-.54-2.43,4.09,4.09,0,0,1,.56-2.41,2.24,2.24,0,0,1,1.9-.73,10,10,0,0,1,1.81.18l.32.07,0,1a16.66,16.66,0,0,0-1.77-.12,2,2,0,0,0-1,.17.93.93,0,0,0-.41.59,5.83,5.83,0,0,0-.13,1.5,3.07,3.07,0,0,0,.26,1.48,1.19,1.19,0,0,0,1.08.42l.75,0V50.18Z"/><path class="cls-2" d="M135.13,50.32v2h-1.24V46.25h2.38c1.44,0,2.16.68,2.16,2a1.92,1.92,0,0,1-.9,1.76l.87,2.34H137l-.71-2ZM136.94,49a1.08,1.08,0,0,0,.22-.71,1,1,0,0,0-.23-.7.8.8,0,0,0-.66-.26h-1.14v1.94h1.16A.78.78,0,0,0,136.94,49Z"/><path class="cls-2" d="M143.71,51.72a2.93,2.93,0,0,1-3.94,0,4,4,0,0,1-.57-2.38,4.14,4.14,0,0,1,.57-2.41,2.88,2.88,0,0,1,3.94,0,4.14,4.14,0,0,1,.57,2.41A4,4,0,0,1,143.71,51.72Zm-3-.79a1,1,0,0,0,1,.47,1.06,1.06,0,0,0,1-.47,3.55,3.55,0,0,0,.26-1.58,3.61,3.61,0,0,0-.27-1.62,1.23,1.23,0,0,0-2,0,3.61,3.61,0,0,0-.27,1.62A3.39,3.39,0,0,0,140.75,50.93Z"/><path class="cls-2" d="M146.53,50.33a1.09,1.09,0,0,0,2.18,0V46.25H150v4a2.15,2.15,0,0,1-.58,1.65,3.15,3.15,0,0,1-3.5,0,2.11,2.11,0,0,1-.58-1.65v-4h1.24Z"/><path class="cls-2" d="M153.48,50.59h-1v1.78h-1.24V46.25h2.25a1.9,1.9,0,0,1,2.17,2.13A2.26,2.26,0,0,1,155.1,50,2.16,2.16,0,0,1,153.48,50.59Zm-1-1.06h1c.62,0,.92-.38.92-1.15a1.22,1.22,0,0,0-.22-.82.91.91,0,0,0-.7-.24h-1Z"/><rect class="cls-2" x="68.13" y="56.98" width="88" height="3"/><path class="cls-2" d="M68,78.35V71.66h1.4l2.56,6h.2v-6h.74v6.69H71.49l-2.6-6h-.18v6Z"/><path class="cls-2" d="M79.52,75.05A4.58,4.58,0,0,1,79,77.64a2.4,2.4,0,0,1-2.08.8,2.34,2.34,0,0,1-2.07-.82A4.62,4.62,0,0,1,74.23,75a4.71,4.71,0,0,1,.58-2.62,2.92,2.92,0,0,1,4.12,0A4.73,4.73,0,0,1,79.52,75.05ZM75,75a4.26,4.26,0,0,0,.39,2.11,2.08,2.08,0,0,0,3,0,4.23,4.23,0,0,0,.39-2.11,4.49,4.49,0,0,0-.4-2.16,1.58,1.58,0,0,0-1.48-.67,1.55,1.55,0,0,0-1.48.67A4.43,4.43,0,0,0,75,75Z"/><path class="cls-2" d="M81.58,76.33c0,1,.52,1.45,1.56,1.45a1.88,1.88,0,0,0,1.23-.34,1.38,1.38,0,0,0,.41-1.11V71.66h.73v4.66a2,2,0,0,1-.59,1.62,2.7,2.7,0,0,1-1.76.5,2.64,2.64,0,0,1-1.74-.5,2,2,0,0,1-.59-1.62V71.66h.75Z"/><path class="cls-2" d="M87.85,75.78v2.57h-.74V71.66h2.47a2.27,2.27,0,0,1,1.6.49,2,2,0,0,1,.54,1.54,1.8,1.8,0,0,1-1.23,1.94l1.29,2.72H91l-1.21-2.57Zm1.74-.65a1.41,1.41,0,0,0,0-2.82H87.85v2.82Z"/><path class="cls-2" d="M93.81,75.78v2.57h-.75V71.66h2.48a2.29,2.29,0,0,1,1.6.49,2,2,0,0,1,.54,1.54,1.8,1.8,0,0,1-1.23,1.94l1.29,2.72h-.83L95.7,75.78Zm1.74-.65c.91,0,1.36-.47,1.36-1.41a1.23,1.23,0,0,0-1.37-1.41H93.81v2.82Z"/><path class="cls-2" d="M99,78.35V71.66h.75v6.69Z"/><path class="cls-2" d="M102.14,75.78v2.57h-.74V71.66h2.47a2.27,2.27,0,0,1,1.6.49,2,2,0,0,1,.54,1.54,1.8,1.8,0,0,1-1.23,1.94l1.29,2.72h-.82L104,75.78Zm1.74-.65a1.41,1.41,0,0,0,0-2.82h-1.73v2.82Z"/><path class="cls-2" d="M68.66,87.08c0,1,.52,1.45,1.57,1.45a1.85,1.85,0,0,0,1.22-.35,1.35,1.35,0,0,0,.41-1.1V82.4h.74v4.66a2,2,0,0,1-.6,1.62,3.31,3.31,0,0,1-3.5,0,2,2,0,0,1-.58-1.62V82.4h.74Z"/><path class="cls-2" d="M74.19,89.09V82.4h1.39l2.57,6h.2v-6h.73v6.69H77.72l-2.6-6h-.18v6Z"/><path class="cls-3" d="M83.05,89.09V80.26h2.49l2,6.89,2-6.89H92v8.83H90.54V81.84h-.19l-2.09,6.89h-1.5l-2.09-6.89h-.19v7.25Z"/><path class="cls-3" d="M100,88.15a4.14,4.14,0,0,1-5.59,0,5.84,5.84,0,0,1-.8-3.42,6,6,0,0,1,.81-3.47,4,4,0,0,1,5.57,0,6,6,0,0,1,.8,3.48A5.87,5.87,0,0,1,100,88.15Zm-4.47-.93a2.24,2.24,0,0,0,3.35,0,5.28,5.28,0,0,0,.43-2.5,5.44,5.44,0,0,0-.45-2.56,1.69,1.69,0,0,0-1.65-.8,1.72,1.72,0,0,0-1.66.8,5.26,5.26,0,0,0-.46,2.54A5.33,5.33,0,0,0,95.54,87.22Z"/><path class="cls-3" d="M102.47,89.09V80.26H105l2.68,7.57h.19V80.26h1.43v8.83h-2.45l-2.74-7.58h-.18v7.58Z"/><path class="cls-3" d="M114.36,89.09h-3V80.26h3a3.24,3.24,0,0,1,2.79,1,5.56,5.56,0,0,1,.75,3.23,10.34,10.34,0,0,1-.15,1.91,4.57,4.57,0,0,1-.52,1.41A3.06,3.06,0,0,1,114.36,89.09Zm2-4.57a4.88,4.88,0,0,0-.4-2.3,1.7,1.7,0,0,0-1.65-.71h-1.62v6.32h1.62a1.68,1.68,0,0,0,1.7-1,3.68,3.68,0,0,0,.28-1A10.29,10.29,0,0,0,116.41,84.52Z"/><path class="cls-3" d="M119.57,89.09V80.26h5.57v1.25H121V84h3.37v1.24H121v2.58h4.14v1.26Z"/><path class="cls-2" d="M67.91,99.83V93.21h4.17v.94H69V96H71.5V97H69v1.93h3.1v1Z"/><path class="cls-2" d="M73.25,99.83V93.21h1.88l2,5.67h.15V93.21h1.07v6.62H76.52l-2.06-5.68h-.13v5.68Z"/><path class="cls-4" d="M87.45,99.7a10.71,10.71,0,0,1-2.25.27,4.44,4.44,0,0,1-1.61-.24,2.07,2.07,0,0,1-1-.8,3.68,3.68,0,0,1-.47-1.27A10.6,10.6,0,0,1,82,95.81a5.8,5.8,0,0,1,.66-3.24,2.77,2.77,0,0,1,2.41-.92,10.56,10.56,0,0,1,2.36.32l0,1.3a13,13,0,0,0-2-.17,2.17,2.17,0,0,0-1.1.2,1.26,1.26,0,0,0-.49.79,8.12,8.12,0,0,0-.16,2A4.11,4.11,0,0,0,84,98a1.4,1.4,0,0,0,1.3.54,14.12,14.12,0,0,0,2.08-.16Z"/><path class="cls-4" d="M93.4,99.83V96.5h-3v3.33H88.78v-8h1.63v3.28h3V91.8H95v8Z"/><path class="cls-4" d="M96.1,99.83l1.81-8H101l1.8,8h-1.63l-.31-1.45H98.05l-.32,1.45Zm3.08-6.69L98.36,97h2.2l-.82-3.82Z"/><path class="cls-4" d="M103.89,99.83v-8h2.75l1.94,6.61h.12V91.8h1.63v8h-2.68l-2-6.62h-.12v6.62Z"/><path class="cls-4" d="M115.42,97V95.53h2.34V99.7A18.09,18.09,0,0,1,115,100a2.94,2.94,0,0,1-2.58-1,5.65,5.65,0,0,1-.7-3.19,5.31,5.31,0,0,1,.73-3.16,3,3,0,0,1,2.49-1,12.94,12.94,0,0,1,2.38.25l.42.08,0,1.27a23,23,0,0,0-2.33-.15,2.77,2.77,0,0,0-1.27.21,1.26,1.26,0,0,0-.53.78,7.46,7.46,0,0,0-.18,2,3.92,3.92,0,0,0,.35,1.94,1.55,1.55,0,0,0,1.42.55l1,0V97Z"/><path class="cls-4" d="M119.3,99.83v-8h5.2v1.41h-3.57v1.88h2.86v1.4h-2.86v1.92h3.57v1.42Z"/><path class="cls-4" d="M125.85,99.83v-8h2.77L130,97.66l1.42-5.86h2.78v8h-1.63V93.62h-.18l-1.57,5.86h-1.63l-1.58-5.86h-.17v6.21Z"/><path class="cls-4" d="M136,99.83v-8h5.19v1.41h-3.56v1.88h2.86v1.4h-2.86v1.92h3.56v1.42Z"/><path class="cls-4" d="M142.53,99.83v-8h2.76l1.93,6.61h.12V91.8H149v8h-2.68l-2-6.62h-.12v6.62Z"/><path class="cls-4" d="M150,93.24V91.8h5.91v1.44h-2.13v6.59h-1.63V93.24Z"/></g></g></svg>