<svg xmlns="http://www.w3.org/2000/svg" viewBox="0 0 326.38 200"><defs><style>.cls-1,.cls-3{fill:#13322b;}.cls-2{fill:#fff;}.cls-3,.cls-4{fill-rule:evenodd;}.cls-4,.cls-5{fill:#88b04b;}.cls-6{fill:#bfd833;}</style></defs><g id="Calque_2" data-name="Calque 2"><g id="Calque_1-2" data-name="Calque 1"><polygon class="cls-1" points="4.41 136.55 4.39 147.83 3.6 160.52 4.3 177.34 4.38 190.63 5.41 194.62 8.04 197.77 12.72 200 32.39 199.35 57.61 198.82 81.96 199 106.66 198.65 125.75 198.97 131.01 199 133.28 197.25 134.49 195.41 134.45 191.92 135.14 174.88 134.44 161.22 134.02 145.56 134.27 131.79 78.41 133.68 66.55 141.02 32.39 142.94 4.41 136.55"/><path class="cls-2" d="M39.29,183.56l2.36-.28.9,2.61L41,187.11H33.59L31.31,182l-11.69,0-.85,2.32,1.79,2.81H12.82L23.53,163l-1.75-4.36h7.41Zm-18.73-4.39,9.49-.29-4.68-11.24Z"/><path class="cls-2" d="M65.11,170.37c0,1.41,0,2.85,0,4.32s0,2.87,0,4.21v3.32l-5,5H50l-4.6-3.83V170.21l-2.81-1.59,1-1.87h7.65l0,14.78,1.43,3,4.64-.45L59,181l0-11.12-.38-.28c-.18-.14-.36-.28-.53-.43l-.49-.41a2.13,2.13,0,0,0-.31-.22v-1.83h7.74Z"/><path class="cls-2" d="M77.31,179.19c0,1.8,0,3.51,0,5.11l1.79.69c0,.35,0,.7,0,1s0,.7,0,1.08H71.42c0-.41,0-1,0-1.69s0-1.53,0-2.43,0-1.83,0-2.83V169.88l-2.07-1.3,1-1.83h6.44l.24,3.74a25.85,25.85,0,0,1,2.57-2.11A14.52,14.52,0,0,1,82,166.93a5.43,5.43,0,0,1,2.38-.63,6,6,0,0,1,1.91.28,8.9,8.9,0,0,1,1.51.64,6.33,6.33,0,0,1,1.08.69l.59.47L88,172.73l-5.29-1.22a5.76,5.76,0,0,0-1.36.43q-.8.34-1.59.75c-.53.27-1,.55-1.45.82l-1,.61Q77.28,176.48,77.31,179.19Z"/><path class="cls-2" d="M99,182.89a5.69,5.69,0,0,0,4.42,1.9,5.5,5.5,0,0,0,2.36-1.63c.65-.76,1.36-1.64,2.12-2.65l4.56,1.67a3.44,3.44,0,0,1-.57,1.12,11.29,11.29,0,0,1-1.37,1.63,10.56,10.56,0,0,1-1.87,1.49,4.17,4.17,0,0,1-2,.69h-10a3.16,3.16,0,0,1-2.22-1.29,12.77,12.77,0,0,1-2.06-3.17,16.52,16.52,0,0,1-1.3-4,8.9,8.9,0,0,1,0-3.89c.14-.46.37-1.09.69-1.87a13.75,13.75,0,0,1,1.3-2.39,11.55,11.55,0,0,1,2-2.22,6.4,6.4,0,0,1,2.81-1.38c.73-.14,1.62-.24,2.65-.33s2.07-.1,3.11-.08a21.81,21.81,0,0,1,2.93.27,5,5,0,0,1,2.06.71,7.33,7.33,0,0,1,1.28,1.28,10.2,10.2,0,0,1,1.22,1.94A12.54,12.54,0,0,1,112,173a11,11,0,0,1,.39,2.52l-2.73,2.24-12.3.69A7.93,7.93,0,0,0,99,182.89Zm7-9.36a21,21,0,0,0-.65-2,17.3,17.3,0,0,0-.81-1.85c-.29-.54-.55-.83-.8-.86a3.75,3.75,0,0,0-1,.09c-.42.08-.85.18-1.3.3s-.87.26-1.28.41a6.86,6.86,0,0,0-1,.43,3.11,3.11,0,0,0-.57.89,12.73,12.73,0,0,0-.53,1.39,11.74,11.74,0,0,0-.38,1.58,8.32,8.32,0,0,0-.15,1.47l8.8-.57A11.55,11.55,0,0,0,106,173.53Z"/><path class="cls-2" d="M123.79,183.69l2.89.85v2.57h-8.55l.08-25.13-3.14-1.42.53-2h8.19Z"/><polygon class="cls-3" points="47.82 11.57 64.1 6.03 70.78 0.19 108.52 4.82 130.81 11.57 136.04 25.43 139.43 22.78 137.15 29.05 137.66 41.64 137.81 75.19 132.7 80.11 128.4 109.66 127.17 136.46 86.71 143.29 71.9 144.35 64.1 146.67 10.34 141.72 7.36 130.51 6.17 104.15 0 102.48 2.46 99.79 1.72 72.03 5.8 65.35 11.39 12.45 47.82 11.57"/><path class="cls-4" d="M71.06,0c9.24.06,18.61,1.39,29,1.39,4.72,0,10,.05,15,.37,6.26.41,13-.69,16.53,2.42a12.84,12.84,0,0,1,1.67,2.22,15.85,15.85,0,0,1,1.48,2.33c1.83,4.33,1.38,10.41,1.49,16.61-.08,0-.09,0-.1.09-.89,1.48-2.56,2.17-3.89,3.16-9.49,7-18.88,13.29-28.69,20.51-5.25,3.87-10.81,8-16.06,12.07-2.54,2-5.51,3.7-8.26,5.85A19.52,19.52,0,0,1,75,69.9c-1.59.7-3.42,2-4.92,2-3.73.2-3.66-2.6-4.36-5.75-.16-.73-.2-1.8-.37-2.79A7.85,7.85,0,0,1,65,60.71c.43-1.26,2.27-1.28,4.08-1.76a19.86,19.86,0,0,0,10.12-6.32,31,31,0,0,0,4.27-5.19,26.16,26.16,0,0,0,1.76-4.74,29.1,29.1,0,0,0,1.3-5.2A33.24,33.24,0,0,0,86.19,29c-.6-2.57-2.28-5.23-3.62-7.52-3.48-6-6.8-11.4-10.21-17.63-.47-.87-2-2.85-1.58-3.62A.7.7,0,0,1,71.06,0Z"/><path class="cls-4" d="M64.1,6a5.55,5.55,0,0,1-1.86,2.42c-.71.71-1.43,1.41-2.13,2.13C56.38,15.33,51.9,19.34,48,24c-.81,2.31-1.73,4.57-2.51,7s-2,4.6-2.41,7.06c-.5,2.77.28,5.89.09,9.09,0,.08.09.1.09.19a33.3,33.3,0,0,0,2.79,4.55,30.93,30.93,0,0,0,3,4.27c2.55,2.92,6.38,4.67,9.47,7.24,2.26,1.89,3.32,4.12,3.9,7.61a34.31,34.31,0,0,1,.27,3.81c.06,1.21.21,2.66-.55,3.52A3.18,3.18,0,0,1,59.46,78a13.41,13.41,0,0,1-2.32-1,11.57,11.57,0,0,1-2.23-3.15c-2-3.27-4.53-6.37-6.32-9.57a32.84,32.84,0,0,0-4.26-6.4c-.76-.82-1.66-1.82-2.61-2.69a15.44,15.44,0,0,0-2.87-2.42c-2-.94-6-1.55-8.64-1.76a22.09,22.09,0,0,0-7.52,1.11,29.82,29.82,0,0,0-5.29,3c-1.78,1.11-3.83,2-5.38,3.16s-2.83,3.15-4.18,4.73c-.67.8-1.43,1.57-2,2.42s-1,2-2.13,2.22c-.47-2-.19-4.12-.19-6.22,0-6.09-.88-12.21-1.11-18.56-.16-4.28-.22-8.53-.28-12.63-.07-4.31-.16-8.54.09-12.62C2.46,13,4.49,8.75,7.57,6.77,11.84,4,20.18,4.88,26.78,5.2c8.11.38,16.57-.26,25,.18,2.12.12,4.23.14,6.31.19A22.6,22.6,0,0,1,64.1,6Z"/><path class="cls-4" d="M137.81,75.19a9.69,9.69,0,0,1-3.62,1.21c-3.75.93-7.8,1.94-11.88,2.6-2.71.43-5.47.88-8.27,1.39s-5.55.72-8.35,1.21c-5.37.94-10.61,2.4-16.25,3.06a82.56,82.56,0,0,1-9.28.37c-4.44,0-9.82.55-11.51-2.32a14.45,14.45,0,0,1,.09-4.46c.41-1.36,1.92-2.57,3-3.52a30.73,30.73,0,0,1,3.62-2.88c2.84-.51,7.23-1.73,10.21-1a13.72,13.72,0,0,1,2.6,1.3c.9.42,1.85.72,2.69,1.11a34,34,0,0,0,5.29,2.41c1.87.49,5.21.5,7.43.75a17.44,17.44,0,0,0,2.32.27,10.6,10.6,0,0,0,3.53-1.39,67.88,67.88,0,0,0,9.28-5.2c1.75-2.66,3.42-5.57,5.11-8.54a66.31,66.31,0,0,0,4.64-8.91c1.87-4.86,3.92-9.63,5.57-14.76.76-2.36,2-4.15,2.69-6.68a9.88,9.88,0,0,1,.46-2.14c.51-.81,2.16-1.22,3-1.58,1.54-.68,1,1.83.93,2.23a83.49,83.49,0,0,0-.46,9.28,90.22,90.22,0,0,1-1,12c-.52,4-.63,8.18-.93,12.07S138.36,71.41,137.81,75.19Z"/><path class="cls-4" d="M63.36,95.8a10.63,10.63,0,0,1-5.48-.09,33.55,33.55,0,0,1-3.62-1.86c-3.54-1.79-6.44-4.26-10.12-6a66.69,66.69,0,0,0-7.71-3.16c-4-1.34-8.92-3.19-13.83-1.58a15.56,15.56,0,0,0-4.91,3.25A119.11,119.11,0,0,0,5.06,98c-.88.51-1.32,2-2.6,1.76-.6-.88-.44-2.12-.46-3.25-.12-6-.09-11.63-.37-17.82,0-1-.15-2.13-.19-3.44,0-1.14-.31-3,.28-3.25A.68.68,0,0,1,2,71.85c4.76.3,9.55,1,14.29,1.67,4.31.58,8.72,1,13,1.67,6.36,1,12.62,1.87,18.94,3.06,3.6.68,7.8.7,9.65,3.07.71.9,1,2.41,1.49,3.62s1.12,2.39,1.57,3.43C62,90.78,63.28,93,63.36,95.8Z"/><path class="cls-4" d="M132.7,80.11c1-.32.65,2.11.65,3.06,0,3.42-.07,6.85,0,10.68.09,4.55.52,9.17.84,13.46a176,176,0,0,1,.09,20.42c-.09,2.48.28,5.34-.37,7.52-.27.89-.87,1.79-1.3,2.79-1.14,2.62-3.37,6-5.94,7.05-1.75.72-4,.47-6.5.47s-4.77-.1-7-.19c-4.84-.2-10-.09-13.83-.09-4.61,0-9.17-.38-13.74-.38s-9.31-.24-13.74-.55c-1.08-2.28-1-5.21-1.3-8.08-.61-5.81-1.7-10.48-2.13-16.52-.18-2.36-.26-7.07,1.3-7.8,1-.46,2.51.12,3.61.56s2.44.74,3.44,1.11c6.45,2.39,13.31,5.17,19.77,7.34,6.84,2.29,13.53,4.58,20.33,6.86,1.13.38,2.3.78,3.44,1.12s2.24,1.05,3.43.65c.06-1.71-.85-3.29-1.48-4.83q-1.87-4.55-3.81-9.1c-.65-1.52-1.16-3.12-1.86-4.55a28.3,28.3,0,0,0-3.34-4.91,31.75,31.75,0,0,0-4.09-4.18c-7.39-3.42-16.49-.41-23.85,1.21A35.4,35.4,0,0,0,76,106.38c-2.39-.13-3.57.84-5.85,1.3-1.54.31-4,.5-4.82-.46s-.29-4-.1-5.39a34.77,34.77,0,0,1,2.6-9.37c.55-1.28,1.17-3.49,1.86-4.09a9.85,9.85,0,0,1,2.41-.93,12.09,12.09,0,0,1,2.6-.74,14.28,14.28,0,0,1,4.46,1C83,89.08,86.66,91.26,90,93a120.3,120.3,0,0,0,11,5.2,18.35,18.35,0,0,0,4,1.39,15,15,0,0,0,9.28-1.39c1.71-.91,3.31-2.65,4.92-4.08s3.11-3.1,4.55-4.46C126.89,86.68,129.62,83.33,132.7,80.11Z"/><path class="cls-4" d="M58.72,104.53a96.85,96.85,0,0,1,3.52,12.9c.32,1.41.93,2.89.65,4.36-.92.73-2.22.33-3.25.28-15.06-.71-30.44-1.35-45.2-2.41-1.17-.08-2.37-.13-3.53-.19s-2.16-.44-3.06.19c0,1.37,1,2.44,1.67,3.62s1.26,2.35,1.85,3.53a56.67,56.67,0,0,0,3.81,7c1.18,1.67,3.59,3.24,5.57,4.36a23.08,23.08,0,0,0,3.06,1.58,17.51,17.51,0,0,0,3.71,1.21,28,28,0,0,0,3.72.09,53.49,53.49,0,0,0,5.57-.19,16.34,16.34,0,0,0,3.25-1.2c1-.41,2.09-.92,3.06-1.3,5.54-2.2,8.4-5.78,13.46-8.63.83-.47,2.34-1.48,3-1.4.82.11,1.17,1.24,1.49,2.23s.8,1.86,1,2.6a43.82,43.82,0,0,1,1.11,6.78c.27,2.08,1.09,4.54.93,6.77-1.63.57-3.39.12-5.11.09s-3.67-.18-5.57-.18c-10.93,0-22.9.59-33.23.56-1.18,0-2.45-.19-3.71-.19-2.33,0-4,0-5.57-.74a11.54,11.54,0,0,1-3-2.23c-1.67-1.67-3.26-2.91-3.53-5.85-.24-2.63.23-5.7.37-8.63.33-6.81.52-14.37.84-21.45a10.51,10.51,0,0,1,.55-3.9A25.81,25.81,0,0,1,15,105.36c2.68.72,5.26,1.58,7.8,2.51,5.16,1.89,10.59,4.31,16.53,4.17,3.92-.09,7.11-2.37,9.93-4.08,1.13-.68,2.34-1.39,3.53-2.14C54.54,104.72,56.56,102.47,58.72,104.53Z"/><path class="cls-1" d="M169.2,24.29v-12h2.48l4.58,10.79h.37V12.33h1.31v12H175.5l-4.65-10.78h-.32V24.29Z"/><path class="cls-1" d="M189.85,18.4a8.16,8.16,0,0,1-1,4.63c-.68,1-1.92,1.43-3.71,1.43s-3-.49-3.71-1.46a8.25,8.25,0,0,1-1-4.63,8.45,8.45,0,0,1,1-4.68c.69-1,1.92-1.53,3.68-1.53a4.18,4.18,0,0,1,3.69,1.52A8.41,8.41,0,0,1,189.85,18.4Zm-8.09,0a7.72,7.72,0,0,0,.69,3.78,3.69,3.69,0,0,0,5.33,0,7.55,7.55,0,0,0,.68-3.76,8,8,0,0,0-.7-3.86,2.84,2.84,0,0,0-2.66-1.21,2.79,2.79,0,0,0-2.64,1.21A7.85,7.85,0,0,0,181.76,18.36Z"/><path class="cls-1" d="M193.53,20.7c0,1.73.93,2.59,2.8,2.59a3.33,3.33,0,0,0,2.18-.62,2.41,2.41,0,0,0,.74-2V12.33h1.31v8.33a3.61,3.61,0,0,1-1.06,2.91,4.82,4.82,0,0,1-3.14.89,4.74,4.74,0,0,1-3.12-.89,3.64,3.64,0,0,1-1-2.91V12.33h1.33Z"/><path class="cls-1" d="M204.74,19.71v4.58h-1.33v-12h4.43a4.15,4.15,0,0,1,2.86.88,3.57,3.57,0,0,1,1,2.75c0,1.84-.73,3-2.19,3.47l2.3,4.86h-1.47l-2.16-4.58Zm3.11-1.17A2.19,2.19,0,0,0,210.29,16a2.2,2.2,0,0,0-2.45-2.51h-3.1v5Z"/><path class="cls-1" d="M215.39,19.71v4.58h-1.33v-12h4.42a4.13,4.13,0,0,1,2.86.88,3.57,3.57,0,0,1,1,2.75c0,1.84-.73,3-2.19,3.47l2.3,4.86h-1.47l-2.16-4.58Zm3.11-1.17A2.2,2.2,0,0,0,220.94,16a2.2,2.2,0,0,0-2.46-2.51h-3.09v5Z"/><path class="cls-1" d="M224.7,24.29v-12H226v12Z"/><path class="cls-1" d="M230.29,19.71v4.58H229v-12h4.43a4.13,4.13,0,0,1,2.86.88,3.57,3.57,0,0,1,1,2.75c0,1.84-.73,3-2.2,3.47l2.3,4.86h-1.47l-2.16-4.58Zm3.11-1.17q2.43,0,2.43-2.52a2.19,2.19,0,0,0-2.45-2.51h-3.09v5Z"/><path class="cls-1" d="M170.44,39.9c0,1.73.93,2.59,2.8,2.59a3.35,3.35,0,0,0,2.19-.61,2.44,2.44,0,0,0,.73-2V31.53h1.31v8.33a3.61,3.61,0,0,1-1.06,2.91,4.74,4.74,0,0,1-3.14.9,4.64,4.64,0,0,1-3.11-.9,3.64,3.64,0,0,1-1-2.91V31.53h1.33Z"/><path class="cls-1" d="M180.32,43.49v-12h2.49l4.58,10.79h.37V31.53h1.31v12h-2.44L182,32.71h-.32V43.49Z"/><path class="cls-5" d="M196.16,43.49V27.71h4.45L204.13,40l3.53-12.33h4.47V43.49h-2.58v-13h-.35l-3.73,12.31H202.8l-3.74-12.31h-.34v13Z"/><path class="cls-5" d="M226.47,41.81c-.94,1.29-2.61,1.94-5,1.94s-4-.65-5-2-1.43-3.34-1.43-6.12.48-4.84,1.44-6.2,2.63-2,5-2,4,.67,5,2,1.43,3.41,1.43,6.21S227.42,40.52,226.47,41.81Zm-8-1.66a4,4,0,0,0,6,0,9.63,9.63,0,0,0,.77-4.49,9.85,9.85,0,0,0-.8-4.57,3.08,3.08,0,0,0-3-1.43,3.12,3.12,0,0,0-3,1.43,9.64,9.64,0,0,0-.81,4.55A9.34,9.34,0,0,0,218.49,40.15Z"/><path class="cls-5" d="M230.86,43.49V27.71h4.47l4.8,13.52h.34V27.71H243V43.49h-4.38l-4.91-13.55h-.32V43.49Z"/><path class="cls-5" d="M252.13,43.49h-5.46V27.71h5.46q3.63,0,5,1.84c.9,1.23,1.34,3.16,1.34,5.79a19.28,19.28,0,0,1-.26,3.4,7.78,7.78,0,0,1-.94,2.52C256.37,42.75,254.66,43.49,252.13,43.49Zm3.66-8.15a9,9,0,0,0-.71-4.13c-.48-.84-1.46-1.27-3-1.27h-2.9V41.23h2.9a3,3,0,0,0,3-1.68,6.44,6.44,0,0,0,.49-1.82A17.75,17.75,0,0,0,255.79,35.34Z"/><path class="cls-5" d="M261.44,43.49V27.71h9.95v2.23H264v4.47h6v2.22h-6v4.6h7.39v2.26Z"/><path class="cls-1" d="M169.09,62.69V50.86h7.47v1.67H171v3.36h4.51v1.66H171V61h5.55v1.69Z"/><path class="cls-1" d="M178.65,62.69V50.86H182L185.6,61h.25V50.86h1.92V62.69h-3.28l-3.68-10.16h-.24V62.69Z"/><path class="cls-6" d="M204,62.46a18.85,18.85,0,0,1-4,.49,7.6,7.6,0,0,1-2.87-.45,3.49,3.49,0,0,1-1.69-1.41,6.2,6.2,0,0,1-.84-2.28,18.76,18.76,0,0,1-.24-3.3c0-2.77.4-4.7,1.18-5.8s2.22-1.63,4.32-1.63a18.36,18.36,0,0,1,4.2.57L204,51a24.18,24.18,0,0,0-3.48-.31,3.84,3.84,0,0,0-2,.37,2.23,2.23,0,0,0-.88,1.4,15,15,0,0,0-.29,3.53,7.16,7.16,0,0,0,.59,3.45,2.49,2.49,0,0,0,2.32,1,24.67,24.67,0,0,0,3.71-.3Z"/><path class="cls-6" d="M214.65,62.69V56.74h-5.34v5.95h-2.92V48.33h2.92V54.2h5.34V48.33h2.92V62.69Z"/><path class="cls-6" d="M219.49,62.69l3.23-14.36h5.54l3.23,14.36h-2.92L228,60.1h-5l-.57,2.59ZM225,50.74l-1.46,6.82h3.93L226,50.74Z"/><path class="cls-6" d="M233.41,62.69V48.33h4.92l3.46,11.83H242V48.33h2.91V62.69h-4.79l-3.59-11.82h-.22V62.69Z"/><path class="cls-6" d="M254,57.54V55h4.19v7.45a31.68,31.68,0,0,1-4.9.49q-3.36,0-4.62-1.8t-1.26-5.7c0-2.61.44-4.48,1.31-5.64s2.36-1.73,4.46-1.73a22.82,22.82,0,0,1,4.25.44l.76.15-.09,2.26a40.69,40.69,0,0,0-4.15-.27,4.93,4.93,0,0,0-2.27.37,2.29,2.29,0,0,0-1,1.41,14,14,0,0,0-.31,3.51,7,7,0,0,0,.62,3.47,2.75,2.75,0,0,0,2.53,1l1.75-.08V57.54Z"/><path class="cls-6" d="M261,62.69V48.33h9.3v2.54h-6.38v3.35H269v2.5h-5.11v3.44h6.38v2.53Z"/><path class="cls-6" d="M272.65,62.69V48.33h5l2.53,10.48,2.54-10.48h5V62.69h-2.91V51.58h-.32l-2.81,10.48h-2.92l-2.81-10.48h-.31V62.69Z"/><path class="cls-6" d="M290.78,62.69V48.33h9.29v2.54h-6.38v3.35h5.11v2.5h-5.11v3.44h6.38v2.53Z"/><path class="cls-6" d="M302.48,62.69V48.33h4.92l3.46,11.83h.21V48.33H314V62.69h-4.8L305.6,50.87h-.21V62.69Z"/><path class="cls-6" d="M315.82,50.91V48.33h10.56v2.58h-3.8V62.69h-2.91V50.91Z"/></g></g></svg>