<svg xmlns="http://www.w3.org/2000/svg" viewBox="0 0 137.59 77.37"><defs><style>.cls-1,.cls-2{fill:#88b04b;}.cls-1{opacity:0.32;}.cls-2{fill-rule:evenodd;}.cls-3{fill:#13322b;}</style></defs><g id="Calque_2" data-name="Calque 2"><g id="Calque_1-2" data-name="Calque 1"><path class="cls-1" d="M10.13,77.37l20-19.15L57.87,31l67.87-2.4L75.13,35.22,55.77,40.35Z"/><text/><g id="lake_forest_open_lands_association"><path class="cls-2" d="M24.93,0c3.3,0,6.65.5,10.35.5,1.69,0,3.56,0,5.35.13,2.24.15,4.65-.25,5.9.86a4.39,4.39,0,0,1,.6.8,4.45,4.45,0,0,1,.53.83c.66,1.55.49,3.72.53,5.94,0,0,0,0,0,0a4.61,4.61,0,0,1-1.39,1.13C43.38,12.73,40,15,36.51,17.56c-1.88,1.38-3.86,2.86-5.74,4.31-.91.71-2,1.32-3,2.09a6.62,6.62,0,0,1-1.49,1,6.34,6.34,0,0,1-1.76.73c-1.33.07-1.31-.93-1.56-2.06-.05-.26-.07-.64-.13-1a2.71,2.71,0,0,1-.1-1c.15-.46.81-.46,1.46-.63a7.16,7.16,0,0,0,3.62-2.26A10.81,10.81,0,0,0,29.37,17,8.83,8.83,0,0,0,30,15.27a9.94,9.94,0,0,0,.47-1.86,12.36,12.36,0,0,0-.13-3.05A10.61,10.61,0,0,0,29,7.67c-1.24-2.14-2.43-4.08-3.65-6.31-.17-.31-.73-1-.56-1.29A.26.26,0,0,1,24.93,0Z"/><path class="cls-2" d="M22.44,2.16a1.91,1.91,0,0,1-.67.86L21,3.78c-1.33,1.7-2.93,3.13-4.32,4.78-.29.83-.61,1.64-.89,2.49a20.27,20.27,0,0,0-.87,2.52c-.17,1,.1,2.11,0,3.26,0,0,0,0,0,.06a12.59,12.59,0,0,0,1,1.63,11.14,11.14,0,0,0,1.06,1.53,28.7,28.7,0,0,0,3.38,2.59,4,4,0,0,1,1.4,2.72,11.42,11.42,0,0,1,.1,1.36,1.83,1.83,0,0,1-.2,1.26,1.14,1.14,0,0,1-1-.1,4.24,4.24,0,0,1-.83-.37,4.25,4.25,0,0,1-.8-1.12c-.72-1.17-1.62-2.28-2.26-3.42a11.68,11.68,0,0,0-1.52-2.29c-.27-.3-.6-.65-.93-1a5.73,5.73,0,0,0-1-.86,10.84,10.84,0,0,0-3.09-.63,8.07,8.07,0,0,0-2.69.4,10.71,10.71,0,0,0-1.89,1.06c-.64.4-1.37.7-1.92,1.13a11.11,11.11,0,0,0-1.5,1.69c-.24.29-.51.56-.73.86s-.36.74-.76.8a9.66,9.66,0,0,1-.07-2.22c0-2.18-.31-4.37-.39-6.64C.31,13.77.29,12.25.26,10.78s-.05-3,0-4.51A5,5,0,0,1,2.22,2.42c1.53-1,4.51-.67,6.87-.56C12,2,15,1.76,18,1.93c.76,0,1.51,0,2.26.06A8.23,8.23,0,0,1,22.44,2.16Z"/><path class="cls-2" d="M48.79,26.88a3.59,3.59,0,0,1-1.29.44c-1.34.33-2.79.69-4.25.93-1,.15-2,.31-3,.49s-2,.26-3,.43c-1.92.34-3.79.86-5.81,1.1a29.15,29.15,0,0,1-3.32.13c-1.59,0-3.51.2-4.12-.83a4.84,4.84,0,0,1,0-1.59,3.28,3.28,0,0,1,1.06-1.26,10,10,0,0,1,1.29-1,10.47,10.47,0,0,1,3.65-.37,4.78,4.78,0,0,1,.93.47c.32.15.66.26,1,.4a11.52,11.52,0,0,0,1.89.86,23.1,23.1,0,0,0,2.65.26,4.26,4.26,0,0,0,.83.1,3.87,3.87,0,0,0,1.26-.49A24,24,0,0,0,42,25.06c.63-1,1.22-2,1.83-3.06a24.48,24.48,0,0,0,1.66-3.18c.67-1.74,1.4-3.45,2-5.28.27-.84.71-1.48,1-2.39a3.05,3.05,0,0,1,.17-.76c.18-.29.77-.44,1.06-.57.55-.24.35.66.33.8a29.66,29.66,0,0,0-.17,3.32,32,32,0,0,1-.36,4.28c-.18,1.44-.22,2.92-.33,4.31S49,25.53,48.79,26.88Z"/><path class="cls-2" d="M22.17,34.25a3.73,3.73,0,0,1-2,0,13.11,13.11,0,0,1-1.29-.66c-1.27-.64-2.3-1.53-3.62-2.16a24.65,24.65,0,0,0-2.75-1.13c-1.43-.48-3.2-1.14-5-.57a5.58,5.58,0,0,0-1.76,1.17,42.68,42.68,0,0,0-4.51,4.18c-.32.18-.47.7-.93.63a2.13,2.13,0,0,1-.17-1.16c0-2.16,0-4.16-.13-6.38,0-.34,0-.76-.07-1.22s-.11-1.09.1-1.16a.23.23,0,0,1,.1-.07c1.71.11,3.42.37,5.11.6s3.12.36,4.65.59c2.27.35,4.51.67,6.77,1.1,1.29.24,2.79.25,3.45,1.09a5.89,5.89,0,0,1,.53,1.3c.18.42.41.85.57,1.23A7.07,7.07,0,0,1,22.17,34.25Z"/><path class="cls-2" d="M47,28.64c.34-.11.23.76.23,1.1,0,1.22,0,2.45,0,3.82,0,1.62.18,3.27.3,4.81a65.81,65.81,0,0,1,0,7.3,11.82,11.82,0,0,1-.13,2.69,9.68,9.68,0,0,1-.47,1,5,5,0,0,1-2.12,2.53,6.81,6.81,0,0,1-2.33.16c-.9,0-1.7,0-2.49-.06-1.72-.08-3.56,0-4.94,0-1.65,0-3.28-.13-4.91-.13s-3.33-.09-4.91-.2a9.26,9.26,0,0,1-.47-2.89c-.22-2.07-.61-3.74-.76-5.91-.06-.84-.09-2.52.46-2.78a1.86,1.86,0,0,1,1.3.2c.43.17.87.26,1.22.39,2.31.86,4.76,1.85,7.07,2.63l7.27,2.45c.41.14.83.28,1.23.4s.8.38,1.23.23a4.42,4.42,0,0,0-.53-1.72c-.45-1.09-.9-2.17-1.36-3.26-.23-.54-.42-1.11-.67-1.62A10.25,10.25,0,0,0,40,38a11.45,11.45,0,0,0-1.46-1.49c-2.65-1.23-5.9-.15-8.53.43A12.44,12.44,0,0,0,26.69,38a7.25,7.25,0,0,0-2.1.46c-.55.11-1.43.18-1.72-.17s-.1-1.42,0-1.92a12.13,12.13,0,0,1,.92-3.35,5.72,5.72,0,0,1,.67-1.46,3.76,3.76,0,0,1,.86-.34,4,4,0,0,1,.93-.26,5.2,5.2,0,0,1,1.59.36,29.28,29.28,0,0,1,3.89,1.9c1.27.67,2.51,1.28,3.91,1.86a6.74,6.74,0,0,0,1.43.49,5.4,5.4,0,0,0,3.32-.49,11.07,11.07,0,0,0,1.76-1.46c.57-.52,1.11-1.11,1.63-1.6C44.89,31,45.86,29.79,47,28.64Z"/><path class="cls-2" d="M20.51,37.37A34.88,34.88,0,0,1,21.77,42,3.78,3.78,0,0,1,22,43.55c-.33.26-.8.11-1.17.1-5.38-.26-10.88-.49-16.16-.87l-1.26-.06c-.36,0-.77-.16-1.1.06a3.34,3.34,0,0,0,.6,1.3c.22.41.45.84.66,1.26A20.3,20.3,0,0,0,5,47.83a6.54,6.54,0,0,0,2,1.56A9.26,9.26,0,0,0,8,50a6.26,6.26,0,0,0,1.33.43,9.45,9.45,0,0,0,1.33,0c.64,0,1.39,0,2-.07a5.36,5.36,0,0,0,1.16-.43c.38-.15.75-.33,1.1-.47,2-.78,3-2.06,4.81-3.08.29-.17.83-.53,1.06-.5s.42.44.53.8.29.66.37.93A16.1,16.1,0,0,1,22.1,50a12.72,12.72,0,0,1,.34,2.42,5.34,5.34,0,0,1-1.83,0c-.65,0-1.31-.06-2-.06-3.91,0-8.19.21-11.88.2-.43,0-.88-.07-1.33-.07a4.29,4.29,0,0,1-2-.27,4,4,0,0,1-1.06-.79A3.09,3.09,0,0,1,1.1,49.39a23.58,23.58,0,0,1,.13-3.09c.11-2.43.18-5.14.3-7.67a3.55,3.55,0,0,1,.2-1.39,9.17,9.17,0,0,1,3.15.43c1,.26,1.88.56,2.79.9,1.84.67,3.78,1.54,5.91,1.49a7.3,7.3,0,0,0,3.55-1.46l1.26-.76C19,37.44,19.74,36.64,20.51,37.37Z"/></g><path class="cls-3" d="M75.85,21.73l1.35-.16.51,1.48-.89.7H72.59l-1.3-2.9-6.67,0-.49,1.33,1,1.6H60.74L66.85,10l-1-2.49h4.23Zm-10.7-2.51,5.42-.16L67.9,12.64Z"/><path class="cls-3" d="M90.59,14.2c0,.8,0,1.62,0,2.46s0,1.64,0,2.41V21l-2.86,2.86H81.94l-2.63-2.18V14.1l-1.6-.9.58-1.07h4.37l0,8.44.82,1.69L86.15,22l1-1.72,0-6.35-.23-.16-.3-.25-.28-.23-.17-.13v-1h4.42Z"/><path class="cls-3" d="M97.55,19.23c0,1,0,2,0,2.92l1,.39c0,.2,0,.4,0,.6s0,.39,0,.61H94.19c0-.23,0-.55,0-1s0-.87,0-1.39,0-1,0-1.61V13.92l-1.19-.75.56-1h3.67l.14,2.14a13.45,13.45,0,0,1,1.47-1.21,8.36,8.36,0,0,1,1.36-.83,3.07,3.07,0,0,1,1.36-.36,3.41,3.41,0,0,1,1.09.17,4.54,4.54,0,0,1,.86.36,3.59,3.59,0,0,1,.61.39l.34.27-.88,2.49-3-.7a3.07,3.07,0,0,0-.78.24c-.31.13-.61.28-.91.43s-.58.31-.83.47l-.55.35C97.54,17.23,97.54,18.2,97.55,19.23Z"/><path class="cls-3" d="M109.92,21.35a3.31,3.31,0,0,0,2.52,1.08,3.22,3.22,0,0,0,1.35-.93c.37-.44.77-.94,1.21-1.51l2.6,1a1.89,1.89,0,0,1-.33.64,6.75,6.75,0,0,1-.77.93,6.35,6.35,0,0,1-1.07.85,2.39,2.39,0,0,1-1.15.39h-5.7a1.81,1.81,0,0,1-1.27-.73,7.44,7.44,0,0,1-1.17-1.81,9.77,9.77,0,0,1-.75-2.31,5.15,5.15,0,0,1,0-2.22c.08-.26.21-.62.39-1.06a7.67,7.67,0,0,1,.75-1.36A6.46,6.46,0,0,1,107.7,13a3.6,3.6,0,0,1,1.6-.79,15.05,15.05,0,0,1,1.51-.19,17.56,17.56,0,0,1,1.78,0,10.8,10.8,0,0,1,1.67.15,3,3,0,0,1,1.18.4,4.27,4.27,0,0,1,.73.74,5.61,5.61,0,0,1,.7,1.1,7.24,7.24,0,0,1,.51,1.35,6.52,6.52,0,0,1,.22,1.44L116,18.43l-7,.39A4.55,4.55,0,0,0,109.92,21.35Zm4-5.35c-.1-.37-.22-.74-.37-1.14a8.21,8.21,0,0,0-.46-1.06c-.16-.31-.32-.47-.46-.49a2.22,2.22,0,0,0-.59,0c-.24.05-.49.1-.74.17a6.94,6.94,0,0,0-.73.24A3.11,3.11,0,0,0,110,14a1.87,1.87,0,0,0-.33.51,6.53,6.53,0,0,0-.3.79,7.09,7.09,0,0,0-.22.91,4.39,4.39,0,0,0-.08.84l5-.33A5.9,5.9,0,0,0,113.91,16Z"/><path class="cls-3" d="M124.09,21.8l1.65.49v1.46h-4.89l.05-14.34-1.79-.82.3-1.11h4.68Z"/><path class="cls-3" d="M61.53,52.61V45.69H63l2.65,6.24h.21V45.69h.76v6.92H65.18l-2.69-6.24H62.3v6.24Z"/><path class="cls-3" d="M73.48,49.2a4.64,4.64,0,0,1-.59,2.68,3.16,3.16,0,0,1-4.29,0A4.75,4.75,0,0,1,68,49.19a4.88,4.88,0,0,1,.6-2.71,2.39,2.39,0,0,1,2.13-.89,2.44,2.44,0,0,1,2.14.88A4.93,4.93,0,0,1,73.48,49.2Zm-4.68,0a4.52,4.52,0,0,0,.4,2.19,2.15,2.15,0,0,0,3.09,0,4.47,4.47,0,0,0,.39-2.18A4.53,4.53,0,0,0,72.27,47a2,2,0,0,0-3.06,0A4.55,4.55,0,0,0,68.8,49.18Z"/><path class="cls-3" d="M75.61,50.53q0,1.5,1.62,1.5a1.94,1.94,0,0,0,1.27-.35,1.43,1.43,0,0,0,.42-1.15V45.69h.76v4.82a2.07,2.07,0,0,1-.61,1.68,2.74,2.74,0,0,1-1.82.52,2.67,2.67,0,0,1-1.8-.52,2.07,2.07,0,0,1-.61-1.68V45.69h.77Z"/><path class="cls-3" d="M82.1,50v2.65h-.77V45.69h2.56a2.37,2.37,0,0,1,1.66.51,2.06,2.06,0,0,1,.55,1.59,1.85,1.85,0,0,1-1.27,2l1.33,2.81h-.85L84.06,50Zm1.8-.68a1.46,1.46,0,0,0,0-2.91H82.1v2.91Z"/><path class="cls-3" d="M88.26,50v2.65h-.77V45.69h2.56a2.37,2.37,0,0,1,1.66.51,2.06,2.06,0,0,1,.55,1.59,1.85,1.85,0,0,1-1.27,2l1.33,2.81h-.85L90.22,50Zm1.8-.68a1.46,1.46,0,0,0,0-2.91H88.26v2.91Z"/><path class="cls-3" d="M93.65,52.61V45.69h.77v6.92Z"/><path class="cls-3" d="M96.88,50v2.65h-.77V45.69h2.56a2.37,2.37,0,0,1,1.66.51,2.06,2.06,0,0,1,.55,1.59,1.85,1.85,0,0,1-1.27,2l1.33,2.81h-.85L98.84,50Zm1.8-.68a1.46,1.46,0,0,0,0-2.91H96.88v2.91Z"/><path class="cls-3" d="M62.25,60.53q0,1.5,1.62,1.5a1.94,1.94,0,0,0,1.27-.35,1.43,1.43,0,0,0,.42-1.15V55.69h.76v4.82a2.07,2.07,0,0,1-.61,1.68,2.74,2.74,0,0,1-1.82.52,2.67,2.67,0,0,1-1.8-.52,2.07,2.07,0,0,1-.61-1.68V55.69h.77Z"/><path class="cls-3" d="M68,62.61V55.69h1.44l2.65,6.24h.21V55.69H73v6.92H71.62l-2.69-6.24h-.19v6.24Z"/><path class="cls-3" d="M76.93,62.61V55.69h1.39l2,5.85,2-5.85h1.39v6.92h-.77v-6.1h-.14l-2,5.85h-.86l-2-5.85H77.7v6.1Z"/><path class="cls-3" d="M90.52,59.2a4.64,4.64,0,0,1-.59,2.68,3.16,3.16,0,0,1-4.29,0,4.75,4.75,0,0,1-.59-2.67,4.88,4.88,0,0,1,.6-2.71,2.39,2.39,0,0,1,2.13-.89,2.44,2.44,0,0,1,2.14.88A4.93,4.93,0,0,1,90.52,59.2Zm-4.68,0a4.52,4.52,0,0,0,.4,2.19,2.15,2.15,0,0,0,3.09,0,4.47,4.47,0,0,0,.39-2.18A4.53,4.53,0,0,0,89.31,57a2,2,0,0,0-3.06,0A4.55,4.55,0,0,0,85.84,59.18Z"/><path class="cls-3" d="M91.93,62.61V55.69h1.44L96,61.93h.21V55.69H97v6.92H95.58l-2.69-6.24H92.7v6.24Z"/><path class="cls-3" d="M101.16,62.61H98.69V55.69h2.47A2.17,2.17,0,0,1,103.4,57a5.24,5.24,0,0,1,.32,2c0,1.74-.43,2.84-1.3,3.29A2.67,2.67,0,0,1,101.16,62.61Zm1.77-3.56c0-1.32-.3-2.15-.89-2.48a1.82,1.82,0,0,0-.88-.2h-1.7v5.56h1.7Q102.93,61.93,102.93,59.05Z"/><path class="cls-3" d="M105.14,62.61V55.69h4.21v.68h-3.44v2.39h2.84v.67h-2.84v2.5h3.44v.68Z"/><path class="cls-3" d="M61.53,72.61V65.69h4.21v.68H62.3v2.39h2.84v.67H62.3v2.5h3.44v.68Z"/><path class="cls-3" d="M67.06,72.61V65.69H68.5l2.65,6.24h.21V65.69h.76v6.92H70.71L68,66.37h-.19v6.24Z"/><path class="cls-3" d="M80.2,72.5a9.28,9.28,0,0,1-1.85.21A3.24,3.24,0,0,1,77,72.49a1.61,1.61,0,0,1-.78-.7,3.13,3.13,0,0,1-.38-1.09,9.3,9.3,0,0,1-.11-1.54,9.47,9.47,0,0,1,.11-1.54,3.17,3.17,0,0,1,.38-1.11,1.63,1.63,0,0,1,.77-.7,3.42,3.42,0,0,1,1.3-.22,10.07,10.07,0,0,1,1.88.22l0,.65a10.32,10.32,0,0,0-1.8-.18,1.49,1.49,0,0,0-1.45.66,5,5,0,0,0-.36,2.23,8.65,8.65,0,0,0,.07,1.27,2.67,2.67,0,0,0,.25.87,1.11,1.11,0,0,0,.56.55,2.7,2.7,0,0,0,1.07.16,9.16,9.16,0,0,0,1.66-.18Z"/><path class="cls-3" d="M85.75,72.61V69.48H82.23v3.13h-.77V65.69h.77v3.1h3.52v-3.1h.76v6.92Z"/><path class="cls-3" d="M87.6,72.61l1.9-6.92h1.68l1.9,6.92h-.76l-.5-1.78h-3l-.5,1.78Zm2.48-6.26-1,3.79h2.62L90.6,66.35Z"/><path class="cls-3" d="M94.17,72.61V65.69h1.44l2.65,6.24h.21V65.69h.76v6.92H97.82l-2.69-6.24h-.19v6.24Z"/><path class="cls-3" d="M103.67,69.76v-.69h1.91v3.4a12.17,12.17,0,0,1-2.25.24,2.34,2.34,0,0,1-2.09-.87,6.4,6.4,0,0,1,0-5.37,2.32,2.32,0,0,1,2.07-.88,10,10,0,0,1,1.93.2l.34.06,0,.64a13,13,0,0,0-2.15-.21,1.68,1.68,0,0,0-1.55.67,6.31,6.31,0,0,0,0,4.42,1.66,1.66,0,0,0,1.54.66,7,7,0,0,0,1.43-.14V69.76Z"/><path class="cls-3" d="M107.09,72.61V65.69h4.21v.68h-3.44v2.39h2.84v.67h-2.84v2.5h3.44v.68Z"/><path class="cls-3" d="M112.62,72.61V65.69H114l2,5.85,2-5.85h1.39v6.92h-.77v-6.1h-.14l-2,5.85h-.86l-2-5.85h-.14v6.1Z"/><path class="cls-3" d="M121,72.61V65.69h4.21v.68h-3.44v2.39h2.84v.67h-2.84v2.5h3.44v.68Z"/><path class="cls-3" d="M126.55,72.61V65.69H128l2.65,6.24h.21V65.69h.76v6.92H130.2l-2.69-6.24h-.19v6.24Z"/><path class="cls-3" d="M132.59,66.38v-.69h5v.69h-2.11v6.23h-.76V66.38Z"/></g></g></svg>