<svg id="Calque_1" data-name="Calque 1" xmlns="http://www.w3.org/2000/svg" viewBox="0 0 550 407"><defs><style>.cls-1{fill:#d0d0ce;}.cls-2{fill:#98bc62;}.cls-3{fill:#13322b;}.cls-4,.cls-5{fill:#88b04b;}.cls-4{fill-rule:evenodd;}.cls-6{fill:#bfd833;}.cls-7{fill:#fff;}</style></defs><rect class="cls-1" x="83.48" y="97.38" width="3.94" height="3.94"/><rect class="cls-1" x="91.37" y="97.38" width="3.94" height="3.94"/><rect class="cls-1" x="83.48" y="89.5" width="3.94" height="3.94"/><rect class="cls-1" x="91.37" y="89.5" width="3.94" height="3.94"/><rect class="cls-1" x="91.37" y="105.27" width="3.94" height="3.94"/><rect class="cls-2" x="81.87" y="111.56" width="7.16" height="7.16"/><rect class="cls-1" x="91.37" y="113.16" width="3.94" height="3.94"/><rect class="cls-1" x="83.48" y="121.05" width="3.94" height="3.94"/><rect class="cls-1" x="91.37" y="121.05" width="3.94" height="3.94"/><rect class="cls-1" x="83.48" y="128.94" width="3.94" height="3.94"/><rect class="cls-1" x="91.37" y="128.94" width="3.94" height="3.94"/><rect class="cls-1" x="99.25" y="97.38" width="3.94" height="3.94"/><rect class="cls-1" x="99.25" y="105.27" width="3.94" height="3.94"/><rect class="cls-1" x="107.14" y="97.38" width="3.94" height="3.94"/><rect class="cls-1" x="99.25" y="89.5" width="3.94" height="3.94"/><rect class="cls-1" x="107.14" y="89.5" width="3.94" height="3.94"/><rect class="cls-1" x="107.14" y="105.27" width="3.94" height="3.94"/><rect class="cls-1" x="99.25" y="113.16" width="3.94" height="3.94"/><rect class="cls-1" x="107.14" y="113.16" width="3.94" height="3.94"/><rect class="cls-1" x="99.25" y="121.05" width="3.94" height="3.94"/><rect class="cls-1" x="107.14" y="121.05" width="3.94" height="3.94"/><rect class="cls-1" x="99.25" y="128.94" width="3.94" height="3.94"/><rect class="cls-1" x="107.14" y="128.94" width="3.94" height="3.94"/><rect class="cls-1" x="115.03" y="97.38" width="3.94" height="3.94"/><rect class="cls-1" x="115.03" y="89.5" width="3.94" height="3.94"/><rect class="cls-1" x="115.03" y="105.27" width="3.94" height="3.94"/><rect class="cls-1" x="115.03" y="113.16" width="3.94" height="3.94"/><rect class="cls-1" x="115.03" y="121.05" width="3.94" height="3.94"/><rect class="cls-1" x="115.03" y="128.94" width="3.94" height="3.94"/><rect class="cls-1" x="122.92" y="97.38" width="3.94" height="3.94"/><rect class="cls-1" x="122.92" y="105.27" width="3.94" height="3.94"/><rect class="cls-1" x="122.92" y="89.5" width="3.94" height="3.94"/><rect class="cls-1" x="130.81" y="89.5" width="3.94" height="3.94"/><rect class="cls-1" x="130.81" y="105.27" width="3.94" height="3.94"/><rect class="cls-1" x="122.92" y="113.16" width="3.94" height="3.94"/><rect class="cls-1" x="130.81" y="113.16" width="3.94" height="3.94"/><rect class="cls-1" x="122.92" y="121.05" width="3.94" height="3.94"/><rect class="cls-1" x="130.81" y="121.05" width="3.94" height="3.94"/><rect class="cls-1" x="122.92" y="128.94" width="3.94" height="3.94"/><rect class="cls-1" x="130.81" y="128.94" width="3.94" height="3.94"/><rect class="cls-1" x="28.26" y="81.61" width="3.94" height="3.94"/><rect class="cls-1" x="36.14" y="81.61" width="3.94" height="3.94"/><rect class="cls-1" x="51.92" y="50.05" width="3.94" height="3.94"/><rect class="cls-1" x="44.03" y="42.16" width="3.94" height="3.94"/><rect class="cls-1" x="51.92" y="57.94" width="3.94" height="3.94"/><rect class="cls-1" x="51.92" y="65.83" width="3.94" height="3.94"/><rect class="cls-1" x="44.03" y="73.72" width="3.94" height="3.94"/><rect class="cls-1" x="51.92" y="73.72" width="3.94" height="3.94"/><rect class="cls-1" x="59.81" y="50.05" width="3.94" height="3.94"/><rect class="cls-1" x="59.81" y="42.16" width="3.94" height="3.94"/><rect class="cls-1" x="59.81" y="57.94" width="3.94" height="3.94"/><rect class="cls-1" x="59.81" y="65.83" width="3.94" height="3.94"/><rect class="cls-1" x="67.7" y="50.05" width="3.94" height="3.94"/><rect class="cls-1" x="67.7" y="57.94" width="3.94" height="3.94"/><rect class="cls-1" x="75.59" y="50.05" width="3.94" height="3.94"/><rect class="cls-1" x="67.7" y="42.16" width="3.94" height="3.94"/><rect class="cls-1" x="75.59" y="42.16" width="3.94" height="3.94"/><rect class="cls-1" x="75.59" y="57.94" width="3.94" height="3.94"/><rect class="cls-1" x="75.59" y="65.83" width="3.94" height="3.94"/><rect class="cls-1" x="83.48" y="50.05" width="3.94" height="3.94"/><rect class="cls-1" x="83.48" y="57.94" width="3.94" height="3.94"/><rect class="cls-1" x="91.37" y="50.05" width="3.94" height="3.94"/><rect class="cls-1" x="83.48" y="42.16" width="3.94" height="3.94"/><rect class="cls-1" x="91.37" y="42.16" width="3.94" height="3.94"/><rect class="cls-1" x="91.37" y="57.94" width="3.94" height="3.94"/><rect class="cls-1" x="83.48" y="65.83" width="3.94" height="3.94"/><rect class="cls-1" x="91.37" y="65.83" width="3.94" height="3.94"/><rect class="cls-1" x="83.48" y="73.72" width="3.94" height="3.94"/><rect class="cls-1" x="91.37" y="73.72" width="3.94" height="3.94"/><rect class="cls-1" x="83.48" y="81.61" width="3.94" height="3.94"/><rect class="cls-1" x="91.37" y="81.61" width="3.94" height="3.94"/><rect class="cls-1" x="99.25" y="50.05" width="3.94" height="3.94"/><rect class="cls-1" x="99.25" y="57.94" width="3.94" height="3.94"/><rect class="cls-1" x="99.25" y="42.16" width="3.94" height="3.94"/><rect class="cls-1" x="107.14" y="42.16" width="3.94" height="3.94"/><rect class="cls-1" x="107.14" y="57.94" width="3.94" height="3.94"/><rect class="cls-1" x="99.25" y="65.83" width="3.94" height="3.94"/><rect class="cls-1" x="107.14" y="65.83" width="3.94" height="3.94"/><rect class="cls-1" x="99.25" y="73.72" width="3.94" height="3.94"/><rect class="cls-1" x="107.14" y="73.72" width="3.94" height="3.94"/><rect class="cls-1" x="99.25" y="81.61" width="3.94" height="3.94"/><rect class="cls-1" x="107.14" y="81.61" width="3.94" height="3.94"/><rect class="cls-1" x="115.03" y="50.05" width="3.94" height="3.94"/><rect class="cls-1" x="115.03" y="42.16" width="3.94" height="3.94"/><rect class="cls-1" x="115.03" y="57.94" width="3.94" height="3.94"/><rect class="cls-1" x="115.03" y="73.72" width="3.94" height="3.94"/><rect class="cls-1" x="115.03" y="81.61" width="3.94" height="3.94"/><rect class="cls-1" x="122.92" y="50.05" width="3.94" height="3.94"/><rect class="cls-1" x="122.92" y="57.94" width="3.94" height="3.94"/><rect class="cls-1" x="122.92" y="42.16" width="3.94" height="3.94"/><rect class="cls-1" x="130.81" y="42.16" width="3.94" height="3.94"/><rect class="cls-1" x="130.81" y="57.94" width="3.94" height="3.94"/><rect class="cls-1" x="122.92" y="65.83" width="3.94" height="3.94"/><rect class="cls-1" x="130.81" y="65.83" width="3.94" height="3.94"/><rect class="cls-1" x="122.92" y="73.72" width="3.94" height="3.94"/><rect class="cls-1" x="130.81" y="73.72" width="3.94" height="3.94"/><rect class="cls-1" x="122.92" y="81.61" width="3.94" height="3.94"/><rect class="cls-1" x="130.81" y="81.61" width="3.94" height="3.94"/><rect class="cls-1" x="138.7" y="97.38" width="3.94" height="3.94"/><rect class="cls-1" x="146.59" y="97.38" width="3.94" height="3.94"/><rect class="cls-1" x="138.7" y="89.5" width="3.94" height="3.94"/><rect class="cls-1" x="146.59" y="89.5" width="3.94" height="3.94"/><rect class="cls-1" x="146.59" y="105.27" width="3.94" height="3.94"/><rect class="cls-1" x="138.7" y="113.16" width="3.94" height="3.94"/><rect class="cls-1" x="138.7" y="121.05" width="3.94" height="3.94"/><rect class="cls-1" x="146.59" y="121.05" width="3.94" height="3.94"/><rect class="cls-1" x="138.7" y="128.94" width="3.94" height="3.94"/><rect class="cls-1" x="146.59" y="128.94" width="3.94" height="3.94"/><rect class="cls-1" x="154.47" y="97.38" width="3.94" height="3.94"/><rect class="cls-1" x="154.47" y="105.27" width="3.94" height="3.94"/><rect class="cls-1" x="162.36" y="97.38" width="3.94" height="3.94"/><rect class="cls-1" x="162.36" y="89.5" width="3.94" height="3.94"/><rect class="cls-1" x="162.36" y="105.27" width="3.94" height="3.94"/><rect class="cls-1" x="154.47" y="113.16" width="3.94" height="3.94"/><rect class="cls-1" x="162.36" y="113.16" width="3.94" height="3.94"/><rect class="cls-1" x="154.47" y="121.05" width="3.94" height="3.94"/><rect class="cls-1" x="162.36" y="121.05" width="3.94" height="3.94"/><rect class="cls-2" x="152.87" y="127.33" width="7.16" height="7.16"/><rect class="cls-1" x="170.25" y="97.38" width="3.94" height="3.94"/><rect class="cls-1" x="170.25" y="89.5" width="3.94" height="3.94"/><rect class="cls-1" x="170.25" y="113.16" width="3.94" height="3.94"/><rect class="cls-1" x="178.14" y="97.38" width="3.94" height="3.94"/><rect class="cls-1" x="178.14" y="105.27" width="3.94" height="3.94"/><rect class="cls-1" x="186.03" y="97.38" width="3.94" height="3.94"/><rect class="cls-1" x="178.14" y="89.5" width="3.94" height="3.94"/><rect class="cls-1" x="186.03" y="105.27" width="3.94" height="3.94"/><rect class="cls-1" x="91.37" y="144.72" width="3.94" height="3.94"/><rect class="cls-1" x="91.37" y="136.83" width="3.94" height="3.94"/><rect class="cls-1" x="99.25" y="152.61" width="3.94" height="3.94"/><rect class="cls-1" x="107.14" y="144.72" width="3.94" height="3.94"/><rect class="cls-1" x="99.25" y="136.83" width="3.94" height="3.94"/><rect class="cls-1" x="107.14" y="136.83" width="3.94" height="3.94"/><rect class="cls-1" x="107.14" y="152.61" width="3.94" height="3.94"/><rect class="cls-1" x="107.14" y="160.49" width="3.94" height="3.94"/><rect class="cls-1" x="115.03" y="144.72" width="3.94" height="3.94"/><rect class="cls-1" x="115.03" y="136.83" width="3.94" height="3.94"/><rect class="cls-1" x="115.03" y="152.61" width="3.94" height="3.94"/><rect class="cls-1" x="115.03" y="160.49" width="3.94" height="3.94"/><rect class="cls-1" x="122.92" y="136.83" width="3.94" height="3.94"/><rect class="cls-1" x="130.81" y="136.83" width="3.94" height="3.94"/><rect class="cls-1" x="122.92" y="160.49" width="3.94" height="3.94"/><rect class="cls-1" x="130.81" y="160.49" width="3.94" height="3.94"/><rect class="cls-1" x="122.92" y="168.38" width="3.94" height="3.94"/><rect class="cls-1" x="130.81" y="168.38" width="3.94" height="3.94"/><rect class="cls-1" x="138.7" y="144.72" width="3.94" height="3.94"/><rect class="cls-1" x="138.7" y="152.61" width="3.94" height="3.94"/><rect class="cls-1" x="138.7" y="136.83" width="3.94" height="3.94"/><rect class="cls-1" x="146.59" y="136.83" width="3.94" height="3.94"/><rect class="cls-1" x="146.59" y="152.61" width="3.94" height="3.94"/><rect class="cls-1" x="146.59" y="160.49" width="3.94" height="3.94"/><rect class="cls-1" x="138.7" y="168.38" width="3.94" height="3.94"/><rect class="cls-1" x="138.7" y="176.27" width="3.94" height="3.94"/><rect class="cls-1" x="146.59" y="176.27" width="3.94" height="3.94"/><rect class="cls-1" x="154.47" y="160.49" width="3.94" height="3.94"/><rect class="cls-1" x="162.36" y="160.49" width="3.94" height="3.94"/><rect class="cls-1" x="154.47" y="176.27" width="3.94" height="3.94"/><rect class="cls-1" x="162.36" y="176.27" width="3.94" height="3.94"/><rect class="cls-1" x="170.25" y="176.27" width="3.94" height="3.94"/><rect class="cls-1" x="178.14" y="176.27" width="3.94" height="3.94"/><rect class="cls-2" x="239.64" y="143.11" width="7.16" height="7.16"/><rect class="cls-1" x="241.25" y="152.61" width="3.94" height="3.94"/><rect class="cls-1" x="233.36" y="160.49" width="3.94" height="3.94"/><rect class="cls-1" x="241.25" y="160.49" width="3.94" height="3.94"/><rect class="cls-1" x="233.36" y="168.38" width="3.94" height="3.94"/><rect class="cls-1" x="241.25" y="168.38" width="3.94" height="3.94"/><rect class="cls-1" x="241.25" y="176.27" width="3.94" height="3.94"/><rect class="cls-1" x="138.7" y="50.05" width="3.94" height="3.94"/><rect class="cls-1" x="138.7" y="57.94" width="3.94" height="3.94"/><rect class="cls-1" x="146.59" y="50.05" width="3.94" height="3.94"/><rect class="cls-1" x="146.59" y="42.16" width="3.94" height="3.94"/><rect class="cls-1" x="146.59" y="57.94" width="3.94" height="3.94"/><rect class="cls-1" x="138.7" y="65.83" width="3.94" height="3.94"/><rect class="cls-1" x="146.59" y="65.83" width="3.94" height="3.94"/><rect class="cls-1" x="138.7" y="73.72" width="3.94" height="3.94"/><rect class="cls-1" x="138.7" y="81.61" width="3.94" height="3.94"/><rect class="cls-1" x="154.47" y="57.94" width="3.94" height="3.94"/><rect class="cls-1" x="162.36" y="50.05" width="3.94" height="3.94"/><rect class="cls-1" x="154.47" y="42.16" width="3.94" height="3.94"/><rect class="cls-1" x="162.36" y="42.16" width="3.94" height="3.94"/><rect class="cls-1" x="154.47" y="65.83" width="3.94" height="3.94"/><rect class="cls-1" x="162.36" y="65.83" width="3.94" height="3.94"/><rect class="cls-1" x="162.36" y="73.72" width="3.94" height="3.94"/><rect class="cls-1" x="162.36" y="81.61" width="3.94" height="3.94"/><rect class="cls-1" x="170.25" y="50.05" width="3.94" height="3.94"/><rect class="cls-1" x="170.25" y="42.16" width="3.94" height="3.94"/><rect class="cls-1" x="170.25" y="57.94" width="3.94" height="3.94"/><rect class="cls-1" x="170.25" y="65.83" width="3.94" height="3.94"/><rect class="cls-1" x="170.25" y="81.61" width="3.94" height="3.94"/><rect class="cls-1" x="178.14" y="50.05" width="3.94" height="3.94"/><rect class="cls-1" x="178.14" y="57.94" width="3.94" height="3.94"/><rect class="cls-1" x="178.14" y="65.83" width="3.94" height="3.94"/><rect class="cls-2" x="176.53" y="72.11" width="7.16" height="7.16"/><rect class="cls-1" x="178.14" y="81.61" width="3.94" height="3.94"/><rect class="cls-1" x="201.81" y="50.05" width="3.94" height="3.94"/><rect class="cls-1" x="201.81" y="42.16" width="3.94" height="3.94"/><rect class="cls-1" x="201.81" y="57.94" width="3.94" height="3.94"/><rect class="cls-1" x="193.92" y="65.83" width="3.94" height="3.94"/><rect class="cls-1" x="201.81" y="65.83" width="3.94" height="3.94"/><rect class="cls-1" x="193.92" y="73.72" width="3.94" height="3.94"/><rect class="cls-1" x="201.81" y="73.72" width="3.94" height="3.94"/><rect class="cls-1" x="201.81" y="81.61" width="3.94" height="3.94"/><rect class="cls-1" x="209.69" y="50.05" width="3.94" height="3.94"/><rect class="cls-1" x="209.69" y="57.94" width="3.94" height="3.94"/><rect class="cls-1" x="217.58" y="50.05" width="3.94" height="3.94"/><rect class="cls-1" x="209.69" y="42.16" width="3.94" height="3.94"/><rect class="cls-1" x="217.58" y="42.16" width="3.94" height="3.94"/><rect class="cls-1" x="217.58" y="57.94" width="3.94" height="3.94"/><rect class="cls-1" x="209.69" y="65.83" width="3.94" height="3.94"/><rect class="cls-1" x="217.58" y="65.83" width="3.94" height="3.94"/><rect class="cls-1" x="209.69" y="73.72" width="3.94" height="3.94"/><rect class="cls-1" x="225.47" y="50.05" width="3.94" height="3.94"/><rect class="cls-1" x="225.47" y="42.16" width="3.94" height="3.94"/><rect class="cls-1" x="225.47" y="57.94" width="3.94" height="3.94"/><rect class="cls-1" x="233.36" y="50.05" width="3.94" height="3.94"/><rect class="cls-1" x="233.36" y="57.94" width="3.94" height="3.94"/><rect class="cls-1" x="241.25" y="42.16" width="3.94" height="3.94"/><rect class="cls-1" x="233.36" y="73.72" width="3.94" height="3.94"/><rect class="cls-1" x="241.25" y="73.72" width="3.94" height="3.94"/><rect class="cls-1" x="241.25" y="65.83" width="3.94" height="3.94"/><rect class="cls-1" x="51.92" y="34.28" width="3.94" height="3.94"/><rect class="cls-1" x="59.81" y="34.28" width="3.94" height="3.94"/><rect class="cls-1" x="67.7" y="26.39" width="3.94" height="3.94"/><rect class="cls-1" x="75.59" y="26.39" width="3.94" height="3.94"/><rect class="cls-1" x="67.7" y="34.28" width="3.94" height="3.94"/><rect class="cls-1" x="75.59" y="34.28" width="3.94" height="3.94"/><rect class="cls-1" x="83.48" y="26.39" width="3.94" height="3.94"/><rect class="cls-1" x="83.48" y="34.28" width="3.94" height="3.94"/><rect class="cls-1" x="91.37" y="34.28" width="3.94" height="3.94"/><rect class="cls-1" x="99.25" y="34.28" width="3.94" height="3.94"/><rect class="cls-1" x="130.81" y="18.5" width="3.94" height="3.94"/><rect class="cls-1" x="122.92" y="26.39" width="3.94" height="3.94"/><rect class="cls-1" x="130.81" y="26.39" width="3.94" height="3.94"/><rect class="cls-1" x="122.92" y="34.28" width="3.94" height="3.94"/><rect class="cls-1" x="130.81" y="34.28" width="3.94" height="3.94"/><rect class="cls-1" x="138.7" y="10.61" width="3.94" height="3.94"/><rect class="cls-1" x="146.59" y="10.61" width="3.94" height="3.94"/><rect class="cls-1" x="138.7" y="18.5" width="3.94" height="3.94"/><rect class="cls-1" x="146.59" y="18.5" width="3.94" height="3.94"/><rect class="cls-1" x="138.7" y="34.28" width="3.94" height="3.94"/><rect class="cls-1" x="146.59" y="34.28" width="3.94" height="3.94"/><rect class="cls-1" x="162.36" y="10.61" width="3.94" height="3.94"/><rect class="cls-1" x="162.36" y="18.5" width="3.94" height="3.94"/><rect class="cls-1" x="154.47" y="26.39" width="3.94" height="3.94"/><rect class="cls-1" x="162.36" y="26.39" width="3.94" height="3.94"/><rect class="cls-1" x="154.47" y="34.28" width="3.94" height="3.94"/><rect class="cls-1" x="170.25" y="10.61" width="3.94" height="3.94"/><rect class="cls-1" x="170.25" y="26.39" width="3.94" height="3.94"/><rect class="cls-1" x="170.25" y="34.28" width="3.94" height="3.94"/><rect class="cls-1" x="178.14" y="2.72" width="3.94" height="3.94"/><rect class="cls-1" x="178.14" y="10.61" width="3.94" height="3.94"/><rect class="cls-1" x="186.03" y="2.72" width="3.94" height="3.94"/><rect class="cls-1" x="186.03" y="10.61" width="3.94" height="3.94"/><rect class="cls-1" x="178.14" y="18.5" width="3.94" height="3.94"/><rect class="cls-1" x="178.14" y="26.39" width="3.94" height="3.94"/><rect class="cls-1" x="186.03" y="26.39" width="3.94" height="3.94"/><rect class="cls-1" x="193.92" y="2.72" width="3.94" height="3.94"/><rect class="cls-1" x="201.81" y="2.72" width="3.94" height="3.94"/><rect class="cls-1" x="201.81" y="10.61" width="3.94" height="3.94"/><rect class="cls-1" x="193.92" y="18.5" width="3.94" height="3.94"/><rect class="cls-1" x="201.81" y="18.5" width="3.94" height="3.94"/><rect class="cls-1" x="193.92" y="26.39" width="3.94" height="3.94"/><rect class="cls-1" x="201.81" y="26.39" width="3.94" height="3.94"/><rect class="cls-1" x="193.92" y="34.28" width="3.94" height="3.94"/><rect class="cls-1" x="201.81" y="34.28" width="3.94" height="3.94"/><rect class="cls-1" x="209.69" y="10.61" width="3.94" height="3.94"/><rect class="cls-1" x="217.58" y="10.61" width="3.94" height="3.94"/><rect class="cls-1" x="209.69" y="18.5" width="3.94" height="3.94"/><rect class="cls-1" x="217.58" y="18.5" width="3.94" height="3.94"/><rect class="cls-1" x="209.69" y="26.39" width="3.94" height="3.94"/><rect class="cls-1" x="217.58" y="26.39" width="3.94" height="3.94"/><rect class="cls-1" x="209.69" y="34.28" width="3.94" height="3.94"/><rect class="cls-1" x="217.58" y="34.28" width="3.94" height="3.94"/><rect class="cls-1" x="225.47" y="2.72" width="3.94" height="3.94"/><rect class="cls-1" x="225.47" y="10.61" width="3.94" height="3.94"/><rect class="cls-1" x="225.47" y="18.5" width="3.94" height="3.94"/><rect class="cls-1" x="225.47" y="26.39" width="3.94" height="3.94"/><rect class="cls-1" x="225.47" y="34.28" width="3.94" height="3.94"/><rect class="cls-1" x="233.36" y="2.72" width="3.94" height="3.94"/><rect class="cls-1" x="241.25" y="10.61" width="3.94" height="3.94"/><rect class="cls-1" x="233.36" y="18.5" width="3.94" height="3.94"/><rect class="cls-1" x="241.25" y="18.5" width="3.94" height="3.94"/><rect class="cls-1" x="233.36" y="26.39" width="3.94" height="3.94"/><rect class="cls-1" x="241.25" y="26.39" width="3.94" height="3.94"/><rect class="cls-1" x="233.36" y="34.28" width="3.94" height="3.94"/><rect class="cls-1" x="241.25" y="34.28" width="3.94" height="3.94"/><rect class="cls-1" x="249.14" y="97.38" width="3.94" height="3.94"/><rect class="cls-1" x="249.14" y="105.27" width="3.94" height="3.94"/><rect class="cls-1" x="257.03" y="97.38" width="3.94" height="3.94"/><rect class="cls-1" x="257.03" y="89.5" width="3.94" height="3.94"/><rect class="cls-1" x="257.03" y="105.27" width="3.94" height="3.94"/><rect class="cls-1" x="257.03" y="113.16" width="3.94" height="3.94"/><rect class="cls-1" x="249.14" y="121.05" width="3.94" height="3.94"/><rect class="cls-1" x="257.03" y="121.05" width="3.94" height="3.94"/><rect class="cls-1" x="249.14" y="128.94" width="3.94" height="3.94"/><rect class="cls-1" x="264.91" y="105.27" width="3.94" height="3.94"/><rect class="cls-1" x="272.8" y="97.38" width="3.94" height="3.94"/><rect class="cls-1" x="272.8" y="105.27" width="3.94" height="3.94"/><rect class="cls-1" x="264.91" y="113.16" width="3.94" height="3.94"/><rect class="cls-1" x="272.8" y="113.16" width="3.94" height="3.94"/><rect class="cls-1" x="264.91" y="121.05" width="3.94" height="3.94"/><rect class="cls-1" x="272.8" y="128.94" width="3.94" height="3.94"/><rect class="cls-1" x="280.69" y="97.38" width="3.94" height="3.94"/><rect class="cls-2" x="279.09" y="103.67" width="7.16" height="7.16"/><rect class="cls-1" x="288.58" y="97.38" width="3.94" height="3.94"/><rect class="cls-1" x="288.58" y="89.5" width="3.94" height="3.94"/><rect class="cls-1" x="288.58" y="105.27" width="3.94" height="3.94"/><rect class="cls-1" x="280.69" y="113.16" width="3.94" height="3.94"/><rect class="cls-1" x="288.58" y="113.16" width="3.94" height="3.94"/><rect class="cls-1" x="280.69" y="121.05" width="3.94" height="3.94"/><rect class="cls-1" x="288.58" y="121.05" width="3.94" height="3.94"/><rect class="cls-1" x="280.69" y="128.94" width="3.94" height="3.94"/><rect class="cls-1" x="296.47" y="97.38" width="3.94" height="3.94"/><rect class="cls-1" x="296.47" y="89.5" width="3.94" height="3.94"/><rect class="cls-1" x="296.47" y="105.27" width="3.94" height="3.94"/><rect class="cls-1" x="296.47" y="113.16" width="3.94" height="3.94"/><rect class="cls-1" x="296.47" y="121.05" width="3.94" height="3.94"/><rect class="cls-1" x="304.36" y="97.38" width="3.94" height="3.94"/><rect class="cls-1" x="304.36" y="105.27" width="3.94" height="3.94"/><rect class="cls-1" x="312.25" y="97.38" width="3.94" height="3.94"/><rect class="cls-1" x="304.36" y="89.5" width="3.94" height="3.94"/><rect class="cls-1" x="312.25" y="89.5" width="3.94" height="3.94"/><rect class="cls-1" x="312.25" y="105.27" width="3.94" height="3.94"/><rect class="cls-1" x="304.36" y="113.16" width="3.94" height="3.94"/><rect class="cls-1" x="312.25" y="113.16" width="3.94" height="3.94"/><rect class="cls-1" x="304.36" y="128.94" width="3.94" height="3.94"/><rect class="cls-1" x="312.25" y="128.94" width="3.94" height="3.94"/><rect class="cls-1" x="272.8" y="73.72" width="3.94" height="3.94"/><rect class="cls-1" x="272.8" y="81.61" width="3.94" height="3.94"/><rect class="cls-1" x="288.58" y="57.94" width="3.94" height="3.94"/><rect class="cls-1" x="280.69" y="65.83" width="3.94" height="3.94"/><rect class="cls-1" x="288.58" y="65.83" width="3.94" height="3.94"/><rect class="cls-1" x="280.69" y="73.72" width="3.94" height="3.94"/><rect class="cls-1" x="280.69" y="81.61" width="3.94" height="3.94"/><rect class="cls-1" x="296.47" y="57.94" width="3.94" height="3.94"/><rect class="cls-1" x="296.47" y="65.83" width="3.94" height="3.94"/><rect class="cls-1" x="296.47" y="73.72" width="3.94" height="3.94"/><rect class="cls-1" x="296.47" y="81.61" width="3.94" height="3.94"/><rect class="cls-1" x="304.36" y="65.83" width="3.94" height="3.94"/><rect class="cls-1" x="312.25" y="65.83" width="3.94" height="3.94"/><rect class="cls-1" x="304.36" y="73.72" width="3.94" height="3.94"/><rect class="cls-1" x="312.25" y="73.72" width="3.94" height="3.94"/><rect class="cls-1" x="304.36" y="81.61" width="3.94" height="3.94"/><rect class="cls-1" x="312.25" y="81.61" width="3.94" height="3.94"/><rect class="cls-1" x="320.13" y="97.38" width="3.94" height="3.94"/><rect class="cls-1" x="320.13" y="105.27" width="3.94" height="3.94"/><rect class="cls-1" x="328.02" y="97.38" width="3.94" height="3.94"/><rect class="cls-1" x="320.13" y="89.5" width="3.94" height="3.94"/><rect class="cls-1" x="328.02" y="89.5" width="3.94" height="3.94"/><rect class="cls-1" x="328.02" y="105.27" width="3.94" height="3.94"/><rect class="cls-1" x="320.13" y="113.16" width="3.94" height="3.94"/><rect class="cls-1" x="320.13" y="121.05" width="3.94" height="3.94"/><rect class="cls-1" x="328.02" y="121.05" width="3.94" height="3.94"/><rect class="cls-1" x="320.13" y="128.94" width="3.94" height="3.94"/><rect class="cls-1" x="328.02" y="128.94" width="3.94" height="3.94"/><rect class="cls-1" x="335.91" y="97.38" width="3.94" height="3.94"/><rect class="cls-1" x="335.91" y="105.27" width="3.94" height="3.94"/><rect class="cls-1" x="343.8" y="97.38" width="3.94" height="3.94"/><rect class="cls-1" x="335.91" y="89.5" width="3.94" height="3.94"/><rect class="cls-1" x="343.8" y="89.5" width="3.94" height="3.94"/><rect class="cls-1" x="343.8" y="105.27" width="3.94" height="3.94"/><rect class="cls-2" x="334.31" y="111.56" width="7.16" height="7.16"/><rect class="cls-1" x="343.8" y="113.16" width="3.94" height="3.94"/><rect class="cls-1" x="343.8" y="121.05" width="3.94" height="3.94"/><rect class="cls-1" x="343.8" y="128.94" width="3.94" height="3.94"/><rect class="cls-1" x="351.69" y="97.38" width="3.94" height="3.94"/><rect class="cls-1" x="351.69" y="89.5" width="3.94" height="3.94"/><rect class="cls-1" x="351.69" y="105.27" width="3.94" height="3.94"/><rect class="cls-1" x="351.69" y="113.16" width="3.94" height="3.94"/><rect class="cls-1" x="351.69" y="121.05" width="3.94" height="3.94"/><rect class="cls-1" x="351.69" y="128.94" width="3.94" height="3.94"/><rect class="cls-1" x="359.58" y="97.38" width="3.94" height="3.94"/><rect class="cls-1" x="359.58" y="105.27" width="3.94" height="3.94"/><rect class="cls-1" x="367.47" y="97.38" width="3.94" height="3.94"/><rect class="cls-1" x="359.58" y="89.5" width="3.94" height="3.94"/><rect class="cls-1" x="367.47" y="89.5" width="3.94" height="3.94"/><rect class="cls-1" x="367.47" y="105.27" width="3.94" height="3.94"/><rect class="cls-1" x="359.58" y="113.16" width="3.94" height="3.94"/><rect class="cls-1" x="367.47" y="113.16" width="3.94" height="3.94"/><rect class="cls-1" x="359.58" y="121.05" width="3.94" height="3.94"/><rect class="cls-1" x="367.47" y="121.05" width="3.94" height="3.94"/><rect class="cls-1" x="359.58" y="128.94" width="3.94" height="3.94"/><rect class="cls-1" x="367.47" y="128.94" width="3.94" height="3.94"/><rect class="cls-1" x="375.36" y="97.38" width="3.94" height="3.94"/><rect class="cls-1" x="375.36" y="105.27" width="3.94" height="3.94"/><rect class="cls-1" x="383.24" y="97.38" width="3.94" height="3.94"/><rect class="cls-1" x="375.36" y="89.5" width="3.94" height="3.94"/><rect class="cls-1" x="383.24" y="89.5" width="3.94" height="3.94"/><rect class="cls-1" x="383.24" y="105.27" width="3.94" height="3.94"/><rect class="cls-1" x="375.36" y="113.16" width="3.94" height="3.94"/><rect class="cls-1" x="383.24" y="113.16" width="3.94" height="3.94"/><rect class="cls-1" x="375.36" y="121.05" width="3.94" height="3.94"/><rect class="cls-1" x="383.24" y="121.05" width="3.94" height="3.94"/><rect class="cls-1" x="375.36" y="128.94" width="3.94" height="3.94"/><rect class="cls-1" x="383.24" y="128.94" width="3.94" height="3.94"/><rect class="cls-1" x="391.13" y="97.38" width="3.94" height="3.94"/><rect class="cls-1" x="391.13" y="105.27" width="3.94" height="3.94"/><rect class="cls-1" x="399.02" y="97.38" width="3.94" height="3.94"/><rect class="cls-1" x="391.13" y="89.5" width="3.94" height="3.94"/><rect class="cls-1" x="399.02" y="89.5" width="3.94" height="3.94"/><rect class="cls-1" x="399.02" y="105.27" width="3.94" height="3.94"/><rect class="cls-1" x="391.13" y="113.16" width="3.94" height="3.94"/><rect class="cls-1" x="399.02" y="113.16" width="3.94" height="3.94"/><rect class="cls-1" x="391.13" y="121.05" width="3.94" height="3.94"/><rect class="cls-1" x="399.02" y="121.05" width="3.94" height="3.94"/><rect class="cls-1" x="391.13" y="128.94" width="3.94" height="3.94"/><rect class="cls-1" x="399.02" y="128.94" width="3.94" height="3.94"/><rect class="cls-1" x="406.91" y="97.38" width="3.94" height="3.94"/><rect class="cls-1" x="406.91" y="105.27" width="3.94" height="3.94"/><rect class="cls-1" x="406.91" y="113.16" width="3.94" height="3.94"/><rect class="cls-1" x="406.91" y="121.05" width="3.94" height="3.94"/><rect class="cls-1" x="406.91" y="128.94" width="3.94" height="3.94"/><rect class="cls-1" x="414.8" y="97.38" width="3.94" height="3.94"/><rect class="cls-1" x="414.8" y="105.27" width="3.94" height="3.94"/><rect class="cls-1" x="422.69" y="97.38" width="3.94" height="3.94"/><rect class="cls-1" x="414.8" y="89.5" width="3.94" height="3.94"/><rect class="cls-1" x="422.69" y="89.5" width="3.94" height="3.94"/><rect class="cls-1" x="422.69" y="105.27" width="3.94" height="3.94"/><rect class="cls-1" x="414.8" y="113.16" width="3.94" height="3.94"/><rect class="cls-1" x="422.69" y="113.16" width="3.94" height="3.94"/><rect class="cls-1" x="414.8" y="121.05" width="3.94" height="3.94"/><rect class="cls-1" x="422.69" y="121.05" width="3.94" height="3.94"/><rect class="cls-1" x="414.8" y="128.94" width="3.94" height="3.94"/><rect class="cls-1" x="422.69" y="128.94" width="3.94" height="3.94"/><rect class="cls-1" x="249.14" y="144.72" width="3.94" height="3.94"/><rect class="cls-1" x="249.14" y="152.61" width="3.94" height="3.94"/><rect class="cls-1" x="257.03" y="144.72" width="3.94" height="3.94"/><rect class="cls-1" x="257.03" y="136.83" width="3.94" height="3.94"/><rect class="cls-1" x="257.03" y="152.61" width="3.94" height="3.94"/><rect class="cls-1" x="249.14" y="160.49" width="3.94" height="3.94"/><rect class="cls-1" x="257.03" y="160.49" width="3.94" height="3.94"/><rect class="cls-1" x="249.14" y="168.38" width="3.94" height="3.94"/><rect class="cls-1" x="257.03" y="168.38" width="3.94" height="3.94"/><rect class="cls-1" x="249.14" y="176.27" width="3.94" height="3.94"/><rect class="cls-1" x="257.03" y="176.27" width="3.94" height="3.94"/><rect class="cls-1" x="264.91" y="144.72" width="3.94" height="3.94"/><rect class="cls-1" x="264.91" y="152.61" width="3.94" height="3.94"/><rect class="cls-1" x="272.8" y="144.72" width="3.94" height="3.94"/><rect class="cls-1" x="264.91" y="136.83" width="3.94" height="3.94"/><rect class="cls-1" x="272.8" y="136.83" width="3.94" height="3.94"/><rect class="cls-1" x="272.8" y="152.61" width="3.94" height="3.94"/><rect class="cls-1" x="264.91" y="160.49" width="3.94" height="3.94"/><rect class="cls-1" x="272.8" y="160.49" width="3.94" height="3.94"/><rect class="cls-1" x="264.91" y="168.38" width="3.94" height="3.94"/><rect class="cls-1" x="272.8" y="168.38" width="3.94" height="3.94"/><rect class="cls-1" x="264.91" y="176.27" width="3.94" height="3.94"/><rect class="cls-1" x="272.8" y="176.27" width="3.94" height="3.94"/><rect class="cls-1" x="280.69" y="144.72" width="3.94" height="3.94"/><rect class="cls-1" x="280.69" y="152.61" width="3.94" height="3.94"/><rect class="cls-1" x="288.58" y="144.72" width="3.94" height="3.94"/><rect class="cls-1" x="280.69" y="136.83" width="3.94" height="3.94"/><rect class="cls-1" x="288.58" y="152.61" width="3.94" height="3.94"/><rect class="cls-1" x="280.69" y="160.49" width="3.94" height="3.94"/><rect class="cls-1" x="288.58" y="160.49" width="3.94" height="3.94"/><rect class="cls-1" x="280.69" y="168.38" width="3.94" height="3.94"/><rect class="cls-1" x="288.58" y="168.38" width="3.94" height="3.94"/><rect class="cls-1" x="280.69" y="176.27" width="3.94" height="3.94"/><rect class="cls-1" x="288.58" y="176.27" width="3.94" height="3.94"/><rect class="cls-1" x="296.47" y="144.72" width="3.94" height="3.94"/><rect class="cls-1" x="296.47" y="136.83" width="3.94" height="3.94"/><rect class="cls-1" x="296.47" y="152.61" width="3.94" height="3.94"/><rect class="cls-1" x="296.47" y="160.49" width="3.94" height="3.94"/><rect class="cls-1" x="296.47" y="168.38" width="3.94" height="3.94"/><rect class="cls-1" x="296.47" y="176.27" width="3.94" height="3.94"/><rect class="cls-1" x="304.36" y="144.72" width="3.94" height="3.94"/><rect class="cls-1" x="304.36" y="152.61" width="3.94" height="3.94"/><rect class="cls-1" x="312.25" y="144.72" width="3.94" height="3.94"/><rect class="cls-1" x="312.25" y="136.83" width="3.94" height="3.94"/><rect class="cls-1" x="304.36" y="160.49" width="3.94" height="3.94"/><rect class="cls-1" x="312.25" y="160.49" width="3.94" height="3.94"/><rect class="cls-1" x="304.36" y="168.38" width="3.94" height="3.94"/><rect class="cls-1" x="312.25" y="168.38" width="3.94" height="3.94"/><rect class="cls-1" x="304.36" y="176.27" width="3.94" height="3.94"/><rect class="cls-1" x="312.25" y="176.27" width="3.94" height="3.94"/><rect class="cls-1" x="320.13" y="144.72" width="3.94" height="3.94"/><rect class="cls-1" x="320.13" y="152.61" width="3.94" height="3.94"/><rect class="cls-1" x="328.02" y="144.72" width="3.94" height="3.94"/><rect class="cls-1" x="320.13" y="136.83" width="3.94" height="3.94"/><rect class="cls-1" x="328.02" y="136.83" width="3.94" height="3.94"/><rect class="cls-1" x="328.02" y="152.61" width="3.94" height="3.94"/><rect class="cls-1" x="328.02" y="160.49" width="3.94" height="3.94"/><rect class="cls-1" x="320.13" y="168.38" width="3.94" height="3.94"/><rect class="cls-1" x="320.13" y="176.27" width="3.94" height="3.94"/><rect class="cls-2" x="326.42" y="174.66" width="7.16" height="7.16"/><rect class="cls-1" x="335.91" y="152.61" width="3.94" height="3.94"/><rect class="cls-1" x="343.8" y="144.72" width="3.94" height="3.94"/><rect class="cls-1" x="335.91" y="136.83" width="3.94" height="3.94"/><rect class="cls-1" x="343.8" y="136.83" width="3.94" height="3.94"/><rect class="cls-2" x="342.19" y="151" width="7.16" height="7.16"/><rect class="cls-1" x="335.91" y="160.49" width="3.94" height="3.94"/><rect class="cls-1" x="343.8" y="160.49" width="3.94" height="3.94"/><rect class="cls-1" x="335.91" y="176.27" width="3.94" height="3.94"/><rect class="cls-1" x="351.69" y="144.72" width="3.94" height="3.94"/><rect class="cls-1" x="351.69" y="136.83" width="3.94" height="3.94"/><rect class="cls-1" x="359.58" y="144.72" width="3.94" height="3.94"/><rect class="cls-1" x="359.58" y="152.61" width="3.94" height="3.94"/><rect class="cls-1" x="367.47" y="144.72" width="3.94" height="3.94"/><rect class="cls-1" x="359.58" y="136.83" width="3.94" height="3.94"/><rect class="cls-1" x="367.47" y="136.83" width="3.94" height="3.94"/><rect class="cls-1" x="367.47" y="152.61" width="3.94" height="3.94"/><rect class="cls-1" x="367.47" y="160.49" width="3.94" height="3.94"/><rect class="cls-1" x="375.36" y="144.72" width="3.94" height="3.94"/><rect class="cls-1" x="375.36" y="152.61" width="3.94" height="3.94"/><rect class="cls-1" x="383.24" y="144.72" width="3.94" height="3.94"/><rect class="cls-1" x="375.36" y="136.83" width="3.94" height="3.94"/><rect class="cls-1" x="383.24" y="136.83" width="3.94" height="3.94"/><rect class="cls-1" x="383.24" y="152.61" width="3.94" height="3.94"/><rect class="cls-1" x="375.36" y="160.49" width="3.94" height="3.94"/><rect class="cls-1" x="383.24" y="160.49" width="3.94" height="3.94"/><rect class="cls-1" x="375.36" y="168.38" width="3.94" height="3.94"/><rect class="cls-1" x="383.24" y="168.38" width="3.94" height="3.94"/><rect class="cls-1" x="375.36" y="176.27" width="3.94" height="3.94"/><rect class="cls-1" x="391.13" y="144.72" width="3.94" height="3.94"/><rect class="cls-1" x="391.13" y="152.61" width="3.94" height="3.94"/><rect class="cls-1" x="399.02" y="144.72" width="3.94" height="3.94"/><rect class="cls-1" x="391.13" y="136.83" width="3.94" height="3.94"/><rect class="cls-1" x="399.02" y="136.83" width="3.94" height="3.94"/><rect class="cls-1" x="399.02" y="152.61" width="3.94" height="3.94"/><rect class="cls-2" x="397.41" y="158.89" width="7.16" height="7.16"/><rect class="cls-1" x="406.91" y="144.72" width="3.94" height="3.94"/><rect class="cls-1" x="406.91" y="136.83" width="3.94" height="3.94"/><rect class="cls-1" x="406.91" y="152.61" width="3.94" height="3.94"/><rect class="cls-1" x="406.91" y="160.49" width="3.94" height="3.94"/><rect class="cls-1" x="406.91" y="168.38" width="3.94" height="3.94"/><rect class="cls-1" x="406.91" y="176.27" width="3.94" height="3.94"/><rect class="cls-1" x="414.8" y="144.72" width="3.94" height="3.94"/><rect class="cls-1" x="414.8" y="152.61" width="3.94" height="3.94"/><rect class="cls-1" x="422.69" y="144.72" width="3.94" height="3.94"/><rect class="cls-1" x="414.8" y="136.83" width="3.94" height="3.94"/><rect class="cls-1" x="422.69" y="136.83" width="3.94" height="3.94"/><rect class="cls-1" x="422.69" y="152.61" width="3.94" height="3.94"/><rect class="cls-1" x="414.8" y="160.49" width="3.94" height="3.94"/><rect class="cls-1" x="422.69" y="160.49" width="3.94" height="3.94"/><rect class="cls-1" x="414.8" y="168.38" width="3.94" height="3.94"/><rect class="cls-1" x="422.69" y="168.38" width="3.94" height="3.94"/><rect class="cls-1" x="414.8" y="176.27" width="3.94" height="3.94"/><rect class="cls-1" x="320.13" y="50.05" width="3.94" height="3.94"/><rect class="cls-1" x="320.13" y="57.94" width="3.94" height="3.94"/><rect class="cls-1" x="320.13" y="42.16" width="3.94" height="3.94"/><rect class="cls-1" x="328.02" y="57.94" width="3.94" height="3.94"/><rect class="cls-1" x="320.13" y="65.83" width="3.94" height="3.94"/><rect class="cls-1" x="328.02" y="65.83" width="3.94" height="3.94"/><rect class="cls-1" x="320.13" y="73.72" width="3.94" height="3.94"/><rect class="cls-1" x="328.02" y="73.72" width="3.94" height="3.94"/><rect class="cls-1" x="320.13" y="81.61" width="3.94" height="3.94"/><rect class="cls-1" x="328.02" y="81.61" width="3.94" height="3.94"/><rect class="cls-1" x="335.91" y="50.05" width="3.94" height="3.94"/><rect class="cls-1" x="335.91" y="57.94" width="3.94" height="3.94"/><rect class="cls-1" x="343.8" y="50.05" width="3.94" height="3.94"/><rect class="cls-1" x="335.91" y="42.16" width="3.94" height="3.94"/><rect class="cls-1" x="343.8" y="42.16" width="3.94" height="3.94"/><rect class="cls-1" x="343.8" y="57.94" width="3.94" height="3.94"/><rect class="cls-1" x="335.91" y="65.83" width="3.94" height="3.94"/><rect class="cls-1" x="343.8" y="65.83" width="3.94" height="3.94"/><rect class="cls-1" x="335.91" y="73.72" width="3.94" height="3.94"/><rect class="cls-1" x="343.8" y="73.72" width="3.94" height="3.94"/><rect class="cls-1" x="335.91" y="81.61" width="3.94" height="3.94"/><rect class="cls-1" x="343.8" y="81.61" width="3.94" height="3.94"/><rect class="cls-1" x="351.69" y="50.05" width="3.94" height="3.94"/><rect class="cls-1" x="351.69" y="42.16" width="3.94" height="3.94"/><rect class="cls-1" x="351.69" y="57.94" width="3.94" height="3.94"/><rect class="cls-1" x="351.69" y="65.83" width="3.94" height="3.94"/><rect class="cls-1" x="351.69" y="73.72" width="3.94" height="3.94"/><rect class="cls-1" x="351.69" y="81.61" width="3.94" height="3.94"/><rect class="cls-1" x="359.58" y="50.05" width="3.94" height="3.94"/><rect class="cls-1" x="359.58" y="57.94" width="3.94" height="3.94"/><rect class="cls-1" x="367.47" y="50.05" width="3.94" height="3.94"/><rect class="cls-1" x="359.58" y="42.16" width="3.94" height="3.94"/><rect class="cls-1" x="367.47" y="42.16" width="3.94" height="3.94"/><rect class="cls-1" x="367.47" y="57.94" width="3.94" height="3.94"/><rect class="cls-1" x="359.58" y="65.83" width="3.94" height="3.94"/><rect class="cls-1" x="367.47" y="65.83" width="3.94" height="3.94"/><rect class="cls-1" x="359.58" y="73.72" width="3.94" height="3.94"/><rect class="cls-1" x="367.47" y="73.72" width="3.94" height="3.94"/><rect class="cls-1" x="359.58" y="81.61" width="3.94" height="3.94"/><rect class="cls-1" x="367.47" y="81.61" width="3.94" height="3.94"/><rect class="cls-1" x="375.36" y="50.05" width="3.94" height="3.94"/><rect class="cls-1" x="375.36" y="57.94" width="3.94" height="3.94"/><rect class="cls-1" x="383.24" y="50.05" width="3.94" height="3.94"/><rect class="cls-1" x="375.36" y="42.16" width="3.94" height="3.94"/><rect class="cls-1" x="383.24" y="42.16" width="3.94" height="3.94"/><rect class="cls-1" x="383.24" y="57.94" width="3.94" height="3.94"/><rect class="cls-1" x="375.36" y="65.83" width="3.94" height="3.94"/><rect class="cls-1" x="383.24" y="65.83" width="3.94" height="3.94"/><rect class="cls-1" x="375.36" y="73.72" width="3.94" height="3.94"/><rect class="cls-1" x="383.24" y="73.72" width="3.94" height="3.94"/><rect class="cls-1" x="375.36" y="81.61" width="3.94" height="3.94"/><rect class="cls-1" x="383.24" y="81.61" width="3.94" height="3.94"/><rect class="cls-1" x="391.13" y="50.05" width="3.94" height="3.94"/><rect class="cls-1" x="391.13" y="57.94" width="3.94" height="3.94"/><rect class="cls-1" x="399.02" y="50.05" width="3.94" height="3.94"/><rect class="cls-1" x="391.13" y="42.16" width="3.94" height="3.94"/><rect class="cls-1" x="399.02" y="42.16" width="3.94" height="3.94"/><rect class="cls-1" x="399.02" y="57.94" width="3.94" height="3.94"/><rect class="cls-1" x="391.13" y="65.83" width="3.94" height="3.94"/><rect class="cls-2" x="397.41" y="64.22" width="7.16" height="7.16"/><rect class="cls-1" x="391.13" y="73.72" width="3.94" height="3.94"/><rect class="cls-1" x="399.02" y="73.72" width="3.94" height="3.94"/><rect class="cls-1" x="391.13" y="81.61" width="3.94" height="3.94"/><rect class="cls-1" x="399.02" y="81.61" width="3.94" height="3.94"/><rect class="cls-1" x="406.91" y="50.05" width="3.94" height="3.94"/><rect class="cls-1" x="406.91" y="42.16" width="3.94" height="3.94"/><rect class="cls-1" x="406.91" y="57.94" width="3.94" height="3.94"/><rect class="cls-1" x="406.91" y="65.83" width="3.94" height="3.94"/><rect class="cls-1" x="406.91" y="73.72" width="3.94" height="3.94"/><rect class="cls-1" x="406.91" y="81.61" width="3.94" height="3.94"/><rect class="cls-1" x="414.8" y="50.05" width="3.94" height="3.94"/><rect class="cls-1" x="414.8" y="57.94" width="3.94" height="3.94"/><rect class="cls-1" x="422.69" y="50.05" width="3.94" height="3.94"/><rect class="cls-1" x="414.8" y="42.16" width="3.94" height="3.94"/><rect class="cls-1" x="422.69" y="42.16" width="3.94" height="3.94"/><rect class="cls-1" x="422.69" y="57.94" width="3.94" height="3.94"/><rect class="cls-1" x="414.8" y="65.83" width="3.94" height="3.94"/><rect class="cls-1" x="422.69" y="65.83" width="3.94" height="3.94"/><rect class="cls-1" x="414.8" y="73.72" width="3.94" height="3.94"/><rect class="cls-1" x="422.69" y="73.72" width="3.94" height="3.94"/><rect class="cls-1" x="414.8" y="81.61" width="3.94" height="3.94"/><rect class="cls-1" x="422.69" y="81.61" width="3.94" height="3.94"/><rect class="cls-1" x="249.14" y="18.5" width="3.94" height="3.94"/><rect class="cls-1" x="272.8" y="26.39" width="3.94" height="3.94"/><rect class="cls-1" x="272.8" y="34.28" width="3.94" height="3.94"/><rect class="cls-1" x="280.69" y="26.39" width="3.94" height="3.94"/><rect class="cls-1" x="312.25" y="10.61" width="3.94" height="3.94"/><rect class="cls-1" x="304.36" y="18.5" width="3.94" height="3.94"/><rect class="cls-1" x="312.25" y="18.5" width="3.94" height="3.94"/><rect class="cls-1" x="328.02" y="34.28" width="3.94" height="3.94"/><rect class="cls-1" x="343.8" y="2.72" width="3.94" height="3.94"/><rect class="cls-1" x="351.69" y="10.61" width="3.94" height="3.94"/><rect class="cls-1" x="351.69" y="34.28" width="3.94" height="3.94"/><rect class="cls-1" x="359.58" y="10.61" width="3.94" height="3.94"/><rect class="cls-1" x="359.58" y="18.5" width="3.94" height="3.94"/><rect class="cls-1" x="367.47" y="18.5" width="3.94" height="3.94"/><rect class="cls-1" x="359.58" y="26.39" width="3.94" height="3.94"/><rect class="cls-1" x="367.47" y="26.39" width="3.94" height="3.94"/><rect class="cls-1" x="359.58" y="34.28" width="3.94" height="3.94"/><rect class="cls-1" x="367.47" y="34.28" width="3.94" height="3.94"/><rect class="cls-1" x="375.36" y="18.5" width="3.94" height="3.94"/><rect class="cls-1" x="375.36" y="26.39" width="3.94" height="3.94"/><rect class="cls-1" x="383.24" y="26.39" width="3.94" height="3.94"/><rect class="cls-1" x="375.36" y="34.28" width="3.94" height="3.94"/><rect class="cls-1" x="383.24" y="34.28" width="3.94" height="3.94"/><rect class="cls-1" x="399.02" y="26.39" width="3.94" height="3.94"/><rect class="cls-1" x="391.13" y="34.28" width="3.94" height="3.94"/><rect class="cls-1" x="399.02" y="34.28" width="3.94" height="3.94"/><rect class="cls-1" x="406.91" y="10.61" width="3.94" height="3.94"/><rect class="cls-1" x="406.91" y="18.5" width="3.94" height="3.94"/><rect class="cls-1" x="406.91" y="34.28" width="3.94" height="3.94"/><rect class="cls-1" x="414.8" y="10.61" width="3.94" height="3.94"/><rect class="cls-1" x="422.69" y="10.61" width="3.94" height="3.94"/><rect class="cls-1" x="414.8" y="18.5" width="3.94" height="3.94"/><rect class="cls-1" x="414.8" y="26.39" width="3.94" height="3.94"/><rect class="cls-1" x="422.69" y="26.39" width="3.94" height="3.94"/><rect class="cls-1" x="414.8" y="34.28" width="3.94" height="3.94"/><rect class="cls-1" x="422.69" y="34.28" width="3.94" height="3.94"/><rect class="cls-1" x="430.58" y="97.38" width="3.94" height="3.94"/><rect class="cls-1" x="430.58" y="105.27" width="3.94" height="3.94"/><rect class="cls-1" x="438.46" y="97.38" width="3.94" height="3.94"/><rect class="cls-1" x="430.58" y="89.5" width="3.94" height="3.94"/><rect class="cls-1" x="438.46" y="89.5" width="3.94" height="3.94"/><rect class="cls-1" x="438.46" y="105.27" width="3.94" height="3.94"/><rect class="cls-1" x="430.58" y="113.16" width="3.94" height="3.94"/><rect class="cls-1" x="438.46" y="113.16" width="3.94" height="3.94"/><rect class="cls-1" x="430.58" y="121.05" width="3.94" height="3.94"/><rect class="cls-1" x="438.46" y="121.05" width="3.94" height="3.94"/><rect class="cls-1" x="430.58" y="128.94" width="3.94" height="3.94"/><rect class="cls-1" x="438.46" y="128.94" width="3.94" height="3.94"/><rect class="cls-1" x="446.35" y="97.38" width="3.94" height="3.94"/><rect class="cls-1" x="446.35" y="105.27" width="3.94" height="3.94"/><rect class="cls-1" x="454.24" y="97.38" width="3.94" height="3.94"/><rect class="cls-1" x="446.35" y="89.5" width="3.94" height="3.94"/><rect class="cls-1" x="454.24" y="89.5" width="3.94" height="3.94"/><rect class="cls-1" x="454.24" y="105.27" width="3.94" height="3.94"/><rect class="cls-1" x="446.35" y="113.16" width="3.94" height="3.94"/><rect class="cls-1" x="446.35" y="121.05" width="3.94" height="3.94"/><rect class="cls-1" x="454.24" y="128.94" width="3.94" height="3.94"/><rect class="cls-1" x="462.13" y="97.38" width="3.94" height="3.94"/><rect class="cls-1" x="462.13" y="105.27" width="3.94" height="3.94"/><rect class="cls-1" x="462.13" y="113.16" width="3.94" height="3.94"/><rect class="cls-1" x="462.13" y="121.05" width="3.94" height="3.94"/><rect class="cls-1" x="462.13" y="128.94" width="3.94" height="3.94"/><rect class="cls-1" x="477.91" y="89.5" width="3.94" height="3.94"/><rect class="cls-1" x="430.58" y="144.72" width="3.94" height="3.94"/><rect class="cls-2" x="428.97" y="151" width="7.16" height="7.16"/><rect class="cls-1" x="438.46" y="144.72" width="3.94" height="3.94"/><rect class="cls-1" x="430.58" y="136.83" width="3.94" height="3.94"/><rect class="cls-1" x="438.46" y="136.83" width="3.94" height="3.94"/><rect class="cls-1" x="438.46" y="152.61" width="3.94" height="3.94"/><rect class="cls-1" x="438.46" y="168.38" width="3.94" height="3.94"/><rect class="cls-1" x="454.24" y="136.83" width="3.94" height="3.94"/><rect class="cls-1" x="446.35" y="168.38" width="3.94" height="3.94"/><rect class="cls-1" x="446.35" y="176.27" width="3.94" height="3.94"/><rect class="cls-1" x="430.58" y="50.05" width="3.94" height="3.94"/><rect class="cls-1" x="430.58" y="57.94" width="3.94" height="3.94"/><rect class="cls-1" x="438.46" y="50.05" width="3.94" height="3.94"/><rect class="cls-1" x="430.58" y="42.16" width="3.94" height="3.94"/><rect class="cls-1" x="438.46" y="42.16" width="3.94" height="3.94"/><rect class="cls-1" x="438.46" y="57.94" width="3.94" height="3.94"/><rect class="cls-1" x="430.58" y="65.83" width="3.94" height="3.94"/><rect class="cls-1" x="438.46" y="65.83" width="3.94" height="3.94"/><rect class="cls-1" x="430.58" y="73.72" width="3.94" height="3.94"/><rect class="cls-1" x="438.46" y="73.72" width="3.94" height="3.94"/><rect class="cls-1" x="430.58" y="81.61" width="3.94" height="3.94"/><rect class="cls-1" x="438.46" y="81.61" width="3.94" height="3.94"/><rect class="cls-1" x="446.35" y="50.05" width="3.94" height="3.94"/><rect class="cls-1" x="446.35" y="57.94" width="3.94" height="3.94"/><rect class="cls-1" x="454.24" y="50.05" width="3.94" height="3.94"/><rect class="cls-1" x="446.35" y="42.16" width="3.94" height="3.94"/><rect class="cls-1" x="454.24" y="42.16" width="3.94" height="3.94"/><rect class="cls-1" x="454.24" y="57.94" width="3.94" height="3.94"/><rect class="cls-1" x="446.35" y="65.83" width="3.94" height="3.94"/><rect class="cls-1" x="454.24" y="65.83" width="3.94" height="3.94"/><rect class="cls-1" x="446.35" y="73.72" width="3.94" height="3.94"/><rect class="cls-1" x="446.35" y="81.61" width="3.94" height="3.94"/><rect class="cls-1" x="462.13" y="50.05" width="3.94" height="3.94"/><rect class="cls-1" x="462.13" y="42.16" width="3.94" height="3.94"/><rect class="cls-1" x="462.13" y="57.94" width="3.94" height="3.94"/><rect class="cls-1" x="470.02" y="50.05" width="3.94" height="3.94"/><rect class="cls-1" x="470.02" y="57.94" width="3.94" height="3.94"/><rect class="cls-1" x="477.91" y="50.05" width="3.94" height="3.94"/><rect class="cls-1" x="470.02" y="42.16" width="3.94" height="3.94"/><rect class="cls-1" x="477.91" y="42.16" width="3.94" height="3.94"/><rect class="cls-1" x="477.91" y="57.94" width="3.94" height="3.94"/><rect class="cls-1" x="470.02" y="65.83" width="3.94" height="3.94"/><rect class="cls-1" x="470.02" y="73.72" width="3.94" height="3.94"/><rect class="cls-1" x="477.91" y="73.72" width="3.94" height="3.94"/><rect class="cls-1" x="470.02" y="81.61" width="3.94" height="3.94"/><rect class="cls-1" x="477.91" y="81.61" width="3.94" height="3.94"/><rect class="cls-1" x="485.8" y="50.05" width="3.94" height="3.94"/><rect class="cls-1" x="485.8" y="42.16" width="3.94" height="3.94"/><rect class="cls-1" x="162.36" y="223.6" width="3.94" height="3.94"/><rect class="cls-2" x="152.87" y="214.11" width="7.16" height="7.16"/><rect class="cls-1" x="162.36" y="215.71" width="3.94" height="3.94"/><rect class="cls-1" x="162.36" y="231.49" width="3.94" height="3.94"/><rect class="cls-1" x="162.36" y="239.38" width="3.94" height="3.94"/><rect class="cls-1" x="154.47" y="247.27" width="3.94" height="3.94"/><rect class="cls-1" x="162.36" y="247.27" width="3.94" height="3.94"/><rect class="cls-1" x="154.47" y="255.16" width="3.94" height="3.94"/><rect class="cls-1" x="162.36" y="255.16" width="3.94" height="3.94"/><rect class="cls-1" x="170.25" y="223.6" width="3.94" height="3.94"/><rect class="cls-1" x="170.25" y="215.71" width="3.94" height="3.94"/><rect class="cls-1" x="170.25" y="231.49" width="3.94" height="3.94"/><rect class="cls-1" x="170.25" y="239.38" width="3.94" height="3.94"/><rect class="cls-1" x="170.25" y="247.27" width="3.94" height="3.94"/><rect class="cls-1" x="170.25" y="255.16" width="3.94" height="3.94"/><rect class="cls-1" x="178.14" y="223.6" width="3.94" height="3.94"/><rect class="cls-1" x="178.14" y="231.49" width="3.94" height="3.94"/><rect class="cls-1" x="186.03" y="223.6" width="3.94" height="3.94"/><rect class="cls-1" x="178.14" y="215.71" width="3.94" height="3.94"/><rect class="cls-1" x="186.03" y="215.71" width="3.94" height="3.94"/><rect class="cls-1" x="186.03" y="231.49" width="3.94" height="3.94"/><rect class="cls-1" x="178.14" y="239.38" width="3.94" height="3.94"/><rect class="cls-2" x="184.42" y="237.77" width="7.16" height="7.16"/><rect class="cls-1" x="178.14" y="247.27" width="3.94" height="3.94"/><rect class="cls-1" x="178.14" y="255.16" width="3.94" height="3.94"/><rect class="cls-1" x="186.03" y="247.27" width="3.94" height="3.94"/><rect class="cls-1" x="193.92" y="223.6" width="3.94" height="3.94"/><rect class="cls-1" x="193.92" y="231.49" width="3.94" height="3.94"/><rect class="cls-1" x="201.81" y="223.6" width="3.94" height="3.94"/><rect class="cls-1" x="193.92" y="215.71" width="3.94" height="3.94"/><rect class="cls-1" x="201.81" y="215.71" width="3.94" height="3.94"/><rect class="cls-1" x="154.47" y="270.93" width="3.94" height="3.94"/><rect class="cls-1" x="162.36" y="270.93" width="3.94" height="3.94"/><rect class="cls-1" x="154.47" y="263.05" width="3.94" height="3.94"/><rect class="cls-1" x="162.36" y="263.05" width="3.94" height="3.94"/><rect class="cls-1" x="162.36" y="278.82" width="3.94" height="3.94"/><rect class="cls-1" x="170.25" y="270.93" width="3.94" height="3.94"/><rect class="cls-1" x="170.25" y="263.05" width="3.94" height="3.94"/><rect class="cls-1" x="170.25" y="286.71" width="3.94" height="3.94"/><rect class="cls-1" x="146.59" y="184.16" width="3.94" height="3.94"/><rect class="cls-1" x="138.7" y="192.05" width="3.94" height="3.94"/><rect class="cls-1" x="146.59" y="192.05" width="3.94" height="3.94"/><rect class="cls-1" x="138.7" y="199.94" width="3.94" height="3.94"/><rect class="cls-1" x="146.59" y="199.94" width="3.94" height="3.94"/><rect class="cls-1" x="146.59" y="207.83" width="3.94" height="3.94"/><rect class="cls-1" x="154.47" y="184.16" width="3.94" height="3.94"/><rect class="cls-1" x="162.36" y="184.16" width="3.94" height="3.94"/><rect class="cls-1" x="154.47" y="192.05" width="3.94" height="3.94"/><rect class="cls-1" x="162.36" y="192.05" width="3.94" height="3.94"/><rect class="cls-1" x="154.47" y="199.94" width="3.94" height="3.94"/><rect class="cls-1" x="162.36" y="199.94" width="3.94" height="3.94"/><rect class="cls-1" x="154.47" y="207.83" width="3.94" height="3.94"/><rect class="cls-1" x="162.36" y="207.83" width="3.94" height="3.94"/><rect class="cls-1" x="170.25" y="184.16" width="3.94" height="3.94"/><rect class="cls-1" x="170.25" y="192.05" width="3.94" height="3.94"/><rect class="cls-1" x="170.25" y="199.94" width="3.94" height="3.94"/><rect class="cls-1" x="170.25" y="207.83" width="3.94" height="3.94"/><rect class="cls-1" x="178.14" y="184.16" width="3.94" height="3.94"/><rect class="cls-1" x="186.03" y="184.16" width="3.94" height="3.94"/><rect class="cls-1" x="178.14" y="192.05" width="3.94" height="3.94"/><rect class="cls-1" x="186.03" y="192.05" width="3.94" height="3.94"/><rect class="cls-1" x="178.14" y="199.94" width="3.94" height="3.94"/><rect class="cls-1" x="186.03" y="199.94" width="3.94" height="3.94"/><rect class="cls-1" x="178.14" y="207.83" width="3.94" height="3.94"/><rect class="cls-1" x="186.03" y="207.83" width="3.94" height="3.94"/><rect class="cls-1" x="193.92" y="192.05" width="3.94" height="3.94"/><rect class="cls-2" x="200.2" y="190.44" width="7.16" height="7.16"/><rect class="cls-1" x="193.92" y="199.94" width="3.94" height="3.94"/><rect class="cls-1" x="201.81" y="199.94" width="3.94" height="3.94"/><rect class="cls-1" x="193.92" y="207.83" width="3.94" height="3.94"/><rect class="cls-1" x="201.81" y="207.83" width="3.94" height="3.94"/><rect class="cls-1" x="209.69" y="199.94" width="3.94" height="3.94"/><rect class="cls-1" x="280.69" y="223.6" width="3.94" height="3.94"/><rect class="cls-1" x="288.58" y="223.6" width="3.94" height="3.94"/><rect class="cls-1" x="280.69" y="215.71" width="3.94" height="3.94"/><rect class="cls-1" x="288.58" y="215.71" width="3.94" height="3.94"/><rect class="cls-1" x="288.58" y="231.49" width="3.94" height="3.94"/><rect class="cls-1" x="288.58" y="239.38" width="3.94" height="3.94"/><rect class="cls-1" x="296.47" y="223.6" width="3.94" height="3.94"/><rect class="cls-1" x="296.47" y="215.71" width="3.94" height="3.94"/><rect class="cls-1" x="296.47" y="231.49" width="3.94" height="4.9"/><rect class="cls-1" x="296.47" y="239.38" width="3.94" height="3.94"/><rect class="cls-1" x="304.36" y="223.6" width="3.94" height="3.94"/><rect class="cls-2" x="302.75" y="229.88" width="7.16" height="7.16"/><rect class="cls-1" x="312.25" y="223.6" width="3.94" height="3.94"/><rect class="cls-1" x="304.36" y="215.71" width="3.94" height="3.94"/><rect class="cls-1" x="312.25" y="215.71" width="3.94" height="3.94"/><rect class="cls-2" x="271.2" y="182.55" width="7.16" height="7.16"/><rect class="cls-1" x="272.8" y="192.05" width="3.94" height="3.94"/><rect class="cls-1" x="280.69" y="184.16" width="3.94" height="3.94"/><rect class="cls-1" x="288.58" y="184.16" width="3.94" height="3.94"/><rect class="cls-1" x="280.69" y="192.05" width="3.94" height="3.94"/><rect class="cls-1" x="288.58" y="192.05" width="3.94" height="3.94"/><rect class="cls-1" x="280.69" y="199.94" width="3.94" height="3.94"/><rect class="cls-1" x="288.58" y="199.94" width="3.94" height="3.94"/><rect class="cls-1" x="280.69" y="207.83" width="3.94" height="3.94"/><rect class="cls-1" x="288.58" y="207.83" width="3.94" height="3.94"/><rect class="cls-1" x="296.47" y="184.16" width="3.94" height="3.94"/><rect class="cls-1" x="296.47" y="192.05" width="3.94" height="3.94"/><rect class="cls-1" x="296.47" y="199.94" width="3.94" height="3.94"/><rect class="cls-1" x="296.47" y="207.83" width="3.94" height="3.94"/><rect class="cls-1" x="304.36" y="184.16" width="3.94" height="3.94"/><rect class="cls-1" x="312.25" y="184.16" width="3.94" height="3.94"/><rect class="cls-1" x="304.36" y="192.05" width="3.94" height="3.94"/><rect class="cls-1" x="304.36" y="199.94" width="3.94" height="3.94"/><rect class="cls-1" x="312.25" y="199.94" width="3.94" height="3.94"/><rect class="cls-1" x="304.36" y="207.83" width="3.94" height="3.94"/><rect class="cls-1" x="312.25" y="207.83" width="3.94" height="3.94"/><rect class="cls-1" x="328.02" y="223.6" width="3.94" height="3.94"/><rect class="cls-1" x="328.02" y="215.71" width="3.94" height="3.94"/><rect class="cls-1" x="335.91" y="215.71" width="3.94" height="3.94"/><rect class="cls-1" x="320.13" y="184.16" width="3.94" height="3.94"/><rect class="cls-1" x="328.02" y="184.16" width="3.94" height="3.94"/><rect class="cls-1" x="320.13" y="192.05" width="3.94" height="3.94"/><rect class="cls-1" x="320.13" y="199.94" width="3.94" height="3.94"/><rect class="cls-1" x="320.13" y="207.83" width="3.94" height="3.94"/><rect class="cls-1" x="335.91" y="207.83" width="3.94" height="3.94"/><rect class="cls-1" x="406.91" y="184.16" width="3.94" height="3.94"/><rect class="cls-1" x="414.8" y="184.16" width="3.94" height="3.94"/><rect class="cls-1" x="414.8" y="192.05" width="3.94" height="3.94"/><rect class="cls-1" x="422.69" y="192.05" width="3.94" height="3.94"/><rect class="cls-1" x="422.69" y="199.94" width="3.94" height="3.94"/><rect class="cls-1" x="430.58" y="231.49" width="3.94" height="3.94"/><rect class="cls-1" x="438.46" y="223.6" width="3.94" height="3.94"/><rect class="cls-1" x="438.46" y="231.49" width="3.94" height="3.94"/><rect class="cls-1" x="430.58" y="239.38" width="3.94" height="3.94"/><rect class="cls-1" x="438.46" y="239.38" width="3.94" height="3.94"/><rect class="cls-1" x="430.58" y="247.27" width="3.94" height="3.94"/><rect class="cls-1" x="438.46" y="247.27" width="3.94" height="3.94"/><rect class="cls-1" x="446.35" y="223.6" width="3.94" height="3.94"/><rect class="cls-1" x="446.35" y="231.49" width="3.94" height="3.94"/><rect class="cls-1" x="454.24" y="223.6" width="3.94" height="3.94"/><rect class="cls-1" x="446.35" y="215.71" width="3.94" height="3.94"/><rect class="cls-1" x="454.24" y="215.71" width="3.94" height="3.94"/><rect class="cls-1" x="454.24" y="231.49" width="3.94" height="3.94"/><rect class="cls-1" x="446.35" y="239.38" width="3.94" height="3.94"/><rect class="cls-2" x="452.63" y="237.77" width="7.16" height="7.16"/><rect class="cls-1" x="462.13" y="223.6" width="3.94" height="3.94"/><rect class="cls-1" x="462.13" y="215.71" width="3.94" height="3.94"/><rect class="cls-1" x="462.13" y="231.49" width="3.94" height="3.94"/><rect class="cls-1" x="462.13" y="239.38" width="3.94" height="3.94"/><rect class="cls-1" x="462.13" y="247.27" width="3.94" height="3.94"/><rect class="cls-1" x="462.13" y="255.16" width="3.94" height="3.94"/><rect class="cls-1" x="470.02" y="223.6" width="3.94" height="3.94"/><rect class="cls-1" x="470.02" y="231.49" width="3.94" height="3.94"/><rect class="cls-1" x="477.91" y="223.6" width="3.94" height="3.94"/><rect class="cls-1" x="470.02" y="215.71" width="3.94" height="3.94"/><rect class="cls-1" x="477.91" y="215.71" width="3.94" height="3.94"/><rect class="cls-1" x="477.91" y="231.49" width="3.94" height="3.94"/><rect class="cls-1" x="470.02" y="239.38" width="3.94" height="3.94"/><rect class="cls-1" x="477.91" y="239.38" width="3.94" height="3.94"/><rect class="cls-1" x="470.02" y="247.27" width="3.94" height="3.94"/><rect class="cls-1" x="477.91" y="247.27" width="3.94" height="3.94"/><rect class="cls-1" x="470.02" y="255.16" width="3.94" height="3.94"/><rect class="cls-1" x="477.91" y="255.16" width="3.94" height="3.94"/><rect class="cls-1" x="485.8" y="223.6" width="3.94" height="3.94"/><rect class="cls-1" x="485.8" y="231.49" width="3.94" height="3.94"/><rect class="cls-1" x="485.8" y="239.38" width="3.94" height="3.94"/><rect class="cls-1" x="485.8" y="247.27" width="3.94" height="3.94"/><rect class="cls-1" x="517.35" y="255.16" width="3.94" height="3.94"/><rect class="cls-1" x="470.02" y="270.93" width="3.94" height="3.94"/><rect class="cls-1" x="470.02" y="263.05" width="3.94" height="3.94"/><rect class="cls-1" x="493.69" y="278.82" width="3.94" height="3.94"/><rect class="cls-1" x="501.57" y="270.93" width="3.94" height="3.94"/><rect class="cls-1" x="501.57" y="278.82" width="3.94" height="3.94"/><rect class="cls-1" x="509.46" y="270.93" width="3.94" height="3.94"/><rect class="cls-1" x="509.46" y="263.05" width="3.94" height="3.94"/><rect class="cls-1" x="517.35" y="263.05" width="3.94" height="3.94"/><rect class="cls-1" x="430.58" y="184.16" width="3.94" height="3.94"/><rect class="cls-1" x="438.46" y="184.16" width="3.94" height="3.94"/><rect class="cls-1" x="430.58" y="192.05" width="3.94" height="3.94"/><rect class="cls-1" x="438.46" y="192.05" width="3.94" height="3.94"/><rect class="cls-1" x="438.46" y="199.94" width="3.94" height="3.94"/><rect class="cls-1" x="446.35" y="192.05" width="3.94" height="3.94"/><rect class="cls-1" x="446.35" y="207.83" width="3.94" height="3.94"/><rect class="cls-1" x="462.13" y="192.05" width="3.94" height="3.94"/><rect class="cls-1" x="462.13" y="207.83" width="3.94" height="3.94"/><rect class="cls-1" x="470.02" y="192.05" width="3.94" height="3.94"/><rect class="cls-1" x="470.02" y="199.94" width="3.94" height="3.94"/><rect class="cls-1" x="477.91" y="199.94" width="3.94" height="3.94"/><rect class="cls-1" x="470.02" y="207.83" width="3.94" height="3.94"/><rect class="cls-1" x="485.8" y="199.94" width="3.94" height="3.94"/><rect class="cls-1" x="485.8" y="207.83" width="3.94" height="3.94"/><rect class="cls-1" x="430.58" y="26.39" width="3.94" height="3.94"/><rect class="cls-1" x="438.46" y="26.39" width="3.94" height="3.94"/><rect class="cls-1" x="430.58" y="34.28" width="3.94" height="3.94"/><rect class="cls-1" x="438.46" y="34.28" width="3.94" height="3.94"/><rect class="cls-1" x="446.35" y="26.39" width="3.94" height="3.94"/><rect class="cls-1" x="454.24" y="26.39" width="3.94" height="3.94"/><rect class="cls-1" x="446.35" y="34.28" width="3.94" height="3.94"/><rect class="cls-1" x="454.24" y="34.28" width="3.94" height="3.94"/><rect class="cls-1" x="462.13" y="18.5" width="3.94" height="3.94"/><rect class="cls-1" x="462.13" y="26.39" width="3.94" height="3.94"/><rect class="cls-1" x="462.13" y="34.28" width="3.94" height="3.94"/><rect class="cls-1" x="470.02" y="18.5" width="3.94" height="3.94"/><rect class="cls-1" x="470.02" y="26.39" width="3.94" height="3.94"/><rect class="cls-1" x="477.91" y="26.39" width="3.94" height="3.94"/><rect class="cls-1" x="470.02" y="34.28" width="3.94" height="3.94"/><rect class="cls-1" x="477.91" y="34.28" width="3.94" height="3.94"/><rect class="cls-1" x="485.8" y="26.39" width="3.94" height="3.94"/><path class="cls-3" d="M444.49,368.4q0,4.38-1.4,6.35t-5.08,2q-3.67,0-5.07-2t-1.4-6.33c0-2.88.48-5,1.42-6.41s2.63-2.1,5-2.1,4.1.7,5.06,2.08S444.49,365.49,444.49,368.4Zm-11.08,0a10.52,10.52,0,0,0,.95,5.17c.63,1.05,1.85,1.57,3.65,1.57s3-.51,3.65-1.54a10.49,10.49,0,0,0,.93-5.16,10.8,10.8,0,0,0-1-5.27c-.64-1.11-1.85-1.66-3.63-1.66s-3,.55-3.62,1.65A10.8,10.8,0,0,0,433.41,368.36Z"/><path class="cls-3" d="M449.79,366.18v10.29H448V366.18h-1.49v-1.54H448v-1.06a5.87,5.87,0,0,1,.71-3.42,3,3,0,0,1,2.49-.91l2.39.16,0,1.47c-.89,0-1.62-.05-2.19-.05a1.34,1.34,0,0,0-1.23.57,4.41,4.41,0,0,0-.37,2.2v1h3.43v1.54Z"/><path class="cls-3" d="M457.62,366.18v10.29h-1.77V366.18h-1.49v-1.54h1.49v-1.06a5.79,5.79,0,0,1,.71-3.42,3,3,0,0,1,2.48-.91l2.39.16,0,1.47c-.89,0-1.62-.05-2.19-.05a1.34,1.34,0,0,0-1.23.57,4.41,4.41,0,0,0-.37,2.2v1h3.43v1.54Z"/><path class="cls-3" d="M463.18,362v-2.06H465V362Zm0,14.5V364.64H465v11.83Z"/><path class="cls-3" d="M472.79,364.41a20,20,0,0,1,2.65.28l.57.07-.07,1.44q-1.89-.21-2.79-.21a3.26,3.26,0,0,0-2.74,1,6.25,6.25,0,0,0-.72,3.55,6.93,6.93,0,0,0,.68,3.61c.45.68,1.38,1,2.8,1l2.79-.22.07,1.47a24.26,24.26,0,0,1-3.29.33c-1.84,0-3.12-.47-3.82-1.42s-1.05-2.54-1.05-4.79.38-3.83,1.13-4.73A4.68,4.68,0,0,1,472.79,364.41Z"/><path class="cls-3" d="M486.59,375l.68-.07.05,1.39a34.32,34.32,0,0,1-4.61.38,4.14,4.14,0,0,1-3.62-1.48,7.92,7.92,0,0,1-1.07-4.6q0-6.22,5-6.22a4.52,4.52,0,0,1,3.57,1.33,6.22,6.22,0,0,1,1.18,4.2l-.09,1.35h-7.81a4.87,4.87,0,0,0,.71,2.91,2.9,2.9,0,0,0,2.47.95C484.18,375.15,485.37,375.1,486.59,375Zm-.64-5.14a5.14,5.14,0,0,0-.7-3.08,2.71,2.71,0,0,0-2.27-.89,2.92,2.92,0,0,0-2.37.94,4.73,4.73,0,0,0-.81,3Z"/><path class="cls-3" d="M441.22,397.18h-9V380.81H434v14.74h7.19Z"/><path class="cls-3" d="M442.59,391.24a7.51,7.51,0,0,1,1.16-4.68,4.74,4.74,0,0,1,3.92-1.45c1.84,0,3.14.48,3.91,1.45a7.59,7.59,0,0,1,1.14,4.68,8,8,0,0,1-1.09,4.71c-.72,1-2.05,1.47-4,1.47s-3.25-.49-4-1.47A8.05,8.05,0,0,1,442.59,391.24Zm1.83,0a7.65,7.65,0,0,0,.62,3.63,2.86,2.86,0,0,0,2.63,1c1.33,0,2.21-.34,2.62-1a7.62,7.62,0,0,0,.61-3.63,6.66,6.66,0,0,0-.69-3.59,2.89,2.89,0,0,0-2.54-1,2.93,2.93,0,0,0-2.55,1A6.53,6.53,0,0,0,444.42,391.21Z"/><path class="cls-3" d="M460,385.11a20.71,20.71,0,0,1,2.65.29l.56.07-.07,1.44q-1.89-.21-2.79-.21a3.24,3.24,0,0,0-2.73,1,6.25,6.25,0,0,0-.72,3.55,7,7,0,0,0,.67,3.61c.45.67,1.38,1,2.8,1l2.8-.21.07,1.47a24.56,24.56,0,0,1-3.29.33c-1.85,0-3.12-.47-3.82-1.42s-1.06-2.54-1.06-4.79.38-3.83,1.14-4.74A4.71,4.71,0,0,1,460,385.11Z"/><path class="cls-3" d="M474.28,388.92V395c.05.59.51.93,1.38,1l-.08,1.4a3.82,3.82,0,0,1-2.81-.95,10.44,10.44,0,0,1-4.26.95,3.25,3.25,0,0,1-2.49-.92,3.82,3.82,0,0,1-.85-2.65,3.31,3.31,0,0,1,.88-2.55,4.62,4.62,0,0,1,2.74-1l3.72-.36v-1a2.39,2.39,0,0,0-.52-1.72,1.92,1.92,0,0,0-1.42-.53,33.52,33.52,0,0,0-3.93.24l-.73.07-.08-1.35a24.51,24.51,0,0,1,4.62-.52,3.31,3.31,0,0,1,3.83,3.81ZM467,393.75c0,1.45.6,2.18,1.8,2.18a9.36,9.36,0,0,0,3.17-.55l.55-.19v-3.9l-3.51.33a2.22,2.22,0,0,0-1.53.62A2.14,2.14,0,0,0,467,393.75Z"/><path class="cls-3" d="M483.91,386.89h-3.76v5.65a7.58,7.58,0,0,0,.3,2.68c.19.42.66.64,1.41.64l2.1-.15.12,1.47a15.37,15.37,0,0,1-2.41.26,3.1,3.1,0,0,1-2.56-.9,5.88,5.88,0,0,1-.71-3.43v-6.22h-1.68v-1.54h1.68v-3.62h1.75v3.62h3.76Z"/><path class="cls-3" d="M485.57,391.24a7.51,7.51,0,0,1,1.16-4.68c.77-1,2.08-1.45,3.92-1.45s3.14.48,3.9,1.45,1.15,2.52,1.15,4.68a8,8,0,0,1-1.09,4.71c-.72,1-2.05,1.47-4,1.47s-3.26-.49-4-1.47A8,8,0,0,1,485.57,391.24Zm1.82,0a7.51,7.51,0,0,0,.63,3.63c.42.69,1.29,1,2.63,1s2.2-.34,2.61-1a7.6,7.6,0,0,0,.62-3.63,6.66,6.66,0,0,0-.69-3.59,2.91,2.91,0,0,0-2.54-1,3,3,0,0,0-2.56,1A6.62,6.62,0,0,0,487.39,391.21Z"/><path class="cls-3" d="M498.59,397.18V385.35h1.75V387a11.49,11.49,0,0,1,4.33-1.87v1.8a12.09,12.09,0,0,0-2.07.59,13.32,13.32,0,0,0-1.65.71l-.59.31v8.68Z"/><g id="lake_forest_open_lands_association"><path class="cls-4" d="M66.51,308c5.86,0,11.81.88,18.38.88,3,0,6.32,0,9.48.23,4,.26,8.27-.44,10.49,1.54a7.51,7.51,0,0,1,1.06,1.41,8.85,8.85,0,0,1,.94,1.47c1.16,2.75.88,6.61,1,10.55,0,0-.06,0-.06.06a8.34,8.34,0,0,1-2.48,2c-6,4.45-12,8.43-18.2,13-3.33,2.45-6.86,5.08-10.19,7.66-1.62,1.25-3.5,2.34-5.24,3.71A12.7,12.7,0,0,1,69,352.39c-1,.45-2.18,1.25-3.13,1.3-2.37.12-2.32-1.65-2.77-3.65-.1-.46-.13-1.14-.23-1.77a5.06,5.06,0,0,1-.18-1.71c.27-.8,1.44-.81,2.59-1.12a12.62,12.62,0,0,0,6.42-4,19.68,19.68,0,0,0,2.71-3.3,16.91,16.91,0,0,0,1.12-3,18.54,18.54,0,0,0,.83-3.3,21.25,21.25,0,0,0-.24-5.42,18.89,18.89,0,0,0-2.3-4.77c-2.2-3.79-4.32-7.23-6.48-11.19-.29-.55-1.3-1.81-1-2.3A.42.42,0,0,1,66.51,308Z"/><path class="cls-4" d="M62.09,311.86a3.55,3.55,0,0,1-1.18,1.54c-.45.45-.91.89-1.35,1.35-2.37,3-5.21,5.56-7.66,8.48-.52,1.47-1.1,2.91-1.59,4.42a35.84,35.84,0,0,0-1.54,4.48c-.31,1.76.18,3.74.06,5.77,0,.05.06.06.06.12a20.92,20.92,0,0,0,1.77,2.89,19.86,19.86,0,0,0,1.88,2.71c1.63,1.85,4.06,3,6,4.59A7.16,7.16,0,0,1,61,353a22.51,22.51,0,0,1,.18,2.42,3.23,3.23,0,0,1-.36,2.24,2,2,0,0,1-1.7-.18,8.79,8.79,0,0,1-1.48-.65,7.33,7.33,0,0,1-1.41-2c-1.27-2.08-2.88-4-4-6.07a21.19,21.19,0,0,0-2.71-4.07c-.48-.51-1-1.15-1.65-1.7a9.8,9.8,0,0,0-1.82-1.54,19.77,19.77,0,0,0-5.48-1.12,14.22,14.22,0,0,0-4.78.71A18.6,18.6,0,0,0,32.46,343c-1.13.7-2.44,1.24-3.42,2a20.16,20.16,0,0,0-2.65,3c-.43.51-.91,1-1.3,1.54s-.64,1.29-1.35,1.41a17.31,17.31,0,0,1-.12-3.95c0-3.87-.55-7.75-.71-11.78-.1-2.72-.13-5.41-.17-8s-.1-5.42.06-8c.17-2.9,1.46-5.58,3.41-6.84,2.71-1.74,8-1.2,12.2-1,5.14.25,10.51-.16,15.85.12,1.34.08,2.68.09,4,.12A14.41,14.41,0,0,1,62.09,311.86Z"/><path class="cls-4" d="M108.87,355.75a6.2,6.2,0,0,1-2.3.77c-2.38.59-4.95,1.23-7.54,1.65-1.72.28-3.47.56-5.24.88s-3.53.46-5.31.77c-3.4.6-6.73,1.52-10.31,1.94a52.24,52.24,0,0,1-5.89.24c-2.81,0-6.23.35-7.3-1.48A9,9,0,0,1,65,357.7a6,6,0,0,1,1.88-2.24,19.33,19.33,0,0,1,2.3-1.83c1.8-.32,4.59-1.1,6.48-.65a10.2,10.2,0,0,1,1.65.83c.57.26,1.17.46,1.71.7a21.59,21.59,0,0,0,3.35,1.54,46.53,46.53,0,0,0,4.72.47,10.38,10.38,0,0,0,1.47.17,6.82,6.82,0,0,0,2.24-.88,43.33,43.33,0,0,0,5.89-3.3c1.11-1.69,2.17-3.54,3.24-5.42a41.88,41.88,0,0,0,2.94-5.65c1.19-3.09,2.49-6.12,3.54-9.37.48-1.5,1.27-2.64,1.71-4.24a6.12,6.12,0,0,1,.29-1.36c.32-.52,1.37-.78,1.89-1,1-.43.62,1.16.58,1.41a55.1,55.1,0,0,0-.29,5.89,55.26,55.26,0,0,1-.65,7.6c-.32,2.56-.39,5.19-.59,7.66S109.22,353.35,108.87,355.75Z"/><path class="cls-4" d="M61.62,368.83a6.64,6.64,0,0,1-3.48-.06,20.88,20.88,0,0,1-2.3-1.18c-2.24-1.13-4.08-2.7-6.42-3.83a41.91,41.91,0,0,0-4.89-2c-2.52-.85-5.66-2-8.77-1a9.85,9.85,0,0,0-3.12,2.06,76.52,76.52,0,0,0-8,7.42c-.56.33-.83,1.25-1.65,1.12a3.78,3.78,0,0,1-.29-2.06c-.08-3.83-.06-7.38-.24-11.31,0-.61-.09-1.35-.11-2.18s-.2-1.93.17-2.06a.44.44,0,0,1,.18-.12c3,.19,6.06.65,9.07,1.06,2.74.37,5.53.65,8.25,1.06,4,.62,8,1.19,12,1.95,2.28.43,4.95.44,6.12,1.94a11,11,0,0,1,1,2.3c.31.75.71,1.51,1,2.18C60.75,365.65,61.57,367,61.62,368.83Z"/><path class="cls-4" d="M105.63,358.88c.61-.21.41,1.33.41,1.94,0,2.17-.05,4.34,0,6.77.06,2.89.33,5.82.53,8.55a112,112,0,0,1,.06,13c-.06,1.57.18,3.38-.24,4.77-.17.56-.55,1.13-.82,1.77-.73,1.66-2.14,3.8-3.77,4.47a11.62,11.62,0,0,1-4.13.3c-1.6,0-3-.06-4.41-.12-3.07-.13-6.33-.06-8.78-.06-2.92,0-5.82-.24-8.72-.24s-5.9-.15-8.72-.35c-.68-1.45-.63-3.31-.82-5.12-.39-3.69-1.08-6.65-1.36-10.49-.11-1.5-.16-4.48.83-4.95a3.4,3.4,0,0,1,2.29.35c.78.31,1.55.48,2.18.71,4.1,1.52,8.45,3.28,12.55,4.66,4.34,1.45,8.59,2.91,12.9,4.35.72.24,1.46.49,2.18.71s1.43.67,2.18.41a7.67,7.67,0,0,0-.94-3.06c-.79-1.92-1.6-3.85-2.42-5.77-.41-1-.73-2-1.18-2.89a17.67,17.67,0,0,0-2.12-3.12,20.33,20.33,0,0,0-2.59-2.65c-4.69-2.17-10.47-.26-15.14.76a22.85,22.85,0,0,0-6,2c-1.52-.08-2.26.53-3.71.82-1,.2-2.55.32-3.06-.29s-.19-2.53-.06-3.42a21.54,21.54,0,0,1,1.65-6,10,10,0,0,1,1.18-2.59,5.61,5.61,0,0,1,1.53-.59,7.17,7.17,0,0,1,1.65-.47,8.89,8.89,0,0,1,2.83.65,50.63,50.63,0,0,1,6.89,3.35c2.26,1.19,4.45,2.28,7,3.3a11.8,11.8,0,0,0,2.53.89,9.55,9.55,0,0,0,5.89-.89A18.85,18.85,0,0,0,97,367.77c1-.91,2-2,2.88-2.83C101.94,363,103.67,360.92,105.63,358.88Z"/><path class="cls-4" d="M58.67,374.37a59.19,59.19,0,0,1,2.24,8.19,6.72,6.72,0,0,1,.41,2.77c-.58.46-1.4.21-2.06.17-9.56-.45-19.31-.86-28.69-1.53-.73-.05-1.5-.08-2.24-.12s-1.37-.28-1.94.12a5.61,5.61,0,0,0,1.06,2.3c.39.74.8,1.49,1.18,2.24A36.91,36.91,0,0,0,31,392.93a11.67,11.67,0,0,0,3.54,2.77,16.75,16.75,0,0,0,1.94,1,10.66,10.66,0,0,0,2.36.76,16.35,16.35,0,0,0,2.36.06,33.92,33.92,0,0,0,3.53-.12,9.89,9.89,0,0,0,2.06-.76c.67-.26,1.33-.58,2-.83,3.52-1.39,5.33-3.66,8.54-5.47.52-.3,1.48-.94,1.88-.89s.74.79.95,1.42.51,1.18.64,1.65a26.8,26.8,0,0,1,.71,4.3,22.39,22.39,0,0,1,.59,4.3,9.26,9.26,0,0,1-3.24.05c-1.15,0-2.33-.11-3.54-.11-6.93,0-14.53.37-21.08.35-.76,0-1.56-.12-2.36-.12a7.75,7.75,0,0,1-3.54-.47,7.57,7.57,0,0,1-1.88-1.41c-1.06-1.06-2.07-1.85-2.24-3.72a43.19,43.19,0,0,1,.24-5.47c.2-4.33.32-9.12.53-13.61a6.57,6.57,0,0,1,.35-2.48,16.33,16.33,0,0,1,5.6.77c1.7.45,3.34,1,5,1.59,3.27,1.2,6.71,2.74,10.48,2.65,2.49-.06,4.52-1.51,6.31-2.59l2.24-1.36C56,374.49,57.31,373.07,58.67,374.37Z"/></g><path class="cls-3" d="M132.16,332.61V313h4.09l7.53,17.72h.6V313h2.16v19.65h-4l-7.64-17.72h-.54v17.72Z"/><path class="cls-3" d="M166.1,322.92c0,3.51-.55,6-1.67,7.62s-3.15,2.35-6.09,2.35-5-.8-6.09-2.41-1.68-4.14-1.68-7.6.57-6,1.7-7.69,3.16-2.52,6-2.52,4.92.84,6.07,2.5S166.1,319.42,166.1,322.92Zm-13.29-.05q0,4.32,1.14,6.21t4.39,1.88q3.24,0,4.37-1.84t1.12-6.2q0-4.34-1.16-6.33c-.78-1.32-2.23-2-4.36-2s-3.58.66-4.34,2S152.81,320,152.81,322.87Z"/><path class="cls-3" d="M172.15,326.7q0,4.26,4.61,4.26a5.45,5.45,0,0,0,3.59-1,4,4,0,0,0,1.2-3.25V313h2.16v13.69q0,3.28-1.74,4.77a7.86,7.86,0,0,1-5.16,1.47,7.69,7.69,0,0,1-5.12-1.47q-1.73-1.49-1.72-4.77V313h2.18Z"/><path class="cls-3" d="M190.59,325.08v7.53H188.4V313h7.27a6.71,6.71,0,0,1,4.7,1.45,5.83,5.83,0,0,1,1.58,4.51c0,3-1.21,4.93-3.61,5.71l3.78,8H199.7l-3.55-7.53Zm5.11-1.93q4,0,4-4.13c0-2.76-1.34-4.13-4-4.13h-5.08v8.26Z"/><path class="cls-3" d="M208.08,325.08v7.53H205.9V313h7.27a6.71,6.71,0,0,1,4.7,1.45,5.82,5.82,0,0,1,1.57,4.51q0,4.54-3.6,5.71l3.78,8H217.2l-3.55-7.53Zm5.12-1.93q4,0,4-4.13c0-2.76-1.34-4.13-4-4.13h-5.09v8.26Z"/><path class="cls-3" d="M223.39,332.61V313h2.19v19.65Z"/><path class="cls-3" d="M232.57,325.08v7.53h-2.19V313h7.27a6.71,6.71,0,0,1,4.7,1.45,5.83,5.83,0,0,1,1.58,4.51c0,3-1.21,4.93-3.61,5.71l3.78,8h-2.42l-3.55-7.53Zm5.11-1.93q4,0,4-4.13c0-2.76-1.34-4.13-4-4.13h-5.08v8.26Z"/><path class="cls-3" d="M134.21,358.26c0,2.84,1.54,4.26,4.6,4.26a5.54,5.54,0,0,0,3.6-1,4,4,0,0,0,1.2-3.25V344.52h2.16V358.2q0,3.3-1.75,4.77a9.67,9.67,0,0,1-10.28,0c-1.14-1-1.72-2.57-1.72-4.77V344.52h2.19Z"/><path class="cls-3" d="M150.46,364.17V344.52h4.08l7.53,17.72h.6V344.52h2.16v19.65h-4l-7.64-17.73h-.54v17.73Z"/><path class="cls-5" d="M176.48,364.17V338.23h7.31l5.79,20.26,5.8-20.26h7.34v25.94h-4.24V342.88h-.57l-6.13,20.23h-4.39l-6.14-20.23h-.57v21.29Z"/><path class="cls-5" d="M226.3,361.4q-2.34,3.18-8.2,3.18c-3.91,0-6.65-1.06-8.22-3.2s-2.35-5.48-2.35-10.05.79-8,2.37-10.19,4.31-3.33,8.2-3.33,6.61,1.11,8.18,3.32,2.35,5.6,2.35,10.2S227.85,359.28,226.3,361.4Zm-13.12-2.72q1.27,2.24,4.92,2.23c2.42,0,4.06-.73,4.9-2.19s1.27-3.92,1.27-7.37-.43-6-1.31-7.52-2.49-2.35-4.86-2.35-4,.79-4.89,2.35-1.32,4.06-1.32,7.48S212.32,357.19,213.18,358.68Z"/><path class="cls-5" d="M233.51,364.17V338.23h7.35l7.88,22.23h.56V338.23h4.21v25.94h-7.2l-8.06-22.27h-.53v22.27Z"/><path class="cls-5" d="M268.46,364.17h-9V338.23h9q6,0,8.18,3c1.47,2,2.2,5.18,2.2,9.5a30.51,30.51,0,0,1-.44,5.59,12.74,12.74,0,0,1-1.53,4.14Q274.71,364.17,268.46,364.17Zm6-13.41q0-4.69-1.17-6.78c-.78-1.38-2.4-2.08-4.85-2.08h-4.77v18.56h4.77q3.75,0,5-2.77a10.91,10.91,0,0,0,.81-3A30.83,30.83,0,0,0,274.48,350.76Z"/><path class="cls-5" d="M283.76,364.17V338.23h16.36v3.67H288v7.35h9.88v3.63H288v7.58h12.15v3.71Z"/><path class="cls-3" d="M132,395.72V376.27h12.26V379h-9.11v5.52h7.41v2.72h-7.41v5.68h9.11v2.78Z"/><path class="cls-3" d="M147.7,395.72V376.27h5.51l5.91,16.67h.42V376.27h3.16v19.45h-5.4L151.25,379h-.4v16.7Z"/><path class="cls-6" d="M189.41,395.34a31,31,0,0,1-6.63.8,12.57,12.57,0,0,1-4.72-.73,5.78,5.78,0,0,1-2.77-2.32,10.18,10.18,0,0,1-1.39-3.75,31.25,31.25,0,0,1-.39-5.42c0-4.56.65-7.73,1.93-9.53s3.65-2.69,7.1-2.69a30.54,30.54,0,0,1,6.91.94l-.14,3.82a39.06,39.06,0,0,0-5.71-.52,6.38,6.38,0,0,0-3.25.61,3.71,3.71,0,0,0-1.44,2.31,24.69,24.69,0,0,0-.47,5.79q0,4.1,1,5.68c.63,1.05,1.91,1.58,3.82,1.58a40.19,40.19,0,0,0,6.09-.49Z"/><path class="cls-6" d="M206.87,395.72v-9.78h-8.78v9.78H193.3v-23.6h4.79v9.65h8.78v-9.65h4.79v23.6Z"/><path class="cls-6" d="M214.82,395.72l5.31-23.6h9.1l5.31,23.6h-4.79l-.94-4.26h-8.26l-.94,4.26Zm9-19.64-2.4,11.21h6.46l-2.4-11.21Z"/><path class="cls-6" d="M237.7,395.72v-23.6h8.09l5.69,19.44h.35V372.12h4.79v23.6h-7.88l-5.9-19.43h-.35v19.43Z"/><path class="cls-6" d="M271.58,387.26v-4.17h6.87v12.25a52,52,0,0,1-8.05.8q-5.52,0-7.59-2.95c-1.37-2-2.06-5.09-2.06-9.37s.72-7.37,2.15-9.27,3.88-2.85,7.33-2.85a37.14,37.14,0,0,1,7,.73l1.25.25-.14,3.71a65.9,65.9,0,0,0-6.82-.45,8.08,8.08,0,0,0-3.73.62,3.74,3.74,0,0,0-1.58,2.31,23.07,23.07,0,0,0-.5,5.76c0,2.72.33,4.63,1,5.71s2.06,1.63,4.17,1.63l2.88-.13v-4.58Z"/><path class="cls-6" d="M283,395.72v-23.6h15.27v4.17H287.75v5.51h8.41v4.1h-8.41v5.66h10.49v4.16Z"/><path class="cls-6" d="M302.2,395.72v-23.6h8.15l4.17,17.22,4.16-17.22h8.16v23.6h-4.79V377.47h-.52l-4.62,17.21h-4.79l-4.61-17.21H307v18.25Z"/><path class="cls-6" d="M332,395.72v-23.6h15.27v4.17H336.77v5.51h8.4v4.1h-8.4v5.66h10.48v4.16Z"/><path class="cls-6" d="M351.21,395.72v-23.6h8.09L365,391.56h.35V372.12h4.79v23.6h-7.88l-5.9-19.43H356v19.43Z"/><path class="cls-6" d="M373.14,376.36v-4.24H390.5v4.24h-6.25v19.36h-4.79V376.36Z"/><rect class="cls-3" x="410.91" y="310.33" width="0.99" height="89.73"/><circle class="cls-5" cx="505.08" cy="326.6" r="22.19"/><polygon class="cls-4" points="486.06 338.02 505.08 373.66 525.1 336.16 486.06 338.02"/><circle class="cls-7" cx="505.08" cy="326.6" r="13.31"/></svg>