<svg xmlns="http://www.w3.org/2000/svg" viewBox="0 0 156.24 97.99"><defs><style>.cls-1,.cls-3{fill:#88b04b;}.cls-1{fill-rule:evenodd;}.cls-2{fill:#13322b;}.cls-4{fill:#bfd833;}</style></defs><g id="Calque_2" data-name="Calque 2"><g id="Calque_1-2" data-name="Calque 1"><g id="lake_forest_open_lands_association"><path class="cls-1" d="M29.91,0c4,0,8,.6,12.43.6,2,0,4.27,0,6.41.16,2.69.17,5.59-.3,7.09,1a5.46,5.46,0,0,1,.72,1,6.05,6.05,0,0,1,.63,1c.79,1.86.59,4.47.64,7.13,0,0,0,0,0,0a5.67,5.67,0,0,1-1.67,1.36c-4.07,3-8.1,5.7-12.31,8.8-2.25,1.66-4.64,3.43-6.89,5.18-1.09.84-2.36,1.58-3.54,2.5A8.29,8.29,0,0,1,31.59,30a7.92,7.92,0,0,1-2.11.88c-1.61.08-1.58-1.12-1.88-2.47-.07-.31-.08-.77-.16-1.2a3.36,3.36,0,0,1-.12-1.15c.19-.54,1-.55,1.76-.76a8.53,8.53,0,0,0,4.34-2.71,13.4,13.4,0,0,0,1.83-2.23,11.13,11.13,0,0,0,.76-2,13.21,13.21,0,0,0,.55-2.23,14.36,14.36,0,0,0-.16-3.66A12.81,12.81,0,0,0,34.85,9.2c-1.49-2.56-2.92-4.89-4.38-7.57-.2-.37-.88-1.22-.68-1.55A.25.25,0,0,1,29.91,0Z"/><path class="cls-1" d="M26.92,2.59a2.33,2.33,0,0,1-.79,1l-.92.92c-1.6,2-3.52,3.76-5.18,5.74-.35,1-.74,2-1.07,3a23.51,23.51,0,0,0-1,3c-.21,1.19.12,2.53,0,3.9,0,0,0,0,0,.08a13,13,0,0,0,1.2,1.95,13,13,0,0,0,1.27,1.84c1.1,1.25,2.74,2,4.06,3.1a4.84,4.84,0,0,1,1.68,3.27,16.18,16.18,0,0,1,.12,1.63,2.27,2.27,0,0,1-.24,1.52,1.41,1.41,0,0,1-1.16-.12,7,7,0,0,1-1-.44,5.16,5.16,0,0,1-1-1.36c-.86-1.4-1.94-2.73-2.71-4.1a14.3,14.3,0,0,0-1.83-2.75c-.32-.35-.71-.78-1.12-1.15a6.18,6.18,0,0,0-1.23-1,13.11,13.11,0,0,0-3.7-.76,9.64,9.64,0,0,0-3.23.48,12.78,12.78,0,0,0-2.27,1.28A26.51,26.51,0,0,0,4.58,25a13.47,13.47,0,0,0-1.79,2c-.29.34-.62.67-.88,1s-.43.87-.91.95a11.86,11.86,0,0,1-.08-2.67c0-2.61-.38-5.24-.48-8C.37,16.52.35,14.7.32,12.94S.25,9.28.36,7.53A5.92,5.92,0,0,1,2.67,2.91c1.83-1.18,5.41-.81,8.24-.68,3.48.17,7.11-.11,10.72.08.91,0,1.81.06,2.71.08A9.28,9.28,0,0,1,26.92,2.59Z"/><path class="cls-1" d="M58.55,32.26a4.12,4.12,0,0,1-1.55.52c-1.61.4-3.35.83-5.1,1.11-1.17.19-2.35.38-3.55.6S46,34.8,44.77,35c-2.31.4-4.55,1-7,1.31a33.65,33.65,0,0,1-4,.16c-1.9,0-4.21.24-4.93-1a6,6,0,0,1,0-1.91,4,4,0,0,1,1.27-1.52,13,13,0,0,1,1.55-1.23c1.22-.22,3.1-.75,4.38-.44a5.86,5.86,0,0,1,1.12.56c.38.18.79.31,1.15.47a15,15,0,0,0,2.27,1,29.92,29.92,0,0,0,3.19.32,10,10,0,0,0,1,.12,4.86,4.86,0,0,0,1.51-.6,29.27,29.27,0,0,0,4-2.23c.75-1.14,1.47-2.39,2.19-3.67a27.56,27.56,0,0,0,2-3.82c.81-2.08,1.69-4.13,2.39-6.33.33-1,.86-1.78,1.16-2.87a3.91,3.91,0,0,1,.2-.92c.21-.35.92-.52,1.27-.67.66-.29.42.78.4,1a34.71,34.71,0,0,0-.2,4,37.19,37.19,0,0,1-.44,5.13c-.22,1.73-.27,3.51-.4,5.18S58.79,30.64,58.55,32.26Z"/><path class="cls-1" d="M26.61,41.1a4.47,4.47,0,0,1-2.35,0,16.33,16.33,0,0,1-1.56-.79c-1.51-.77-2.76-1.83-4.34-2.59a28.57,28.57,0,0,0-3.31-1.36c-1.7-.57-3.83-1.36-5.93-.67A6.5,6.5,0,0,0,7,37a51.8,51.8,0,0,0-5.42,5c-.38.22-.56.84-1.11.76a2.59,2.59,0,0,1-.2-1.4c-.05-2.59,0-5-.16-7.65,0-.41-.06-.91-.08-1.47S-.09,31,.16,30.91a.25.25,0,0,1,.12-.08c2,.13,4.1.44,6.13.71,1.85.25,3.74.44,5.58.72,2.73.41,5.42.8,8.12,1.31,1.55.3,3.35.3,4.15,1.32a7.59,7.59,0,0,1,.63,1.55c.22.51.49,1,.68,1.48A8.46,8.46,0,0,1,26.61,41.1Z"/><path class="cls-1" d="M56.36,34.37c.41-.13.28.9.28,1.32,0,1.46,0,2.93,0,4.58,0,1.95.22,3.93.36,5.77a77.53,77.53,0,0,1,0,8.76A14.2,14.2,0,0,1,56.88,58c-.12.38-.38.77-.56,1.19a6,6,0,0,1-2.55,3,7.89,7.89,0,0,1-2.79.2c-1.09,0-2,0-3-.08-2.07-.09-4.27,0-5.93,0-2,0-3.93-.16-5.89-.16s-4-.1-5.9-.24a11.25,11.25,0,0,1-.56-3.46C29.45,56,29,54,28.8,51.38c-.08-1-.11-3,.56-3.35a2.31,2.31,0,0,1,1.55.24c.52.21,1,.32,1.47.48,2.77,1,5.71,2.22,8.49,3.15l8.72,2.94c.48.17,1,.33,1.47.48s1,.45,1.47.28a5.13,5.13,0,0,0-.63-2.07c-.54-1.3-1.08-2.6-1.64-3.9-.27-.66-.49-1.34-.79-2A12.1,12.1,0,0,0,48,45.56a13.48,13.48,0,0,0-1.75-1.79c-3.17-1.47-7.08-.17-10.24.52a15.43,15.43,0,0,0-4,1.35,8.77,8.77,0,0,0-2.51.56c-.66.13-1.72.22-2.07-.2s-.12-1.7,0-2.31a14.52,14.52,0,0,1,1.12-4,6.87,6.87,0,0,1,.79-1.75,4.25,4.25,0,0,1,1-.4,4.59,4.59,0,0,1,1.12-.32,6,6,0,0,1,1.91.44A34.15,34.15,0,0,1,38,39.91c1.53.8,3,1.54,4.7,2.23a8.33,8.33,0,0,0,1.71.6,6.51,6.51,0,0,0,4-.6,12.47,12.47,0,0,0,2.11-1.75c.69-.62,1.34-1.34,2-1.92C53.86,37.19,55,35.75,56.36,34.37Z"/><path class="cls-1" d="M24.61,44.85a41.23,41.23,0,0,1,1.52,5.53,4.83,4.83,0,0,1,.28,1.88c-.4.31-1,.14-1.4.11-6.46-.3-13.06-.58-19.39-1-.5,0-1-.06-1.52-.08s-.92-.19-1.31.08c0,.59.45,1,.72,1.55s.54,1,.79,1.52a24.71,24.71,0,0,0,1.63,3,8.08,8.08,0,0,0,2.39,1.88,10.17,10.17,0,0,0,1.32.67,7.4,7.4,0,0,0,1.59.52,10.25,10.25,0,0,0,1.59,0,23.26,23.26,0,0,0,2.39-.08,6.74,6.74,0,0,0,1.4-.52c.45-.17.9-.39,1.31-.55,2.38-1,3.61-2.48,5.78-3.71.35-.2,1-.63,1.27-.6s.5.54.64,1,.34.8.44,1.12a19.5,19.5,0,0,1,.48,2.9,15.45,15.45,0,0,1,.39,2.91,6.42,6.42,0,0,1-2.19,0c-.78,0-1.57-.08-2.39-.08-4.69,0-9.82.25-14.25.24-.51,0-1.06-.08-1.6-.08a5.23,5.23,0,0,1-2.39-.32,4.73,4.73,0,0,1-1.27-1,3.72,3.72,0,0,1-1.52-2.51,29.73,29.73,0,0,1,.16-3.7c.14-2.92.23-6.16.36-9.2a4.57,4.57,0,0,1,.24-1.67,10.81,10.81,0,0,1,3.79.52c1.14.3,2.25.67,3.34,1.07,2.21.81,4.54,1.85,7.09,1.79a8.72,8.72,0,0,0,4.26-1.75c.49-.29,1-.6,1.52-.92C22.82,44.93,23.69,44,24.61,44.85Z"/></g><path class="cls-2" d="M88.69,39.14l1.83-.22.69,2L90,41.88H84.29L82.53,38l-9,0-.66,1.8,1.39,2.17h-6l8.27-18.66-1.35-3.37h5.73Zm-14.47-3.4,7.33-.22-3.62-8.68Z"/><path class="cls-2" d="M108.65,28.94c0,1.09,0,2.21,0,3.34s0,2.22,0,3.26V38.1L104.81,42H96.94L93.38,39V28.82l-2.17-1.23L92,26.14h5.92l0,11.43,1.1,2.3,3.59-.35L104,37.19l0-8.59-.3-.22-.41-.33c-.13-.12-.26-.22-.38-.32l-.23-.17V26.14h6Z"/><path class="cls-2" d="M118.07,35.76c0,1.39,0,2.71,0,4l1.38.53c0,.28,0,.54,0,.81s0,.54,0,.83h-5.91c0-.32,0-.75,0-1.31s0-1.18,0-1.87,0-1.42,0-2.19V28.57l-1.61-1,.76-1.42h5l.19,2.9a19.53,19.53,0,0,1,2-1.64,12.13,12.13,0,0,1,1.85-1.12,4.24,4.24,0,0,1,1.84-.48,4.6,4.6,0,0,1,1.48.22,8,8,0,0,1,1.16.48A5,5,0,0,1,127,27l.46.36-1.2,3.37-4.09-.94a4.11,4.11,0,0,0-1,.33c-.41.17-.82.37-1.23.58s-.78.42-1.12.63l-.75.47C118.06,33.06,118.06,34.36,118.07,35.76Z"/><path class="cls-2" d="M134.82,38.62a4.43,4.43,0,0,0,3.41,1.47,4.31,4.31,0,0,0,1.83-1.26c.5-.59,1.05-1.27,1.64-2l3.52,1.29a2.61,2.61,0,0,1-.44.87,8.32,8.32,0,0,1-2.5,2.4,3.18,3.18,0,0,1-1.56.54H133a2.46,2.46,0,0,1-1.72-1,10.44,10.44,0,0,1-1.59-2.46,12.86,12.86,0,0,1-1-3.11,6.9,6.9,0,0,1,0-3,14.16,14.16,0,0,1,.53-1.45,11.25,11.25,0,0,1,1-1.84,8.52,8.52,0,0,1,1.54-1.71A4.93,4.93,0,0,1,134,26.24,18.25,18.25,0,0,1,136,26a21.49,21.49,0,0,1,2.41-.07,15.65,15.65,0,0,1,2.26.21,3.76,3.76,0,0,1,1.59.55,5.12,5.12,0,0,1,1,1,8.09,8.09,0,0,1,.95,1.49,10.49,10.49,0,0,1,.69,1.83,8.23,8.23,0,0,1,.3,1.95l-2.11,1.73-9.5.54A6.1,6.1,0,0,0,134.82,38.62Zm5.41-7.24c-.13-.49-.3-1-.5-1.54a13,13,0,0,0-.63-1.43c-.22-.42-.43-.64-.61-.66a3.07,3.07,0,0,0-.81.06c-.32.06-.66.14-1,.24s-.68.2-1,.31a7.37,7.37,0,0,0-.75.33,2.35,2.35,0,0,0-.44.69,8.25,8.25,0,0,0-.41,1.07,8.49,8.49,0,0,0-.3,1.23,7,7,0,0,0-.11,1.14l6.8-.45A8.82,8.82,0,0,0,140.23,31.38Z"/><path class="cls-2" d="M154,39.24l2.24.66v2h-6.61l.06-19.42-2.42-1.1.41-1.51H154Z"/><path class="cls-2" d="M130.94,50.18V49.1h1.78v3.18a14.66,14.66,0,0,1-2.09.2,2.24,2.24,0,0,1-2-.76,4.28,4.28,0,0,1-.54-2.43,4.09,4.09,0,0,1,.56-2.41,2.24,2.24,0,0,1,1.9-.73,10,10,0,0,1,1.81.18l.32.07,0,1a16.66,16.66,0,0,0-1.77-.12,2,2,0,0,0-1,.17.93.93,0,0,0-.41.59,5.83,5.83,0,0,0-.13,1.5,3.07,3.07,0,0,0,.26,1.48,1.19,1.19,0,0,0,1.08.42l.75,0V50.18Z"/><path class="cls-2" d="M135.13,50.32v2h-1.24V46.25h2.38c1.44,0,2.16.68,2.16,2a1.92,1.92,0,0,1-.9,1.76l.87,2.34H137l-.71-2ZM136.94,49a1.08,1.08,0,0,0,.22-.71,1,1,0,0,0-.23-.7.8.8,0,0,0-.66-.26h-1.14v1.94h1.16A.78.78,0,0,0,136.94,49Z"/><path class="cls-2" d="M143.71,51.72a2.93,2.93,0,0,1-3.94,0,4,4,0,0,1-.57-2.38,4.14,4.14,0,0,1,.57-2.41,2.88,2.88,0,0,1,3.94,0,4.14,4.14,0,0,1,.57,2.41A4,4,0,0,1,143.71,51.72Zm-3-.79a1,1,0,0,0,1,.47,1.06,1.06,0,0,0,1-.47,3.55,3.55,0,0,0,.26-1.58,3.61,3.61,0,0,0-.27-1.62,1.23,1.23,0,0,0-2,0,3.61,3.61,0,0,0-.27,1.62A3.39,3.39,0,0,0,140.75,50.93Z"/><path class="cls-2" d="M146.53,50.33a1.09,1.09,0,0,0,2.18,0V46.25H150v4a2.15,2.15,0,0,1-.58,1.65,3.15,3.15,0,0,1-3.5,0,2.11,2.11,0,0,1-.58-1.65v-4h1.24Z"/><path class="cls-2" d="M153.48,50.59h-1v1.78h-1.24V46.25h2.25a1.9,1.9,0,0,1,2.17,2.13A2.26,2.26,0,0,1,155.1,50,2.16,2.16,0,0,1,153.48,50.59Zm-1-1.06h1c.62,0,.92-.38.92-1.15a1.22,1.22,0,0,0-.22-.82.91.91,0,0,0-.7-.24h-1Z"/><rect class="cls-2" x="68.13" y="58.23" width="88" height="0.5"/><path class="cls-2" d="M69,77.86V71.63h1.3l2.38,5.62h.19V71.63h.69v6.23H72.29l-2.42-5.62H69.7v5.62Z"/><path class="cls-2" d="M79.76,74.79a4.28,4.28,0,0,1-.53,2.41A2.22,2.22,0,0,1,77.3,78a2.18,2.18,0,0,1-1.93-.77,4.22,4.22,0,0,1-.53-2.4,4.39,4.39,0,0,1,.54-2.44,2.7,2.7,0,0,1,3.83,0A4.35,4.35,0,0,1,79.76,74.79Zm-4.21,0a4,4,0,0,0,.36,2,1.91,1.91,0,0,0,2.77,0,3.93,3.93,0,0,0,.36-2,4.09,4.09,0,0,0-.37-2,1.47,1.47,0,0,0-1.38-.63,1.45,1.45,0,0,0-1.38.63A4.17,4.17,0,0,0,75.55,74.77Z"/><path class="cls-2" d="M81.67,76c0,.9.49,1.35,1.46,1.35A1.74,1.74,0,0,0,84.27,77a1.27,1.27,0,0,0,.38-1V71.63h.69V76a1.88,1.88,0,0,1-.56,1.51,2.46,2.46,0,0,1-1.63.47,2.43,2.43,0,0,1-1.62-.47A1.87,1.87,0,0,1,81,76V71.63h.69Z"/><path class="cls-2" d="M87.52,75.47v2.39h-.7V71.63h2.31a2.13,2.13,0,0,1,1.49.46,1.87,1.87,0,0,1,.5,1.43A1.69,1.69,0,0,1,90,75.33l1.2,2.53H90.4l-1.12-2.39Zm1.62-.61c.84,0,1.26-.43,1.26-1.31a1.14,1.14,0,0,0-1.27-1.31H87.52v2.62Z"/><path class="cls-2" d="M93.06,75.47v2.39h-.69V71.63h2.3a2.11,2.11,0,0,1,1.49.46,1.87,1.87,0,0,1,.5,1.43,1.68,1.68,0,0,1-1.14,1.81l1.19,2.53H96l-1.13-2.39Zm1.62-.61c.85,0,1.27-.43,1.27-1.31a1.15,1.15,0,0,0-1.28-1.31H93.06v2.62Z"/><path class="cls-2" d="M97.91,77.86V71.63h.69v6.23Z"/><path class="cls-2" d="M100.82,75.47v2.39h-.69V71.63h2.3a2.11,2.11,0,0,1,1.49.46,1.87,1.87,0,0,1,.5,1.43,1.68,1.68,0,0,1-1.14,1.81l1.19,2.53h-.76l-1.13-2.39Zm1.62-.61a1.31,1.31,0,0,0,0-2.62h-1.61v2.62Z"/><path class="cls-2" d="M69.65,86c0,.9.49,1.35,1.46,1.35A1.78,1.78,0,0,0,72.25,87a1.3,1.3,0,0,0,.38-1V81.63h.68V86a1.87,1.87,0,0,1-.55,1.51,3.06,3.06,0,0,1-3.26,0A1.9,1.9,0,0,1,69,86V81.63h.69Z"/><path class="cls-2" d="M74.8,87.86V81.63h1.29l2.39,5.62h.19V81.63h.68v6.23H78.08l-2.42-5.62h-.17v5.62Z"/><path class="cls-3" d="M83.05,87.86V79.64h2.31l1.84,6.42L89,79.64h2.33v8.22H90V81.11h-.18l-2,6.41H86.5l-1.94-6.41h-.18v6.75Z"/><path class="cls-3" d="M98.83,87a3.85,3.85,0,0,1-5.2,0,5.42,5.42,0,0,1-.74-3.19,5.62,5.62,0,0,1,.75-3.23,3.73,3.73,0,0,1,5.19,0,5.66,5.66,0,0,1,.74,3.23A5.45,5.45,0,0,1,98.83,87Zm-4.16-.86a2.08,2.08,0,0,0,3.12,0,4.91,4.91,0,0,0,.4-2.33,5.25,5.25,0,0,0-.41-2.39,2,2,0,0,0-3.09,0,5.06,5.06,0,0,0-.42,2.37A5,5,0,0,0,94.67,86.12Z"/><path class="cls-3" d="M101.12,87.86V79.64h2.33l2.49,7h.18v-7h1.33v8.22h-2.28l-2.55-7.06h-.17v7.06Z"/><path class="cls-3" d="M112.19,87.86h-2.84V79.64h2.84a3,3,0,0,1,2.6,1,5.2,5.2,0,0,1,.69,3,8.93,8.93,0,0,1-.14,1.77,4,4,0,0,1-.48,1.31A2.84,2.84,0,0,1,112.19,87.86Zm1.91-4.25a4.6,4.6,0,0,0-.37-2.15,1.62,1.62,0,0,0-1.54-.66h-1.51v5.88h1.51a1.57,1.57,0,0,0,1.59-.87,3.82,3.82,0,0,0,.26-1A10.87,10.87,0,0,0,114.1,83.61Z"/><path class="cls-3" d="M117,87.86V79.64h5.19V80.8h-3.86v2.33h3.14v1.15h-3.14v2.4h3.86v1.18Z"/><path class="cls-2" d="M69,97.86V91.69h3.89v.88H70v1.74H72.3v.87H70V97h2.89v.88Z"/><path class="cls-2" d="M73.93,97.86V91.69h1.74L77.54,97h.14V91.69h1v6.17H77l-1.92-5.29h-.13v5.29Z"/><path class="cls-4" d="M87.14,97.74A9.79,9.79,0,0,1,85,98a4.05,4.05,0,0,1-1.49-.23,1.78,1.78,0,0,1-.88-.74,3.07,3.07,0,0,1-.44-1.19,10.05,10.05,0,0,1-.12-1.71,5.41,5.41,0,0,1,.61-3A2.57,2.57,0,0,1,85,90.25a10,10,0,0,1,2.19.29l0,1.21a12.44,12.44,0,0,0-1.81-.16,2,2,0,0,0-1,.19,1.21,1.21,0,0,0-.45.73,7.75,7.75,0,0,0-.15,1.84,3.8,3.8,0,0,0,.3,1.8,1.31,1.31,0,0,0,1.21.5,12,12,0,0,0,1.93-.16Z"/><path class="cls-4" d="M92.68,97.86v-3.1H89.89v3.1H88.38V90.38h1.51v3.06h2.79V90.38h1.51v7.48Z"/><path class="cls-4" d="M95.2,97.86l1.68-7.48h2.88l1.68,7.48H99.93l-.3-1.35H97l-.3,1.35Zm2.86-6.23-.76,3.56h2l-.76-3.56Z"/><path class="cls-4" d="M102.45,97.86V90.38H105l1.8,6.16h.11V90.38h1.52v7.48h-2.5l-1.87-6.16H104v6.16Z"/><path class="cls-4" d="M113.18,95.18V93.85h2.18v3.89a16.59,16.59,0,0,1-2.55.25,2.76,2.76,0,0,1-2.41-.93,5.36,5.36,0,0,1-.65-3,5,5,0,0,1,.68-2.94,2.74,2.74,0,0,1,2.32-.9,11.15,11.15,0,0,1,2.21.23l.4.07,0,1.18c-.88-.09-1.6-.14-2.16-.14a2.42,2.42,0,0,0-1.18.2,1.17,1.17,0,0,0-.5.73,6.94,6.94,0,0,0-.16,1.82,3.68,3.68,0,0,0,.32,1.81,1.42,1.42,0,0,0,1.32.52l.91,0V95.18Z"/><path class="cls-4" d="M116.79,97.86V90.38h4.84V91.7h-3.32v1.75H121v1.3h-2.66v1.79h3.32v1.32Z"/><path class="cls-4" d="M122.88,97.86V90.38h2.59l1.32,5.45,1.32-5.45h2.58v7.48h-1.52V92.07H129l-1.46,5.46H126l-1.46-5.46h-.17v5.79Z"/><path class="cls-4" d="M132.32,97.86V90.38h4.84V91.7h-3.32v1.75h2.66v1.3h-2.66v1.79h3.32v1.32Z"/><path class="cls-4" d="M138.42,97.86V90.38H141l1.8,6.16h.11V90.38h1.52v7.48h-2.5L140,91.7h-.11v6.16Z"/><path class="cls-4" d="M145.37,91.72V90.38h5.5v1.34h-2v6.14h-1.52V91.72Z"/></g></g></svg>