<svg xmlns="http://www.w3.org/2000/svg" viewBox="0 0 790 812.5"><defs><style>.cls-1{fill:#13322b;}.cls-2{fill:#fff;}.cls-3{fill:#88b04b;fill-rule:evenodd;}</style></defs><g id="Calque_2" data-name="Calque 2"><g id="Calque_1-2" data-name="Calque 1"><rect class="cls-1" width="790" height="812.5"/><path class="cls-2" d="M240.81,701.8l11.4-1.38L256.54,713l-7.47,5.9h-35.8l-11-24.59-56.45-.2-4.13,11.22,8.65,13.57H113l51.73-116.65-8.46-21H192Zm-90.49-21.25,45.83-1.38-22.62-54.29Z"/><path class="cls-2" d="M365.52,638.06q0,10.23.1,20.85t.1,20.36v16l-24.2,24.2H292.34L270.12,701V637.27l-13.58-7.67,4.92-9h37l.2,71.4,6.88,14.36L328,704.16l8.26-14.56.2-53.7c-.4-.26-1-.72-1.87-1.38s-1.71-1.34-2.56-2.06-1.64-1.38-2.36-2a9.84,9.84,0,0,0-1.48-1.08v-8.85h37.38Z"/><path class="cls-2" d="M424.43,680.65q.1,13.08.1,24.69l8.66,3.34c0,1.7,0,3.38-.1,5s-.1,3.37-.1,5.21H396q0-3,.1-8.16c.06-3.48.13-7.38.19-11.71s.1-8.88.1-13.67V635.7l-10-6.29,4.72-8.85h31.08l1.18,18.09a127,127,0,0,1,12.39-10.23,74.67,74.67,0,0,1,11.51-7,26.31,26.31,0,0,1,11.51-3.05,29,29,0,0,1,9.24,1.38,47.21,47.21,0,0,1,7.28,3.05,32.88,32.88,0,0,1,5.22,3.34c1.37,1.12,2.32,1.87,2.85,2.26l-7.48,21.05-25.57-5.9a26.6,26.6,0,0,0-6.59,2.06c-2.56,1.12-5.11,2.33-7.67,3.64s-4.89,2.63-7,3.94l-4.72,2.95Q424.34,667.58,424.43,680.65Z"/><path class="cls-2" d="M529.08,698.55q6.6,8.36,21.35,9.15a26.45,26.45,0,0,0,11.41-7.87q4.71-5.51,10.22-12.79l22,8.07q-.2,1.57-2.76,5.41a51.92,51.92,0,0,1-6.59,7.86,50.7,50.7,0,0,1-9,7.18,19.9,19.9,0,0,1-9.73,3.35h-48.2q-5.1,0-10.72-6.2a62.58,62.58,0,0,1-9.93-15.34,80.37,80.37,0,0,1-6.29-19.47,42.87,42.87,0,0,1,.19-18.79,95.85,95.85,0,0,1,3.35-9.05,64.69,64.69,0,0,1,6.29-11.51,55,55,0,0,1,9.64-10.72,30.72,30.72,0,0,1,13.57-6.68,123.8,123.8,0,0,1,12.79-1.58,144.93,144.93,0,0,1,15.05-.39,104.3,104.3,0,0,1,14.16,1.28q6.58,1.08,9.93,3.44a34.07,34.07,0,0,1,6.2,6.2,51.64,51.64,0,0,1,5.9,9.34,62.52,62.52,0,0,1,4.33,11.41A52.51,52.51,0,0,1,594.1,663l-13.18,10.82-59.41,3.35Q522.5,690.19,529.08,698.55Zm33.84-45.24q-1.27-4.62-3.15-9.64a77.11,77.11,0,0,0-3.93-8.95c-1.38-2.63-2.66-4-3.84-4.13a18.05,18.05,0,0,0-5,.39c-2,.39-4.14.89-6.3,1.48s-4.23,1.24-6.2,2a33.93,33.93,0,0,0-4.72,2.07,15.66,15.66,0,0,0-2.75,4.33,54.78,54.78,0,0,0-2.56,6.68,61,61,0,0,0-1.87,7.68,41.34,41.34,0,0,0-.69,7.08l42.49-2.76A54.62,54.62,0,0,0,562.92,653.31Z"/><path class="cls-2" d="M649,702.38l14,4.14v12.39H621.64L622,597.54l-15.15-6.88,2.56-9.45H649Z"/><g id="lake_forest_open_lands_association"><path class="cls-3" d="M394.93,136.45c25.1.16,50.6,3.78,78.73,3.78,12.83,0,27.06.14,40.63,1,17,1.09,35.41-1.89,44.93,6.56,1.62,1.43,3,3.83,4.54,6.05s3.16,4.22,4,6.31c5,11.79,3.73,28.3,4,45.17-.21-.05-.23.1-.25.26-2.44,4-7,5.89-10.59,8.57-25.79,19.09-51.31,36.13-78,55.77-14.26,10.52-29.39,21.76-43.65,32.81-6.92,5.36-15,10.05-22.47,15.9-3.26,2.56-6.64,5.74-11.35,7.82-4.34,1.91-9.3,5.34-13.37,5.56-10.17.53-10-7.06-11.86-15.65-.44-2-.56-4.87-1-7.57s-1.29-5.75-.76-7.31c1.16-3.44,6.16-3.48,11.1-4.8,12.22-3.26,19.66-8.83,27.5-17.16,4.28-4.54,9-9.58,11.61-14.13,1.88-3.33,3.3-8.08,4.8-12.87,1.39-4.49,3-9.43,3.53-14.14.7-5.84.26-17.79-1-23.21-1.64-7-6.22-14.22-9.84-20.44-9.46-16.24-18.51-31-27.76-47.95-1.28-2.35-5.58-7.75-4.29-9.84A1.76,1.76,0,0,1,394.93,136.45Z"/><path class="cls-3" d="M376,152.85c-.69,2.9-3.19,4.71-5,6.56s-3.9,3.85-5.81,5.81C355,178.14,342.84,189,332.33,201.56c-2.2,6.27-4.7,12.43-6.81,18.93-2,6.28-5.36,12.49-6.57,19.18-1.35,7.53.76,16,.26,24.73.05.2.25.25.25.5,2.11,4.88,5.13,8.45,7.57,12.37a85.21,85.21,0,0,0,8.07,11.61c7,7.92,17.36,12.69,25.74,19.68,6.17,5.14,9.05,11.21,10.61,20.7a96.09,96.09,0,0,1,.76,10.34c.14,3.29.55,7.23-1.52,9.59-2.54,1.23-5.25.16-7.31-.76s-4.67-1.6-6.31-2.78c-2.27-1.63-4.13-5.41-6.06-8.58-5.45-8.89-12.32-17.3-17.17-26-3.29-5.92-6.76-12.14-11.6-17.42-2-2.22-4.51-5-7.07-7.31-2.33-2.15-5.32-5.36-7.82-6.57-5.33-2.56-16.2-4.22-23.47-4.79-6.15-.48-15.38,1.26-20.44,3s-9.8,5.23-14.39,8.07c-4.84,3-10.42,5.33-14.64,8.58s-7.7,8.56-11.35,12.87c-1.84,2.17-3.91,4.25-5.55,6.56s-2.75,5.56-5.8,6.06c-1.26-5.44-.51-11.23-.51-16.91,0-16.58-2.38-33.2-3-50.48-.45-11.63-.59-23.18-.77-34.32-.18-11.71-.42-23.21.26-34.32.75-12.39,6.27-23.89,14.64-29.27,11.61-7.45,34.3-5.13,52.24-4.28,22,1,45-.71,67.88.51,5.76.31,11.49.37,17.16.51C365.05,151.72,370.73,151.24,376,152.85Z"/><path class="cls-3" d="M576.38,340.87c-2.8,2.08-6.44,2.43-9.85,3.28-10.19,2.53-21.21,5.27-32.3,7.06-7.37,1.19-14.87,2.41-22.46,3.79-7.42,1.34-15.11,1.94-22.72,3.27-14.59,2.58-28.82,6.53-44.16,8.33a221.44,221.44,0,0,1-25.23,1c-12.06,0-26.71,1.5-31.3-6.31-.3-4.34-.68-9,.25-12.11,1.12-3.71,5.23-7,8.08-9.59a81.72,81.72,0,0,1,9.85-7.82c7.71-1.39,19.64-4.71,27.75-2.78,2.55.61,4.5,2.33,7.06,3.53s5,2,7.32,3c4.62,2.13,9.42,5.26,14.39,6.56s14.15,1.36,20.19,2c2.14.23,4.5.85,6.3.76,2.89-.16,6.71-2.32,9.59-3.79,8.77-4.47,17.74-8.64,25.24-14.14,4.75-7.24,9.29-15.15,13.88-23.21,4.41-7.74,9.25-15.51,12.62-24.23C556,266.32,561.53,253.34,566,239.4c2.06-6.41,5.44-11.28,7.31-18.17.54-2,.38-4.39,1.27-5.8,1.37-2.22,5.87-3.33,8.07-4.3,4.19-1.84,2.65,5,2.52,6.06a227,227,0,0,0-1.26,25.24c0,12.25-1.48,22.38-2.77,32.55-1.4,10.94-1.7,22.23-2.53,32.81C577.79,318.72,577.89,330.57,576.38,340.87Z"/><path class="cls-3" d="M374,396.89a28.68,28.68,0,0,1-14.9-.25c-3.33-1.2-6.51-3.37-9.84-5.05-9.61-4.87-17.49-11.57-27.5-16.41a184.65,184.65,0,0,0-20.95-8.58c-10.81-3.64-24.27-8.66-37.6-4.29-5,1.64-9.18,5.3-13.37,8.83-12,10.11-24,20.26-34.33,31.8-2.4,1.39-3.58,5.33-7.06,4.8-1.63-2.4-1.2-5.78-1.26-8.84-.32-16.39-.24-31.62-1-48.45-.12-2.6-.4-5.79-.51-9.34-.1-3.1-.83-8.27.77-8.83a1.66,1.66,0,0,1,.75-.5c13,.82,26,2.79,38.87,4.54,11.71,1.59,23.68,2.77,35.33,4.54,17.28,2.63,34.31,5.09,51.48,8.33,9.79,1.85,21.2,1.89,26.24,8.32,1.93,2.45,2.65,6.56,4,9.84s3.06,6.5,4.29,9.34C370.25,383.25,373.77,389.19,374,396.89Z"/><path class="cls-3" d="M562.5,354.24c2.62-.87,1.76,5.72,1.76,8.32,0,9.3-.2,18.62,0,29,.24,12.37,1.41,24.93,2.27,36.59,1.42,19.15,1,36.13.26,55.52-.26,6.74.76,14.51-1,20.44-.72,2.43-2.35,4.86-3.53,7.57-3.1,7.13-9.15,16.3-16.15,19.18-4.76,2-10.93,1.26-17.66,1.26-6.89,0-13-.25-18.93-.5-13.14-.56-27.11-.26-37.6-.26-12.51,0-24.93-1-37.35-1-12.69,0-25.29-.65-37.35-1.51-2.92-6.21-2.71-14.16-3.53-22-1.65-15.79-4.61-28.48-5.8-44.92-.47-6.41-.69-19.21,3.53-21.2,2.62-1.23,6.84.34,9.84,1.52,3.32,1.31,6.63,2,9.34,3,17.53,6.49,36.17,14,53.75,19.93,18.58,6.23,36.79,12.47,55.26,18.68,3.08,1,6.26,2.1,9.34,3s6.1,2.87,9.34,1.77c.17-4.65-2.32-8.93-4-13.12-3.38-8.24-6.85-16.49-10.35-24.73-1.75-4.14-3.14-8.49-5-12.37-2.36-4.8-5.84-9.3-9.09-13.37a88.56,88.56,0,0,0-11.11-11.36c-20.1-9.3-44.84-1.11-64.86,3.29-9.25,2-18.52,4.69-25.48,8.57-6.5-.34-9.7,2.3-15.9,3.53-4.2.85-10.91,1.38-13.12-1.25s-.79-10.81-.26-14.64a93.78,93.78,0,0,1,7.07-25.49c1.49-3.48,3.16-9.47,5.05-11.1,1.21-1.05,4.7-1.9,6.56-2.53,2-.68,5-1.92,7.07-2,3.44-.15,8.47,1.51,12.11,2.78,10.62,3.68,20.44,9.61,29.53,14.39,9.7,5.09,19.09,9.76,29.78,14.13,3.57,1.46,7.48,3.32,10.85,3.78,9.32,1.29,17.95.1,25.24-3.78,4.66-2.49,9-7.21,13.37-11.1s8.45-8.44,12.37-12.12C546.7,372.09,554.12,363,562.5,354.24Z"/><path class="cls-3" d="M361.36,420.61c4.12,10.76,6.79,22.74,9.59,35.08.87,3.82,2.53,7.85,1.77,11.86-2.51,2-6,.89-8.84.76-41-1.95-82.75-3.68-122.9-6.56-3.16-.23-6.44-.35-9.59-.51-2.75-.13-5.87-1.21-8.32.51.08,3.72,2.85,6.62,4.54,9.84s3.43,6.38,5,9.59c3.29,6.54,6.47,13.42,10.35,18.93,3.2,4.54,9.76,8.8,15.14,11.86a62.49,62.49,0,0,0,8.33,4.29c3.22,1.24,6.58,2.78,10.09,3.28a73.25,73.25,0,0,0,10.1.25c4.85-.06,10.62.05,15.14-.5,2.71-.34,5.71-2.07,8.83-3.28,2.87-1.12,5.71-2.49,8.33-3.53,15.08-6,22.83-15.71,36.59-23.47,2.25-1.27,6.37-4,8.08-3.79,2.22.29,3.17,3.37,4,6.06s2.18,5.05,2.78,7.06c1.72,5.87,2.17,11.84,3,18.43.74,5.66,3,12.34,2.52,18.42-4.42,1.54-9.2.33-13.88.25-4.94-.09-10-.51-15.14-.51-29.71,0-62.25,1.61-90.34,1.52-3.22,0-6.68-.51-10.1-.51-6.32,0-10.95.07-15.14-2a31.06,31.06,0,0,1-8.07-6.06c-4.54-4.53-8.85-7.9-9.59-15.89-.66-7.16.63-15.5,1-23.47.88-18.52,1.4-39.06,2.27-58.3.16-3.58,0-7.46,1.51-10.6,8.72-.7,16.62,1.31,24,3.28s14.3,4.29,21.2,6.82c14,5.14,28.77,11.73,44.93,11.35,10.67-.25,19.34-6.47,27-11.1,3.07-1.86,6.36-3.79,9.59-5.81C350,421.14,355.51,415,361.36,420.61Z"/></g></g></g></svg>