<?xml version="1.0" encoding="utf-8"?>
<!-- Generator: Adobe Illustrator 25.2.0, SVG Export Plug-In . SVG Version: 6.00 Build 0)  -->
<svg version="1.1" id="Calque_1" xmlns="http://www.w3.org/2000/svg" xmlns:xlink="http://www.w3.org/1999/xlink" x="0px" y="0px"
	 viewBox="0 0 96 96" style="enable-background:new 0 0 96 96;" xml:space="preserve">
<style type="text/css">
	.st0{fill-rule:evenodd;clip-rule:evenodd;fill:#89B14C;}
</style>
<g>
	<path class="st0" d="M47.6,5.3c5.2,0,10.7,0.8,16.5,0.8c2.7,0,5.7,0,8.4,0.2C76,6.4,80,5.9,81.9,7.7c0.3,0.3,0.6,0.8,1,1.3
		c0.3,0.3,0.6,0.8,1,1.3c1.1,2.5,0.8,5.9,0.8,9.4l0,0c-0.5,0.8-1.4,1.3-2.2,1.7C77,25.3,71.7,29,66,33c-3,2.2-6.2,4.6-9.1,6.8
		c-1.4,1.1-3.2,2.1-4.8,3.3c-0.6,0.5-1.4,1.3-2.4,1.6c-1,0.5-1.9,1.1-2.9,1.1c-2.1,0.2-2.1-1.4-2.5-3.3c-0.2-0.5-0.2-1-0.2-1.6
		c-0.2-0.5-0.3-1.3-0.2-1.6c0.3-0.8,1.3-0.8,2.4-1c2.5-0.6,4.1-1.9,5.7-3.7c1-1,1.9-2.1,2.4-3c0.3-0.6,0.6-1.7,1-2.7s0.6-1.9,0.8-3
		c0.2-1.3,0-3.7-0.2-4.9c-0.3-1.4-1.3-3-2.1-4.3c-1.9-3.3-3.8-6.5-5.9-10C48,6.9,47.1,5.8,47.6,5.3L47.6,5.3z"/>
	<path class="st0" d="M43.6,8.6c-0.2,0.6-0.6,1-1.1,1.4c-0.5,0.5-0.8,0.8-1.3,1.3c-2.1,2.7-4.6,4.9-6.8,7.6c-0.5,1.3-1,2.5-1.4,4
		c-0.5,1.3-1.1,2.5-1.4,4c-0.3,1.6,0.2,3.3,0,5.2v0.2c0.5,1,1.1,1.7,1.6,2.5c0.5,0.8,1,1.6,1.7,2.4c1.4,1.6,3.7,2.7,5.4,4.1
		c1.3,1.1,1.9,2.4,2.2,4.3c0.2,0.6,0.2,1.4,0.2,2.2c0,0.6,0.2,1.6-0.3,2.1c-0.5,0.3-1.1,0-1.6-0.2c-0.5-0.2-1-0.3-1.3-0.6
		c-0.5-0.3-0.8-1.1-1.3-1.7c-1.1-1.9-2.5-3.7-3.7-5.4c-0.6-1.3-1.4-2.5-2.4-3.7c-0.5-0.5-1-1.1-1.4-1.6c-0.5-0.5-1.1-1.1-1.6-1.4
		c-1.1-0.5-3.3-1-4.9-1c-1.3-0.2-3.2,0.3-4.3,0.6c-1.1,0.3-2.1,1.1-3,1.7c-1,0.6-2.2,1.1-3,1.7c-1,0.6-1.6,1.7-2.4,2.7
		c-0.3,0.5-0.8,1-1.1,1.4c-0.2,0.2-0.5,1-1.1,1c-0.3-1.1-0.2-2.4-0.2-3.5c0-3.5-0.5-7-0.6-10.5c-0.2-2.4-0.2-4.8-0.2-7.2
		s-0.2-4.9,0-7.2c0.3-2.7,1.4-5.1,3.2-6.2c2.4-1.6,7.2-1.1,11-1c4.6,0.2,9.4-0.2,14.2,0.2c1.3,0,2.4,0,3.7,0.2
		C41.4,8.5,42.5,8.3,43.6,8.6z"/>
	<path class="st0" d="M85.6,48.1c-0.6,0.5-1.3,0.5-2.1,0.6c-2.1,0.5-4.5,1.1-6.7,1.4c-1.6,0.3-3.2,0.5-4.8,0.8
		c-1.6,0.3-3.2,0.5-4.8,0.6c-3,0.5-6,1.4-9.2,1.7c-1.6,0.2-3.3,0.2-5.2,0.2c-2.5,0-5.6,0.3-6.5-1.3c0-1-0.2-1.9,0-2.5
		c0.2-0.8,1.1-1.4,1.7-2.1c0.6-0.6,1.4-1.3,2.1-1.6c1.6-0.3,4.1-1,5.9-0.6c0.5,0.2,1,0.5,1.4,0.8c0.5,0.2,1.1,0.5,1.6,0.6
		c1,0.5,1.9,1.1,3,1.4c1.1,0.3,3,0.3,4.3,0.5c0.5,0,1,0.2,1.3,0.2c0.6,0,1.4-0.5,2.1-0.8c1.9-1,3.7-1.7,5.2-3c1-1.6,1.9-3.2,2.9-4.9
		c1-1.6,1.9-3.2,2.7-5.1c1.1-2.7,2.2-5.4,3.2-8.4c0.5-1.3,1.1-2.4,1.6-3.8c0.2-0.5,0.2-1,0.3-1.3c0.3-0.5,1.3-0.6,1.7-1
		c1-0.3,0.5,1.1,0.5,1.3c-0.2,1.6-0.3,3.8-0.3,5.2c0,2.5-0.3,4.6-0.6,6.8s-0.3,4.6-0.5,6.8C85.9,43.3,85.9,45.8,85.6,48.1z"/>
	<path class="st0" d="M43.3,59.7c-0.8,0.3-2.2,0.3-3.2,0c-0.6-0.3-1.4-0.6-2.1-1.1c-2.1-1-3.7-2.4-5.7-3.5c-1.4-0.6-2.9-1.3-4.5-1.7
		c-2.2-0.8-5.1-1.7-7.8-1c-1.1,0.3-1.9,1.1-2.9,1.9c-2.5,2.1-5.1,4.3-7.2,6.7c-0.5,0.3-0.8,1.1-1.4,1c-0.3-0.5-0.3-1.3-0.3-1.9
		c0-3.5,0-6.7-0.2-10.2c0-0.5-0.2-1.3-0.2-1.9c0-0.6-0.2-1.7,0.2-1.9l0.2-0.2c2.7,0.2,5.4,0.6,8.1,1c2.4,0.3,4.9,0.6,7.3,1
		c3.7,0.5,7.2,1.1,10.8,1.7c2.1,0.3,4.5,0.3,5.6,1.7c0.5,0.5,0.5,1.4,0.8,2.1c0.3,0.6,0.6,1.4,1,1.9C42.5,56.8,43.1,58.1,43.3,59.7z
		"/>
	<path class="st0" d="M82.7,50.8c0.5-0.2,0.3,1.3,0.3,1.7c0,1.9,0,3.8,0,6c0,2.5,0.3,5.2,0.5,7.6c0.3,4,0.2,7.6,0,11.6
		c0,1.4,0.2,3-0.2,4.3c-0.2,0.5-0.5,1-0.8,1.6c-0.6,1.4-1.9,3.3-3.3,4c-1,0.5-2.2,0.3-3.7,0.3s-2.7,0-4-0.2c-2.7-0.2-5.7,0-7.8,0
		c-2.5,0-5.2-0.2-7.8-0.2c-2.7,0-5.2-0.2-7.8-0.3c-0.6-1.3-0.6-3-0.8-4.6c-0.3-3.3-1-5.9-1.3-9.4c-0.2-1.3-0.2-4,0.8-4.5
		c0.5-0.3,1.4,0,2.1,0.3c0.6,0.3,1.4,0.5,1.9,0.6c3.7,1.4,7.6,2.9,11.3,4.1c3.8,1.3,7.6,2.5,11.6,4c0.6,0.2,1.3,0.5,1.9,0.6
		c0.6,0.2,1.3,0.6,1.9,0.3c0-1-0.5-1.9-0.8-2.7c-0.6-1.7-1.4-3.5-2.2-5.2c-0.3-0.8-0.6-1.7-1.1-2.5c-0.5-1-1.3-1.9-1.9-2.9
		c-0.6-1-1.6-1.7-2.4-2.4c-4.1-1.9-9.4-0.2-13.5,0.6c-1.9,0.5-3.8,1-5.4,1.7c-1.4,0-2.1,0.5-3.3,0.8c-1,0.2-2.2,0.3-2.7-0.3
		c-0.5-0.5-0.2-2.2,0-3c0.3-2.2,0.8-3.8,1.4-5.4c0.3-0.8,0.6-1.9,1.1-2.4c0.3-0.2,1-0.3,1.4-0.5c0.5-0.2,1.1-0.5,1.4-0.5
		c0.8,0,1.7,0.3,2.5,0.6c2.2,0.8,4.3,2.1,6.2,3c2.1,1.1,4,2.1,6.2,3c0.8,0.3,1.6,0.6,2.2,0.8c1.9,0.3,3.8,0,5.2-0.8
		c1-0.5,1.9-1.4,2.9-2.4c1-0.8,1.7-1.7,2.5-2.5C79.4,54.6,81,52.7,82.7,50.8z"/>
	<path class="st0" d="M40.6,64.6c0.8,2.2,1.4,4.8,2.1,7.3c0.2,0.8,0.5,1.6,0.3,2.5c-0.5,0.5-1.3,0.2-1.9,0.2
		c-8.6-0.5-17.3-0.8-25.8-1.4c-0.6,0-1.3,0-2.1-0.2c-0.6,0-1.3-0.3-1.7,0.2c0,0.8,0.6,1.4,1,2.1c0.3,0.6,0.8,1.3,1.1,2.1
		c0.6,1.4,1.4,2.9,2.2,4c0.6,1,2.1,1.9,3.2,2.5c0.5,0.3,1.1,0.6,1.7,1c0.6,0.3,1.4,0.6,2.1,0.6c0.6,0.2,1.4,0,2.1,0
		c1,0,2.2,0,3.2-0.2c0.6,0,1.3-0.5,1.9-0.6c0.6-0.2,1.1-0.5,1.7-0.8c3.2-1.3,4.8-3.3,7.6-4.9c0.5-0.3,1.3-0.8,1.7-0.8
		s0.6,0.6,0.8,1.3c0.2,0.6,0.5,1.1,0.6,1.4c0.3,1.3,0.5,2.5,0.6,3.8c0.2,1.1,0.6,2.5,0.5,3.8c-1,0.3-1.9,0-2.9,0
		c-1.1,0-2.1-0.2-3.2-0.2c-6.2,0-13,0.3-18.9,0.3c-0.6,0-1.4-0.2-2.1-0.2c-1.3,0-2.2,0-3.2-0.5c-0.6-0.3-1.1-0.6-1.7-1.3
		c-1-1-1.9-1.6-2.1-3.3c-0.2-1.4,0.2-3.2,0.2-4.9c0.3-3.5,0.5-7.8,0.6-11.8c0-0.8,0-1.6,0.3-2.2c1.7-0.2,3.5,0.3,5.1,0.6
		c1.6,0.5,3,1,4.5,1.4c2.9,1.1,6,2.4,9.4,2.4c2.2,0,4-1.4,5.7-2.4c0.6-0.3,1.3-0.8,2.1-1.3C38.2,64.8,39.3,63.5,40.6,64.6z"/>
</g>
</svg>
