<svg id="Calque_1" data-name="Calque 1" xmlns="http://www.w3.org/2000/svg" viewBox="0 0 306 142"><defs><style>.cls-1{fill:none;}.cls-2{fill:#13322b;}</style></defs><circle class="cls-1" cx="71.59" cy="71.26" r="67.83"/><path class="cls-2" d="M234.32,0,76.23,0C68.71,0,61.63.32,57,1.28a71,71,0,0,0-6.73,137.49l.53.15c.64.18,1.27.38,1.92.55,6,1.62,12.35,2.23,24.75,2.23H234.31a70.85,70.85,0,1,0,0-141.7Zm0,135.4H101.17A71,71,0,0,0,101,6.33h133.3a64.55,64.55,0,0,1,0,129.1ZM135.94,70.75A64.63,64.63,0,1,1,117,25.06,64.62,64.62,0,0,1,135.94,70.75Z"/><path class="cls-2" d="M91.17,38.84a2.29,2.29,0,0,0,2.12-1.42,2.29,2.29,0,0,0-3-3,2.29,2.29,0,0,0-1.42,2.12A2.31,2.31,0,0,0,91.17,38.84Zm-8.4-16.13V34.58c0,2.71,1.29,4.09,4.16,4.09a4,4,0,0,0,.69-.06V35.75c-1,0-1.33-.31-1.33-1.19V22.71Zm1.76-2.36a2.3,2.3,0,1,0-2.29-2.3A2.3,2.3,0,0,0,84.53,20.35ZM75.26,31.94c2.11.19,2.62.79,2.62,2,0,1.39-1.23,2-3.75,2a13.92,13.92,0,0,1-4.69-.88v3a14.85,14.85,0,0,0,5.2.85c5,0,6.71-2.36,6.71-5.07,0-2.93-1.24-4.35-6-4.75-2-.19-2.61-.66-2.61-1.76,0-1.42,1.16-2,3-2a13.23,13.23,0,0,1,4.82.88V23.12a12,12,0,0,0-4.88-.79c-4.63,0-6.39,2.3-6.39,5S70.53,31.53,75.26,31.94Zm-3.73,96.28s35-59.35,35.3-59.93H36C36.26,68.9,71.53,128.22,71.53,128.22ZM88,43.77a19.49,19.49,0,0,0-16.35,8.71,19.46,19.46,0,0,0-16.35-8.71,19.86,19.86,0,0,0-20,18.73H107.7A19.68,19.68,0,0,0,88,43.77ZM56.91,37.22A8.35,8.35,0,0,0,62,38.86c4.6,0,6.3-3.09,6.3-8.25s-1.7-8.25-6.3-8.25a8,8,0,0,0-4.22,1.23V14.84H54.26V38.46h2.08Zm.88-11a6.77,6.77,0,0,1,3.4-.91c3.09,0,3.56,2.36,3.56,5.26s-.47,5.26-3.56,5.26a6.77,6.77,0,0,1-3.4-.91Zm92.09,9.86V20h2.4v16.1Zm5.65-2.24a25.57,25.57,0,0,0,3.8.35,5.08,5.08,0,0,0,3.42-.9,2.18,2.18,0,0,0,.67-1.65c0-1.57-1-2.1-3.75-2.92s-4.55-1.95-4.55-4.67a3.91,3.91,0,0,1,1.55-3.2,6.38,6.38,0,0,1,4-1.1,23.7,23.7,0,0,1,4.45.5l-.3,2a22.1,22.1,0,0,0-3.72-.35,5,5,0,0,0-2.77.57,1.75,1.75,0,0,0-.75,1.5c0,1.65,1.27,2.13,3.92,2.92s4.37,1.9,4.37,4.72a4.36,4.36,0,0,1-1.62,3.55,7,7,0,0,1-4.42,1.17,26,26,0,0,1-4.57-.47Zm12.1-5.8c0-5.45,2.07-8.3,7-8.3s6.95,2.85,6.95,8.3-2.07,8.3-6.95,8.3S167.63,33.48,167.63,28Zm11.45,0c0-4.25-1.27-6.15-4.5-6.15s-4.5,1.9-4.5,6.15,1.27,6.18,4.45,6.18S179.08,32.29,179.08,28Zm3.7,8L189,20H191l-6.2,16.1Zm10.3,0V20h2.4v16.1Zm5.8,0V20h9.57v2.12h-7.17v4.62h5.87v2.1h-5.87V34h7.17v2.12Zm23.05-1a12.07,12.07,0,0,1-5.15,1.22,6.19,6.19,0,0,1-5.25-2.3,10.12,10.12,0,0,1-1.5-6,9.66,9.66,0,0,1,1.77-6.25c1.32-1.57,3.27-2,5.4-2a20.19,20.19,0,0,1,4.17.47l-.23,2a21.07,21.07,0,0,0-3.8-.35,4.45,4.45,0,0,0-3.81,1.44,7.9,7.9,0,0,0-1.1,4.7,8.37,8.37,0,0,0,.92,4.5,3.86,3.86,0,0,0,3.53,1.68,12.17,12.17,0,0,0,4.37-1Zm-72.4,26V59.22c4.45-3.87,7.62-6.9,7.62-9.57,0-2-1.5-2.72-3.17-2.72a11.83,11.83,0,0,0-4.07.88l-.67-1.9a12.11,12.11,0,0,1,4.92-1.12c3.22,0,5.45,1.62,5.45,4.8,0,3.5-3.52,6.52-7,9.42h7.17v2.12Zm15,0a56.2,56.2,0,0,1,5.67-14h-8V45h10.52v2a50.91,50.91,0,0,0-5.57,14.12ZM175,53c0-5.4,1.12-8.3,5.82-8.3s5.8,2.9,5.8,8.3-1.12,8.3-5.8,8.3S175,58.41,175,53Zm9.22,0c0-3.82-.23-6.2-3.4-6.2s-3.42,2.37-3.42,6.2.2,6.22,3.42,6.22S184.25,56.84,184.25,53Zm5.18,0c0-5.4,1.12-8.3,5.82-8.3s5.8,2.9,5.8,8.3-1.12,8.3-5.8,8.3S189.43,58.41,189.43,53Zm9.22,0c0-3.82-.23-6.2-3.4-6.2s-3.42,2.37-3.42,6.2.2,6.22,3.42,6.22S198.65,56.84,198.65,53Zm7.65,8V47.41L203,48.68l-.72-1.62,4.3-2.07h2.17v16.1ZM150,81.42V69.82h1.73v11.6Zm9.34,0V76c0-1.06-.49-1.57-1.4-1.57a4.64,4.64,0,0,0-2,.52v6.5h-1.64V73.1h1.21l.14.76a4.21,4.21,0,0,1,2.52-.94,2.6,2.6,0,0,1,2.11.77,2.63,2.63,0,0,1,.72,2.13v5.6Zm4.39,0v-7h-1.22v-1.2l1.22-.07v-.9a2.7,2.7,0,0,1,.65-2,3,3,0,0,1,2.12-.63,7.08,7.08,0,0,1,1.22.07l-.09,1.37h-1.12s-.74,0-.9.29a1.59,1.59,0,0,0-.25,1.08v.68h1.82v1.35h-1.82v7Zm8.26.18a3.59,3.59,0,0,1-2.63-.92,4.63,4.63,0,0,1-1.1-3.42,4.63,4.63,0,0,1,1.1-3.42,4.21,4.21,0,0,1,5.26,0,4.63,4.63,0,0,1,1.1,3.42,4.63,4.63,0,0,1-1.1,3.42,3.59,3.59,0,0,1-2.63.92ZM174,77.22a3.53,3.53,0,0,0-.59-2.32,2.17,2.17,0,0,0-3,0,4.86,4.86,0,0,0,0,4.64,1.83,1.83,0,0,0,1.48.58,2,2,0,0,0,1.48-.58A3.49,3.49,0,0,0,174,77.22Zm3.5,4.2V73.1h1.22l.22,1H179a2.65,2.65,0,0,1,2.49-1.16,4.33,4.33,0,0,1,.72,0l-.11,1.49a6.73,6.73,0,0,0-1-.07,3,3,0,0,0-2,.63v6.43Zm15.87,0V75.91c0-1-.5-1.51-1.42-1.51a4.1,4.1,0,0,0-1.93.58,5.55,5.55,0,0,1,.09,1v5.44h-1.61V75.91c0-1-.49-1.51-1.4-1.51a3.85,3.85,0,0,0-1.85.5v6.52h-1.64V73.1h1.21l.14.76a4.17,4.17,0,0,1,2.5-.94A2.41,2.41,0,0,1,189.65,74a4.14,4.14,0,0,1,2.59-1.06c1.85,0,2.83,1,2.83,3.06v5.44Zm8.77,0-.18-.7a3.67,3.67,0,0,1-2.43.88,2.54,2.54,0,0,1-2-.69,2.57,2.57,0,0,1-.79-1.92,2.45,2.45,0,0,1,.88-1.94,3.54,3.54,0,0,1,2.23-.63,15.82,15.82,0,0,1,1.82.07v-.7a1.4,1.4,0,0,0-.34-1,2.1,2.1,0,0,0-1.48-.36,11.5,11.5,0,0,0-2.34.27l-.25-1.37a10.51,10.51,0,0,1,2.74-.36,3.82,3.82,0,0,1,2.5.65,2.62,2.62,0,0,1,.81,2.13v5.67Zm-.43-3.73c-.41,0-1,0-1.48,0-1.21,0-1.78.43-1.78,1.35a1.26,1.26,0,0,0,.41,1,1.28,1.28,0,0,0,1,.33,3.06,3.06,0,0,0,1.84-.61Zm8.35,3.37a4.49,4.49,0,0,1-2,.5c-1.35,0-2.12-.76-2.12-2.27V74.45h-1.24V73.22l1.3-.07.13-2.45h1.46v2.38h2.32v1.35h-2.32V79c0,.61.11,1,.74,1a2.86,2.86,0,0,0,1.21-.31Zm2.44-11.29a.91.91,0,0,1,.65,1.56.94.94,0,0,1-.65.26.89.89,0,0,1-.9-.9.94.94,0,0,1,.26-.65.91.91,0,0,1,.64-.27Zm-.81,11.65V73.1h1.64v8.32Zm7.19.18a3.59,3.59,0,0,1-2.63-.92,4.63,4.63,0,0,1-1.1-3.42,4.63,4.63,0,0,1,1.1-3.42,4.21,4.21,0,0,1,5.26,0,4.62,4.62,0,0,1,1.09,3.38,4.63,4.63,0,0,1-1.1,3.42,3.57,3.57,0,0,1-2.62,1ZM221,77.22a3.53,3.53,0,0,0-.59-2.32,2.17,2.17,0,0,0-3,0,4.86,4.86,0,0,0,0,4.64,1.83,1.83,0,0,0,1.48.58,2,2,0,0,0,1.48-.58A3.49,3.49,0,0,0,221,77.22Zm8.55,4.2V76c0-1.06-.49-1.57-1.4-1.57a4.64,4.64,0,0,0-2,.52v6.5h-1.6V73.1h1.21l.14.76a4.23,4.23,0,0,1,2.52-.94,2.6,2.6,0,0,1,2.11.77,2.63,2.63,0,0,1,.72,2.13v5.6Zm8.15-1.62a18,18,0,0,0,2.74.25,3.63,3.63,0,0,0,2.47-.65,1.57,1.57,0,0,0,.49-1.19c0-1.13-.7-1.51-2.7-2.11s-3.28-1.4-3.28-3.37a2.81,2.81,0,0,1,1.12-2.3,4.62,4.62,0,0,1,2.86-.79,17.34,17.34,0,0,1,3.21.36l-.22,1.44a16,16,0,0,0-2.68-.25,3.56,3.56,0,0,0-2,.41,1.25,1.25,0,0,0-.54,1.08c0,1.19.92,1.53,2.83,2.11s3.15,1.37,3.15,3.4A3.13,3.13,0,0,1,244,80.75a5.08,5.08,0,0,1-3.19.85,19.12,19.12,0,0,1-3.29-.34Zm15.48,1.13a7.15,7.15,0,0,1-2.88.67c-2.45,0-3.76-1.53-3.76-4.29,0-2.29,1-4.39,3.58-4.39,2,0,3.19,1.44,3.19,3.67a6.65,6.65,0,0,1-.13,1.26h-5a2.76,2.76,0,0,0,.56,1.71,2.17,2.17,0,0,0,1.66.58,6.38,6.38,0,0,0,2.39-.52Zm-1.42-4.37c0-1.24-.36-2.23-1.69-2.23s-1.78,1.08-1.85,2.23ZM261,80.93a7,7,0,0,1-2.84.67c-2.18,0-3.58-1.22-3.58-4.3,0-3.53,1.78-4.37,3.82-4.37a10.46,10.46,0,0,1,2.3.25l-.2,1.36a13.39,13.39,0,0,0-1.89-.16c-1.6,0-2.43.63-2.43,2.88,0,2,.68,2.88,2.09,2.88a5.73,5.73,0,0,0,2.23-.52Zm7.05.49-.13-.7a4.28,4.28,0,0,1-2.52.9,2.59,2.59,0,0,1-2.1-.78,2.56,2.56,0,0,1-.71-2.12V73.1h1.64v5.45c0,1.13.49,1.57,1.46,1.57a4.46,4.46,0,0,0,1.93-.47V73.1h1.64v8.32Zm3.6,0V73.1h1.22l.21,1h.07a2.67,2.67,0,0,1,2.47-1.19,4.33,4.33,0,0,1,.72,0l-.11,1.49a6.73,6.73,0,0,0-1-.07,3,3,0,0,0-2,.63v6.46Zm6.85-11.65a.92.92,0,0,1,.92.92.91.91,0,0,1-.27.64.94.94,0,0,1-.65.26.89.89,0,0,1-.9-.9.94.94,0,0,1,.26-.65A.91.91,0,0,1,278.53,69.77Zm-.81,11.65V73.1h1.64v8.32Zm8.45-.36a4.49,4.49,0,0,1-2,.5c-1.35,0-2.12-.76-2.12-2.27V74.45h-1.24V73.22l1.3-.07.13-2.45h1.46v2.38H286v1.35H283.7V79c0,.61.11,1,.74,1a2.86,2.86,0,0,0,1.21-.31Zm3,3.64c.49-1.28.88-2.41,1.17-3.28h-.83c-.85-2.3-1.71-5.33-2.47-8.32h1.71c.56,2.45,1.17,4.79,1.89,7h.13c.67-2,1.37-4.63,1.91-7h1.68a97.55,97.55,0,0,1-3.53,11.6ZM159.53,101.42c-.09-3.1-.23-6.28-.38-9.34h-.09l-2.63,7.38h-1.9l-2.63-7.38h-.09c-.14,3.06-.29,6.25-.38,9.34h-1.7c.13-3.85.32-7.72.54-11.6h2.52l2.66,7.69h.08l2.66-7.69h2.52c.22,3.87.41,7.74.54,11.6Zm8.94,0-.18-.7a3.67,3.67,0,0,1-2.43.88,2.54,2.54,0,0,1-2-.69,2.57,2.57,0,0,1-.79-1.92,2.45,2.45,0,0,1,.88-1.94,3.54,3.54,0,0,1,2.23-.63,15.82,15.82,0,0,1,1.82.07v-.7a1.4,1.4,0,0,0-.34-1,2.1,2.1,0,0,0-1.48-.36,11.5,11.5,0,0,0-2.34.27l-.25-1.37a10.51,10.51,0,0,1,2.74-.36,3.82,3.82,0,0,1,2.5.65,2.62,2.62,0,0,1,.81,2.13v5.73ZM168,97.69c-.41,0-1,0-1.48,0-1.21,0-1.78.43-1.78,1.35a1.26,1.26,0,0,0,.41,1,1.28,1.28,0,0,0,1,.33,3.06,3.06,0,0,0,1.84-.61Zm9,3.73V96c0-1.06-.49-1.57-1.4-1.57a4.64,4.64,0,0,0-2,.52v6.5H172V93.1h1.21l.14.76a4.23,4.23,0,0,1,2.52-.94,2.6,2.6,0,0,1,2.11.77,2.63,2.63,0,0,1,.72,2.13v5.6Zm8.76,0-.18-.7a3.67,3.67,0,0,1-2.43.88,2.54,2.54,0,0,1-2-.69,2.57,2.57,0,0,1-.79-1.92,2.45,2.45,0,0,1,.88-1.94,3.54,3.54,0,0,1,2.23-.63,15.82,15.82,0,0,1,1.82.07v-.7a1.4,1.4,0,0,0-.34-1,2.1,2.1,0,0,0-1.48-.36,11.5,11.5,0,0,0-2.34.27L181,93.33a10.51,10.51,0,0,1,2.74-.36,3.82,3.82,0,0,1,2.5.65,2.62,2.62,0,0,1,.81,2.13v5.73Zm-.43-3.73c-.41,0-1,0-1.48,0-1.21,0-1.78.43-1.78,1.35a1.26,1.26,0,0,0,.41,1,1.28,1.28,0,0,0,1,.33,3.06,3.06,0,0,0,1.84-.61Zm8.77,3.26a3.58,3.58,0,0,1-2,.65c-2.36,0-3.22-1.53-3.22-4.27,0-3.12,1-4.41,3.28-4.41a12.28,12.28,0,0,1,3.56.58v8.72a2.59,2.59,0,0,1-.76,2,3.79,3.79,0,0,1-2.56.72,15.05,15.05,0,0,1-2.68-.29l.22-1.4a15.17,15.17,0,0,0,2.23.22,2.38,2.38,0,0,0,1.58-.38,1.45,1.45,0,0,0,.32-1Zm0-6.41a10.38,10.38,0,0,0-1.76-.16c-1.42,0-1.78,1-1.78,3s.38,2.9,1.76,2.9a3.9,3.9,0,0,0,1.78-.4Zm10,6.39a7.15,7.15,0,0,1-2.88.67c-2.45,0-3.76-1.53-3.76-4.29,0-2.29,1-4.39,3.58-4.39,2,0,3.19,1.44,3.19,3.67a6.65,6.65,0,0,1-.13,1.26h-5a2.76,2.76,0,0,0,.56,1.71,2.17,2.17,0,0,0,1.66.58,6.38,6.38,0,0,0,2.39-.52Zm-1.42-4.38c0-1.24-.36-2.23-1.69-2.23s-1.78,1.08-1.85,2.23Zm13.17,4.87V95.91c0-1-.5-1.51-1.42-1.51a4.1,4.1,0,0,0-1.93.58,5.55,5.55,0,0,1,.09,1v5.42H211V95.91c0-1-.49-1.51-1.4-1.51a3.92,3.92,0,0,0-1.86.5v6.52h-1.64V93.1h1.21l.14.76a4.17,4.17,0,0,1,2.5-.94A2.41,2.41,0,0,1,212.09,94a4.14,4.14,0,0,1,2.59-1.06c1.85,0,2.83,1,2.83,3.06v5.44Zm9.92-.49a7.15,7.15,0,0,1-2.88.67c-2.45,0-3.76-1.53-3.76-4.29,0-2.29,1-4.39,3.58-4.39,2,0,3.19,1.44,3.19,3.67a6.65,6.65,0,0,1-.13,1.26h-5a2.76,2.76,0,0,0,.56,1.71,2.17,2.17,0,0,0,1.66.58,6.38,6.38,0,0,0,2.39-.52Zm-1.42-4.38c0-1.24-.36-2.23-1.69-2.23s-1.78,1.08-1.85,2.23Zm8.44,4.87V96c0-1.06-.49-1.57-1.4-1.57a4.64,4.64,0,0,0-2,.52v6.5h-1.64V93.1H229l.14.76a4.23,4.23,0,0,1,2.52-.94,2.6,2.6,0,0,1,2.11.77,2.63,2.63,0,0,1,.72,2.13v5.6Zm8.28-.36a4.49,4.49,0,0,1-2,.5c-1.35,0-2.12-.76-2.12-2.27V94.45h-1.24V93.22l1.3-.07.13-2.45h1.46v2.38H241v1.35h-2.32V99c0,.61.11,1,.74,1a2.86,2.86,0,0,0,1.21-.31Z"/></svg>