<svg id="Calque_1" data-name="Calque 1" xmlns="http://www.w3.org/2000/svg" viewBox="0 0 298 76.44"><defs><style>.cls-1{fill:#88b04b;fill-rule:evenodd;}.cls-2{fill:#13322b;}</style></defs><text x="-1.32" y="-0.28"/><g id="lake_forest_open_lands_association"><path class="cls-1" d="M37.54.28c4.8,0,9.67.72,15.05.72,2.45,0,5.17,0,7.76.2,3.26.21,6.77-.36,8.59,1.25a6.26,6.26,0,0,1,.87,1.16,7.58,7.58,0,0,1,.77,1.2c1,2.26.71,5.41.77,8.63,0,0,0,0,0,.05a6.69,6.69,0,0,1-2,1.64C64.35,18.78,59.47,22,54.37,25.79c-2.72,2-5.61,4.16-8.34,6.27-1.32,1-2.86,1.92-4.29,3a9.84,9.84,0,0,1-2.17,1.49A9,9,0,0,1,37,37.65c-1.94.11-1.9-1.34-2.26-3-.09-.38-.11-.94-.2-1.45a4.12,4.12,0,0,1-.14-1.4c.22-.66,1.18-.66,2.12-.92a10.27,10.27,0,0,0,5.26-3.28A16,16,0,0,0,44,24.92a13,13,0,0,0,.92-2.46,15.47,15.47,0,0,0,.68-2.7,17.17,17.17,0,0,0-.2-4.43,15.14,15.14,0,0,0-1.88-3.91C41.71,8.32,40,5.5,38.22,2.26,38,1.81,37.15.78,37.4.38A.24.24,0,0,1,37.54.28Z" transform="translate(-1.32 -0.28)"/><path class="cls-1" d="M33.92,3.41a2.88,2.88,0,0,1-1,1.26c-.37.37-.74.73-1.11,1.11-1.94,2.47-4.26,4.54-6.27,6.94-.42,1.2-.9,2.38-1.3,3.62A28.72,28.72,0,0,0,23,20c-.26,1.44.15,3.06.05,4.73,0,0,.05.05.05.1a16.63,16.63,0,0,0,1.45,2.36,15.66,15.66,0,0,0,1.54,2.22c1.33,1.51,3.32,2.42,4.92,3.76a5.86,5.86,0,0,1,2,4,19.62,19.62,0,0,1,.14,2,2.61,2.61,0,0,1-.29,1.83,1.62,1.62,0,0,1-1.4-.14,7.87,7.87,0,0,1-1.2-.53,6,6,0,0,1-1.16-1.64c-1-1.7-2.35-3.31-3.28-5a16.94,16.94,0,0,0-2.22-3.33c-.39-.42-.86-.94-1.35-1.39a7.74,7.74,0,0,0-1.49-1.26,15.73,15.73,0,0,0-4.49-.92,11.53,11.53,0,0,0-3.91.58,14.66,14.66,0,0,0-2.74,1.55,29.89,29.89,0,0,0-2.8,1.64A15.65,15.65,0,0,0,4.7,33c-.35.41-.75.81-1.06,1.25s-.53,1.06-1.11,1.16a14.55,14.55,0,0,1-.1-3.24c0-3.16-.45-6.34-.58-9.64-.08-2.22-.11-4.43-.14-6.56s-.08-4.44.05-6.56A7.19,7.19,0,0,1,4.55,3.8c2.22-1.43,6.56-1,10-.82,4.21.2,8.6-.14,13,.1,1.1.06,2.2.07,3.28.09A12.12,12.12,0,0,1,33.92,3.41Z" transform="translate(-1.32 -0.28)"/><path class="cls-1" d="M72.22,39.34a5,5,0,0,1-1.88.63c-2,.49-4.06,1-6.18,1.35-1.4.23-2.84.46-4.29.72s-2.89.38-4.34.63c-2.79.49-5.51,1.25-8.44,1.59a41,41,0,0,1-4.82.19c-2.31,0-5.1.29-6-1.2a7.33,7.33,0,0,1,.05-2.32,5,5,0,0,1,1.54-1.83,15.45,15.45,0,0,1,1.88-1.49c1.47-.27,3.76-.9,5.31-.53a7.69,7.69,0,0,1,1.35.67c.46.22.95.38,1.39.58a17,17,0,0,0,2.75,1.25,34,34,0,0,0,3.86.39,9.38,9.38,0,0,0,1.21.14,5.58,5.58,0,0,0,1.83-.72,34.92,34.92,0,0,0,4.82-2.7c.91-1.39,1.78-2.9,2.65-4.44a34.34,34.34,0,0,0,2.42-4.63c1-2.52,2-5,2.89-7.67.39-1.22,1-2.15,1.4-3.47a4.8,4.8,0,0,1,.24-1.11c.26-.42,1.12-.63,1.54-.82.8-.35.51.95.48,1.16a42.71,42.71,0,0,0-.24,4.82,45.85,45.85,0,0,1-.53,6.22c-.27,2.09-.32,4.25-.48,6.27S72.51,37.38,72.22,39.34Z" transform="translate(-1.32 -0.28)"/><path class="cls-1" d="M33.54,50.05a5.52,5.52,0,0,1-2.85,0,19.65,19.65,0,0,1-1.88-1c-1.83-.93-3.34-2.21-5.25-3.14a35.69,35.69,0,0,0-4-1.64c-2.06-.69-4.64-1.65-7.18-.82a8.14,8.14,0,0,0-2.56,1.69,62.14,62.14,0,0,0-6.56,6.08c-.46.26-.68,1-1.35.91a3.14,3.14,0,0,1-.24-1.69c-.06-3.13,0-6-.19-9.25,0-.5-.08-1.11-.1-1.79s-.16-1.58.15-1.69a.34.34,0,0,1,.14-.09c2.48.15,5,.53,7.43.86,2.24.31,4.53.53,6.75.87,3.3.5,6.56,1,9.84,1.59,1.87.36,4.05.37,5,1.59a9.09,9.09,0,0,1,.78,1.89c.26.61.58,1.24.82,1.78A10.2,10.2,0,0,1,33.54,50.05Z" transform="translate(-1.32 -0.28)"/><path class="cls-1" d="M69.57,41.9c.5-.17.33,1.09.33,1.59,0,1.78,0,3.56,0,5.55,0,2.36.27,4.76.44,7a93.83,93.83,0,0,1,0,10.61,17.23,17.23,0,0,1-.2,3.91c-.14.46-.45.92-.67,1.44-.6,1.37-1.75,3.12-3.09,3.67a9.68,9.68,0,0,1-3.38.24c-1.31,0-2.47-.05-3.61-.1-2.51-.1-5.18,0-7.19,0-2.39,0-4.76-.19-7.13-.19s-4.84-.12-7.14-.29a13.62,13.62,0,0,1-.68-4.19c-.31-3-.88-5.45-1.11-8.59-.09-1.22-.13-3.67.68-4.05a2.74,2.74,0,0,1,1.88.29c.63.25,1.27.39,1.78.58,3.35,1.24,6.92,2.68,10.28,3.81,3.55,1.19,7,2.38,10.56,3.57.59.19,1.19.4,1.78.58s1.17.54,1.79.33a6.24,6.24,0,0,0-.78-2.5c-.64-1.58-1.31-3.16-2-4.73-.34-.79-.6-1.62-1-2.36a14.56,14.56,0,0,0-1.73-2.56,16.83,16.83,0,0,0-2.13-2.17c-3.84-1.78-8.57-.21-12.39.63a18.7,18.7,0,0,0-4.87,1.64c-1.24-.07-1.86.43-3,.67-.8.16-2.09.26-2.51-.24s-.15-2.06,0-2.8a18.43,18.43,0,0,1,1.35-4.87,8.62,8.62,0,0,1,1-2.12,5.09,5.09,0,0,1,1.25-.48,6.25,6.25,0,0,1,1.35-.39,7.46,7.46,0,0,1,2.32.53,42.81,42.81,0,0,1,5.64,2.75,61,61,0,0,0,5.69,2.7,9.78,9.78,0,0,0,2.08.73A7.82,7.82,0,0,0,60,51.3a14.49,14.49,0,0,0,2.55-2.12c.84-.74,1.62-1.61,2.37-2.31C66.55,45.31,68,43.57,69.57,41.9Z" transform="translate(-1.32 -0.28)"/><path class="cls-1" d="M31.13,54.58A52,52,0,0,1,33,61.29a5.66,5.66,0,0,1,.34,2.26c-.48.38-1.15.17-1.69.15C23.78,63.33,15.8,63,8.12,62.44c-.6,0-1.23-.06-1.83-.09s-1.12-.23-1.59.09a4.52,4.52,0,0,0,.87,1.89c.32.6.65,1.21,1,1.83a30.26,30.26,0,0,0,2,3.62A9.44,9.44,0,0,0,11.4,72a11.29,11.29,0,0,0,1.59.82,9.27,9.27,0,0,0,1.93.63,15,15,0,0,0,1.93.05,27.53,27.53,0,0,0,2.9-.1,7.64,7.64,0,0,0,1.68-.63c.55-.21,1.09-.47,1.59-.67,2.89-1.14,4.37-3,7-4.49.43-.24,1.21-.76,1.54-.72s.61.64.77,1.16.42,1,.53,1.35A22.29,22.29,0,0,1,33.44,73a17.67,17.67,0,0,1,.48,3.52,7.84,7.84,0,0,1-2.65,0c-.94,0-1.9-.1-2.89-.1-5.68,0-11.9.31-17.27.29-.61,0-1.27-.1-1.93-.1a6.35,6.35,0,0,1-2.89-.38,5.93,5.93,0,0,1-1.54-1.16c-.87-.87-1.69-1.51-1.83-3a34.65,34.65,0,0,1,.19-4.48c.17-3.54.27-7.47.43-11.14a5.43,5.43,0,0,1,.29-2A13.23,13.23,0,0,1,8.41,55c1.4.37,2.74.82,4.06,1.3,2.67,1,5.49,2.24,8.58,2.17,2-.05,3.7-1.24,5.16-2.12.59-.36,1.22-.73,1.83-1.11C29,54.69,30,53.52,31.13,54.58Z" transform="translate(-1.32 -0.28)"/></g><path class="cls-2" d="M143.41,59.22l4.22-.51,1.59,4.65-2.76,2.18H133.24l-4.07-9.08-20.85-.07-1.52,4.14,3.19,5H96.19L115.3,22.46l-3.13-7.78h13.22ZM110,51.37l16.93-.51-8.36-20Z" transform="translate(-1.32 -0.28)"/><path class="cls-2" d="M189.47,35.68c0,2.52,0,5.09,0,7.7s0,5.12,0,7.52v5.92l-8.94,8.94H162.45l-8.21-6.83V35.39l-5-2.83L151,29.21H164.7l.07,26.38,2.54,5.3,8.29-.8,3.05-5.38.07-19.83c-.14-.1-.38-.27-.69-.51s-.63-.49-.94-.76l-.88-.73a3.41,3.41,0,0,0-.54-.4V29.21h13.8Z" transform="translate(-1.32 -0.28)"/><path class="cls-2" d="M211.23,51.41q0,4.83,0,9.12l3.2,1.23c0,.63,0,1.25,0,1.85s0,1.25,0,1.93H200.73c0-.73,0-1.73,0-3s0-2.72.07-4.32,0-3.28,0-5.05V34.81l-3.71-2.33,1.75-3.27H210.4l.43,6.69a44.69,44.69,0,0,1,4.58-3.78,27.32,27.32,0,0,1,4.25-2.58,9.7,9.7,0,0,1,4.25-1.12,10.67,10.67,0,0,1,3.41.5A17.57,17.57,0,0,1,230,30.05a12,12,0,0,1,1.93,1.23c.51.42.86.69,1.05.84l-2.76,7.77-9.44-2.18a10.11,10.11,0,0,0-2.44.77c-.94.41-1.89.86-2.83,1.34s-1.81,1-2.58,1.45l-1.74,1.09Q211.2,46.58,211.23,51.41Z" transform="translate(-1.32 -0.28)"/><path class="cls-2" d="M249.88,58c1.63,2.06,4.25,3.18,7.89,3.38A9.72,9.72,0,0,0,262,58.49c1.16-1.35,2.42-2.93,3.78-4.72l8.13,3a5.76,5.76,0,0,1-1,2,19.07,19.07,0,0,1-2.44,2.9,18.12,18.12,0,0,1-3.34,2.65,7.31,7.31,0,0,1-3.59,1.24h-17.8q-1.89,0-4-2.29a22.74,22.74,0,0,1-3.67-5.67,29.82,29.82,0,0,1-2.33-7.19,15.82,15.82,0,0,1,.08-6.94c.24-.82.65-1.93,1.23-3.34a23.94,23.94,0,0,1,2.33-4.25,19.7,19.7,0,0,1,3.56-4,11.36,11.36,0,0,1,5-2.47c1.31-.24,2.88-.43,4.72-.58a54.11,54.11,0,0,1,5.56-.14,36.69,36.69,0,0,1,5.23.47,8.94,8.94,0,0,1,3.67,1.27,12.63,12.63,0,0,1,2.29,2.29,19.22,19.22,0,0,1,2.18,3.45,23.2,23.2,0,0,1,1.59,4.21,18.54,18.54,0,0,1,.69,4.51l-4.86,4-21.94,1.24A14.16,14.16,0,0,0,249.88,58Zm12.5-16.71c-.32-1.14-.7-2.32-1.16-3.56a28.92,28.92,0,0,0-1.46-3.31c-.5-1-1-1.47-1.41-1.52a6.8,6.8,0,0,0-1.86.14c-.75.15-1.52.33-2.32.55s-1.56.46-2.29.73a11.68,11.68,0,0,0-1.74.76,5.67,5.67,0,0,0-1,1.6,19.73,19.73,0,0,0-.94,2.47,22,22,0,0,0-.69,2.83,15.34,15.34,0,0,0-.26,2.62l15.69-1A19.08,19.08,0,0,0,262.38,41.31Z" transform="translate(-1.32 -0.28)"/><path class="cls-2" d="M294.17,59.44,299.32,61v4.58H284.07l.14-44.83-5.59-2.54.94-3.49h14.61Z" transform="translate(-1.32 -0.28)"/></svg>