<?xml version="1.0" encoding="utf-8"?>
<!-- Generator: Adobe Illustrator 25.2.0, SVG Export Plug-In . SVG Version: 6.00 Build 0)  -->
<svg version="1.1" id="Calque_1" xmlns="http://www.w3.org/2000/svg" xmlns:xlink="http://www.w3.org/1999/xlink" x="0px" y="0px"
	 viewBox="0 0 156 100" style="enable-background:new 0 0 156 100;" xml:space="preserve">
<style type="text/css">
	.st0{fill-rule:evenodd;clip-rule:evenodd;fill:none;}
	.st1{fill-rule:evenodd;clip-rule:evenodd;fill:#89B14C;}
	.st2{fill:#14332C;}
</style>
<rect x="68.1" y="48.5" class="st0" width="13.4" height="0"/>
<g>
	<path class="st1" d="M25.4,0.9c3.3,0,6.7,0.5,10.4,0.5c1.7,0,3.6,0,5.3,0.1c2.2,0.1,4.7-0.2,5.9,0.9c0.2,0.2,0.4,0.5,0.6,0.8
		C47.8,3.4,48,3.7,48.2,4c0.7,1.6,0.5,3.7,0.5,5.9l0,0c-0.3,0.5-0.9,0.8-1.4,1.1c-3.4,2.5-6.7,4.8-10.3,7.3
		c-1.9,1.4-3.9,2.9-5.7,4.3c-0.9,0.7-2,1.3-3,2.1c-0.4,0.3-0.9,0.8-1.5,1c-0.6,0.3-1.2,0.7-1.8,0.7c-1.3,0.1-1.3-0.9-1.6-2.1
		c-0.1-0.3-0.1-0.6-0.1-1c-0.1-0.3-0.2-0.8-0.1-1c0.2-0.5,0.8-0.5,1.5-0.6c1.6-0.4,2.6-1.2,3.6-2.3c0.6-0.6,1.2-1.3,1.5-1.9
		c0.2-0.4,0.4-1.1,0.6-1.7c0.2-0.6,0.4-1.2,0.5-1.9c0.1-0.8,0-2.3-0.1-3.1c-0.2-0.9-0.8-1.9-1.3-2.7c-1.2-2.1-2.4-4.1-3.7-6.3
		C25.7,1.9,25.1,1.2,25.4,0.9L25.4,0.9z"/>
	<path class="st1" d="M22.9,3c-0.1,0.4-0.4,0.6-0.7,0.9c-0.3,0.3-0.5,0.5-0.8,0.8c-1.3,1.7-2.9,3.1-4.3,4.8
		c-0.3,0.8-0.6,1.6-0.9,2.5c-0.3,0.8-0.7,1.6-0.9,2.5c-0.2,1,0.1,2.1,0,3.3l0,0.1c0.3,0.6,0.7,1.1,1,1.6c0.3,0.5,0.6,1,1.1,1.5
		c0.9,1,2.3,1.7,3.4,2.6c0.8,0.7,1.2,1.5,1.4,2.7c0.1,0.4,0.1,0.9,0.1,1.4c0,0.4,0.1,1-0.2,1.3c-0.3,0.2-0.7,0-1-0.1
		c-0.3-0.1-0.6-0.2-0.8-0.4c-0.3-0.2-0.5-0.7-0.8-1.1c-0.7-1.2-1.6-2.3-2.3-3.4c-0.4-0.8-0.9-1.6-1.5-2.3c-0.3-0.3-0.6-0.7-0.9-1
		c-0.3-0.3-0.7-0.7-1-0.9c-0.7-0.3-2.1-0.6-3.1-0.6c-0.8-0.1-2,0.2-2.7,0.4c-0.7,0.2-1.3,0.7-1.9,1.1c-0.6,0.4-1.4,0.7-1.9,1.1
		c-0.6,0.4-1,1.1-1.5,1.7c-0.2,0.3-0.5,0.6-0.7,0.9C1.9,24.5,1.7,25,1.3,25c-0.2-0.7-0.1-1.5-0.1-2.2c0-2.2-0.3-4.4-0.4-6.6
		c-0.1-1.5-0.1-3-0.1-4.5c0-1.5-0.1-3.1,0-4.5C0.9,5.5,1.6,4,2.7,3.3c1.5-1,4.5-0.7,6.9-0.6c2.9,0.1,5.9-0.1,8.9,0.1
		c0.8,0,1.5,0,2.3,0.1C21.5,2.9,22.2,2.8,22.9,3z"/>
	<path class="st1" d="M49.3,27.8c-0.4,0.3-0.8,0.3-1.3,0.4c-1.3,0.3-2.8,0.7-4.2,0.9c-1,0.2-2,0.3-3,0.5c-1,0.2-2,0.3-3,0.4
		c-1.9,0.3-3.8,0.9-5.8,1.1c-1,0.1-2.1,0.1-3.3,0.1c-1.6,0-3.5,0.2-4.1-0.8c0-0.6-0.1-1.2,0-1.6c0.1-0.5,0.7-0.9,1.1-1.3
		c0.4-0.4,0.9-0.8,1.3-1c1-0.2,2.6-0.6,3.7-0.4c0.3,0.1,0.6,0.3,0.9,0.5c0.3,0.1,0.7,0.3,1,0.4c0.6,0.3,1.2,0.7,1.9,0.9
		c0.7,0.2,1.9,0.2,2.7,0.3c0.3,0,0.6,0.1,0.8,0.1c0.4,0,0.9-0.3,1.3-0.5c1.2-0.6,2.3-1.1,3.3-1.9c0.6-1,1.2-2,1.8-3.1
		c0.6-1,1.2-2,1.7-3.2c0.7-1.7,1.4-3.4,2-5.3c0.3-0.8,0.7-1.5,1-2.4c0.1-0.3,0.1-0.6,0.2-0.8c0.2-0.3,0.8-0.4,1.1-0.6
		c0.6-0.2,0.3,0.7,0.3,0.8c-0.1,1-0.2,2.4-0.2,3.3c0,1.6-0.2,2.9-0.4,4.3c-0.2,1.4-0.2,2.9-0.3,4.3C49.5,24.8,49.5,26.4,49.3,27.8z"
		/>
	<path class="st1" d="M22.7,35.1c-0.5,0.2-1.4,0.2-2,0c-0.4-0.2-0.9-0.4-1.3-0.7c-1.3-0.6-2.3-1.5-3.6-2.2c-0.9-0.4-1.8-0.8-2.8-1.1
		c-1.4-0.5-3.2-1.1-4.9-0.6c-0.7,0.2-1.2,0.7-1.8,1.2c-1.6,1.3-3.2,2.7-4.5,4.2c-0.3,0.2-0.5,0.7-0.9,0.6c-0.2-0.3-0.2-0.8-0.2-1.2
		c0-2.2,0-4.2-0.1-6.4c0-0.3-0.1-0.8-0.1-1.2c0-0.4-0.1-1.1,0.1-1.2l0.1-0.1c1.7,0.1,3.4,0.4,5.1,0.6c1.5,0.2,3.1,0.4,4.6,0.6
		c2.3,0.3,4.5,0.7,6.8,1.1c1.3,0.2,2.8,0.2,3.5,1.1c0.3,0.3,0.3,0.9,0.5,1.3c0.2,0.4,0.4,0.9,0.6,1.2C22.2,33.3,22.6,34.1,22.7,35.1
		z"/>
	<path class="st1" d="M47.5,29.5c0.3-0.1,0.2,0.8,0.2,1.1c0,1.2,0,2.4,0,3.8c0,1.6,0.2,3.3,0.3,4.8c0.2,2.5,0.1,4.8,0,7.3
		c0,0.9,0.1,1.9-0.1,2.7c-0.1,0.3-0.3,0.6-0.5,1c-0.4,0.9-1.2,2.1-2.1,2.5c-0.6,0.3-1.4,0.2-2.3,0.2c-0.9,0-1.7,0-2.5-0.1
		c-1.7-0.1-3.6,0-4.9,0c-1.6,0-3.3-0.1-4.9-0.1c-1.7,0-3.3-0.1-4.9-0.2c-0.4-0.8-0.4-1.9-0.5-2.9c-0.2-2.1-0.6-3.7-0.8-5.9
		c-0.1-0.8-0.1-2.5,0.5-2.8c0.3-0.2,0.9,0,1.3,0.2c0.4,0.2,0.9,0.3,1.2,0.4c2.3,0.9,4.8,1.8,7.1,2.6c2.4,0.8,4.8,1.6,7.3,2.5
		c0.4,0.1,0.8,0.3,1.2,0.4c0.4,0.1,0.8,0.4,1.2,0.2c0-0.6-0.3-1.2-0.5-1.7c-0.4-1.1-0.9-2.2-1.4-3.3c-0.2-0.5-0.4-1.1-0.7-1.6
		c-0.3-0.6-0.8-1.2-1.2-1.8c-0.4-0.6-1-1.1-1.5-1.5c-2.6-1.2-5.9-0.1-8.5,0.4c-1.2,0.3-2.4,0.6-3.4,1.1c-0.9,0-1.3,0.3-2.1,0.5
		c-0.6,0.1-1.4,0.2-1.7-0.2c-0.3-0.3-0.1-1.4,0-1.9c0.2-1.4,0.5-2.4,0.9-3.4c0.2-0.5,0.4-1.2,0.7-1.5c0.2-0.1,0.6-0.2,0.9-0.3
		c0.3-0.1,0.7-0.3,0.9-0.3c0.5,0,1.1,0.2,1.6,0.4c1.4,0.5,2.7,1.3,3.9,1.9c1.3,0.7,2.5,1.3,3.9,1.9c0.5,0.2,1,0.4,1.4,0.5
		c1.2,0.2,2.4,0,3.3-0.5c0.6-0.3,1.2-0.9,1.8-1.5c0.6-0.5,1.1-1.1,1.6-1.6C45.4,31.9,46.4,30.7,47.5,29.5z"/>
	<path class="st1" d="M21,38.2c0.5,1.4,0.9,3,1.3,4.6c0.1,0.5,0.3,1,0.2,1.6c-0.3,0.3-0.8,0.1-1.2,0.1c-5.4-0.3-10.9-0.5-16.2-0.9
		c-0.4,0-0.8,0-1.3-0.1c-0.4,0-0.8-0.2-1.1,0.1c0,0.5,0.4,0.9,0.6,1.3c0.2,0.4,0.5,0.8,0.7,1.3c0.4,0.9,0.9,1.8,1.4,2.5
		c0.4,0.6,1.3,1.2,2,1.6c0.3,0.2,0.7,0.4,1.1,0.6c0.4,0.2,0.9,0.4,1.3,0.4c0.4,0.1,0.9,0,1.3,0c0.6,0,1.4,0,2-0.1
		c0.4,0,0.8-0.3,1.2-0.4c0.4-0.1,0.7-0.3,1.1-0.5c2-0.8,3-2.1,4.8-3.1c0.3-0.2,0.8-0.5,1.1-0.5c0.3,0,0.4,0.4,0.5,0.8
		c0.1,0.4,0.3,0.7,0.4,0.9c0.2,0.8,0.3,1.6,0.4,2.4c0.1,0.7,0.4,1.6,0.3,2.4c-0.6,0.2-1.2,0-1.8,0c-0.7,0-1.3-0.1-2-0.1
		c-3.9,0-8.2,0.2-11.9,0.2c-0.4,0-0.9-0.1-1.3-0.1c-0.8,0-1.4,0-2-0.3c-0.4-0.2-0.7-0.4-1.1-0.8c-0.6-0.6-1.2-1-1.3-2.1
		c-0.1-0.9,0.1-2,0.1-3.1C1.8,44.7,1.9,42,2,39.5c0-0.5,0-1,0.2-1.4c1.1-0.1,2.2,0.2,3.2,0.4c1,0.3,1.9,0.6,2.8,0.9
		c1.8,0.7,3.8,1.5,5.9,1.5c1.4,0,2.5-0.9,3.6-1.5c0.4-0.2,0.8-0.5,1.3-0.8C19.5,38.3,20.2,37.5,21,38.2z"/>
</g>
<g>
	<path class="st2" d="M81.2,20.5l1.5-0.2l0.6,1.6l-1,0.8h-4.6l-1.4-3.1l-7.2,0L68.6,21l1.1,1.7h-4.8l6.6-14.8l-1.1-2.7H75L81.2,20.5
		z M69.7,17.8l5.8-0.2l-2.9-6.9L69.7,17.8z"/>
	<path class="st2" d="M97.1,12.4c0,0.9,0,1.8,0,2.7c0,0.9,0,1.8,0,2.6v2L94,22.8h-6.3l-2.8-2.4v-8.1l-1.7-1l0.6-1.2h4.7l0,9.1
		l0.9,1.8l2.9-0.3l1.1-1.9l0-6.8c0,0-0.1-0.1-0.2-0.2c-0.1-0.1-0.2-0.2-0.3-0.3c-0.1-0.1-0.2-0.2-0.3-0.3c-0.1-0.1-0.2-0.1-0.2-0.1
		v-1.1h4.8V12.4z"/>
	<path class="st2" d="M104.6,17.8c0,1.1,0,2.2,0,3.1l1.1,0.4c0,0.2,0,0.4,0,0.6c0,0.2,0,0.4,0,0.7H101c0-0.3,0-0.6,0-1
		c0-0.4,0-0.9,0-1.5c0-0.6,0-1.1,0-1.7v-1.8v-4.5l-1.3-0.8l0.6-1.1h4l0.2,2.3c0.5-0.5,1-0.9,1.6-1.3c0.5-0.3,0.9-0.6,1.5-0.9
		c0.5-0.3,1-0.4,1.5-0.4c0.4,0,0.8,0.1,1.2,0.2c0.4,0.1,0.7,0.2,0.9,0.4c0.3,0.1,0.5,0.3,0.7,0.4c0.2,0.1,0.3,0.2,0.4,0.3l-1,2.7
		l-3.3-0.8c-0.2,0-0.5,0.1-0.8,0.3c-0.3,0.1-0.7,0.3-1,0.5c-0.3,0.2-0.6,0.3-0.9,0.5l-0.6,0.4C104.6,15.7,104.6,16.7,104.6,17.8z"/>
	<path class="st2" d="M117.9,20.1c0.6,0.7,1.5,1.1,2.7,1.2c0.6-0.2,1.1-0.5,1.5-1s0.8-1,1.3-1.6l2.8,1c0,0.1-0.1,0.4-0.4,0.7
		c-0.2,0.3-0.5,0.7-0.8,1c-0.3,0.3-0.7,0.6-1.2,0.9c-0.4,0.3-0.8,0.4-1.2,0.4h-6.1c-0.4,0-0.9-0.3-1.4-0.8s-0.9-1.2-1.3-2
		c-0.4-0.8-0.6-1.6-0.8-2.5c-0.2-0.9-0.2-1.7,0-2.4c0.1-0.3,0.2-0.7,0.4-1.2c0.2-0.5,0.5-1,0.8-1.5c0.3-0.5,0.7-0.9,1.2-1.4
		c0.5-0.4,1.1-0.7,1.7-0.9c0.5-0.1,1-0.2,1.6-0.2c0.6-0.1,1.3-0.1,1.9-0.1c0.6,0,1.2,0.1,1.8,0.2c0.6,0.1,1,0.2,1.3,0.4
		c0.3,0.2,0.5,0.4,0.8,0.8c0.3,0.3,0.5,0.7,0.8,1.2c0.2,0.5,0.4,0.9,0.6,1.5c0.1,0.5,0.2,1,0.2,1.6l-1.7,1.4l-7.6,0.4
		C117,18.5,117.3,19.4,117.9,20.1z M122.2,14.3c-0.1-0.4-0.2-0.8-0.4-1.2c-0.2-0.4-0.3-0.8-0.5-1.1c-0.2-0.3-0.3-0.5-0.5-0.5
		c-0.2,0-0.4,0-0.6,0.1c-0.3,0-0.5,0.1-0.8,0.2c-0.3,0.1-0.5,0.2-0.8,0.3c-0.3,0.1-0.5,0.2-0.6,0.3c-0.1,0.1-0.2,0.3-0.4,0.6
		s-0.2,0.5-0.3,0.9c-0.1,0.3-0.2,0.6-0.2,1c-0.1,0.3-0.1,0.6-0.1,0.9l5.4-0.4C122.4,15,122.3,14.7,122.2,14.3z"/>
	<path class="st2" d="M133.2,20.6l1.8,0.5v1.6h-5.3l0.1-15.4l-1.9-0.9l0.3-1.2h5V20.6z"/>
</g>
<g>
	<path class="st2" d="M64.4,38.5l2.6-8.3h1.3l2.6,8.3h-0.4l-0.8-2.6h-4l-0.8,2.6H64.4z M67.3,30.5l-1.5,5h3.7l-1.5-5H67.3z"/>
	<path class="st2" d="M76.6,39.4c0,0.7-0.2,1.2-0.6,1.4c-0.4,0.3-1.1,0.4-2,0.4c-0.9,0-1.5-0.1-1.8-0.4c-0.3-0.3-0.5-0.8-0.5-1.5
		c0-0.5,0.2-0.8,0.5-1.1c0.1-0.1,0.3-0.3,0.6-0.4c-0.2-0.1-0.3-0.4-0.3-0.8c0-0.1,0.1-0.4,0.3-0.7l0.1-0.2c-0.7-0.2-1-0.8-1-1.8
		c0-1.3,0.7-2,2-2c0.4,0,0.8,0,1.1,0.1l0.2,0l1.7,0v0.4h-1.3c0.3,0.3,0.5,0.8,0.5,1.5c0,0.7-0.2,1.2-0.5,1.5
		c-0.3,0.3-0.9,0.4-1.7,0.4c-0.2,0-0.5,0-0.6,0c-0.2,0.5-0.3,0.7-0.3,0.9c0,0.1,0,0.2,0,0.3c0,0.1,0,0.1,0.1,0.2
		c0,0.1,0.1,0.1,0.3,0.1c0.2,0,0.7,0.1,1.4,0.1c0.7,0,1.2,0.1,1.5,0.3C76.5,38.3,76.6,38.8,76.6,39.4z M72.2,39.4
		c0,0.6,0.1,1,0.4,1.2c0.3,0.2,0.8,0.3,1.5,0.3c0.8,0,1.3-0.1,1.6-0.3c0.3-0.2,0.5-0.6,0.5-1.2c0-0.5-0.1-0.9-0.4-1.1
		c-0.2-0.2-0.7-0.2-1.3-0.2l-1.4,0c-0.4,0.2-0.6,0.5-0.7,0.6C72.2,38.9,72.2,39.1,72.2,39.4z M72.3,34.4c0,0.6,0.1,1,0.4,1.2
		c0.2,0.2,0.7,0.3,1.3,0.3c0.6,0,1-0.1,1.3-0.3c0.3-0.2,0.4-0.6,0.4-1.2s-0.1-1-0.4-1.3c-0.3-0.2-0.7-0.4-1.3-0.4
		c-0.6,0-1,0.1-1.3,0.4C72.4,33.4,72.3,33.8,72.3,34.4z"/>
	<path class="st2" d="M78,38.5v-6h0.4v0.9c0.2-0.2,0.6-0.4,1.1-0.6c0.5-0.2,0.9-0.4,1.3-0.4v0.4c-0.4,0.1-0.7,0.2-1.1,0.4
		c-0.4,0.2-0.7,0.3-0.9,0.5l-0.3,0.2v4.6H78z"/>
	<path class="st2" d="M81.9,30.8v-0.7h0.4v0.7H81.9z M81.9,38.5v-6h0.4v6H81.9z"/>
	<path class="st2" d="M86.4,32.8c-0.8,0-1.3,0.2-1.6,0.6c-0.3,0.4-0.4,1.1-0.4,2.1s0.1,1.7,0.4,2.1c0.3,0.4,0.8,0.6,1.6,0.6l1.4-0.1
		l0,0.4c-0.7,0.1-1.2,0.1-1.5,0.1c-1,0-1.6-0.2-2-0.7c-0.3-0.5-0.5-1.3-0.5-2.4s0.2-2,0.5-2.4c0.4-0.4,1-0.7,1.9-0.7l1.4,0.1l0,0.4
		C87.2,32.8,86.7,32.8,86.4,32.8z"/>
	<path class="st2" d="M93.1,32.5h0.4v6h-0.4V38c-0.1,0-0.2,0.1-0.3,0.2c-0.1,0.1-0.4,0.2-0.7,0.3c-0.3,0.1-0.7,0.2-1,0.2
		c-0.8,0-1.3-0.2-1.6-0.6c-0.3-0.4-0.4-1.2-0.4-2.4v-3.1h0.4v3.1c0,1,0.1,1.7,0.3,2.1c0.2,0.3,0.6,0.5,1.3,0.5c0.3,0,0.6,0,1-0.1
		c0.3-0.1,0.6-0.2,0.7-0.3l0.3-0.2V32.5z"/>
	<path class="st2" d="M95.5,38.5v-8.7h0.4v8.7H95.5z"/>
	<path class="st2" d="M100.8,32.9h-2.2V36c0,0.9,0.1,1.5,0.2,1.8s0.4,0.4,0.9,0.4l1.2-0.1l0,0.4c-0.5,0.1-0.9,0.1-1.2,0.1
		c-0.6,0-1-0.1-1.2-0.4c-0.2-0.3-0.3-0.9-0.3-1.7v-3.6h-0.9v-0.4h0.9v-1.9h0.4v1.9h2.2V32.9z"/>
	<path class="st2" d="M105.8,32.5h0.4v6h-0.4V38c-0.1,0-0.2,0.1-0.3,0.2c-0.1,0.1-0.4,0.2-0.7,0.3c-0.3,0.1-0.7,0.2-1,0.2
		c-0.8,0-1.3-0.2-1.6-0.6c-0.3-0.4-0.4-1.2-0.4-2.4v-3.1h0.4v3.1c0,1,0.1,1.7,0.3,2.1c0.2,0.3,0.6,0.5,1.3,0.5c0.3,0,0.6,0,1-0.1
		c0.3-0.1,0.6-0.2,0.7-0.3l0.3-0.2V32.5z"/>
	<path class="st2" d="M108.1,38.5v-6h0.4v0.9c0.2-0.2,0.6-0.4,1.1-0.6c0.5-0.2,0.9-0.4,1.3-0.4v0.4c-0.4,0.1-0.7,0.2-1.1,0.4
		c-0.4,0.2-0.7,0.3-0.9,0.5l-0.3,0.2v4.6H108.1z"/>
	<path class="st2" d="M116,34.3v3.4c0,0.3,0.3,0.5,0.9,0.5l0,0.4c-0.6,0-1-0.2-1.2-0.5c-0.8,0.3-1.6,0.5-2.4,0.5
		c-0.5,0-0.9-0.1-1.2-0.4c-0.3-0.3-0.4-0.7-0.4-1.3c0-0.5,0.1-1,0.4-1.2c0.3-0.3,0.7-0.5,1.3-0.5l2.3-0.2v-0.6
		c0-0.5-0.1-0.9-0.3-1.1c-0.2-0.2-0.6-0.3-1-0.3c-0.5,0-1.1,0.1-1.9,0.2l-0.4,0l0-0.4c0.9-0.1,1.7-0.2,2.3-0.2
		C115.4,32.4,116,33,116,34.3z M112.4,35.9c-0.2,0.2-0.3,0.5-0.3,1c0,0.4,0.1,0.8,0.3,1c0.2,0.2,0.5,0.4,0.8,0.4
		c0.3,0,0.7,0,1.1-0.1s0.7-0.2,0.9-0.2l0.3-0.1v-2.4l-2.2,0.2C112.9,35.5,112.6,35.7,112.4,35.9z"/>
	<path class="st2" d="M118,38.5v-8.7h0.4v8.7H118z"/>
	<path class="st2" d="M70.1,50.3c-0.8,0.2-1.5,0.2-2.2,0.2c-0.6,0-1.2-0.1-1.6-0.3c-0.4-0.2-0.7-0.5-0.9-0.9
		C65.2,49,65.1,48.5,65,48c-0.1-0.5-0.1-1-0.1-1.7c0-0.6,0-1.2,0.1-1.6c0-0.4,0.1-0.8,0.3-1.2c0.1-0.4,0.3-0.7,0.5-0.9
		c0.5-0.5,1.2-0.8,2.1-0.8c0.7,0,1.4,0.1,2.2,0.2l0,0.4c-0.8-0.2-1.4-0.2-2-0.2c-0.6,0-1,0.1-1.3,0.2c-0.3,0.1-0.6,0.3-0.7,0.5
		c-0.2,0.2-0.3,0.5-0.4,0.8c-0.1,0.4-0.2,0.7-0.2,1.1c0,0.4,0,0.8,0,1.3c0,0.5,0,1,0,1.3c0,0.4,0.1,0.7,0.2,1
		c0.1,0.3,0.2,0.6,0.4,0.8c0.4,0.4,1,0.7,1.8,0.7c0.6,0,1.3-0.1,2.2-0.2L70.1,50.3z"/>
	<path class="st2" d="M71.7,45c0.4-0.4,1-0.7,1.9-0.7c0.9,0,1.5,0.2,1.9,0.7c0.4,0.4,0.5,1.2,0.5,2.4c0,1.2-0.2,2-0.5,2.4
		c-0.3,0.5-1,0.7-1.9,0.7c-1,0-1.6-0.2-1.9-0.7c-0.3-0.5-0.5-1.3-0.5-2.4C71.2,46.2,71.3,45.4,71.7,45z M72.5,50
		c0.3,0.1,0.6,0.1,1.1,0.1c0.4,0,0.8,0,1.1-0.1c0.3-0.1,0.5-0.3,0.6-0.5c0.1-0.3,0.2-0.5,0.3-0.8c0-0.3,0.1-0.8,0.1-1.3
		c0-1-0.1-1.7-0.4-2.1c-0.3-0.4-0.8-0.5-1.6-0.5c-0.8,0-1.3,0.2-1.6,0.5c-0.3,0.4-0.4,1-0.4,2.1c0,0.6,0,1,0.1,1.3
		c0,0.3,0.1,0.6,0.3,0.8C72.1,49.7,72.3,49.9,72.5,50z"/>
	<path class="st2" d="M78.1,50.4h-0.4v-6h0.4v0.5c0.1,0,0.2-0.1,0.3-0.2c0.1-0.1,0.4-0.2,0.7-0.3c0.3-0.1,0.7-0.2,1.1-0.2
		c0.7,0,1.2,0.2,1.5,0.6c0.3-0.2,0.6-0.3,1-0.4c0.4-0.1,0.8-0.2,1.1-0.2c0.8,0,1.3,0.2,1.6,0.6c0.3,0.4,0.4,1.2,0.4,2.4v3.1h-0.4
		v-3.1c0-1-0.1-1.7-0.3-2.1s-0.6-0.5-1.3-0.5c-0.3,0-0.7,0-1,0.1c-0.3,0.1-0.6,0.2-0.8,0.3l-0.3,0.1c0.1,0.4,0.2,1.1,0.2,2v3.1h-0.4
		v-3.1c0-1-0.1-1.7-0.3-2.1s-0.6-0.5-1.3-0.5c-0.3,0-0.6,0-1,0.1c-0.3,0.1-0.6,0.2-0.7,0.3l-0.3,0.2V50.4z"/>
	<path class="st2" d="M88,50.4h-0.4v-6H88v0.5c0.1,0,0.2-0.1,0.3-0.2c0.1-0.1,0.4-0.2,0.7-0.3c0.3-0.1,0.7-0.2,1.1-0.2
		c0.7,0,1.2,0.2,1.5,0.6c0.3-0.2,0.6-0.3,1-0.4c0.4-0.1,0.8-0.2,1.1-0.2c0.8,0,1.3,0.2,1.6,0.6c0.3,0.4,0.4,1.2,0.4,2.4v3.1h-0.4
		v-3.1c0-1-0.1-1.7-0.3-2.1c-0.2-0.3-0.6-0.5-1.3-0.5c-0.3,0-0.7,0-1,0.1c-0.3,0.1-0.6,0.2-0.8,0.3l-0.3,0.1c0.1,0.4,0.2,1.1,0.2,2
		v3.1h-0.4v-3.1c0-1-0.1-1.7-0.3-2.1s-0.6-0.5-1.3-0.5c-0.3,0-0.6,0-1,0.1c-0.3,0.1-0.6,0.2-0.7,0.3L88,45.3V50.4z"/>
	<path class="st2" d="M97.9,45c0.4-0.4,1-0.7,1.9-0.7c0.9,0,1.5,0.2,1.9,0.7c0.4,0.4,0.5,1.2,0.5,2.4c0,1.2-0.2,2-0.5,2.4
		c-0.3,0.5-1,0.7-1.9,0.7c-1,0-1.6-0.2-1.9-0.7c-0.3-0.5-0.5-1.3-0.5-2.4C97.3,46.2,97.5,45.4,97.9,45z M98.7,50
		c0.3,0.1,0.6,0.1,1.1,0.1c0.4,0,0.8,0,1.1-0.1c0.3-0.1,0.5-0.3,0.6-0.5c0.1-0.3,0.2-0.5,0.3-0.8c0-0.3,0.1-0.8,0.1-1.3
		c0-1-0.1-1.7-0.4-2.1c-0.3-0.4-0.8-0.5-1.6-0.5s-1.3,0.2-1.6,0.5c-0.3,0.4-0.4,1-0.4,2.1c0,0.6,0,1,0.1,1.3c0,0.3,0.1,0.6,0.3,0.8
		C98.2,49.7,98.4,49.9,98.7,50z"/>
	<path class="st2" d="M108.1,41.7v8.7h-0.4v-0.5c-0.2,0.2-0.6,0.3-1,0.4c-0.4,0.1-0.7,0.2-1,0.2c-0.3,0-0.5,0-0.6,0
		c-0.1,0-0.3-0.1-0.5-0.2c-0.2-0.1-0.4-0.3-0.5-0.5c-0.1-0.2-0.2-0.5-0.3-0.9c-0.1-0.4-0.1-0.9-0.1-1.4c0-1.1,0.2-1.9,0.6-2.4
		c0.4-0.5,1-0.8,2-0.8c0.5,0,1,0,1.6,0.1v-2.8H108.1z M105.1,50c0.2,0.1,0.4,0.1,0.6,0.1c0.3,0,0.6-0.1,0.9-0.2
		c0.3-0.1,0.6-0.2,0.8-0.3l0.3-0.2v-4.7c-0.6-0.1-1.1-0.1-1.6-0.1c-0.8,0-1.3,0.2-1.6,0.7c-0.3,0.5-0.4,1.2-0.4,2.1
		c0,1.1,0.2,1.9,0.5,2.2C104.7,49.9,104.9,50,105.1,50z"/>
	<path class="st2" d="M110,42.7V42h0.4v0.7H110z M110,50.4v-6h0.4v6H110z"/>
	<path class="st2" d="M115.2,44.8H113v3.1c0,0.9,0.1,1.5,0.2,1.8c0.1,0.3,0.4,0.4,0.9,0.4l1.2-0.1l0,0.4c-0.5,0.1-0.9,0.1-1.2,0.1
		c-0.6,0-1-0.1-1.2-0.4c-0.2-0.3-0.3-0.9-0.3-1.7v-3.6h-0.9v-0.4h0.9v-1.9h0.4v1.9h2.2V44.8z"/>
	<path class="st2" d="M116.4,42.7V42h0.4v0.7H116.4z M116.4,50.4v-6h0.4v6H116.4z"/>
	<path class="st2" d="M122.5,50l0.4,0l0,0.4c-0.9,0.1-1.6,0.1-2.2,0.1c-0.8,0-1.4-0.3-1.8-0.8c-0.3-0.5-0.5-1.3-0.5-2.3
		c0-2.1,0.8-3.1,2.4-3.1c0.8,0,1.3,0.2,1.7,0.7c0.4,0.5,0.6,1.2,0.6,2.2v0.4h-4.2c0,0.9,0.1,1.5,0.4,1.9c0.3,0.4,0.7,0.6,1.3,0.6
		S121.9,50.1,122.5,50z M118.9,47.2h3.8c0-0.9-0.1-1.5-0.4-1.9c-0.3-0.4-0.8-0.6-1.4-0.6C119.5,44.7,118.9,45.5,118.9,47.2z"/>
	<path class="st2" d="M126.4,44.7c-1.1,0-1.6,0.4-1.6,1.2c0,0.4,0.1,0.6,0.3,0.8c0.2,0.2,0.7,0.3,1.5,0.4c0.8,0.1,1.3,0.3,1.6,0.5
		c0.3,0.2,0.5,0.6,0.5,1.2c0,0.6-0.2,1-0.6,1.3c-0.4,0.3-0.9,0.4-1.7,0.4c-0.4,0-0.9,0-1.6-0.1l-0.3,0l0-0.4
		c0.9,0.1,1.5,0.2,2.1,0.2c0.5,0,0.9-0.1,1.2-0.3c0.3-0.2,0.5-0.5,0.5-1c0-0.5-0.1-0.8-0.4-0.9c-0.2-0.2-0.7-0.3-1.5-0.4
		c-0.8-0.1-1.3-0.3-1.6-0.5c-0.3-0.2-0.4-0.5-0.4-1c0-0.5,0.1-0.8,0.3-1.1c0.2-0.3,0.5-0.4,0.8-0.5s0.6-0.1,0.9-0.1
		c0.6,0,1.2,0,1.8,0.1l0.3,0l0,0.4C127.6,44.8,126.9,44.7,126.4,44.7z"/>
</g>
</svg>
