<svg xmlns="http://www.w3.org/2000/svg" viewBox="0 0 150 55"><defs><style>.a{fill:#88b04b;fill-rule:evenodd;}.b{fill:#13322b;}</style></defs><path class="a" d="M26.83.37c3.38,0,6.79.51,10.57.51,1.72,0,3.63,0,5.45.14,2.29.15,4.75-.26,6,.88a4.83,4.83,0,0,1,.62.81,5.32,5.32,0,0,1,.54.85c.66,1.58.49,3.79.54,6h0a4.56,4.56,0,0,1-1.42,1.16c-3.46,2.56-6.91,4.84-10.46,7.48-1.91,1.41-3.94,3-5.86,4.4-.92.72-2,1.35-3,2.13a6.43,6.43,0,0,1-1.52,1,6.1,6.1,0,0,1-1.79.74c-1.36.08-1.34-1-1.59-2.09-.06-.26-.08-.66-.14-1a3,3,0,0,1-.11-1c.16-.46.83-.47,1.49-.64a7.18,7.18,0,0,0,3.69-2.3,11.35,11.35,0,0,0,1.56-1.9A8.9,8.9,0,0,0,32.05,16,10.31,10.31,0,0,0,32.46,14a11.93,11.93,0,0,0-.13-3.1A11.61,11.61,0,0,0,31,8.19C29.76,6,28.51,4,27.31,1.72c-.17-.27-.77-1-.57-1.28Z"/><path class="a" d="M24.3,2.57a2,2,0,0,1-.68.89l-.78.78c-1.35,1.72-3,3.18-4.4,4.87-.3.84-.62,1.67-.91,2.54a18.9,18.9,0,0,0-.86,2.57c-.05,1.1-.05,2.19,0,3.29v.07a13.1,13.1,0,0,0,1,1.65,12,12,0,0,0,1.08,1.56,31.48,31.48,0,0,0,3.53,2.64,4.1,4.1,0,0,1,1.42,2.78,12.81,12.81,0,0,1,.1,1.38,1.87,1.87,0,0,1-.2,1.29,1.19,1.19,0,0,1-1-.11,4.43,4.43,0,0,1-.84-.36,4.77,4.77,0,0,1-.82-1.16c-.73-1.19-1.64-2.31-2.29-3.48a12.08,12.08,0,0,0-1.56-2.32,10.23,10.23,0,0,0-1-1,5.22,5.22,0,0,0-1.05-.88A10.9,10.9,0,0,0,11.91,19a8,8,0,0,0-2.74.4,10.59,10.59,0,0,0-2,1.09c-.65.4-1.39.71-2,1.15A10.82,10.82,0,0,0,3.7,23.31c-.25.29-.52.57-.75.89s-.37.74-.78.8a10.68,10.68,0,0,1-.06-2.26c0-2.22-.32-4.45-.41-6.77,0-1.55,0-3.1,0-4.6s-.06-3.11,0-4.6a5,5,0,0,1,2-3.94c1.55-1,4.6-.69,7-.58,3,.14,6-.09,9.11.06.77,0,1.54,0,2.3.07A8.51,8.51,0,0,1,24.3,2.57Z"/><path class="a" d="M51.2,27.8a3.37,3.37,0,0,1-1.32.43c-1.36.35-2.84.71-4.33,1-1,.15-2,.32-3,.51s-2,.26-3,.43c-2,.35-3.87.88-5.92,1.12a29.3,29.3,0,0,1-3.38.14c-1.62,0-3.58.2-4.2-.85A4.89,4.89,0,0,1,26,29a3.52,3.52,0,0,1,1.07-1.29,13.21,13.21,0,0,1,1.32-1.05,10.68,10.68,0,0,1,3.73-.37,5,5,0,0,1,1,.47c.32.16.67.27,1,.41a12.87,12.87,0,0,0,2,.88,24.44,24.44,0,0,0,2.7.27,6.15,6.15,0,0,0,.85.1,3.93,3.93,0,0,0,1.28-.5A25.57,25.57,0,0,0,44.28,26c.64-1,1.25-2,1.86-3.12a24.35,24.35,0,0,0,1.7-3.24c.68-1.78,1.42-3.51,2-5.39.29-.86.73-1.51,1-2.44A3,3,0,0,1,51,11c.18-.3.78-.45,1.08-.58.56-.24.36.67.34.81a30.52,30.52,0,0,0-.25,3.31,30.57,30.57,0,0,1-.38,4.37c-.18,1.47-.22,3-.33,4.4S51.38,26.39,51.2,27.8Z"/><path class="a" d="M24,35.26a3.66,3.66,0,0,1-2,0,12.75,12.75,0,0,1-1.32-.68c-1.28-.65-2.35-1.54-3.69-2.2a26.14,26.14,0,0,0-2.8-1.15c-1.45-.48-3.26-1.15-5.06-.57a5.59,5.59,0,0,0-1.78,1.18A46.43,46.43,0,0,0,2.8,36.1c-.32.19-.48.72-1,.65a2.18,2.18,0,0,1-.17-1.18c0-2.2,0-4.24-.14-6.5,0-.36-.05-.78-.07-1.25s-.11-1.12.11-1.19l.1-.07c1.73.11,3.48.38,5.21.61,1.57.21,3.17.37,4.74.61,2.31.35,4.6.69,6.91,1.12,1.32.25,2.85.25,3.52,1.12a6,6,0,0,1,.56,1.3c.19.42.42.87.57,1.25A7,7,0,0,1,24,35.26Z"/><path class="a" d="M49.32,29.58c.34-.11.24.77.24,1.13v3.88c0,1.66.18,3.35.29,4.94a61.56,61.56,0,0,1,0,7.44,12,12,0,0,1-.14,2.74,7.92,7.92,0,0,1-.47,1,5.06,5.06,0,0,1-2.16,2.58,6.81,6.81,0,0,1-2.38.17c-.92,0-1.74,0-2.53-.07-1.77-.07-3.64,0-5.05,0-1.67,0-3.34-.14-5-.14s-3.39-.09-5-.21a9.55,9.55,0,0,1-.47-3c-.22-2.12-.61-3.81-.78-6-.06-.86-.09-2.58.47-2.85a2,2,0,0,1,1.32.21c.45.17.89.27,1.26.41,2.35.86,4.85,1.88,7.21,2.67L43.52,47l1.25.4c.4.12.82.38,1.25.24a4.35,4.35,0,0,0-.54-1.76c-.45-1.11-.92-2.22-1.38-3.32-.24-.56-.42-1.14-.68-1.66a10.36,10.36,0,0,0-1.22-1.8,11.89,11.89,0,0,0-1.49-1.52c-2.7-1.25-6-.14-8.7.45a12.84,12.84,0,0,0-3.38,1.19,7.73,7.73,0,0,0-2.13.47c-.56.12-1.46.19-1.76-.16s-.11-1.45,0-2a12.81,12.81,0,0,1,1-3.41,6.1,6.1,0,0,1,.68-1.49,3.49,3.49,0,0,1,.88-.34,4.33,4.33,0,0,1,1-.27,5.09,5.09,0,0,1,1.63.37,28.85,28.85,0,0,1,4,1.93c1.3.68,2.56,1.31,4,1.89a6.49,6.49,0,0,0,1.46.51,5.44,5.44,0,0,0,3.39-.51,10.65,10.65,0,0,0,1.79-1.49c.59-.51,1.13-1.12,1.66-1.62C47.2,32,48.24,30.76,49.32,29.58Z"/><path class="a" d="M22.34,38.49a35.68,35.68,0,0,1,1.24,4.67,3.9,3.9,0,0,1,.24,1.59c-.34.26-.81.11-1.19.09-5.49-.25-11.1-.49-16.48-.87L4.86,43.9c-.36,0-.79-.16-1.11.07,0,.5.38.88.61,1.32L5,46.57a20.15,20.15,0,0,0,1.39,2.54,6.66,6.66,0,0,0,2,1.59,7.92,7.92,0,0,0,1.12.58,7.1,7.1,0,0,0,1.35.44,10.14,10.14,0,0,0,1.35,0,19.87,19.87,0,0,0,2-.07,5.77,5.77,0,0,0,1.18-.43l1.12-.48c2-.8,3.06-2.11,4.94-3.14.3-.18.85-.55,1.08-.52s.43.46.54.81.29.68.38,1a17.09,17.09,0,0,1,.4,2.48,12,12,0,0,1,.34,2.46,5.34,5.34,0,0,1-1.87,0c-.66,0-1.33-.07-2-.07-3.94,0-8.34.22-12.11.21a11.83,11.83,0,0,1-1.34,0,4.44,4.44,0,0,1-2-.28,4.35,4.35,0,0,1-1.05-.86,3.14,3.14,0,0,1-1.28-2.13A23.49,23.49,0,0,1,2.7,47.6c.12-2.49.19-5.24.31-7.83a3.63,3.63,0,0,1,.2-1.42,9.18,9.18,0,0,1,3.21.45,25.61,25.61,0,0,1,2.84.9c1.89.69,3.87,1.58,6,1.53a7.39,7.39,0,0,0,3.62-1.49L20.2,39C20.82,38.56,21.55,37.74,22.34,38.49Z"/><path class="b" d="M86.54,21.23l1.7-.21.64,1.87-1.12.88H82.44L80.8,20.11H72.39l-.62,1.67,1.3,2H67.5L75.21,6.4,73.94,3.27h5.33ZM73.07,18.06l6.82-.21L76.52,9.77Z"/><path class="b" d="M105.11,11.74v8.52l-3.59,3.6h-7.3L90.9,21.11V11.59l-2-1.15.74-1.34h5.5V19.73l1,2.14,3.34-.33,1.23-2.16v-8l-.28-.21-.38-.3-.36-.29-.21-.17V9.13h5.56Z"/><path class="b" d="M113.89,18.08v3.67l1.29.5v1.52h-5.51V11.38l-1.49-.94.7-1.31h4.62l.18,2.69a22.76,22.76,0,0,1,1.85-1.53,12.6,12.6,0,0,1,1.71-1A4,4,0,0,1,119,8.85a4.51,4.51,0,0,1,1.37.21,6.14,6.14,0,0,1,1.09.46,4.61,4.61,0,0,1,.78.49l.42.33-1.11,3.14-3.77-.91a3.8,3.8,0,0,0-1,.31c-.37.17-.76.34-1.13.54l-1.05.58-.7.45C113.87,15.53,113.88,16.78,113.89,18.08Z"/><path class="b" d="M129.47,20.74a4.07,4.07,0,0,0,3.17,1.36,3.84,3.84,0,0,0,1.71-1.17c.46-.54,1-1.18,1.52-1.9l3.28,1.2a2.48,2.48,0,0,1-.41.81,8.74,8.74,0,0,1-2.33,2.24,3.1,3.1,0,0,1-1.45.49h-7.18a2.28,2.28,0,0,1-1.59-.92,9.17,9.17,0,0,1-1.48-2.29,10.91,10.91,0,0,1-1-2.9,6.26,6.26,0,0,1,0-2.79,10.89,10.89,0,0,1,.49-1.35,9.83,9.83,0,0,1,1-1.72,7.77,7.77,0,0,1,1.44-1.59,4.43,4.43,0,0,1,2-1c.53-.09,1.16-.17,1.9-.23a21.13,21.13,0,0,1,2.25-.06,16.23,16.23,0,0,1,2.1.19,3.53,3.53,0,0,1,1.48.51,5.12,5.12,0,0,1,.93.93,7.76,7.76,0,0,1,.88,1.39,9.15,9.15,0,0,1,.64,1.7,7.93,7.93,0,0,1,.28,1.81l-2,1.61-8.88.51A5.73,5.73,0,0,0,129.47,20.74Zm5-6.74c-.13-.46-.29-.93-.48-1.44a9.74,9.74,0,0,0-.58-1.33c-.2-.38-.39-.59-.57-.61a2.38,2.38,0,0,0-.75.06c-.3.06-.61.13-.94.22s-.63.18-.91.29a4,4,0,0,0-.7.31,2.22,2.22,0,0,0-.42.64,7,7,0,0,0-.38,1,8.62,8.62,0,0,0-.28,1.14,6.24,6.24,0,0,0-.1,1.06l6.33-.42C134.67,14.61,134.6,14.3,134.51,14Z"/><path class="b" d="M147.32,21.31l2.09.62v1.84h-6.16l.06-18.1-2.26-1,.38-1.4h5.92Z"/><path class="b" d="M70.09,40.88l2.53-8.23h1.27l2.54,8.23H76l-.77-2.53H71.29l-.77,2.53ZM72.91,33,71.4,38h3.68L73.58,33Z"/><path class="b" d="M82.14,41.84a1.67,1.67,0,0,1-.59,1.43,3.56,3.56,0,0,1-2,.43,3,3,0,0,1-1.82-.39,1.91,1.91,0,0,1-.45-1.48,1.38,1.38,0,0,1,.44-1.08,6.8,6.8,0,0,1,.55-.43.9.9,0,0,1-.25-.76,2.54,2.54,0,0,1,.26-.73l.09-.19c-.68-.23-1-.82-1-1.8a1.75,1.75,0,0,1,1.5-2,1.85,1.85,0,0,1,.47,0,4.9,4.9,0,0,1,1.08.12h1.81v.41H81a2,2,0,0,1,.46,1.46A1.82,1.82,0,0,1,81,38.33a2.49,2.49,0,0,1-1.63.44,4.46,4.46,0,0,1-.63-.05,3.14,3.14,0,0,0-.28.85,1.13,1.13,0,0,0,0,.26.31.31,0,0,0,.09.18.39.39,0,0,0,.28.11,10.85,10.85,0,0,0,1.4.08,2.6,2.6,0,0,1,1.47.32A1.54,1.54,0,0,1,82.14,41.84Zm-4.41,0A1.51,1.51,0,0,0,78.1,43a2.33,2.33,0,0,0,1.51.31A2.89,2.89,0,0,0,81.22,43a1.29,1.29,0,0,0,.49-1.14c0-.54-.12-.88-.36-1A2.51,2.51,0,0,0,80,40.58H78.61a2.77,2.77,0,0,0-.71.61,1.27,1.27,0,0,0-.17.63Zm.08-4.94a1.6,1.6,0,0,0,.37,1.22,1.85,1.85,0,0,0,1.25.34,1.94,1.94,0,0,0,1.26-.33,1.62,1.62,0,0,0,.37-1.23,1.72,1.72,0,0,0-.37-1.23,1.84,1.84,0,0,0-1.26-.41,1.75,1.75,0,0,0-1.25.37,1.65,1.65,0,0,0-.34,1.21Z"/><path class="b" d="M83.44,40.88V35h.42v.92a6.67,6.67,0,0,1,2.33-1v.37a5.25,5.25,0,0,0-1.1.36c-.31.13-.61.28-.91.44l-.32.2v4.58Z"/><path class="b" d="M87.3,33.29v-.64h.41v.64Zm0,7.59V35h.41v5.92Z"/><path class="b" d="M91.76,35.26a1.86,1.86,0,0,0-1.54.57,3.52,3.52,0,0,0-.43,2.06A4.16,4.16,0,0,0,90.17,40a1.75,1.75,0,0,0,1.59.6l1.42-.11v.38a14,14,0,0,1-1.44.11,2.26,2.26,0,0,1-2-.67,4.39,4.39,0,0,1-.49-2.41,3.8,3.8,0,0,1,.55-2.37,2.32,2.32,0,0,1,1.86-.65l1.42.12v.37C92.53,35.31,92.07,35.26,91.76,35.26Z"/><path class="b" d="M98.43,35h.4v5.92h-.4v-.47l-.29.16a4.08,4.08,0,0,1-.69.26,3.3,3.3,0,0,1-1,.16,1.7,1.7,0,0,1-1.55-.6,4.8,4.8,0,0,1-.31-2.37V35H95v3a4.82,4.82,0,0,0,.28,2.06c.19.34.6.51,1.24.51a3.28,3.28,0,0,0,1-.15,4.59,4.59,0,0,0,.73-.28l.25-.16Z"/><path class="b" d="M100.77,40.88V32.31h.41v8.58Z"/><path class="b" d="M106,35.37h-2.14v3.09a5,5,0,0,0,.18,1.76c.13.27.43.4.89.4l1.16-.09v.38q-.6.08-1.2.09a1.37,1.37,0,0,1-1.16-.43,3,3,0,0,1-.33-1.66V35.37h-.91V35h1V33.08h.42V35h2.14Z"/><path class="b" d="M110.93,35h.45v5.92H111v-.47l-.28.16a4.08,4.08,0,0,1-.69.26,3.3,3.3,0,0,1-1,.16,1.72,1.72,0,0,1-1.56-.6,4.9,4.9,0,0,1-.38-2.33V35h.42v3a4.67,4.67,0,0,0,.28,2.06c.19.34.59.51,1.24.51a3.28,3.28,0,0,0,1-.15,3.79,3.79,0,0,0,.73-.28l.25-.16Z"/><path class="b" d="M113.21,40.88V35h.4v.92a6.2,6.2,0,0,1,1.06-.61,5.84,5.84,0,0,1,1.28-.43v.42a5.25,5.25,0,0,0-1.1.36,9.37,9.37,0,0,0-.9.44l-.34.2v4.58Z"/><path class="b" d="M121,36.72v3.4c0,.28.33.44.88.49V41a1.41,1.41,0,0,1-1.21-.5,6.09,6.09,0,0,1-2.38.51,1.41,1.41,0,0,1-1.13-.44,2.1,2.1,0,0,1,0-2.46,1.88,1.88,0,0,1,1.23-.52l2.24-.23v-.62a1.56,1.56,0,0,0-.33-1.08,1.27,1.27,0,0,0-1-.35c-.63,0-1.25.07-1.87.15h-.36v-.38a13.11,13.11,0,0,1,2.26-.22C120.42,34.87,121,35.5,121,36.72Zm-3.55,1.61a1.36,1.36,0,0,0-.28,1,1.59,1.59,0,0,0,.28,1,1,1,0,0,0,.81.34,5.08,5.08,0,0,0,1.1-.12c.3-.06.6-.15.9-.24l.33-.12V37.72l-2.19.22A1.45,1.45,0,0,0,117.42,38.33Z"/><path class="b" d="M123,40.88V32.31h.41v8.58Z"/><path class="b" d="M75.66,52.52a10.86,10.86,0,0,1-2.13.24A3.62,3.62,0,0,1,72,52.48a2.08,2.08,0,0,1-.9-.86,4.17,4.17,0,0,1-.43-1.29,9.21,9.21,0,0,1-.12-1.66,11.79,11.79,0,0,1,.07-1.57,4.72,4.72,0,0,1,.25-1.16,2.31,2.31,0,0,1,.49-.91,2.77,2.77,0,0,1,2.12-.75,11.43,11.43,0,0,1,2.18.22v.41a10.09,10.09,0,0,0-2-.23,3.54,3.54,0,0,0-1.29.18,2.12,2.12,0,0,0-.73.5,2.24,2.24,0,0,0-.4.82,5.27,5.27,0,0,0-.2,1v2.62a5.5,5.5,0,0,0,.2,1,2.12,2.12,0,0,0,.42.8,2.36,2.36,0,0,0,1.82.64,12.84,12.84,0,0,0,2.14-.22Z"/><path class="b" d="M77.28,47.32a3,3,0,0,1,3.7,0,4,4,0,0,1,.54,2.38A4.42,4.42,0,0,1,81,52.09a3.07,3.07,0,0,1-3.82,0,4.33,4.33,0,0,1-.48-2.39A3.9,3.9,0,0,1,77.28,47.32Zm.81,4.93a3.87,3.87,0,0,0,2.08,0,1,1,0,0,0,.59-.5,2.44,2.44,0,0,0,.27-.84c0-.43.06-.87.06-1.3a3.54,3.54,0,0,0-.42-2,2.45,2.45,0,0,0-3.09,0,3.53,3.53,0,0,0-.41,2,9.43,9.43,0,0,0,.06,1.3,2.23,2.23,0,0,0,.26.84,1,1,0,0,0,.6.49Z"/><path class="b" d="M83.56,52.65h-.41V46.73h.41v.47l.29-.17a5.13,5.13,0,0,1,.69-.25,3.37,3.37,0,0,1,1-.16,1.62,1.62,0,0,1,1.49.64,5.15,5.15,0,0,1,1-.44,3.58,3.58,0,0,1,1.13-.2,1.72,1.72,0,0,1,1.55.59,4.82,4.82,0,0,1,.38,2.34v3.06H90.7v-3a4.82,4.82,0,0,0-.28-2.06A1.32,1.32,0,0,0,89.19,47a4.09,4.09,0,0,0-1,.15,4,4,0,0,0-.75.29l-.26.15a6.55,6.55,0,0,1,.21,2v3.06H87v-3a5.16,5.16,0,0,0-.3-2.06A1.32,1.32,0,0,0,85.49,47a3.3,3.3,0,0,0-1,.15,4.62,4.62,0,0,0-.73.29l-.25.16Z"/><path class="b" d="M93.38,52.65H93V46.73h.42v.47l.25-.1a5,5,0,0,1,.68-.25,3.39,3.39,0,0,1,1-.16,1.61,1.61,0,0,1,1.48.64,4.89,4.89,0,0,1,1-.44,3.63,3.63,0,0,1,1.13-.2,1.72,1.72,0,0,1,1.55.59,4.82,4.82,0,0,1,.38,2.34v3.06h-.36V49.61a5,5,0,0,0-.28-2.06A1.33,1.33,0,0,0,99,47a4.08,4.08,0,0,0-1,.15,4,4,0,0,0-.75.29l-.26.15a6.55,6.55,0,0,1,.21,2v3.06h-.42v-3a5,5,0,0,0-.23-2.06A1.3,1.3,0,0,0,95.35,47a3.24,3.24,0,0,0-1,.15,3.58,3.58,0,0,0-.73.29l-.25.16Z"/><path class="b" d="M103.1,47.32a3,3,0,0,1,3.7,0,4,4,0,0,1,.53,2.38,4.41,4.41,0,0,1-.47,2.39,3.07,3.07,0,0,1-3.82,0,4.34,4.34,0,0,1-.49-2.39A4,4,0,0,1,103.1,47.32Zm.81,4.93a3.87,3.87,0,0,0,2.08,0,1,1,0,0,0,.59-.5,2.74,2.74,0,0,0,.26-.84,11.3,11.3,0,0,0,0-1.3,3.54,3.54,0,0,0-.4-2,2.45,2.45,0,0,0-3.09,0,3.53,3.53,0,0,0-.41,2,9.43,9.43,0,0,0,.06,1.3,2.23,2.23,0,0,0,.26.84,1,1,0,0,0,.6.49Z"/><path class="b" d="M113.17,44.06v8.59h-.42v-.5a3.54,3.54,0,0,1-1,.42,3.69,3.69,0,0,1-1,.19,5.81,5.81,0,0,1-.59,0,1.84,1.84,0,0,1-.51-.19,1.44,1.44,0,0,1-.5-.45,3.15,3.15,0,0,1-.34-.88,5.51,5.51,0,0,1-.15-1.4,4.13,4.13,0,0,1,.55-2.38,2.2,2.2,0,0,1,2-.77,10,10,0,0,1,1.54.14V44.06Zm-3,8.24a1.74,1.74,0,0,0,.6.08,3,3,0,0,0,.89-.16,3.86,3.86,0,0,0,.8-.3l.27-.15V47.18a10,10,0,0,0-1.54-.15,1.78,1.78,0,0,0-1.62.68,3.91,3.91,0,0,0-.44,2.1,3.09,3.09,0,0,0,.55,2.18,1.38,1.38,0,0,0,.47.31Z"/><path class="b" d="M115,45.06v-.65h.41v.65Zm0,7.59V46.73h.41v5.92Z"/><path class="b" d="M120.19,47.1h-2.14v3.09a5,5,0,0,0,.24,1.85c.13.26.42.4.89.4l1.15-.1v.39a11.71,11.71,0,0,1-1.18.09,1.38,1.38,0,0,1-1.17-.43,2.93,2.93,0,0,1-.33-1.67V47.1h-.93v-.37h.93V44.84h.41v1.93h2.14Z"/><path class="b" d="M121.33,45.06v-.65h.4v.65Zm0,7.59V46.73h.4v5.92Z"/><path class="b" d="M127.37,52.29h.34v.38c-.88.07-1.61.11-2.18.11A1.92,1.92,0,0,1,123.8,52a4.26,4.26,0,0,1-.48-2.29c0-2,.79-3,2.38-3a2.09,2.09,0,0,1,1.68.67,3.39,3.39,0,0,1,.55,2.15v.4h-4.18a3.61,3.61,0,0,0,.4,1.88,1.46,1.46,0,0,0,1.33.62C126.18,52.38,126.75,52.35,127.37,52.29Zm-3.59-2.79h3.74a3.2,3.2,0,0,0-.42-1.89,1.61,1.61,0,0,0-1.37-.58C124.44,47,123.78,47.85,123.78,49.5Z"/><path class="b" d="M131.18,47c-1,0-1.57.4-1.57,1.19a.87.87,0,0,0,.33.78,4.12,4.12,0,0,0,1.46.4,4.34,4.34,0,0,1,1.57.48,1.29,1.29,0,0,1,.45,1.18,1.49,1.49,0,0,1-.56,1.29,3,3,0,0,1-1.68.41,14,14,0,0,1-1.59-.14l-.35,0,0-.4a13,13,0,0,0,2,.21,2.25,2.25,0,0,0,1.22-.29,1.13,1.13,0,0,0,.46-1,1,1,0,0,0-.37-.94,4.64,4.64,0,0,0-1.47-.39,4.16,4.16,0,0,1-1.54-.46,1.08,1.08,0,0,1-.44-1,1.58,1.58,0,0,1,.32-1,1.48,1.48,0,0,1,.75-.49,2.89,2.89,0,0,1,.88-.13,11.85,11.85,0,0,1,1.78.13h.31v.38A16.47,16.47,0,0,0,131.18,47Z"/></svg>