<svg xmlns="http://www.w3.org/2000/svg" viewBox="0 0 1920 1080"><defs><style>.a{fill:#88b04b;fill-rule:evenodd;}.b{fill:#13322b;}</style></defs><path class="a" d="M26.3.63c3.42,0,6.88.52,10.71.52,1.74,0,3.68,0,5.52.14,2.32.15,4.82-.26,6.11.89a4.74,4.74,0,0,1,.62.82,5.41,5.41,0,0,1,.55.86c.67,1.6.5,3.85.55,6.14,0,0,0,0,0,0a4.67,4.67,0,0,1-1.44,1.17c-3.51,2.6-7,4.91-10.6,7.58-1.94,1.43-4,3-5.94,4.46-.94.73-2,1.37-3.05,2.16a6.85,6.85,0,0,1-1.54,1.07,6.57,6.57,0,0,1-1.82.75c-1.38.08-1.36-1-1.61-2.12-.06-.27-.08-.67-.14-1a2.94,2.94,0,0,1-.11-1c.16-.46.84-.47,1.51-.65a7.33,7.33,0,0,0,3.74-2.33,12,12,0,0,0,1.58-1.92,9.48,9.48,0,0,0,.65-1.75A10.68,10.68,0,0,0,32,14.49a12.24,12.24,0,0,0-.13-3.15,11.49,11.49,0,0,0-1.34-2.78C29.27,6.35,28,4.35,26.78,2,26.61,1.72,26,1,26.2.7Z"/><path class="a" d="M23.73,2.86a2,2,0,0,1-.69.9l-.79.79c-1.37,1.75-3,3.23-4.46,4.94-.3.85-.63,1.69-.92,2.57A19.09,19.09,0,0,0,16,14.67,31.74,31.74,0,0,0,16,18s0,0,0,.07a12.69,12.69,0,0,0,1,1.68,11.94,11.94,0,0,0,1.1,1.58A30.7,30.7,0,0,0,21.67,24a4.17,4.17,0,0,1,1.44,2.82,12.13,12.13,0,0,1,.1,1.4,1.91,1.91,0,0,1-.2,1.31,1.2,1.2,0,0,1-1-.11,4.73,4.73,0,0,1-.85-.37,4.63,4.63,0,0,1-.83-1.17c-.74-1.21-1.67-2.35-2.33-3.53A12.08,12.08,0,0,0,16.42,22c-.28-.3-.61-.68-1-1a5.69,5.69,0,0,0-1.06-.89,11.2,11.2,0,0,0-3.19-.65,8.07,8.07,0,0,0-2.78.41,10.87,10.87,0,0,0-2,1.1c-.66.41-1.41.72-2,1.17a11.2,11.2,0,0,0-1.54,1.74c-.25.3-.53.58-.76.9s-.37.75-.79.82a10.37,10.37,0,0,1-.06-2.3c0-2.25-.33-4.51-.42-6.86C.85,14.87.84,13.3.81,11.78S.75,8.63.85,7.12a5.09,5.09,0,0,1,2-4c1.57-1,4.66-.7,7.1-.58,3,.14,6.12-.1,9.23.06.78,0,1.56,0,2.33.07A8.33,8.33,0,0,1,23.73,2.86Z"/><path class="a" d="M51,28.43a3.53,3.53,0,0,1-1.34.44c-1.38.35-2.88.72-4.39,1-1,.16-2,.33-3.05.52s-2,.26-3.09.44c-2,.35-3.92.89-6,1.13a28.79,28.79,0,0,1-3.43.14c-1.64,0-3.63.21-4.26-.86a5.16,5.16,0,0,1,0-1.64,3.6,3.6,0,0,1,1.09-1.31,11.67,11.67,0,0,1,1.34-1.06,10.69,10.69,0,0,1,3.78-.38,5.73,5.73,0,0,1,1,.48c.33.16.68.27,1,.41a12.86,12.86,0,0,0,2,.9,24.69,24.69,0,0,0,2.74.27,5.55,5.55,0,0,0,.86.1,3.91,3.91,0,0,0,1.3-.51,26.24,26.24,0,0,0,3.43-1.92c.65-1,1.27-2.06,1.89-3.16a25,25,0,0,0,1.72-3.29c.69-1.8,1.44-3.56,2.05-5.46.29-.87.74-1.53,1-2.47a3.31,3.31,0,0,1,.17-.79c.19-.3.8-.45,1.1-.58.57-.25.36.68.34.82A31.73,31.73,0,0,0,52,15a32.25,32.25,0,0,1-.38,4.43c-.19,1.49-.23,3-.34,4.46S51.18,27,51,28.43Z"/><path class="a" d="M23.46,36a3.89,3.89,0,0,1-2,0c-.45-.17-.88-.46-1.34-.69-1.3-.66-2.38-1.57-3.74-2.23a24.41,24.41,0,0,0-2.84-1.17c-1.47-.49-3.3-1.17-5.12-.58a5.72,5.72,0,0,0-1.81,1.2,45.77,45.77,0,0,0-4.67,4.32c-.33.19-.49.73-1,.66a2.27,2.27,0,0,1-.17-1.2c-.05-2.23,0-4.3-.14-6.59,0-.36-.05-.79-.07-1.27s-.11-1.13.11-1.2a.26.26,0,0,1,.1-.07c1.76.11,3.53.38,5.28.62,1.59.21,3.22.37,4.81.61,2.34.36,4.66.7,7,1.14,1.34.25,2.89.25,3.57,1.13A6.35,6.35,0,0,1,22,32c.19.43.42.88.58,1.27A7.2,7.2,0,0,1,23.46,36Z"/><path class="a" d="M49.09,30.24c.35-.11.24.78.24,1.14,0,1.26,0,2.53,0,3.94,0,1.68.19,3.39.3,5a63.19,63.19,0,0,1,0,7.54,12.58,12.58,0,0,1-.14,2.78c-.1.33-.32.66-.48,1a5.11,5.11,0,0,1-2.19,2.61,6.76,6.76,0,0,1-2.41.17c-.93,0-1.76,0-2.57-.07-1.79-.07-3.69,0-5.11,0-1.7,0-3.39-.14-5.08-.14s-3.44-.09-5.08-.21a9.79,9.79,0,0,1-.48-3c-.22-2.15-.62-3.87-.79-6.11-.06-.87-.09-2.61.48-2.88a2,2,0,0,1,1.34.21c.45.17.9.27,1.27.41,2.39.88,4.92,1.91,7.31,2.71l7.51,2.54,1.27.41c.41.12.83.39,1.27.24a4.4,4.4,0,0,0-.55-1.78c-.46-1.13-.93-2.25-1.4-3.37-.24-.56-.43-1.15-.69-1.68a10.25,10.25,0,0,0-1.24-1.82,11.58,11.58,0,0,0-1.51-1.54c-2.73-1.27-6.09-.15-8.81.45A13,13,0,0,0,28.12,40a7.68,7.68,0,0,0-2.16.48c-.57.12-1.48.19-1.78-.17s-.11-1.47,0-2a12.82,12.82,0,0,1,1-3.46,6,6,0,0,1,.69-1.51,3.44,3.44,0,0,1,.89-.35,4.32,4.32,0,0,1,1-.27,5.11,5.11,0,0,1,1.65.38,29.26,29.26,0,0,1,4,1.95c1.32.69,2.6,1.33,4.05,1.92a6.73,6.73,0,0,0,1.48.52,5.61,5.61,0,0,0,3.43-.52,10.79,10.79,0,0,0,1.82-1.51c.59-.52,1.14-1.14,1.68-1.64C46.94,32.67,48,31.43,49.09,30.24Z"/><path class="a" d="M21.74,39.27A35.21,35.21,0,0,1,23,44a3.85,3.85,0,0,1,.24,1.61c-.34.27-.82.12-1.2.1-5.57-.26-11.25-.5-16.71-.89l-1.3-.07c-.37,0-.8-.16-1.13.07,0,.51.39.9.62,1.34s.46.86.68,1.3a20.15,20.15,0,0,0,1.41,2.57,6.74,6.74,0,0,0,2.06,1.62,8,8,0,0,0,1.13.58,6.47,6.47,0,0,0,1.37.45,10.17,10.17,0,0,0,1.37,0,19.77,19.77,0,0,0,2.06-.07,5.71,5.71,0,0,0,1.2-.44c.39-.16.78-.34,1.14-.48,2.05-.82,3.1-2.14,5-3.19.31-.18.87-.55,1.1-.52s.43.46.55.82.29.69.38,1a17.31,17.31,0,0,1,.41,2.51,12.87,12.87,0,0,1,.34,2.5,5.44,5.44,0,0,1-1.89,0c-.67,0-1.35-.07-2.06-.07-4,0-8.46.22-12.28.21C7.06,55,6.59,55,6.13,55a4.44,4.44,0,0,1-2.06-.28A4.43,4.43,0,0,1,3,53.85a3.26,3.26,0,0,1-1.3-2.16,25.1,25.1,0,0,1,.14-3.19c.12-2.52.19-5.31.31-7.93a3.81,3.81,0,0,1,.2-1.44,9.26,9.26,0,0,1,3.26.45c1,.26,2,.58,2.88.92,1.91.7,3.92,1.6,6.11,1.55a7.61,7.61,0,0,0,3.67-1.51l1.31-.79C20.2,39.34,20.94,38.51,21.74,39.27Z"/><path class="b" d="M86.82,21.77l1.72-.21.65,1.9-1.13.89h-5.4L81,20.64l-8.52,0-.63,1.69,1.31,2.05H67.52L75.33,6.74,74.05,3.57h5.4ZM73.16,18.56l6.92-.21-3.42-8.19Z"/><path class="b" d="M105.64,12.15c0,1,0,2.08,0,3.15s0,2.09,0,3.07v2.42L102,24.44H94.6l-3.36-2.79V12l-2-1.16.75-1.36h5.58l0,10.77,1,2.17,3.38-.33,1.25-2.19,0-8.11-.28-.21-.39-.31-.36-.29a1.91,1.91,0,0,0-.22-.17V9.51h5.64Z"/><path class="b" d="M114.54,18.58c0,1.31,0,2.56,0,3.72l1.31.51c0,.25,0,.51,0,.75s0,.51,0,.79h-5.59c0-.3,0-.71,0-1.23s0-1.11,0-1.77,0-1.34,0-2.06v-7.5l-1.51-.95.71-1.33h4.69l.18,2.73a19.92,19.92,0,0,1,1.87-1.55,12.55,12.55,0,0,1,1.74-1,3.9,3.9,0,0,1,1.74-.46,4.32,4.32,0,0,1,1.39.21,7.15,7.15,0,0,1,1.1.46,4.94,4.94,0,0,1,.79.5l.43.34-1.13,3.18L118.44,13a4,4,0,0,0-1,.31c-.38.17-.77.35-1.15.55s-.74.4-1.06.59l-.71.45C114.52,16,114.53,17.26,114.54,18.58Z"/><path class="b" d="M130.33,21.28a4.16,4.16,0,0,0,3.22,1.38,4,4,0,0,0,1.73-1.19c.47-.55,1-1.2,1.54-1.93l3.32,1.22a2.37,2.37,0,0,1-.41.82,7.85,7.85,0,0,1-1,1.18,7.65,7.65,0,0,1-1.36,1.09,3.11,3.11,0,0,1-1.47.5h-7.28a2.31,2.31,0,0,1-1.61-.93,9.28,9.28,0,0,1-1.5-2.32,11.63,11.63,0,0,1-1-2.94,6.39,6.39,0,0,1,0-2.83,13.22,13.22,0,0,1,.5-1.37,10.74,10.74,0,0,1,1-1.74,8.5,8.5,0,0,1,1.46-1.62,4.67,4.67,0,0,1,2-1c.54-.09,1.18-.17,1.93-.23a21.63,21.63,0,0,1,2.28-.06,15.47,15.47,0,0,1,2.13.19,3.57,3.57,0,0,1,1.5.52,5.19,5.19,0,0,1,.94.94,7.4,7.4,0,0,1,.89,1.41,9,9,0,0,1,.65,1.72,7.81,7.81,0,0,1,.28,1.84l-2,1.63-9,.51A5.82,5.82,0,0,0,130.33,21.28Zm5.11-6.83c-.13-.47-.29-.95-.48-1.46a10.71,10.71,0,0,0-.59-1.35c-.21-.39-.4-.6-.58-.62a2.7,2.7,0,0,0-.76.06c-.3.06-.62.13-.95.22s-.64.19-.93.3a4.61,4.61,0,0,0-.71.31,2.43,2.43,0,0,0-.42.65,8.9,8.9,0,0,0-.39,1,9.33,9.33,0,0,0-.28,1.16,6.17,6.17,0,0,0-.1,1.07l6.41-.42A8,8,0,0,0,135.44,14.45Z"/><path class="b" d="M148.43,21.86l2.11.62v1.87H144.3L144.36,6l-2.29-1,.39-1.42h6Z"/><path class="b" d="M70.14,41.69l2.57-8.34H74l2.57,8.34h-.43l-.78-2.56h-4l-.78,2.56ZM73,33.75l-1.53,5H75.2l-1.52-5Z"/><path class="b" d="M82.36,42.66a1.67,1.67,0,0,1-.6,1.45,3.52,3.52,0,0,1-2,.44,3,3,0,0,1-1.84-.4,1.94,1.94,0,0,1-.46-1.5,1.4,1.4,0,0,1,.45-1.09c.11-.1.3-.25.56-.44-.17-.11-.26-.37-.26-.77a2.48,2.48,0,0,1,.27-.74l.09-.19c-.69-.23-1-.83-1-1.82a1.78,1.78,0,0,1,2-2,4.57,4.57,0,0,1,1.1.12l.16,0,1.67,0v.42H81.23a2,2,0,0,1,.47,1.48,1.86,1.86,0,0,1-.52,1.49,2.53,2.53,0,0,1-1.65.44,4.06,4.06,0,0,1-.64-.05,3.27,3.27,0,0,0-.28.86.91.91,0,0,0,0,.27.31.31,0,0,0,.09.18.39.39,0,0,0,.28.11A10.35,10.35,0,0,0,80.4,41a2.61,2.61,0,0,1,1.49.33A1.55,1.55,0,0,1,82.36,42.66Zm-4.47,0a1.52,1.52,0,0,0,.37,1.2,2.47,2.47,0,0,0,1.53.32,3,3,0,0,0,1.64-.34,1.31,1.31,0,0,0,.49-1.15c0-.55-.12-.9-.36-1.06a2.6,2.6,0,0,0-1.34-.24l-1.44,0a2.83,2.83,0,0,0-.72.62A1.24,1.24,0,0,0,77.89,42.64Zm.08-5a1.63,1.63,0,0,0,.37,1.23,1.85,1.85,0,0,0,1.27.35,2,2,0,0,0,1.28-.34,1.64,1.64,0,0,0,.37-1.24,1.7,1.7,0,0,0-.37-1.25A1.85,1.85,0,0,0,79.61,36a1.75,1.75,0,0,0-1.27.37A1.69,1.69,0,0,0,78,37.6Z"/><path class="b" d="M83.68,41.69v-6h.42v.93a6.86,6.86,0,0,1,2.36-1V36a5.49,5.49,0,0,0-1.11.36,8,8,0,0,0-.92.45l-.33.2v4.64Z"/><path class="b" d="M87.59,34v-.65H88V34Zm0,7.69v-6H88v6Z"/><path class="b" d="M92.11,36a1.85,1.85,0,0,0-1.56.57,3.62,3.62,0,0,0-.44,2.09,4.26,4.26,0,0,0,.39,2.14,1.79,1.79,0,0,0,1.61.61l1.44-.11,0,.38a13.09,13.09,0,0,1-1.46.11,2.3,2.3,0,0,1-2-.68,4.39,4.39,0,0,1-.49-2.44,3.84,3.84,0,0,1,.55-2.4,2.34,2.34,0,0,1,1.89-.66l1.44.12,0,.38C92.89,36.05,92.42,36,92.11,36Z"/><path class="b" d="M98.87,35.73h.41v6h-.41v-.47l-.29.16a4.14,4.14,0,0,1-.7.26,3.17,3.17,0,0,1-1,.16,1.72,1.72,0,0,1-1.57-.6A4.84,4.84,0,0,1,95,38.83v-3.1h.42v3.08a5,5,0,0,0,.29,2.09c.19.35.61.52,1.25.52a3.32,3.32,0,0,0,1-.15,4.56,4.56,0,0,0,.74-.29l.25-.16Z"/><path class="b" d="M101.24,41.69V33h.42v8.7Z"/><path class="b" d="M106.55,36.11h-2.17v3.13a5.09,5.09,0,0,0,.19,1.78c.13.28.43.41.9.41l1.17-.09,0,.38a11.6,11.6,0,0,1-1.21.09,1.4,1.4,0,0,1-1.18-.43,3,3,0,0,1-.33-1.69V36.11H103v-.38H104V33.79h.42v1.94h2.17Z"/><path class="b" d="M111.54,35.73H112v6h-.42v-.47l-.28.16a4.14,4.14,0,0,1-.7.26,3.22,3.22,0,0,1-1,.16,1.75,1.75,0,0,1-1.58-.6,5,5,0,0,1-.38-2.37v-3.1h.42v3.08a4.79,4.79,0,0,0,.29,2.09c.19.35.6.52,1.25.52a3.2,3.2,0,0,0,1-.15,3.91,3.91,0,0,0,.74-.29l.25-.16Z"/><path class="b" d="M113.85,41.69v-6h.41v.93a5.67,5.67,0,0,1,1.07-.61,5.39,5.39,0,0,1,1.3-.44V36a5.57,5.57,0,0,0-1.12.36,7.69,7.69,0,0,0-.91.45l-.34.2v4.64Z"/><path class="b" d="M121.72,37.48v3.44c0,.29.33.45.89.5l0,.37a1.42,1.42,0,0,1-1.23-.5,6.18,6.18,0,0,1-2.41.51,1.47,1.47,0,0,1-1.15-.44,2.15,2.15,0,0,1,0-2.5,1.88,1.88,0,0,1,1.25-.52l2.27-.24v-.62a1.56,1.56,0,0,0-.33-1.1,1.27,1.27,0,0,0-1-.35,16.33,16.33,0,0,0-1.89.15l-.37,0,0-.39a14,14,0,0,1,2.29-.22Q121.72,35.62,121.72,37.48Zm-3.6,1.63a1.39,1.39,0,0,0-.29,1,1.57,1.57,0,0,0,.29,1,1,1,0,0,0,.82.35,5.53,5.53,0,0,0,1.11-.12,9.24,9.24,0,0,0,.92-.25l.33-.12V38.49l-2.22.22A1.43,1.43,0,0,0,118.12,39.11Z"/><path class="b" d="M123.73,41.69V33h.42v8.7Z"/><path class="b" d="M75.79,53.49a11.12,11.12,0,0,1-2.16.24,3.61,3.61,0,0,1-1.55-.28,2.07,2.07,0,0,1-.91-.87,4.13,4.13,0,0,1-.44-1.31,10.34,10.34,0,0,1-.12-1.68A13.23,13.23,0,0,1,70.68,48a5.16,5.16,0,0,1,.25-1.18,2.44,2.44,0,0,1,.5-.92,2.82,2.82,0,0,1,2.15-.76,11.65,11.65,0,0,1,2.21.22l0,.42a9.81,9.81,0,0,0-2-.24,3.46,3.46,0,0,0-1.3.19,1.93,1.93,0,0,0-.74.5,2.22,2.22,0,0,0-.41.83,5.75,5.75,0,0,0-.2,1.07c0,.36,0,.8,0,1.32s0,1,0,1.33a5.27,5.27,0,0,0,.2,1,2.21,2.21,0,0,0,.43.81,2.39,2.39,0,0,0,1.84.65,12.44,12.44,0,0,0,2.17-.23Z"/><path class="b" d="M77.43,48.22a3,3,0,0,1,3.75,0,4,4,0,0,1,.55,2.41,4.4,4.4,0,0,1-.49,2.42,3.09,3.09,0,0,1-3.87,0,4.4,4.4,0,0,1-.49-2.42A4,4,0,0,1,77.43,48.22Zm.82,5a4,4,0,0,0,2.11,0,1.07,1.07,0,0,0,.6-.51,2.3,2.3,0,0,0,.27-.85,11,11,0,0,0,.06-1.32,3.58,3.58,0,0,0-.42-2.05,2.5,2.5,0,0,0-3.13,0,3.58,3.58,0,0,0-.42,2.05,11,11,0,0,0,.06,1.32,2.3,2.3,0,0,0,.27.85A1.07,1.07,0,0,0,78.25,53.21Z"/><path class="b" d="M83.8,53.62h-.42v-6h.42v.48l.29-.17a5.3,5.3,0,0,1,.7-.26,3.45,3.45,0,0,1,1.06-.16,1.65,1.65,0,0,1,1.51.65,4.72,4.72,0,0,1,1-.45,3.81,3.81,0,0,1,1.14-.2,1.75,1.75,0,0,1,1.58.6,5,5,0,0,1,.38,2.37v3.1h-.42V50.54a5,5,0,0,0-.29-2.09,1.32,1.32,0,0,0-1.25-.52,3.72,3.72,0,0,0-1,.15,4.22,4.22,0,0,0-.76.29l-.26.15a6.58,6.58,0,0,1,.21,2v3.1H87.3V50.54A5,5,0,0,0,87,48.45a1.32,1.32,0,0,0-1.25-.52,3.32,3.32,0,0,0-1,.15,4.56,4.56,0,0,0-.74.29l-.25.16Z"/><path class="b" d="M93.75,53.62h-.42v-6h.42v.48L94,48a5,5,0,0,1,.69-.26,3.51,3.51,0,0,1,1.07-.16,1.63,1.63,0,0,1,1.5.65,5.17,5.17,0,0,1,1-.45,3.92,3.92,0,0,1,1.15-.2,1.73,1.73,0,0,1,1.57.6,4.89,4.89,0,0,1,.38,2.37v3.1H101V50.54a5,5,0,0,0-.29-2.09,1.32,1.32,0,0,0-1.25-.52,3.67,3.67,0,0,0-1,.15,4.22,4.22,0,0,0-.76.29l-.26.15a6.58,6.58,0,0,1,.21,2v3.1h-.42V50.54A5.06,5.06,0,0,0,97,48.45a1.32,1.32,0,0,0-1.25-.52,3.27,3.27,0,0,0-1,.15,4.21,4.21,0,0,0-.74.29l-.25.16Z"/><path class="b" d="M103.6,48.22a3,3,0,0,1,3.75,0,4,4,0,0,1,.54,2.41,4.41,4.41,0,0,1-.48,2.42,3.09,3.09,0,0,1-3.87,0,4.4,4.4,0,0,1-.49-2.42A4,4,0,0,1,103.6,48.22Zm.82,5a4,4,0,0,0,2.11,0,1.07,1.07,0,0,0,.6-.51,2.49,2.49,0,0,0,.26-.85,11,11,0,0,0,.06-1.32,3.68,3.68,0,0,0-.41-2.05,2.5,2.5,0,0,0-3.13,0,3.58,3.58,0,0,0-.42,2.05,11,11,0,0,0,.06,1.32,2.3,2.3,0,0,0,.27.85A1.07,1.07,0,0,0,104.42,53.21Z"/><path class="b" d="M113.81,44.92v8.7h-.42v-.5a4,4,0,0,1-1,.42,3.54,3.54,0,0,1-1,.19,4.54,4.54,0,0,1-.6,0,1.67,1.67,0,0,1-.52-.19,1.38,1.38,0,0,1-.5-.46,3.09,3.09,0,0,1-.35-.89,6,6,0,0,1-.15-1.42,4.18,4.18,0,0,1,.56-2.41,2.24,2.24,0,0,1,2-.78,10.69,10.69,0,0,1,1.57.14V44.92Zm-3,8.35a2,2,0,0,0,.61.08,3,3,0,0,0,.9-.16,3.72,3.72,0,0,0,.81-.31l.28-.15V48.08a10.1,10.1,0,0,0-1.57-.15,1.81,1.81,0,0,0-1.64.68,4.05,4.05,0,0,0-.44,2.13,3.12,3.12,0,0,0,.55,2.21A1.44,1.44,0,0,0,110.79,53.27Z"/><path class="b" d="M115.7,45.93v-.66h.41v.66Zm0,7.69v-6h.41v6Z"/><path class="b" d="M120.93,48h-2.17v3.13A5.05,5.05,0,0,0,119,53c.13.27.43.41.9.41l1.17-.1,0,.39a11.27,11.27,0,0,1-1.2.09,1.39,1.39,0,0,1-1.18-.43,2.92,2.92,0,0,1-.34-1.69V48h-.94v-.38h.94V45.71h.42v1.95h2.17Z"/><path class="b" d="M122.08,45.93v-.66h.41v.66Zm0,7.69v-6h.41v6Z"/><path class="b" d="M128.2,53.26l.35,0,0,.38c-.89.07-1.63.11-2.21.11a1.93,1.93,0,0,1-1.75-.77,4.31,4.31,0,0,1-.49-2.32c0-2.06.8-3.09,2.41-3.09a2.11,2.11,0,0,1,1.7.68,3.43,3.43,0,0,1,.56,2.18v.4h-4.23a3.58,3.58,0,0,0,.4,1.91,1.49,1.49,0,0,0,1.35.63C127,53.35,127.58,53.32,128.2,53.26Zm-3.63-2.83h3.79a3.24,3.24,0,0,0-.43-1.92,1.62,1.62,0,0,0-1.39-.58C125.23,47.93,124.57,48.76,124.57,50.43Z"/><path class="b" d="M132.07,47.93c-1.06,0-1.6.4-1.6,1.2a.89.89,0,0,0,.34.79,4.22,4.22,0,0,0,1.48.41,4.27,4.27,0,0,1,1.59.48,1.33,1.33,0,0,1,.46,1.2,1.51,1.51,0,0,1-.57,1.31,3,3,0,0,1-1.7.41,13.22,13.22,0,0,1-1.62-.14l-.35-.05.05-.4a13.45,13.45,0,0,0,2,.21,2.24,2.24,0,0,0,1.23-.3,1.12,1.12,0,0,0,.47-1,1,1,0,0,0-.37-.95,4.68,4.68,0,0,0-1.49-.4,4.27,4.27,0,0,1-1.57-.46,1.11,1.11,0,0,1-.44-1,1.6,1.6,0,0,1,.32-1.06,1.56,1.56,0,0,1,.76-.5,2.9,2.9,0,0,1,.89-.13,11.5,11.5,0,0,1,1.81.13l.31,0,0,.39A14.55,14.55,0,0,0,132.07,47.93Z"/></svg>