<svg xmlns="http://www.w3.org/2000/svg" viewBox="0 0 820.35 210.43"><defs><style>.cls-1{fill:#88b04b;fill-rule:evenodd;}.cls-2{fill:#13322b;}</style></defs><g id="Calque_2" data-name="Calque 2"><g id="Calque_1-2" data-name="Calque 1"><text/><g id="lake_forest_open_lands_association"><path class="cls-1" d="M99.71,0c13.2.08,26.62,2,41.42,2,6.75,0,14.23.07,21.37.53,9,.58,18.63-1,23.64,3.45a18,18,0,0,1,2.39,3.19,21.46,21.46,0,0,1,2.12,3.32c2.61,6.2,2,14.89,2.12,23.76-.11,0-.12,0-.13.14-1.29,2.1-3.67,3.1-5.57,4.51-13.57,10-27,19-41,29.34-7.5,5.53-15.46,11.44-23,17.26-3.64,2.81-7.88,5.28-11.82,8.36a28.18,28.18,0,0,1-6,4.12c-2.29,1-4.9,2.81-7,2.92-5.35.28-5.24-3.72-6.24-8.23-.23-1-.29-2.57-.53-4s-.68-3-.4-3.84C91.69,85,94.32,85,96.92,84.3c6.43-1.71,10.34-4.64,14.47-9a44.38,44.38,0,0,0,6.1-7.44A37.26,37.26,0,0,0,120,61.07a44,44,0,0,0,1.86-7.44,48.13,48.13,0,0,0-.53-12.21c-.87-3.68-3.27-7.48-5.18-10.75-5-8.54-9.74-16.31-14.61-25.23-.67-1.23-2.93-4.07-2.25-5.17A1,1,0,0,1,99.71,0Z"/><path class="cls-1" d="M89.75,8.63c-.37,1.52-1.69,2.48-2.66,3.45s-2,2-3,3.06c-5.33,6.79-11.73,12.51-17.26,19.11-1.16,3.3-2.47,6.54-3.59,10s-2.82,6.57-3.45,10.09c-.71,4,.4,8.42.13,13,0,.11.14.13.14.26,1.1,2.57,2.69,4.45,4,6.51a45.39,45.39,0,0,0,4.24,6.11c3.66,4.17,9.14,6.67,13.55,10.35,3.24,2.71,4.76,5.9,5.57,10.89a47.88,47.88,0,0,1,.4,5.44c.08,1.73.3,3.81-.79,5-1.34.64-2.77.08-3.85-.4a20.35,20.35,0,0,1-3.32-1.46c-1.2-.86-2.17-2.85-3.19-4.52-2.86-4.68-6.48-9.1-9-13.67a46.58,46.58,0,0,0-6.1-9.17c-1.08-1.16-2.37-2.6-3.72-3.84a22,22,0,0,0-4.12-3.46c-2.8-1.34-8.52-2.22-12.34-2.52a31.74,31.74,0,0,0-10.76,1.59c-2.6.92-5.15,2.76-7.57,4.25s-5.48,2.8-7.7,4.52-4,4.5-6,6.77c-1,1.14-2,2.23-2.92,3.45s-1.44,2.92-3.05,3.18c-.66-2.86-.27-5.9-.27-8.89C3.05,79,1.8,70.28,1.46,61.19c-.23-6.12-.3-12.19-.4-18C1,37,.84,30.93,1.2,25.08c.39-6.52,3.29-12.57,7.7-15.39C15,5.76,26.94,7,36.38,7.43,48,8,60.07,7.06,72.09,7.7c3,.17,6,.19,9,.27S87,7.78,89.75,8.63Z"/><path class="cls-1" d="M195.16,107.54c-1.47,1.09-3.38,1.28-5.18,1.72-5.36,1.34-11.15,2.78-17,3.72-3.87.62-7.82,1.27-11.82,2s-7.94,1-11.95,1.73c-7.67,1.35-15.16,3.43-23.23,4.38a118.58,118.58,0,0,1-13.27.53c-6.35,0-14,.79-16.47-3.32-.16-2.29-.35-4.75.14-6.37.58-2,2.74-3.68,4.25-5a42.91,42.91,0,0,1,5.17-4.11c4.06-.73,10.34-2.48,14.61-1.47,1.34.32,2.36,1.23,3.71,1.86s2.64,1,3.85,1.6c2.43,1.12,5,2.76,7.57,3.45s7.45.71,10.62,1.06a25.29,25.29,0,0,0,3.32.4c1.52-.08,3.52-1.22,5-2,4.61-2.35,9.33-4.54,13.28-7.43,2.5-3.81,4.88-8,7.3-12.21,2.32-4.08,4.87-8.16,6.64-12.75,2.68-7,5.6-13.78,8-21.11,1.09-3.37,2.87-5.94,3.85-9.56.28-1,.2-2.31.67-3.05.72-1.17,3.08-1.75,4.24-2.26,2.21-1,1.4,2.62,1.33,3.18a118.46,118.46,0,0,0-.66,13.28,127.68,127.68,0,0,1-1.46,17.13c-.74,5.75-.9,11.69-1.33,17.26C195.91,95.89,196,102.12,195.16,107.54Z"/><path class="cls-1" d="M88.68,137a15.09,15.09,0,0,1-7.83-.13,48.9,48.9,0,0,1-5.18-2.66c-5-2.56-9.2-6.09-14.47-8.63a96,96,0,0,0-11-4.51c-5.68-1.92-12.77-4.56-19.78-2.26-2.63.86-4.83,2.79-7,4.65C17,128.79,10.72,134.12,5.31,140.19c-1.26.73-1.89,2.81-3.72,2.53-.85-1.27-.63-3-.66-4.65C.76,129.44.8,121.44.4,112.58c-.06-1.37-.21-3-.27-4.91,0-1.64-.44-4.35.41-4.65a.9.9,0,0,1,.39-.26c6.82.43,13.67,1.47,20.45,2.38,6.16.84,12.46,1.46,18.59,2.39,9.09,1.39,18.05,2.68,27.08,4.38,5.15,1,11.15,1,13.8,4.38,1,1.3,1.4,3.46,2.13,5.18s1.61,3.42,2.26,4.91C86.72,129.84,88.57,133,88.68,137Z"/><path class="cls-1" d="M187.86,114.57c1.38-.45.93,3,.93,4.38,0,4.89-.11,9.8,0,15.27.13,6.51.74,13.12,1.19,19.25a251.77,251.77,0,0,1,.14,29.21c-.14,3.54.4,7.63-.53,10.75-.39,1.28-1.24,2.56-1.86,4-1.63,3.75-4.82,8.57-8.5,10.09-2.5,1-5.75.66-9.29.66s-6.83-.13-10-.27c-6.91-.29-14.26-.13-19.78-.13-6.58,0-13.12-.53-19.65-.53s-13.3-.35-19.65-.8c-1.54-3.26-1.43-7.45-1.85-11.55-.88-8.31-2.43-15-3.06-23.63-.24-3.37-.36-10.11,1.86-11.15,1.38-.65,3.6.17,5.18.8,1.74.68,3.49,1.06,4.91,1.59,9.22,3.41,19,7.39,28.28,10.49,9.77,3.27,19.35,6.56,29.07,9.82,1.62.54,3.29,1.1,4.91,1.59s3.21,1.51,4.92.93c.08-2.45-1.23-4.7-2.13-6.9q-2.67-6.51-5.44-13c-.93-2.18-1.66-4.47-2.66-6.51a40.11,40.11,0,0,0-4.78-7,46.61,46.61,0,0,0-5.84-6c-10.58-4.89-23.59-.58-34.12,1.73-4.87,1.07-9.75,2.47-13.41,4.51-3.42-.18-5.1,1.21-8.36,1.86-2.21.44-5.74.72-6.9-.66s-.42-5.69-.14-7.7a49.34,49.34,0,0,1,3.72-13.41c.78-1.83,1.66-5,2.65-5.84a14,14,0,0,1,3.46-1.33,16.7,16.7,0,0,1,3.71-1.06c1.82-.08,4.46.79,6.38,1.46,5.58,1.94,10.75,5.06,15.53,7.57,5.1,2.67,10,5.13,15.67,7.43a26.13,26.13,0,0,0,5.71,2,21.51,21.51,0,0,0,13.27-2c2.45-1.31,4.73-3.79,7-5.84s4.44-4.44,6.5-6.37C179.55,124,183.46,119.18,187.86,114.57Z"/><path class="cls-1" d="M82.05,149.49a138,138,0,0,1,5,18.45c.46,2,1.33,4.13.93,6.24-1.31,1-3.17.47-4.65.4-21.54-1-43.53-1.93-64.65-3.45-1.66-.12-3.39-.18-5-.26-1.45-.08-3.09-.64-4.38.26,0,2,1.5,3.49,2.38,5.18s1.81,3.35,2.66,5a80.2,80.2,0,0,0,5.44,10c1.69,2.39,5.14,4.63,8,6.24a33.26,33.26,0,0,0,4.38,2.26,24.78,24.78,0,0,0,5.31,1.72,37.89,37.89,0,0,0,5.31.14c2.55,0,5.59,0,8-.27,1.43-.18,3-1.09,4.65-1.72s3-1.32,4.38-1.86c7.93-3.14,12-8.27,19.25-12.35,1.18-.66,3.35-2.11,4.25-2,1.17.15,1.67,1.77,2.13,3.19s1.14,2.65,1.46,3.71a62.62,62.62,0,0,1,1.59,9.69c.39,3,1.56,6.5,1.33,9.7-2.33.81-4.85.17-7.31.13s-5.24-.27-8-.27c-15.63,0-32.75.85-47.53.8-1.69,0-3.51-.27-5.31-.27-3.33,0-5.76,0-8-1.06a16.14,16.14,0,0,1-4.25-3.19c-2.39-2.38-4.66-4.16-5-8.36-.35-3.77.33-8.15.54-12.35.46-9.74.73-20.55,1.19-30.67.09-1.88,0-3.92.8-5.57,4.58-.37,8.74.69,12.61,1.72s7.52,2.26,11.15,3.59c7.38,2.71,15.14,6.17,23.64,6,5.61-.13,10.17-3.4,14.2-5.84,1.62-1,3.35-2,5-3.05C76.08,149.77,79,146.55,82.05,149.49Z"/></g><path class="cls-2" d="M391.15,162.25l11.6-1.4,4.4,12.8-7.6,6h-36.4l-11.2-25-57.4-.2-4.2,11.4,8.8,13.8h-38l52.6-118.6-8.6-21.4h36.4Zm-92-21.6,46.6-1.4-23-55.2Z"/><path class="cls-2" d="M518,97.45q0,10.41.1,21.2t.1,20.7v16.3l-24.6,24.6h-50L421,161.45V96.65l-13.8-7.8,5-9.2h37.6l.2,72.6,7,14.6,22.8-2.2,8.4-14.8.2-54.6c-.4-.26-1-.73-1.9-1.4s-1.74-1.36-2.6-2.1l-2.4-2a12.33,12.33,0,0,0-1.5-1.1v-9h38Z"/><path class="cls-2" d="M577.85,140.75q.1,13.31.1,25.1l8.8,3.4c0,1.73,0,3.43-.1,5.1s-.1,3.43-.1,5.3H549q0-3,.1-8.3t.2-11.9q.11-6.6.1-13.9V95.05l-10.2-6.4,4.8-9h31.6l1.2,18.4a127.49,127.49,0,0,1,12.6-10.4,76.69,76.69,0,0,1,11.7-7.1,26.8,26.8,0,0,1,11.7-3.1,29.74,29.74,0,0,1,9.4,1.4,49.83,49.83,0,0,1,7.4,3.1,34.15,34.15,0,0,1,5.3,3.4c1.4,1.14,2.36,1.9,2.9,2.3l-7.6,21.4-26-6a27.12,27.12,0,0,0-6.7,2.1q-3.9,1.71-7.8,3.7t-7.1,4l-4.8,3Q577.75,127.46,577.85,140.75Z"/><path class="cls-2" d="M684.25,159q6.71,8.51,21.7,9.3a26.85,26.85,0,0,0,11.6-8q4.8-5.59,10.4-13l22.4,8.2q-.21,1.61-2.8,5.5a53.11,53.11,0,0,1-6.7,8,52,52,0,0,1-9.2,7.3,20.27,20.27,0,0,1-9.9,3.4h-49q-5.21,0-10.9-6.3a63.54,63.54,0,0,1-10.1-15.6,81.94,81.94,0,0,1-6.4-19.8,43.66,43.66,0,0,1,.2-19.1q1-3.39,3.4-9.2a65.94,65.94,0,0,1,6.4-11.7,55.88,55.88,0,0,1,9.8-10.9,31.34,31.34,0,0,1,13.8-6.8,129.89,129.89,0,0,1,13-1.6,147,147,0,0,1,15.3-.4,107.73,107.73,0,0,1,14.4,1.3q6.71,1.11,10.1,3.5a35.18,35.18,0,0,1,6.3,6.3,52.86,52.86,0,0,1,6,9.5,63.14,63.14,0,0,1,4.4,11.6,53.87,53.87,0,0,1,1.9,12.4l-13.4,11-60.4,3.4Q677.56,150.45,684.25,159Zm34.4-46q-1.3-4.7-3.2-9.8a79.7,79.7,0,0,0-4-9.1q-2.1-4-3.9-4.2a18.39,18.39,0,0,0-5.1.4q-3.11.6-6.4,1.5t-6.3,2a36.59,36.59,0,0,0-4.8,2.1,15.78,15.78,0,0,0-2.8,4.4,56.8,56.8,0,0,0-2.6,6.8,61.62,61.62,0,0,0-1.9,7.8,41.9,41.9,0,0,0-.7,7.2l43.2-2.8A55,55,0,0,0,718.65,113Z"/><path class="cls-2" d="M806.15,162.85l14.2,4.2v12.6h-42l.4-123.4-15.4-7,2.6-9.6h40.2Z"/></g></g></svg>