<svg xmlns="http://www.w3.org/2000/svg" viewBox="0 0 150 54.38"><defs><style>.cls-1{fill:#88b04b;fill-rule:evenodd;}.cls-2{fill:#13322b;}</style></defs><g id="Calque_2" data-name="Calque 2"><g id="Calque_1-2" data-name="Calque 1"><text/><g id="lake_forest_open_lands_association"><path class="cls-1" d="M25.77,0c3.41,0,6.88.51,10.7.51,1.75,0,3.68,0,5.53.14,2.31.15,4.81-.25,6.1.89a4.72,4.72,0,0,1,.62.83,5.41,5.41,0,0,1,.55.86c.67,1.6.51,3.84.55,6.14,0,0,0,0,0,0a5,5,0,0,1-1.44,1.17c-3.5,2.59-7,4.91-10.6,7.58-1.94,1.43-4,3-5.93,4.46-.94.73-2,1.37-3.06,2.16a6.83,6.83,0,0,1-1.54,1.06,6.61,6.61,0,0,1-1.82.76c-1.38.07-1.35-1-1.61-2.13-.06-.27-.08-.66-.14-1a2.85,2.85,0,0,1-.1-1c.16-.47.84-.47,1.51-.65a7.39,7.39,0,0,0,3.74-2.34,10.69,10.69,0,0,0,1.57-1.92A9.91,9.91,0,0,0,31,15.78a11.47,11.47,0,0,0,.48-1.92,12.78,12.78,0,0,0-.14-3.16A10.9,10.9,0,0,0,30,7.93c-1.28-2.21-2.51-4.22-3.77-6.52-.18-.32-.76-1.06-.59-1.34A.41.41,0,0,1,25.77,0Z"/><path class="cls-1" d="M23.19,2.23a2,2,0,0,1-.68.89l-.79.79c-1.38,1.76-3,3.24-4.46,4.94-.3.85-.64,1.69-.93,2.57A19.56,19.56,0,0,0,15.44,14a31.7,31.7,0,0,0,0,3.36s0,0,0,.07a10.42,10.42,0,0,0,1,1.68,11.83,11.83,0,0,0,1.09,1.58c.95,1.08,2.36,1.73,3.5,2.68a4.15,4.15,0,0,1,1.44,2.81,12.23,12.23,0,0,1,.11,1.41,1.88,1.88,0,0,1-.21,1.3,1.18,1.18,0,0,1-1-.1,5.29,5.29,0,0,1-.86-.38,4.08,4.08,0,0,1-.82-1.17c-.74-1.2-1.68-2.35-2.34-3.53a12.81,12.81,0,0,0-1.57-2.37c-.28-.3-.62-.67-1-1a5.39,5.39,0,0,0-1.06-.89,11.12,11.12,0,0,0-3.19-.66,8.31,8.31,0,0,0-2.78.42,11.16,11.16,0,0,0-2,1.09c-.65.41-1.41.73-2,1.17A11.9,11.9,0,0,0,2.4,23.26c-.25.3-.53.58-.75.89s-.38.76-.79.83a10.36,10.36,0,0,1-.07-2.3c0-2.26-.32-4.52-.41-6.87C.32,14.23.3,12.66.27,11.15S.22,8,.31,6.48a5.11,5.11,0,0,1,2-4c1.58-1,4.66-.69,7.1-.58,3,.14,6.12-.1,9.23.07.78,0,1.56.05,2.33.07A8.27,8.27,0,0,1,23.19,2.23Z"/><path class="cls-1" d="M50.44,27.79a3.79,3.79,0,0,1-1.34.45c-1.39.34-2.89.71-4.39,1-1,.16-2,.32-3.06.51s-2,.27-3.09.45c-2,.35-3.91.89-6,1.13a31,31,0,0,1-3.43.14c-1.64,0-3.63.2-4.26-.86a5.22,5.22,0,0,1,0-1.65,3.5,3.5,0,0,1,1.1-1.3,11,11,0,0,1,1.34-1.07,10.86,10.86,0,0,1,3.77-.37,4.78,4.78,0,0,1,1,.48c.33.15.68.27,1,.41A12.81,12.81,0,0,0,35,28a24.6,24.6,0,0,0,2.74.28,7.6,7.6,0,0,0,.86.1,4.07,4.07,0,0,0,1.31-.52,24.11,24.11,0,0,0,3.43-1.92c.64-1,1.26-2.06,1.88-3.15A25.09,25.09,0,0,0,47,19.45c.69-1.79,1.45-3.56,2.06-5.45.28-.88.74-1.54,1-2.47a3.31,3.31,0,0,1,.17-.79c.19-.3.8-.46,1.1-.59.57-.25.36.68.34.83a31.61,31.61,0,0,0-.17,3.43,34,34,0,0,1-.37,4.42c-.19,1.49-.24,3-.35,4.46S50.64,26.39,50.44,27.79Z"/><path class="cls-1" d="M22.92,35.41a3.89,3.89,0,0,1-2,0,11.94,11.94,0,0,1-1.33-.68c-1.31-.66-2.38-1.58-3.74-2.23A25.32,25.32,0,0,0,13,31.29c-1.47-.5-3.3-1.18-5.11-.58A5.76,5.76,0,0,0,6,31.91a43.6,43.6,0,0,0-4.67,4.32c-.32.19-.49.72-1,.65a2.24,2.24,0,0,1-.17-1.2c0-2.23,0-4.3-.14-6.59,0-.35,0-.78-.07-1.27s-.11-1.12.11-1.2a.26.26,0,0,1,.1-.07c1.76.12,3.53.39,5.28.62s3.22.38,4.81.62c2.35.36,4.66.69,7,1.13,1.33.25,2.88.26,3.56,1.13a5.79,5.79,0,0,1,.55,1.34c.19.44.42.89.59,1.27A7.36,7.36,0,0,1,22.92,35.41Z"/><path class="cls-1" d="M48.55,29.61c.36-.12.24.78.24,1.13,0,1.26,0,2.53,0,3.95,0,1.68.19,3.39.31,5a65.54,65.54,0,0,1,0,7.55A11.5,11.5,0,0,1,49,50a9.24,9.24,0,0,1-.48,1,5.15,5.15,0,0,1-2.19,2.61,7,7,0,0,1-2.4.17c-.94,0-1.77,0-2.58-.07-1.78-.08-3.68,0-5.11,0-1.7,0-3.39-.13-5.08-.13s-3.43-.09-5.07-.21a9.54,9.54,0,0,1-.48-3c-.23-2.15-.63-3.88-.79-6.11-.07-.87-.1-2.61.48-2.88a2,2,0,0,1,1.34.2c.45.18.9.28,1.26.41,2.39.89,4.92,1.91,7.31,2.71s5,1.7,7.52,2.54c.41.14.85.29,1.27.41s.83.39,1.26.24a4.38,4.38,0,0,0-.54-1.78c-.46-1.12-.94-2.24-1.41-3.36-.24-.56-.43-1.16-.69-1.68a10,10,0,0,0-1.23-1.82,12.24,12.24,0,0,0-1.51-1.54c-2.74-1.27-6.1-.16-8.82.44a13.14,13.14,0,0,0-3.46,1.17,7.41,7.41,0,0,0-2.17.48c-.57.11-1.48.18-1.78-.17s-.11-1.47,0-2a12.54,12.54,0,0,1,1-3.47,6.14,6.14,0,0,1,.68-1.51,3.59,3.59,0,0,1,.89-.34,5.06,5.06,0,0,1,1-.28,5.33,5.33,0,0,1,1.64.38,29.42,29.42,0,0,1,4,2,43.33,43.33,0,0,0,4,1.92,6.44,6.44,0,0,0,1.47.51,5.52,5.52,0,0,0,3.43-.51,11.29,11.29,0,0,0,1.82-1.51c.59-.53,1.15-1.15,1.68-1.65C46.4,32,47.41,30.8,48.55,29.61Z"/><path class="cls-1" d="M21.2,38.63a35.61,35.61,0,0,1,1.31,4.77A4,4,0,0,1,22.75,45c-.34.27-.82.13-1.2.11-5.57-.27-11.25-.5-16.71-.89-.43,0-.88,0-1.31-.07s-.79-.17-1.13.07A3.18,3.18,0,0,0,3,45.56c.23.43.47.87.69,1.31a19.57,19.57,0,0,0,1.4,2.57,6.68,6.68,0,0,0,2.06,1.61,10,10,0,0,0,1.13.59,7.29,7.29,0,0,0,1.37.44,10.24,10.24,0,0,0,1.38,0c.66,0,1.44,0,2.06-.07a6,6,0,0,0,1.2-.45c.39-.15.77-.34,1.13-.48,2-.81,3.1-2.13,5-3.19.31-.17.87-.54,1.1-.51s.43.45.55.82.3.69.38,1a17.31,17.31,0,0,1,.41,2.51,12.76,12.76,0,0,1,.34,2.5,5.39,5.39,0,0,1-1.88,0c-.68,0-1.36-.07-2.06-.07-4,0-8.47.22-12.29.21-.43,0-.9-.07-1.37-.07A4.59,4.59,0,0,1,3.53,54a4,4,0,0,1-1.09-.83,3.19,3.19,0,0,1-1.31-2.16,25.25,25.25,0,0,1,.14-3.19c.12-2.52.19-5.31.31-7.92a3.86,3.86,0,0,1,.2-1.45A9.5,9.5,0,0,1,5,38.94c1,.27,2,.58,2.89.93,1.9.7,3.91,1.59,6.1,1.54a7.55,7.55,0,0,0,3.68-1.51c.41-.25.86-.51,1.3-.79C19.66,38.7,20.41,37.87,21.2,38.63Z"/></g><path class="cls-2" d="M86.28,21.13l1.72-.2.66,1.9-1.13.89H82.12L80.46,20l-8.52,0-.62,1.69,1.3,2H67L74.79,6.11,73.51,2.93h5.41Zm-13.66-3.2,6.92-.21-3.41-8.2Z"/><path class="cls-2" d="M105.11,11.51c0,1,0,2.08,0,3.15s0,2.09,0,3.07v2.42l-3.66,3.66H94.06L90.7,21V11.4l-2-1.16.74-1.37H95l0,10.78,1,2.17,3.38-.33,1.25-2.2,0-8.1-.28-.21-.39-.31-.35-.3a1.4,1.4,0,0,0-.23-.16V8.87h5.65Z"/><path class="cls-2" d="M114,17.94c0,1.32,0,2.56,0,3.73l1.31.5c0,.26,0,.51,0,.76s0,.51,0,.79h-5.58c0-.3,0-.71,0-1.23s0-1.12,0-1.77,0-1.34,0-2.07V11.16l-1.52-.95L109,8.87h4.69l.17,2.73a18.67,18.67,0,0,1,1.88-1.54A10.35,10.35,0,0,1,117.44,9a3.94,3.94,0,0,1,1.74-.46,4.32,4.32,0,0,1,1.39.2,6.75,6.75,0,0,1,1.1.46,4.92,4.92,0,0,1,.79.51l.43.34-1.13,3.18-3.86-.89a3.91,3.91,0,0,0-1,.31c-.39.17-.77.35-1.16.55a10.09,10.09,0,0,0-1,.59l-.72.45C114,15.39,114,16.63,114,17.94Z"/><path class="cls-2" d="M129.79,20.64A4.16,4.16,0,0,0,133,22a4.08,4.08,0,0,0,1.72-1.19c.47-.56,1-1.2,1.54-1.93l3.33,1.21a2.37,2.37,0,0,1-.42.82,8.42,8.42,0,0,1-1,1.19,7.68,7.68,0,0,1-1.37,1.08,3,3,0,0,1-1.47.51h-7.27a2.29,2.29,0,0,1-1.62-.94,9.31,9.31,0,0,1-1.5-2.31,12,12,0,0,1-1-2.94,6.44,6.44,0,0,1,0-2.84c.1-.34.27-.79.5-1.36a10,10,0,0,1,1-1.74A7.94,7.94,0,0,1,127,10a4.71,4.71,0,0,1,2-1,18.75,18.75,0,0,1,1.93-.24,21.44,21.44,0,0,1,2.27-.06,15.72,15.72,0,0,1,2.14.2,3.68,3.68,0,0,1,1.5.52,5.41,5.41,0,0,1,.93.93,7.54,7.54,0,0,1,.89,1.41,9.57,9.57,0,0,1,.66,1.72,8.46,8.46,0,0,1,.28,1.85l-2,1.63-9,.5A5.79,5.79,0,0,0,129.79,20.64Zm5.11-6.82c-.13-.47-.29-1-.47-1.46a12.34,12.34,0,0,0-.6-1.35c-.21-.4-.4-.6-.58-.62a2.64,2.64,0,0,0-.75.06,8.64,8.64,0,0,0-.95.22c-.33.09-.64.19-.94.29a5,5,0,0,0-.71.32,2.28,2.28,0,0,0-.42.65,8.27,8.27,0,0,0-.38,1,8.94,8.94,0,0,0-.29,1.16,7.22,7.22,0,0,0-.1,1.07l6.41-.42A7.53,7.53,0,0,0,134.9,13.82Z"/><path class="cls-2" d="M147.89,21.22l2.11.63v1.87h-6.24l.06-18.32-2.28-1,.38-1.43h6Z"/><path class="cls-2" d="M69.61,41.06l2.56-8.35h1.27L76,41.06h-.43L74.8,38.5h-4L70,41.06Zm2.86-7.94-1.53,5h3.72l-1.52-5Z"/><path class="cls-2" d="M81.82,42a1.68,1.68,0,0,1-.6,1.45,3.5,3.5,0,0,1-2,.43,2.94,2.94,0,0,1-1.85-.4,1.92,1.92,0,0,1-.46-1.5,1.38,1.38,0,0,1,.45-1.08c.11-.1.3-.25.56-.44-.17-.11-.26-.37-.26-.78A2.33,2.33,0,0,1,78,39l.08-.19c-.69-.22-1-.82-1-1.81a1.78,1.78,0,0,1,2-2,4.52,4.52,0,0,1,1.1.12l.17,0,1.67,0v.41H80.69A2,2,0,0,1,81.17,37a1.85,1.85,0,0,1-.52,1.48,2.51,2.51,0,0,1-1.66.45,4.16,4.16,0,0,1-.64,0,3.38,3.38,0,0,0-.27.86,1,1,0,0,0,0,.27.54.54,0,0,0,.1.18c0,.06.13.09.27.11a10.53,10.53,0,0,0,1.4.06,2.72,2.72,0,0,1,1.49.32A1.57,1.57,0,0,1,81.82,42Zm-4.47,0a1.56,1.56,0,0,0,.37,1.21,2.54,2.54,0,0,0,1.53.32,2.92,2.92,0,0,0,1.64-.34A1.3,1.3,0,0,0,81.38,42q0-.81-.36-1.05a2.58,2.58,0,0,0-1.33-.24l-1.45,0a3.15,3.15,0,0,0-.71.63A1.13,1.13,0,0,0,77.35,42Zm.08-5a1.67,1.67,0,0,0,.37,1.23,1.86,1.86,0,0,0,1.27.34,1.89,1.89,0,0,0,1.28-.34A1.6,1.6,0,0,0,80.72,37a1.68,1.68,0,0,0-.37-1.25,1.83,1.83,0,0,0-1.28-.36,1.8,1.8,0,0,0-1.27.36A1.76,1.76,0,0,0,77.43,37Z"/><path class="cls-2" d="M83.15,41.06v-6h.41V36a5.63,5.63,0,0,1,1.07-.62A5.27,5.27,0,0,1,85.92,35v.43a6.12,6.12,0,0,0-1.11.35,6.27,6.27,0,0,0-.91.46l-.34.2v4.64Z"/><path class="cls-2" d="M87.06,33.37v-.66h.41v.66Zm0,7.69v-6h.41v6Z"/><path class="cls-2" d="M91.58,35.37a1.86,1.86,0,0,0-1.57.57,3.66,3.66,0,0,0-.44,2.1,4.2,4.2,0,0,0,.4,2.13,1.78,1.78,0,0,0,1.61.62L93,40.68l0,.38c-.66.07-1.15.11-1.45.11a2.27,2.27,0,0,1-2-.69,4.36,4.36,0,0,1-.5-2.43,3.87,3.87,0,0,1,.55-2.4,2.36,2.36,0,0,1,1.9-.66l1.43.12,0,.38A12.69,12.69,0,0,0,91.58,35.37Z"/><path class="cls-2" d="M98.33,35.1h.42v6h-.42v-.48l-.29.16a3.92,3.92,0,0,1-.7.27,3.51,3.51,0,0,1-1,.16,1.73,1.73,0,0,1-1.57-.6,4.92,4.92,0,0,1-.38-2.37V35.1h.41v3.07a5,5,0,0,0,.29,2.1,1.32,1.32,0,0,0,1.25.52,3.32,3.32,0,0,0,1-.15,3.72,3.72,0,0,0,.74-.3l.25-.15Z"/><path class="cls-2" d="M100.7,41.06V32.35h.42v8.71Z"/><path class="cls-2" d="M106,35.48h-2.17V38.6a4.85,4.85,0,0,0,.2,1.79c.13.27.43.41.9.41l1.17-.1,0,.38a9.63,9.63,0,0,1-1.2.1,1.39,1.39,0,0,1-1.18-.44,2.88,2.88,0,0,1-.34-1.68V35.48h-.94V35.1h.94v-2h.42v2H106Z"/><path class="cls-2" d="M111,35.1h.41v6H111v-.48l-.29.16a3.92,3.92,0,0,1-.7.27,3.51,3.51,0,0,1-1,.16,1.73,1.73,0,0,1-1.57-.6,4.92,4.92,0,0,1-.38-2.37V35.1h.41v3.07a5,5,0,0,0,.29,2.1,1.32,1.32,0,0,0,1.25.52,3.32,3.32,0,0,0,1-.15,3.72,3.72,0,0,0,.74-.3l.25-.15Z"/><path class="cls-2" d="M113.31,41.06v-6h.42V36A6.2,6.2,0,0,1,116.09,35v.43a6.46,6.46,0,0,0-1.12.35,6.85,6.85,0,0,0-.91.46l-.33.2v4.64Z"/><path class="cls-2" d="M121.18,36.85v3.43q0,.44.9.51l0,.37a1.4,1.4,0,0,1-1.23-.51,6,6,0,0,1-2.41.52,1.52,1.52,0,0,1-1.15-.44,1.82,1.82,0,0,1-.41-1.26,1.76,1.76,0,0,1,.4-1.25,1.88,1.88,0,0,1,1.25-.51l2.26-.24v-.62a1.62,1.62,0,0,0-.32-1.11,1.32,1.32,0,0,0-1-.35,16.63,16.63,0,0,0-1.88.16l-.37.05,0-.4a15,15,0,0,1,2.29-.21Q121.18,35,121.18,36.85Zm-3.6,1.62a1.44,1.44,0,0,0-.29,1,1.46,1.46,0,0,0,.3,1,1,1,0,0,0,.81.36,5.57,5.57,0,0,0,1.11-.13,6.91,6.91,0,0,0,.92-.24l.33-.12V37.85l-2.21.23A1.48,1.48,0,0,0,117.58,38.47Z"/><path class="cls-2" d="M123.2,41.06V32.35h.41v8.71Z"/><path class="cls-2" d="M75.25,52.86a11,11,0,0,1-2.15.24,3.57,3.57,0,0,1-1.55-.29,2,2,0,0,1-.92-.86,4.22,4.22,0,0,1-.44-1.31A10.51,10.51,0,0,1,70.07,49a13.53,13.53,0,0,1,.07-1.57,5.9,5.9,0,0,1,.25-1.18,2.4,2.4,0,0,1,.51-.92A2.82,2.82,0,0,1,73,44.53a11.61,11.61,0,0,1,2.21.23l0,.42a9.8,9.8,0,0,0-2-.24,3.52,3.52,0,0,0-1.31.19,1.88,1.88,0,0,0-.73.49,2.13,2.13,0,0,0-.42.84,6.59,6.59,0,0,0-.2,1.06c0,.36,0,.8,0,1.33s0,1,0,1.32a5.28,5.28,0,0,0,.21,1,2,2,0,0,0,.43.81,2.35,2.35,0,0,0,1.83.66,11.56,11.56,0,0,0,2.17-.24Z"/><path class="cls-2" d="M76.9,47.58a3,3,0,0,1,3.74,0A3.9,3.9,0,0,1,81.19,50a4.35,4.35,0,0,1-.49,2.43,3.08,3.08,0,0,1-3.86,0A4.35,4.35,0,0,1,76.35,50,3.9,3.9,0,0,1,76.9,47.58Zm.81,5a3.35,3.35,0,0,0,1.06.13,3.28,3.28,0,0,0,1-.13,1.09,1.09,0,0,0,.6-.52,2.31,2.31,0,0,0,.27-.84,11.25,11.25,0,0,0,.06-1.32,3.55,3.55,0,0,0-.42-2,1.85,1.85,0,0,0-1.56-.55,1.83,1.83,0,0,0-1.56.55,3.55,3.55,0,0,0-.42,2,11.25,11.25,0,0,0,.06,1.32,2.31,2.31,0,0,0,.27.84A1.07,1.07,0,0,0,77.71,52.58Z"/><path class="cls-2" d="M83.26,53h-.41V47h.41v.48l.29-.16a4.14,4.14,0,0,1,.7-.26,3.47,3.47,0,0,1,1.07-.16,1.63,1.63,0,0,1,1.5.64,5.17,5.17,0,0,1,1.05-.45A3.77,3.77,0,0,1,89,46.92a1.75,1.75,0,0,1,1.58.6A5,5,0,0,1,91,49.89V53h-.42V49.91a5,5,0,0,0-.28-2.09c-.19-.35-.61-.52-1.26-.52a3.6,3.6,0,0,0-1,.15,3.7,3.7,0,0,0-.77.29l-.26.14a6.27,6.27,0,0,1,.22,2V53h-.42V49.91a5,5,0,0,0-.29-2.09c-.19-.35-.61-.52-1.25-.52a3.32,3.32,0,0,0-1,.15,3.42,3.42,0,0,0-.73.29l-.26.15Z"/><path class="cls-2" d="M93.21,53h-.42V47h.42v.48l.29-.16a4.14,4.14,0,0,1,.7-.26,3.45,3.45,0,0,1,1.06-.16,1.64,1.64,0,0,1,1.51.64,4.72,4.72,0,0,1,1-.45A3.77,3.77,0,0,1,99,46.92a1.75,1.75,0,0,1,1.58.6,5,5,0,0,1,.38,2.37V53h-.42V49.91a5,5,0,0,0-.29-2.09c-.19-.35-.6-.52-1.25-.52a3.6,3.6,0,0,0-1,.15,3.49,3.49,0,0,0-.77.29l-.26.14a6.66,6.66,0,0,1,.21,2V53h-.41V49.91a5,5,0,0,0-.29-2.09c-.19-.35-.61-.52-1.25-.52a3.32,3.32,0,0,0-1,.15,3.79,3.79,0,0,0-.74.29l-.25.15Z"/><path class="cls-2" d="M103.06,47.58a3,3,0,0,1,3.75,0,4,4,0,0,1,.55,2.41,4.44,4.44,0,0,1-.49,2.43,3.09,3.09,0,0,1-3.87,0,4.45,4.45,0,0,1-.48-2.43A4,4,0,0,1,103.06,47.58Zm.82,5a4.35,4.35,0,0,0,2.11,0,1.09,1.09,0,0,0,.6-.52,2.31,2.31,0,0,0,.27-.84,11.25,11.25,0,0,0,.06-1.32,3.55,3.55,0,0,0-.42-2,2.5,2.5,0,0,0-3.13,0,3.65,3.65,0,0,0-.41,2,11.25,11.25,0,0,0,.06,1.32,2.5,2.5,0,0,0,.26.84A1.09,1.09,0,0,0,103.88,52.58Z"/><path class="cls-2" d="M113.27,44.28V53h-.41v-.5a3.76,3.76,0,0,1-1,.41,3.55,3.55,0,0,1-1,.2,4.37,4.37,0,0,1-.59,0,1.65,1.65,0,0,1-.52-.2,1.3,1.3,0,0,1-.51-.45,3.06,3.06,0,0,1-.35-.9,6.49,6.49,0,0,1-.14-1.42,4.17,4.17,0,0,1,.55-2.4,2.24,2.24,0,0,1,2-.78,9.58,9.58,0,0,1,1.58.14V44.28Zm-3,8.36a2.09,2.09,0,0,0,.61.07,3.37,3.37,0,0,0,.91-.15,4.47,4.47,0,0,0,.8-.31l.29-.16V47.44a11.42,11.42,0,0,0-1.58-.14,1.79,1.79,0,0,0-1.64.68,4,4,0,0,0-.43,2.12,3.08,3.08,0,0,0,.55,2.22A1.57,1.57,0,0,0,110.25,52.64Z"/><path class="cls-2" d="M115.16,45.29v-.65h.42v.65Zm0,7.7V47h.42v6Z"/><path class="cls-2" d="M120.39,47.41h-2.17v3.12a5,5,0,0,0,.2,1.78q.19.42.9.42l1.17-.1,0,.38a9.75,9.75,0,0,1-1.21.1,1.41,1.41,0,0,1-1.18-.44,3,3,0,0,1-.33-1.69V47.41h-1V47h1V45.08h.41V47h2.17Z"/><path class="cls-2" d="M121.54,45.29v-.65H122v.65Zm0,7.7V47H122v6Z"/><path class="cls-2" d="M127.66,52.63l.36,0,0,.38c-.89.07-1.63.11-2.21.11a2,2,0,0,1-1.75-.77,4.33,4.33,0,0,1-.49-2.32c0-2.06.8-3.09,2.41-3.09a2.06,2.06,0,0,1,1.7.68,3.37,3.37,0,0,1,.57,2.18v.39H124a3.61,3.61,0,0,0,.41,1.92,1.5,1.5,0,0,0,1.35.62C126.41,52.71,127,52.69,127.66,52.63ZM124,49.79h3.8a3.23,3.23,0,0,0-.44-1.92A1.63,1.63,0,0,0,126,47.3C124.69,47.3,124,48.13,124,49.79Z"/><path class="cls-2" d="M131.53,47.3c-1.06,0-1.59.4-1.59,1.19a.88.88,0,0,0,.33.79,4,4,0,0,0,1.48.42,4.37,4.37,0,0,1,1.6.47,1.35,1.35,0,0,1,.45,1.2,1.5,1.5,0,0,1-.57,1.31,2.86,2.86,0,0,1-1.7.42,11.77,11.77,0,0,1-1.62-.15l-.34-.05,0-.39a13.32,13.32,0,0,0,2.06.2,2.32,2.32,0,0,0,1.22-.29,1.12,1.12,0,0,0,.47-1,1,1,0,0,0-.36-.94,4.77,4.77,0,0,0-1.5-.4,4.11,4.11,0,0,1-1.56-.47,1.07,1.07,0,0,1-.44-1A1.49,1.49,0,0,1,130.57,47a3.24,3.24,0,0,1,.89-.12,11.63,11.63,0,0,1,1.82.13l.31.05,0,.39A13.06,13.06,0,0,0,131.53,47.3Z"/></g></g></svg>