<svg xmlns="http://www.w3.org/2000/svg" viewBox="0 0 1579.5 812.5"><defs><style>.cls-1{fill:#13322b;}.cls-2{fill:#fff;}.cls-3{fill:#88b04b;fill-rule:evenodd;}</style></defs><g id="Calque_2" data-name="Calque 2"><g id="Calque_1-2" data-name="Calque 1"><rect class="cls-1" width="1579.5" height="812.5"/><path class="cls-2" d="M295.76,664.26,314.43,662l7.08,20.6-12.23,9.66H250.7l-18-40.24-92.38-.32-6.76,18.35,14.16,22.21H86.54l84.65-190.88L157.35,467h58.58ZM147.69,629.5l75-2.25-37-88.84Z"/><path class="cls-2" d="M499.84,560q0,16.74.16,34.12t.16,33.32v26.23l-39.59,39.59H380.1L343.73,663V558.68l-22.21-12.55,8-14.81h60.52l.32,116.85,11.26,23.5,36.7-3.55,13.52-23.82.32-87.87q-1-.64-3.06-2.25c-1.39-1.08-2.79-2.2-4.18-3.38s-2.68-2.26-3.86-3.22a16.94,16.94,0,0,0-2.42-1.77V531.32h61.16Z"/><path class="cls-2" d="M596.24,629.66q.16,21.4.17,40.4l14.16,5.47c0,2.79-.05,5.52-.16,8.21s-.16,5.52-.16,8.53H549.73q0-4.83.16-13.36t.33-19.15q.15-10.63.16-22.38V556.11L534,545.81l7.73-14.49h50.85l1.93,29.62a205.54,205.54,0,0,1,20.28-16.74,122.87,122.87,0,0,1,18.83-11.43q10.14-5,18.83-5A47.7,47.7,0,0,1,667.54,530a77,77,0,0,1,11.91,5A52.43,52.43,0,0,1,688,540.5c2.26,1.82,3.81,3.06,4.67,3.7l-12.23,34.44L638.57,569a43.44,43.44,0,0,0-10.78,3.38q-6.27,2.75-12.55,6t-11.43,6.44l-7.73,4.83Q596.08,608.25,596.24,629.66Z"/><path class="cls-2" d="M767.49,659q10.78,13.68,34.93,15A43.22,43.22,0,0,0,821.09,661q7.73-9,16.73-20.92l36.06,13.2q-.33,2.58-4.51,8.85A86,86,0,0,1,858.59,675a83.87,83.87,0,0,1-14.81,11.75q-8.21,5.16-15.93,5.48H749q-8.37,0-17.54-10.14A102.55,102.55,0,0,1,715.19,657a131.21,131.21,0,0,1-10.3-31.87q-3.23-16.89.32-30.74a156,156,0,0,1,5.47-14.8A105.27,105.27,0,0,1,721,560.78a89.69,89.69,0,0,1,15.77-17.55A50.4,50.4,0,0,1,759,532.29a206.36,206.36,0,0,1,20.92-2.57,234.82,234.82,0,0,1,24.63-.65,171.48,171.48,0,0,1,23.17,2.09q10.79,1.77,16.26,5.64a56.16,56.16,0,0,1,10.14,10.14,84.64,84.64,0,0,1,9.66,15.28,103,103,0,0,1,7.08,18.67,86.31,86.31,0,0,1,3.06,20l-21.57,17.71L755.1,624Q756.71,645.27,767.49,659Zm55.37-74q-2.1-7.56-5.15-15.77a127,127,0,0,0-6.44-14.65q-3.39-6.43-6.28-6.76a29.7,29.7,0,0,0-8.21.64q-5,1-10.3,2.42T776.34,554a55,55,0,0,0-7.72,3.38,25.17,25.17,0,0,0-4.51,7.08,91.42,91.42,0,0,0-4.18,10.94A96.69,96.69,0,0,0,756.87,588a68,68,0,0,0-1.13,11.58l69.53-4.5A89.24,89.24,0,0,0,822.86,584.92Z"/><path class="cls-2" d="M963.68,665.23,986.54,672v20.28h-67.6l.65-198.61L894.8,482.4,899,467h64.69Z"/><g id="lake_forest_open_lands_association"><path class="cls-3" d="M1262.38,112.18c31.37.21,63.25,4.73,98.42,4.73,16,0,33.82.17,50.79,1.27,21.28,1.37,44.26-2.36,56.16,8.2,2,1.79,3.8,4.8,5.67,7.57,1.76,2.59,3.94,5.27,5,7.89,6.21,14.73,4.67,35.37,5,56.46-.26-.06-.29.12-.31.31-3.06,5-8.73,7.38-13.25,10.73-32.23,23.86-64.14,45.16-97.47,69.71-17.84,13.14-36.74,27.2-54.58,41-8.64,6.69-18.72,12.56-28.07,19.87-4.09,3.2-8.31,7.18-14.19,9.78-5.43,2.39-11.63,6.68-16.72,7-12.71.66-12.46-8.83-14.83-19.56-.54-2.47-.7-6.09-1.26-9.47s-1.61-7.19-.95-9.14c1.45-4.3,7.7-4.34,13.87-6,15.28-4.08,24.58-11.05,34.38-21.45,5.35-5.68,11.31-12,14.52-17.67,2.35-4.16,4.13-10.1,6-16.08,1.75-5.61,3.72-11.8,4.42-17.68.87-7.3.32-22.24-1.27-29-2-8.74-7.77-17.76-12.3-25.55-11.82-20.29-23.13-38.74-34.7-59.93-1.59-2.93-7-9.69-5.36-12.3A2.29,2.29,0,0,1,1262.38,112.18Z"/><path class="cls-3" d="M1238.71,132.69c-.87,3.62-4,5.89-6.31,8.2s-4.87,4.8-7.25,7.26c-12.67,16.14-27.88,29.74-41,45.42-2.76,7.84-5.88,15.54-8.52,23.66-2.56,7.85-6.7,15.61-8.21,24-1.69,9.42.95,20,.32,30.92.06.25.32.31.32.63,2.63,6.09,6.4,10.56,9.46,15.46,2.86,4.59,5.91,9.74,10.09,14.51,8.69,9.91,21.69,15.86,32.18,24.6,7.7,6.43,11.3,14,13.25,25.87a119,119,0,0,1,1,12.93c.18,4.12.7,9-1.89,12-3.19,1.53-6.57.2-9.15-.95s-5.84-2-7.89-3.47c-2.84-2-5.15-6.78-7.56-10.73-6.82-11.11-15.41-21.62-21.46-32.49-4.12-7.4-8.45-15.17-14.51-21.77-2.55-2.77-5.64-6.19-8.84-9.14-2.91-2.69-6.64-6.7-9.77-8.21-6.67-3.2-20.25-5.28-29.34-6-7.69-.59-19.23,1.58-25.56,3.79s-12.24,6.54-18,10.09c-6,3.76-13,6.66-18.3,10.73s-9.62,10.69-14.18,16.09c-2.3,2.71-4.89,5.31-7,8.2s-3.43,6.95-7.25,7.57c-1.57-6.81-.63-14-.63-21.14,0-20.73-3-41.5-3.78-63.09-.55-14.55-.73-29-1-42.9-.22-14.65-.52-29,.33-42.9.94-15.5,7.83-29.87,18.3-36.59,14.51-9.32,42.87-6.42,65.3-5.35,27.54,1.31,56.28-.89,84.85.63,7.19.39,14.36.46,21.45.63C1225,131.28,1232.13,130.67,1238.71,132.69Z"/><path class="cls-3" d="M1489.19,367.7c-3.49,2.61-8,3-12.3,4.11-12.74,3.16-26.51,6.59-40.38,8.83-9.21,1.48-18.59,3-28.08,4.73-9.27,1.68-18.88,2.43-28.39,4.09-18.24,3.22-36,8.16-55.21,10.41-9.68,1.14-20.29,1.26-31.54,1.27-15.07,0-33.38,1.87-39.12-7.89-.38-5.43-.85-11.29.32-15.14,1.4-4.64,6.53-8.75,10.1-12a101.92,101.92,0,0,1,12.3-9.78c9.64-1.73,24.56-5.88,34.7-3.47,3.18.76,5.61,2.91,8.82,4.42,3,1.42,6.27,2.46,9.15,3.78,5.77,2.66,11.78,6.58,18,8.2s17.7,1.7,25.24,2.52c2.68.3,5.62,1.06,7.88.95,3.61-.19,8.38-2.89,12-4.74,10.95-5.59,22.17-10.79,31.54-17.66,5.94-9.06,11.61-18.94,17.35-29,5.51-9.68,11.57-19.38,15.78-30.29,6.36-16.51,13.31-32.73,18.92-50.15,2.58-8,6.81-14.11,9.14-22.72.68-2.46.48-5.49,1.58-7.25,1.72-2.78,7.34-4.16,10.1-5.37,5.23-2.3,3.31,6.23,3.15,7.57a282.45,282.45,0,0,0-1.57,31.55c0,15.31-1.85,28-3.47,40.69-1.75,13.67-2.13,27.79-3.16,41C1491,340,1491.08,354.83,1489.19,367.7Z"/><path class="cls-3" d="M1236.19,437.73c-4.64,1.51-13.64,1.47-18.61-.31-4.17-1.5-8.15-4.21-12.31-6.31-12-6.09-21.87-14.47-34.38-20.51a229.93,229.93,0,0,0-26.18-10.73c-13.51-4.55-30.34-10.82-47-5.36-6.25,2.05-11.47,6.63-16.71,11-15,12.64-30.06,25.32-42.9,39.75-3,1.73-4.49,6.66-8.83,6-2-3-1.5-7.21-1.58-11-.4-20.49-.3-39.52-1.26-60.57-.15-3.25-.49-7.23-.64-11.67-.12-3.88-1-10.34,1-11a2.23,2.23,0,0,1,.94-.63c16.2,1,32.47,3.5,48.59,5.68,14.64,2,29.6,3.46,44.16,5.68,21.6,3.28,42.89,6.35,64.35,10.4,12.24,2.32,26.5,2.38,32.8,10.41,2.41,3.07,3.32,8.2,5.05,12.3s3.83,8.12,5.37,11.67C1231.53,420.68,1235.93,428.11,1236.19,437.73Z"/><path class="cls-3" d="M1471.84,384.42c3.28-1.08,2.21,7.15,2.21,10.41,0,11.61-.26,23.26,0,36.28.3,15.46,1.76,31.16,2.84,45.74,1.77,23.93,1.21,45.15.31,69.4-.31,8.42,1,18.13-1.26,25.55-.91,3-3,6.06-4.41,9.46-3.88,8.92-11.45,20.38-20.19,24-6,2.45-13.67,1.57-22.09,1.57-8.61,0-16.21-.31-23.66-.63-16.42-.69-33.88-.32-47-.32-15.63,0-31.16-1.26-46.68-1.26-15.87,0-31.62-.82-46.69-1.89-3.66-7.76-3.39-17.71-4.41-27.45-2.07-19.74-5.77-35.61-7.26-56.15-.58-8-.85-24,4.42-26.5,3.28-1.55,8.55.42,12.3,1.9,4.15,1.63,8.29,2.53,11.67,3.78,21.92,8.12,45.22,17.56,67.19,24.92,23.22,7.79,46,15.59,69.08,23.35,3.85,1.28,7.82,2.62,11.67,3.78s7.63,3.58,11.68,2.2c.2-5.81-2.9-11.16-5-16.4q-6.35-15.45-12.94-30.91c-2.19-5.17-3.92-10.61-6.31-15.46-2.94-6-7.29-11.63-11.35-16.71a111.22,111.22,0,0,0-13.89-14.2c-25.12-11.63-56-1.38-81.07,4.11-11.57,2.53-23.16,5.87-31.85,10.72-8.13-.43-12.13,2.86-19.88,4.41-5.25,1.06-13.64,1.72-16.4-1.57s-1-13.51-.32-18.3a117.07,117.07,0,0,1,8.83-31.86c1.87-4.35,4-11.83,6.31-13.88,1.52-1.31,5.88-2.37,8.21-3.15,2.55-.86,6.28-2.41,8.83-2.53,4.31-.19,10.59,1.89,15.15,3.47,13.26,4.61,25.54,12,36.91,18,12.11,6.36,23.86,12.2,37.22,17.66,4.47,1.82,9.34,4.15,13.56,4.73,11.65,1.61,22.44.13,31.54-4.73,5.83-3.11,11.25-9,16.72-13.88s10.56-10.54,15.46-15.14C1452.09,406.73,1461.37,395.36,1471.84,384.42Z"/><path class="cls-3" d="M1220.42,467.38c5.15,13.46,8.48,28.43,12,43.85,1.08,4.78,3.15,9.82,2.21,14.83-3.13,2.47-7.55,1.12-11,1-51.2-2.44-103.44-4.6-153.62-8.2-4-.29-8-.44-12-.64-3.44-.16-7.34-1.51-10.41.64.11,4.65,3.57,8.28,5.68,12.3s4.29,8,6.3,12c4.12,8.17,8.08,16.78,12.94,23.66,4,5.67,12.2,11,18.92,14.82a80.07,80.07,0,0,0,10.42,5.37c4,1.54,8.22,3.47,12.61,4.09a90.29,90.29,0,0,0,12.62.32c6.07-.07,13.28.07,18.93-.63,3.39-.42,7.14-2.59,11-4.1,3.59-1.4,7.13-3.11,10.41-4.41,18.85-7.47,28.54-19.64,45.74-29.34,2.81-1.58,7.95-5,10.09-4.73,2.79.36,4,4.21,5.06,7.57s2.72,6.32,3.47,8.83c2.16,7.33,2.71,14.79,3.78,23,.92,7.08,3.7,15.42,3.15,23-5.53,1.92-11.51.41-17.35.31-6.18-.11-12.46-.64-18.93-.64-37.13,0-77.81,2-112.93,1.9-4,0-8.34-.63-12.62-.63-7.9,0-13.68.08-18.92-2.53a38.82,38.82,0,0,1-10.09-7.57c-5.68-5.67-11.06-9.88-12-19.87-.83-9,.79-19.37,1.27-29.34,1.09-23.15,1.75-48.82,2.84-72.87.2-4.48,0-9.33,1.89-13.25,10.89-.87,20.76,1.64,30,4.1s17.87,5.36,26.5,8.52c17.52,6.43,36,14.67,56.15,14.19,13.34-.31,24.19-8.08,33.76-13.87,3.84-2.33,7.94-4.74,12-7.26C1206.24,468.05,1213.1,460.41,1220.42,467.38Z"/></g></g></g></svg>