<svg xmlns="http://www.w3.org/2000/svg" viewBox="0 0 153.07 102.05"><defs><style>.cls-1{fill:#13322b;}</style></defs><g id="Calque_2" data-name="Calque 2"><g id="Ebene_1" data-name="Ebene 1"><path class="cls-1" d="M152.07,1V101.05H1V1H152.07m1-1H0V102.05H153.07V0Z"/><path class="cls-1" d="M59.61,23.57c1.64.13,2.44.21,4,.4a1,1,0,0,0,1.11-.51c.28-1.08.42-1.62.69-2.7.09-.36.35-.32.57.07.71,1.21,1,1.83,1.72,3.05a2.12,2.12,0,0,0,1.32.89c1.5.31,2,.44,3.86.93.49.13.58.36.21.48-1.11.39-1.69.5-2.83,1a.71.71,0,0,0-.3,1c.62,1.24.91,1.9,1.48,3.22.19.44,0,.49-.4.12a30.41,30.41,0,0,0-3.23-2.44,1.74,1.74,0,0,0-1.48-.26c-1.12.49-1.68.83-2.83,1.34-.37.18-.6,0-.5-.31.29-1.05.44-1.67.73-2.71A1.2,1.2,0,0,0,63.1,26c-1.41-.84-2.13-1.25-3.58-2-.48-.25-.43-.42.09-.38"/><path class="cls-1" d="M43.69,35.22c2-.41,2.55-.51,4.4-.77a1.62,1.62,0,0,0,1.24-.77c.4-1.12.59-1.68,1-2.79.13-.35.4-.37.6,0,.64,1,1,1.57,1.56,2.63a1.57,1.57,0,0,0,1.32.62c1.74-.11,2.14-.21,3.9-.29.5,0,.57.17.21.4-1.35.88-1.76,1.23-3,2a.79.79,0,0,0-.38,1c.58,1.08.87,1.63,1.43,2.76.19.37,0,.47-.45.22a33.78,33.78,0,0,0-3.34-1.7,1.87,1.87,0,0,0-1.57.07c-1.27.76-1.69,1-3.39,2.09-.47.3-.7.25-.52-.2.55-1.41.74-1.75,1.19-2.88.15-.36-.14-.8-.62-.95a33.18,33.18,0,0,0-3.75-1c-.5-.1-.43-.3.15-.43"/><path class="cls-1" d="M35.28,50a42.44,42.44,0,0,1,4.29-.18A2,2,0,0,0,41,49.14l2.06-2.8c.27-.36.52-.34.57,0,.16,1.17.23,1.75.36,2.94a1.08,1.08,0,0,0,1,.79c1.68.23,1.94.28,3.63.59.46.09.47.29,0,.44-1.35.45-2,.7-3.46,1.24a1.32,1.32,0,0,0-.86,1.05c0,1.19,0,1.8,0,3,0,.4-.25.49-.54.2-.9-.86-1.36-1.28-2.32-2.08a1.62,1.62,0,0,0-1.5-.08c-1.55.67-2.34,1-3.93,1.78-.53.24-.71.14-.4-.25L38,53.09a.72.72,0,0,0-.1-1.1A26.06,26.06,0,0,0,35,50.41c-.4-.18-.24-.37.33-.42"/><path class="cls-1" d="M63.85,69.68a34,34,0,0,0-3.05,2A1.43,1.43,0,0,0,60.25,73c.31,1.4.46,2.12.76,3.61.09.49-.12.65-.47.35-1.06-.91-1.6-1.35-2.67-2.19a1.19,1.19,0,0,0-1.4.08c-1.26,1-1.9,1.47-3.18,2.51-.42.34-.6.2-.4-.3.6-1.54.9-2.28,1.49-3.73A1.13,1.13,0,0,0,54.07,72c-1.12-.75-1.68-1.11-2.82-1.79-.37-.22-.27-.45.21-.52,1.5-.19,2.24-.26,3.72-.38a1.56,1.56,0,0,0,1.2-.87c.56-1.38.84-2,1.38-3.35.17-.42.41-.43.52,0,.34,1.26.51,1.9.85,3.22a1.08,1.08,0,0,0,1,.76,21.06,21.06,0,0,1,3.56.11c.46,0,.5.28.12.49"/><path class="cls-1" d="M83.06,71.85c-1,.34-1.54.52-2.58.89a.76.76,0,0,0-.35,1c.45,1.26.69,1.89,1.17,3.16.16.42,0,.5-.39.17-1.13-1-1.68-1.51-2.77-2.54a1.35,1.35,0,0,0-1.29-.35c-1.06.44-1.59.68-2.68,1.19-.36.16-.54,0-.41-.39l1-2.8a1.36,1.36,0,0,0-.4-1.27l-2.64-2.66c-.34-.34-.27-.52.15-.39l3.26,1a.77.77,0,0,0,1-.36L77.07,66c.12-.32.32-.25.46.16.41,1.26.63,1.89,1.06,3.16a1.76,1.76,0,0,0,1,1l3.27,1.06c.43.14.51.34.18.45"/><path class="cls-1" d="M100.29,66.76c-1.15.44-1.68.67-2.79,1.1a.69.69,0,0,0-.3,1c.59,1.22.89,1.83,1.51,3,.21.39,0,.47-.41.17a29.39,29.39,0,0,1-3.18-2.51,1.66,1.66,0,0,0-1.37-.46l-2.64.84c-.35.12-.55-.07-.45-.42.32-1,.47-1.55.79-2.57a1.5,1.5,0,0,0-.51-1.28c-1.19-1.16-1.78-1.76-2.93-2.93-.38-.38-.32-.54.12-.36,1.37.56,2.06.83,3.44,1.36.45.18.91.05,1-.27.33-1,.5-1.53.85-2.53.11-.33.33-.24.5.18.5,1.32.77,2,1.3,3.3a2.18,2.18,0,0,0,1.17,1.06,26.49,26.49,0,0,0,3.67.87c.49.09.58.28.21.43"/><path class="cls-1" d="M111.54,55.31c-1.1.76-1.64,1.12-2.7,1.77a.78.78,0,0,0-.34,1c.48,1,.72,1.45,1.21,2.38.17.31,0,.4-.38.2-1.12-.6-1.67-.93-2.76-1.63a1.46,1.46,0,0,0-1.24-.16c-1,.45-1.46.66-2.42,1.07-.32.13-.49,0-.39-.29.31-.89.46-1.34.79-2.24a1,1,0,0,0-.44-1c-1-.83-1.55-1.31-2.57-2.2-.33-.29-.28-.44.12-.35,1.23.3,1.85.44,3.11.65a.86.86,0,0,0,1-.49c.35-1.05.53-1.58.89-2.68.13-.35.33-.33.47,0,.42,1.16.65,1.74,1.08,2.88a1.27,1.27,0,0,0,1,.73,27.62,27.62,0,0,0,3.4,0c.44,0,.52.16.17.41"/><path class="cls-1" d="M120.66,38c-1,1.11-1.58,1.65-2.63,2.7a1.28,1.28,0,0,0-.41,1.16c.36.93.54,1.38.92,2.27.12.28-.05.46-.39.38a20.48,20.48,0,0,1-2.49-.75,1.29,1.29,0,0,0-1.17.35c-1,.92-1.54,1.38-2.47,2.2-.31.27-.46.19-.35-.16.33-1.1.6-1.69,1-2.84a.78.78,0,0,0-.31-1c-.93-.46-1.39-.71-2.29-1.24-.29-.17-.23-.36.15-.42,1.16-.19,1.75-.3,3-.58a1.61,1.61,0,0,0,1-.9l1.08-3.11c.14-.41.34-.47.44-.13.3,1,.46,1.56.78,2.56a.71.71,0,0,0,.93.34c1.25-.43,1.88-.67,3.16-1.21.42-.17.48,0,.13.33"/><path class="cls-1" d="M100.82,26.54a19.32,19.32,0,0,0,2.76,0,1,1,0,0,0,.85-.72c.32-1.19.48-1.81.8-3.09.11-.41.29-.43.41-.05.38,1.19.56,1.75.94,2.87a.94.94,0,0,0,.89.58c1,0,1.65,0,2.92-.09.38,0,.46.13.13.39-.92.73-1.4,1-2.31,1.7a1.08,1.08,0,0,0-.31,1.1c.38,1,.57,1.52,1,2.5.13.33,0,.45-.33.29-.93-.51-1.39-.77-2.31-1.31a1,1,0,0,0-1.08.1c-.86.72-1.28,1.07-2.13,1.72-.27.21-.42.09-.33-.24.27-1,.41-1.49.7-2.57a1,1,0,0,0-.38-1c-.94-.68-1.38-1.06-2.29-1.82-.3-.25-.25-.43.11-.39"/><path class="cls-1" d="M80.8,22.68c1.27.36,1.91.54,3.16.91a.74.74,0,0,0,.94-.37c.35-1,.52-1.52.88-2.59.11-.33.32-.29.46.12.43,1.26.64,1.89,1.05,3.13a1.64,1.64,0,0,0,1,.95l3.14.9c.41.12.47.32.14.46-1,.43-1.53.62-2.53,1a.75.75,0,0,0-.36.93l.94,3c.12.39,0,.44-.35.12-1-1-1.44-1.47-2.42-2.45a1.27,1.27,0,0,0-1.16-.39c-1,.32-1.41.47-2.34.76-.31.1-.48-.07-.37-.36.31-.89.47-1.33.79-2.26a1.22,1.22,0,0,0-.41-1.12c-1-1-1.57-1.45-2.65-2.38-.35-.31-.3-.46.11-.34"/><path class="cls-1" d="M130.56,21.92l-2.4,2.19a1,1,0,0,0-.39,1c.34.76.51,1.12.89,1.82.12.22,0,.38-.38.34a24.31,24.31,0,0,1-2.44-.38,1.62,1.62,0,0,0-1.19.45c-1,1-1.55,1.43-2.61,2.38-.34.31-.5.27-.35-.09l1.15-2.74a.59.59,0,0,0-.28-.83,23,23,0,0,1-2.29-.81c-.3-.12-.22-.3.18-.42,1.2-.34,1.8-.52,3-.9a1.77,1.77,0,0,0,1-.88c.45-1.13.68-1.69,1.13-2.81.15-.37.34-.42.42-.11.26.91.39,1.35.68,2.21a.69.69,0,0,0,.87.27l2.89-1c.37-.12.43,0,.13.27"/><path class="cls-1" d="M89.73,41.94c.68-.18.77-.52,0-.48-1.37.07-17.31,3.74-31.13,11.8C43.55,62,39,66.39,35.8,68.88c-.85.66-1.48.67-1.63.27-.51-1.37-.83-2.15-1.25-3.43-.13-.39-.5-.35-.66.2-.57,1.86-.84,3-1.38,4.66a3,3,0,0,1-1.36,1.82c-2,1.38-2.38,1.64-3.61,2.48-.45.31-.68.64.21.8l2.18.4c.93.17.62.8.49,1.34-.38,1.55-.54,2.18-1,3.78-.17.52.05.59.48.14l3.12-3.28c.53-.54,1-1.17,1.56-1.07l3.42.65c.84.16.84-.23.62-.78-.66-1.61-.54-1.4-1-2.77a1.73,1.73,0,0,1,.31-1.72C44.15,64.66,47.43,62.14,58.31,55,66.84,49.48,78.17,45.06,89.73,41.94Z"/></g></g></svg>