<svg xmlns="http://www.w3.org/2000/svg" viewBox="0 0 794.74 118.42"><defs><style>.cls-1,.cls-4,.cls-6{fill:#fff;}.cls-1,.cls-6{stroke:#13322b;}.cls-1,.cls-2,.cls-6{stroke-miterlimit:10;}.cls-2,.cls-5{fill:#13322b;}.cls-2{stroke:#fff;}.cls-3{fill:#f5f5f5;}.cls-6{stroke-width:2px;}.cls-7{fill:#b2d0a5;}</style></defs><g id="Calque_2" data-name="Calque 2"><g id="Calque_1-2" data-name="Calque 1"><rect class="cls-1" x="0.5" y="16.02" width="149.97" height="90" rx="2.98"/><path class="cls-2" d="M794.21.57c-83-1.18-107,12.71-107,12.71l-5.29,70.28h106Z"/><polygon class="cls-2" points="680.25 105.5 786.28 105.5 787.81 85.27 681.78 85.27 680.25 105.5"/><path class="cls-3" d="M715,79.62h-.27c-1.79,0-3.33-1.33-3.12-4.43s2-4.43,3.74-4.43,3.34,1.34,3.12,4.43c-.15,2.13-1,3.43-2.12,4L718,81.14h-1.81Zm-.18-1.21c1,0,1.86-.85,2-3.22S716.31,72,715.31,72s-1.86.85-2,3.22.58,3.22,1.58,3.22"/><path class="cls-3" d="M726.47,78.45a9.61,9.61,0,0,0,0,1H725c0-.33,0-.66,0-1h0a2,2,0,0,1-1.76,1.07c-1.44,0-1.8-1.07-1.71-2.35l.28-4.1h1.53L723.09,77c-.07,1,.17,1.38.81,1.38.82,0,1.1-.74,1.16-1.56l.26-3.64h1.53Z"/><path class="cls-3" d="M730.42,73.51a4.79,4.79,0,0,1,2-.46c2,0,2.37,1,2.26,2.55l-.2,2.77a8.06,8.06,0,0,0,0,1.13h-1.38a3.09,3.09,0,0,1,0-.87h0a2.21,2.21,0,0,1-1.85,1,1.67,1.67,0,0,1-1.76-1.86C729.6,76,731,75.57,733,75.57h.31v-.23a1,1,0,0,0-1.1-1.21,3.1,3.1,0,0,0-1.78.62Zm2.81,2.88h-.13c-1.31,0-2.11.27-2.17,1.19a.85.85,0,0,0,.9,1c.92,0,1.3-.68,1.38-1.82Z"/><polygon class="cls-3" points="738.57 70.25 740.1 70.25 739.45 79.5 737.92 79.5 738.57 70.25"/><path class="cls-3" d="M743.48,73.14H745l-.45,6.36H743Zm.17-2.7h1.58L745.12,72h-1.57Z"/><path class="cls-3" d="M749.12,71.84l1.56-.47-.13,1.77h1.27l-.07,1.13h-1.27l-.24,3.29c0,.68.19.88.64.88a1.22,1.22,0,0,0,.58-.14l-.07,1.09a2.48,2.48,0,0,1-1,.2c-1.14,0-1.74-.51-1.65-1.85l.25-3.47h-1l.08-1.13h1Z"/><path class="cls-3" d="M759,79.19a5.06,5.06,0,0,1-1.93.4c-2,0-2.83-1.46-2.71-3.18.13-1.9,1.23-3.36,2.85-3.36,1.37,0,2.49.8,2.31,3.39l0,.29h-3.67c-.08,1.09.31,1.74,1.49,1.74A2.68,2.68,0,0,0,759,78ZM758,75.77c.08-1.12-.25-1.69-.94-1.69s-1.2.85-1.25,1.69Zm-.69-5.1h1.43l-1.38,1.77h-1Z"/><path class="cls-3" d="M686.48,97.12h-1.89l-.51,1.37h-1.67L685,92h1.91l1.6,6.46h-1.79Zm-.62-3.78h0L685,95.88h1.28Z"/><polygon class="cls-3" points="689.73 92.03 693.54 92.03 693.45 93.31 691.34 93.31 691.25 94.62 693.26 94.62 693.18 95.9 691.16 95.9 690.98 98.48 689.28 98.48 689.73 92.03"/><polygon class="cls-3" points="695.87 94.01 695.83 94.01 695.52 98.49 694 98.49 694.45 92.03 696.47 92.03 697.85 96.48 697.87 96.48 698.18 92.03 699.7 92.03 699.25 98.49 697.21 98.49 695.87 94.01"/><path class="cls-3" d="M706.52,91.92c1.4,0,2.8.94,2.63,3.34s-1.7,3.34-3.1,3.34-2.8-.95-2.64-3.34,1.7-3.34,3.11-3.34m-.4,5.44h0c.73,0,1.14-.83,1.23-2.1s-.21-2.1-.94-2.1-1.15.84-1.24,2.1.21,2.1.94,2.1"/><path class="cls-3" d="M712.73,96.66c-.13-.63-.41-.7-.69-.7H712l-.18,2.52H710l.45-6.45h2.58c1.3,0,2,.55,1.92,1.74a1.61,1.61,0,0,1-1.34,1.48v0c.37.12.6.29.79,1.19l.44,2h-1.79Zm-.26-1.94a.75.75,0,0,0,.76-.69.62.62,0,0,0-.68-.76h-.49l-.1,1.45Z"/><path class="cls-3" d="M723,98.35a6,6,0,0,1-1.61.25c-1.88,0-3.14-1.12-3-3.39a3.26,3.26,0,0,1,3.44-3.29,3.72,3.72,0,0,1,1.54.3l-.19,1.42a2.55,2.55,0,0,0-1.23-.37c-1.12,0-1.68.72-1.77,2-.08,1.11.47,2,1.56,2a2.49,2.49,0,0,0,1.27-.36Z"/><polygon class="cls-3" points="724.44 92.03 728.4 92.03 728.31 93.31 726.05 93.31 725.97 94.55 728.11 94.55 728.02 95.82 725.88 95.82 725.78 97.21 728.16 97.21 728.07 98.48 723.99 98.48 724.44 92.03"/><path class="cls-3" d="M731.78,96.66c-.12-.63-.4-.7-.68-.7H731l-.18,2.52h-1.74l.46-6.45h2.58c1.3,0,2,.55,1.92,1.74a1.61,1.61,0,0,1-1.34,1.48v0c.37.12.59.29.79,1.19l.44,2h-1.79Zm-.25-1.94a.75.75,0,0,0,.76-.69.63.63,0,0,0-.69-.76h-.48l-.1,1.45Z"/><polygon class="cls-3" points="736.19 93.34 734.8 93.34 734.89 92.03 739.41 92.03 739.32 93.34 737.93 93.34 737.57 98.49 735.83 98.49 736.19 93.34"/><polygon class="cls-3" points="740.27 92.03 742.01 92.03 741.56 98.48 739.82 98.48 740.27 92.03"/><polygon class="cls-3" points="743.31 92.03 747.13 92.03 747.03 93.31 744.93 93.31 744.83 94.62 746.85 94.62 746.76 95.9 744.74 95.9 744.56 98.48 742.86 98.48 743.31 92.03"/><polygon class="cls-3" points="748.08 92.03 749.82 92.03 749.36 98.48 747.63 98.48 748.08 92.03"/><path class="cls-3" d="M755.3,98.35a6,6,0,0,1-1.61.25c-1.88,0-3.15-1.12-3-3.39a3.27,3.27,0,0,1,3.44-3.29,3.79,3.79,0,0,1,1.55.3l-.2,1.42a2.48,2.48,0,0,0-1.23-.37c-1.11,0-1.68.72-1.77,2-.07,1.11.48,2,1.57,2a2.49,2.49,0,0,0,1.27-.36Z"/><path class="cls-3" d="M759.81,97.12h-1.89l-.52,1.37h-1.66l2.6-6.46h1.91l1.6,6.46h-1.79Zm-.62-3.78h0l-.87,2.54h1.28Z"/><polygon class="cls-3" points="763.57 93.34 762.18 93.34 762.27 92.03 766.78 92.03 766.69 93.34 765.3 93.34 764.94 98.49 763.21 98.49 763.57 93.34"/><polygon class="cls-3" points="767.64 92.03 769.38 92.03 768.93 98.48 767.19 98.48 767.64 92.03"/><path class="cls-3" d="M773.37,91.92c1.41,0,2.8.94,2.63,3.34s-1.69,3.34-3.1,3.34-2.8-.95-2.63-3.34,1.69-3.34,3.1-3.34m-.4,5.44h0c.73,0,1.14-.83,1.23-2.1s-.2-2.1-.94-2.1-1.15.84-1.23,2.1.2,2.1.93,2.1"/><polygon class="cls-3" points="778.72 94.01 778.68 94.01 778.37 98.49 776.85 98.49 777.3 92.03 779.32 92.03 780.7 96.48 780.72 96.48 781.03 92.03 782.55 92.03 782.1 98.49 780.06 98.49 778.72 94.01"/><path class="cls-4" d="M711.71,18.66c-2-.76-4.63-1.14-10-1.13H697a2.82,2.82,0,0,0,1.68,2.52h2.9a16.7,16.7,0,0,1,5.45.61c1.24.4,1.81,1.12,1.72,2.23l0,.61c-6.62,1.6-12.5,3.45-15.51,5.33a4.7,4.7,0,0,0-2.74,3.92c-.21,1.94.65,3.61,3.24,4.56,2.39.91,5.31,1.12,9.48,1.12l3.5,0a14.43,14.43,0,0,0,4-.62c2.76-.95,3.34-3.07,3.5-5L715,22.12c-.21-1.55-1.28-2.69-3.32-3.46m-4,17.21h-5.64a14.31,14.31,0,0,1-3.7-.57,2.07,2.07,0,0,1-1.7-1.91,4.15,4.15,0,0,1,.71-2.7c1.13-1.44,4.39-2.51,4.39-2.51a48.4,48.4,0,0,1,6.71-1.88Z"/><path class="cls-4" d="M754.51,19.14a11.68,11.68,0,0,0-2.9-.64c-7.61-1-15.85.15-23.88,1.47l.3-3.83c.1-1.11.3-1.83,1.6-2.24a19.5,19.5,0,0,1,5.49-.6h5.4a2.72,2.72,0,0,0,1.6-2.52H735c-4.17,0-6.63.22-9.17,1.12-2.75.95-3.85,2.59-4,4.48l-.38,4.71c-.87.16-1.92.32-2.79.53a3.11,3.11,0,0,0-1.1,3h0c1.19-.24,2.52-.47,3.66-.69l-1.07,14.23h6.23l1.16-15.28c5-1,15.59-2.85,21.3-2a7.13,7.13,0,0,1,1,.27,2.07,2.07,0,0,1,1.72,2.23l-.06.13C744.88,25.1,739,27,736,28.83a4.7,4.7,0,0,0-2.74,3.92c-.21,1.94.65,3.61,3.24,4.56,2.38.91,5.31,1.12,9.48,1.12l3.49,0a14.5,14.5,0,0,0,4-.62c2.76-.95,3.33-3.07,3.49-5l.84-10.23c-.21-1.55-1.28-2.69-3.33-3.46m-4,16.73h-5.64a14.15,14.15,0,0,1-3.69-.57c-1.11-.36-1.68-1-1.71-1.91a4.15,4.15,0,0,1,.71-2.7c1.13-1.44,4.39-2.51,4.39-2.51a48.63,48.63,0,0,1,6.7-1.88Z"/><path class="cls-4" d="M781.53,23.56l-.8,9.6a2.6,2.6,0,0,1-2.13,2.25,17.79,17.79,0,0,1-4.81.6,16.63,16.63,0,0,1-4.7-.6,2.06,2.06,0,0,1-1.7-2.25l.81-9.6a2.61,2.61,0,0,1,2.12-2.26,18.26,18.26,0,0,1,4.81-.6,17.08,17.08,0,0,1,4.71.6,2.05,2.05,0,0,1,1.69,2.26m3-4.27c-2.26-.85-5-1.09-8.81-1.12H775c-3.82,0-6.62.26-9,1.12-2.77,1-3.89,2.61-4.05,4.5l-.78,9.13c-.16,1.91.65,3.55,3.26,4.5a20.1,20.1,0,0,0,6.27,1.07c0,.25,0,0,0,.28-.17,2.21,2.17,4.45,5.84,4.45h6.85a3.21,3.21,0,0,0,3-2.4h-5.43c-4.51,0-4-2.35-4-2.35a20.65,20.65,0,0,0,6.07-1c2.77-1,3.94-2.59,4.1-4.5l.71-9.13c.16-1.89-.63-3.54-3.24-4.5"/><polygon class="cls-4" points="688.08 64.64 784.67 64.64 786.09 45.71 689.49 45.71 688.08 64.64"/><polygon class="cls-5" points="693.44 49.65 696.37 49.65 695.6 60.66 692.67 60.66 693.44 49.65"/><path class="cls-5" d="M703.08,57.94a6.17,6.17,0,0,0,3,.73c.93,0,1.83-.19,1.89-1.07.14-2.05-5.15-.76-4.87-4.76.18-2.65,2.82-3.38,5-3.38a9,9,0,0,1,2.8.41l-.34,2.27a5.82,5.82,0,0,0-2.41-.5c-.74,0-2,.06-2,1-.13,1.78,5.16.59,4.88,4.56-.2,2.85-2.65,3.62-5.09,3.62a11.06,11.06,0,0,1-3.25-.47Z"/><path class="cls-5" d="M720.59,49.46c3.62,0,5.36,2.16,5.12,5.69s-2.32,5.69-5.92,5.69-5.36-2.19-5.12-5.69,2.29-5.69,5.92-5.69M720,58.67c1.78,0,2.61-1.7,2.73-3.52s-.46-3.51-2.24-3.51-2.61,1.61-2.74,3.51.47,3.52,2.25,3.52"/><path class="cls-5" d="M736.81,58.18a4,4,0,0,0,2.28.58c1.95,0,2.64-1.29,2.79-3.23h0a2.87,2.87,0,0,1-2.45,1.12,3,3,0,0,1-3.06-3.47,4.22,4.22,0,0,1,4.39-3.72c3.14,0,4.06,2.46,3.86,5.22-.23,3.38-1.64,6.16-5.28,6.16a7.25,7.25,0,0,1-2.82-.5Zm3.81-6.82a1.53,1.53,0,0,0-1.52,1.56c-.06.91.26,1.75,1.28,1.75A1.59,1.59,0,0,0,741.93,53c.07-.9-.37-1.68-1.31-1.68"/><path class="cls-5" d="M748,55.16c.21-2.86,1-5.7,4.67-5.7s4.08,2.84,3.88,5.7-1,5.68-4.67,5.68S747.77,58,748,55.16m5.71,0c.12-1.75.15-3.71-1.18-3.71s-1.57,2-1.69,3.71-.15,3.7,1.18,3.7,1.57-2,1.69-3.7"/><path class="cls-5" d="M759.82,55.16c.2-2.86,1-5.7,4.67-5.7s4.07,2.84,3.87,5.7-1,5.68-4.67,5.68-4.07-2.83-3.87-5.68m5.7,0c.13-1.75.15-3.71-1.17-3.71s-1.57,2-1.69,3.71-.15,3.7,1.17,3.7,1.57-2,1.69-3.7"/><polygon class="cls-5" points="775.71 52.59 773.53 54.07 772.36 52.08 776.26 49.65 778.85 49.65 778.08 60.66 775.15 60.66 775.71 52.59"/><polygon class="cls-4" points="681.44 83.56 681.31 85.27 788.25 85.27 788.38 83.56 681.44 83.56"/><path class="cls-5" d="M68.92,87.46h-2.7V81.11H75.4v20.74H68.92Z"/><path class="cls-5" d="M87.1,101.85V97.68H79.37V92.2l6.78-11.28h7.13V92.2h2v5.48h-2v4.17ZM85,92.2h2.58V89.38c0-.56,0-1,0-1.38s0-.68.09-1a8.73,8.73,0,0,1-.45,1.12c-.18.38-.44.87-.78,1.48Z"/><path class="cls-5" d="M97.74,91.54q0-5,2.07-7.94a7.08,7.08,0,0,1,11.4,0c1.37,1.91,2.06,4.57,2.06,8s-.69,6-2.06,8a7,7,0,0,1-11.39,0A13.46,13.46,0,0,1,97.74,91.54Zm6.31,0a11.12,11.12,0,0,0,.35,3.31q.34,1.05,1.11,1.05c.5,0,.87-.35,1.1-1a11.4,11.4,0,0,0,.35-3.32,11.46,11.46,0,0,0-.35-3.31c-.23-.69-.6-1-1.1-1s-.89.34-1.12,1A11.43,11.43,0,0,0,104.05,91.54Z"/><path class="cls-5" d="M116,91.54q0-5,2.08-7.94a7.07,7.07,0,0,1,11.39,0c1.38,1.91,2.06,4.57,2.06,8s-.68,6-2.06,8a7,7,0,0,1-11.38,0A13.46,13.46,0,0,1,116,91.54Zm6.31,0a11.46,11.46,0,0,0,.35,3.31q.36,1.05,1.11,1.05c.51,0,.87-.35,1.11-1a11.48,11.48,0,0,0,.34-3.32,11.54,11.54,0,0,0-.34-3.31c-.24-.69-.6-1-1.11-1s-.88.34-1.11,1A11.35,11.35,0,0,0,122.35,91.54Z"/><path class="cls-5" d="M137.09,87.46h-2.7V81.11h9.18v20.74h-6.48Z"/><path class="cls-5" d="M4.89,55c-.77-1.31-1.45-2.5-2-3.54V56c.47-.21.9-.43,1.29-.64ZM22.36,43.9c3,.34,5.83.77,8.37,1.25-1.49-1.34-3.21-2.81-5.19-4.43C24.55,41.78,23.47,42.84,22.36,43.9ZM9.05,30.56a39.91,39.91,0,0,0-6.21-1.79v4.78l1.24,1.26A25.52,25.52,0,0,0,9.05,30.56ZM5.51,36.32c1.88,2,4,4.38,6.06,6.89,2.83,0,5.54.19,8.1.42h0c1.52-1.38,3-2.79,4.3-4.19l-2.24-1.75A50.15,50.15,0,0,0,11,31.36,26,26,0,0,1,5.51,36.32ZM2.84,72.88v1.79l1-.32C3.46,73.87,3.16,73.37,2.84,72.88Zm11.71-2.82,0,0c-3.1-4.35-6.16-9.24-8.64-13.38-.29.18-.57.34-.82.48-.65.35-1.44.72-2.27,1.08V69c.93,1.57,1.9,3.14,3,4.64C8.2,72.76,11.24,71.56,14.55,70.06ZM9.35,81a47.32,47.32,0,0,1-4.28-5l-2.23.75v11a51.65,51.65,0,0,0,11.33-2.33C12.67,84.22,11.07,82.77,9.35,81Zm2.3,9.27a40,40,0,0,0,8-.79C18.53,88.83,17.35,88,16.07,87A51.85,51.85,0,0,1,4.66,89.69,40.2,40.2,0,0,0,11.65,90.31ZM30.06,29.67c-.6-.39-1.2-.78-1.83-1.17a32.9,32.9,0,0,0-14.15-4.41,8.68,8.68,0,0,1-.31,2.1,12.62,12.62,0,0,1-1.51,3.45A52.51,52.51,0,0,1,23,36.06q1.25,1,2.37,1.86c2.35-2.67,4.05-5.21,4.53-7.24C29.93,30.33,30,30,30.06,29.67ZM10.79,79.6a73.14,73.14,0,0,0,5.62,5.09,43.6,43.6,0,0,0,7.73-3.87,29,29,0,0,1-2.88-2.52,60.13,60.13,0,0,1-5.45-6.51h0c-3.26,1.49-6.29,2.68-8.73,3.58A45.63,45.63,0,0,0,10.79,79.6Zm1.82-59.34A4.51,4.51,0,0,1,13.75,22a35.3,35.3,0,0,1,15.54,4.79l1.13.72a25,25,0,0,0,.17-5,39.38,39.38,0,0,0-14.82-4.57H7.42c-1.15.12-2.29.29-3.4.5C7.69,18.16,10.84,18.58,12.61,20.26Zm-1.33,1.57s0-.06-.07-.09C9.88,20.48,7,20.12,2.84,20.62v1.67A52.69,52.69,0,0,1,11.28,21.83Zm.52,3.84A6.64,6.64,0,0,0,12,24a51.89,51.89,0,0,0-9.19.43v2.28a41.15,41.15,0,0,1,7.52,2.17A10.86,10.86,0,0,0,11.8,25.67ZM8.89,43.19c-1.77-2.08-3.54-4-5.13-5.73L2.84,38V43.4q3.11-.18,6.06-.21Zm23.8-19.46a29,29,0,0,1-.38,5A61.16,61.16,0,0,1,44.24,38.91c.19-1.15.31-2.21.39-3.2A37.43,37.43,0,0,0,32.69,23.73Zm-.85,7.41c-.56,2.36-2.41,5.17-4.93,8.06,3.2,2.61,5.72,4.87,7.69,6.77,3,.68,5.42,1.37,7.29,2a17.27,17.27,0,0,0,.91-2.49c.38-1.39.69-2.69,1-3.92A56.21,56.21,0,0,0,31.89,30.89C31.87,31,31.86,31.06,31.84,31.14Zm-.59,54h0a38.91,38.91,0,0,1-5.36-3,45.22,45.22,0,0,1-7.59,4.05,39.29,39.29,0,0,0,4.13,2.68A39,39,0,0,0,31.25,85.14ZM44.77,46a22.17,22.17,0,0,1-.92,2.59l-.3-.11,1.36.48a20.55,20.55,0,0,1,2.47,1.15c0-.68.08-1.37.08-2.08V46.87c-.63-1.09-1.33-2.17-2.09-3.23C45.19,44.4,45,45.18,44.77,46Zm2.69-4.67c-.34-.87-.72-1.72-1.13-2.55-.11.7-.23,1.43-.38,2.2.53.67,1,1.36,1.51,2.06Z"/><path class="cls-5" d="M128,39h-.94v1.28h1a1.37,1.37,0,0,0,.72-.14.58.58,0,0,0,.2-.49.61.61,0,0,0-.2-.51A1.5,1.5,0,0,0,128,39Zm13.56.07H141v3.38h.59a1.47,1.47,0,0,0,1.14-.37A2.05,2.05,0,0,0,143,40.8a2.09,2.09,0,0,0-.32-1.31A1.38,1.38,0,0,0,141.6,39.1ZM83.16,39h-.94v1.28h1a1.35,1.35,0,0,0,.72-.14.58.58,0,0,0,.2-.49.61.61,0,0,0-.2-.51A1.5,1.5,0,0,0,83.16,39Zm53.06,16.45a4.9,4.9,0,0,0-4.29-1.92,5,5,0,0,0-4.33,1.93q-1.38,1.93-1.38,6.08t1.38,6.07a5,5,0,0,0,4.33,1.93,4.9,4.9,0,0,0,4.29-1.92c.91-1.29,1.36-3.31,1.36-6.08S137.13,56.77,136.22,55.48ZM55.77,18A53.93,53.93,0,0,1,69.53,54.12a54.19,54.19,0,0,1-4.64,22H80.45V47H90V76.1h8.38a11.9,11.9,0,0,1-3.5-1.78,9.85,9.85,0,0,1-3.8-7.3h9.1a3.75,3.75,0,0,0,1.35,2.29,5.15,5.15,0,0,0,2.94.69,5,5,0,0,0,2.57-.57,1.73,1.73,0,0,0,.93-1.55q0-1.57-3.91-2.57l-1.2-.3q-3.22-.83-5.13-1.51a13.12,13.12,0,0,1-2.78-1.27,7.94,7.94,0,0,1-2.52-2.89,8.43,8.43,0,0,1-.84-3.83,8.05,8.05,0,0,1,3.26-6.79q3.25-2.47,9-2.47c3.74,0,6.68.78,8.83,2.36a9,9,0,0,1,3.63,6.77h-8.86a2.79,2.79,0,0,0-1.13-1.92,4.63,4.63,0,0,0-2.62-.63,4,4,0,0,0-2.23.5,1.68,1.68,0,0,0-.73,1.5c0,1,1.27,1.76,3.83,2.41l.51.14,1.68.41c3.38.86,5.59,1.63,6.63,2.33A8.38,8.38,0,0,1,116.15,63a8,8,0,0,1,.89,3.87,8.82,8.82,0,0,1-3.37,7.41,11.54,11.54,0,0,1-3.58,1.78h16.26a13.23,13.23,0,0,1-5.51-3.31q-4.05-4.12-4.06-11.21t4.06-11.22q4.06-4.11,11.08-4.11t11,4.11Q147,54.46,147,61.58T143,72.79a13.1,13.1,0,0,1-5.49,3.31H148.3V18ZM86.42,44.2H84.2c0-.16-.07-.3-.09-.43a1.58,1.58,0,0,1,0-.28v-.68a1.08,1.08,0,0,0-.21-.75,1,1,0,0,0-.73-.21h-.93V44.2H80.05V37.38h3.27a3.9,3.9,0,0,1,2.19.46,1.68,1.68,0,0,1,.66,1.5,1.87,1.87,0,0,1-.27,1,1.85,1.85,0,0,1-.83.65,1.3,1.3,0,0,1,.83.48,1.82,1.82,0,0,1,.28,1l0,1v0c0,.27.08.42.2.43Zm6.47,0H87.3V37.38h5.45V39H89.49v.91h2.76v1.57H89.49v1h3.4Zm7.51,0H99l-.11-.59a2.24,2.24,0,0,1-.89.59,3.51,3.51,0,0,1-1.22.19,2.91,2.91,0,0,1-2.31-1,3.86,3.86,0,0,1-.84-2.63,3.27,3.27,0,0,1,3.58-3.6,3.34,3.34,0,0,1,2.15.66,2.82,2.82,0,0,1,1,1.87H98.24a1.21,1.21,0,0,0-.41-.62,1.13,1.13,0,0,0-.69-.21,1.07,1.07,0,0,0-1,.5,2.8,2.8,0,0,0-.33,1.51,2.36,2.36,0,0,0,.33,1.38,1.14,1.14,0,0,0,1,.46,1.4,1.4,0,0,0,.81-.22.91.91,0,0,0,.42-.61h-1V40.46h3Zm3.52,0h-2.24V37.38h2.24Zm6.32-.41a3.66,3.66,0,0,1-2.26.6,3.53,3.53,0,0,1-2.16-.6,2.37,2.37,0,0,1-.89-1.71h2.13a.88.88,0,0,0,.32.53,1.23,1.23,0,0,0,.7.16,1.2,1.2,0,0,0,.61-.13.42.42,0,0,0,.22-.36c0-.25-.31-.45-.93-.61l-.28-.07c-.51-.13-.91-.24-1.21-.35a3.74,3.74,0,0,1-.65-.3,1.82,1.82,0,0,1-.59-.68,2,2,0,0,1-.2-.89,1.9,1.9,0,0,1,.77-1.6,3.38,3.38,0,0,1,2.1-.58,3.47,3.47,0,0,1,2.08.56,2.1,2.1,0,0,1,.85,1.58h-2.08a.69.69,0,0,0-.27-.45,1.15,1.15,0,0,0-.61-.14,1,1,0,0,0-.53.11.41.41,0,0,0-.17.35q0,.34.9.57l.12,0,.4.1a5.93,5.93,0,0,1,1.55.54,2,2,0,0,1,.67.69,1.88,1.88,0,0,1,.21.91A2.08,2.08,0,0,1,110.24,43.79Zm7.38-4.61h-2v5h-2.19v-5h-2v-1.8h6.13Zm6.29,5h-5.59V37.38h5.45V39h-3.26v.91h2.76v1.57h-2.76v1h3.4Zm7.39,0h-2.22c0-.16-.07-.3-.09-.43a1.58,1.58,0,0,1,0-.28v-.68a1.14,1.14,0,0,0-.21-.75,1,1,0,0,0-.73-.21h-.93V44.2h-2.17V37.38h3.27a3.92,3.92,0,0,1,2.19.46,1.68,1.68,0,0,1,.66,1.5,1.87,1.87,0,0,1-.27,1A1.85,1.85,0,0,1,130,41a1.3,1.3,0,0,1,.83.48,1.82,1.82,0,0,1,.28,1l0,1a0,0,0,0,1,0,0c0,.27.07.42.2.43Zm6.46,0h-5.58V37.38h5.45V39h-3.26v.91h2.76v1.57h-2.76v1h3.39Zm7-1.46a2.74,2.74,0,0,1-1.31,1.18,3.21,3.21,0,0,1-.83.22,15.37,15.37,0,0,1-1.61.06h-2.25V37.38h2.65a9.19,9.19,0,0,1,1.51.09,2.73,2.73,0,0,1,.86.3,2.62,2.62,0,0,1,1.06,1.17,4.28,4.28,0,0,1,.36,1.86A4,4,0,0,1,144.79,42.74Z"/><path class="cls-5" d="M48.08,17.94H23.45c16.07,5.15,27.45,17.72,28,34.74A28.65,28.65,0,0,0,44.91,49,107.11,107.11,0,0,0,2.56,43.42v2c17.21-1.13,32.63,2.07,41.67,5.42,5.12,1.9,13.37,9.56,17.47,16.74A23.75,23.75,0,0,0,62.36,64a50.61,50.61,0,0,0,1-9.75A51.27,51.27,0,0,0,48.08,17.94Zm-25.44,59C15.07,69.35,4.5,50.43,2.56,46.9v4c3.82,6.73,12.22,20.91,18.7,27.39a36.65,36.65,0,0,0,11.49,7.52A42.76,42.76,0,0,1,5.51,91.54c-.9-.1-1.79-.23-2.67-.36v12.59H27.11a55.67,55.67,0,0,0,23-15.38l.08,0c.45-.68.92-1.46,1.38-2.3C41,88.39,29.12,83.39,22.64,76.92Z"/><path class="cls-5" d="M19,54.51,29.5,62.7l-6.59,3.17,8.35-2,8.52,5L29.59,73.22l12.11-2.5,8.69,4.17-13,5,15.91-3.21,8,5.14s3.59-.42,1.8-1.8-9.57-6.14-9.57-6.14L50.05,60l.59,12.45-6.93-4-4.1-12.61,1.51,11.36-8.86-5-2.09-8.94v7.93Z"/><polygon class="cls-5" points="297.12 20.26 273.3 20.26 256.46 3.42 239.62 20.26 215.8 20.26 215.8 44.08 198.96 60.92 215.8 77.76 215.8 101.57 239.62 101.57 256.46 118.42 273.3 101.57 297.12 101.57 297.12 77.76 313.96 60.92 297.12 44.08 297.12 20.26 297.12 20.26"/><path class="cls-4" d="M274.1,68a22.89,22.89,0,0,0,11.45-4s-2.83-1.69-4.24-2.31a13.71,13.71,0,0,0-4.62-1.07,6.12,6.12,0,0,0-2.47.34,24.23,24.23,0,0,0-4.75,3.2,33.8,33.8,0,0,1,3.25-6.17,8,8,0,0,1,4.48-3.19,8.17,8.17,0,0,1,3.48.11c2.91.65,5.39,2.22,7.9,3.73a18,18,0,0,0,5.68,2.67c1.42.29,1.86.48,3.29.67.69.09,2.61.25,2.61.25s-1,1.39-1.35,1.9c-.8,1.13-2.48,3.73-2.48,3.73s-2.48-.15-3.86-.11c-6.4-.08-10,5.13-21.21,4-3.92-.52-5.32-4-6.66-6.86a16.7,16.7,0,0,1-1.33-5.34c-.19-1.64-.29-3.3-.4-5-.06-1-.07-2-.05-2.94,0-2,.1-6.16.09-6.25,0,.09-.73,2.87-1.11,4.14-.78,2.66-1.58,5.31-2.46,7.95A24.71,24.71,0,0,1,256.78,63a17.05,17.05,0,0,1-5.09,5.06A23,23,0,0,1,241,71.78a35.66,35.66,0,0,1-6.93-.12,8.87,8.87,0,0,1-1-.18.7.7,0,0,1-.21-.14c.06-.06.11-.17.18-.19.34-.08.68-.13,1-.22a44.46,44.46,0,0,0,11.18-4.63,33.39,33.39,0,0,0,7.44-5.83,25,25,0,0,0,5.73-9.15c.68-2,1.2-4.07,1.76-6.11.41-1.46.76-2.94,1.15-4.41s.83-3.2,1.28-4.8c.25-.89.57-1.77.87-2.66.09-.28.18-.37.49-.14a3.14,3.14,0,0,1,1.15,1.71c.43,1.4-3.4,34.3,9,33.06Z"/><path class="cls-4" d="M236.52,56.5c-.05-1.63-.06-3.67-.18-5.7s-.32-4.23-.55-6.34c-.19-1.8-.45-3.6-.69-5.4s-.43-3.36-.68-5.05c-.15-1.08-.38-2.15-.52-3.24s2.92-5,3-5.12c1,3.29,3.94,5.81,3.45,6.94-1.49,2.52-1.69,5.31-1.63,8.14,0,1.66.15,3.31.23,5s.41,12.45.42,13.15a10.26,10.26,0,0,1-2,6.8A21.62,21.62,0,0,1,232,69.88a12.18,12.18,0,0,1-7.48,2.18,13.08,13.08,0,0,1-8-2.92A8.29,8.29,0,0,1,214,65.26a11.15,11.15,0,0,1,.85-8.17,29.32,29.32,0,0,1,3.84-5.3A37.43,37.43,0,0,0,216.31,59a6.64,6.64,0,0,0,.3,3.12,4,4,0,0,0,1.8,2.17,12.34,12.34,0,0,0,5.13,1.78,19.57,19.57,0,0,0,2,.21,16,16,0,0,0,8.28-2,4.08,4.08,0,0,0,2-2.7,28.24,28.24,0,0,0,.64-5.1Z"/><path class="cls-4" d="M253.29,58.07c0-.1-1.11-3.37-1.67-4.88a13.7,13.7,0,0,0-2.33-4.06A8.64,8.64,0,0,0,246,46.91c-1-.43-2-.87-3-1.35a4,4,0,0,1-2.15-2,5.53,5.53,0,0,1-.37-1.26,28.48,28.48,0,0,1,0-5.54c0-.61.23-.7.83-.43a21.68,21.68,0,0,1,5.4,3.35,20,20,0,0,1,4.47,5.19,18.32,18.32,0,0,1,2.49,8.31c0,.77-.28,4.8-.34,4.9Z"/><path class="cls-4" d="M236.85,78.74v4.54h-4.58V78.74H230V90.13h2.27V85.56h4.58v4.57h2.28V78.74Zm7.57,8.11L246,83.44l1.6,3.41ZM246,78.74,240.3,90.13H243l.44-.95h5.19l.43.95h2.67L246,78.74Zm6.86,0V90.13h7.53V87.87h-5.25V78.74Zm12.82,8.11,1.6-3.41,1.6,3.41Zm1.6-8.11-5.72,11.39h2.68l.43-.95h5.2l.42.95H273l-5.68-11.39Zm6.85,0V90.13h7.54V87.87h-5.26V78.74Z"/><path class="cls-4" d="M244.86,96.43a1.28,1.28,0,0,1-1.15.65,1.31,1.31,0,0,1-1-.4,1.34,1.34,0,0,1-.39-1,1.28,1.28,0,0,1,.39-.94,1.35,1.35,0,0,1,1-.4,1.3,1.3,0,0,1,1.15.64l.64-.64a2.15,2.15,0,0,0-1.79-.89,2.22,2.22,0,0,0-2.25,2.23A2.22,2.22,0,0,0,243.71,98a2.15,2.15,0,0,0,1.79-.89l-.64-.65Zm1.1-2.94V98h3.15v-.89h-2.25v-.91h1.88v-.89h-1.88v-.9h2.25v-.89Zm4.5,2.68v-1.8h.91a.94.94,0,0,1,.44.12.91.91,0,0,1,0,1.57,1.06,1.06,0,0,1-.44.11Zm1.8-2.47a2,2,0,0,0-.89-.23h-1.8V98h.89v-.9h.91l.2,0,.34.92h1l-.44-1.22a1.83,1.83,0,0,0-.16-3Zm1.19-.21v.89h1.34V98h.9V94.38H257v-.89Zm4.05,0V98h.89V93.49Zm1.35,0V98h.9v-1.8h1.88v-.89h-1.88v-.9H262v-.89Zm3.61,0V98h.89V93.49Zm1.35,0V98H267v-.89h-2.25v-.91h1.88v-.89h-1.88v-.9H267v-.89Zm4.5,3.59v-2.7h.91a1.47,1.47,0,0,1,.66.17,1.36,1.36,0,0,1,0,2.36,1.47,1.47,0,0,1-.66.17Zm-.89-3.59V98h1.8a2.52,2.52,0,0,0,1.11-.27,2.28,2.28,0,0,0,0-3.94,2.52,2.52,0,0,0-1.11-.27Z"/><circle class="cls-6" cx="582.3" cy="58.99" r="57.5"/><path class="cls-5" d="M619.25,57.87a37.69,37.69,0,1,1-37.68-37.69,37.68,37.68,0,0,1,37.68,37.69"/><path class="cls-4" d="M600.08,55.85a2,2,0,0,1-1.2,1.49,4.15,4.15,0,0,1-3.43-.2,3.08,3.08,0,0,1-1-2.42,16.13,16.13,0,0,1,.28-5.26,2.56,2.56,0,0,1,2.43-1.34,3.09,3.09,0,0,1,2.64,1,4.46,4.46,0,0,1,.45,2,32.21,32.21,0,0,1-.16,4.7m6.17-7.32a6.87,6.87,0,0,0-2.62-3.13A12.59,12.59,0,0,0,591.56,45,7,7,0,0,0,588,49.92c-.71,3.26-.53,7.14,2,9.58a11.9,11.9,0,0,0,11,2.08,5.1,5.1,0,0,0,1.14-.39l.11,0a7.73,7.73,0,0,0,3.14-2.36c1.93-2.83,2.07-7.06.89-10.25"/><path class="cls-4" d="M569.11,57.45c-.86-.06-1.83,0-2.66-.08l0-9,0-.07,2.59,0c0-1.46,0-3,0-4.36l-9.85,0-1.62,0c0,1.36,0,3,0,4.33.89,0,1.72,0,2.59.08V57l0,.36-2.59.06c-.05,1.43-.05,2.82,0,4.23h11.53"/><path class="cls-4" d="M588.4,71l-1.23.38a3.22,3.22,0,0,1-.58-.41l.06-.08a23.34,23.34,0,0,0,4.62-3.57,10.41,10.41,0,0,1,2,1.1A18.05,18.05,0,0,1,588.4,71m-2.51.71a19.79,19.79,0,0,1-8.63,0c0-.12.13-.15.21-.23a8.2,8.2,0,0,1,8.6.13c.08.15-.13.1-.18.15m-9.7-.33a18.51,18.51,0,0,1-6.11-2.88v-.08A14,14,0,0,1,572,67.36,26.76,26.76,0,0,0,576.72,71a2.35,2.35,0,0,1-.53.41M572.82,67A17,17,0,0,1,576,65.87l.11,0A38.85,38.85,0,0,0,578.75,70c-.36.2-.81.33-1.17.54a17.55,17.55,0,0,1-4.76-3.45ZM577,65.61a22.46,22.46,0,0,1,4.23-.46l0,4.34c-.55.13-1.15.13-1.67.26a22.35,22.35,0,0,1-2.72-4Zm5-.46a20.9,20.9,0,0,1,4.37.51l0,.08a25.67,25.67,0,0,1-2.64,4,8.22,8.22,0,0,1-1.3-.15l-.45-.06c-.05-1.51-.08-2.85,0-4.36m5.15.77.08,0a14,14,0,0,1,3.19,1.1,16.87,16.87,0,0,1-2.9,2.47c-.6.36-1.21.74-1.83,1L584.63,70l.08-.18a30.41,30.41,0,0,0,2.51-3.9m10.9-2.31a20,20,0,0,1-4,4.26c0,.08-.21,0-.26,0-.65-.41-1.36-.75-2-1.16a21.19,21.19,0,0,0,2.28-3.11h-.81a17.15,17.15,0,0,1-2.2,2.8,28.08,28.08,0,0,0-3.37-1.18l-.13-.1a14,14,0,0,0,.63-1.52h-.71l-.7,1.39a32.46,32.46,0,0,0-4.81-.62c-.08-.23,0-.56-.08-.77h-.68c0,.31.08.54-.08.8a28.62,28.62,0,0,0-4.7.57l-.71-1.37a2.14,2.14,0,0,0-.73,0l.65,1.51-.08.08a34.18,34.18,0,0,0-3.44,1.21l-.11-.06a19.91,19.91,0,0,1-2-2.53c-.13-.44-.66-.19-.94-.24a21.55,21.55,0,0,0,2.3,3.16c-.71.41-1.41.87-2.15,1.21a18.7,18.7,0,0,1-4.13-4.34,2.89,2.89,0,0,0-.83,0,20.49,20.49,0,0,0,7.87,7,0,0,0,0,1,0,0s.08,0,0,.07a21.61,21.61,0,0,0,6.58,2A20.59,20.59,0,0,0,599,63.61a3.93,3.93,0,0,0-.84,0"/><path class="cls-4" d="M570,37.11a18.87,18.87,0,0,1,5.41-2.73c.08-.08.13-.15.24-.15v.05c.21,0,.36-.18.55,0s.34.24.47.36A26.71,26.71,0,0,0,572,38.23a8.37,8.37,0,0,1-2-1.08Zm15.95-3.19v0a8,8,0,0,1-8.37.28c-.13-.1-.39-.15-.42-.33a19.61,19.61,0,0,1,8.79,0m1,.26a18.54,18.54,0,0,1,6.14,2.87l-.05.1-1.8,1h-.13a23,23,0,0,0-4.66-3.55c.06-.18.32-.31.5-.43m3.35,4.39a17.87,17.87,0,0,1-3.19,1.08,43.71,43.71,0,0,0-2.7-4c.37-.2.82-.35,1.21-.56a18.78,18.78,0,0,1,4.73,3.44ZM582,40.37c-.05-1.37,0-2.88,0-4.29l1.62-.23a21.9,21.9,0,0,1,2.69,4,18.35,18.35,0,0,1-4.31.52m-.81,0a9.41,9.41,0,0,1-2.12-.08,14.44,14.44,0,0,1-2.3-.41,23.18,23.18,0,0,1,2.72-4l1.67.23c.08,1.33,0,2.88,0,4.29m-5.2-.69-.11,0a21.86,21.86,0,0,1-3.11-1.05l0-.16a20.93,20.93,0,0,1,4.63-3.36c.39.16.78.28,1.18.47l-.08.2A31.67,31.67,0,0,0,576,39.65m-10.85,2.26a24.91,24.91,0,0,1,2.12-2.55,14.1,14.1,0,0,1,2-1.72c.68.44,1.43.8,2.09,1.21a22.41,22.41,0,0,0-2.25,3.08,1.47,1.47,0,0,0,.78,0,20.4,20.4,0,0,1,2.2-2.75c1.12.42,2.22.85,3.37,1.16l.1.1-.65,1.49a2.16,2.16,0,0,0,.76,0c.23-.43.42-.92.68-1.36a25.28,25.28,0,0,0,4.73.56c.21.19,0,.57.13.8h.71c.07-.25,0-.54.07-.77a25.07,25.07,0,0,0,4.58-.59l.13,0,.7,1.33a1.64,1.64,0,0,0,.74,0l-.66-1.49.06,0A28.61,28.61,0,0,0,591,39.11a24.62,24.62,0,0,1,2.25,2.82,2.4,2.4,0,0,0,.78,0,10,10,0,0,0-1.12-1.62,11.22,11.22,0,0,0-1.15-1.38v-.13l1.83-1.06.26-.1A19.09,19.09,0,0,1,598,41.88c.31,0,.57.11.84,0a20.68,20.68,0,0,0-15.53-9.09l0,0-.06,0a11.2,11.2,0,0,0-2.32,0,5.38,5.38,0,0,0-1,0,20.48,20.48,0,0,0-15.66,9.16,3,3,0,0,0,.84,0"/><path class="cls-4" d="M581.19,57.65a6.94,6.94,0,0,1-6.91-1.7c-.2-.25-.34-.56-.54-.81l-3.53,0c-.06,2.08-.08,4.47,0,6.52l3.92,0,0-1.23c.45.2.89.46,1.33.69a11,11,0,0,0,8.91,0,5.29,5.29,0,0,0,2.72-5.4A6.17,6.17,0,0,0,582.65,51l-6.33-1.83-.47-.23a.72.72,0,0,1-.29-.69c.5-.85,1.65-.59,2.52-.57a6.41,6.41,0,0,1,4.78,2.54c1.15,0,2.48,0,3.73,0,.06-2.11,0-3.95-.05-6.09-1.17,0-2.61,0-3.79,0a4.69,4.69,0,0,1-.08,1l-1.2-.64c-2.87-1.21-6.9-1.34-9.51.54a5.18,5.18,0,0,0-1.78,5.39c.34,1.85,2.12,3.21,3.82,3.85,2.32.82,4.75,1.42,7.11,2.21.23.1.54.34.49.62s-.23.36-.41.46"/><path class="cls-5" d="M553.49,25.11l1,1c1.21,1.23,1.16,2.66-.26,4.07s-2.85,1.44-4.07.21l-3.93-4c-1.22-1.23-1.17-2.66.25-4.06s2.86-1.44,4.07-.22l.73.75-1.37,1.35-.81-.82a.92.92,0,0,0-1.49,0,.93.93,0,0,0,0,1.5L551.7,29a1.05,1.05,0,0,0,1.5-1.48l-1.08-1.1"/><path class="cls-5" d="M557.21,19.72l2.37-1.47.82,1.3L558,21l1.66,2.68,3-1.86.81,1.31-4.72,2.93-5.68-9.15L557.81,14l.81,1.31-3,1.85"/><path class="cls-5" d="M565.23,12.45l1,3.13.76-.25c.72-.25,1.07-.66.79-1.47l-.34-1c-.24-.73-.65-.95-1.33-.72Zm5.06,8a2.72,2.72,0,0,1-.6-1.19l-.54-1.61c-.32-.95-.83-1.16-1.71-.87l-.66.23,1.4,4.15-1.93.65-3.45-10.2,2.92-1c2-.68,3.12-.2,3.65,1.38l.27.8a2.05,2.05,0,0,1-.57,2.48v0c1.08,0,1.66.66,2,1.72l.53,1.58a2.7,2.7,0,0,0,.63,1.16"/><path class="cls-5" d="M573.49,8.63,579.77,8l.15,1.53-2.12.21.9,9.19-2,.2-.9-9.19-2.13.21"/><path class="cls-5" d="M584.8,8.17l2,.17-.9,10.73-2-.17Z"/><path class="cls-5" d="M593.1,14.35l2.54.7-.4,1.48-2.54-.69-1.18,4.28-2-.54L592.4,9.2l5.21,1.43-.41,1.48L594,11.22"/><path class="cls-5" d="M602.35,12.6l1.83.89-4.69,9.69-1.84-.89Z"/><path class="cls-5" d="M608,21.14l2.25,1.67-.92,1.24-2.25-1.67-1.88,2.53,2.83,2.1-.92,1.23-4.46-3.31,6.42-8.65,4.46,3.32-.91,1.23-2.83-2.1"/><path class="cls-5" d="M617.74,25.92l-5.87,5,.75.88a.91.91,0,0,0,1.47.11l4.27-3.62a.91.91,0,0,0,.13-1.47Zm-.14-2.55,2.08,2.46c1.32,1.55,1.25,2.92-.06,4l-4.15,3.52c-1.32,1.11-2.68,1-4-.6l-2.09-2.46"/><path class="cls-5" d="M550,93.52l-1.14,1c-1.38,1.18-2.88,1-4.25-.57s-1.31-3.1.07-4.28l4.46-3.85c1.37-1.18,2.87-1,4.25.57s1.3,3.09-.07,4.28l-.84.72-1.32-1.54.92-.79a1.11,1.11,0,1,0-1.45-1.69l-4.64,4A1.11,1.11,0,0,0,547.49,93L548.71,92"/><path class="cls-5" d="M555.19,99.83a1.11,1.11,0,1,0,1.85,1.23l3.39-5.1a1.11,1.11,0,0,0-1.85-1.23Zm1.54-6.19c1-1.51,2.53-1.74,4.29-.57s2.14,2.67,1.14,4.18l-3.27,4.9c-1,1.51-2.53,1.74-4.29.57s-2.13-2.67-1.13-4.18"/><path class="cls-5" d="M569.44,105.79h0L573,98.44l2.88.8-3,10.91-2-.54,2.18-7.83h0l-3.56,7.45-2-.55.64-8.13h0L566,108.24l-1.81-.5,3-10.91,2.88.8"/><path class="cls-5" d="M582.3,101l.14,3.83,1,0c.68,0,1-.29,1-1.1l-.07-1.7c0-.81-.41-1.06-1.09-1Zm4.25,1,.06,1.47c.06,1.81-1,2.84-3.1,2.92l-1,0,.16,4.25-2.15.08-.42-11.32,3.16-.12c2.14-.08,3.23.87,3.3,2.68"/><path class="cls-5" d="M594,105.39l2-.62-2.69-5.16h0Zm5.76,2-2.07.66-1-1.85-2.51.79.26,2.07-1.88.59-1.32-11.46,3-.94"/><path class="cls-5" d="M603,96.4l0,0,4.6,6.79-1.6,1.09-6.35-9.39,2.23-1.51,5.6,4.41,0,0-3.8-5.62,1.58-1.07,6.35,9.38-1.83,1.24"/><path class="cls-5" d="M615.42,91.57l-7.56-2.75,1.44-1.73,5,2.06,0,0-2.94-4.55L612.7,83l4.09,6.92,2.89,2.4L618.31,94"/><path class="cls-4" d="M561.39,86.66v-.85l1.08-1c2.6-2.48,3.77-3.79,3.79-5.33a1.82,1.82,0,0,0-2-2,3.49,3.49,0,0,0-2.17.86l-.43-1a4.47,4.47,0,0,1,2.88-1,2.87,2.87,0,0,1,3.12,3c0,1.88-1.37,3.4-3.51,5.47l-.82.75v0h4.58v1.15Z"/><path class="cls-4" d="M584.24,81.45c0,3.47-1.29,5.38-3.55,5.38-2,0-3.33-1.87-3.37-5.23s1.48-5.3,3.55-5.3S584.24,78.21,584.24,81.45Zm-5.54.16c0,2.65.82,4.15,2.07,4.15,1.41,0,2.09-1.64,2.09-4.24s-.65-4.16-2.07-4.16C579.58,77.36,578.7,78.84,578.7,81.61Z"/><path class="cls-4" d="M592.28,81.45c0,3.47-1.29,5.38-3.55,5.38-2,0-3.33-1.87-3.37-5.23s1.48-5.3,3.55-5.3S592.28,78.21,592.28,81.45Zm-5.54.16c0,2.65.82,4.15,2.07,4.15,1.41,0,2.09-1.64,2.09-4.24s-.65-4.16-2.07-4.16C587.62,77.36,586.74,78.84,586.74,81.61Z"/><path class="cls-4" d="M600.32,81.45c0,3.47-1.29,5.38-3.55,5.38-2,0-3.33-1.87-3.37-5.23s1.48-5.3,3.55-5.3S600.32,78.21,600.32,81.45Zm-5.54.16c0,2.65.82,4.15,2.07,4.15,1.41,0,2.09-1.64,2.09-4.24s-.65-4.16-2.07-4.16C595.66,77.36,594.78,78.84,594.78,81.61Z"/><path class="cls-4" d="M569.57,86.66v-.85l1.08-1c2.6-2.48,3.78-3.79,3.79-5.33a1.82,1.82,0,0,0-2-2,3.48,3.48,0,0,0-2.16.86l-.44-1a4.49,4.49,0,0,1,2.88-1,2.86,2.86,0,0,1,3.12,3c0,1.88-1.36,3.4-3.51,5.47l-.81.75v0h4.57v1.15Z"/><path class="cls-4" d="M362.3,57.63A57.5,57.5,0,1,0,419.79.12,57.49,57.49,0,0,0,362.3,57.63Z"/><path class="cls-4" d="M419.79,9.21a48.42,48.42,0,1,0,48.43,48.41A48.41,48.41,0,0,0,419.79,9.21Zm0,94.9a46.49,46.49,0,1,1,46.48-46.49,46.48,46.48,0,0,1-46.48,46.49Z"/><path class="cls-7" d="M419.79,1.46A56.17,56.17,0,1,0,476,57.62,56.16,56.16,0,0,0,419.79,1.46Zm0,104.58a48.42,48.42,0,1,1,48.42-48.42A48.41,48.41,0,0,1,419.8,106Z"/><path class="cls-5" d="M484.11,57.64a19.22,19.22,0,0,1-19.22,19.23h-90a19.23,19.23,0,1,1,0-38.45h90a19.23,19.23,0,0,1,19.23,19.22Z"/><path class="cls-4" d="M386.53,50.79a.62.62,0,0,0-.2-.4,3.18,3.18,0,0,0-2-.63,5,5,0,0,0-3.45,1.33c-1.5,1.36-2.46,3.95-2.46,6.95,0,2.82.66,4.78,1.83,6.05A5.17,5.17,0,0,0,384.36,66c.61,0,.77-.13.8-.4l0-4.52L382.54,61c0-.89,0-2,.06-2.92h9.74c0,.89,0,2-.06,2.92l-1.37.07c-.09,0-.16.06-.16.13l-.1,6.45a14,14,0,0,1-6.45,1.2c-3.75,0-6.48-.83-8.38-2.3a9.86,9.86,0,0,1-3.68-8,11.53,11.53,0,0,1,5-9.71,15.05,15.05,0,0,1,8.31-2.29,13,13,0,0,1,5,.79c.17,2.16.3,4.36.37,6.58-1.1.14-2.36.27-3.52.37l-.73-3.52Zm8.34-.87c0-.93,0-2.06.06-3h8.31c1,2.66,3.23,9.11,4.73,13.56h.26c1.6-4.45,3.46-9.77,4.82-13.56h7.71c0,.93,0,2-.06,3l-1.63.1c-.07,0-.1.07-.1.16,0,4.73,0,10.44.07,15.43l1.82.1c0,.86,0,1.89,0,2.79H412c0-.9,0-1.93,0-2.79l1.9-.1c.06,0,.1-.07.1-.14,0-3.48-.07-7.17-.14-11.16h-.26c-2,5.78-3.76,9.8-5.12,12.93-.46,0-1.86.06-2.89.07-1.53-3.63-3-7.52-5-13.43h-.3c-.07,4.09-.13,7.88-.2,11.7l2.3.13c0,.86,0,1.9,0,2.79H398.1c-1.2,0-2.3,0-3.4,0,0-.9,0-1.93,0-2.79l1.69-.1c.1,0,.14-.07.14-.13,0-4.76.1-10.77.13-15.46l-1.83-.1Zm29.25-.17c0-.89,0-1.92,0-2.79,2.39-.06,5.32-.1,8.08-.1a15.67,15.67,0,0,1,4.88.56,6.73,6.73,0,0,1,4.46,6.42A7.15,7.15,0,0,1,437.65,60a12.64,12.64,0,0,1-4.65,1c-.44,0-1.33,0-1.57,0l0,4.62,3,.1c0,.87,0,1.86,0,2.76-1.66,0-3.95,0-6,0-1.43,0-3,0-4.26,0,0-.9,0-1.89.07-2.76l1.56-.1c.1,0,.14-.07.13-.13V49.82l-1.79-.07Zm7.31,8.15c0,.33.6.33,1.16.33a3.3,3.3,0,0,0,2.27-.87A4.74,4.74,0,0,0,436,54c0-2.46-1.5-4.46-3.39-4.46a3.76,3.76,0,0,0-1.06.1l-.07,8.25Zm26.77,1.73c-.05,3.08-.05,6.2-.05,8.63-1.33.1-2.89.14-4.27.15,0-2.35,0-5.42-.05-8.82h-8c0-1.29.09-2.76.14-4.09,1.88,0,4.82,0,7.94,0-.05-3,0-6-.05-8.4,1.47-.09,3.17-.18,4.55-.18-.05,2.34-.09,5.37-.14,8.49,2.94,0,5.79,0,7.81-.09,0,1.33-.05,3-.19,4.36Z"/><path class="cls-5" d="M394.76,90.36a.08.08,0,0,0,.09,0c1.54-1.13,3.77-2.79,5.33-3.93.18.09.6.35,1.29.8-.48,1.91-1.2,4.6-1.66,6.42l.44.35-.51.77L398.63,94l-1.5-1c.17-.27.35-.52.52-.78l.47.27s.06,0,.07,0,.15-.52.19-.7,0-.06,0-.08l-1.72-1.11c-.17.19-.42.39-.59.56l.49.36c-.16.25-.34.52-.52.77l-1.29-.84-.91-.6c.17-.26.34-.53.52-.77l.44.25Zm4.62-2-2,1.64s0,0,0,.07l1.29.84c.21-.74.49-1.64.74-2.52l0,0Zm3.2,6.47a.26.26,0,0,0,0,.15,1.21,1.21,0,0,0,.49.39,1,1,0,0,0,.42.12.38.38,0,0,0,.37-.23c.11-.26,0-.38-.6-.86-.79-.66-1.05-1.3-.77-1.95a1.59,1.59,0,0,1,1.42-.88,3.44,3.44,0,0,1,1.58.33,4.61,4.61,0,0,1,1.16.67c-.14.47-.29,1-.44,1.41-.33-.07-.66-.16-1-.25l.08-.6a.16.16,0,0,0,0-.15.78.78,0,0,0-.35-.28.9.9,0,0,0-.42-.08.42.42,0,0,0-.34.27c-.09.22.06.35.75.9s1,1,.66,1.84a1.61,1.61,0,0,1-1.47.93,4,4,0,0,1-1.62-.4,5.53,5.53,0,0,1-1.27-.74c.14-.49.29-1,.44-1.46.31.06.64.13,1,.22l-.09.65Zm5.05,2a.2.2,0,0,0,.05.14,1.24,1.24,0,0,0,.54.32,1,1,0,0,0,.43.07A.41.41,0,0,0,409,97c.08-.26,0-.37-.69-.77-.89-.55-1.22-1.15-1-1.82a1.59,1.59,0,0,1,1.29-1.07,3.49,3.49,0,0,1,1.61.12,4.85,4.85,0,0,1,1.24.51c-.08.48-.16,1-.26,1.46-.33,0-.67-.07-1-.12v-.61a.14.14,0,0,0,0-.14.77.77,0,0,0-.38-.24.9.9,0,0,0-.43,0,.42.42,0,0,0-.3.31c-.06.23.1.34.86.8s1.14.89.9,1.74a1.65,1.65,0,0,1-1.33,1.12,4.26,4.26,0,0,1-1.66-.19,5.4,5.4,0,0,1-1.36-.57l.24-1.51c.32,0,.66,0,1,.1v.66ZM415.27,99a2.64,2.64,0,0,1-1.63.36,1.84,1.84,0,0,1-1.31-1.74c.11-.83.23-1.7.31-2.41l-.48-.08c0-.3.09-.61.12-.9.47,0,2.09.19,2.25.2s0,0,0,0c-.1.77-.25,1.74-.35,2.54a2.2,2.2,0,0,0,0,1,.46.46,0,0,0,.41.27,1.24,1.24,0,0,0,.69-.15c.1-.74.23-1.83.31-2.5l-.53-.09c0-.31.08-.64.12-.93l2.31.24s0,0,0,0c-.16,1.17-.34,2.48-.5,3.75,0,0,0,.06,0,.07l.62,0c0,.29-.08.62-.13.91a8.11,8.11,0,0,1-1.81,0,2.34,2.34,0,0,1-.45-.61Zm3.34-3.06c0-.3,0-.63,0-.91.49-.06,2.13-.35,2.19-.35s0,0,0,0c0,.47.09.93.13,1.4H421c.65-1.32.9-1.48,1.45-1.5a2.1,2.1,0,0,1,.8.14,3.13,3.13,0,0,1-.48,1.6,3.89,3.89,0,0,0-.71-.09.47.47,0,0,0-.3.11,2,2,0,0,0-.55.79,2.09,2.09,0,0,0-.15.94c0,.19,0,.44,0,.61H422v.9l-1.68,0-1.56.06c0-.29,0-.63,0-.9l.52,0a0,0,0,0,0,0,0c0-.9,0-1.92-.08-2.79Zm8.54,2.72a3.8,3.8,0,0,1-1.51.75,1.53,1.53,0,0,1-1.63-1c-.1-.6.45-1.77,2.18-2.06l.52-.09c0-.54-.31-.83-.81-.75a3.28,3.28,0,0,0-1.27.84,7.36,7.36,0,0,1-.69-.68,4.06,4.06,0,0,1,2.46-1.52,1.72,1.72,0,0,1,1.94,1.35c.12.72.28,1.76.35,2.24,0,.06,0,.08.07.06l.57-.12c.05.29.12.61.16.9a6.86,6.86,0,0,1-1.79.52,4.16,4.16,0,0,1-.5-.41Zm-.86-.44a1.46,1.46,0,0,0,.69-.36s0-.06,0-.07c0-.26-.08-.47-.13-.75l-.23,0c-.72.12-1,.47-.91.82a.49.49,0,0,0,.57.33Zm3.17-3.39c-.1-.28-.2-.6-.29-.86.51-.21,1.95-1,2-1s0,0,0,0c.12.21.24.4.37.6h.06c.79-1,1-1.14,1.47-1.31a1.57,1.57,0,0,1,1.36.38,1.8,1.8,0,0,1,.56.84c.24.72.48,1.43.7,2.15l.53-.15c.1.27.2.59.29.86l-1.35.47-1.3.47c-.09-.28-.19-.6-.29-.87l.41-.17a.07.07,0,0,0,0-.06c-.14-.43-.36-1-.5-1.41a2.37,2.37,0,0,0-.39-.87.43.43,0,0,0-.48-.09,1.69,1.69,0,0,0-.71.66c.21.62.53,1.62.74,2.21l.46-.12c.1.28.21.58.29.86l-1.31.45-1.38.49-.28-.86.5-.21s0,0,0,0l-.91-2.59-.66.2Zm8.73-5a2.9,2.9,0,0,1,1.21-.33,2.12,2.12,0,0,1,.08,1.35,3.44,3.44,0,0,0-1.17.25.62.62,0,0,0-.37.59,2,2,0,0,0,.32,1.1,1.51,1.51,0,0,0,.8.78,1,1,0,0,0,.79-.12,4,4,0,0,0,1-.86c.2.22.43.46.6.68a4.79,4.79,0,0,1-1.55,1.44,2.21,2.21,0,0,1-3.17-.83,3,3,0,0,1,1.47-4Zm3.67-2.41a2,2,0,0,1,1.56-.42,2.69,2.69,0,0,1,1.47,1.07,1.65,1.65,0,0,1-.11.87c-.22.2-1.13.87-1.93,1.44a1,1,0,0,0,.67.41,1.09,1.09,0,0,0,.82-.26,5.81,5.81,0,0,0,1.08-1.17,7.16,7.16,0,0,1,.71.62,6.4,6.4,0,0,1-1.43,1.68c-1.19.86-2.52.94-3.45-.33a2.71,2.71,0,0,1,.61-3.91Zm.12,1.43a1.37,1.37,0,0,0,.35.82c.31-.23.75-.55,1-.75a.11.11,0,0,0,0-.16,1.71,1.71,0,0,0-.52-.49.53.53,0,0,0-.59,0,.56.56,0,0,0-.25.55Z"/><path class="cls-5" d="M391.41,30.12c-.2-.23-.43-.47-.62-.7l1.08-1,1.91-1.75c.34-.31.61-.58.81-.75.49.47,1,.94,1.49,1.44l-.71.82-.8-.56a.21.21,0,0,0-.29,0,7.36,7.36,0,0,0-.93.74l-.06.07,1.6,1.77.76-.71c.15-.14.13-.21.05-.33l-.26-.38c.26-.24.53-.46.78-.68L397,29c.28.3.54.61.76.85-.24.24-.49.48-.75.71l-.38-.34c-.11-.11-.2-.1-.33,0s-.53.44-.78.67l1.27,1.42.91-.78c.21.23.43.47.63.71-.45.41-1.08,1-1.59,1.43l-1.12,1c-.21-.22-.42-.46-.62-.69l.4-.4a.09.09,0,0,0,0-.07l-3.51-3.86-.48.41Zm8-4.77A2,2,0,0,1,401,25a2.65,2.65,0,0,1,1.41,1.14,1.74,1.74,0,0,1-.15.87c-.24.19-1.18.8-2,1.34a1,1,0,0,0,.64.44,1.09,1.09,0,0,0,.83-.22,5.49,5.49,0,0,0,1.14-1.11,7,7,0,0,1,.68.65A6.4,6.4,0,0,1,402,29.74c-1.23.79-2.57.8-3.42-.52a2.71,2.71,0,0,1,.81-3.87Zm.05,1.43a1.41,1.41,0,0,0,.31.84c.32-.21.77-.51,1-.7.06,0,.07-.09,0-.15a1.64,1.64,0,0,0-.49-.52.53.53,0,0,0-.6,0A.61.61,0,0,0,399.42,26.78Zm5.31-4.26a2,2,0,0,1,1.62-.07,2.62,2.62,0,0,1,1.21,1.35,1.68,1.68,0,0,1-.29.83c-.26.15-1.29.61-2.19,1a1,1,0,0,0,.56.54,1.06,1.06,0,0,0,.86-.09,5.17,5.17,0,0,0,1.3-.91,6,6,0,0,1,.56.76,6.3,6.3,0,0,1-1.75,1.34c-1.34.58-2.66.38-3.3-1.06A2.72,2.72,0,0,1,404.73,22.52Zm-.18,1.42a1.42,1.42,0,0,0,.17.88l1.14-.52c.06,0,.07-.08,0-.15a1.77,1.77,0,0,0-.41-.59.5.5,0,0,0-.58-.1.56.56,0,0,0-.36.48Zm7.74.93a3.56,3.56,0,0,1-1.33.85,1.81,1.81,0,0,1-1.39-.21A2.39,2.39,0,0,1,408.5,24a3.17,3.17,0,0,1,.3-2.34,2.13,2.13,0,0,1,1.32-1,3.1,3.1,0,0,1,1-.09l.06,0c-.12-.49-.27-1-.41-1.57l-.82.19c-.08-.3-.15-.62-.22-.91.62-.21,2.36-.88,2.47-.91s0,0,0,0c.42,1.72,1.06,4.47,1.55,6.43,0,.06.05.1.09.09l.54-.17c.08.26.16.6.23.88a8.3,8.3,0,0,1-1.75.66,1.32,1.32,0,0,1-.51-.39l-.07,0Zm-.9-3.25a1.56,1.56,0,0,0-.68,0,.61.61,0,0,0-.46.42,2.31,2.31,0,0,0,.05,1.32,1.88,1.88,0,0,0,.46.93.71.71,0,0,0,.56.15,1.33,1.33,0,0,0,.63-.36s0-.09,0-.2C411.76,23.13,411.57,22.37,411.39,21.62Zm7.32,1.52a.16.16,0,0,0,.07.09,1.22,1.22,0,0,0,.73.23,1.33,1.33,0,0,0,.77-.21.75.75,0,0,0,.28-.6c0-.55-.27-.67-1.12-1-1.12-.44-2-1.13-1.95-2.21a2.2,2.2,0,0,1,.78-1.64,3.54,3.54,0,0,1,2.36-.67,4.37,4.37,0,0,1,1.48.23c.05.67.09,1.36.12,2-.34.05-.74.09-1.13.13l-.23-1a.11.11,0,0,0-.05-.08.86.86,0,0,0-.55-.18,1,1,0,0,0-.67.19.79.79,0,0,0-.31.62c0,.56.23.67,1.25,1.05,1.21.43,1.84,1.06,1.82,2.1a2.22,2.22,0,0,1-.85,1.76,3.6,3.6,0,0,1-2.35.59,5.41,5.41,0,0,1-1.69-.25c-.08-.69-.15-1.38-.21-2.05a11.22,11.22,0,0,1,1.16-.19l.29,1.11Zm7.15,1.45a3.72,3.72,0,0,1-1.67.21A1.53,1.53,0,0,1,423,23.29c.1-.6,1-1.53,2.73-1.23l.53.08c.12-.52,0-.89-.52-1a3.27,3.27,0,0,0-1.48.38,7.82,7.82,0,0,1-.43-.87,4.12,4.12,0,0,1,2.82-.64A1.73,1.73,0,0,1,428,22c-.12.72-.31,1.75-.4,2.22,0,.06,0,.09,0,.08l.59.08c0,.28-.1.61-.16.89a6.84,6.84,0,0,1-1.86-.09,4.11,4.11,0,0,1-.33-.55Zm-.66-.69a1.64,1.64,0,0,0,.77-.12.07.07,0,0,0,0-.06c.05-.26.08-.47.13-.75a.87.87,0,0,0-.22,0c-.73-.13-1.09.13-1.15.47S425,23.86,425.2,23.9Zm6.63,1.74c-.09.29-.2.58-.29.87l-1.81-.59-1.39-.43c.1-.3.19-.58.29-.86l.53.13a.08.08,0,0,0,.06,0c.29-.9.58-1.8.86-2.7l-.73-.23c.11-.32.22-.64.31-.92l.64.18c.05,0,.07,0,.09-.07a2.27,2.27,0,0,1,1.19-1.6,2.47,2.47,0,0,1,2.07-.21,3.48,3.48,0,0,1,1.09.55,2,2,0,0,1-.9,1,3.06,3.06,0,0,0-.82-.57c-.17-.06-.3-.06-.4.07a5.62,5.62,0,0,0-.53,1.37l1.35.43c-.1.3-.23.67-.35,1l-1.31-.43c-.24.74-.64,2-.89,2.73l.94.33Zm4.87-2.27a2,2,0,0,1,1.1,1.18,2.62,2.62,0,0,1-.24,1.8,1.87,1.87,0,0,1-.82.32c-.28-.11-1.3-.6-2.19-1a1,1,0,0,0,0,.77,1,1,0,0,0,.62.6,5.75,5.75,0,0,0,1.54.4,7.21,7.21,0,0,1-.21.92,6.2,6.2,0,0,1-2.16-.47c-1.31-.63-2-1.77-1.33-3.18a2.7,2.7,0,0,1,3.73-1.32Zm-1.2.78a1.39,1.39,0,0,0-.56.7c.37.18.75.36,1.13.52.06,0,.11,0,.14-.06a1.56,1.56,0,0,0,.19-.69.53.53,0,0,0-.31-.52.58.58,0,0,0-.59,0Zm2.15,5.19a1,1,0,0,1,.17-.93c.35-.52.65-1,.73-1.06l.82-1.2-.64-.43c.17-.26.36-.52.55-.76.19.11.44.24.63.36a.09.09,0,0,0,.11,0l.58-.71a10.48,10.48,0,0,1,1.7.43s0,0,0,.05c-.15.2-.72,1-.9,1.27l1.42.94c-.18.27-.41.58-.62.84l-1.37-.94-.52.76L439.56,29a.51.51,0,0,0,.14.7,4.79,4.79,0,0,0,1.09.54c-.12.28-.27.58-.41.84a6.62,6.62,0,0,1-2.21-1,1.21,1.21,0,0,1-.52-.76Zm9.07,2.59L444.44,33a28,28,0,0,1-3.5,1.39,3.55,3.55,0,0,1-1.33.19c-.27-.25-.54-1.38-.35-1.59a3.42,3.42,0,0,0,1,.11,2.88,2.88,0,0,0,1.31-.23c.32-.85.57-1.51.9-2.32s.54-1.37.73-1.83c0,0,0-.05,0-.08l-.3-.3c.21-.23.45-.47.65-.67l1,.88,1.16,1.07c-.19.21-.43.47-.64.68l-.39-.32c-.11.21-.28.56-.52,1.08s-.35.79-.55,1.26l.05,0a9.62,9.62,0,0,0,1-.64c.33-.21.63-.41,1-.7,0,0,0,0,0-.07l-.27-.27L446,30l.93.86.7.62c-.21.23-.42.46-.64.68Z"/></g></g></svg>