<svg xmlns="http://www.w3.org/2000/svg" viewBox="0 0 1579.5 711"><defs><style>.cls-1{fill:#13322b;}.cls-2{fill:#fff;}.cls-3{fill:#88b04b;fill-rule:evenodd;}</style></defs><g id="Calque_2" data-name="Calque 2"><g id="Calque_1-2" data-name="Calque 1"><rect class="cls-1" width="1579.5" height="711"/><path class="cls-2" d="M440.43,475.9l16.42-2L463.08,492l-10.76,8.5H400.79l-15.86-35.4-81.26-.28L297.72,481l12.46,19.54h-53.8l74.47-167.91-12.17-30.3h51.53ZM310.18,445.32l66-2-32.57-78.15Z"/><path class="cls-2" d="M620,384.16q0,14.73.15,30t.14,29.3v23.08l-34.83,34.83H514.62l-32-26.62V383l-19.53-11,7.08-13H523.4l.28,102.79,9.91,20.67,32.28-3.12,11.89-20.95.29-77.3c-.57-.38-1.47-1-2.69-2s-2.46-1.93-3.68-3-2.36-2-3.4-2.83a15.22,15.22,0,0,0-2.13-1.56V359H620Z"/><path class="cls-2" d="M704.76,445.46q.15,18.84.14,35.54l12.46,4.81c0,2.46-.05,4.86-.14,7.22s-.14,4.87-.14,7.51H663.84q0-4.25.15-11.75t.28-16.85q.13-9.35.14-19.68v-71.5L650,371.7l6.8-12.74H701.5L703.2,385A179.78,179.78,0,0,1,721,370.29a107.47,107.47,0,0,1,16.57-10.06q8.91-4.38,16.56-4.38a42,42,0,0,1,13.31,2A68.19,68.19,0,0,1,778,362.22a47,47,0,0,1,7.5,4.81c2,1.61,3.35,2.69,4.1,3.26l-10.75,30.29L742,392.09a38.31,38.31,0,0,0-9.48,3q-5.52,2.42-11,5.24T711.41,406l-6.79,4.25Q704.62,426.64,704.76,445.46Z"/><path class="cls-2" d="M855.4,471.23q9.5,12,30.72,13.17a38,38,0,0,0,16.43-11.33q6.8-7.92,14.72-18.4L949,466.28c-.18,1.51-1.51,4.1-4,7.78a75.29,75.29,0,0,1-9.49,11.33,73.88,73.88,0,0,1-13,10.33,28.73,28.73,0,0,1-14,4.82H839.12q-7.36,0-15.43-8.92a90.07,90.07,0,0,1-14.3-22.09,116.25,116.25,0,0,1-9.06-28q-2.83-14.87.28-27,1.42-4.81,4.82-13a92.54,92.54,0,0,1,9.06-16.56,78.62,78.62,0,0,1,13.87-15.43,44.31,44.31,0,0,1,19.54-9.63,180.53,180.53,0,0,1,18.4-2.26A205.56,205.56,0,0,1,888,357a149.94,149.94,0,0,1,20.39,1.84q9.49,1.56,14.3,4.95a49.51,49.51,0,0,1,8.92,8.92,75.12,75.12,0,0,1,8.5,13.45,89.79,89.79,0,0,1,6.22,16.43A74.6,74.6,0,0,1,949,420.12L930,435.7l-85.51,4.81Q845.91,459.2,855.4,471.23Zm48.7-65.12q-1.83-6.66-4.53-13.88a111.25,111.25,0,0,0-5.66-12.88q-3-5.67-5.52-6a25.67,25.67,0,0,0-7.22.57q-4.39.84-9.06,2.12t-8.92,2.83a49,49,0,0,0-6.8,3,22.06,22.06,0,0,0-4,6.23,79.31,79.31,0,0,0-3.68,9.62,84.41,84.41,0,0,0-2.69,11.05,59.69,59.69,0,0,0-1,10.19l61.16-4A78.83,78.83,0,0,0,904.1,406.11Z"/><path class="cls-2" d="M1028,476.75l20.1,5.95v17.84H988.63l.57-174.71-21.81-9.91,3.68-13.59H1028Z"/><g id="lake_forest_open_lands_association"><path class="cls-3" d="M1219.7,163.55c18,.12,36.28,2.71,56.45,2.71,9.2,0,19.4.1,29.13.73,12.21.78,25.39-1.35,32.21,4.7a24.54,24.54,0,0,1,3.26,4.34,30.37,30.37,0,0,1,2.89,4.53c3.56,8.45,2.68,20.28,2.89,32.38-.15,0-.17.07-.18.18-1.75,2.87-5,4.23-7.59,6.15-18.49,13.69-36.79,25.9-55.91,40-10.23,7.53-21.07,15.6-31.3,23.52-5,3.84-10.74,7.2-16.11,11.39-2.34,1.84-4.76,4.12-8.13,5.61-3.12,1.37-6.67,3.83-9.59,4-7.29.38-7.15-5.07-8.5-11.22-.32-1.42-.41-3.5-.73-5.43s-.92-4.12-.54-5.24c.83-2.47,4.41-2.5,8-3.44,8.76-2.34,14.1-6.34,19.72-12.3,3.07-3.26,6.48-6.88,8.32-10.14a51.18,51.18,0,0,0,3.44-9.22,58.1,58.1,0,0,0,2.54-10.14,65.3,65.3,0,0,0-.73-16.64c-1.18-5-4.45-10.19-7.06-14.66-6.77-11.64-13.26-22.22-19.9-34.37-.91-1.68-4-5.56-3.07-7.06A1.29,1.29,0,0,1,1219.7,163.55Z"/><path class="cls-3" d="M1206.13,175.31c-.5,2.08-2.29,3.38-3.62,4.7s-2.79,2.76-4.16,4.17c-7.27,9.26-16,17-23.52,26-1.59,4.49-3.37,8.91-4.89,13.57-1.47,4.5-3.84,8.95-4.71,13.75-1,5.4.55,11.48.19,17.73,0,.14.18.18.18.36,1.51,3.5,3.67,6.06,5.43,8.87a61.23,61.23,0,0,0,5.78,8.32c5,5.68,12.45,9.1,18.46,14.11,4.42,3.69,6.48,8,7.6,14.84a67.49,67.49,0,0,1,.54,7.41c.11,2.37.4,5.19-1.08,6.88-1.83.88-3.77.12-5.25-.54a28.59,28.59,0,0,1-4.52-2c-1.63-1.17-3-3.89-4.34-6.16-3.91-6.37-8.84-12.4-12.31-18.63-2.36-4.25-4.85-8.71-8.32-12.49-1.46-1.59-3.23-3.55-5.07-5.24-1.67-1.55-3.81-3.85-5.6-4.71-3.83-1.84-11.62-3-16.83-3.44a43.18,43.18,0,0,0-14.66,2.17c-3.55,1.25-7,3.75-10.31,5.79-3.47,2.16-7.47,3.82-10.5,6.16s-5.52,6.13-8.13,9.22c-1.32,1.56-2.81,3-4,4.7s-2,4-4.16,4.34c-.9-3.9-.36-8-.36-12.12,0-11.89-1.7-23.8-2.17-36.19-.31-8.34-.41-16.62-.54-24.6-.14-8.4-.31-16.65.18-24.61.54-8.88,4.5-17.13,10.5-21,8.32-5.34,24.58-3.68,37.45-3.07,15.79.75,32.28-.51,48.67.36,4.12.23,8.23.27,12.3.37C1198.28,174.5,1202.36,174.15,1206.13,175.31Z"/><path class="cls-3" d="M1349.79,310.1c-2,1.49-4.61,1.75-7.06,2.35-7.3,1.82-15.2,3.79-23.15,5.07-5.29.85-10.66,1.73-16.11,2.71s-10.83,1.4-16.29,2.35c-10.46,1.85-20.66,4.68-31.66,6a161.5,161.5,0,0,1-18.09.73c-8.64,0-19.14,1.07-22.43-4.52-.22-3.12-.49-6.48.18-8.69.8-2.66,3.74-5,5.79-6.88a59.51,59.51,0,0,1,7-5.61c5.53-1,14.09-3.37,19.91-2,1.82.44,3.22,1.67,5.06,2.54s3.59,1.41,5.25,2.17c3.31,1.52,6.75,3.77,10.31,4.7s10.15,1,14.47,1.45a33.08,33.08,0,0,0,4.52.54c2.08-.11,4.81-1.66,6.88-2.72,6.28-3.2,12.71-6.19,18.09-10.13,3.41-5.19,6.66-10.86,10-16.64,3.16-5.55,6.63-11.12,9-17.37,3.65-9.47,7.64-18.78,10.85-28.77,1.48-4.6,3.91-8.09,5.25-13,.38-1.41.27-3.14.9-4.16,1-1.59,4.21-2.38,5.79-3.08,3-1.32,1.9,3.57,1.81,4.34a161.05,161.05,0,0,0-.9,18.1c0,8.78-1.06,16.05-2,23.34-1,7.84-1.22,15.94-1.81,23.52C1350.81,294.23,1350.87,302.72,1349.79,310.1Z"/><path class="cls-3" d="M1204.68,350.27a20.58,20.58,0,0,1-10.67-.18,70.41,70.41,0,0,1-7.06-3.62c-6.89-3.49-12.54-8.3-19.72-11.76a131.5,131.5,0,0,0-15-6.16c-7.75-2.61-17.4-6.21-27-3.07-3.58,1.17-6.57,3.8-9.58,6.33-8.62,7.25-17.24,14.52-24.61,22.8-1.72,1-2.57,3.82-5.07,3.44-1.16-1.73-.86-4.14-.9-6.34-.23-11.75-.17-22.67-.72-34.74-.09-1.86-.29-4.14-.37-6.69-.07-2.23-.59-5.93.55-6.33a1.3,1.3,0,0,1,.54-.37c9.29.6,18.62,2,27.87,3.26,8.4,1.14,17,2,25.33,3.26,12.39,1.88,24.6,3.64,36.91,6,7,1.32,15.19,1.36,18.81,6,1.38,1.75,1.9,4.7,2.9,7s2.19,4.66,3.07,6.7C1202,340.49,1204.53,344.75,1204.68,350.27Z"/><path class="cls-3" d="M1339.84,319.69c1.88-.62,1.27,4.1,1.27,6,0,6.66-.15,13.34,0,20.81.17,8.87,1,17.87,1.62,26.23,1,13.73.7,25.9.18,39.81-.18,4.83.55,10.4-.72,14.65a59.34,59.34,0,0,1-2.53,5.43c-2.22,5.11-6.56,11.69-11.58,13.75-3.42,1.4-7.84.9-12.67.9s-9.3-.18-13.57-.36c-9.42-.4-19.43-.18-27-.18-9,0-17.87-.73-26.77-.73-9.1,0-18.13-.47-26.78-1.08-2.09-4.45-1.94-10.16-2.53-15.74-1.19-11.33-3.31-20.43-4.16-32.21-.33-4.59-.49-13.77,2.53-15.2,1.88-.88,4.91.24,7.06,1.09,2.38.94,4.75,1.45,6.69,2.17,12.57,4.66,25.94,10.07,38.54,14.29,13.32,4.47,26.38,8.94,39.62,13.39,2.21.74,4.48,1.51,6.7,2.17s4.37,2,6.69,1.27c.12-3.34-1.66-6.4-2.89-9.41-2.43-5.91-4.92-11.82-7.42-17.73-1.26-3-2.26-6.09-3.62-8.87a54.26,54.26,0,0,0-6.52-9.58,63.29,63.29,0,0,0-8-8.14c-14.41-6.68-32.15-.8-46.5,2.35-6.63,1.45-13.28,3.37-18.27,6.15-4.66-.25-7,1.64-11.4,2.53-3,.61-7.82,1-9.4-.9s-.57-7.75-.19-10.5a67.06,67.06,0,0,1,5.07-18.27c1.07-2.49,2.27-6.79,3.62-8,.86-.75,3.37-1.36,4.7-1.81a23.18,23.18,0,0,1,5.07-1.45c2.47-.11,6.07,1.08,8.68,2,7.61,2.64,14.65,6.9,21.18,10.32,6.94,3.65,13.68,7,21.34,10.13,2.57,1,5.36,2.38,7.78,2.71,6.68.92,12.87.08,18.09-2.71,3.34-1.78,6.45-5.17,9.59-8s6.06-6.05,8.87-8.68C1328.51,332.49,1333.84,326,1339.84,319.69Z"/><path class="cls-3" d="M1195.64,367.27c2.95,7.72,4.86,16.31,6.87,25.15.62,2.74,1.81,5.63,1.27,8.51-1.8,1.41-4.33.64-6.34.54-29.36-1.4-59.32-2.64-88.11-4.7-2.26-.16-4.61-.25-6.87-.37-2-.09-4.21-.86-6,.37.06,2.66,2,4.75,3.26,7.05s2.46,4.58,3.61,6.88c2.36,4.69,4.64,9.62,7.42,13.57,2.3,3.25,7,6.31,10.85,8.5a45.26,45.26,0,0,0,6,3.08,33.78,33.78,0,0,0,7.23,2.35,51.38,51.38,0,0,0,7.24.18,106.76,106.76,0,0,0,10.85-.36c2-.24,4.1-1.48,6.34-2.35,2.06-.81,4.09-1.79,6-2.53,10.81-4.29,16.37-11.27,26.23-16.83,1.61-.91,4.57-2.87,5.79-2.71,1.6.2,2.28,2.41,2.9,4.34s1.56,3.62,2,5.06c1.24,4.21,1.56,8.49,2.17,13.21.53,4.06,2.12,8.85,1.81,13.21-3.17,1.1-6.6.23-10,.18-3.55-.06-7.15-.37-10.86-.37-21.3,0-44.63,1.16-64.77,1.09-2.31,0-4.78-.36-7.24-.36-4.53,0-7.85.05-10.85-1.45a22.35,22.35,0,0,1-5.79-4.34c-3.26-3.26-6.34-5.67-6.87-11.4-.48-5.13.45-11.11.72-16.83.63-13.27,1-28,1.63-41.79.11-2.57,0-5.35,1.08-7.6,6.25-.5,11.91.94,17.19,2.35s10.25,3.07,15.2,4.89c10.05,3.69,20.63,8.41,32.21,8.14,7.65-.18,13.87-4.64,19.36-8,2.2-1.34,4.56-2.72,6.87-4.16C1187.5,367.66,1191.44,363.27,1195.64,367.27Z"/></g></g></g></svg>