<svg id="Calque_1" data-name="Calque 1" xmlns="http://www.w3.org/2000/svg" viewBox="0 0 306 142"><defs><style>.cls-1{fill:#13322b;}.cls-2{fill:#f5f5f5;}</style></defs><path class="cls-1" d="M203.37,9.24c-72.83-1-93.9,11.15-93.9,11.15l-4.65,61.67h93Z"/><polygon class="cls-1" points="103.37 101.32 196.41 101.32 197.75 83.56 104.7 83.56 103.37 101.32"/><path class="cls-2" d="M133.9,78.61h-.24c-1.57,0-2.93-1.18-2.74-3.89s1.71-3.89,3.28-3.89,2.93,1.17,2.74,3.89a4,4,0,0,1-1.86,3.53l1.38,1.69h-1.59Zm-.17-1.07c.88,0,1.64-.74,1.78-2.82s-.5-2.83-1.38-2.83-1.63.75-1.78,2.83.51,2.82,1.38,2.82"/><path class="cls-2" d="M143.93,77.58a5.85,5.85,0,0,0,0,.92h-1.26c0-.29,0-.58,0-.86h0a1.77,1.77,0,0,1-1.55.94c-1.27,0-1.58-.94-1.5-2.06l.25-3.6h1.34L141,76.27c-.06.85.15,1.21.71,1.21.72,0,1-.65,1-1.37l.22-3.19h1.35Z"/><path class="cls-2" d="M147.39,73.25a4,4,0,0,1,1.8-.41c1.73,0,2.07.84,2,2.24L151,77.51a6.2,6.2,0,0,0,0,1h-1.21a2.69,2.69,0,0,1,0-.76h0a2,2,0,0,1-1.62.84A1.47,1.47,0,0,1,146.57,77c.11-1.52,1.37-1.9,3.07-1.9h.27v-.2a.88.88,0,0,0-1-1.06,2.76,2.76,0,0,0-1.57.54Zm2.47,2.52h-.12c-1.15,0-1.85.24-1.9,1a.73.73,0,0,0,.79.85c.8,0,1.14-.59,1.21-1.59Z"/><polygon class="cls-2" points="154.54 70.38 155.89 70.38 155.32 78.5 153.98 78.5 154.54 70.38"/><path class="cls-2" d="M158.86,72.92h1.34l-.39,5.58h-1.34Zm.14-2.37h1.39l-.09,1.32h-1.39Z"/><path class="cls-2" d="M163.8,71.77l1.37-.41-.11,1.56h1.12l-.07,1H165l-.2,2.89c0,.59.16.77.55.77a1.16,1.16,0,0,0,.52-.12l-.07,1a2.11,2.11,0,0,1-.91.18c-1,0-1.53-.45-1.44-1.62l.21-3h-.89l.07-1h.89Z"/><path class="cls-2" d="M172.43,78.23a4.35,4.35,0,0,1-1.69.35c-1.8,0-2.49-1.28-2.38-2.79.11-1.67,1.08-3,2.5-3,1.2,0,2.18.7,2,3l0,.26h-3.22c-.07,1,.27,1.53,1.31,1.53a2.37,2.37,0,0,0,1.49-.43Zm-.81-3c.07-1-.22-1.49-.83-1.49s-1,.75-1.09,1.49Zm-.6-4.48h1.25l-1.21,1.56h-.85Z"/><path class="cls-2" d="M111.35,94h-1.66l-.45,1.2h-1.46l2.28-5.66h1.68l1.4,5.66h-1.57Zm-.55-3.31h0L110,92.87h1.12Z"/><polygon class="cls-2" points="114.2 89.5 117.54 89.5 117.46 90.61 115.61 90.61 115.53 91.77 117.3 91.77 117.22 92.89 115.45 92.89 115.3 95.16 113.8 95.16 114.2 89.5"/><polygon class="cls-2" points="119.59 91.23 119.56 91.23 119.28 95.16 117.95 95.16 118.35 89.5 120.12 89.5 121.33 93.4 121.35 93.4 121.62 89.5 122.95 89.5 122.55 95.16 120.77 95.16 119.59 91.23"/><path class="cls-2" d="M126.42,89.4c1.23,0,2.45.83,2.31,2.93s-1.49,2.93-2.73,2.93-2.45-.83-2.31-2.93,1.49-2.93,2.73-2.93m-.36,4.77h0c.64,0,1-.72,1.08-1.84s-.18-1.84-.82-1.84-1,.74-1.09,1.84.18,1.84.82,1.84"/><path class="cls-2" d="M131.86,93.55c-.1-.54-.35-.61-.59-.61h-.09L131,95.16H129.5l.4-5.66h2.27c1.14,0,1.75.47,1.68,1.52a1.4,1.4,0,0,1-1.18,1.3v0c.32.11.52.26.69,1l.39,1.77h-1.58Zm-.22-1.69a.67.67,0,0,0,.67-.61.56.56,0,0,0-.6-.67h-.43l-.09,1.28Z"/><path class="cls-2" d="M140.87,95a5.27,5.27,0,0,1-1.41.22c-1.65,0-2.76-1-2.62-3a2.86,2.86,0,0,1,3-2.89,3.28,3.28,0,0,1,1.35.26l-.16,1.25a2.22,2.22,0,0,0-1.09-.33c-1,0-1.47.64-1.55,1.74s.42,1.72,1.38,1.72a2.27,2.27,0,0,0,1.11-.31Z"/><polygon class="cls-2" points="142.14 89.5 145.62 89.5 145.54 90.61 143.56 90.61 143.48 91.7 145.37 91.7 145.29 92.82 143.4 92.82 143.32 94.04 145.41 94.04 145.33 95.16 141.75 95.16 142.14 89.5"/><path class="cls-2" d="M148.59,93.55c-.11-.54-.36-.61-.6-.61h-.08l-.16,2.22h-1.52l.39-5.66h2.27c1.14,0,1.76.47,1.69,1.52a1.41,1.41,0,0,1-1.18,1.3v0c.31.11.51.26.69,1l.38,1.77H148.9Zm-.22-1.69a.68.68,0,0,0,.67-.61.56.56,0,0,0-.61-.67H148l-.09,1.28Z"/><polygon class="cls-2" points="152.45 90.65 151.24 90.65 151.32 89.5 155.28 89.5 155.2 90.65 153.98 90.65 153.66 95.16 152.14 95.16 152.45 90.65"/><polygon class="cls-2" points="156.03 89.5 157.56 89.5 157.16 95.16 155.64 95.16 156.03 89.5"/><polygon class="cls-2" points="158.71 89.5 162.05 89.5 161.97 90.61 160.12 90.61 160.04 91.77 161.81 91.77 161.73 92.89 159.96 92.89 159.8 95.16 158.31 95.16 158.71 89.5"/><polygon class="cls-2" points="162.89 89.5 164.41 89.5 164.01 95.16 162.49 95.16 162.89 89.5"/><path class="cls-2" d="M169.22,95a5.27,5.27,0,0,1-1.41.22c-1.65,0-2.76-1-2.62-3a2.86,2.86,0,0,1,3-2.89,3.28,3.28,0,0,1,1.35.26l-.16,1.25a2.22,2.22,0,0,0-1.09-.33c-1,0-1.47.64-1.55,1.74s.42,1.72,1.38,1.72a2.23,2.23,0,0,0,1.11-.31Z"/><path class="cls-2" d="M173.19,94h-1.67l-.45,1.2h-1.46l2.28-5.66h1.68L175,95.16H173.4Zm-.55-3.31h0l-.76,2.22H173Z"/><polygon class="cls-2" points="176.48 90.65 175.26 90.65 175.34 89.5 179.3 89.5 179.22 90.65 178 90.65 177.69 95.16 176.16 95.16 176.48 90.65"/><polygon class="cls-2" points="180.06 89.5 181.59 89.5 181.19 95.16 179.66 95.16 180.06 89.5"/><path class="cls-2" d="M185.08,89.4c1.24,0,2.46.83,2.31,2.93s-1.48,2.93-2.72,2.93-2.45-.83-2.31-2.93,1.49-2.93,2.72-2.93m-.35,4.77h0c.64,0,1-.72,1.08-1.84s-.18-1.84-.82-1.84-1,.74-1.09,1.84.18,1.84.82,1.84"/><polygon class="cls-2" points="189.78 91.23 189.75 91.23 189.47 95.16 188.14 95.16 188.53 89.5 190.31 89.5 191.51 93.4 191.53 93.4 191.81 89.5 193.14 89.5 192.74 95.16 190.96 95.16 189.78 91.23"/><path class="cls-2" d="M131,25.11c-1.76-.67-4.06-1-8.8-1h-4.1a2.49,2.49,0,0,0,1.48,2.21h2.54a15.38,15.38,0,0,1,4.79.53,1.82,1.82,0,0,1,1.51,2l0,.54c-5.81,1.4-11,3-13.61,4.67a4.17,4.17,0,0,0-2.41,3.45c-.18,1.7.58,3.16,2.85,4,2.09.79,4.66,1,8.32,1h3.07a13.46,13.46,0,0,0,3.54-.55c2.42-.84,2.92-2.69,3.06-4.35l.73-9.41c-.19-1.35-1.12-2.36-2.92-3m-3.51,15.1h-4.95a12.66,12.66,0,0,1-3.24-.49,1.84,1.84,0,0,1-1.5-1.68,3.63,3.63,0,0,1,.63-2.37c1-1.26,3.85-2.21,3.85-2.21a43.94,43.94,0,0,1,5.89-1.65Z"/><path class="cls-2" d="M168.53,25.53A10.09,10.09,0,0,0,166,25c-6.68-.9-13.91.13-21,1.29l.27-3.36c.08-1,.26-1.61,1.4-2a16.73,16.73,0,0,1,4.82-.53h4.73a2.4,2.4,0,0,0,1.41-2.21h-6.28c-3.66,0-5.82.18-8,1-2.42.83-3.38,2.27-3.52,3.93l-.33,4.13c-.76.14-1.69.28-2.45.47a2.72,2.72,0,0,0-1,2.62h0c1-.21,2.21-.41,3.21-.6l-.94,12.48h5.47l1-13.4c4.42-.85,13.69-2.5,18.7-1.75a9.35,9.35,0,0,1,.91.23c1.08.36,1.58,1,1.51,2l0,.12c-5.82,1.4-11,3-13.61,4.67a4.15,4.15,0,0,0-2.41,3.45c-.18,1.7.58,3.16,2.85,4,2.09.79,4.66,1,8.31,1h3.07a13.47,13.47,0,0,0,3.55-.55c2.41-.84,2.92-2.69,3.06-4.35l.73-9c-.18-1.35-1.12-2.35-2.92-3M165,40.21h-5a12.66,12.66,0,0,1-3.24-.49c-1-.32-1.47-.87-1.5-1.68a3.63,3.63,0,0,1,.63-2.37c1-1.26,3.85-2.21,3.85-2.21a44.19,44.19,0,0,1,5.88-1.65Z"/><path class="cls-2" d="M192.25,29.41l-.71,8.42a2.26,2.26,0,0,1-1.86,2,15.67,15.67,0,0,1-4.23.53,14.64,14.64,0,0,1-4.13-.53,1.81,1.81,0,0,1-1.49-2l.72-8.42a2.27,2.27,0,0,1,1.86-2,15.59,15.59,0,0,1,4.22-.53,14.58,14.58,0,0,1,4.13.53,1.81,1.81,0,0,1,1.49,2m2.64-3.75a22.79,22.79,0,0,0-7.74-1h-.65a24.1,24.1,0,0,0-7.92,1c-2.43.85-3.42,2.29-3.56,3.95l-.68,8c-.14,1.67.57,3.11,2.86,3.95a17.83,17.83,0,0,0,5.51.93c0,.22,0,0,0,.25-.15,1.94,1.9,3.9,5.13,3.9h6a2.82,2.82,0,0,0,2.63-2.1h-4.76c-4,0-3.51-2.07-3.51-2.07a18.42,18.42,0,0,0,5.33-.91c2.42-.84,3.45-2.28,3.59-3.95l.63-8c.14-1.66-.56-3.1-2.84-3.95"/><polygon class="cls-2" points="110.24 65.46 195 65.46 196.25 48.84 111.47 48.84 110.24 65.46"/><polygon class="cls-1" points="117.45 52.31 120.03 52.31 119.35 61.96 116.78 61.96 117.45 52.31"/><path class="cls-1" d="M123.4,59.58a5.4,5.4,0,0,0,2.61.64c.82,0,1.61-.16,1.66-.94.13-1.8-4.52-.66-4.27-4.18.16-2.32,2.47-3,4.41-3a8,8,0,0,1,2.47.36l-.31,2a5,5,0,0,0-2.11-.44c-.65,0-1.74.06-1.8.9-.11,1.56,4.53.51,4.29,4-.18,2.5-2.33,3.18-4.47,3.18a10.07,10.07,0,0,1-2.85-.41Z"/><path class="cls-1" d="M138.77,52.14c3.18,0,4.7,1.9,4.49,5s-2,5-5.19,5-4.71-1.92-4.5-5,2-5,5.2-5m-.57,8.08c1.56,0,2.29-1.49,2.4-3.08s-.41-3.09-2-3.09-2.28,1.41-2.4,3.09.41,3.08,2,3.08"/><path class="cls-1" d="M153,59.79a3.49,3.49,0,0,0,2,.51c1.72,0,2.32-1.13,2.45-2.83h0a2.54,2.54,0,0,1-2.16,1,2.62,2.62,0,0,1-2.68-3,3.69,3.69,0,0,1,3.85-3.27c2.76,0,3.56,2.16,3.39,4.58-.21,3-1.44,5.41-4.64,5.41a6.34,6.34,0,0,1-2.47-.44Zm3.34-6A1.35,1.35,0,0,0,155,55.17c0,.8.23,1.54,1.13,1.54a1.4,1.4,0,0,0,1.36-1.43c.05-.79-.33-1.48-1.16-1.48"/><path class="cls-1" d="M162.79,57.14c.17-2.51.9-5,4.1-5s3.57,2.49,3.4,5-.91,5-4.1,5-3.58-2.49-3.4-5m5,0c.1-1.54.13-3.25-1-3.25s-1.37,1.71-1.48,3.25-.13,3.25,1,3.25,1.38-1.72,1.49-3.25"/><path class="cls-1" d="M173.19,57.14c.18-2.51.9-5,4.1-5s3.57,2.49,3.4,5-.91,5-4.1,5-3.57-2.49-3.4-5m5,0c.1-1.54.13-3.25-1-3.25s-1.38,1.71-1.49,3.25-.13,3.25,1,3.25,1.38-1.72,1.49-3.25"/><polygon class="cls-1" points="187.14 54.88 185.22 56.18 184.2 54.44 187.62 52.31 189.89 52.31 189.22 61.96 186.64 61.96 187.14 54.88"/><polygon class="cls-2" points="104.82 82.06 104.71 83.56 197.75 83.56 197.86 82.06 104.82 82.06"/></svg>