<svg id="Calque_1" data-name="Calque 1" xmlns="http://www.w3.org/2000/svg" viewBox="0 0 1401 133"><defs><style>.cls-1{fill:#d0d0ce;fill-rule:evenodd;}.cls-2{fill:#13322b;}.cls-3{fill:#88b04b;}.cls-4{fill:#bfd833;}</style></defs><path class="cls-1" d="M1156.85,84c.44,2,.4,3.83,2.81,3.7,1,0,2.13-.86,3.16-1.31a12.34,12.34,0,0,0,2.69-1.86c1.77-1.38,3.68-2.49,5.32-3.76,3.37-2.62,7-5.28,10.33-7.77,6.32-4.65,12.36-8.68,18.46-13.2a8.26,8.26,0,0,0,2.51-2s0-.07.06-.06c-.07-4,.22-7.9-1-10.69a9.94,9.94,0,0,0-1-1.5,8.09,8.09,0,0,0-1.08-1.43c-2.25-2-6.6-1.29-10.63-1.55-3.21-.21-6.58-.24-9.62-.24-6.66,0-12.7-.86-18.64-.9a.44.44,0,0,0-.18.12c-.3.5.71,1.78,1,2.33,2.19,4,4.33,7.51,6.57,11.35a19.27,19.27,0,0,1,2.33,4.84,21.84,21.84,0,0,1,.24,5.5,19.22,19.22,0,0,1-.84,3.34,17.08,17.08,0,0,1-1.13,3,19.82,19.82,0,0,1-2.75,3.34,12.85,12.85,0,0,1-6.51,4.07c-1.17.31-2.36.32-2.63,1.13a4.94,4.94,0,0,0,.18,1.73C1156.72,82.86,1156.74,83.55,1156.85,84Z"/><path class="cls-1" d="M1116.1,69c.15,4.09.72,8,.72,12a17.77,17.77,0,0,0,.12,4c.72-.12,1-.91,1.37-1.43s.88-1,1.31-1.56a20.79,20.79,0,0,1,2.69-3c1-.77,2.32-1.32,3.47-2a18.24,18.24,0,0,1,3.4-1.92,14.32,14.32,0,0,1,4.84-.71,19.49,19.49,0,0,1,5.56,1.13,10.09,10.09,0,0,1,1.85,1.56c.61.56,1.19,1.2,1.67,1.73a21,21,0,0,1,2.75,4.12c1.15,2.06,2.77,4,4.06,6.15a7.62,7.62,0,0,0,1.44,2,9.28,9.28,0,0,0,1.49.65,2,2,0,0,0,1.73.18,3.25,3.25,0,0,0,.36-2.27,23.09,23.09,0,0,0-.18-2.45,7.29,7.29,0,0,0-2.51-4.9c-2-1.65-4.45-2.78-6.09-4.65a20.48,20.48,0,0,1-1.91-2.75,20.54,20.54,0,0,1-1.79-2.93c0-.06,0-.07-.06-.12.11-2.06-.39-4.07-.06-5.85a34.8,34.8,0,0,1,1.55-4.55c.5-1.53,1.09-3,1.61-4.48,2.49-3,5.37-5.54,7.77-8.6l1.37-1.37a3.59,3.59,0,0,0,1.2-1.56A14.4,14.4,0,0,0,1152,45c-1.35,0-2.7,0-4.07-.12-5.41-.29-10.85.12-16.07-.12-4.24-.21-9.61-.76-12.36,1-2,1.27-3.29,4-3.47,6.93-.16,2.63-.1,5.35-.06,8.12S1116,66.2,1116.1,69Z"/><path class="cls-1" d="M1197.23,75.29a42,42,0,0,1-3,5.74c-1.08,1.91-2.16,3.78-3.28,5.49a44,44,0,0,1-6,3.35,6.86,6.86,0,0,1-2.27.9,12.52,12.52,0,0,1-1.49-.18,44.65,44.65,0,0,1-4.78-.48,22.73,22.73,0,0,1-3.41-1.55c-.54-.25-1.15-.45-1.73-.72a9.68,9.68,0,0,0-1.67-.84c-1.92-.45-4.75.33-6.57.66a19.78,19.78,0,0,0-2.33,1.85,6.17,6.17,0,0,0-1.91,2.27,9,9,0,0,0-.06,2.87c1.08,1.85,4.55,1.49,7.4,1.49a51.47,51.47,0,0,0,6-.24c3.63-.42,7-1.36,10.45-2,1.81-.31,3.62-.45,5.38-.77s3.57-.62,5.32-.9c2.62-.42,5.23-1.07,7.65-1.67a6.24,6.24,0,0,0,2.33-.78c.35-2.43.33-5.24.53-7.83s.27-5.17.6-7.76a58.62,58.62,0,0,0,.65-7.71,54.4,54.4,0,0,1,.3-6c0-.25.4-1.87-.59-1.43-.53.23-1.59.49-1.92,1a6.81,6.81,0,0,0-.3,1.37c-.44,1.63-1.24,2.78-1.73,4.3C1199.75,69.09,1198.43,72.17,1197.23,75.29Z"/><path class="cls-1" d="M1115.62,92.08c.18,4,.17,7.59.24,11.47a3.87,3.87,0,0,0,.3,2.09c.82.13,1.1-.8,1.67-1.13A77.61,77.61,0,0,1,1126,97a10.05,10.05,0,0,1,3.16-2.09c3.16-1,6.35.15,8.91,1a41.94,41.94,0,0,1,5,2c2.37,1.14,4.24,2.73,6.52,3.88a22.38,22.38,0,0,0,2.33,1.2,6.9,6.9,0,0,0,3.52.06c0-1.83-.88-3.23-1.55-4.79-.29-.67-.7-1.44-1-2.21a11.56,11.56,0,0,0-1-2.33c-1.2-1.52-3.9-1.53-6.22-2-4.06-.76-8.09-1.35-12.18-2-2.76-.42-5.59-.7-8.37-1.07-3-.42-6.13-.88-9.2-1.08a.44.44,0,0,0-.18.12c-.37.13-.2,1.36-.18,2.09S1115.59,91.46,1115.62,92.08Z"/><path class="cls-1" d="M1199.92,130.26c.28-.65.66-1.22.84-1.79.42-1.41.18-3.25.24-4.84a115.31,115.31,0,0,0-.06-13.15c-.21-2.76-.48-5.73-.54-8.66-.05-2.46,0-4.67,0-6.87,0-.62.2-2.18-.42-2-2,2.07-3.74,4.22-5.8,6.15-.92.87-1.89,2-2.92,2.87a19.39,19.39,0,0,1-3.17,2.63,9.66,9.66,0,0,1-6,.89,12.1,12.1,0,0,1-2.57-.89c-2.53-1-4.76-2.14-7-3.35a51.53,51.53,0,0,0-7-3.4,9,9,0,0,0-2.87-.66,7.5,7.5,0,0,0-1.67.48,6.77,6.77,0,0,0-1.56.59,10.67,10.67,0,0,0-1.19,2.63,22,22,0,0,0-1.67,6c-.13.9-.46,2.85.06,3.46s2.11.5,3.1.3c1.47-.29,2.23-.92,3.77-.84a23.21,23.21,0,0,1,6-2c4.74-1,10.6-3,15.35-.77a19.72,19.72,0,0,1,2.63,2.69,17.25,17.25,0,0,1,2.15,3.16c.45.92.78,1.95,1.2,2.93q1.25,2.92,2.45,5.85a7.76,7.76,0,0,1,1,3.11c-.76.26-1.5-.21-2.21-.42s-1.48-.47-2.21-.71c-4.37-1.47-8.68-3-13.08-4.43-4.16-1.39-8.57-3.18-12.72-4.72-.65-.23-1.43-.4-2.21-.71a3.47,3.47,0,0,0-2.33-.36c-1,.47-1,3.5-.84,5,.28,3.89,1,6.89,1.37,10.63a38.09,38.09,0,0,0,.42,3.88h37.84A12,12,0,0,0,1199.92,130.26Z"/><path class="cls-1" d="M1155.23,131.45a29,29,0,0,0-.71-4.36c-.15-.47-.45-1-.66-1.67s-.43-1.37-1-1.43-1.38.59-1.91.89c-3.26,1.84-5.09,4.14-8.66,5.56-.62.24-1.3.57-2,.83a10.11,10.11,0,0,1-2.1.78,34.9,34.9,0,0,1-3.58.12,16.78,16.78,0,0,1-2.39-.06,11,11,0,0,1-2.39-.78,14,14,0,0,1-2-1,11.69,11.69,0,0,1-3.59-2.81,35.82,35.82,0,0,1-2.45-4.48c-.38-.76-.8-1.52-1.19-2.27a5.61,5.61,0,0,1-1.07-2.33c.58-.41,1.31-.15,2-.12s1.52.07,2.27.12c9.5.68,19.39,1.09,29.09,1.55.66,0,1.5.29,2.09-.18a6.87,6.87,0,0,0-.42-2.8,60.94,60.94,0,0,0-2.27-8.31c-1.38-1.32-2.68.13-3.82.84-.76.47-1.54.93-2.27,1.37-1.81,1.1-3.86,2.57-6.39,2.63-3.82.09-7.32-1.47-10.63-2.69-1.64-.6-3.3-1.15-5-1.61a16.56,16.56,0,0,0-5.68-.78,6.7,6.7,0,0,0-.36,2.51c-.2,4.55-.33,9.42-.54,13.8a42.68,42.68,0,0,0-.23,5.56,4.27,4.27,0,0,0,1.2,2.68h36.9C1155.41,132.47,1155.29,131.94,1155.23,131.45Z"/><path class="cls-2" d="M1223.37,83.73V72h2.45l4.51,10.61h.35V72h1.3V83.73h-2.4L1225,73.12h-.32V83.73Z"/><path class="cls-2" d="M1243.7,77.93a8.1,8.1,0,0,1-1,4.56c-.68.94-1.89,1.41-3.65,1.41s-3-.48-3.65-1.44a8.11,8.11,0,0,1-1-4.55,8.35,8.35,0,0,1,1-4.62q1-1.5,3.63-1.5a4.1,4.1,0,0,1,3.63,1.5A8.24,8.24,0,0,1,1243.7,77.93Zm-8,0a7.53,7.53,0,0,0,.68,3.72,3.65,3.65,0,0,0,5.24,0,7.49,7.49,0,0,0,.68-3.71,7.83,7.83,0,0,0-.7-3.79A2.76,2.76,0,0,0,1239,73a2.73,2.73,0,0,0-2.6,1.18A7.78,7.78,0,0,0,1235.74,77.9Z"/><path class="cls-2" d="M1247.32,80.19c0,1.71.92,2.55,2.76,2.55a3.3,3.3,0,0,0,2.15-.6,2.4,2.4,0,0,0,.72-2V72h1.3v8.2a3.55,3.55,0,0,1-1,2.86,4.69,4.69,0,0,1-3.09.88A4.61,4.61,0,0,1,1247,83a3.58,3.58,0,0,1-1-2.86V72h1.31Z"/><path class="cls-2" d="M1258.36,79.22v4.51h-1.31V72h4.36a4,4,0,0,1,2.81.87,3.5,3.5,0,0,1,1,2.7q0,2.73-2.16,3.42l2.26,4.78h-1.45l-2.12-4.51Zm3.07-1.15a2.48,2.48,0,0,0,0-4.95h-3.05v4.95Z"/><path class="cls-2" d="M1268.84,79.22v4.51h-1.31V72h4.36a4,4,0,0,1,2.82.87,3.5,3.5,0,0,1,.94,2.7q0,2.73-2.16,3.42l2.26,4.78h-1.44l-2.13-4.51Zm3.07-1.15a2.48,2.48,0,0,0,0-4.95h-3.05v4.95Z"/><path class="cls-2" d="M1278,83.73V72h1.31V83.73Z"/><path class="cls-2" d="M1283.51,79.22v4.51h-1.31V72h4.36a4,4,0,0,1,2.81.87,3.5,3.5,0,0,1,.94,2.7q0,2.73-2.16,3.42l2.27,4.78H1289l-2.13-4.51Zm3.06-1.15a2.48,2.48,0,0,0,0-4.95h-3v4.95Z"/><path class="cls-2" d="M1224.59,99.1q0,2.55,2.76,2.55a3.24,3.24,0,0,0,2.15-.61,2.39,2.39,0,0,0,.72-1.94V90.86h1.3v8.2a3.54,3.54,0,0,1-1,2.86,4.69,4.69,0,0,1-3.09.89,4.61,4.61,0,0,1-3.07-.89,3.6,3.6,0,0,1-1-2.86v-8.2h1.31Z"/><path class="cls-2" d="M1234.32,102.64V90.86h2.45l4.51,10.62h.36V90.86h1.29v11.78h-2.4L1236,92h-.33v10.62Z"/><path class="cls-3" d="M1249.91,102.64V87.1h4.38l3.47,12.13,3.47-12.13h4.4v15.54h-2.54V89.89h-.34L1259.08,102h-2.63l-3.68-12.11h-.34v12.75Z"/><path class="cls-3" d="M1279.76,101c-.94,1.27-2.57,1.91-4.92,1.91s-4-.64-4.92-1.92-1.41-3.29-1.41-6,.48-4.77,1.42-6.11,2.58-2,4.91-2,4,.66,4.9,2,1.41,3.36,1.41,6.12S1280.69,99.71,1279.76,101Zm-7.87-1.63a3.95,3.95,0,0,0,5.89,0,9.33,9.33,0,0,0,.76-4.41,9.77,9.77,0,0,0-.78-4.51,3.75,3.75,0,0,0-5.84,0,9.54,9.54,0,0,0-.8,4.48A9.43,9.43,0,0,0,1271.89,99.35Z"/><path class="cls-3" d="M1284.08,102.64V87.1h4.4l4.72,13.31h.34V87.1h2.51v15.54h-4.31l-4.83-13.34h-.32v13.34Z"/><path class="cls-3" d="M1305,102.64h-5.37V87.1H1305c2.39,0,4,.6,4.9,1.81s1.32,3.11,1.32,5.7A18.55,18.55,0,0,1,1311,98a7.72,7.72,0,0,1-.92,2.49C1309.19,101.9,1307.51,102.64,1305,102.64Zm3.61-8a8.76,8.76,0,0,0-.7-4.07c-.47-.83-1.44-1.24-2.91-1.24h-2.85v11.11H1305a3,3,0,0,0,3-1.65,6.66,6.66,0,0,0,.48-1.79A17.48,17.48,0,0,0,1308.62,94.61Z"/><path class="cls-3" d="M1314.18,102.64V87.1h9.8v2.2h-7.28v4.4h5.92v2.18h-5.92v4.53H1324v2.23Z"/><path class="cls-2" d="M1223.27,121.54V109.89h7.34v1.65h-5.46v3.3h4.44v1.63h-4.44v3.4h5.46v1.67Z"/><path class="cls-2" d="M1232.67,121.54V109.89h3.3l3.54,10h.26v-10h1.89v11.65h-3.24l-3.62-10h-.24v10Z"/><path class="cls-4" d="M1257.66,121.31a18.83,18.83,0,0,1-4,.48,7.6,7.6,0,0,1-2.83-.44,3.43,3.43,0,0,1-1.66-1.39,6.23,6.23,0,0,1-.84-2.25,19.43,19.43,0,0,1-.22-3.24q0-4.09,1.15-5.71c.77-1.07,2.19-1.61,4.25-1.61a18.31,18.31,0,0,1,4.14.56l-.08,2.29a23.46,23.46,0,0,0-3.42-.31,3.91,3.91,0,0,0-2,.36,2.26,2.26,0,0,0-.86,1.38,14.68,14.68,0,0,0-.28,3.48,7.15,7.15,0,0,0,.57,3.4,2.46,2.46,0,0,0,2.29.94,23.84,23.84,0,0,0,3.65-.29Z"/><path class="cls-4" d="M1268.12,121.54v-5.86h-5.26v5.86H1260V107.4h2.87v5.78h5.26V107.4H1271v14.14Z"/><path class="cls-4" d="M1272.88,121.54l3.18-14.14h5.45l3.18,14.14h-2.87l-.56-2.56h-5l-.56,2.56Zm5.41-11.77-1.44,6.72h3.87l-1.43-6.72Z"/><path class="cls-4" d="M1286.59,121.54V107.4h4.84l3.41,11.64h.21V107.4h2.87v14.14h-4.72l-3.54-11.64h-.21v11.64Z"/><path class="cls-4" d="M1306.88,116.47V114H1311v7.34a31.62,31.62,0,0,1-4.83.48c-2.2,0-3.72-.59-4.54-1.77s-1.24-3-1.24-5.61.43-4.42,1.29-5.55,2.32-1.71,4.39-1.71a22.11,22.11,0,0,1,4.18.44l.75.14-.09,2.23a39.34,39.34,0,0,0-4.08-.27,4.81,4.81,0,0,0-2.24.37,2.24,2.24,0,0,0-.94,1.38,13.65,13.65,0,0,0-.31,3.46,7,7,0,0,0,.61,3.42,2.71,2.71,0,0,0,2.49,1l1.73-.08v-2.74Z"/><path class="cls-4" d="M1313.7,121.54V107.4h9.15v2.5h-6.28v3.3h5v2.45h-5V119h6.28v2.5Z"/><path class="cls-4" d="M1325.22,121.54V107.4h4.89l2.49,10.31,2.5-10.31H1340v14.14h-2.87V110.6h-.31L1334,120.92h-2.87l-2.77-10.32h-.31v10.94Z"/><path class="cls-4" d="M1343.06,121.54V107.4h9.15v2.5h-6.28v3.3h5v2.45h-5V119h6.28v2.5Z"/><path class="cls-4" d="M1354.58,121.54V107.4h4.85l3.41,11.64h.2V107.4h2.87v14.14h-4.72l-3.53-11.64h-.21v11.64Z"/><path class="cls-4" d="M1367.72,109.94V107.4h10.4v2.54h-3.74v11.6h-2.88v-11.6Z"/></svg>