<svg id="Calque_1" data-name="Calque 1" xmlns="http://www.w3.org/2000/svg" viewBox="0 0 600 407"><defs><style>.cls-1{fill:#d0d0ce;}.cls-2{fill:#98bc62;}.cls-3,.cls-5{fill:#88b04b;}.cls-3{fill-rule:evenodd;}.cls-4{fill:#13322b;}.cls-6{fill:#bfd833;}.cls-7{fill:none;stroke:#13322b;stroke-miterlimit:10;}.cls-8{fill:#fff;}</style></defs><rect class="cls-1" x="63.48" y="99.11" width="3.94" height="3.94"/><rect class="cls-1" x="71.37" y="99.11" width="3.94" height="3.94"/><rect class="cls-1" x="63.48" y="91.22" width="3.94" height="3.94"/><rect class="cls-1" x="71.37" y="91.22" width="3.94" height="3.94"/><rect class="cls-1" x="71.37" y="107" width="3.94" height="3.94"/><rect class="cls-2" x="61.87" y="113.28" width="7.16" height="7.16"/><rect class="cls-1" x="71.37" y="114.89" width="3.94" height="3.94"/><rect class="cls-1" x="63.48" y="122.78" width="3.94" height="3.94"/><rect class="cls-1" x="71.37" y="122.78" width="3.94" height="3.94"/><rect class="cls-1" x="63.48" y="130.67" width="3.94" height="3.94"/><rect class="cls-1" x="71.37" y="130.67" width="3.94" height="3.94"/><rect class="cls-1" x="79.25" y="99.11" width="3.94" height="3.94"/><rect class="cls-1" x="79.25" y="107" width="3.94" height="3.94"/><rect class="cls-1" x="87.14" y="99.11" width="3.94" height="3.94"/><rect class="cls-1" x="79.25" y="91.22" width="3.94" height="3.94"/><rect class="cls-1" x="87.14" y="91.22" width="3.94" height="3.94"/><rect class="cls-1" x="87.14" y="107" width="3.94" height="3.94"/><rect class="cls-1" x="79.25" y="114.89" width="3.94" height="3.94"/><rect class="cls-1" x="87.14" y="114.89" width="3.94" height="3.94"/><rect class="cls-1" x="79.25" y="122.78" width="3.94" height="3.94"/><rect class="cls-1" x="87.14" y="122.78" width="3.94" height="3.94"/><rect class="cls-1" x="79.25" y="130.67" width="3.94" height="3.94"/><rect class="cls-1" x="87.14" y="130.67" width="3.94" height="3.94"/><rect class="cls-1" x="95.03" y="99.11" width="3.94" height="3.94"/><rect class="cls-1" x="95.03" y="91.22" width="3.94" height="3.94"/><rect class="cls-1" x="95.03" y="107" width="3.94" height="3.94"/><rect class="cls-1" x="95.03" y="114.89" width="3.94" height="3.94"/><rect class="cls-1" x="95.03" y="122.78" width="3.94" height="3.94"/><rect class="cls-1" x="95.03" y="130.67" width="3.94" height="3.94"/><rect class="cls-1" x="102.92" y="99.11" width="3.94" height="3.94"/><rect class="cls-1" x="102.92" y="107" width="3.94" height="3.94"/><rect class="cls-1" x="102.92" y="91.22" width="3.94" height="3.94"/><rect class="cls-1" x="110.81" y="91.22" width="3.94" height="3.94"/><rect class="cls-1" x="110.81" y="107" width="3.94" height="3.94"/><rect class="cls-1" x="102.92" y="114.89" width="3.94" height="3.94"/><rect class="cls-1" x="110.81" y="114.89" width="3.94" height="3.94"/><rect class="cls-1" x="102.92" y="122.78" width="3.94" height="3.94"/><rect class="cls-1" x="110.81" y="122.78" width="3.94" height="3.94"/><rect class="cls-1" x="102.92" y="130.67" width="3.94" height="3.94"/><rect class="cls-1" x="110.81" y="130.67" width="3.94" height="3.94"/><rect class="cls-1" x="8.26" y="83.33" width="3.94" height="3.94"/><rect class="cls-1" x="16.14" y="83.33" width="3.94" height="3.94"/><rect class="cls-1" x="31.92" y="51.78" width="3.94" height="3.94"/><rect class="cls-1" x="24.03" y="43.89" width="3.94" height="3.94"/><rect class="cls-1" x="31.92" y="59.67" width="3.94" height="3.94"/><rect class="cls-1" x="31.92" y="67.56" width="3.94" height="3.94"/><rect class="cls-1" x="24.03" y="75.44" width="3.94" height="3.94"/><rect class="cls-1" x="31.92" y="75.44" width="3.94" height="3.94"/><rect class="cls-1" x="39.81" y="51.78" width="3.94" height="3.94"/><rect class="cls-1" x="39.81" y="43.89" width="3.94" height="3.94"/><rect class="cls-1" x="39.81" y="59.67" width="3.94" height="3.94"/><rect class="cls-1" x="39.81" y="67.56" width="3.94" height="3.94"/><rect class="cls-1" x="47.7" y="51.78" width="3.94" height="3.94"/><rect class="cls-1" x="47.7" y="59.67" width="3.94" height="3.94"/><rect class="cls-1" x="55.59" y="51.78" width="3.94" height="3.94"/><rect class="cls-1" x="47.7" y="43.89" width="3.94" height="3.94"/><rect class="cls-1" x="55.59" y="43.89" width="3.94" height="3.94"/><rect class="cls-1" x="55.59" y="59.67" width="3.94" height="3.94"/><rect class="cls-1" x="55.59" y="67.56" width="3.94" height="3.94"/><rect class="cls-1" x="63.48" y="51.78" width="3.94" height="3.94"/><rect class="cls-1" x="63.48" y="59.67" width="3.94" height="3.94"/><rect class="cls-1" x="71.37" y="51.78" width="3.94" height="3.94"/><rect class="cls-1" x="63.48" y="43.89" width="3.94" height="3.94"/><rect class="cls-1" x="71.37" y="43.89" width="3.94" height="3.94"/><rect class="cls-1" x="71.37" y="59.67" width="3.94" height="3.94"/><rect class="cls-1" x="63.48" y="67.56" width="3.94" height="3.94"/><rect class="cls-1" x="71.37" y="67.56" width="3.94" height="3.94"/><rect class="cls-1" x="63.48" y="75.44" width="3.94" height="3.94"/><rect class="cls-1" x="71.37" y="75.44" width="3.94" height="3.94"/><rect class="cls-1" x="63.48" y="83.33" width="3.94" height="3.94"/><rect class="cls-1" x="71.37" y="83.33" width="3.94" height="3.94"/><rect class="cls-1" x="79.25" y="51.78" width="3.94" height="3.94"/><rect class="cls-1" x="79.25" y="59.67" width="3.94" height="3.94"/><rect class="cls-1" x="79.25" y="43.89" width="3.94" height="3.94"/><rect class="cls-1" x="87.14" y="43.89" width="3.94" height="3.94"/><rect class="cls-1" x="87.14" y="59.67" width="3.94" height="3.94"/><rect class="cls-1" x="79.25" y="67.56" width="3.94" height="3.94"/><rect class="cls-1" x="87.14" y="67.56" width="3.94" height="3.94"/><rect class="cls-1" x="79.25" y="75.44" width="3.94" height="3.94"/><rect class="cls-1" x="87.14" y="75.44" width="3.94" height="3.94"/><rect class="cls-1" x="79.25" y="83.33" width="3.94" height="3.94"/><rect class="cls-1" x="87.14" y="83.33" width="3.94" height="3.94"/><rect class="cls-1" x="95.03" y="51.78" width="3.94" height="3.94"/><rect class="cls-1" x="95.03" y="43.89" width="3.94" height="3.94"/><rect class="cls-1" x="95.03" y="59.67" width="3.94" height="3.94"/><rect class="cls-1" x="95.03" y="75.44" width="3.94" height="3.94"/><rect class="cls-1" x="95.03" y="83.33" width="3.94" height="3.94"/><rect class="cls-1" x="102.92" y="51.78" width="3.94" height="3.94"/><rect class="cls-1" x="102.92" y="59.67" width="3.94" height="3.94"/><rect class="cls-1" x="102.92" y="43.89" width="3.94" height="3.94"/><rect class="cls-1" x="110.81" y="43.89" width="3.94" height="3.94"/><rect class="cls-1" x="110.81" y="59.67" width="3.94" height="3.94"/><rect class="cls-1" x="102.92" y="67.56" width="3.94" height="3.94"/><rect class="cls-1" x="110.81" y="67.56" width="3.94" height="3.94"/><rect class="cls-1" x="102.92" y="75.44" width="3.94" height="3.94"/><rect class="cls-1" x="110.81" y="75.44" width="3.94" height="3.94"/><rect class="cls-1" x="102.92" y="83.33" width="3.94" height="3.94"/><rect class="cls-1" x="110.81" y="83.33" width="3.94" height="3.94"/><rect class="cls-1" x="118.7" y="99.11" width="3.94" height="3.94"/><rect class="cls-1" x="126.59" y="99.11" width="3.94" height="3.94"/><rect class="cls-1" x="118.7" y="91.22" width="3.94" height="3.94"/><rect class="cls-1" x="126.59" y="91.22" width="3.94" height="3.94"/><rect class="cls-1" x="126.59" y="107" width="3.94" height="3.94"/><rect class="cls-1" x="118.7" y="114.89" width="3.94" height="3.94"/><rect class="cls-1" x="118.7" y="122.78" width="3.94" height="3.94"/><rect class="cls-1" x="126.59" y="122.78" width="3.94" height="3.94"/><rect class="cls-1" x="118.7" y="130.67" width="3.94" height="3.94"/><rect class="cls-1" x="126.59" y="130.67" width="3.94" height="3.94"/><rect class="cls-1" x="134.47" y="99.11" width="3.94" height="3.94"/><rect class="cls-1" x="134.47" y="107" width="3.94" height="3.94"/><rect class="cls-1" x="142.36" y="99.11" width="3.94" height="3.94"/><rect class="cls-1" x="142.36" y="91.22" width="3.94" height="3.94"/><rect class="cls-1" x="142.36" y="107" width="3.94" height="3.94"/><rect class="cls-1" x="134.47" y="114.89" width="3.94" height="3.94"/><rect class="cls-1" x="142.36" y="114.89" width="3.94" height="3.94"/><rect class="cls-1" x="134.47" y="122.78" width="3.94" height="3.94"/><rect class="cls-1" x="142.36" y="122.78" width="3.94" height="3.94"/><rect class="cls-2" x="132.87" y="129.06" width="7.16" height="7.16"/><rect class="cls-1" x="150.25" y="99.11" width="3.94" height="3.94"/><rect class="cls-1" x="150.25" y="91.22" width="3.94" height="3.94"/><rect class="cls-1" x="150.25" y="114.89" width="3.94" height="3.94"/><rect class="cls-1" x="158.14" y="99.11" width="3.94" height="3.94"/><rect class="cls-1" x="158.14" y="107" width="3.94" height="3.94"/><rect class="cls-1" x="166.03" y="99.11" width="3.94" height="3.94"/><rect class="cls-1" x="158.14" y="91.22" width="3.94" height="3.94"/><rect class="cls-1" x="166.03" y="107" width="3.94" height="3.94"/><rect class="cls-1" x="71.37" y="146.44" width="3.94" height="3.94"/><rect class="cls-1" x="71.37" y="138.55" width="3.94" height="3.94"/><rect class="cls-1" x="79.25" y="154.33" width="3.94" height="3.94"/><rect class="cls-1" x="87.14" y="146.44" width="3.94" height="3.94"/><rect class="cls-1" x="79.25" y="138.55" width="3.94" height="3.94"/><rect class="cls-1" x="87.14" y="138.55" width="3.94" height="3.94"/><rect class="cls-1" x="87.14" y="154.33" width="3.94" height="3.94"/><rect class="cls-1" x="87.14" y="162.22" width="3.94" height="3.94"/><rect class="cls-1" x="95.03" y="146.44" width="3.94" height="3.94"/><rect class="cls-1" x="95.03" y="138.55" width="3.94" height="3.94"/><rect class="cls-1" x="95.03" y="154.33" width="3.94" height="3.94"/><rect class="cls-1" x="95.03" y="162.22" width="3.94" height="3.94"/><rect class="cls-1" x="102.92" y="138.55" width="3.94" height="3.94"/><rect class="cls-1" x="110.81" y="138.55" width="3.94" height="3.94"/><rect class="cls-1" x="102.92" y="162.22" width="3.94" height="3.94"/><rect class="cls-1" x="110.81" y="162.22" width="3.94" height="3.94"/><rect class="cls-1" x="102.92" y="170.11" width="3.94" height="3.94"/><rect class="cls-1" x="110.81" y="170.11" width="3.94" height="3.94"/><rect class="cls-1" x="118.7" y="146.44" width="3.94" height="3.94"/><rect class="cls-1" x="118.7" y="154.33" width="3.94" height="3.94"/><rect class="cls-1" x="118.7" y="138.55" width="3.94" height="3.94"/><rect class="cls-1" x="126.59" y="138.55" width="3.94" height="3.94"/><rect class="cls-1" x="126.59" y="154.33" width="3.94" height="3.94"/><rect class="cls-1" x="126.59" y="162.22" width="3.94" height="3.94"/><rect class="cls-1" x="118.7" y="170.11" width="3.94" height="3.94"/><rect class="cls-1" x="118.7" y="178" width="3.94" height="3.94"/><rect class="cls-1" x="126.59" y="178" width="3.94" height="3.94"/><rect class="cls-1" x="134.47" y="162.22" width="3.94" height="3.94"/><rect class="cls-1" x="142.36" y="162.22" width="3.94" height="3.94"/><rect class="cls-1" x="134.47" y="178" width="3.94" height="3.94"/><rect class="cls-1" x="142.36" y="178" width="3.94" height="3.94"/><rect class="cls-1" x="150.25" y="178" width="3.94" height="3.94"/><rect class="cls-1" x="158.14" y="178" width="3.94" height="3.94"/><rect class="cls-2" x="219.64" y="144.84" width="7.16" height="7.16"/><rect class="cls-1" x="221.25" y="154.33" width="3.94" height="3.94"/><rect class="cls-1" x="213.36" y="162.22" width="3.94" height="3.94"/><rect class="cls-1" x="221.25" y="162.22" width="3.94" height="3.94"/><rect class="cls-1" x="213.36" y="170.11" width="3.94" height="3.94"/><rect class="cls-1" x="221.25" y="170.11" width="3.94" height="3.94"/><rect class="cls-1" x="221.25" y="178" width="3.94" height="3.94"/><rect class="cls-1" x="118.7" y="51.78" width="3.94" height="3.94"/><rect class="cls-1" x="118.7" y="59.67" width="3.94" height="3.94"/><rect class="cls-1" x="126.59" y="51.78" width="3.94" height="3.94"/><rect class="cls-1" x="126.59" y="43.89" width="3.94" height="3.94"/><rect class="cls-1" x="126.59" y="59.67" width="3.94" height="3.94"/><rect class="cls-1" x="118.7" y="67.56" width="3.94" height="3.94"/><rect class="cls-1" x="126.59" y="67.56" width="3.94" height="3.94"/><rect class="cls-1" x="118.7" y="75.44" width="3.94" height="3.94"/><rect class="cls-1" x="118.7" y="83.33" width="3.94" height="3.94"/><rect class="cls-1" x="134.47" y="59.67" width="3.94" height="3.94"/><rect class="cls-1" x="142.36" y="51.78" width="3.94" height="3.94"/><rect class="cls-1" x="134.47" y="43.89" width="3.94" height="3.94"/><rect class="cls-1" x="142.36" y="43.89" width="3.94" height="3.94"/><rect class="cls-1" x="134.47" y="67.56" width="3.94" height="3.94"/><rect class="cls-1" x="142.36" y="67.56" width="3.94" height="3.94"/><rect class="cls-1" x="142.36" y="75.44" width="3.94" height="3.94"/><rect class="cls-1" x="142.36" y="83.33" width="3.94" height="3.94"/><rect class="cls-1" x="150.25" y="51.78" width="3.94" height="3.94"/><rect class="cls-1" x="150.25" y="43.89" width="3.94" height="3.94"/><rect class="cls-1" x="150.25" y="59.67" width="3.94" height="3.94"/><rect class="cls-1" x="150.25" y="67.56" width="3.94" height="3.94"/><rect class="cls-1" x="150.25" y="83.33" width="3.94" height="3.94"/><rect class="cls-1" x="158.14" y="51.78" width="3.94" height="3.94"/><rect class="cls-1" x="158.14" y="59.67" width="3.94" height="3.94"/><rect class="cls-1" x="158.14" y="67.56" width="3.94" height="3.94"/><rect class="cls-2" x="156.53" y="73.84" width="7.16" height="7.16"/><rect class="cls-1" x="158.14" y="83.33" width="3.94" height="3.94"/><rect class="cls-1" x="181.81" y="51.78" width="3.94" height="3.94"/><rect class="cls-1" x="181.81" y="43.89" width="3.94" height="3.94"/><rect class="cls-1" x="181.81" y="59.67" width="3.94" height="3.94"/><rect class="cls-1" x="173.92" y="67.56" width="3.94" height="3.94"/><rect class="cls-1" x="181.81" y="67.56" width="3.94" height="3.94"/><rect class="cls-1" x="173.92" y="75.44" width="3.94" height="3.94"/><rect class="cls-1" x="181.81" y="75.44" width="3.94" height="3.94"/><rect class="cls-1" x="181.81" y="83.33" width="3.94" height="3.94"/><rect class="cls-1" x="189.69" y="51.78" width="3.94" height="3.94"/><rect class="cls-1" x="189.69" y="59.67" width="3.94" height="3.94"/><rect class="cls-1" x="197.58" y="51.78" width="3.94" height="3.94"/><rect class="cls-1" x="189.69" y="43.89" width="3.94" height="3.94"/><rect class="cls-1" x="197.58" y="43.89" width="3.94" height="3.94"/><rect class="cls-1" x="197.58" y="59.67" width="3.94" height="3.94"/><rect class="cls-1" x="189.69" y="67.56" width="3.94" height="3.94"/><rect class="cls-1" x="197.58" y="67.56" width="3.94" height="3.94"/><rect class="cls-1" x="189.69" y="75.44" width="3.94" height="3.94"/><rect class="cls-1" x="205.47" y="51.78" width="3.94" height="3.94"/><rect class="cls-1" x="205.47" y="43.89" width="3.94" height="3.94"/><rect class="cls-1" x="205.47" y="59.67" width="3.94" height="3.94"/><rect class="cls-1" x="213.36" y="51.78" width="3.94" height="3.94"/><rect class="cls-1" x="213.36" y="59.67" width="3.94" height="3.94"/><rect class="cls-1" x="221.25" y="43.89" width="3.94" height="3.94"/><rect class="cls-1" x="213.36" y="75.44" width="3.94" height="3.94"/><rect class="cls-1" x="221.25" y="75.44" width="3.94" height="3.94"/><rect class="cls-1" x="221.25" y="67.56" width="3.94" height="3.94"/><rect class="cls-1" x="31.92" y="36" width="3.94" height="3.94"/><rect class="cls-1" x="39.81" y="36" width="3.94" height="3.94"/><rect class="cls-1" x="47.7" y="28.11" width="3.94" height="3.94"/><rect class="cls-1" x="55.59" y="28.11" width="3.94" height="3.94"/><rect class="cls-1" x="47.7" y="36" width="3.94" height="3.94"/><rect class="cls-1" x="55.59" y="36" width="3.94" height="3.94"/><rect class="cls-1" x="63.48" y="28.11" width="3.94" height="3.94"/><rect class="cls-1" x="63.48" y="36" width="3.94" height="3.94"/><rect class="cls-1" x="71.37" y="36" width="3.94" height="3.94"/><rect class="cls-1" x="79.25" y="36" width="3.94" height="3.94"/><rect class="cls-1" x="110.81" y="20.22" width="3.94" height="3.94"/><rect class="cls-1" x="102.92" y="28.11" width="3.94" height="3.94"/><rect class="cls-1" x="110.81" y="28.11" width="3.94" height="3.94"/><rect class="cls-1" x="102.92" y="36" width="3.94" height="3.94"/><rect class="cls-1" x="110.81" y="36" width="3.94" height="3.94"/><rect class="cls-1" x="118.7" y="12.34" width="3.94" height="3.94"/><rect class="cls-1" x="126.59" y="12.34" width="3.94" height="3.94"/><rect class="cls-1" x="118.7" y="20.22" width="3.94" height="3.94"/><rect class="cls-1" x="126.59" y="20.22" width="3.94" height="3.94"/><rect class="cls-1" x="118.7" y="36" width="3.94" height="3.94"/><rect class="cls-1" x="126.59" y="36" width="3.94" height="3.94"/><rect class="cls-1" x="142.36" y="12.34" width="3.94" height="3.94"/><rect class="cls-1" x="142.36" y="20.22" width="3.94" height="3.94"/><rect class="cls-1" x="134.47" y="28.11" width="3.94" height="3.94"/><rect class="cls-1" x="142.36" y="28.11" width="3.94" height="3.94"/><rect class="cls-1" x="134.47" y="36" width="3.94" height="3.94"/><rect class="cls-1" x="150.25" y="12.34" width="3.94" height="3.94"/><rect class="cls-1" x="150.25" y="28.11" width="3.94" height="3.94"/><rect class="cls-1" x="150.25" y="36" width="3.94" height="3.94"/><rect class="cls-1" x="158.14" y="4.45" width="3.94" height="3.94"/><rect class="cls-1" x="158.14" y="12.34" width="3.94" height="3.94"/><rect class="cls-1" x="166.03" y="4.45" width="3.94" height="3.94"/><rect class="cls-1" x="166.03" y="12.34" width="3.94" height="3.94"/><rect class="cls-1" x="158.14" y="20.22" width="3.94" height="3.94"/><rect class="cls-1" x="158.14" y="28.11" width="3.94" height="3.94"/><rect class="cls-1" x="166.03" y="28.11" width="3.94" height="3.94"/><rect class="cls-1" x="173.92" y="4.45" width="3.94" height="3.94"/><rect class="cls-1" x="181.81" y="4.45" width="3.94" height="3.94"/><rect class="cls-1" x="181.81" y="12.34" width="3.94" height="3.94"/><rect class="cls-1" x="173.92" y="20.22" width="3.94" height="3.94"/><rect class="cls-1" x="181.81" y="20.22" width="3.94" height="3.94"/><rect class="cls-1" x="173.92" y="28.11" width="3.94" height="3.94"/><rect class="cls-1" x="181.81" y="28.11" width="3.94" height="3.94"/><rect class="cls-1" x="173.92" y="36" width="3.94" height="3.94"/><rect class="cls-1" x="181.81" y="36" width="3.94" height="3.94"/><rect class="cls-1" x="189.69" y="12.34" width="3.94" height="3.94"/><rect class="cls-1" x="197.58" y="12.34" width="3.94" height="3.94"/><rect class="cls-1" x="189.69" y="20.22" width="3.94" height="3.94"/><rect class="cls-1" x="197.58" y="20.22" width="3.94" height="3.94"/><rect class="cls-1" x="189.69" y="28.11" width="3.94" height="3.94"/><rect class="cls-1" x="197.58" y="28.11" width="3.94" height="3.94"/><rect class="cls-1" x="189.69" y="36" width="3.94" height="3.94"/><rect class="cls-1" x="197.58" y="36" width="3.94" height="3.94"/><rect class="cls-1" x="205.47" y="4.45" width="3.94" height="3.94"/><rect class="cls-1" x="205.47" y="12.34" width="3.94" height="3.94"/><rect class="cls-1" x="205.47" y="20.22" width="3.94" height="3.94"/><rect class="cls-1" x="205.47" y="28.11" width="3.94" height="3.94"/><rect class="cls-1" x="205.47" y="36" width="3.94" height="3.94"/><rect class="cls-1" x="213.36" y="4.45" width="3.94" height="3.94"/><rect class="cls-1" x="221.25" y="12.34" width="3.94" height="3.94"/><rect class="cls-1" x="213.36" y="20.22" width="3.94" height="3.94"/><rect class="cls-1" x="221.25" y="20.22" width="3.94" height="3.94"/><rect class="cls-1" x="213.36" y="28.11" width="3.94" height="3.94"/><rect class="cls-1" x="221.25" y="28.11" width="3.94" height="3.94"/><rect class="cls-1" x="213.36" y="36" width="3.94" height="3.94"/><rect class="cls-1" x="221.25" y="36" width="3.94" height="3.94"/><rect class="cls-1" x="229.14" y="99.11" width="3.94" height="3.94"/><rect class="cls-1" x="229.14" y="107" width="3.94" height="3.94"/><rect class="cls-1" x="237.03" y="99.11" width="3.94" height="3.94"/><rect class="cls-1" x="237.03" y="91.22" width="3.94" height="3.94"/><rect class="cls-1" x="237.03" y="107" width="3.94" height="3.94"/><rect class="cls-1" x="237.03" y="114.89" width="3.94" height="3.94"/><rect class="cls-1" x="229.14" y="122.78" width="3.94" height="3.94"/><rect class="cls-1" x="237.03" y="122.78" width="3.94" height="3.94"/><rect class="cls-1" x="229.14" y="130.67" width="3.94" height="3.94"/><rect class="cls-1" x="244.91" y="107" width="3.94" height="3.94"/><rect class="cls-1" x="252.8" y="99.11" width="3.94" height="3.94"/><rect class="cls-1" x="252.8" y="107" width="3.94" height="3.94"/><rect class="cls-1" x="244.91" y="114.89" width="3.94" height="3.94"/><rect class="cls-1" x="252.8" y="114.89" width="3.94" height="3.94"/><rect class="cls-1" x="244.91" y="122.78" width="3.94" height="3.94"/><rect class="cls-1" x="252.8" y="130.67" width="3.94" height="3.94"/><rect class="cls-1" x="260.69" y="99.11" width="3.94" height="3.94"/><rect class="cls-2" x="259.09" y="105.39" width="7.16" height="7.16"/><rect class="cls-1" x="268.58" y="99.11" width="3.94" height="3.94"/><rect class="cls-1" x="268.58" y="91.22" width="3.94" height="3.94"/><rect class="cls-1" x="268.58" y="107" width="3.94" height="3.94"/><rect class="cls-1" x="260.69" y="114.89" width="3.94" height="3.94"/><rect class="cls-1" x="268.58" y="114.89" width="3.94" height="3.94"/><rect class="cls-1" x="260.69" y="122.78" width="3.94" height="3.94"/><rect class="cls-1" x="268.58" y="122.78" width="3.94" height="3.94"/><rect class="cls-1" x="260.69" y="130.67" width="3.94" height="3.94"/><rect class="cls-1" x="276.47" y="99.11" width="3.94" height="3.94"/><rect class="cls-1" x="276.47" y="91.22" width="3.94" height="3.94"/><rect class="cls-1" x="276.47" y="107" width="3.94" height="3.94"/><rect class="cls-1" x="276.47" y="114.89" width="3.94" height="3.94"/><rect class="cls-1" x="276.47" y="122.78" width="3.94" height="3.94"/><rect class="cls-1" x="284.36" y="99.11" width="3.94" height="3.94"/><rect class="cls-1" x="284.36" y="107" width="3.94" height="3.94"/><rect class="cls-1" x="292.25" y="99.11" width="3.94" height="3.94"/><rect class="cls-1" x="284.36" y="91.22" width="3.94" height="3.94"/><rect class="cls-1" x="292.25" y="91.22" width="3.94" height="3.94"/><rect class="cls-1" x="292.25" y="107" width="3.94" height="3.94"/><rect class="cls-1" x="284.36" y="114.89" width="3.94" height="3.94"/><rect class="cls-1" x="292.25" y="114.89" width="3.94" height="3.94"/><rect class="cls-1" x="284.36" y="130.67" width="3.94" height="3.94"/><rect class="cls-1" x="292.25" y="130.67" width="3.94" height="3.94"/><rect class="cls-1" x="252.8" y="75.44" width="3.94" height="3.94"/><rect class="cls-1" x="252.8" y="83.33" width="3.94" height="3.94"/><rect class="cls-1" x="268.58" y="59.67" width="3.94" height="3.94"/><rect class="cls-1" x="260.69" y="67.56" width="3.94" height="3.94"/><rect class="cls-1" x="268.58" y="67.56" width="3.94" height="3.94"/><rect class="cls-1" x="260.69" y="75.44" width="3.94" height="3.94"/><rect class="cls-1" x="260.69" y="83.33" width="3.94" height="3.94"/><rect class="cls-1" x="276.47" y="59.67" width="3.94" height="3.94"/><rect class="cls-1" x="276.47" y="67.56" width="3.94" height="3.94"/><rect class="cls-1" x="276.47" y="75.44" width="3.94" height="3.94"/><rect class="cls-1" x="276.47" y="83.33" width="3.94" height="3.94"/><rect class="cls-1" x="284.36" y="67.56" width="3.94" height="3.94"/><rect class="cls-1" x="292.25" y="67.56" width="3.94" height="3.94"/><rect class="cls-1" x="284.36" y="75.44" width="3.94" height="3.94"/><rect class="cls-1" x="292.25" y="75.44" width="3.94" height="3.94"/><rect class="cls-1" x="284.36" y="83.33" width="3.94" height="3.94"/><rect class="cls-1" x="292.25" y="83.33" width="3.94" height="3.94"/><rect class="cls-1" x="300.13" y="99.11" width="3.94" height="3.94"/><rect class="cls-1" x="300.13" y="107" width="3.94" height="3.94"/><rect class="cls-1" x="308.02" y="99.11" width="3.94" height="3.94"/><rect class="cls-1" x="300.13" y="91.22" width="3.94" height="3.94"/><rect class="cls-1" x="308.02" y="91.22" width="3.94" height="3.94"/><rect class="cls-1" x="308.02" y="107" width="3.94" height="3.94"/><rect class="cls-1" x="300.13" y="114.89" width="3.94" height="3.94"/><rect class="cls-1" x="300.13" y="122.78" width="3.94" height="3.94"/><rect class="cls-1" x="308.02" y="122.78" width="3.94" height="3.94"/><rect class="cls-1" x="300.13" y="130.67" width="3.94" height="3.94"/><rect class="cls-1" x="308.02" y="130.67" width="3.94" height="3.94"/><rect class="cls-1" x="315.91" y="99.11" width="3.94" height="3.94"/><rect class="cls-1" x="315.91" y="107" width="3.94" height="3.94"/><rect class="cls-1" x="323.8" y="99.11" width="3.94" height="3.94"/><rect class="cls-1" x="315.91" y="91.22" width="3.94" height="3.94"/><rect class="cls-1" x="323.8" y="91.22" width="3.94" height="3.94"/><rect class="cls-1" x="323.8" y="107" width="3.94" height="3.94"/><rect class="cls-2" x="314.31" y="113.28" width="7.16" height="7.16"/><rect class="cls-1" x="323.8" y="114.89" width="3.94" height="3.94"/><rect class="cls-1" x="323.8" y="122.78" width="3.94" height="3.94"/><rect class="cls-1" x="323.8" y="130.67" width="3.94" height="3.94"/><rect class="cls-1" x="331.69" y="99.11" width="3.94" height="3.94"/><rect class="cls-1" x="331.69" y="91.22" width="3.94" height="3.94"/><rect class="cls-1" x="331.69" y="107" width="3.94" height="3.94"/><rect class="cls-1" x="331.69" y="114.89" width="3.94" height="3.94"/><rect class="cls-1" x="331.69" y="122.78" width="3.94" height="3.94"/><rect class="cls-1" x="331.69" y="130.67" width="3.94" height="3.94"/><rect class="cls-1" x="339.58" y="99.11" width="3.94" height="3.94"/><rect class="cls-1" x="339.58" y="107" width="3.94" height="3.94"/><rect class="cls-1" x="347.47" y="99.11" width="3.94" height="3.94"/><rect class="cls-1" x="339.58" y="91.22" width="3.94" height="3.94"/><rect class="cls-1" x="347.47" y="91.22" width="3.94" height="3.94"/><rect class="cls-1" x="347.47" y="107" width="3.94" height="3.94"/><rect class="cls-1" x="339.58" y="114.89" width="3.94" height="3.94"/><rect class="cls-1" x="347.47" y="114.89" width="3.94" height="3.94"/><rect class="cls-1" x="339.58" y="122.78" width="3.94" height="3.94"/><rect class="cls-1" x="347.47" y="122.78" width="3.94" height="3.94"/><rect class="cls-1" x="339.58" y="130.67" width="3.94" height="3.94"/><rect class="cls-1" x="347.47" y="130.67" width="3.94" height="3.94"/><rect class="cls-1" x="355.36" y="99.11" width="3.94" height="3.94"/><rect class="cls-1" x="355.36" y="107" width="3.94" height="3.94"/><rect class="cls-1" x="363.24" y="99.11" width="3.94" height="3.94"/><rect class="cls-1" x="355.36" y="91.22" width="3.94" height="3.94"/><rect class="cls-1" x="363.24" y="91.22" width="3.94" height="3.94"/><rect class="cls-1" x="363.24" y="107" width="3.94" height="3.94"/><rect class="cls-1" x="355.36" y="114.89" width="3.94" height="3.94"/><rect class="cls-1" x="363.24" y="114.89" width="3.94" height="3.94"/><rect class="cls-1" x="355.36" y="122.78" width="3.94" height="3.94"/><rect class="cls-1" x="363.24" y="122.78" width="3.94" height="3.94"/><rect class="cls-1" x="355.36" y="130.67" width="3.94" height="3.94"/><rect class="cls-1" x="363.24" y="130.67" width="3.94" height="3.94"/><rect class="cls-1" x="371.13" y="99.11" width="3.94" height="3.94"/><rect class="cls-1" x="371.13" y="107" width="3.94" height="3.94"/><rect class="cls-1" x="379.02" y="99.11" width="3.94" height="3.94"/><rect class="cls-1" x="371.13" y="91.22" width="3.94" height="3.94"/><rect class="cls-1" x="379.02" y="91.22" width="3.94" height="3.94"/><rect class="cls-1" x="379.02" y="107" width="3.94" height="3.94"/><rect class="cls-1" x="371.13" y="114.89" width="3.94" height="3.94"/><rect class="cls-1" x="379.02" y="114.89" width="3.94" height="3.94"/><rect class="cls-1" x="371.13" y="122.78" width="3.94" height="3.94"/><rect class="cls-1" x="379.02" y="122.78" width="3.94" height="3.94"/><rect class="cls-1" x="371.13" y="130.67" width="3.94" height="3.94"/><rect class="cls-1" x="379.02" y="130.67" width="3.94" height="3.94"/><rect class="cls-1" x="386.91" y="99.11" width="3.94" height="3.94"/><rect class="cls-1" x="386.91" y="107" width="3.94" height="3.94"/><rect class="cls-1" x="386.91" y="114.89" width="3.94" height="3.94"/><rect class="cls-1" x="386.91" y="122.78" width="3.94" height="3.94"/><rect class="cls-1" x="386.91" y="130.67" width="3.94" height="3.94"/><rect class="cls-1" x="394.8" y="99.11" width="3.94" height="3.94"/><rect class="cls-1" x="394.8" y="107" width="3.94" height="3.94"/><rect class="cls-1" x="402.69" y="99.11" width="3.94" height="3.94"/><rect class="cls-1" x="394.8" y="91.22" width="3.94" height="3.94"/><rect class="cls-1" x="402.69" y="91.22" width="3.94" height="3.94"/><rect class="cls-1" x="402.69" y="107" width="3.94" height="3.94"/><rect class="cls-1" x="394.8" y="114.89" width="3.94" height="3.94"/><rect class="cls-1" x="402.69" y="114.89" width="3.94" height="3.94"/><rect class="cls-1" x="394.8" y="122.78" width="3.94" height="3.94"/><rect class="cls-1" x="402.69" y="122.78" width="3.94" height="3.94"/><rect class="cls-1" x="394.8" y="130.67" width="3.94" height="3.94"/><rect class="cls-1" x="402.69" y="130.67" width="3.94" height="3.94"/><rect class="cls-1" x="229.14" y="146.44" width="3.94" height="3.94"/><rect class="cls-1" x="229.14" y="154.33" width="3.94" height="3.94"/><rect class="cls-1" x="237.03" y="146.44" width="3.94" height="3.94"/><rect class="cls-1" x="237.03" y="138.55" width="3.94" height="3.94"/><rect class="cls-1" x="237.03" y="154.33" width="3.94" height="3.94"/><rect class="cls-1" x="229.14" y="162.22" width="3.94" height="3.94"/><rect class="cls-1" x="237.03" y="162.22" width="3.94" height="3.94"/><rect class="cls-1" x="229.14" y="170.11" width="3.94" height="3.94"/><rect class="cls-1" x="237.03" y="170.11" width="3.94" height="3.94"/><rect class="cls-1" x="229.14" y="178" width="3.94" height="3.94"/><rect class="cls-1" x="237.03" y="178" width="3.94" height="3.94"/><rect class="cls-1" x="244.91" y="146.44" width="3.94" height="3.94"/><rect class="cls-1" x="244.91" y="154.33" width="3.94" height="3.94"/><rect class="cls-1" x="252.8" y="146.44" width="3.94" height="3.94"/><rect class="cls-1" x="244.91" y="138.55" width="3.94" height="3.94"/><rect class="cls-1" x="252.8" y="138.55" width="3.94" height="3.94"/><rect class="cls-1" x="252.8" y="154.33" width="3.94" height="3.94"/><rect class="cls-1" x="244.91" y="162.22" width="3.94" height="3.94"/><rect class="cls-1" x="252.8" y="162.22" width="3.94" height="3.94"/><rect class="cls-1" x="244.91" y="170.11" width="3.94" height="3.94"/><rect class="cls-1" x="252.8" y="170.11" width="3.94" height="3.94"/><rect class="cls-1" x="244.91" y="178" width="3.94" height="3.94"/><rect class="cls-1" x="252.8" y="178" width="3.94" height="3.94"/><rect class="cls-1" x="260.69" y="146.44" width="3.94" height="3.94"/><rect class="cls-1" x="260.69" y="154.33" width="3.94" height="3.94"/><rect class="cls-1" x="268.58" y="146.44" width="3.94" height="3.94"/><rect class="cls-1" x="260.69" y="138.55" width="3.94" height="3.94"/><rect class="cls-1" x="268.58" y="154.33" width="3.94" height="3.94"/><rect class="cls-1" x="260.69" y="162.22" width="3.94" height="3.94"/><rect class="cls-1" x="268.58" y="162.22" width="3.94" height="3.94"/><rect class="cls-1" x="260.69" y="170.11" width="3.94" height="3.94"/><rect class="cls-1" x="268.58" y="170.11" width="3.94" height="3.94"/><rect class="cls-1" x="260.69" y="178" width="3.94" height="3.94"/><rect class="cls-1" x="268.58" y="178" width="3.94" height="3.94"/><rect class="cls-1" x="276.47" y="146.44" width="3.94" height="3.94"/><rect class="cls-1" x="276.47" y="138.55" width="3.94" height="3.94"/><rect class="cls-1" x="276.47" y="154.33" width="3.94" height="3.94"/><rect class="cls-1" x="276.47" y="162.22" width="3.94" height="3.94"/><rect class="cls-1" x="276.47" y="170.11" width="3.94" height="3.94"/><rect class="cls-1" x="276.47" y="178" width="3.94" height="3.94"/><rect class="cls-1" x="284.36" y="146.44" width="3.94" height="3.94"/><rect class="cls-1" x="284.36" y="154.33" width="3.94" height="3.94"/><rect class="cls-1" x="292.25" y="146.44" width="3.94" height="3.94"/><rect class="cls-1" x="292.25" y="138.55" width="3.94" height="3.94"/><rect class="cls-1" x="284.36" y="162.22" width="3.94" height="3.94"/><rect class="cls-1" x="292.25" y="162.22" width="3.94" height="3.94"/><rect class="cls-1" x="284.36" y="170.11" width="3.94" height="3.94"/><rect class="cls-1" x="292.25" y="170.11" width="3.94" height="3.94"/><rect class="cls-1" x="284.36" y="178" width="3.94" height="3.94"/><rect class="cls-1" x="292.25" y="178" width="3.94" height="3.94"/><rect class="cls-1" x="300.13" y="146.44" width="3.94" height="3.94"/><rect class="cls-1" x="300.13" y="154.33" width="3.94" height="3.94"/><rect class="cls-1" x="308.02" y="146.44" width="3.94" height="3.94"/><rect class="cls-1" x="300.13" y="138.55" width="3.94" height="3.94"/><rect class="cls-1" x="308.02" y="138.55" width="3.94" height="3.94"/><rect class="cls-1" x="308.02" y="154.33" width="3.94" height="3.94"/><rect class="cls-1" x="308.02" y="162.22" width="3.94" height="3.94"/><rect class="cls-1" x="300.13" y="170.11" width="3.94" height="3.94"/><rect class="cls-1" x="300.13" y="178" width="3.94" height="3.94"/><rect class="cls-2" x="306.42" y="176.39" width="7.16" height="7.16"/><rect class="cls-1" x="315.91" y="154.33" width="3.94" height="3.94"/><rect class="cls-1" x="323.8" y="146.44" width="3.94" height="3.94"/><rect class="cls-1" x="315.91" y="138.55" width="3.94" height="3.94"/><rect class="cls-1" x="323.8" y="138.55" width="3.94" height="3.94"/><rect class="cls-2" x="322.19" y="152.73" width="7.16" height="7.16"/><rect class="cls-1" x="315.91" y="162.22" width="3.94" height="3.94"/><rect class="cls-1" x="323.8" y="162.22" width="3.94" height="3.94"/><rect class="cls-1" x="315.91" y="178" width="3.94" height="3.94"/><rect class="cls-1" x="331.69" y="146.44" width="3.94" height="3.94"/><rect class="cls-1" x="331.69" y="138.55" width="3.94" height="3.94"/><rect class="cls-1" x="339.58" y="146.44" width="3.94" height="3.94"/><rect class="cls-1" x="339.58" y="154.33" width="3.94" height="3.94"/><rect class="cls-1" x="347.47" y="146.44" width="3.94" height="3.94"/><rect class="cls-1" x="339.58" y="138.55" width="3.94" height="3.94"/><rect class="cls-1" x="347.47" y="138.55" width="3.94" height="3.94"/><rect class="cls-1" x="347.47" y="154.33" width="3.94" height="3.94"/><rect class="cls-1" x="347.47" y="162.22" width="3.94" height="3.94"/><rect class="cls-1" x="355.36" y="146.44" width="3.94" height="3.94"/><rect class="cls-1" x="355.36" y="154.33" width="3.94" height="3.94"/><rect class="cls-1" x="363.24" y="146.44" width="3.94" height="3.94"/><rect class="cls-1" x="355.36" y="138.55" width="3.94" height="3.94"/><rect class="cls-1" x="363.24" y="138.55" width="3.94" height="3.94"/><rect class="cls-1" x="363.24" y="154.33" width="3.94" height="3.94"/><rect class="cls-1" x="355.36" y="162.22" width="3.94" height="3.94"/><rect class="cls-1" x="363.24" y="162.22" width="3.94" height="3.94"/><rect class="cls-1" x="355.36" y="170.11" width="3.94" height="3.94"/><rect class="cls-1" x="363.24" y="170.11" width="3.94" height="3.94"/><rect class="cls-1" x="355.36" y="178" width="3.94" height="3.94"/><rect class="cls-1" x="371.13" y="146.44" width="3.94" height="3.94"/><rect class="cls-1" x="371.13" y="154.33" width="3.94" height="3.94"/><rect class="cls-1" x="379.02" y="146.44" width="3.94" height="3.94"/><rect class="cls-1" x="371.13" y="138.55" width="3.94" height="3.94"/><rect class="cls-1" x="379.02" y="138.55" width="3.94" height="3.94"/><rect class="cls-1" x="379.02" y="154.33" width="3.94" height="3.94"/><rect class="cls-2" x="377.41" y="160.61" width="7.16" height="7.16"/><rect class="cls-1" x="386.91" y="146.44" width="3.94" height="3.94"/><rect class="cls-1" x="386.91" y="138.55" width="3.94" height="3.94"/><rect class="cls-1" x="386.91" y="154.33" width="3.94" height="3.94"/><rect class="cls-1" x="386.91" y="162.22" width="3.94" height="3.94"/><rect class="cls-1" x="386.91" y="170.11" width="3.94" height="3.94"/><rect class="cls-1" x="386.91" y="178" width="3.94" height="3.94"/><rect class="cls-1" x="394.8" y="146.44" width="3.94" height="3.94"/><rect class="cls-1" x="394.8" y="154.33" width="3.94" height="3.94"/><rect class="cls-1" x="402.69" y="146.44" width="3.94" height="3.94"/><rect class="cls-1" x="394.8" y="138.55" width="3.94" height="3.94"/><rect class="cls-1" x="402.69" y="138.55" width="3.94" height="3.94"/><rect class="cls-1" x="402.69" y="154.33" width="3.94" height="3.94"/><rect class="cls-1" x="394.8" y="162.22" width="3.94" height="3.94"/><rect class="cls-1" x="402.69" y="162.22" width="3.94" height="3.94"/><rect class="cls-1" x="394.8" y="170.11" width="3.94" height="3.94"/><rect class="cls-1" x="402.69" y="170.11" width="3.94" height="3.94"/><rect class="cls-1" x="394.8" y="178" width="3.94" height="3.94"/><rect class="cls-1" x="300.13" y="51.78" width="3.94" height="3.94"/><rect class="cls-1" x="300.13" y="59.67" width="3.94" height="3.94"/><rect class="cls-1" x="300.13" y="43.89" width="3.94" height="3.94"/><rect class="cls-1" x="308.02" y="59.67" width="3.94" height="3.94"/><rect class="cls-1" x="300.13" y="67.56" width="3.94" height="3.94"/><rect class="cls-1" x="308.02" y="67.56" width="3.94" height="3.94"/><rect class="cls-1" x="300.13" y="75.44" width="3.94" height="3.94"/><rect class="cls-1" x="308.02" y="75.44" width="3.94" height="3.94"/><rect class="cls-1" x="300.13" y="83.33" width="3.94" height="3.94"/><rect class="cls-1" x="308.02" y="83.33" width="3.94" height="3.94"/><rect class="cls-1" x="315.91" y="51.78" width="3.94" height="3.94"/><rect class="cls-1" x="315.91" y="59.67" width="3.94" height="3.94"/><rect class="cls-1" x="323.8" y="51.78" width="3.94" height="3.94"/><rect class="cls-1" x="315.91" y="43.89" width="3.94" height="3.94"/><rect class="cls-1" x="323.8" y="43.89" width="3.94" height="3.94"/><rect class="cls-1" x="323.8" y="59.67" width="3.94" height="3.94"/><rect class="cls-1" x="315.91" y="67.56" width="3.94" height="3.94"/><rect class="cls-1" x="323.8" y="67.56" width="3.94" height="3.94"/><rect class="cls-1" x="315.91" y="75.44" width="3.94" height="3.94"/><rect class="cls-1" x="323.8" y="75.44" width="3.94" height="3.94"/><rect class="cls-1" x="315.91" y="83.33" width="3.94" height="3.94"/><rect class="cls-1" x="323.8" y="83.33" width="3.94" height="3.94"/><rect class="cls-1" x="331.69" y="51.78" width="3.94" height="3.94"/><rect class="cls-1" x="331.69" y="43.89" width="3.94" height="3.94"/><rect class="cls-1" x="331.69" y="59.67" width="3.94" height="3.94"/><rect class="cls-1" x="331.69" y="67.56" width="3.94" height="3.94"/><rect class="cls-1" x="331.69" y="75.44" width="3.94" height="3.94"/><rect class="cls-1" x="331.69" y="83.33" width="3.94" height="3.94"/><rect class="cls-1" x="339.58" y="51.78" width="3.94" height="3.94"/><rect class="cls-1" x="339.58" y="59.67" width="3.94" height="3.94"/><rect class="cls-1" x="347.47" y="51.78" width="3.94" height="3.94"/><rect class="cls-1" x="339.58" y="43.89" width="3.94" height="3.94"/><rect class="cls-1" x="347.47" y="43.89" width="3.94" height="3.94"/><rect class="cls-1" x="347.47" y="59.67" width="3.94" height="3.94"/><rect class="cls-1" x="339.58" y="67.56" width="3.94" height="3.94"/><rect class="cls-1" x="347.47" y="67.56" width="3.94" height="3.94"/><rect class="cls-1" x="339.58" y="75.44" width="3.94" height="3.94"/><rect class="cls-1" x="347.47" y="75.44" width="3.94" height="3.94"/><rect class="cls-1" x="339.58" y="83.33" width="3.94" height="3.94"/><rect class="cls-1" x="347.47" y="83.33" width="3.94" height="3.94"/><rect class="cls-1" x="355.36" y="51.78" width="3.94" height="3.94"/><rect class="cls-1" x="355.36" y="59.67" width="3.94" height="3.94"/><rect class="cls-1" x="363.24" y="51.78" width="3.94" height="3.94"/><rect class="cls-1" x="355.36" y="43.89" width="3.94" height="3.94"/><rect class="cls-1" x="363.24" y="43.89" width="3.94" height="3.94"/><rect class="cls-1" x="363.24" y="59.67" width="3.94" height="3.94"/><rect class="cls-1" x="355.36" y="67.56" width="3.94" height="3.94"/><rect class="cls-1" x="363.24" y="67.56" width="3.94" height="3.94"/><rect class="cls-1" x="355.36" y="75.44" width="3.94" height="3.94"/><rect class="cls-1" x="363.24" y="75.44" width="3.94" height="3.94"/><rect class="cls-1" x="355.36" y="83.33" width="3.94" height="3.94"/><rect class="cls-1" x="363.24" y="83.33" width="3.94" height="3.94"/><rect class="cls-1" x="371.13" y="51.78" width="3.94" height="3.94"/><rect class="cls-1" x="371.13" y="59.67" width="3.94" height="3.94"/><rect class="cls-1" x="379.02" y="51.78" width="3.94" height="3.94"/><rect class="cls-1" x="371.13" y="43.89" width="3.94" height="3.94"/><rect class="cls-1" x="379.02" y="43.89" width="3.94" height="3.94"/><rect class="cls-1" x="379.02" y="59.67" width="3.94" height="3.94"/><rect class="cls-1" x="371.13" y="67.56" width="3.94" height="3.94"/><rect class="cls-2" x="377.41" y="65.95" width="7.16" height="7.16"/><rect class="cls-1" x="371.13" y="75.44" width="3.94" height="3.94"/><rect class="cls-1" x="379.02" y="75.44" width="3.94" height="3.94"/><rect class="cls-1" x="371.13" y="83.33" width="3.94" height="3.94"/><rect class="cls-1" x="379.02" y="83.33" width="3.94" height="3.94"/><rect class="cls-1" x="386.91" y="51.78" width="3.94" height="3.94"/><rect class="cls-1" x="386.91" y="43.89" width="3.94" height="3.94"/><rect class="cls-1" x="386.91" y="59.67" width="3.94" height="3.94"/><rect class="cls-1" x="386.91" y="67.56" width="3.94" height="3.94"/><rect class="cls-1" x="386.91" y="75.44" width="3.94" height="3.94"/><rect class="cls-1" x="386.91" y="83.33" width="3.94" height="3.94"/><rect class="cls-1" x="394.8" y="51.78" width="3.94" height="3.94"/><rect class="cls-1" x="394.8" y="59.67" width="3.94" height="3.94"/><rect class="cls-1" x="402.69" y="51.78" width="3.94" height="3.94"/><rect class="cls-1" x="394.8" y="43.89" width="3.94" height="3.94"/><rect class="cls-1" x="402.69" y="43.89" width="3.94" height="3.94"/><rect class="cls-1" x="402.69" y="59.67" width="3.94" height="3.94"/><rect class="cls-1" x="394.8" y="67.56" width="3.94" height="3.94"/><rect class="cls-1" x="402.69" y="67.56" width="3.94" height="3.94"/><rect class="cls-1" x="394.8" y="75.44" width="3.94" height="3.94"/><rect class="cls-1" x="402.69" y="75.44" width="3.94" height="3.94"/><rect class="cls-1" x="394.8" y="83.33" width="3.94" height="3.94"/><rect class="cls-1" x="402.69" y="83.33" width="3.94" height="3.94"/><rect class="cls-1" x="229.14" y="20.22" width="3.94" height="3.94"/><rect class="cls-1" x="252.8" y="28.11" width="3.94" height="3.94"/><rect class="cls-1" x="252.8" y="36" width="3.94" height="3.94"/><rect class="cls-1" x="260.69" y="28.11" width="3.94" height="3.94"/><rect class="cls-1" x="292.25" y="12.34" width="3.94" height="3.94"/><rect class="cls-1" x="284.36" y="20.22" width="3.94" height="3.94"/><rect class="cls-1" x="292.25" y="20.22" width="3.94" height="3.94"/><rect class="cls-1" x="308.02" y="36" width="3.94" height="3.94"/><rect class="cls-1" x="323.8" y="4.45" width="3.94" height="3.94"/><rect class="cls-1" x="331.69" y="12.34" width="3.94" height="3.94"/><rect class="cls-1" x="331.69" y="36" width="3.94" height="3.94"/><rect class="cls-1" x="339.58" y="12.34" width="3.94" height="3.94"/><rect class="cls-1" x="339.58" y="20.22" width="3.94" height="3.94"/><rect class="cls-1" x="347.47" y="20.22" width="3.94" height="3.94"/><rect class="cls-1" x="339.58" y="28.11" width="3.94" height="3.94"/><rect class="cls-1" x="347.47" y="28.11" width="3.94" height="3.94"/><rect class="cls-1" x="339.58" y="36" width="3.94" height="3.94"/><rect class="cls-1" x="347.47" y="36" width="3.94" height="3.94"/><rect class="cls-1" x="355.36" y="20.22" width="3.94" height="3.94"/><rect class="cls-1" x="355.36" y="28.11" width="3.94" height="3.94"/><rect class="cls-1" x="363.24" y="28.11" width="3.94" height="3.94"/><rect class="cls-1" x="355.36" y="36" width="3.94" height="3.94"/><rect class="cls-1" x="363.24" y="36" width="3.94" height="3.94"/><rect class="cls-1" x="379.02" y="28.11" width="3.94" height="3.94"/><rect class="cls-1" x="371.13" y="36" width="3.94" height="3.94"/><rect class="cls-1" x="379.02" y="36" width="3.94" height="3.94"/><rect class="cls-1" x="386.91" y="12.34" width="3.94" height="3.94"/><rect class="cls-1" x="386.91" y="20.22" width="3.94" height="3.94"/><rect class="cls-1" x="386.91" y="36" width="3.94" height="3.94"/><rect class="cls-1" x="394.8" y="12.34" width="3.94" height="3.94"/><rect class="cls-1" x="402.69" y="12.34" width="3.94" height="3.94"/><rect class="cls-1" x="394.8" y="20.22" width="3.94" height="3.94"/><rect class="cls-1" x="394.8" y="28.11" width="3.94" height="3.94"/><rect class="cls-1" x="402.69" y="28.11" width="3.94" height="3.94"/><rect class="cls-1" x="394.8" y="36" width="3.94" height="3.94"/><rect class="cls-1" x="402.69" y="36" width="3.94" height="3.94"/><rect class="cls-1" x="410.58" y="99.11" width="3.94" height="3.94"/><rect class="cls-1" x="410.58" y="107" width="3.94" height="3.94"/><rect class="cls-1" x="418.46" y="99.11" width="3.94" height="3.94"/><rect class="cls-1" x="410.58" y="91.22" width="3.94" height="3.94"/><rect class="cls-1" x="418.46" y="91.22" width="3.94" height="3.94"/><rect class="cls-1" x="418.46" y="107" width="3.94" height="3.94"/><rect class="cls-1" x="410.58" y="114.89" width="3.94" height="3.94"/><rect class="cls-1" x="418.46" y="114.89" width="3.94" height="3.94"/><rect class="cls-1" x="410.58" y="122.78" width="3.94" height="3.94"/><rect class="cls-1" x="418.46" y="122.78" width="3.94" height="3.94"/><rect class="cls-1" x="410.58" y="130.67" width="3.94" height="3.94"/><rect class="cls-1" x="418.46" y="130.67" width="3.94" height="3.94"/><rect class="cls-1" x="426.35" y="99.11" width="3.94" height="3.94"/><rect class="cls-1" x="426.35" y="107" width="3.94" height="3.94"/><rect class="cls-1" x="434.24" y="99.11" width="3.94" height="3.94"/><rect class="cls-1" x="426.35" y="91.22" width="3.94" height="3.94"/><rect class="cls-1" x="434.24" y="91.22" width="3.94" height="3.94"/><rect class="cls-1" x="434.24" y="107" width="3.94" height="3.94"/><rect class="cls-1" x="426.35" y="114.89" width="3.94" height="3.94"/><rect class="cls-1" x="426.35" y="122.78" width="3.94" height="3.94"/><rect class="cls-1" x="434.24" y="130.67" width="3.94" height="3.94"/><rect class="cls-1" x="442.13" y="99.11" width="3.94" height="3.94"/><rect class="cls-1" x="442.13" y="107" width="3.94" height="3.94"/><rect class="cls-1" x="442.13" y="114.89" width="3.94" height="3.94"/><rect class="cls-1" x="442.13" y="122.78" width="3.94" height="3.94"/><rect class="cls-1" x="442.13" y="130.67" width="3.94" height="3.94"/><rect class="cls-1" x="457.91" y="91.22" width="3.94" height="3.94"/><rect class="cls-1" x="410.58" y="146.44" width="3.94" height="3.94"/><rect class="cls-2" x="408.97" y="152.73" width="7.16" height="7.16"/><rect class="cls-1" x="418.46" y="146.44" width="3.94" height="3.94"/><rect class="cls-1" x="410.58" y="138.55" width="3.94" height="3.94"/><rect class="cls-1" x="418.46" y="138.55" width="3.94" height="3.94"/><rect class="cls-1" x="418.46" y="154.33" width="3.94" height="3.94"/><rect class="cls-1" x="418.46" y="170.11" width="3.94" height="3.94"/><rect class="cls-1" x="434.24" y="138.55" width="3.94" height="3.94"/><rect class="cls-1" x="426.35" y="170.11" width="3.94" height="3.94"/><rect class="cls-1" x="426.35" y="178" width="3.94" height="3.94"/><rect class="cls-1" x="410.58" y="51.78" width="3.94" height="3.94"/><rect class="cls-1" x="410.58" y="59.67" width="3.94" height="3.94"/><rect class="cls-1" x="418.46" y="51.78" width="3.94" height="3.94"/><rect class="cls-1" x="410.58" y="43.89" width="3.94" height="3.94"/><rect class="cls-1" x="418.46" y="43.89" width="3.94" height="3.94"/><rect class="cls-1" x="418.46" y="59.67" width="3.94" height="3.94"/><rect class="cls-1" x="410.58" y="67.56" width="3.94" height="3.94"/><rect class="cls-1" x="418.46" y="67.56" width="3.94" height="3.94"/><rect class="cls-1" x="410.58" y="75.44" width="3.94" height="3.94"/><rect class="cls-1" x="418.46" y="75.44" width="3.94" height="3.94"/><rect class="cls-1" x="410.58" y="83.33" width="3.94" height="3.94"/><rect class="cls-1" x="418.46" y="83.33" width="3.94" height="3.94"/><rect class="cls-1" x="426.35" y="51.78" width="3.94" height="3.94"/><rect class="cls-1" x="426.35" y="59.67" width="3.94" height="3.94"/><rect class="cls-1" x="434.24" y="51.78" width="3.94" height="3.94"/><rect class="cls-1" x="426.35" y="43.89" width="3.94" height="3.94"/><rect class="cls-1" x="434.24" y="43.89" width="3.94" height="3.94"/><rect class="cls-1" x="434.24" y="59.67" width="3.94" height="3.94"/><rect class="cls-1" x="426.35" y="67.56" width="3.94" height="3.94"/><rect class="cls-1" x="434.24" y="67.56" width="3.94" height="3.94"/><rect class="cls-1" x="426.35" y="75.44" width="3.94" height="3.94"/><rect class="cls-1" x="426.35" y="83.33" width="3.94" height="3.94"/><rect class="cls-1" x="442.13" y="51.78" width="3.94" height="3.94"/><rect class="cls-1" x="442.13" y="43.89" width="3.94" height="3.94"/><rect class="cls-1" x="442.13" y="59.67" width="3.94" height="3.94"/><rect class="cls-1" x="450.02" y="51.78" width="3.94" height="3.94"/><rect class="cls-1" x="450.02" y="59.67" width="3.94" height="3.94"/><rect class="cls-1" x="457.91" y="51.78" width="3.94" height="3.94"/><rect class="cls-1" x="450.02" y="43.89" width="3.94" height="3.94"/><rect class="cls-1" x="457.91" y="43.89" width="3.94" height="3.94"/><rect class="cls-1" x="457.91" y="59.67" width="3.94" height="3.94"/><rect class="cls-1" x="450.02" y="67.56" width="3.94" height="3.94"/><rect class="cls-1" x="450.02" y="75.44" width="3.94" height="3.94"/><rect class="cls-1" x="457.91" y="75.44" width="3.94" height="3.94"/><rect class="cls-1" x="450.02" y="83.33" width="3.94" height="3.94"/><rect class="cls-1" x="457.91" y="83.33" width="3.94" height="3.94"/><rect class="cls-1" x="465.8" y="51.78" width="3.94" height="3.94"/><rect class="cls-1" x="465.8" y="43.89" width="3.94" height="3.94"/><rect class="cls-1" x="142.36" y="225.33" width="3.94" height="3.94"/><rect class="cls-2" x="132.87" y="215.83" width="7.16" height="7.16"/><rect class="cls-1" x="142.36" y="217.44" width="3.94" height="3.94"/><rect class="cls-1" x="142.36" y="233.22" width="3.94" height="3.94"/><rect class="cls-1" x="142.36" y="241.11" width="3.94" height="3.94"/><rect class="cls-1" x="134.47" y="249" width="3.94" height="3.94"/><rect class="cls-1" x="142.36" y="249" width="3.94" height="3.94"/><rect class="cls-1" x="134.47" y="256.88" width="3.94" height="3.94"/><rect class="cls-1" x="142.36" y="256.88" width="3.94" height="3.94"/><rect class="cls-1" x="150.25" y="225.33" width="3.94" height="3.94"/><rect class="cls-1" x="150.25" y="217.44" width="3.94" height="3.94"/><rect class="cls-1" x="150.25" y="233.22" width="3.94" height="3.94"/><rect class="cls-1" x="150.25" y="241.11" width="3.94" height="3.94"/><rect class="cls-1" x="150.25" y="249" width="3.94" height="3.94"/><rect class="cls-1" x="150.25" y="256.88" width="3.94" height="3.94"/><rect class="cls-1" x="158.14" y="225.33" width="3.94" height="3.94"/><rect class="cls-1" x="158.14" y="233.22" width="3.94" height="3.94"/><rect class="cls-1" x="166.03" y="225.33" width="3.94" height="3.94"/><rect class="cls-1" x="158.14" y="217.44" width="3.94" height="3.94"/><rect class="cls-1" x="166.03" y="217.44" width="3.94" height="3.94"/><rect class="cls-1" x="166.03" y="233.22" width="3.94" height="3.94"/><rect class="cls-1" x="158.14" y="241.11" width="3.94" height="3.94"/><rect class="cls-2" x="164.42" y="239.5" width="7.16" height="7.16"/><rect class="cls-1" x="158.14" y="249" width="3.94" height="3.94"/><rect class="cls-1" x="158.14" y="256.88" width="3.94" height="3.94"/><rect class="cls-1" x="166.03" y="249" width="3.94" height="3.94"/><rect class="cls-1" x="173.92" y="225.33" width="3.94" height="3.94"/><rect class="cls-1" x="173.92" y="233.22" width="3.94" height="3.94"/><rect class="cls-1" x="181.81" y="225.33" width="3.94" height="3.94"/><rect class="cls-1" x="173.92" y="217.44" width="3.94" height="3.94"/><rect class="cls-1" x="181.81" y="217.44" width="3.94" height="3.94"/><rect class="cls-1" x="134.47" y="272.66" width="3.94" height="3.94"/><rect class="cls-1" x="142.36" y="272.66" width="3.94" height="3.94"/><rect class="cls-1" x="134.47" y="264.77" width="3.94" height="3.94"/><rect class="cls-1" x="142.36" y="264.77" width="3.94" height="3.94"/><rect class="cls-1" x="142.36" y="280.55" width="3.94" height="3.94"/><rect class="cls-1" x="150.25" y="272.66" width="3.94" height="3.94"/><rect class="cls-1" x="150.25" y="264.77" width="3.94" height="3.94"/><rect class="cls-1" x="150.25" y="288.44" width="3.94" height="3.94"/><rect class="cls-1" x="126.59" y="185.89" width="3.94" height="3.94"/><rect class="cls-1" x="118.7" y="193.77" width="3.94" height="3.94"/><rect class="cls-1" x="126.59" y="193.77" width="3.94" height="3.94"/><rect class="cls-1" x="118.7" y="201.66" width="3.94" height="3.94"/><rect class="cls-1" x="126.59" y="201.66" width="3.94" height="3.94"/><rect class="cls-1" x="126.59" y="209.55" width="3.94" height="3.94"/><rect class="cls-1" x="134.47" y="185.89" width="3.94" height="3.94"/><rect class="cls-1" x="142.36" y="185.89" width="3.94" height="3.94"/><rect class="cls-1" x="134.47" y="193.77" width="3.94" height="3.94"/><rect class="cls-1" x="142.36" y="193.77" width="3.94" height="3.94"/><rect class="cls-1" x="134.47" y="201.66" width="3.94" height="3.94"/><rect class="cls-1" x="142.36" y="201.66" width="3.94" height="3.94"/><rect class="cls-1" x="134.47" y="209.55" width="3.94" height="3.94"/><rect class="cls-1" x="142.36" y="209.55" width="3.94" height="3.94"/><rect class="cls-1" x="150.25" y="185.89" width="3.94" height="3.94"/><rect class="cls-1" x="150.25" y="193.77" width="3.94" height="3.94"/><rect class="cls-1" x="150.25" y="201.66" width="3.94" height="3.94"/><rect class="cls-1" x="150.25" y="209.55" width="3.94" height="3.94"/><rect class="cls-1" x="158.14" y="185.89" width="3.94" height="3.94"/><rect class="cls-1" x="166.03" y="185.89" width="3.94" height="3.94"/><rect class="cls-1" x="158.14" y="193.77" width="3.94" height="3.94"/><rect class="cls-1" x="166.03" y="193.77" width="3.94" height="3.94"/><rect class="cls-1" x="158.14" y="201.66" width="3.94" height="3.94"/><rect class="cls-1" x="166.03" y="201.66" width="3.94" height="3.94"/><rect class="cls-1" x="158.14" y="209.55" width="3.94" height="3.94"/><rect class="cls-1" x="166.03" y="209.55" width="3.94" height="3.94"/><rect class="cls-1" x="173.92" y="193.77" width="3.94" height="3.94"/><rect class="cls-2" x="180.2" y="192.17" width="7.16" height="7.16"/><rect class="cls-1" x="173.92" y="201.66" width="3.94" height="3.94"/><rect class="cls-1" x="181.81" y="201.66" width="3.94" height="3.94"/><rect class="cls-1" x="173.92" y="209.55" width="3.94" height="3.94"/><rect class="cls-1" x="181.81" y="209.55" width="3.94" height="3.94"/><rect class="cls-1" x="189.69" y="201.66" width="3.94" height="3.94"/><rect class="cls-1" x="260.69" y="225.33" width="3.94" height="3.94"/><rect class="cls-1" x="268.58" y="225.33" width="3.94" height="3.94"/><rect class="cls-1" x="260.69" y="217.44" width="3.94" height="3.94"/><rect class="cls-1" x="268.58" y="217.44" width="3.94" height="3.94"/><rect class="cls-1" x="268.58" y="233.22" width="3.94" height="3.94"/><rect class="cls-1" x="268.58" y="241.11" width="3.94" height="3.94"/><rect class="cls-1" x="276.47" y="225.33" width="3.94" height="3.94"/><rect class="cls-1" x="276.47" y="217.44" width="3.94" height="3.94"/><rect class="cls-1" x="276.47" y="233.22" width="3.94" height="4.9"/><rect class="cls-1" x="276.47" y="241.11" width="3.94" height="3.94"/><rect class="cls-1" x="284.36" y="225.33" width="3.94" height="3.94"/><rect class="cls-2" x="282.75" y="231.61" width="7.16" height="7.16"/><rect class="cls-1" x="292.25" y="225.33" width="3.94" height="3.94"/><rect class="cls-1" x="284.36" y="217.44" width="3.94" height="3.94"/><rect class="cls-1" x="292.25" y="217.44" width="3.94" height="3.94"/><rect class="cls-2" x="251.2" y="184.28" width="7.16" height="7.16"/><rect class="cls-1" x="252.8" y="193.77" width="3.94" height="3.94"/><rect class="cls-1" x="260.69" y="185.89" width="3.94" height="3.94"/><rect class="cls-1" x="268.58" y="185.89" width="3.94" height="3.94"/><rect class="cls-1" x="260.69" y="193.77" width="3.94" height="3.94"/><rect class="cls-1" x="268.58" y="193.77" width="3.94" height="3.94"/><rect class="cls-1" x="260.69" y="201.66" width="3.94" height="3.94"/><rect class="cls-1" x="268.58" y="201.66" width="3.94" height="3.94"/><rect class="cls-1" x="260.69" y="209.55" width="3.94" height="3.94"/><rect class="cls-1" x="268.58" y="209.55" width="3.94" height="3.94"/><rect class="cls-1" x="276.47" y="185.89" width="3.94" height="3.94"/><rect class="cls-1" x="276.47" y="193.77" width="3.94" height="3.94"/><rect class="cls-1" x="276.47" y="201.66" width="3.94" height="3.94"/><rect class="cls-1" x="276.47" y="209.55" width="3.94" height="3.94"/><rect class="cls-1" x="284.36" y="185.89" width="3.94" height="3.94"/><rect class="cls-1" x="292.25" y="185.89" width="3.94" height="3.94"/><rect class="cls-1" x="284.36" y="193.77" width="3.94" height="3.94"/><rect class="cls-1" x="284.36" y="201.66" width="3.94" height="3.94"/><rect class="cls-1" x="292.25" y="201.66" width="3.94" height="3.94"/><rect class="cls-1" x="284.36" y="209.55" width="3.94" height="3.94"/><rect class="cls-1" x="292.25" y="209.55" width="3.94" height="3.94"/><rect class="cls-1" x="308.02" y="225.33" width="3.94" height="3.94"/><rect class="cls-1" x="308.02" y="217.44" width="3.94" height="3.94"/><rect class="cls-1" x="315.91" y="217.44" width="3.94" height="3.94"/><rect class="cls-1" x="300.13" y="185.89" width="3.94" height="3.94"/><rect class="cls-1" x="308.02" y="185.89" width="3.94" height="3.94"/><rect class="cls-1" x="300.13" y="193.77" width="3.94" height="3.94"/><rect class="cls-1" x="300.13" y="201.66" width="3.94" height="3.94"/><rect class="cls-1" x="300.13" y="209.55" width="3.94" height="3.94"/><rect class="cls-1" x="315.91" y="209.55" width="3.94" height="3.94"/><rect class="cls-1" x="386.91" y="185.89" width="3.94" height="3.94"/><rect class="cls-1" x="394.8" y="185.89" width="3.94" height="3.94"/><rect class="cls-1" x="394.8" y="193.77" width="3.94" height="3.94"/><rect class="cls-1" x="402.69" y="193.77" width="3.94" height="3.94"/><rect class="cls-1" x="402.69" y="201.66" width="3.94" height="3.94"/><rect class="cls-1" x="410.58" y="233.22" width="3.94" height="3.94"/><rect class="cls-1" x="418.46" y="225.33" width="3.94" height="3.94"/><rect class="cls-1" x="418.46" y="233.22" width="3.94" height="3.94"/><rect class="cls-1" x="410.58" y="241.11" width="3.94" height="3.94"/><rect class="cls-1" x="418.46" y="241.11" width="3.94" height="3.94"/><rect class="cls-1" x="410.58" y="249" width="3.94" height="3.94"/><rect class="cls-1" x="418.46" y="249" width="3.94" height="3.94"/><rect class="cls-1" x="426.35" y="225.33" width="3.94" height="3.94"/><rect class="cls-1" x="426.35" y="233.22" width="3.94" height="3.94"/><rect class="cls-1" x="434.24" y="225.33" width="3.94" height="3.94"/><rect class="cls-1" x="426.35" y="217.44" width="3.94" height="3.94"/><rect class="cls-1" x="434.24" y="217.44" width="3.94" height="3.94"/><rect class="cls-1" x="434.24" y="233.22" width="3.94" height="3.94"/><rect class="cls-1" x="426.35" y="241.11" width="3.94" height="3.94"/><rect class="cls-2" x="432.63" y="239.5" width="7.16" height="7.16"/><rect class="cls-1" x="442.13" y="225.33" width="3.94" height="3.94"/><rect class="cls-1" x="442.13" y="217.44" width="3.94" height="3.94"/><rect class="cls-1" x="442.13" y="233.22" width="3.94" height="3.94"/><rect class="cls-1" x="442.13" y="241.11" width="3.94" height="3.94"/><rect class="cls-1" x="442.13" y="249" width="3.94" height="3.94"/><rect class="cls-1" x="442.13" y="256.88" width="3.94" height="3.94"/><rect class="cls-1" x="450.02" y="225.33" width="3.94" height="3.94"/><rect class="cls-1" x="450.02" y="233.22" width="3.94" height="3.94"/><rect class="cls-1" x="457.91" y="225.33" width="3.94" height="3.94"/><rect class="cls-1" x="450.02" y="217.44" width="3.94" height="3.94"/><rect class="cls-1" x="457.91" y="217.44" width="3.94" height="3.94"/><rect class="cls-1" x="457.91" y="233.22" width="3.94" height="3.94"/><rect class="cls-1" x="450.02" y="241.11" width="3.94" height="3.94"/><rect class="cls-1" x="457.91" y="241.11" width="3.94" height="3.94"/><rect class="cls-1" x="450.02" y="249" width="3.94" height="3.94"/><rect class="cls-1" x="457.91" y="249" width="3.94" height="3.94"/><rect class="cls-1" x="450.02" y="256.88" width="3.94" height="3.94"/><rect class="cls-1" x="457.91" y="256.88" width="3.94" height="3.94"/><rect class="cls-1" x="465.8" y="225.33" width="3.94" height="3.94"/><rect class="cls-1" x="465.8" y="233.22" width="3.94" height="3.94"/><rect class="cls-1" x="465.8" y="241.11" width="3.94" height="3.94"/><rect class="cls-1" x="465.8" y="249" width="3.94" height="3.94"/><rect class="cls-1" x="497.35" y="256.88" width="3.94" height="3.94"/><rect class="cls-1" x="450.02" y="272.66" width="3.94" height="3.94"/><rect class="cls-1" x="450.02" y="264.77" width="3.94" height="3.94"/><rect class="cls-1" x="473.69" y="280.55" width="3.94" height="3.94"/><rect class="cls-1" x="481.57" y="272.66" width="3.94" height="3.94"/><rect class="cls-1" x="481.57" y="280.55" width="3.94" height="3.94"/><rect class="cls-1" x="489.46" y="272.66" width="3.94" height="3.94"/><rect class="cls-1" x="489.46" y="264.77" width="3.94" height="3.94"/><rect class="cls-1" x="497.35" y="264.77" width="3.94" height="3.94"/><rect class="cls-1" x="410.58" y="185.89" width="3.94" height="3.94"/><rect class="cls-1" x="418.46" y="185.89" width="3.94" height="3.94"/><rect class="cls-1" x="410.58" y="193.77" width="3.94" height="3.94"/><rect class="cls-1" x="418.46" y="193.77" width="3.94" height="3.94"/><rect class="cls-1" x="418.46" y="201.66" width="3.94" height="3.94"/><rect class="cls-1" x="426.35" y="193.77" width="3.94" height="3.94"/><rect class="cls-1" x="426.35" y="209.55" width="3.94" height="3.94"/><rect class="cls-1" x="442.13" y="193.77" width="3.94" height="3.94"/><rect class="cls-1" x="442.13" y="209.55" width="3.94" height="3.94"/><rect class="cls-1" x="450.02" y="193.77" width="3.94" height="3.94"/><rect class="cls-1" x="450.02" y="201.66" width="3.94" height="3.94"/><rect class="cls-1" x="457.91" y="201.66" width="3.94" height="3.94"/><rect class="cls-1" x="450.02" y="209.55" width="3.94" height="3.94"/><rect class="cls-1" x="465.8" y="201.66" width="3.94" height="3.94"/><rect class="cls-1" x="465.8" y="209.55" width="3.94" height="3.94"/><rect class="cls-1" x="410.58" y="28.11" width="3.94" height="3.94"/><rect class="cls-1" x="418.46" y="28.11" width="3.94" height="3.94"/><rect class="cls-1" x="410.58" y="36" width="3.94" height="3.94"/><rect class="cls-1" x="418.46" y="36" width="3.94" height="3.94"/><rect class="cls-1" x="426.35" y="28.11" width="3.94" height="3.94"/><rect class="cls-1" x="434.24" y="28.11" width="3.94" height="3.94"/><rect class="cls-1" x="426.35" y="36" width="3.94" height="3.94"/><rect class="cls-1" x="434.24" y="36" width="3.94" height="3.94"/><rect class="cls-1" x="442.13" y="20.22" width="3.94" height="3.94"/><rect class="cls-1" x="442.13" y="28.11" width="3.94" height="3.94"/><rect class="cls-1" x="442.13" y="36" width="3.94" height="3.94"/><rect class="cls-1" x="450.02" y="20.22" width="3.94" height="3.94"/><rect class="cls-1" x="450.02" y="28.11" width="3.94" height="3.94"/><rect class="cls-1" x="457.91" y="28.11" width="3.94" height="3.94"/><rect class="cls-1" x="450.02" y="36" width="3.94" height="3.94"/><rect class="cls-1" x="457.91" y="36" width="3.94" height="3.94"/><rect class="cls-1" x="465.8" y="28.11" width="3.94" height="3.94"/><g id="lake_forest_open_lands_association"><path class="cls-3" d="M46.51,309.76c5.86,0,11.81.88,18.38.88,3,0,6.32,0,9.48.24,4,.26,8.27-.44,10.49,1.53a8,8,0,0,1,1.06,1.42,8.85,8.85,0,0,1,.94,1.47c1.16,2.75.88,6.6,1,10.54,0,0-.06,0-.06.06a8,8,0,0,1-2.48,2c-6,4.46-12,8.44-18.2,13-3.33,2.46-6.86,5.08-10.19,7.66-1.62,1.25-3.5,2.35-5.24,3.71A12.72,12.72,0,0,1,49,354.12c-1,.45-2.18,1.25-3.13,1.3-2.37.12-2.32-1.65-2.77-3.66-.1-.46-.13-1.13-.23-1.76a5.1,5.1,0,0,1-.18-1.71c.27-.8,1.44-.81,2.59-1.12a12.57,12.57,0,0,0,6.42-4,19.29,19.29,0,0,0,2.71-3.3,16.49,16.49,0,0,0,1.12-3,18.76,18.76,0,0,0,.83-3.3,21.25,21.25,0,0,0-.24-5.42,18.73,18.73,0,0,0-2.3-4.77c-2.2-3.79-4.32-7.24-6.48-11.19-.29-.55-1.3-1.81-1-2.3A.44.44,0,0,1,46.51,309.76Z"/><path class="cls-3" d="M42.09,313.59a3.46,3.46,0,0,1-1.18,1.53c-.45.45-.91.9-1.35,1.36-2.37,3-5.21,5.55-7.66,8.48-.52,1.46-1.1,2.9-1.59,4.42a34.76,34.76,0,0,0-1.54,4.48c-.31,1.75.18,3.73.06,5.77,0,.05.06.06.06.12a20.79,20.79,0,0,0,1.77,2.88,19.26,19.26,0,0,0,1.88,2.71c1.63,1.85,4.06,3,6,4.6A7.13,7.13,0,0,1,41,354.77a22.12,22.12,0,0,1,.18,2.41,3.23,3.23,0,0,1-.36,2.24,2,2,0,0,1-1.7-.17,9.68,9.68,0,0,1-1.48-.65,7.39,7.39,0,0,1-1.41-2c-1.27-2.07-2.88-4-4-6.06a20.59,20.59,0,0,0-2.71-4.07c-.48-.52-1.05-1.16-1.65-1.71a9.73,9.73,0,0,0-1.82-1.53,19.07,19.07,0,0,0-5.48-1.12,14,14,0,0,0-4.78.71,18.55,18.55,0,0,0-3.35,1.88c-1.13.71-2.44,1.25-3.42,2a19.2,19.2,0,0,0-2.65,3c-.43.51-.91,1-1.3,1.53s-.64,1.3-1.35,1.42a17.33,17.33,0,0,1-.12-3.95c0-3.87-.55-7.75-.71-11.79-.1-2.71-.13-5.41-.17-8s-.1-5.42.06-8c.17-2.89,1.46-5.58,3.41-6.83,2.71-1.74,8-1.2,12.2-1,5.14.25,10.51-.17,15.85.12,1.34.07,2.68.08,4,.12A14,14,0,0,1,42.09,313.59Z"/><path class="cls-3" d="M88.87,357.48a6.2,6.2,0,0,1-2.3.77c-2.38.59-4.95,1.23-7.54,1.65q-2.58.41-5.24.88c-1.74.31-3.53.45-5.31.76-3.4.6-6.73,1.53-10.31,1.95a52.34,52.34,0,0,1-5.89.23c-2.81,0-6.23.35-7.3-1.47a9,9,0,0,1,.06-2.83,6.19,6.19,0,0,1,1.88-2.24,20.25,20.25,0,0,1,2.3-1.82c1.8-.33,4.59-1.1,6.48-.65a9.37,9.37,0,0,1,1.65.82c.57.27,1.17.46,1.71.71a20.66,20.66,0,0,0,3.35,1.53,41.42,41.42,0,0,0,4.72.47,10.48,10.48,0,0,0,1.47.18,7,7,0,0,0,2.24-.88,44.43,44.43,0,0,0,5.89-3.3c1.11-1.69,2.17-3.54,3.24-5.42a41.41,41.41,0,0,0,2.94-5.66c1.19-3.08,2.49-6.11,3.54-9.37.48-1.49,1.27-2.63,1.71-4.24a6,6,0,0,1,.29-1.35c.32-.52,1.37-.78,1.89-1,1-.42.62,1.17.58,1.42a55.1,55.1,0,0,0-.29,5.89,55.26,55.26,0,0,1-.65,7.6c-.32,2.55-.39,5.19-.59,7.66S89.22,355.08,88.87,357.48Z"/><path class="cls-3" d="M41.62,370.56a6.74,6.74,0,0,1-3.48-.06,22.77,22.77,0,0,1-2.3-1.18c-2.24-1.14-4.08-2.7-6.42-3.83a41.91,41.91,0,0,0-4.89-2c-2.52-.85-5.66-2-8.77-1a9.68,9.68,0,0,0-3.12,2.06,76.52,76.52,0,0,0-8,7.42c-.56.32-.83,1.24-1.65,1.12A3.79,3.79,0,0,1,2.68,371c-.08-3.83-.06-7.38-.24-11.31,0-.61-.09-1.35-.11-2.18s-.2-1.93.17-2.06a.44.44,0,0,1,.18-.12c3,.19,6.06.65,9.07,1.06,2.74.37,5.53.64,8.25,1.06,4,.61,8,1.19,12,1.94,2.28.43,4.95.45,6.12,1.95a11.17,11.17,0,0,1,1,2.29c.31.75.71,1.52,1,2.18C40.75,367.37,41.57,368.76,41.62,370.56Z"/><path class="cls-3" d="M85.63,360.6c.61-.2.41,1.34.41,1.94,0,2.17-.05,4.35,0,6.78.06,2.89.33,5.82.53,8.54a112,112,0,0,1,.06,13c-.06,1.58.18,3.39-.24,4.77a19.35,19.35,0,0,1-.82,1.77c-.73,1.67-2.14,3.81-3.77,4.48-1.11.46-2.55.29-4.13.29s-3-.06-4.41-.11c-3.07-.13-6.33-.06-8.78-.06-2.92,0-5.82-.24-8.72-.24s-5.9-.15-8.72-.35c-.68-1.45-.63-3.31-.82-5.13-.39-3.69-1.08-6.65-1.36-10.49-.11-1.49-.16-4.48.83-4.94a3.35,3.35,0,0,1,2.29.35c.78.31,1.55.47,2.18.71,4.1,1.51,8.45,3.28,12.55,4.65,4.34,1.45,8.59,2.91,12.9,4.36.72.24,1.46.49,2.18.71s1.43.67,2.18.41a7.58,7.58,0,0,0-.94-3.06c-.79-1.93-1.6-3.85-2.42-5.78-.41-1-.73-2-1.18-2.88a17.75,17.75,0,0,0-2.12-3.13,21,21,0,0,0-2.59-2.65c-4.69-2.17-10.47-.26-15.14.77a22.85,22.85,0,0,0-5.95,2c-1.52-.08-2.26.54-3.71.83-1,.19-2.55.32-3.06-.3s-.19-2.52-.06-3.41a21.34,21.34,0,0,1,1.65-5.95,10.08,10.08,0,0,1,1.18-2.6,6.34,6.34,0,0,1,1.53-.59,7.7,7.7,0,0,1,1.65-.47,9.46,9.46,0,0,1,2.83.65,51.85,51.85,0,0,1,6.89,3.36c2.26,1.19,4.45,2.28,7,3.3A11.75,11.75,0,0,0,68,373a9.55,9.55,0,0,0,5.89-.88A18.85,18.85,0,0,0,77,369.5c1-.91,2-2,2.88-2.83C81.94,364.77,83.67,362.65,85.63,360.6Z"/><path class="cls-3" d="M38.67,376.1a59,59,0,0,1,2.24,8.18,6.77,6.77,0,0,1,.41,2.77c-.58.46-1.4.21-2.06.18-9.56-.45-19.31-.86-28.69-1.53-.73-.05-1.5-.08-2.24-.12s-1.37-.28-1.94.12c0,.87.67,1.54,1.06,2.3s.8,1.48,1.18,2.23A36.16,36.16,0,0,0,11,394.65a11.52,11.52,0,0,0,3.54,2.77,14.11,14.11,0,0,0,1.94,1,11.24,11.24,0,0,0,2.36.77,16.35,16.35,0,0,0,2.36.06c1.13,0,2.48,0,3.53-.12a10,10,0,0,0,2.06-.77c.67-.26,1.33-.58,2-.82,3.52-1.39,5.33-3.67,8.54-5.48.52-.29,1.48-.93,1.88-.88s.74.78.95,1.41.51,1.18.64,1.65a27,27,0,0,1,.71,4.3,22.39,22.39,0,0,1,.59,4.3,9.26,9.26,0,0,1-3.24.06c-1.15,0-2.33-.12-3.54-.12-6.93,0-14.53.38-21.08.36-.76,0-1.56-.12-2.36-.12a7.89,7.89,0,0,1-3.54-.47,7.39,7.39,0,0,1-1.88-1.42c-1.06-1.06-2.07-1.84-2.24-3.71a43.34,43.34,0,0,1,.24-5.48c.2-4.32.32-9.12.53-13.61a6.52,6.52,0,0,1,.35-2.47,16.33,16.33,0,0,1,5.6.77c1.7.45,3.34,1,5,1.59,3.27,1.2,6.71,2.73,10.48,2.65,2.49-.06,4.52-1.51,6.31-2.6.72-.43,1.48-.88,2.24-1.35C36,376.22,37.31,374.79,38.67,376.1Z"/></g><path class="cls-4" d="M112.16,334.34V314.68h4.09l7.53,17.72h.6V314.68h2.16v19.66h-4l-7.64-17.73h-.54v17.73Z"/><path class="cls-4" d="M146.1,324.65c0,3.5-.55,6-1.67,7.61s-3.15,2.36-6.09,2.36-5-.8-6.09-2.41-1.68-4.14-1.68-7.6.57-6,1.7-7.7,3.16-2.51,6-2.51,4.92.83,6.07,2.5S146.1,321.15,146.1,324.65Zm-13.29,0q0,4.31,1.14,6.2t4.39,1.89q3.24,0,4.37-1.85t1.12-6.19q0-4.35-1.16-6.33t-4.36-2q-3.19,0-4.34,2T132.81,324.6Z"/><path class="cls-4" d="M152.15,328.43q0,4.26,4.61,4.26a5.51,5.51,0,0,0,3.59-1,4,4,0,0,0,1.2-3.25V314.68h2.16v13.69q0,3.3-1.74,4.77a7.8,7.8,0,0,1-5.16,1.48,7.63,7.63,0,0,1-5.12-1.48q-1.73-1.47-1.72-4.77V314.68h2.18Z"/><path class="cls-4" d="M170.59,326.81v7.53H168.4V314.68h7.27a6.71,6.71,0,0,1,4.7,1.45,5.87,5.87,0,0,1,1.58,4.52c0,3-1.21,4.93-3.61,5.7l3.78,8H179.7l-3.55-7.53Zm5.11-1.93q4,0,4-4.13t-4-4.14h-5.08v8.27Z"/><path class="cls-4" d="M188.08,326.81v7.53H185.9V314.68h7.27a6.71,6.71,0,0,1,4.7,1.45,5.86,5.86,0,0,1,1.57,4.52q0,4.55-3.6,5.7l3.78,8H197.2l-3.55-7.53Zm5.12-1.93q4,0,4-4.13t-4-4.14h-5.09v8.27Z"/><path class="cls-4" d="M203.39,334.34V314.68h2.19v19.66Z"/><path class="cls-4" d="M212.57,326.81v7.53h-2.19V314.68h7.27a6.71,6.71,0,0,1,4.7,1.45,5.87,5.87,0,0,1,1.58,4.52c0,3-1.21,4.93-3.61,5.7l3.78,8h-2.42l-3.55-7.53Zm5.11-1.93q4,0,4-4.13t-4-4.14h-5.08v8.27Z"/><path class="cls-4" d="M114.21,360c0,2.84,1.54,4.26,4.6,4.26a5.54,5.54,0,0,0,3.6-1,4,4,0,0,0,1.2-3.25V346.24h2.16v13.69c0,2.19-.58,3.79-1.75,4.77a9.67,9.67,0,0,1-10.28,0c-1.14-1-1.72-2.58-1.72-4.77V346.24h2.19Z"/><path class="cls-4" d="M130.46,365.89V346.24h4.08L142.07,364h.6V346.24h2.16v19.65h-4l-7.64-17.72h-.54v17.72Z"/><path class="cls-5" d="M156.48,365.89V340h7.31l5.79,20.26,5.8-20.26h7.34v25.94h-4.24V344.61h-.57l-6.13,20.22h-4.39l-6.14-20.22h-.57v21.28Z"/><path class="cls-5" d="M206.3,363.13q-2.34,3.18-8.2,3.18t-8.22-3.2q-2.34-3.19-2.35-10.05t2.37-10.19q2.37-3.33,8.2-3.33c3.89,0,6.61,1.1,8.18,3.31s2.35,5.61,2.35,10.21S207.85,361,206.3,363.13Zm-13.12-2.73q1.27,2.24,4.92,2.24c2.42,0,4.06-.73,4.9-2.2s1.27-3.92,1.27-7.36-.43-6-1.31-7.52-2.49-2.35-4.86-2.35-4,.78-4.89,2.35-1.32,4.06-1.32,7.48S192.32,358.91,193.18,360.4Z"/><path class="cls-5" d="M213.51,365.89V340h7.35l7.88,22.23h.56V340h4.21v25.94h-7.2l-8.06-22.26h-.53v22.26Z"/><path class="cls-5" d="M248.46,365.89h-9V340h9q6,0,8.18,3t2.2,9.51a30.51,30.51,0,0,1-.44,5.59,12.83,12.83,0,0,1-1.53,4.14Q254.71,365.9,248.46,365.89Zm6-13.4q0-4.69-1.17-6.78t-4.85-2.08h-4.77v18.55h4.77q3.75,0,5-2.76a10.91,10.91,0,0,0,.81-3A30.94,30.94,0,0,0,254.48,352.49Z"/><path class="cls-5" d="M263.76,365.89V340h16.36v3.68H268V351h9.88v3.64H268v7.57h12.15v3.71Z"/><path class="cls-4" d="M112,397.45V378h12.26v2.75h-9.11v5.51h7.41V389h-7.41v5.68h9.11v2.78Z"/><path class="cls-4" d="M127.7,397.45V378h5.51l5.91,16.67h.42V378h3.16v19.45h-5.4l-6.05-16.7h-.4v16.7Z"/><path class="cls-6" d="M169.41,397.07a31.69,31.69,0,0,1-6.63.8,12.77,12.77,0,0,1-4.72-.73,5.8,5.8,0,0,1-2.77-2.33,10,10,0,0,1-1.39-3.75,31.13,31.13,0,0,1-.39-5.41c0-4.56.65-7.74,1.93-9.53s3.65-2.69,7.1-2.69a30,30,0,0,1,6.91.94l-.14,3.81a40.28,40.28,0,0,0-5.71-.51,6.51,6.51,0,0,0-3.25.6,3.77,3.77,0,0,0-1.44,2.31,24.85,24.85,0,0,0-.47,5.8q0,4.1,1,5.67c.63,1.06,1.91,1.58,3.82,1.58a41.46,41.46,0,0,0,6.09-.48Z"/><path class="cls-6" d="M186.87,397.45v-9.79h-8.78v9.79H173.3V373.84h4.79v9.66h8.78v-9.66h4.79v23.61Z"/><path class="cls-6" d="M194.82,397.45l5.31-23.61h9.1l5.31,23.61h-4.79l-.94-4.27h-8.26l-.94,4.27Zm9-19.65L201.45,389h6.46l-2.4-11.22Z"/><path class="cls-6" d="M217.7,397.45V373.84h8.09l5.69,19.44h.35V373.84h4.79v23.61h-7.88L222.84,378h-.35v19.44Z"/><path class="cls-6" d="M251.58,389v-4.16h6.87v12.25a53.32,53.32,0,0,1-8,.8c-3.68,0-6.21-1-7.59-2.95s-2.06-5.09-2.06-9.38.72-7.37,2.15-9.26,3.88-2.85,7.33-2.85a36.33,36.33,0,0,1,7,.73l1.25.24-.14,3.72a63.2,63.2,0,0,0-6.82-.45,8,8,0,0,0-3.73.62,3.72,3.72,0,0,0-1.58,2.31,23,23,0,0,0-.5,5.76q0,4.08,1,5.71c.68,1.09,2.06,1.63,4.17,1.63l2.88-.14V389Z"/><path class="cls-6" d="M263,397.45V373.84h15.27V378H267.75v5.52h8.41v4.1h-8.41v5.65h10.49v4.17Z"/><path class="cls-6" d="M282.2,397.45V373.84h8.15l4.17,17.22,4.16-17.22h8.16v23.61h-4.79V379.19h-.52l-4.62,17.22h-4.79l-4.61-17.22H287v18.26Z"/><path class="cls-6" d="M312,397.45V373.84h15.27V378H316.77v5.52h8.4v4.1h-8.4v5.65h10.48v4.17Z"/><path class="cls-6" d="M331.21,397.45V373.84h8.09L345,393.28h.35V373.84h4.79v23.61h-7.88L336.35,378H336v19.44Z"/><path class="cls-6" d="M353.14,378.08v-4.24H370.5v4.24h-6.25v19.37h-4.79V378.08Z"/><rect class="cls-4" x="384.9" y="312.05" width="3" height="89.73"/><path class="cls-4" d="M413.8,358.91h-2.38v3.62h-1.89V350.88h4.27c2.64,0,4,1.31,4,3.91a4.3,4.3,0,0,1-1,3.06A3.85,3.85,0,0,1,413.8,358.91Zm-2.38-1.63h2.36q2,0,2-2.49a2.57,2.57,0,0,0-.49-1.73,2,2,0,0,0-1.55-.54h-2.36Z"/><path class="cls-4" d="M419.35,362.53V354h1.84v1a8.13,8.13,0,0,1,2.89-1.21v1.86a12.23,12.23,0,0,0-2.5.74l-.37.16v5.93Z"/><path class="cls-4" d="M431.47,361,432,361l0,1.38a17.57,17.57,0,0,1-3.43.39,3.26,3.26,0,0,1-2.71-1,5.34,5.34,0,0,1-.83-3.32q0-4.51,3.69-4.52t3.57,3.9l-.12,1.32h-5.27a2.42,2.42,0,0,0,.46,1.55,2.18,2.18,0,0,0,1.65.49C429.8,361.1,430.62,361.07,431.47,361Zm-5.09-9.47,4-1.72.57,1.6-4.14,1.33Zm4.08,6.1a3,3,0,0,0-.4-1.76,1.66,1.66,0,0,0-1.36-.5,1.69,1.69,0,0,0-1.38.53,2.78,2.78,0,0,0-.45,1.73Z"/><path class="cls-4" d="M440,355.78a24.74,24.74,0,0,0-2.91-.27,2.62,2.62,0,0,0-1.25.21.74.74,0,0,0-.35.67.67.67,0,0,0,.39.65,8.53,8.53,0,0,0,1.8.43,4.1,4.1,0,0,1,2,.78,2.39,2.39,0,0,1,.6,1.87,2.29,2.29,0,0,1-.86,2,4.21,4.21,0,0,1-2.51.63,15.47,15.47,0,0,1-2.62-.29l-.52-.09.06-1.55a23.84,23.84,0,0,0,2.95.28,2.82,2.82,0,0,0,1.28-.22.79.79,0,0,0,.38-.73.74.74,0,0,0-.36-.71,7.67,7.67,0,0,0-1.76-.43,4.61,4.61,0,0,1-2-.72,2.15,2.15,0,0,1-.64-1.8,2.29,2.29,0,0,1,.89-2,3.9,3.9,0,0,1,2.29-.64,16.43,16.43,0,0,1,2.67.27l.52.1Z"/><path class="cls-4" d="M448.08,361l.48-.05,0,1.38a17.57,17.57,0,0,1-3.43.39,3.26,3.26,0,0,1-2.71-1,5.34,5.34,0,0,1-.83-3.32q0-4.51,3.69-4.52t3.57,3.9l-.12,1.32h-5.27a2.37,2.37,0,0,0,.46,1.55,2.18,2.18,0,0,0,1.65.49C446.41,361.1,447.23,361.07,448.08,361Zm-1-3.37a3,3,0,0,0-.39-1.76,1.66,1.66,0,0,0-1.36-.5,1.69,1.69,0,0,0-1.38.53,2.78,2.78,0,0,0-.45,1.73Z"/><path class="cls-4" d="M452.52,362.53h-1.85V354h1.83v.53a4.71,4.71,0,0,1,2.35-.72,2.55,2.55,0,0,1,2.32,1,6.12,6.12,0,0,1,.62,3.17v4.56H456V358a4.59,4.59,0,0,0-.3-1.95,1.24,1.24,0,0,0-1.22-.58,4.11,4.11,0,0,0-1.66.34l-.26.1Z"/><path class="cls-4" d="M464.52,355.61h-2.34v3.74a4.09,4.09,0,0,0,.15,1.38c.1.22.36.34.78.34l1.4-.05.08,1.48a10.71,10.71,0,0,1-1.73.22,2.39,2.39,0,0,1-2-.67,4.13,4.13,0,0,1-.54-2.5v-3.94h-1.09V354h1.09v-2.47h1.84V354h2.34Z"/><path class="cls-4" d="M471.94,355.78a24.74,24.74,0,0,0-2.91-.27,2.62,2.62,0,0,0-1.25.21.74.74,0,0,0-.35.67.67.67,0,0,0,.38.65,8.9,8.9,0,0,0,1.8.43,4.14,4.14,0,0,1,2,.78,2.39,2.39,0,0,1,.59,1.87,2.29,2.29,0,0,1-.85,2,4.23,4.23,0,0,1-2.51.63,15.37,15.37,0,0,1-2.62-.29l-.53-.09.07-1.55a23.89,23.89,0,0,0,2.94.28,2.87,2.87,0,0,0,1.29-.22.79.79,0,0,0,.38-.73.73.73,0,0,0-.37-.71,7.38,7.38,0,0,0-1.75-.43,4.61,4.61,0,0,1-2-.72,2.15,2.15,0,0,1-.65-1.8,2.27,2.27,0,0,1,.9-2,3.84,3.84,0,0,1,2.28-.64,16.23,16.23,0,0,1,2.67.27l.53.1Z"/><path class="cls-4" d="M416.24,366.49v12h-1.83v-.44a5.11,5.11,0,0,1-2.28.63,2.89,2.89,0,0,1-2.44-1,5.58,5.58,0,0,1-.77-3.36,5.47,5.47,0,0,1,.86-3.44,3.22,3.22,0,0,1,2.67-1.07,14.26,14.26,0,0,1,1.94.22v-3.57Zm-2.14,10.27.29-.12v-5a11.93,11.93,0,0,0-1.89-.17c-1.14,0-1.71.95-1.71,2.86a4.12,4.12,0,0,0,.4,2.16,1.39,1.39,0,0,0,1.26.61A4.56,4.56,0,0,0,414.1,376.76Z"/><path class="cls-4" d="M424.78,372.65v3.87a.82.82,0,0,0,.19.56,1.08,1.08,0,0,0,.56.23l-.06,1.41a3.59,3.59,0,0,1-2.26-.63,6.43,6.43,0,0,1-2.73.63c-1.69,0-2.54-.9-2.54-2.71a2.32,2.32,0,0,1,.69-1.87,3.82,3.82,0,0,1,2.12-.69l2.19-.19v-.61a1.23,1.23,0,0,0-.3-.95,1.2,1.2,0,0,0-.87-.28c-.73,0-1.63.05-2.72.14l-.55,0-.06-1.31a15,15,0,0,1,3.4-.44,3.18,3.18,0,0,1,2.25.67A2.88,2.88,0,0,1,424.78,372.65Zm-3.81,2.1A1.15,1.15,0,0,0,419.8,376c0,.78.34,1.17,1,1.17a6.55,6.55,0,0,0,1.8-.27l.31-.1v-2.26Z"/><path class="cls-4" d="M429,378.53h-1.85V370h1.83v.53a4.71,4.71,0,0,1,2.35-.72,2.55,2.55,0,0,1,2.32,1,6.12,6.12,0,0,1,.62,3.17v4.56h-1.84V374a4.78,4.78,0,0,0-.29-1.95,1.24,1.24,0,0,0-1.22-.58,4.19,4.19,0,0,0-1.67.34l-.25.1Z"/><path class="cls-4" d="M442.29,371.78a24.74,24.74,0,0,0-2.91-.27,2.62,2.62,0,0,0-1.25.21.74.74,0,0,0-.35.67.67.67,0,0,0,.38.65,8.87,8.87,0,0,0,1.81.43,4.14,4.14,0,0,1,2,.78,2.39,2.39,0,0,1,.6,1.87,2.29,2.29,0,0,1-.86,2,4.23,4.23,0,0,1-2.51.63,15.47,15.47,0,0,1-2.62-.29l-.53-.09.07-1.55a23.89,23.89,0,0,0,2.94.28,2.87,2.87,0,0,0,1.29-.22.79.79,0,0,0,.38-.73.73.73,0,0,0-.37-.71,7.38,7.38,0,0,0-1.75-.43,4.61,4.61,0,0,1-2-.72,2.15,2.15,0,0,1-.64-1.8,2.26,2.26,0,0,1,.89-2,3.86,3.86,0,0,1,2.28-.64,16.23,16.23,0,0,1,2.67.27l.53.1Z"/><path class="cls-4" d="M448.2,378.53v-12h1.86v12Z"/><path class="cls-4" d="M458.45,377l.48-.05,0,1.38a17.57,17.57,0,0,1-3.43.39,3.26,3.26,0,0,1-2.71-1,5.34,5.34,0,0,1-.83-3.32q0-4.51,3.69-4.52t3.57,3.9l-.12,1.32h-5.27a2.37,2.37,0,0,0,.46,1.55,2.18,2.18,0,0,0,1.65.49C456.78,377.1,457.6,377.07,458.45,377Zm-1-3.37a2.89,2.89,0,0,0-.4-1.76,1.63,1.63,0,0,0-1.35-.5,1.69,1.69,0,0,0-1.38.53,2.78,2.78,0,0,0-.45,1.73Z"/><path class="cls-4" d="M411.16,394.53h-1.85V386h1.83v.53a4.4,4.4,0,0,1,2.21-.72,2.61,2.61,0,0,1,2.16.84,6.41,6.41,0,0,1,3.08-.84,2.4,2.4,0,0,1,2.16,1,6,6,0,0,1,.63,3.18v4.56h-1.84V390a4.82,4.82,0,0,0-.28-1.95,1.15,1.15,0,0,0-1.16-.58,4.55,4.55,0,0,0-1.65.34l-.29.12a9.44,9.44,0,0,1,.13,2.18v4.4h-1.83v-4.37a5.54,5.54,0,0,0-.27-2.09,1.18,1.18,0,0,0-1.19-.58,3.62,3.62,0,0,0-1.58.34l-.26.1Z"/><path class="cls-4" d="M424,387a4.38,4.38,0,0,1,5.83,0,5.21,5.21,0,0,1,.88,3.31,5.48,5.48,0,0,1-.85,3.33,4.39,4.39,0,0,1-5.88,0,5.41,5.41,0,0,1-.85-3.33A5.28,5.28,0,0,1,424,387Zm1.39,5.52a2.06,2.06,0,0,0,3.06,0,4.68,4.68,0,0,0,.39-2.22,4.23,4.23,0,0,0-.42-2.2,2.09,2.09,0,0,0-3,0,4.25,4.25,0,0,0-.41,2.2A4.68,4.68,0,0,0,425.41,392.47Z"/><path class="cls-4" d="M434.42,394.53h-1.86V386h1.84v.53a4.71,4.71,0,0,1,2.35-.72,2.57,2.57,0,0,1,2.32,1,6.12,6.12,0,0,1,.62,3.17v4.56h-1.84V390a4.59,4.59,0,0,0-.3-1.95,1.22,1.22,0,0,0-1.21-.58,4.16,4.16,0,0,0-1.67.34l-.25.1Z"/><path class="cls-4" d="M448.78,382.49v12H447v-.44a5.11,5.11,0,0,1-2.28.63,2.88,2.88,0,0,1-2.44-1,7.54,7.54,0,0,1,.08-6.8,3.26,3.26,0,0,1,2.68-1.07,14.43,14.43,0,0,1,1.94.22v-3.57Zm-2.14,10.27.29-.12v-5a11.93,11.93,0,0,0-1.89-.17c-1.14,0-1.72.95-1.72,2.86a4.23,4.23,0,0,0,.4,2.16,1.4,1.4,0,0,0,1.27.61A4.56,4.56,0,0,0,446.64,392.76Z"/><path class="cls-4" d="M457.08,393l.47-.05,0,1.38a17.75,17.75,0,0,1-3.44.39,3.27,3.27,0,0,1-2.71-1,5.35,5.35,0,0,1-.82-3.32q0-4.51,3.69-4.52t3.57,3.9l-.12,1.32h-5.27a2.31,2.31,0,0,0,.46,1.55,2.15,2.15,0,0,0,1.65.49C455.4,393.1,456.23,393.07,457.08,393Zm-1-3.37a3,3,0,0,0-.4-1.76,1.65,1.65,0,0,0-1.35-.5,1.7,1.7,0,0,0-1.39.53,2.78,2.78,0,0,0-.45,1.73Z"/><path class="cls-4" d="M469.45,393l.48-.05,0,1.38a17.57,17.57,0,0,1-3.43.39,3.26,3.26,0,0,1-2.71-1,5.34,5.34,0,0,1-.83-3.32q0-4.51,3.69-4.52t3.57,3.9l-.12,1.32h-5.27a2.37,2.37,0,0,0,.46,1.55,2.18,2.18,0,0,0,1.65.49C467.78,393.1,468.6,393.07,469.45,393Zm-1-3.37a2.89,2.89,0,0,0-.4-1.76,1.63,1.63,0,0,0-1.35-.5,1.69,1.69,0,0,0-1.38.53,2.78,2.78,0,0,0-.45,1.73Z"/><path class="cls-4" d="M473.89,394.53H472V386h1.83v.53a4.71,4.71,0,0,1,2.35-.72,2.55,2.55,0,0,1,2.32,1,6.12,6.12,0,0,1,.62,3.17v4.56h-1.84V390a4.78,4.78,0,0,0-.29-1.95,1.24,1.24,0,0,0-1.22-.58,4.11,4.11,0,0,0-1.66.34l-.26.1Z"/><path class="cls-4" d="M485.89,387.61h-2.35v3.74a4,4,0,0,0,.16,1.38c.1.22.36.34.78.34l1.39-.05.09,1.48a10.71,10.71,0,0,1-1.73.22,2.39,2.39,0,0,1-2-.67,4.13,4.13,0,0,1-.54-2.5v-3.94h-1.09V386h1.09v-2.47h1.83V386h2.35Z"/><path class="cls-4" d="M487.4,384.58v-1.95h1.86v1.95Zm0,9.95V386h1.86v8.5Z"/><path class="cls-4" d="M497.55,393,498,393l0,1.38a17.57,17.57,0,0,1-3.43.39,3.26,3.26,0,0,1-2.71-1,5.34,5.34,0,0,1-.83-3.32q0-4.51,3.69-4.52t3.57,3.9l-.12,1.32H493a2.37,2.37,0,0,0,.46,1.55,2.18,2.18,0,0,0,1.65.49C495.88,393.1,496.7,393.07,497.55,393Zm-1-3.37a2.89,2.89,0,0,0-.4-1.76,1.63,1.63,0,0,0-1.35-.5,1.69,1.69,0,0,0-1.38.53,2.78,2.78,0,0,0-.45,1.73Z"/><path class="cls-4" d="M500.14,394.53V386H502v1a8.2,8.2,0,0,1,2.89-1.21v1.86a12.42,12.42,0,0,0-2.5.74l-.37.16v5.93Z"/><rect class="cls-7" x="402" y="342.5" width="109.5" height="58.5" rx="3.97"/><circle class="cls-5" cx="488.93" cy="323.5" r="22.19"/><polygon class="cls-3" points="469.9 334.92 488.93 370.56 508.95 333.06 469.9 334.92"/><circle class="cls-8" cx="488.93" cy="323.5" r="13.31"/></svg>