<svg xmlns="http://www.w3.org/2000/svg" viewBox="0 0 1579.5 711"><defs><style>.cls-1{fill:#13322b;}.cls-2{fill:#fff;}.cls-3{fill:#88b04b;fill-rule:evenodd;}</style></defs><g id="Calque_2" data-name="Calque 2"><g id="Calque_1-2" data-name="Calque 1"><rect class="cls-1" width="1579.5" height="711"/><path class="cls-2" d="M379.75,482l18.67-2.25,7.08,20.6L393.27,510H334.69l-18-40.23-92.38-.32-6.76,18.34L231.68,510H170.53l84.65-190.88-13.84-34.44h58.58ZM231.68,447.27l75-2.26-37-88.84Z"/><path class="cls-2" d="M583.83,377.74q0,16.74.16,34.12t.16,33.31v26.24L544.56,511H464.09l-36.37-30.26V376.45L405.51,363.9l8-14.81h60.52l.32,116.84,11.26,23.5,36.7-3.54,13.52-23.82.32-87.87c-.64-.43-1.66-1.18-3.06-2.26s-2.79-2.19-4.18-3.37-2.68-2.26-3.87-3.22a17.7,17.7,0,0,0-2.41-1.78V349.09h61.16Z"/><path class="cls-2" d="M680.23,447.43q.16,21.4.17,40.39l14.16,5.48c0,2.78,0,5.52-.16,8.2s-.16,5.53-.16,8.53H633.72q0-4.83.16-13.36t.32-19.15q.16-10.62.17-22.37V373.88L618,363.57l7.72-14.48h50.86l1.93,29.61A205.41,205.41,0,0,1,698.74,362a121.31,121.31,0,0,1,18.83-11.43q10.14-5,18.83-5a47.71,47.71,0,0,1,15.13,2.25,79,79,0,0,1,11.91,5,53.81,53.81,0,0,1,8.53,5.47c2.25,1.83,3.81,3.06,4.67,3.71l-12.23,34.44-41.85-9.66a43.44,43.44,0,0,0-10.78,3.38q-6.28,2.75-12.55,6t-11.43,6.43l-7.73,4.83Q680.07,426,680.23,447.43Z"/><path class="cls-2" d="M851.48,476.72q10.78,13.68,34.93,15a43.28,43.28,0,0,0,18.67-12.88q7.73-9,16.73-20.92l36.05,13.2q-.32,2.57-4.5,8.85a86,86,0,0,1-10.79,12.87,83.43,83.43,0,0,1-14.8,11.75q-8.21,5.15-15.93,5.47H833q-8.37,0-17.54-10.14a102.38,102.38,0,0,1-16.25-25.1,131.67,131.67,0,0,1-10.31-31.87q-3.21-16.91.33-30.74a156,156,0,0,1,5.47-14.81A105.61,105.61,0,0,1,805,378.54,89.36,89.36,0,0,1,820.74,361,50.4,50.4,0,0,1,843,350.06a202.91,202.91,0,0,1,20.92-2.58,234.82,234.82,0,0,1,24.63-.64,169.87,169.87,0,0,1,23.17,2.09q10.79,1.77,16.26,5.63a56.16,56.16,0,0,1,10.14,10.14A85.09,85.09,0,0,1,947.73,380a102.76,102.76,0,0,1,7.08,18.67,85.68,85.68,0,0,1,3.05,20l-21.56,17.7-97.21,5.47Q840.7,463,851.48,476.72Zm55.36-74q-2.08-7.56-5.14-15.77a127.62,127.62,0,0,0-6.44-14.64q-3.39-6.45-6.28-6.76a29.31,29.31,0,0,0-8.21.64q-5,1-10.3,2.42t-10.14,3.21a56.23,56.23,0,0,0-7.72,3.38,25.4,25.4,0,0,0-4.51,7.09,90.12,90.12,0,0,0-4.18,10.94,96.94,96.94,0,0,0-3.06,12.55,68.06,68.06,0,0,0-1.13,11.59l69.53-4.51A88.78,88.78,0,0,0,906.84,402.68Z"/><path class="cls-2" d="M1047.67,483l22.86,6.76V510h-67.6l.65-198.6-24.79-11.27L983,284.71h64.69Z"/><g id="lake_forest_open_lands_association"><path class="cls-3" d="M1265.61,127c20.46.13,41.24,3.08,64.17,3.08,10.46,0,22,.11,33.11.83,13.88.89,28.87-1.54,36.62,5.35a27.29,27.29,0,0,1,3.7,4.93,33.41,33.41,0,0,1,3.29,5.15c4,9.6,3,23.06,3.29,36.81-.17,0-.19.08-.21.2-2,3.26-5.68,4.81-8.63,7-21,15.55-41.82,29.44-63.56,45.45-11.62,8.56-24,17.73-35.58,26.74-5.63,4.36-12.2,8.18-18.3,12.95-2.67,2.09-5.42,4.68-9.25,6.38-3.54,1.56-7.58,4.35-10.9,4.53-8.29.43-8.13-5.76-9.67-12.75-.36-1.61-.46-4-.83-6.18s-1-4.68-.61-6c.94-2.8,5-2.83,9-3.9,10-2.67,16-7.21,22.42-14,3.48-3.7,7.37-7.81,9.46-11.52,1.53-2.71,2.69-6.58,3.91-10.49A67,67,0,0,0,1300,210c.57-4.76.21-14.5-.83-18.92-1.33-5.7-5.06-11.58-8-16.66-7.7-13.23-15.08-25.26-22.62-39.07-1-1.92-4.55-6.32-3.5-8A1.57,1.57,0,0,1,1265.61,127Z"/><path class="cls-3" d="M1250.18,140.32c-.57,2.36-2.6,3.84-4.11,5.35s-3.18,3.13-4.73,4.73c-8.26,10.53-18.18,19.39-26.74,29.61-1.8,5.11-3.83,10.14-5.56,15.43-1.66,5.12-4.37,10.18-5.35,15.63-1.1,6.14.62,13.05.21,20.16,0,.16.21.2.21.41,1.71,4,4.17,6.88,6.17,10.08a68.57,68.57,0,0,0,6.58,9.46c5.66,6.46,14.14,10.34,21,16,5,4.19,7.38,9.13,8.64,16.87a75.27,75.27,0,0,1,.62,8.43c.12,2.68.46,5.89-1.23,7.81-2.07,1-4.28.14-6-.61s-3.81-1.31-5.15-2.27c-1.85-1.33-3.36-4.41-4.93-7-4.44-7.25-10-14.1-14-21.19-2.69-4.82-5.51-9.89-9.46-14.19-1.66-1.81-3.67-4-5.76-6-1.9-1.76-4.33-4.37-6.37-5.35-4.35-2.09-13.21-3.45-19.13-3.91-5-.39-12.54,1-16.66,2.47s-8,4.26-11.73,6.58c-4,2.45-8.49,4.34-11.93,7s-6.28,7-9.25,10.49c-1.5,1.77-3.18,3.46-4.53,5.35s-2.23,4.53-4.72,4.93c-1-4.43-.42-9.15-.42-13.78,0-13.51-1.93-27.06-2.46-41.14-.36-9.48-.47-18.89-.62-28-.15-9.55-.35-18.92.21-28,.61-10.1,5.11-19.47,11.93-23.85,9.46-6.08,28-4.19,42.57-3.49,18,.85,36.7-.58,55.33.41,4.69.26,9.36.3,14,.41C1241.26,139.4,1245.89,139,1250.18,140.32Z"/><path class="cls-3" d="M1413.49,293.55c-2.27,1.7-5.24,2-8,2.67-8.31,2.07-17.29,4.3-26.32,5.76-6,1-12.12,2-18.31,3.09s-12.31,1.58-18.52,2.67c-11.89,2.09-23.49,5.32-36,6.78a183.07,183.07,0,0,1-20.56.83c-9.83,0-21.77,1.22-25.51-5.14-.25-3.55-.55-7.37.21-9.88.91-3,4.25-5.7,6.58-7.81a66.46,66.46,0,0,1,8-6.38c6.29-1.13,16-3.83,22.63-2.26,2.07.49,3.66,1.9,5.75,2.88s4.09,1.6,6,2.46c3.77,1.74,7.68,4.29,11.73,5.35s11.53,1.11,16.45,1.65a38,38,0,0,0,5.14.61c2.36-.12,5.47-1.88,7.82-3.08,7.14-3.65,14.45-7,20.56-11.52,3.88-5.91,7.57-12.35,11.32-18.92,3.59-6.31,7.54-12.64,10.28-19.75,4.15-10.76,8.68-21.34,12.34-32.7,1.68-5.23,4.44-9.2,6-14.81.44-1.61.31-3.58,1-4.73,1.12-1.81,4.79-2.71,6.58-3.5,3.41-1.5,2.16,4.06,2.06,4.93a182.36,182.36,0,0,0-1,20.57c0,10-1.21,18.24-2.26,26.53-1.14,8.92-1.39,18.12-2.06,26.74C1414.65,275.5,1414.73,285.16,1413.49,293.55Z"/><path class="cls-3" d="M1248.54,339.21a23.3,23.3,0,0,1-12.14-.21c-2.72-1-5.31-2.74-8-4.11-7.83-4-14.26-9.43-22.42-13.37a148.69,148.69,0,0,0-17.07-7c-8.81-3-19.78-7-30.65-3.49-4.08,1.33-7.47,4.32-10.89,7.19-9.8,8.25-19.6,16.51-28,25.92-1.95,1.13-2.92,4.34-5.76,3.91-1.32-2-1-4.71-1-7.2-.26-13.36-.2-25.77-.83-39.49-.09-2.12-.32-4.71-.41-7.61-.08-2.53-.68-6.74.62-7.2a1.5,1.5,0,0,1,.62-.41c10.56.68,21.17,2.28,31.68,3.7,9.54,1.3,19.3,2.26,28.79,3.7,14.08,2.14,28,4.15,42,6.79,8,1.51,17.27,1.55,21.38,6.78,1.57,2,2.17,5.35,3.3,8s2.49,5.29,3.49,7.61C1245.5,328.09,1248.36,332.94,1248.54,339.21Z"/><path class="cls-3" d="M1402.18,304.45c2.14-.71,1.44,4.66,1.44,6.78,0,7.58-.17,15.17,0,23.66.2,10.08,1.15,20.31,1.85,29.82,1.15,15.6.79,29.44.21,45.25-.21,5.49.62,11.82-.83,16.66-.59,2-1.92,3.95-2.88,6.17-2.52,5.81-7.46,13.29-13.16,15.63-3.88,1.6-8.91,1-14.4,1s-10.57-.21-15.42-.41c-10.71-.46-22.1-.21-30.65-.21-10.19,0-20.32-.82-30.43-.82-10.35,0-20.62-.54-30.44-1.24-2.39-5-2.22-11.54-2.88-17.89-1.35-12.88-3.76-23.22-4.73-36.61-.38-5.23-.56-15.66,2.88-17.28,2.13-1,5.57.27,8,1.24,2.7,1.06,5.4,1.65,7.61,2.46,14.29,5.3,29.48,11.45,43.8,16.25,15.14,5.08,30,10.16,45,15.22,2.51.84,5.1,1.71,7.61,2.47s5,2.33,7.61,1.44c.14-3.79-1.89-7.28-3.28-10.7-2.76-6.71-5.59-13.44-8.44-20.15-1.43-3.37-2.56-6.92-4.11-10.08a62.08,62.08,0,0,0-7.41-10.9,72.84,72.84,0,0,0-9-9.26c-16.38-7.58-36.55-.9-52.86,2.68-7.54,1.65-15.1,3.83-20.77,7-5.3-.28-7.91,1.87-13,2.88-3.42.69-8.89,1.12-10.69-1s-.64-8.8-.21-11.93a76.37,76.37,0,0,1,5.76-20.77c1.21-2.83,2.58-7.72,4.11-9.05,1-.85,3.84-1.55,5.35-2.06,1.67-.55,4.1-1.57,5.76-1.64,2.81-.13,6.91,1.23,9.88,2.26,8.65,3,16.65,7.84,24.06,11.73,7.9,4.15,15.56,7.95,24.27,11.51,2.91,1.19,6.09,2.71,8.84,3.09,7.6,1.05,14.64.08,20.57-3.09,3.8-2,7.33-5.87,10.9-9s6.89-6.88,10.08-9.88C1389.3,319,1395.36,311.58,1402.18,304.45Z"/><path class="cls-3" d="M1238.25,358.54c3.36,8.77,5.54,18.54,7.82,28.59.71,3.11,2.06,6.4,1.44,9.67-2,1.61-4.92.73-7.2.62-33.39-1.59-67.44-3-100.16-5.35-2.58-.19-5.25-.29-7.82-.41-2.25-.11-4.78-1-6.78.41.07,3,2.32,5.4,3.7,8s2.8,5.2,4.11,7.82c2.68,5.33,5.26,10.94,8.43,15.42,2.61,3.7,8,7.18,12.34,9.67a53.28,53.28,0,0,0,6.79,3.5c2.62,1,5.36,2.26,8.22,2.67a59.26,59.26,0,0,0,8.23.2,121.3,121.3,0,0,0,12.34-.41c2.21-.27,4.66-1.68,7.2-2.67,2.34-.91,4.65-2,6.79-2.88,12.29-4.87,18.61-12.8,29.82-19.13,1.83-1,5.19-3.26,6.58-3.08,1.82.23,2.59,2.75,3.3,4.94s1.77,4.11,2.26,5.75c1.41,4.78,1.77,9.65,2.46,15,.6,4.62,2.42,10.06,2.06,15-3.6,1.26-7.5.27-11.31.2-4-.06-8.13-.41-12.34-.41-24.21,0-50.74,1.31-73.63,1.24-2.63,0-5.44-.41-8.23-.41-5.16,0-8.92,0-12.34-1.65a25.13,25.13,0,0,1-6.58-4.94c-3.7-3.7-7.21-6.44-7.81-12.95-.54-5.84.51-12.63.82-19.13.71-15.09,1.14-31.84,1.85-47.51.13-2.92,0-6.09,1.23-8.64,7.1-.57,13.54,1.07,19.54,2.67s11.66,3.49,17.28,5.56c11.43,4.19,23.45,9.56,36.62,9.25,8.69-.2,15.76-5.27,22-9.05,2.51-1.52,5.18-3.09,7.82-4.73C1229,359,1233.48,354,1238.25,358.54Z"/></g></g></g></svg>