<svg xmlns="http://www.w3.org/2000/svg" xmlns:xlink="http://www.w3.org/1999/xlink" viewBox="0 0 500 542.28"><defs><style>.cls-1{mask:url(#mask);filter:url(#luminosity-noclip-3);}.cls-15,.cls-2,.cls-4,.cls-7{mix-blend-mode:multiply;}.cls-2{fill:url(#radial-gradient);}.cls-3{mask:url(#mask-2);filter:url(#luminosity-noclip-4);}.cls-4{fill:url(#linear-gradient);}.cls-5{isolation:isolate;}.cls-6{mask:url(#mask-3);}.cls-7{fill:url(#radial-gradient-2);}.cls-8{fill:#f4f4f4;}.cls-16,.cls-9{fill:#13322b;}.cls-10,.cls-11{fill:#88b04b;}.cls-10{opacity:0.8;}.cls-12{fill:#bfd833;}.cls-13{fill:#fff;}.cls-14{mask:url(#mask-4);}.cls-15{opacity:0.7;fill:url(#linear-gradient-2);}.cls-16{fill-rule:evenodd;}.cls-17{filter:url(#luminosity-noclip-2);}.cls-18{filter:url(#luminosity-noclip);}</style><filter id="luminosity-noclip" x="0" y="-8356.47" width="500" height="32766" filterUnits="userSpaceOnUse" color-interpolation-filters="sRGB"><feFlood flood-color="#fff" result="bg"/><feBlend in="SourceGraphic" in2="bg"/></filter><mask id="mask" x="0" y="-8356.47" width="500" height="32766" maskUnits="userSpaceOnUse"><g class="cls-18"/></mask><radialGradient id="radial-gradient" cx="-2409.57" cy="-57382.66" r="677.08" gradientTransform="translate(1139.9 2187.23) scale(0.37 0.03)" gradientUnits="userSpaceOnUse"><stop offset="0" stop-color="#fff"/><stop offset="1"/></radialGradient><filter id="luminosity-noclip-2" x="80.66" y="-8356.47" width="219.78" height="32766" filterUnits="userSpaceOnUse" color-interpolation-filters="sRGB"><feFlood flood-color="#fff" result="bg"/><feBlend in="SourceGraphic" in2="bg"/></filter><mask id="mask-2" x="80.66" y="-8356.47" width="219.78" height="32766" maskUnits="userSpaceOnUse"><g class="cls-17"/></mask><linearGradient id="linear-gradient" x1="80.66" y1="259.8" x2="300.44" y2="259.8" gradientTransform="matrix(1, 0, 0, 1, 0, 0)" xlink:href="#radial-gradient"/><filter id="luminosity-noclip-3" x="0" y="502.99" width="500" height="39.29" filterUnits="userSpaceOnUse" color-interpolation-filters="sRGB"><feFlood flood-color="#fff" result="bg"/><feBlend in="SourceGraphic" in2="bg"/></filter><mask id="mask-3" x="0" y="502.99" width="500" height="39.29" maskUnits="userSpaceOnUse"><g class="cls-1"><ellipse class="cls-2" cx="250" cy="522.64" rx="250" ry="19.65"/></g></mask><radialGradient id="radial-gradient-2" cx="-2409.57" cy="-57382.66" r="677.08" gradientTransform="translate(1139.9 2187.23) scale(0.37 0.03)" gradientUnits="userSpaceOnUse"><stop offset="0.64" stop-color="gray"/><stop offset="0.93" stop-color="#fff"/></radialGradient><filter id="luminosity-noclip-4" x="80.66" y="0.33" width="219.78" height="518.95" filterUnits="userSpaceOnUse" color-interpolation-filters="sRGB"><feFlood flood-color="#fff" result="bg"/><feBlend in="SourceGraphic" in2="bg"/></filter><mask id="mask-4" x="80.66" y="0.33" width="219.78" height="518.95" maskUnits="userSpaceOnUse"><g class="cls-3"><rect class="cls-4" x="80.66" y="0.33" width="219.78" height="518.95"/></g></mask><linearGradient id="linear-gradient-2" x1="80.66" y1="259.8" x2="300.44" y2="259.8" gradientUnits="userSpaceOnUse"><stop offset="0" stop-color="#d1d3d4"/><stop offset="1" stop-color="#f2f2f2"/></linearGradient></defs><g class="cls-5"><g id="Calque_2" data-name="Calque 2"><g id="Calque_1-2" data-name="Calque 1"><g class="cls-6"><ellipse class="cls-7" cx="250" cy="522.64" rx="250" ry="19.65"/></g><rect class="cls-8" x="62.95" y="0.33" width="378.38" height="518.34"/><rect class="cls-9" x="62.95" y="71.92" width="329.63" height="375.76"/><rect class="cls-10" x="155.63" y="291.29" width="285.64" height="156.39"/><rect class="cls-11" x="392.73" width="48.54" height="72.01"/><rect class="cls-12" x="62.78" y="447.68" width="92.85" height="71.08"/><path class="cls-13" d="M122.92,186V166.31H127L134.54,184h.59V166.31h2.16V186h-4l-7.64-17.73h-.54V186Z"/><path class="cls-13" d="M156.86,176.28q0,5.25-1.68,7.61t-6.09,2.36c-3,0-5-.8-6.09-2.41s-1.68-4.14-1.68-7.6.57-6,1.71-7.7,3.15-2.51,6-2.51,4.92.83,6.07,2.5S156.86,172.78,156.86,176.28Zm-13.3-.05q0,4.31,1.14,6.2t4.39,1.89c2.17,0,3.62-.62,4.37-1.85s1.13-3.29,1.13-6.19-.39-5-1.17-6.33-2.23-2-4.36-2-3.58.66-4.34,2S143.56,173.35,143.56,176.23Z"/><path class="cls-13" d="M162.91,180.06q0,4.26,4.6,4.26a5.49,5.49,0,0,0,3.59-1,4,4,0,0,0,1.21-3.25V166.31h2.16V180c0,2.2-.59,3.79-1.75,4.77a7.78,7.78,0,0,1-5.16,1.48,7.63,7.63,0,0,1-5.12-1.48q-1.73-1.47-1.72-4.77V166.31h2.19Z"/><path class="cls-13" d="M181.34,178.44V186h-2.19V166.31h7.27a6.71,6.71,0,0,1,4.7,1.45,5.87,5.87,0,0,1,1.58,4.52q0,4.54-3.61,5.7l3.78,8h-2.42l-3.55-7.53Zm5.11-1.93q4,0,4-4.13t-4-4.14h-5.08v8.27Z"/><path class="cls-13" d="M198.84,178.44V186h-2.19V166.31h7.27a6.71,6.71,0,0,1,4.7,1.45,5.87,5.87,0,0,1,1.58,4.52c0,3-1.21,4.93-3.61,5.7l3.78,8H208l-3.55-7.53Zm5.11-1.93q4,0,4-4.13t-4-4.14h-5.08v8.27Z"/><path class="cls-13" d="M214.14,186V166.31h2.19V186Z"/><path class="cls-13" d="M223.32,178.44V186h-2.19V166.31h7.27a6.71,6.71,0,0,1,4.7,1.45,5.87,5.87,0,0,1,1.58,4.52q0,4.54-3.61,5.7l3.78,8h-2.42l-3.55-7.53Zm5.11-1.93q4,0,4-4.13t-4-4.14h-5.08v8.27Z"/><path class="cls-13" d="M125,211.62c0,2.84,1.54,4.26,4.6,4.26a5.54,5.54,0,0,0,3.6-1,4,4,0,0,0,1.2-3.25V197.87h2.16v13.69c0,2.19-.58,3.79-1.74,4.77a7.86,7.86,0,0,1-5.16,1.48,7.73,7.73,0,0,1-5.13-1.48c-1.14-1-1.71-2.58-1.71-4.77V197.87H125Z"/><path class="cls-13" d="M141.21,217.52V197.87h4.09l7.53,17.72h.59V197.87h2.16v19.65h-4l-7.64-17.72h-.53v17.72Z"/><path class="cls-11" d="M167.23,217.52V191.58h7.31l5.79,20.26,5.8-20.26h7.34v25.94h-4.24V196.24h-.56l-6.14,20.22h-4.39L172,196.24h-.56v21.28Z"/><path class="cls-11" d="M217.05,214.76c-1.55,2.12-4.29,3.18-8.2,3.18s-6.65-1.07-8.22-3.2-2.35-5.48-2.35-10.05.79-8,2.37-10.19,4.31-3.33,8.2-3.33,6.62,1.1,8.18,3.31,2.35,5.61,2.35,10.21S218.6,212.64,217.05,214.76ZM203.93,212c.85,1.49,2.5,2.24,4.92,2.24s4.06-.73,4.91-2.2,1.26-3.92,1.26-7.36-.43-6-1.3-7.52-2.5-2.35-4.87-2.35-4,.78-4.89,2.35-1.32,4.06-1.32,7.48S203.07,210.54,203.93,212Z"/><path class="cls-11" d="M224.26,217.52V191.58h7.35l7.88,22.23h.57V191.58h4.2v25.94h-7.2L229,195.26h-.53v22.26Z"/><path class="cls-11" d="M259.21,217.52h-9V191.58h9q6,0,8.18,3t2.2,9.51a30.6,30.6,0,0,1-.43,5.59,13.08,13.08,0,0,1-1.54,4.14Q265.46,217.53,259.21,217.52Zm6-13.4c0-3.13-.4-5.39-1.18-6.78s-2.4-2.08-4.85-2.08h-4.77v18.55h4.77q3.75,0,5-2.76a10.92,10.92,0,0,0,.82-3A30.94,30.94,0,0,0,265.24,204.12Z"/><path class="cls-11" d="M274.52,217.52V191.58h16.35v3.68H278.72v7.35h9.88v3.63h-9.88v7.57h12.15v3.71Z"/><path class="cls-13" d="M122.75,249.08V229.63H135v2.75H125.9v5.51h7.41v2.73H125.9v5.68H135v2.78Z"/><path class="cls-13" d="M138.45,249.08V229.63H144l5.91,16.67h.43V229.63h3.15v19.45h-5.4L142,232.38h-.4v16.7Z"/><path class="cls-12" d="M180.16,248.7a31.69,31.69,0,0,1-6.63.8,12.77,12.77,0,0,1-4.72-.73,5.8,5.8,0,0,1-2.77-2.33,10.22,10.22,0,0,1-1.39-3.75,31.25,31.25,0,0,1-.38-5.41q0-6.84,1.92-9.53c1.29-1.79,3.65-2.69,7.1-2.69a30,30,0,0,1,6.91.94l-.14,3.81a40.28,40.28,0,0,0-5.71-.51,6.53,6.53,0,0,0-3.25.6,3.86,3.86,0,0,0-1.44,2.31,25,25,0,0,0-.46,5.8c0,2.73.31,4.62,1,5.67s1.91,1.58,3.82,1.58a41.46,41.46,0,0,0,6.09-.48Z"/><path class="cls-12" d="M197.63,249.08v-9.79h-8.79v9.79h-4.79V225.47h4.79v9.66h8.79v-9.66h4.78v23.61Z"/><path class="cls-12" d="M205.57,249.08l5.32-23.61H220l5.31,23.61H220.5l-.94-4.27H211.3l-.93,4.27Zm9-19.65-2.39,11.22h6.45l-2.39-11.22Z"/><path class="cls-12" d="M228.45,249.08V225.47h8.09l5.69,19.44h.35V225.47h4.79v23.61h-7.88l-5.9-19.44h-.35v19.44Z"/><path class="cls-12" d="M262.33,240.61v-4.16h6.88V248.7a53.43,53.43,0,0,1-8.06.8c-3.68,0-6.21-1-7.58-2.95s-2.07-5.09-2.07-9.38.72-7.37,2.15-9.26,3.88-2.85,7.33-2.85a36.25,36.25,0,0,1,7,.73l1.26.24-.15,3.72a63,63,0,0,0-6.82-.45,8,8,0,0,0-3.73.62,3.75,3.75,0,0,0-1.58,2.31,23,23,0,0,0-.5,5.76c0,2.72.33,4.62,1,5.71s2.05,1.63,4.16,1.63l2.88-.14v-4.58Z"/><path class="cls-12" d="M273.72,249.08V225.47H289v4.17H278.51v5.52h8.4v4.1h-8.4v5.65H289v4.17Z"/><path class="cls-12" d="M293,249.08V225.47h8.15l4.17,17.22,4.16-17.22h8.16v23.61H312.8V230.82h-.52L307.66,248h-4.79l-4.61-17.22h-.52v18.26Z"/><path class="cls-12" d="M322.73,249.08V225.47H338v4.17H327.52v5.52h8.4v4.1h-8.4v5.65H338v4.17Z"/><path class="cls-12" d="M342,249.08V225.47h8.09l5.69,19.44h.35V225.47h4.79v23.61H353l-5.9-19.44h-.35v19.44Z"/><path class="cls-12" d="M363.9,229.71v-4.24h17.35v4.24H375v19.37h-4.8V229.71Z"/><g class="cls-14"><rect class="cls-15" x="80.66" y="0.33" width="219.78" height="518.95"/></g><path class="cls-9" d="M225,379.13l5.6-.68,2.12,6.17-3.67,2.9H211.52l-5.4-12.06-27.68-.09-2,5.49,4.25,6.66H162.33l25.37-57.2L183.55,320H201.1Zm-44.36-10.42,22.47-.68L192,341.42Z"/><path class="cls-9" d="M286.17,347.88q0,5,.05,10.22t0,10v7.86L274.4,387.81H250.29l-10.9-9.07V347.49l-6.65-3.76,2.41-4.44h18.13l.1,35,3.37,7,11-1.06,4.05-7.13.1-26.33c-.2-.13-.5-.36-.92-.68s-.84-.66-1.25-1l-1.16-1a5.9,5.9,0,0,0-.73-.53v-4.34h18.33Z"/><path class="cls-9" d="M315.06,368.76q0,6.4,0,12.1l4.25,1.64c0,.84,0,1.66-.05,2.46s-.05,1.66-.05,2.56H301.12c0-1,0-2.3.05-4s.06-3.61.09-5.73.05-4.36.05-6.71V346.72l-4.92-3.09,2.32-4.34H314l.58,8.88a60,60,0,0,1,6.07-5,37,37,0,0,1,5.64-3.42,12.88,12.88,0,0,1,5.65-1.5,14.27,14.27,0,0,1,4.53.68A24.16,24.16,0,0,1,340,340.4a16.38,16.38,0,0,1,2.55,1.64c.68.55,1.14.92,1.4,1.11l-3.66,10.32-12.54-2.89a12.8,12.8,0,0,0-3.23,1c-1.26.55-2.51,1.14-3.76,1.79s-2.4,1.28-3.43,1.92L315,356.75Q315,362.35,315.06,368.76Z"/><path class="cls-9" d="M366.37,377.54q3.22,4.09,10.46,4.48a13,13,0,0,0,5.6-3.86q2.31-2.7,5-6.27l10.8,4a7.75,7.75,0,0,1-1.35,2.65,25.51,25.51,0,0,1-3.23,3.86,25.2,25.2,0,0,1-4.44,3.52,9.79,9.79,0,0,1-4.77,1.64H360.82c-1.67,0-3.42-1-5.25-3a30.71,30.71,0,0,1-4.88-7.52,39.67,39.67,0,0,1-3.08-9.55,21.21,21.21,0,0,1,.09-9.21c.33-1.1.87-2.57,1.64-4.44a32.25,32.25,0,0,1,3.09-5.64,26.79,26.79,0,0,1,4.73-5.26,15.14,15.14,0,0,1,6.65-3.28,61.69,61.69,0,0,1,6.27-.77,69.67,69.67,0,0,1,7.38-.19,49.41,49.41,0,0,1,6.94.63,11.81,11.81,0,0,1,4.87,1.68,16.7,16.7,0,0,1,3,3,25.25,25.25,0,0,1,2.89,4.58,30.63,30.63,0,0,1,2.13,5.6,25.71,25.71,0,0,1,.91,6l-6.46,5.3-29.13,1.64A18.85,18.85,0,0,0,366.37,377.54ZM383,355.35q-.63-2.27-1.55-4.72a36.64,36.64,0,0,0-1.93-4.39c-.67-1.29-1.3-2-1.88-2a8.76,8.76,0,0,0-2.46.2c-1,.19-2,.43-3.08.72s-2.08.61-3,1a16.36,16.36,0,0,0-2.32,1,7.46,7.46,0,0,0-1.35,2.12,27.59,27.59,0,0,0-1.25,3.28,29.06,29.06,0,0,0-.92,3.76,20.7,20.7,0,0,0-.33,3.47l20.83-1.35A30.37,30.37,0,0,0,383,355.35Z"/><path class="cls-9" d="M425.15,379.42l6.85,2v6.08H411.75l.19-59.51-7.43-3.38,1.26-4.63h19.38Z"/><path class="cls-9" d="M354.48,413v-3.31h5.46v9.73a41.33,41.33,0,0,1-6.39.64q-4.4,0-6-2.35c-1.1-1.56-1.64-4-1.64-7.44s.57-5.86,1.71-7.37,3.08-2.26,5.82-2.26a28.77,28.77,0,0,1,5.54.58l1,.19-.11,3a52,52,0,0,0-5.42-.36,6.36,6.36,0,0,0-3,.49,3,3,0,0,0-1.26,1.84,18.32,18.32,0,0,0-.4,4.57,9.11,9.11,0,0,0,.81,4.54c.53.86,1.63,1.3,3.31,1.3l2.29-.11V413Z"/><path class="cls-9" d="M367.34,413.39v6.29h-3.81V400.92h7.28q6.62,0,6.62,6.18a5.94,5.94,0,0,1-2.76,5.41l2.68,7.17h-4.17L371,413.39Zm5.54-4.08a3.41,3.41,0,0,0,.66-2.18,3.13,3.13,0,0,0-.7-2.15,2.54,2.54,0,0,0-2-.8h-3.47v5.95h3.52A2.42,2.42,0,0,0,372.88,409.31Z"/><path class="cls-9" d="M393.61,417.68q-1.75,2.32-6,2.33t-6-2.33q-1.76-2.34-1.75-7.3t1.75-7.38q1.76-2.42,6-2.41t6,2.41c1.16,1.61,1.75,4.07,1.75,7.38S394.77,416.12,393.61,417.68Zm-9.08-2.43a3.93,3.93,0,0,0,6.1,0,10.58,10.58,0,0,0,.81-4.85,11,11,0,0,0-.83-4.95,3.74,3.74,0,0,0-6.06,0,10.89,10.89,0,0,0-.83,4.95A10.58,10.58,0,0,0,384.53,415.25Z"/><path class="cls-9" d="M402.25,413.42c0,2.18,1.11,3.28,3.34,3.28s3.34-1.1,3.34-3.28v-12.5h3.8v12.41q0,3.45-1.78,5.06a9.68,9.68,0,0,1-10.72,0q-1.78-1.61-1.78-5.06V400.92h3.8Z"/><path class="cls-9" d="M423.54,414.21h-3.09v5.47h-3.8V400.92h6.89q6.68,0,6.68,6.51a6.93,6.93,0,0,1-1.7,5A6.61,6.61,0,0,1,423.54,414.21ZM420.45,411h3.07c1.89,0,2.84-1.17,2.84-3.53a3.68,3.68,0,0,0-.69-2.5,2.79,2.79,0,0,0-2.15-.75h-3.07Z"/><rect class="cls-9" x="143.38" y="438.78" width="298" height="8.68"/><path class="cls-16" d="M130.07,10.1c3.3,0,6.65.5,10.35.5,1.69,0,3.56,0,5.34.13,2.24.15,4.66-.25,5.91.86a4.39,4.39,0,0,1,.6.8,4.8,4.8,0,0,1,.53.83c.65,1.55.49,3.72.53,5.94,0,0,0,0,0,0a4.61,4.61,0,0,1-1.39,1.13c-3.4,2.51-6.75,4.75-10.26,7.34-1.88,1.38-3.87,2.86-5.74,4.31-.91.71-2,1.32-3,2.09a6.62,6.62,0,0,1-1.49,1,6.34,6.34,0,0,1-1.76.73c-1.34.07-1.31-.93-1.56-2-.06-.26-.07-.65-.13-1a2.71,2.71,0,0,1-.1-1c.15-.45.81-.46,1.46-.63A7.14,7.14,0,0,0,133,28.92a11.3,11.3,0,0,0,1.52-1.86,8.83,8.83,0,0,0,.63-1.69,10.78,10.78,0,0,0,.47-1.86,12.36,12.36,0,0,0-.13-3.05,10.77,10.77,0,0,0-1.3-2.69c-1.24-2.14-2.43-4.08-3.65-6.31-.17-.31-.73-1-.56-1.29A.26.26,0,0,1,130.07,10.1Z"/><path class="cls-16" d="M127.58,12.26a2,2,0,0,1-.67.86l-.76.77c-1.33,1.69-2.93,3.12-4.32,4.77-.29.83-.61,1.64-.89,2.49a19.86,19.86,0,0,0-.87,2.53c-.17,1,.1,2.1,0,3.25,0,0,0,0,0,.06a10.53,10.53,0,0,0,1,1.63,11.14,11.14,0,0,0,1.06,1.53,28.7,28.7,0,0,0,3.38,2.59,4,4,0,0,1,1.4,2.72c.06.41.08.89.1,1.36a1.83,1.83,0,0,1-.2,1.26,1.14,1.14,0,0,1-1-.1,4.93,4.93,0,0,1-.83-.36,4.25,4.25,0,0,1-.8-1.13c-.72-1.17-1.62-2.28-2.26-3.42a11.68,11.68,0,0,0-1.52-2.29c-.27-.29-.6-.65-.93-1a5.41,5.41,0,0,0-1-.87,11.19,11.19,0,0,0-3.09-.63,8.07,8.07,0,0,0-2.69.4,10.71,10.71,0,0,0-1.89,1.06c-.64.4-1.37.7-1.93,1.13a12.17,12.17,0,0,0-1.49,1.69c-.24.29-.51.56-.73.87s-.36.73-.76.79A9.64,9.64,0,0,1,105.9,32c0-2.18-.31-4.37-.4-6.64,0-1.53-.07-3-.1-4.51s-.05-3.06,0-4.52a5,5,0,0,1,1.92-3.85c1.53-1,4.51-.67,6.87-.56,2.9.14,5.93-.09,8.93.07.76,0,1.51,0,2.26.06A8.23,8.23,0,0,1,127.58,12.26Z"/><path class="cls-16" d="M153.93,37a3.58,3.58,0,0,1-1.29.43c-1.35.33-2.79.69-4.25.93-1,.15-2,.31-3,.49s-2,.26-3,.44c-1.91.33-3.79.85-5.8,1.09a29.15,29.15,0,0,1-3.32.13c-1.59,0-3.51.2-4.12-.83a4.85,4.85,0,0,1,0-1.59,3.28,3.28,0,0,1,1.06-1.26,11,11,0,0,1,1.29-1,10.47,10.47,0,0,1,3.65-.37,5.08,5.08,0,0,1,.93.47c.32.15.66.26,1,.4a12,12,0,0,0,1.9.86,25.48,25.48,0,0,0,2.65.27,6.67,6.67,0,0,0,.83.1,3.9,3.9,0,0,0,1.26-.5,25.22,25.22,0,0,0,3.32-1.86c.63-.95,1.22-2,1.83-3a24.62,24.62,0,0,0,1.66-3.19c.67-1.74,1.4-3.45,2-5.28.27-.84.71-1.48,1-2.39a3.05,3.05,0,0,1,.17-.76c.18-.29.77-.44,1.06-.57.55-.24.35.66.33.8a29.66,29.66,0,0,0-.17,3.32,32,32,0,0,1-.36,4.28c-.19,1.44-.23,2.92-.33,4.32S154.13,35.63,153.93,37Z"/><path class="cls-16" d="M127.31,44.35a3.73,3.73,0,0,1-2,0,12.08,12.08,0,0,1-1.29-.66c-1.27-.64-2.3-1.53-3.62-2.16a24.06,24.06,0,0,0-2.76-1.13c-1.42-.48-3.19-1.14-4.94-.56A5.39,5.39,0,0,0,111,41a42.68,42.68,0,0,0-4.51,4.18c-.32.18-.48.7-.93.63a2.13,2.13,0,0,1-.17-1.16c0-2.16,0-4.16-.13-6.37,0-.35,0-.76-.07-1.23s-.11-1.09.1-1.16l.1-.07c1.71.11,3.42.37,5.11.6,1.54.21,3.12.36,4.65.59,2.27.35,4.51.67,6.77,1.1,1.29.24,2.79.25,3.45,1.09a5.89,5.89,0,0,1,.53,1.3c.18.42.41.85.57,1.23A7.07,7.07,0,0,1,127.31,44.35Z"/><path class="cls-16" d="M152.1,38.74c.35-.11.24.76.24,1.1,0,1.22,0,2.45,0,3.82,0,1.62.18,3.27.3,4.81a65.81,65.81,0,0,1,0,7.3,11.82,11.82,0,0,1-.13,2.69,10.9,10.9,0,0,1-.47,1A5,5,0,0,1,150,62a6.57,6.57,0,0,1-2.33.16c-.9,0-1.7,0-2.49-.06-1.72-.08-3.56,0-4.94,0-1.65,0-3.28-.13-4.91-.13s-3.33-.09-4.92-.2a9.51,9.51,0,0,1-.46-2.89c-.22-2.07-.61-3.74-.76-5.9-.06-.85-.09-2.53.46-2.79a1.92,1.92,0,0,1,1.3.2c.43.17.87.26,1.22.4,2.31.85,4.76,1.84,7.07,2.62l7.27,2.45c.41.14.82.28,1.23.4s.8.38,1.23.23a4.42,4.42,0,0,0-.53-1.72c-.45-1.09-.9-2.17-1.36-3.25-.23-.55-.42-1.12-.67-1.63a10.66,10.66,0,0,0-1.19-1.76,12.12,12.12,0,0,0-1.46-1.49c-2.65-1.23-5.9-.15-8.53.43a13,13,0,0,0-3.36,1.13,7.26,7.26,0,0,0-2.09.46c-.55.11-1.43.18-1.72-.16s-.11-1.43,0-1.93a12.47,12.47,0,0,1,.93-3.35,5.72,5.72,0,0,1,.67-1.46,3.35,3.35,0,0,1,.86-.33,4.08,4.08,0,0,1,.93-.27,5,5,0,0,1,1.59.37,28.07,28.07,0,0,1,3.89,1.89c1.27.67,2.51,1.28,3.91,1.86a6.74,6.74,0,0,0,1.43.49,5.4,5.4,0,0,0,3.32-.49,11.07,11.07,0,0,0,1.76-1.46c.57-.51,1.11-1.11,1.62-1.6C150,41.09,151,39.9,152.1,38.74Z"/><path class="cls-16" d="M125.65,47.47a34.88,34.88,0,0,1,1.26,4.62,3.77,3.77,0,0,1,.23,1.56c-.32.26-.79.11-1.16.1-5.38-.26-10.88-.49-16.16-.87l-1.26-.06c-.36,0-.77-.16-1.1.06a3.15,3.15,0,0,0,.6,1.3c.22.41.45.84.66,1.26a20.89,20.89,0,0,0,1.36,2.49,6.56,6.56,0,0,0,2,1.56,8.53,8.53,0,0,0,1.09.56,5.59,5.59,0,0,0,1.33.43,9.45,9.45,0,0,0,1.33,0c.63,0,1.39,0,2-.07A5.56,5.56,0,0,0,119,60c.38-.15.75-.33,1.09-.46,2-.79,3-2.07,4.82-3.09.29-.17.83-.53,1.06-.5s.42.44.53.8.29.66.37.93a16.1,16.1,0,0,1,.39,2.42,12.83,12.83,0,0,1,.34,2.42,5.11,5.11,0,0,1-1.83,0c-.65,0-1.31-.07-2-.07-3.91,0-8.19.21-11.88.2-.43,0-.88-.07-1.33-.07a4.44,4.44,0,0,1-2-.26,4.22,4.22,0,0,1-1.06-.8,3.14,3.14,0,0,1-1.27-2.09,25.54,25.54,0,0,1,.14-3.09c.11-2.43.18-5.14.3-7.67a3.55,3.55,0,0,1,.2-1.39,9.17,9.17,0,0,1,3.15.43c1,.26,1.88.57,2.79.9,1.84.67,3.78,1.54,5.91,1.49a7.3,7.3,0,0,0,3.55-1.46l1.26-.76C124.16,47.54,124.88,46.74,125.65,47.47Z"/></g></g></g></svg>