<svg xmlns="http://www.w3.org/2000/svg" viewBox="0 0 1580 813"><defs><style>.cls-1{fill:#13322b;}.cls-2{fill:#fff;}.cls-3{fill:#88b04b;fill-rule:evenodd;}.cls-4{fill:#060f0d;opacity:0.37;}</style></defs><g id="Calque_2" data-name="Calque 2"><g id="Calque_1-2" data-name="Calque 1"><rect class="cls-1" y="0.5" width="1579.5" height="812.5"/><path class="cls-2" d="M910.85,504.39l14.31-1.73,5.43,15.79-9.37,7.41H876.3L862.48,495l-70.82-.25-5.18,14.07,10.85,17H750.45l64.9-146.34-10.61-26.41h44.91ZM797.33,477.74l57.5-1.73L826.45,407.9Z"/><path class="cls-2" d="M1067.31,424.43q0,12.84.12,26.16t.13,25.54v20.11L1037.2,526.6H975.51l-27.89-23.2V423.45l-17-9.63,6.17-11.35h46.39l.25,89.58,8.63,18,28.14-2.71,10.36-18.26.25-67.37c-.5-.33-1.28-.91-2.35-1.73s-2.14-1.69-3.2-2.59-2.06-1.73-3-2.47a13.49,13.49,0,0,0-1.85-1.36v-11.1h46.89Z"/><path class="cls-2" d="M1141.22,477.86q.12,16.41.13,31l10.85,4.2q0,3.19-.12,6.29t-.12,6.54h-46.4q0-3.71.13-10.24t.24-14.69q.13-8.15.13-17.15V421.47l-12.59-7.9,5.92-11.1h39l1.48,22.7a156.64,156.64,0,0,1,15.55-12.83,93.72,93.72,0,0,1,14.44-8.76,32.94,32.94,0,0,1,14.43-3.83,36.57,36.57,0,0,1,11.6,1.73,59.19,59.19,0,0,1,9.13,3.83,40.39,40.39,0,0,1,6.54,4.19q2.6,2.1,3.58,2.84l-9.38,26.41-32.08-7.41a33.45,33.45,0,0,0-8.26,2.59q-4.82,2.1-9.63,4.57t-8.76,4.93l-5.92,3.71Q1141.1,461.45,1141.22,477.86Z"/><path class="cls-2" d="M1272.51,500.32q8.27,10.49,26.78,11.47a33,33,0,0,0,14.31-9.87q5.93-6.92,12.83-16L1354.07,496c-.16,1.31-1.32,3.58-3.45,6.78a66.31,66.31,0,0,1-8.27,9.88,64.4,64.4,0,0,1-11.35,9,25,25,0,0,1-12.22,4.2h-60.46q-6.42,0-13.45-7.78a78.4,78.4,0,0,1-12.46-19.24,101.39,101.39,0,0,1-7.9-24.43q-2.46-13,.25-23.57a118.51,118.51,0,0,1,4.2-11.35,80.71,80.71,0,0,1,7.89-14.44,68.61,68.61,0,0,1,12.09-13.45,38.66,38.66,0,0,1,17-8.39,157.85,157.85,0,0,1,16-2,179.76,179.76,0,0,1,18.88-.5,130.88,130.88,0,0,1,17.77,1.61q8.27,1.35,12.46,4.31a42.74,42.74,0,0,1,7.77,7.78,64.56,64.56,0,0,1,7.41,11.72,78.19,78.19,0,0,1,5.43,14.31,65.37,65.37,0,0,1,2.34,15.3l-16.53,13.58L1263,473.54Q1264.24,489.83,1272.51,500.32ZM1315,443.56q-1.61-5.81-4-12.09a96,96,0,0,0-4.94-11.23c-1.72-3.29-3.33-5-4.81-5.19a22.47,22.47,0,0,0-6.29.5q-3.83.74-7.9,1.85t-7.77,2.47a43.32,43.32,0,0,0-5.93,2.59,19.3,19.3,0,0,0-3.45,5.43,69.74,69.74,0,0,0-3.21,8.39,73,73,0,0,0-2.34,9.62,51.67,51.67,0,0,0-.87,8.89l53.31-3.46A69.41,69.41,0,0,0,1315,443.56Z"/><path class="cls-2" d="M1422.93,505.13l17.52,5.18v15.55h-51.83l.5-152.26-19-8.64,3.21-11.85h49.61Z"/><g id="lake_forest_open_lands_association"><path class="cls-3" d="M396.29,178c31.37.2,63.25,4.73,98.42,4.73,16,0,33.82.17,50.79,1.27,21.28,1.37,44.26-2.36,56.15,8.2,2,1.79,3.8,4.79,5.68,7.56,1.76,2.6,3.94,5.28,5,7.89,6.21,14.74,4.67,35.38,5,56.47-.26-.07-.29.12-.31.31-3.06,5-8.73,7.37-13.25,10.72-32.23,23.87-64.14,45.16-97.48,69.72-17.83,13.14-36.73,27.2-54.57,41-8.64,6.69-18.72,12.56-28.08,19.87-4.08,3.19-8.3,7.18-14.18,9.78-5.43,2.39-11.63,6.67-16.72,6.94-12.71.67-12.47-8.82-14.83-19.55-.54-2.47-.7-6.1-1.26-9.47s-1.61-7.19-.95-9.14c1.45-4.3,7.7-4.35,13.87-6,15.28-4.09,24.58-11,34.38-21.46,5.35-5.68,11.31-12,14.51-17.66,2.36-4.16,4.13-10.1,6-16.09,1.75-5.61,3.72-11.79,4.42-17.67.87-7.31.32-22.24-1.27-29-2.05-8.75-7.77-17.77-12.3-25.55-11.82-20.3-23.13-38.74-34.7-59.93-1.59-2.94-7-9.69-5.36-12.31A2.3,2.3,0,0,1,396.29,178Z"/><path class="cls-3" d="M372.62,198.46c-.87,3.61-4,5.88-6.31,8.2s-4.87,4.8-7.25,7.25c-12.67,16.15-27.88,29.75-41,45.43-2.75,7.83-5.87,15.54-8.51,23.66-2.56,7.85-6.7,15.61-8.21,24-1.7,9.41.95,20,.32,30.91.06.26.32.32.32.63,2.63,6.1,6.4,10.57,9.46,15.46,2.86,4.59,5.91,9.75,10.09,14.51,8.69,9.91,21.69,15.87,32.17,24.61,7.71,6.43,11.31,14,13.26,25.87a119,119,0,0,1,.95,12.93c.18,4.11.69,9-1.9,12-3.18,1.53-6.56.2-9.14-.95s-5.84-2-7.89-3.47c-2.84-2-5.15-6.78-7.57-10.73-6.81-11.12-15.4-21.63-21.46-32.5-4.11-7.4-8.45-15.17-14.5-21.77-2.56-2.77-5.64-6.18-8.84-9.14-2.91-2.69-6.65-6.7-9.77-8.2-6.67-3.21-20.25-5.29-29.34-6-7.69-.6-19.23,1.58-25.56,3.79s-12.24,6.54-18,10.09c-6.05,3.76-13,6.66-18.3,10.73s-9.62,10.69-14.18,16.08c-2.31,2.72-4.89,5.31-7,8.2s-3.43,6.95-7.25,7.57c-1.57-6.8-.63-14-.63-21.13,0-20.73-3-41.5-3.78-63.1-.55-14.54-.73-29-1-42.9-.23-14.64-.52-29,.33-42.9.94-15.49,7.83-29.86,18.29-36.59,14.52-9.31,42.88-6.41,65.3-5.34,27.55,1.31,56.29-.9,84.86.63,7.19.39,14.36.46,21.45.63C358.94,197,366,196.44,372.62,198.46Z"/><path class="cls-3" d="M623.1,433.47c-3.49,2.6-8.05,3-12.3,4.1-12.75,3.17-26.52,6.59-40.38,8.83-9.21,1.48-18.59,3-28.08,4.73-9.28,1.69-18.88,2.43-28.39,4.1-18.24,3.22-36,8.16-55.21,10.41-9.69,1.13-20.29,1.26-31.54,1.26-15.07,0-33.38,1.88-39.12-7.88-.38-5.44-.85-11.3.32-15.14,1.4-4.64,6.53-8.75,10.09-12a102.75,102.75,0,0,1,12.31-9.78c9.64-1.73,24.56-5.88,34.7-3.47,3.18.76,5.61,2.91,8.82,4.41,3,1.42,6.27,2.47,9.15,3.79,5.77,2.66,11.77,6.57,18,8.2s17.7,1.7,25.24,2.52c2.67.29,5.62,1.06,7.88.95,3.61-.2,8.38-2.9,12-4.74,11-5.59,22.16-10.8,31.54-17.66,5.94-9.06,11.61-18.95,17.35-29C581,377.41,587,367.7,591.23,356.8c6.36-16.51,13.31-32.74,18.92-50.16,2.58-8,6.81-14.11,9.14-22.72.67-2.45.48-5.48,1.58-7.25,1.72-2.77,7.34-4.16,10.09-5.37,5.24-2.3,3.32,6.23,3.16,7.57a282.66,282.66,0,0,0-1.58,31.55c0,15.32-1.85,28-3.47,40.69-1.74,13.68-2.12,27.79-3.15,41C624.87,405.79,625,420.6,623.1,433.47Z"/><path class="cls-3" d="M370.1,503.5c-4.64,1.51-13.64,1.47-18.62-.32-4.16-1.5-8.14-4.2-12.3-6.31-12-6.08-21.87-14.46-34.38-20.5a228.86,228.86,0,0,0-26.18-10.73c-13.51-4.56-30.34-10.83-47-5.36-6.25,2.05-11.47,6.62-16.71,11-15,12.64-30.06,25.32-42.9,39.75-3,1.73-4.49,6.66-8.84,6-2-3-1.5-7.22-1.57-11-.4-20.49-.3-39.52-1.26-60.56-.15-3.26-.5-7.23-.64-11.67-.12-3.88-1-10.34,1-11a2.14,2.14,0,0,1,.94-.63c16.2,1,32.47,3.49,48.58,5.67,14.65,2,29.61,3.47,44.17,5.68,21.6,3.28,42.89,6.36,64.35,10.41,12.24,2.31,26.5,2.37,32.8,10.41,2.41,3.06,3.32,8.2,5.05,12.3s3.82,8.12,5.36,11.67C365.44,486.45,369.84,493.88,370.1,503.5Z"/><path class="cls-3" d="M605.75,450.19c3.28-1.09,2.21,7.15,2.21,10.4,0,11.62-.26,23.27,0,36.28.3,15.47,1.76,31.16,2.84,45.75,1.77,23.93,1.21,45.15.31,69.39-.31,8.43,1,18.14-1.26,25.55-.91,3-3,6.07-4.42,9.47-3.87,8.91-11.44,20.38-20.18,24-6,2.45-13.67,1.58-22.09,1.58-8.61,0-16.21-.32-23.66-.63-16.42-.7-33.88-.32-47-.32-15.64,0-31.16-1.26-46.68-1.26-15.87,0-31.62-.83-46.69-1.9-3.66-7.75-3.39-17.7-4.41-27.44-2.07-19.75-5.77-35.61-7.26-56.15-.58-8-.85-24,4.42-26.5,3.28-1.55,8.54.42,12.3,1.9,4.15,1.63,8.29,2.52,11.67,3.78,21.92,8.12,45.22,17.55,67.19,24.92,23.22,7.78,46,15.59,69.08,23.34,3.85,1.29,7.82,2.63,11.67,3.78s7.63,3.58,11.67,2.21c.21-5.81-2.89-11.16-5-16.4q-6.34-15.45-12.94-30.91c-2.19-5.17-3.93-10.62-6.31-15.46-2.94-6-7.3-11.63-11.35-16.72a111.79,111.79,0,0,0-13.89-14.19c-25.12-11.63-56-1.39-81.07,4.1-11.57,2.54-23.16,5.87-31.86,10.72-8.12-.43-12.12,2.87-19.87,4.42-5.25,1-13.64,1.71-16.4-1.58s-1-13.5-.32-18.29a117.07,117.07,0,0,1,8.83-31.86c1.86-4.35,4-11.84,6.31-13.88,1.51-1.31,5.88-2.38,8.21-3.16,2.55-.85,6.28-2.41,8.83-2.52,4.31-.19,10.59,1.88,15.14,3.47,13.27,4.6,25.55,12,36.92,18,12.11,6.37,23.86,12.21,37.22,17.67,4.46,1.82,9.34,4.15,13.56,4.73,11.64,1.61,22.44.13,31.54-4.73,5.83-3.11,11.25-9,16.72-13.88s10.56-10.55,15.46-15.14C586,472.5,595.28,461.13,605.75,450.19Z"/><path class="cls-3" d="M354.33,533.15c5.15,13.46,8.48,28.43,12,43.85,1.08,4.78,3.15,9.81,2.2,14.83-3.12,2.46-7.54,1.11-11,.94-51.2-2.43-103.44-4.6-153.62-8.2-4-.28-8.06-.43-12-.63-3.45-.17-7.34-1.51-10.41.63.11,4.65,3.57,8.28,5.68,12.31s4.29,8,6.3,12c4.11,8.17,8.08,16.77,12.94,23.65,4,5.68,12.2,11,18.92,14.83a78.21,78.21,0,0,0,10.42,5.36c4,1.55,8.22,3.47,12.61,4.1a90.29,90.29,0,0,0,12.62.32c6.07-.08,13.28.06,18.92-.64,3.4-.41,7.15-2.58,11.05-4.09,3.59-1.4,7.13-3.12,10.41-4.42,18.85-7.46,28.54-19.63,45.74-29.33,2.81-1.58,7.95-5,10.09-4.73,2.79.35,4,4.21,5,7.57s2.73,6.31,3.48,8.83c2.15,7.32,2.71,14.79,3.78,23,.92,7.08,3.7,15.42,3.15,23-5.53,1.93-11.51.41-17.35.31-6.18-.1-12.46-.63-18.93-.63-37.13,0-77.81,2-112.93,1.9-4,0-8.34-.64-12.62-.64-7.9,0-13.68.09-18.92-2.53a38.38,38.38,0,0,1-10.09-7.56c-5.68-5.67-11.06-9.89-12-19.88-.83-8.94.79-19.36,1.27-29.33,1.09-23.15,1.74-48.83,2.83-72.87.21-4.48,0-9.33,1.89-13.25,10.9-.88,20.77,1.64,30,4.1s17.88,5.35,26.51,8.52c17.52,6.43,36,14.66,56.15,14.19,13.34-.31,24.18-8.09,33.76-13.88,3.84-2.32,7.94-4.73,12-7.26C340.15,533.82,347,526.18,354.33,533.15Z"/></g><rect class="cls-4" width="1580" height="70"/></g></g></svg>