<svg xmlns="http://www.w3.org/2000/svg" xmlns:xlink="http://www.w3.org/1999/xlink" viewBox="0 0 435 397.62"><defs><style>.cls-1{fill:none;}.cls-2{fill:#13322b;}.cls-3{clip-path:url(#clip-path);}.cls-4,.cls-5{fill:#88b04b;}.cls-5{opacity:0.76;}.cls-6,.cls-8{fill:#fff;}.cls-7{fill:#bfd833;}.cls-8{fill-rule:evenodd;}</style><clipPath id="clip-path" transform="translate(58.5)"><rect class="cls-1" y="55" width="253" height="287"/></clipPath></defs><g id="Calque_2" data-name="Calque 2"><g id="Calque_1-2" data-name="Calque 1"><rect class="cls-2" x="58.5" width="289.68" height="397.55"/><g class="cls-3"><image width="1500" height="1000" transform="translate(0 54) scale(0.29)" xlink:href="../../../../Volumes/SANDISK%201/F71BC900-8A28-412B-8362-6B197C0DA975_auto_x2.jpg"/></g><rect class="cls-4" x="58.5" y="343" width="144.92" height="54.62"/><rect class="cls-5" x="128.54" y="223.59" width="219.96" height="119.41"/><path class="cls-6" d="M161.57,359.84v-9.21h1.92l3.52,8.3h.28v-8.3h1v9.21h-1.88l-3.57-8.3h-.25v8.3Z" transform="translate(58.5)"/><path class="cls-6" d="M177.46,355.3a6.28,6.28,0,0,1-.78,3.56,4.2,4.2,0,0,1-5.71,0,6.39,6.39,0,0,1-.78-3.56,6.48,6.48,0,0,1,.8-3.6,3.15,3.15,0,0,1,2.83-1.18,3.2,3.2,0,0,1,2.84,1.17A6.47,6.47,0,0,1,177.46,355.3Zm-6.22,0a6,6,0,0,0,.53,2.91,2.21,2.21,0,0,0,2.06.88,2.18,2.18,0,0,0,2-.86,5.88,5.88,0,0,0,.53-2.9,6,6,0,0,0-.55-3,2.69,2.69,0,0,0-4.07,0A6.06,6.06,0,0,0,171.24,355.27Z" transform="translate(58.5)"/><path class="cls-6" d="M180.29,357.07c0,1.33.72,2,2.16,2a2.53,2.53,0,0,0,1.68-.47,1.86,1.86,0,0,0,.57-1.52v-6.44h1V357a2.8,2.8,0,0,1-.82,2.24,3.66,3.66,0,0,1-2.41.69,3.58,3.58,0,0,1-2.4-.69,2.8,2.8,0,0,1-.81-2.24v-6.41h1Z" transform="translate(58.5)"/><path class="cls-6" d="M188.93,356.31v3.53h-1v-9.21h3.41a3.18,3.18,0,0,1,2.2.68,2.75,2.75,0,0,1,.73,2.12,2.48,2.48,0,0,1-1.68,2.67l1.77,3.74h-1.14l-1.66-3.53Zm2.39-.9c1.25,0,1.87-.65,1.87-1.94a1.68,1.68,0,0,0-1.88-1.93h-2.38v3.87Z" transform="translate(58.5)"/><path class="cls-6" d="M197.12,356.31v3.53h-1v-9.21h3.41a3.17,3.17,0,0,1,2.2.68,2.76,2.76,0,0,1,.74,2.12,2.49,2.49,0,0,1-1.69,2.67l1.77,3.74h-1.13l-1.67-3.53Zm2.39-.9a1.94,1.94,0,0,0,0-3.87h-2.38v3.87Z" transform="translate(58.5)"/><path class="cls-6" d="M204.29,359.84v-9.21h1v9.21Z" transform="translate(58.5)"/><path class="cls-6" d="M208.58,356.31v3.53h-1v-9.21H211a3.15,3.15,0,0,1,2.2.68,2.72,2.72,0,0,1,.74,2.12,2.48,2.48,0,0,1-1.69,2.67l1.77,3.74h-1.13l-1.66-3.53Zm2.4-.9c1.25,0,1.87-.65,1.87-1.94a1.69,1.69,0,0,0-1.89-1.93h-2.38v3.87Z" transform="translate(58.5)"/><path class="cls-6" d="M162.53,371.85c0,1.33.72,2,2.15,2a2.62,2.62,0,0,0,1.69-.47,1.9,1.9,0,0,0,.56-1.52v-6.44h1v6.41a2.74,2.74,0,0,1-.82,2.23,4.54,4.54,0,0,1-4.81,0,2.77,2.77,0,0,1-.81-2.23v-6.41h1Z" transform="translate(58.5)"/><path class="cls-6" d="M170.13,374.61v-9.2h1.92l3.52,8.3h.28v-8.3h1v9.2H175l-3.58-8.3h-.25v8.3Z" transform="translate(58.5)"/><path class="cls-4" d="M182.32,374.61V362.47h3.42l2.71,9.48,2.72-9.48h3.44v12.14h-2v-10h-.26l-2.88,9.47h-2l-2.88-9.47h-.26v10Z" transform="translate(58.5)"/><path class="cls-4" d="M205.65,373.32c-.73,1-2,1.49-3.84,1.49s-3.12-.5-3.85-1.5a8.06,8.06,0,0,1-1.1-4.71,8.27,8.27,0,0,1,1.11-4.77,4.39,4.39,0,0,1,3.84-1.56c1.82,0,3.1.52,3.83,1.55a8.37,8.37,0,0,1,1.1,4.78A8.15,8.15,0,0,1,205.65,373.32ZM199.5,372a3.06,3.06,0,0,0,4.6,0,7.28,7.28,0,0,0,.6-3.45,7.7,7.7,0,0,0-.61-3.52,2.92,2.92,0,0,0-4.57,0,7.48,7.48,0,0,0-.62,3.5A7.34,7.34,0,0,0,199.5,372Z" transform="translate(58.5)"/><path class="cls-4" d="M209,374.61V362.47h3.45l3.68,10.4h.27v-10.4h2v12.14H215l-3.78-10.42H211v10.42Z" transform="translate(58.5)"/><path class="cls-4" d="M225.39,374.61h-4.2V362.47h4.2c1.87,0,3.14.47,3.83,1.41a7.63,7.63,0,0,1,1,4.45,14.94,14.94,0,0,1-.2,2.62,6.17,6.17,0,0,1-.72,1.94C228.65,374,227.34,374.61,225.39,374.61Zm2.82-6.28a6.76,6.76,0,0,0-.55-3.17,2.38,2.38,0,0,0-2.27-1h-2.23v8.68h2.23a2.31,2.31,0,0,0,2.34-1.29,5.09,5.09,0,0,0,.38-1.4A13.7,13.7,0,0,0,228.21,368.33Z" transform="translate(58.5)"/><path class="cls-4" d="M232.55,374.61V362.47h7.66v1.72h-5.69v3.44h4.63v1.7h-4.63v3.54h5.69v1.74Z" transform="translate(58.5)"/><path class="cls-6" d="M161.49,389.39v-9.11h5.75v1.29H163v2.58h3.47v1.28H163v2.65h4.27v1.31Z" transform="translate(58.5)"/><path class="cls-6" d="M168.84,389.39v-9.11h2.58l2.77,7.8h.2v-7.8h1.48v9.11h-2.53l-2.83-7.82h-.19v7.82Z" transform="translate(58.5)"/><path class="cls-7" d="M188.38,389.21a14.78,14.78,0,0,1-3.11.37,5.86,5.86,0,0,1-2.21-.34,2.77,2.77,0,0,1-1.3-1.09,4.93,4.93,0,0,1-.65-1.75,14.84,14.84,0,0,1-.18-2.54c0-2.13.3-3.62.9-4.46s1.71-1.26,3.33-1.26a14.24,14.24,0,0,1,3.23.44l-.06,1.79a17.72,17.72,0,0,0-2.68-.25,3,3,0,0,0-1.52.29,1.79,1.79,0,0,0-.67,1.08,11.28,11.28,0,0,0-.22,2.71,5.53,5.53,0,0,0,.45,2.66,1.92,1.92,0,0,0,1.79.74,19.49,19.49,0,0,0,2.85-.23Z" transform="translate(58.5)"/><path class="cls-7" d="M196.55,389.39V384.8h-4.11v4.59H190.2V378.33h2.24v4.52h4.11v-4.52h2.24v11.06Z" transform="translate(58.5)"/><path class="cls-7" d="M200.27,389.39l2.49-11.06H207l2.49,11.06h-2.25l-.44-2H203l-.44,2Zm4.23-9.2-1.12,5.25h3l-1.12-5.25Z" transform="translate(58.5)"/><path class="cls-7" d="M211,389.39V378.33h3.78l2.67,9.11h.16v-9.11h2.24v11.06h-3.69l-2.76-9.1h-.16v9.1Z" transform="translate(58.5)"/><path class="cls-7" d="M226.85,385.42v-1.95h3.22v5.74a24.69,24.69,0,0,1-3.77.37c-1.73,0-2.91-.46-3.56-1.38a7.82,7.82,0,0,1-1-4.39,7.25,7.25,0,0,1,1-4.34,4,4,0,0,1,3.43-1.33,17,17,0,0,1,3.26.34l.59.12-.07,1.73a30.93,30.93,0,0,0-3.19-.21,3.68,3.68,0,0,0-1.75.3,1.72,1.72,0,0,0-.74,1.08,10.47,10.47,0,0,0-.23,2.69,5.39,5.39,0,0,0,.47,2.68,2.11,2.11,0,0,0,1.95.76l1.35-.06v-2.15Z" transform="translate(58.5)"/><path class="cls-7" d="M232.18,389.39V378.33h7.15v2h-4.91v2.58h3.94v1.92h-3.94v2.65h4.91v1.95Z" transform="translate(58.5)"/><path class="cls-7" d="M241.18,389.39V378.33H245L247,386.4l2-8.07h3.81v11.06h-2.24v-8.55h-.24l-2.16,8.06h-2.25l-2.16-8.06h-.24v8.55Z" transform="translate(58.5)"/><path class="cls-7" d="M255.13,389.39V378.33h7.15v2h-4.91v2.58h3.94v1.92h-3.94v2.65h4.91v1.95Z" transform="translate(58.5)"/><path class="cls-7" d="M264.14,389.39V378.33h3.78l2.67,9.11h.16v-9.11H273v11.06H269.3l-2.76-9.1h-.16v9.1Z" transform="translate(58.5)"/><path class="cls-7" d="M274.41,380.32v-2h8.12v2h-2.92v9.07h-2.25v-9.07Z" transform="translate(58.5)"/><path class="cls-8" d="M32.84,349.62c2.53,0,5.1.38,7.93.38,1.29,0,2.73,0,4.1.1,1.71.11,3.56-.19,4.52.66a3,3,0,0,1,.46.61,4.58,4.58,0,0,1,.41.64c.5,1.18.37,2.85.4,4.55,0,0,0,0,0,0a3.59,3.59,0,0,1-1.07.87c-2.6,1.92-5.17,3.64-7.86,5.62-1.43,1.05-3,2.19-4.4,3.3-.69.54-1.5,1-2.26,1.6a5.32,5.32,0,0,1-1.14.79,4.91,4.91,0,0,1-1.35.56c-1,.05-1-.71-1.19-1.58-.05-.19-.06-.49-.11-.76a2,2,0,0,1-.07-.74c.11-.34.62-.35,1.11-.48A5.45,5.45,0,0,0,35.08,364a8.22,8.22,0,0,0,1.17-1.42,7.43,7.43,0,0,0,.48-1.3,8.69,8.69,0,0,0,.36-1.42,9.11,9.11,0,0,0-.11-2.34,7.82,7.82,0,0,0-1-2.06c-1-1.64-1.86-3.12-2.8-4.83-.12-.24-.56-.78-.43-1A.14.14,0,0,1,32.84,349.62Z" transform="translate(58.5)"/><path class="cls-8" d="M30.93,351.27a1.51,1.51,0,0,1-.51.66l-.58.58c-1,1.31-2.25,2.4-3.31,3.67-.22.63-.47,1.25-.68,1.9a15.85,15.85,0,0,0-.67,1.94c-.13.75.08,1.61,0,2.49,0,0,0,0,0,.05A8.17,8.17,0,0,0,26,363.8a8,8,0,0,0,.81,1.17,22,22,0,0,0,2.6,2A3,3,0,0,1,30.47,369c.05.31.06.69.08,1s.06.73-.15,1a.87.87,0,0,1-.74-.08,3.74,3.74,0,0,1-.64-.28,3.4,3.4,0,0,1-.61-.86c-.54-.9-1.24-1.74-1.73-2.62a9,9,0,0,0-1.16-1.75c-.21-.23-.46-.5-.72-.74a3.91,3.91,0,0,0-.78-.66,8.36,8.36,0,0,0-2.37-.49,6.22,6.22,0,0,0-2.06.31,8,8,0,0,0-1.45.81c-.49.31-1.05.54-1.47.87a8.4,8.4,0,0,0-1.15,1.29c-.18.22-.39.43-.56.66s-.27.57-.58.61a7.39,7.39,0,0,1-.05-1.7c0-1.67-.24-3.34-.31-5.08,0-1.18-.06-2.34-.07-3.46s0-2.34,0-3.46a3.78,3.78,0,0,1,1.48-2.95c1.17-.75,3.45-.52,5.26-.43,2.22.11,4.54-.07,6.84,0,.58,0,1.16,0,1.73.05A6.07,6.07,0,0,1,30.93,351.27Z" transform="translate(58.5)"/><path class="cls-8" d="M51.12,370.21a2.58,2.58,0,0,1-1,.33c-1,.26-2.14.53-3.26.71l-2.26.39c-.75.13-1.52.19-2.29.33-1.47.25-2.9.65-4.45.83a20.41,20.41,0,0,1-2.54.11c-1.21,0-2.69.15-3.15-.64a4.06,4.06,0,0,1,0-1.22,2.8,2.8,0,0,1,.82-1,8,8,0,0,1,1-.78,7.78,7.78,0,0,1,2.8-.28,4.23,4.23,0,0,1,.71.35c.24.12.5.2.73.31a9.94,9.94,0,0,0,1.45.66,20.15,20.15,0,0,0,2,.2,5.17,5.17,0,0,0,.63.08,3.26,3.26,0,0,0,1-.38,17.77,17.77,0,0,0,2.54-1.43c.48-.73.94-1.53,1.4-2.34A18.72,18.72,0,0,0,48.55,364c.51-1.33,1.07-2.64,1.53-4,.21-.65.55-1.14.73-1.83a3,3,0,0,1,.13-.59c.14-.22.59-.33.81-.43.43-.19.27.5.26.61a22.52,22.52,0,0,0-.13,2.54,24.34,24.34,0,0,1-.28,3.28c-.14,1.11-.17,2.24-.25,3.31S51.27,369.17,51.12,370.21Z" transform="translate(58.5)"/><path class="cls-8" d="M30.73,375.86a2.94,2.94,0,0,1-1.5,0,8.44,8.44,0,0,1-1-.51c-1-.49-1.77-1.16-2.78-1.65a18.56,18.56,0,0,0-2.11-.87,6,6,0,0,0-3.78-.43,4.4,4.4,0,0,0-1.35.89,33,33,0,0,0-3.46,3.21c-.24.14-.36.53-.71.48a1.63,1.63,0,0,1-.13-.89c0-1.65,0-3.19-.1-4.88,0-.27,0-.59-.05-.94s-.09-.84.08-.89c0,0,0,0,.07-.05,1.31.08,2.62.28,3.92.45s2.38.28,3.56.46c1.74.27,3.45.51,5.18.84,1,.19,2.14.19,2.65.84a5,5,0,0,1,.41,1c.13.32.3.65.43.94A5.44,5.44,0,0,1,30.73,375.86Z" transform="translate(58.5)"/><path class="cls-8" d="M49.72,371.56c.27-.09.18.58.18.84,0,.93,0,1.87,0,2.92,0,1.25.14,2.51.23,3.69a47.37,47.37,0,0,1,0,5.59,8.69,8.69,0,0,1-.1,2.06,7.2,7.2,0,0,1-.35.77,3.89,3.89,0,0,1-1.63,1.93,5,5,0,0,1-1.78.12c-.69,0-1.31,0-1.91-.05-1.32-.05-2.73,0-3.79,0-1.26,0-2.51-.1-3.76-.1s-2.55-.07-3.76-.16a6.87,6.87,0,0,1-.36-2.21c-.16-1.59-.46-2.87-.58-4.52-.05-.65-.07-1.94.35-2.14a1.45,1.45,0,0,1,1,.15c.33.13.66.21.94.31,1.76.65,3.64,1.41,5.41,2s3.71,1.25,5.57,1.88l.94.3c.3.09.62.29.94.18a3.13,3.13,0,0,0-.41-1.32c-.34-.83-.69-1.66-1-2.49-.17-.42-.31-.86-.51-1.25a7.26,7.26,0,0,0-.91-1.35,9.3,9.3,0,0,0-1.12-1.14c-2-.94-4.52-.11-6.54.33a9.62,9.62,0,0,0-2.56.86,6,6,0,0,0-1.61.36c-.42.09-1.09.14-1.32-.13s-.08-1.09,0-1.47a9.46,9.46,0,0,1,.71-2.57,4.53,4.53,0,0,1,.51-1.12,2.67,2.67,0,0,1,.66-.25,3.19,3.19,0,0,1,.71-.21,4.29,4.29,0,0,1,1.22.28,22.27,22.27,0,0,1,3,1.45,30.81,30.81,0,0,0,3,1.43,5.67,5.67,0,0,0,1.09.38,4.13,4.13,0,0,0,2.54-.38A8.1,8.1,0,0,0,46,375.4c.44-.39.85-.85,1.25-1.22C48.13,373.36,48.88,372.44,49.72,371.56Z" transform="translate(58.5)"/><path class="cls-8" d="M29.46,378.25a26.66,26.66,0,0,1,1,3.53,2.9,2.9,0,0,1,.18,1.2c-.25.19-.61.09-.89.07-4.13-.19-8.34-.37-12.38-.66l-1-.05c-.28,0-.59-.12-.84.05a2.36,2.36,0,0,0,.46,1c.17.32.35.65.51,1a15.7,15.7,0,0,0,1,1.91,5.14,5.14,0,0,0,1.53,1.19,6,6,0,0,0,.84.43,4.42,4.42,0,0,0,1,.33,6.71,6.71,0,0,0,1,0c.49,0,1.07,0,1.53-.05a5.2,5.2,0,0,0,.89-.33c.29-.11.57-.25.83-.36,1.52-.6,2.31-1.58,3.69-2.36.23-.13.64-.41.82-.38s.32.34.4.61.22.51.28.71a11.7,11.7,0,0,1,.31,1.85,9.57,9.57,0,0,1,.25,1.86,4.1,4.1,0,0,1-1.4,0c-.5,0-1-.06-1.52-.06-3,0-6.27.17-9.11.16-.32,0-.67-.05-1-.05a3.36,3.36,0,0,1-1.53-.21,3.13,3.13,0,0,1-.81-.61,2.37,2.37,0,0,1-1-1.6,21.49,21.49,0,0,1,.1-2.36c.09-1.87.15-3.94.23-5.88a2.93,2.93,0,0,1,.16-1.07,7,7,0,0,1,2.41.34c.74.19,1.44.43,2.14.68a12.51,12.51,0,0,0,4.52,1.15,5.68,5.68,0,0,0,2.72-1.12c.31-.19.65-.38,1-.59C28.31,378.3,28.87,377.68,29.46,378.25Z" transform="translate(58.5)"/><path class="cls-6" d="M94.15,254.26v8.82h-2V240.72h8.21a7.49,7.49,0,0,1,5.23,1.59c1.14,1.06,1.72,2.74,1.72,5,0,3.58-1.44,5.75-4.31,6.53l4.6,9.2h-2.22L101,254.26Zm11.1-6.88a4.26,4.26,0,0,0-4.89-4.89H94.15v10h6.21Q105.25,252.49,105.25,247.38Z" transform="translate(58.5)"/><path class="cls-6" d="M109.72,263.08l6.44-22.36h4.66l6.41,22.36h-2l-1.8-6.18h-10l-1.77,6.18Zm7.88-20.63L114,255.13h9l-3.64-12.68Z" transform="translate(58.5)"/><path class="cls-6" d="M139,255.29h-6.18v7.79h-2V240.72H139c2.38,0,4.14.58,5.26,1.73s1.69,2.94,1.69,5.35Q146,255.28,139,255.29Zm-6.18-1.77H139q4.89,0,4.89-5.72a5.86,5.86,0,0,0-1.16-4,4.81,4.81,0,0,0-3.73-1.28h-6.18Z" transform="translate(58.5)"/><path class="cls-6" d="M158.08,255.29H151.9v7.79h-2V240.72h8.17q3.57,0,5.26,1.73T165,247.8Q165,255.28,158.08,255.29Zm-6.18-1.77h6.18q4.89,0,4.89-5.72a5.91,5.91,0,0,0-1.16-4,4.81,4.81,0,0,0-3.73-1.28H151.9Z" transform="translate(58.5)"/><path class="cls-6" d="M185.59,252.08c0,4-.63,6.87-1.88,8.65s-3.54,2.67-6.86,2.67-5.59-.91-6.85-2.73-1.88-4.71-1.88-8.64.63-6.86,1.9-8.77,3.54-2.86,6.82-2.86,5.56.94,6.84,2.84S185.59,248.08,185.59,252.08Zm-14.06,7.28c.9,1.49,2.68,2.24,5.32,2.24s4.43-.73,5.33-2.19,1.35-3.9,1.35-7.32-.47-5.92-1.41-7.51-2.71-2.38-5.28-2.38-4.45.86-5.37,2.57a8.88,8.88,0,0,0-1,3,27.49,27.49,0,0,0-.27,4.21Q170.18,257.13,171.53,259.36Z" transform="translate(58.5)"/><path class="cls-6" d="M192.28,254.26v8.82h-2V240.72h8.2a7.49,7.49,0,0,1,5.23,1.59q1.72,1.59,1.72,5c0,3.58-1.44,5.75-4.31,6.53l4.6,9.2h-2.22l-4.41-8.82Zm11.1-6.88a4.26,4.26,0,0,0-4.89-4.89h-6.21v10h6.21Q203.38,252.49,203.38,247.38Z" transform="translate(58.5)"/><path class="cls-6" d="M207.31,242.52v-1.8H223.4v1.8h-7v20.56h-2V242.52Z" transform="translate(58.5)"/><path class="cls-6" d="M90.16,293.72l6.43-22.36h4.67l6.4,22.36h-2l-1.8-6.18h-10l-1.77,6.18ZM98,273.1l-3.63,12.68h9L99.78,273.1Z" transform="translate(58.5)"/><path class="cls-6" d="M111.27,293.72V271.36h3.92L124.55,292h.74V271.36h2v22.36H123.4L114,273.16h-.71v20.56Z" transform="translate(58.5)"/><path class="cls-6" d="M132.89,293.72V271.36h3.92L146.18,292h.74V271.36h2v22.36H145l-9.43-20.56h-.71v20.56Z" transform="translate(58.5)"/><path class="cls-6" d="M156.34,287.16q0,5.08,5.57,5.08a6.67,6.67,0,0,0,4.34-1.19,4.74,4.74,0,0,0,1.45-3.89v-15.8h2v15.8c0,2.42-.66,4.18-2,5.26A8.83,8.83,0,0,1,162,294a8.65,8.65,0,0,1-5.7-1.62c-1.27-1.08-1.91-2.84-1.91-5.26v-15.8h2Z" transform="translate(58.5)"/><path class="cls-6" d="M175.17,293.72V271.36h13.41v1.8H177.16v8.3h9.49v1.77h-9.49V292h11.42v1.77Z" transform="translate(58.5)"/><path class="cls-6" d="M205.15,293.72H192.93V271.36h2v20.56h10.23Z" transform="translate(58.5)"/><path class="cls-6" d="M107.86,324.37H91.79V320l5.3-5.36a46.43,46.43,0,0,0,3.92-4.43,5.52,5.52,0,0,0,1.11-3.29,3,3,0,0,0-.92-2.46,4.24,4.24,0,0,0-2.61-.71,36.6,36.6,0,0,0-5.48.45l-.9.11-.27-4a26,26,0,0,1,7.62-1.13q7.89,0,7.89,7.1a9.24,9.24,0,0,1-1.2,4.8,24.38,24.38,0,0,1-4.36,4.92l-4.32,3.9h10.29Z" transform="translate(58.5)"/><path class="cls-6" d="M113.7,302.22q2.42-3.08,7.19-3.08c3.17,0,5.57,1,7.18,3.08s2.43,5.35,2.43,9.89-.81,7.8-2.41,9.76-4,2.95-7.2,2.95-5.61-1-7.21-2.95-2.4-5.22-2.4-9.76S112.08,304.27,113.7,302.22ZM125.17,312q0-4.63-1-6.5a3.85,3.85,0,0,0-6.59,0q-1,1.88-1,6.5c0,3.07.33,5.23,1,6.45a3.48,3.48,0,0,0,3.3,1.84,3.4,3.4,0,0,0,3.27-1.84Q125.17,316.64,125.17,312Z" transform="translate(58.5)"/><path class="cls-6" d="M149.9,324.37H133.84V320l5.29-5.36a45,45,0,0,0,3.92-4.43,5.52,5.52,0,0,0,1.11-3.29,3,3,0,0,0-.92-2.46,4.2,4.2,0,0,0-2.61-.71,36.7,36.7,0,0,0-5.48.45l-.9.11-.26-4a25.89,25.89,0,0,1,7.62-1.13q7.88,0,7.88,7.1a9.24,9.24,0,0,1-1.2,4.8,23.76,23.76,0,0,1-4.36,4.92l-4.31,3.9H149.9Z" transform="translate(58.5)"/><path class="cls-6" d="M168.11,299.59v24.78h-5.18V305.45l-5.37,3.45L155.2,305l8.18-5.44Z" transform="translate(58.5)"/><path class="cls-6" d="M77.84,370.68l1.59-.19.6,1.75-1,.82H74l-1.53-3.42-7.86,0-.57,1.56,1.2,1.89h-5.2l7.2-16.23-1.18-2.93h5Zm-12.59-3,6.38-.19L68.48,360Z" transform="translate(58.5)"/><path class="cls-6" d="M95.19,361.81c0,.95,0,1.92,0,2.9s0,1.93,0,2.84v2.23l-3.37,3.36H85l-3.09-2.57V361.7L80,360.64l.68-1.26h5.15l0,9.93,1,2L90,371l1.15-2,0-7.47-.26-.19-.35-.29-.33-.27-.21-.15v-1.23h5.2Z" transform="translate(58.5)"/><path class="cls-6" d="M103.39,367.74c0,1.21,0,2.36,0,3.43l1.2.47c0,.23,0,.47,0,.69s0,.47,0,.73H99.43c0-.27,0-.65,0-1.14s0-1,0-1.62,0-1.24,0-1.91v-6.91l-1.4-.87.66-1.23h4.32l.17,2.51a18.47,18.47,0,0,1,1.72-1.42,10.64,10.64,0,0,1,1.6-1,3.71,3.71,0,0,1,1.6-.42,4,4,0,0,1,1.29.19,7.51,7.51,0,0,1,1,.42,5.14,5.14,0,0,1,.73.47l.39.31-1,2.93-3.55-.82a3.53,3.53,0,0,0-.92.29c-.36.15-.71.32-1.07.5s-.68.37-1,.55l-.66.41C103.37,365.39,103.38,366.52,103.39,367.74Z" transform="translate(58.5)"/><path class="cls-6" d="M118,370.23a3.83,3.83,0,0,0,3,1.27,3.7,3.7,0,0,0,1.59-1.09c.44-.52.91-1.11,1.42-1.78l3.07,1.12a2.41,2.41,0,0,1-.38.75,7.88,7.88,0,0,1-.92,1.1,6.89,6.89,0,0,1-1.26,1,2.71,2.71,0,0,1-1.35.47h-6.71a2.15,2.15,0,0,1-1.49-.86,8.77,8.77,0,0,1-1.38-2.14,11.62,11.62,0,0,1-.88-2.71,6,6,0,0,1,0-2.61,13.17,13.17,0,0,1,.47-1.26,8.72,8.72,0,0,1,.87-1.6,7.79,7.79,0,0,1,1.34-1.49,4.2,4.2,0,0,1,1.89-.93,16.6,16.6,0,0,1,1.78-.22,20.76,20.76,0,0,1,2.09-.05,13.39,13.39,0,0,1,2,.17,3.35,3.35,0,0,1,1.38.48,4.66,4.66,0,0,1,.87.86,7.81,7.81,0,0,1,.82,1.3,10,10,0,0,1,.6,1.59,7.7,7.7,0,0,1,.26,1.7l-1.83,1.5-8.27.47A5.28,5.28,0,0,0,118,370.23Zm4.7-6.3c-.12-.43-.26-.87-.44-1.34a10.45,10.45,0,0,0-.54-1.24c-.19-.37-.37-.56-.54-.58a2.23,2.23,0,0,0-.69.06c-.29.05-.58.12-.88.2s-.59.18-.86.28a5,5,0,0,0-.66.28,2.15,2.15,0,0,0-.38.61,7,7,0,0,0-.36.93,9.11,9.11,0,0,0-.26,1.06,6.26,6.26,0,0,0-.09,1l5.91-.38A8,8,0,0,0,122.65,363.93Z" transform="translate(58.5)"/><path class="cls-6" d="M134.63,370.76l1.94.58v1.72h-5.75l.06-16.88-2.11-1,.35-1.32h5.51Z" transform="translate(58.5)"/><path class="cls-6" d="M114.57,380.27v-.93h1.55v2.76a11.87,11.87,0,0,1-1.81.18,1.93,1.93,0,0,1-1.71-.67,3.72,3.72,0,0,1-.47-2.11,3.46,3.46,0,0,1,.49-2.09,1.92,1.92,0,0,1,1.65-.64,8.2,8.2,0,0,1,1.57.16l.28.06,0,.84a14.51,14.51,0,0,0-1.54-.11,1.72,1.72,0,0,0-.84.15.8.8,0,0,0-.35.52,4.77,4.77,0,0,0-.12,1.29,2.61,2.61,0,0,0,.23,1.29c.15.25.46.37.94.37l.65,0v-1Z" transform="translate(58.5)"/><path class="cls-6" d="M118.22,380.4v1.78h-1.08v-5.32h2.07c1.25,0,1.87.59,1.87,1.76a1.68,1.68,0,0,1-.78,1.53l.76,2h-1.18l-.62-1.78Zm1.57-1.16a1.07,1.07,0,0,0,0-1.23.71.71,0,0,0-.57-.22h-1v1.69h1A.67.67,0,0,0,119.79,379.24Z" transform="translate(58.5)"/><path class="cls-6" d="M125.67,381.62a2,2,0,0,1-1.71.66,2,2,0,0,1-1.71-.66,3.47,3.47,0,0,1-.49-2.07,3.62,3.62,0,0,1,.49-2.1,2,2,0,0,1,1.71-.68,2,2,0,0,1,1.71.68,3.54,3.54,0,0,1,.5,2.1A3.39,3.39,0,0,1,125.67,381.62Zm-2.57-.69a.9.9,0,0,0,.86.41.92.92,0,0,0,.87-.41,4.23,4.23,0,0,0,0-2.78.87.87,0,0,0-.86-.44.88.88,0,0,0-.86.44,3.22,3.22,0,0,0-.23,1.4A3.06,3.06,0,0,0,123.1,380.93Z" transform="translate(58.5)"/><path class="cls-6" d="M128.13,380.41a.95.95,0,0,0,1.89,0v-3.55h1.08v3.52a1.86,1.86,0,0,1-.5,1.44,2.76,2.76,0,0,1-3,0,1.86,1.86,0,0,1-.5-1.44v-3.52h1.08Z" transform="translate(58.5)"/><path class="cls-6" d="M134.17,380.63h-.88v1.55h-1.08v-5.32h2a1.65,1.65,0,0,1,1.89,1.85,2,2,0,0,1-.48,1.43A1.87,1.87,0,0,1,134.17,380.63Zm-.88-.92h.87c.54,0,.81-.33.81-1a1.06,1.06,0,0,0-.2-.71.79.79,0,0,0-.61-.21h-.87Z" transform="translate(58.5)"/><rect class="cls-6" x="118.46" y="386.19" width="76.51" height="2.61"/><rect class="cls-7" x="311.5" width="37" height="55"/></g></g></svg>