<svg id="Calque_1" data-name="Calque 1" xmlns="http://www.w3.org/2000/svg" viewBox="0 0 600 407"><defs><style>.cls-1{fill:none;stroke:#13322b;stroke-miterlimit:10;stroke-width:2px;}.cls-2{fill:#d0d0ce;}.cls-3{fill:#98bc62;}.cls-4{fill:#13322b;}.cls-5,.cls-6{fill:#88b04b;}.cls-5{fill-rule:evenodd;}.cls-7{fill:#bfd833;}.cls-8{fill:#fff;}</style></defs><rect class="cls-1" x="403" y="356" width="98" height="47" rx="7.03"/><rect class="cls-2" x="63.48" y="99.11" width="3.94" height="3.94"/><rect class="cls-2" x="71.37" y="99.11" width="3.94" height="3.94"/><rect class="cls-2" x="63.48" y="91.22" width="3.94" height="3.94"/><rect class="cls-2" x="71.37" y="91.22" width="3.94" height="3.94"/><rect class="cls-2" x="71.37" y="107" width="3.94" height="3.94"/><rect class="cls-3" x="61.87" y="113.28" width="7.16" height="7.16"/><rect class="cls-2" x="71.37" y="114.89" width="3.94" height="3.94"/><rect class="cls-2" x="63.48" y="122.78" width="3.94" height="3.94"/><rect class="cls-2" x="71.37" y="122.78" width="3.94" height="3.94"/><rect class="cls-2" x="63.48" y="130.67" width="3.94" height="3.94"/><rect class="cls-2" x="71.37" y="130.67" width="3.94" height="3.94"/><rect class="cls-2" x="79.25" y="99.11" width="3.94" height="3.94"/><rect class="cls-2" x="79.25" y="107" width="3.94" height="3.94"/><rect class="cls-2" x="87.14" y="99.11" width="3.94" height="3.94"/><rect class="cls-2" x="79.25" y="91.22" width="3.94" height="3.94"/><rect class="cls-2" x="87.14" y="91.22" width="3.94" height="3.94"/><rect class="cls-2" x="87.14" y="107" width="3.94" height="3.94"/><rect class="cls-2" x="79.25" y="114.89" width="3.94" height="3.94"/><rect class="cls-2" x="87.14" y="114.89" width="3.94" height="3.94"/><rect class="cls-2" x="79.25" y="122.78" width="3.94" height="3.94"/><rect class="cls-2" x="87.14" y="122.78" width="3.94" height="3.94"/><rect class="cls-2" x="79.25" y="130.67" width="3.94" height="3.94"/><rect class="cls-2" x="87.14" y="130.67" width="3.94" height="3.94"/><rect class="cls-2" x="95.03" y="99.11" width="3.94" height="3.94"/><rect class="cls-2" x="95.03" y="91.22" width="3.94" height="3.94"/><rect class="cls-2" x="95.03" y="107" width="3.94" height="3.94"/><rect class="cls-2" x="95.03" y="114.89" width="3.94" height="3.94"/><rect class="cls-2" x="95.03" y="122.78" width="3.94" height="3.94"/><rect class="cls-2" x="95.03" y="130.67" width="3.94" height="3.94"/><rect class="cls-2" x="102.92" y="99.11" width="3.94" height="3.94"/><rect class="cls-2" x="102.92" y="107" width="3.94" height="3.94"/><rect class="cls-2" x="102.92" y="91.22" width="3.94" height="3.94"/><rect class="cls-2" x="110.81" y="91.22" width="3.94" height="3.94"/><rect class="cls-2" x="110.81" y="107" width="3.94" height="3.94"/><rect class="cls-2" x="102.92" y="114.89" width="3.94" height="3.94"/><rect class="cls-2" x="110.81" y="114.89" width="3.94" height="3.94"/><rect class="cls-2" x="102.92" y="122.78" width="3.94" height="3.94"/><rect class="cls-2" x="110.81" y="122.78" width="3.94" height="3.94"/><rect class="cls-2" x="102.92" y="130.67" width="3.94" height="3.94"/><rect class="cls-2" x="110.81" y="130.67" width="3.94" height="3.94"/><rect class="cls-2" x="8.26" y="83.33" width="3.94" height="3.94"/><rect class="cls-2" x="16.14" y="83.33" width="3.94" height="3.94"/><rect class="cls-2" x="31.92" y="51.78" width="3.94" height="3.94"/><rect class="cls-2" x="24.03" y="43.89" width="3.94" height="3.94"/><rect class="cls-2" x="31.92" y="59.67" width="3.94" height="3.94"/><rect class="cls-2" x="31.92" y="67.56" width="3.94" height="3.94"/><rect class="cls-2" x="24.03" y="75.44" width="3.94" height="3.94"/><rect class="cls-2" x="31.92" y="75.44" width="3.94" height="3.94"/><rect class="cls-2" x="39.81" y="51.78" width="3.94" height="3.94"/><rect class="cls-2" x="39.81" y="43.89" width="3.94" height="3.94"/><rect class="cls-2" x="39.81" y="59.67" width="3.94" height="3.94"/><rect class="cls-2" x="39.81" y="67.56" width="3.94" height="3.94"/><rect class="cls-2" x="47.7" y="51.78" width="3.94" height="3.94"/><rect class="cls-2" x="47.7" y="59.67" width="3.94" height="3.94"/><rect class="cls-2" x="55.59" y="51.78" width="3.94" height="3.94"/><rect class="cls-2" x="47.7" y="43.89" width="3.94" height="3.94"/><rect class="cls-2" x="55.59" y="43.89" width="3.94" height="3.94"/><rect class="cls-2" x="55.59" y="59.67" width="3.94" height="3.94"/><rect class="cls-2" x="55.59" y="67.56" width="3.94" height="3.94"/><rect class="cls-2" x="63.48" y="51.78" width="3.94" height="3.94"/><rect class="cls-2" x="63.48" y="59.67" width="3.94" height="3.94"/><rect class="cls-2" x="71.37" y="51.78" width="3.94" height="3.94"/><rect class="cls-2" x="63.48" y="43.89" width="3.94" height="3.94"/><rect class="cls-2" x="71.37" y="43.89" width="3.94" height="3.94"/><rect class="cls-2" x="71.37" y="59.67" width="3.94" height="3.94"/><rect class="cls-2" x="63.48" y="67.56" width="3.94" height="3.94"/><rect class="cls-2" x="71.37" y="67.56" width="3.94" height="3.94"/><rect class="cls-2" x="63.48" y="75.44" width="3.94" height="3.94"/><rect class="cls-2" x="71.37" y="75.44" width="3.94" height="3.94"/><rect class="cls-2" x="63.48" y="83.33" width="3.94" height="3.94"/><rect class="cls-2" x="71.37" y="83.33" width="3.94" height="3.94"/><rect class="cls-2" x="79.25" y="51.78" width="3.94" height="3.94"/><rect class="cls-2" x="79.25" y="59.67" width="3.94" height="3.94"/><rect class="cls-2" x="79.25" y="43.89" width="3.94" height="3.94"/><rect class="cls-2" x="87.14" y="43.89" width="3.94" height="3.94"/><rect class="cls-2" x="87.14" y="59.67" width="3.94" height="3.94"/><rect class="cls-2" x="79.25" y="67.56" width="3.94" height="3.94"/><rect class="cls-2" x="87.14" y="67.56" width="3.94" height="3.94"/><rect class="cls-2" x="79.25" y="75.44" width="3.94" height="3.94"/><rect class="cls-2" x="87.14" y="75.44" width="3.94" height="3.94"/><rect class="cls-2" x="79.25" y="83.33" width="3.94" height="3.94"/><rect class="cls-2" x="87.14" y="83.33" width="3.94" height="3.94"/><rect class="cls-2" x="95.03" y="51.78" width="3.94" height="3.94"/><rect class="cls-2" x="95.03" y="43.89" width="3.94" height="3.94"/><rect class="cls-2" x="95.03" y="59.67" width="3.94" height="3.94"/><rect class="cls-2" x="95.03" y="75.44" width="3.94" height="3.94"/><rect class="cls-2" x="95.03" y="83.33" width="3.94" height="3.94"/><rect class="cls-2" x="102.92" y="51.78" width="3.94" height="3.94"/><rect class="cls-2" x="102.92" y="59.67" width="3.94" height="3.94"/><rect class="cls-2" x="102.92" y="43.89" width="3.94" height="3.94"/><rect class="cls-2" x="110.81" y="43.89" width="3.94" height="3.94"/><rect class="cls-2" x="110.81" y="59.67" width="3.94" height="3.94"/><rect class="cls-2" x="102.92" y="67.56" width="3.94" height="3.94"/><rect class="cls-2" x="110.81" y="67.56" width="3.94" height="3.94"/><rect class="cls-2" x="102.92" y="75.44" width="3.94" height="3.94"/><rect class="cls-2" x="110.81" y="75.44" width="3.94" height="3.94"/><rect class="cls-2" x="102.92" y="83.33" width="3.94" height="3.94"/><rect class="cls-2" x="110.81" y="83.33" width="3.94" height="3.94"/><rect class="cls-2" x="118.7" y="99.11" width="3.94" height="3.94"/><rect class="cls-2" x="126.59" y="99.11" width="3.94" height="3.94"/><rect class="cls-2" x="118.7" y="91.22" width="3.94" height="3.94"/><rect class="cls-2" x="126.59" y="91.22" width="3.94" height="3.94"/><rect class="cls-2" x="126.59" y="107" width="3.94" height="3.94"/><rect class="cls-2" x="118.7" y="114.89" width="3.94" height="3.94"/><rect class="cls-2" x="118.7" y="122.78" width="3.94" height="3.94"/><rect class="cls-2" x="126.59" y="122.78" width="3.94" height="3.94"/><rect class="cls-2" x="118.7" y="130.67" width="3.94" height="3.94"/><rect class="cls-2" x="126.59" y="130.67" width="3.94" height="3.94"/><rect class="cls-2" x="134.47" y="99.11" width="3.94" height="3.94"/><rect class="cls-2" x="134.47" y="107" width="3.94" height="3.94"/><rect class="cls-2" x="142.36" y="99.11" width="3.94" height="3.94"/><rect class="cls-2" x="142.36" y="91.22" width="3.94" height="3.94"/><rect class="cls-2" x="142.36" y="107" width="3.94" height="3.94"/><rect class="cls-2" x="134.47" y="114.89" width="3.94" height="3.94"/><rect class="cls-2" x="142.36" y="114.89" width="3.94" height="3.94"/><rect class="cls-2" x="134.47" y="122.78" width="3.94" height="3.94"/><rect class="cls-2" x="142.36" y="122.78" width="3.94" height="3.94"/><rect class="cls-3" x="132.87" y="129.06" width="7.16" height="7.16"/><rect class="cls-2" x="150.25" y="99.11" width="3.94" height="3.94"/><rect class="cls-2" x="150.25" y="91.22" width="3.94" height="3.94"/><rect class="cls-2" x="150.25" y="114.89" width="3.94" height="3.94"/><rect class="cls-2" x="158.14" y="99.11" width="3.94" height="3.94"/><rect class="cls-2" x="158.14" y="107" width="3.94" height="3.94"/><rect class="cls-2" x="166.03" y="99.11" width="3.94" height="3.94"/><rect class="cls-2" x="158.14" y="91.22" width="3.94" height="3.94"/><rect class="cls-2" x="166.03" y="107" width="3.94" height="3.94"/><rect class="cls-2" x="71.37" y="146.44" width="3.94" height="3.94"/><rect class="cls-2" x="71.37" y="138.55" width="3.94" height="3.94"/><rect class="cls-2" x="79.25" y="154.33" width="3.94" height="3.94"/><rect class="cls-2" x="87.14" y="146.44" width="3.94" height="3.94"/><rect class="cls-2" x="79.25" y="138.55" width="3.94" height="3.94"/><rect class="cls-2" x="87.14" y="138.55" width="3.94" height="3.94"/><rect class="cls-2" x="87.14" y="154.33" width="3.94" height="3.94"/><rect class="cls-2" x="87.14" y="162.22" width="3.94" height="3.94"/><rect class="cls-2" x="95.03" y="146.44" width="3.94" height="3.94"/><rect class="cls-2" x="95.03" y="138.55" width="3.94" height="3.94"/><rect class="cls-2" x="95.03" y="154.33" width="3.94" height="3.94"/><rect class="cls-2" x="95.03" y="162.22" width="3.94" height="3.94"/><rect class="cls-2" x="102.92" y="138.55" width="3.94" height="3.94"/><rect class="cls-2" x="110.81" y="138.55" width="3.94" height="3.94"/><rect class="cls-2" x="102.92" y="162.22" width="3.94" height="3.94"/><rect class="cls-2" x="110.81" y="162.22" width="3.94" height="3.94"/><rect class="cls-2" x="102.92" y="170.11" width="3.94" height="3.94"/><rect class="cls-2" x="110.81" y="170.11" width="3.94" height="3.94"/><rect class="cls-2" x="118.7" y="146.44" width="3.94" height="3.94"/><rect class="cls-2" x="118.7" y="154.33" width="3.94" height="3.94"/><rect class="cls-2" x="118.7" y="138.55" width="3.94" height="3.94"/><rect class="cls-2" x="126.59" y="138.55" width="3.94" height="3.94"/><rect class="cls-2" x="126.59" y="154.33" width="3.94" height="3.94"/><rect class="cls-2" x="126.59" y="162.22" width="3.94" height="3.94"/><rect class="cls-2" x="118.7" y="170.11" width="3.94" height="3.94"/><rect class="cls-2" x="118.7" y="178" width="3.94" height="3.94"/><rect class="cls-2" x="126.59" y="178" width="3.94" height="3.94"/><rect class="cls-2" x="134.47" y="162.22" width="3.94" height="3.94"/><rect class="cls-2" x="142.36" y="162.22" width="3.94" height="3.94"/><rect class="cls-2" x="134.47" y="178" width="3.94" height="3.94"/><rect class="cls-2" x="142.36" y="178" width="3.94" height="3.94"/><rect class="cls-2" x="150.25" y="178" width="3.94" height="3.94"/><rect class="cls-2" x="158.14" y="178" width="3.94" height="3.94"/><rect class="cls-3" x="219.64" y="144.84" width="7.16" height="7.16"/><rect class="cls-2" x="221.25" y="154.33" width="3.94" height="3.94"/><rect class="cls-2" x="213.36" y="162.22" width="3.94" height="3.94"/><rect class="cls-2" x="221.25" y="162.22" width="3.94" height="3.94"/><rect class="cls-2" x="213.36" y="170.11" width="3.94" height="3.94"/><rect class="cls-2" x="221.25" y="170.11" width="3.94" height="3.94"/><rect class="cls-2" x="221.25" y="178" width="3.94" height="3.94"/><rect class="cls-2" x="118.7" y="51.78" width="3.94" height="3.94"/><rect class="cls-2" x="118.7" y="59.67" width="3.94" height="3.94"/><rect class="cls-2" x="126.59" y="51.78" width="3.94" height="3.94"/><rect class="cls-2" x="126.59" y="43.89" width="3.94" height="3.94"/><rect class="cls-2" x="126.59" y="59.67" width="3.94" height="3.94"/><rect class="cls-2" x="118.7" y="67.56" width="3.94" height="3.94"/><rect class="cls-2" x="126.59" y="67.56" width="3.94" height="3.94"/><rect class="cls-2" x="118.7" y="75.44" width="3.94" height="3.94"/><rect class="cls-2" x="118.7" y="83.33" width="3.94" height="3.94"/><rect class="cls-2" x="134.47" y="59.67" width="3.94" height="3.94"/><rect class="cls-2" x="142.36" y="51.78" width="3.94" height="3.94"/><rect class="cls-2" x="134.47" y="43.89" width="3.94" height="3.94"/><rect class="cls-2" x="142.36" y="43.89" width="3.94" height="3.94"/><rect class="cls-2" x="134.47" y="67.56" width="3.94" height="3.94"/><rect class="cls-2" x="142.36" y="67.56" width="3.94" height="3.94"/><rect class="cls-2" x="142.36" y="75.44" width="3.94" height="3.94"/><rect class="cls-2" x="142.36" y="83.33" width="3.94" height="3.94"/><rect class="cls-2" x="150.25" y="51.78" width="3.94" height="3.94"/><rect class="cls-2" x="150.25" y="43.89" width="3.94" height="3.94"/><rect class="cls-2" x="150.25" y="59.67" width="3.94" height="3.94"/><rect class="cls-2" x="150.25" y="67.56" width="3.94" height="3.94"/><rect class="cls-2" x="150.25" y="83.33" width="3.94" height="3.94"/><rect class="cls-2" x="158.14" y="51.78" width="3.94" height="3.94"/><rect class="cls-2" x="158.14" y="59.67" width="3.94" height="3.94"/><rect class="cls-2" x="158.14" y="67.56" width="3.94" height="3.94"/><rect class="cls-3" x="156.53" y="73.84" width="7.16" height="7.16"/><rect class="cls-2" x="158.14" y="83.33" width="3.94" height="3.94"/><rect class="cls-2" x="181.81" y="51.78" width="3.94" height="3.94"/><rect class="cls-2" x="181.81" y="43.89" width="3.94" height="3.94"/><rect class="cls-2" x="181.81" y="59.67" width="3.94" height="3.94"/><rect class="cls-2" x="173.92" y="67.56" width="3.94" height="3.94"/><rect class="cls-2" x="181.81" y="67.56" width="3.94" height="3.94"/><rect class="cls-2" x="173.92" y="75.44" width="3.94" height="3.94"/><rect class="cls-2" x="181.81" y="75.44" width="3.94" height="3.94"/><rect class="cls-2" x="181.81" y="83.33" width="3.94" height="3.94"/><rect class="cls-2" x="189.69" y="51.78" width="3.94" height="3.94"/><rect class="cls-2" x="189.69" y="59.67" width="3.94" height="3.94"/><rect class="cls-2" x="197.58" y="51.78" width="3.94" height="3.94"/><rect class="cls-2" x="189.69" y="43.89" width="3.94" height="3.94"/><rect class="cls-2" x="197.58" y="43.89" width="3.94" height="3.94"/><rect class="cls-2" x="197.58" y="59.67" width="3.94" height="3.94"/><rect class="cls-2" x="189.69" y="67.56" width="3.94" height="3.94"/><rect class="cls-2" x="197.58" y="67.56" width="3.94" height="3.94"/><rect class="cls-2" x="189.69" y="75.44" width="3.94" height="3.94"/><rect class="cls-2" x="205.47" y="51.78" width="3.94" height="3.94"/><rect class="cls-2" x="205.47" y="43.89" width="3.94" height="3.94"/><rect class="cls-2" x="205.47" y="59.67" width="3.94" height="3.94"/><rect class="cls-2" x="213.36" y="51.78" width="3.94" height="3.94"/><rect class="cls-2" x="213.36" y="59.67" width="3.94" height="3.94"/><rect class="cls-2" x="221.25" y="43.89" width="3.94" height="3.94"/><rect class="cls-2" x="213.36" y="75.44" width="3.94" height="3.94"/><rect class="cls-2" x="221.25" y="75.44" width="3.94" height="3.94"/><rect class="cls-2" x="221.25" y="67.56" width="3.94" height="3.94"/><rect class="cls-2" x="31.92" y="36" width="3.94" height="3.94"/><rect class="cls-2" x="39.81" y="36" width="3.94" height="3.94"/><rect class="cls-2" x="47.7" y="28.11" width="3.94" height="3.94"/><rect class="cls-2" x="55.59" y="28.11" width="3.94" height="3.94"/><rect class="cls-2" x="47.7" y="36" width="3.94" height="3.94"/><rect class="cls-2" x="55.59" y="36" width="3.94" height="3.94"/><rect class="cls-2" x="63.48" y="28.11" width="3.94" height="3.94"/><rect class="cls-2" x="63.48" y="36" width="3.94" height="3.94"/><rect class="cls-2" x="71.37" y="36" width="3.94" height="3.94"/><rect class="cls-2" x="79.25" y="36" width="3.94" height="3.94"/><rect class="cls-2" x="110.81" y="20.22" width="3.94" height="3.94"/><rect class="cls-2" x="102.92" y="28.11" width="3.94" height="3.94"/><rect class="cls-2" x="110.81" y="28.11" width="3.94" height="3.94"/><rect class="cls-2" x="102.92" y="36" width="3.94" height="3.94"/><rect class="cls-2" x="110.81" y="36" width="3.94" height="3.94"/><rect class="cls-2" x="118.7" y="12.34" width="3.94" height="3.94"/><rect class="cls-2" x="126.59" y="12.34" width="3.94" height="3.94"/><rect class="cls-2" x="118.7" y="20.22" width="3.94" height="3.94"/><rect class="cls-2" x="126.59" y="20.22" width="3.94" height="3.94"/><rect class="cls-2" x="118.7" y="36" width="3.94" height="3.94"/><rect class="cls-2" x="126.59" y="36" width="3.94" height="3.94"/><rect class="cls-2" x="142.36" y="12.34" width="3.94" height="3.94"/><rect class="cls-2" x="142.36" y="20.22" width="3.94" height="3.94"/><rect class="cls-2" x="134.47" y="28.11" width="3.94" height="3.94"/><rect class="cls-2" x="142.36" y="28.11" width="3.94" height="3.94"/><rect class="cls-2" x="134.47" y="36" width="3.94" height="3.94"/><rect class="cls-2" x="150.25" y="12.34" width="3.94" height="3.94"/><rect class="cls-2" x="150.25" y="28.11" width="3.94" height="3.94"/><rect class="cls-2" x="150.25" y="36" width="3.94" height="3.94"/><rect class="cls-2" x="158.14" y="4.45" width="3.94" height="3.94"/><rect class="cls-2" x="158.14" y="12.34" width="3.94" height="3.94"/><rect class="cls-2" x="166.03" y="4.45" width="3.94" height="3.94"/><rect class="cls-2" x="166.03" y="12.34" width="3.94" height="3.94"/><rect class="cls-2" x="158.14" y="20.22" width="3.94" height="3.94"/><rect class="cls-2" x="158.14" y="28.11" width="3.94" height="3.94"/><rect class="cls-2" x="166.03" y="28.11" width="3.94" height="3.94"/><rect class="cls-2" x="173.92" y="4.45" width="3.94" height="3.94"/><rect class="cls-2" x="181.81" y="4.45" width="3.94" height="3.94"/><rect class="cls-2" x="181.81" y="12.34" width="3.94" height="3.94"/><rect class="cls-2" x="173.92" y="20.22" width="3.94" height="3.94"/><rect class="cls-2" x="181.81" y="20.22" width="3.94" height="3.94"/><rect class="cls-2" x="173.92" y="28.11" width="3.94" height="3.94"/><rect class="cls-2" x="181.81" y="28.11" width="3.94" height="3.94"/><rect class="cls-2" x="173.92" y="36" width="3.94" height="3.94"/><rect class="cls-2" x="181.81" y="36" width="3.94" height="3.94"/><rect class="cls-2" x="189.69" y="12.34" width="3.94" height="3.94"/><rect class="cls-2" x="197.58" y="12.34" width="3.94" height="3.94"/><rect class="cls-2" x="189.69" y="20.22" width="3.94" height="3.94"/><rect class="cls-2" x="197.58" y="20.22" width="3.94" height="3.94"/><rect class="cls-2" x="189.69" y="28.11" width="3.94" height="3.94"/><rect class="cls-2" x="197.58" y="28.11" width="3.94" height="3.94"/><rect class="cls-2" x="189.69" y="36" width="3.94" height="3.94"/><rect class="cls-2" x="197.58" y="36" width="3.94" height="3.94"/><rect class="cls-2" x="205.47" y="4.45" width="3.94" height="3.94"/><rect class="cls-2" x="205.47" y="12.34" width="3.94" height="3.94"/><rect class="cls-2" x="205.47" y="20.22" width="3.94" height="3.94"/><rect class="cls-2" x="205.47" y="28.11" width="3.94" height="3.94"/><rect class="cls-2" x="205.47" y="36" width="3.94" height="3.94"/><rect class="cls-2" x="213.36" y="4.45" width="3.94" height="3.94"/><rect class="cls-2" x="221.25" y="12.34" width="3.94" height="3.94"/><rect class="cls-2" x="213.36" y="20.22" width="3.94" height="3.94"/><rect class="cls-2" x="221.25" y="20.22" width="3.94" height="3.94"/><rect class="cls-2" x="213.36" y="28.11" width="3.94" height="3.94"/><rect class="cls-2" x="221.25" y="28.11" width="3.94" height="3.94"/><rect class="cls-2" x="213.36" y="36" width="3.94" height="3.94"/><rect class="cls-2" x="221.25" y="36" width="3.94" height="3.94"/><rect class="cls-2" x="229.14" y="99.11" width="3.94" height="3.94"/><rect class="cls-2" x="229.14" y="107" width="3.94" height="3.94"/><rect class="cls-2" x="237.03" y="99.11" width="3.94" height="3.94"/><rect class="cls-2" x="237.03" y="91.22" width="3.94" height="3.94"/><rect class="cls-2" x="237.03" y="107" width="3.94" height="3.94"/><rect class="cls-2" x="237.03" y="114.89" width="3.94" height="3.94"/><rect class="cls-2" x="229.14" y="122.78" width="3.94" height="3.94"/><rect class="cls-2" x="237.03" y="122.78" width="3.94" height="3.94"/><rect class="cls-2" x="229.14" y="130.67" width="3.94" height="3.94"/><rect class="cls-2" x="244.91" y="107" width="3.94" height="3.94"/><rect class="cls-2" x="252.8" y="99.11" width="3.94" height="3.94"/><rect class="cls-2" x="252.8" y="107" width="3.94" height="3.94"/><rect class="cls-2" x="244.91" y="114.89" width="3.94" height="3.94"/><rect class="cls-2" x="252.8" y="114.89" width="3.94" height="3.94"/><rect class="cls-2" x="244.91" y="122.78" width="3.94" height="3.94"/><rect class="cls-2" x="252.8" y="130.67" width="3.94" height="3.94"/><rect class="cls-2" x="260.69" y="99.11" width="3.94" height="3.94"/><rect class="cls-3" x="259.09" y="105.39" width="7.16" height="7.16"/><rect class="cls-2" x="268.58" y="99.11" width="3.94" height="3.94"/><rect class="cls-2" x="268.58" y="91.22" width="3.94" height="3.94"/><rect class="cls-2" x="268.58" y="107" width="3.94" height="3.94"/><rect class="cls-2" x="260.69" y="114.89" width="3.94" height="3.94"/><rect class="cls-2" x="268.58" y="114.89" width="3.94" height="3.94"/><rect class="cls-2" x="260.69" y="122.78" width="3.94" height="3.94"/><rect class="cls-2" x="268.58" y="122.78" width="3.94" height="3.94"/><rect class="cls-2" x="260.69" y="130.67" width="3.94" height="3.94"/><rect class="cls-2" x="276.47" y="99.11" width="3.94" height="3.94"/><rect class="cls-2" x="276.47" y="91.22" width="3.94" height="3.94"/><rect class="cls-2" x="276.47" y="107" width="3.94" height="3.94"/><rect class="cls-2" x="276.47" y="114.89" width="3.94" height="3.94"/><rect class="cls-2" x="276.47" y="122.78" width="3.94" height="3.94"/><rect class="cls-2" x="284.36" y="99.11" width="3.94" height="3.94"/><rect class="cls-2" x="284.36" y="107" width="3.94" height="3.94"/><rect class="cls-2" x="292.25" y="99.11" width="3.94" height="3.94"/><rect class="cls-2" x="284.36" y="91.22" width="3.94" height="3.94"/><rect class="cls-2" x="292.25" y="91.22" width="3.94" height="3.94"/><rect class="cls-2" x="292.25" y="107" width="3.94" height="3.94"/><rect class="cls-2" x="284.36" y="114.89" width="3.94" height="3.94"/><rect class="cls-2" x="292.25" y="114.89" width="3.94" height="3.94"/><rect class="cls-2" x="284.36" y="130.67" width="3.94" height="3.94"/><rect class="cls-2" x="292.25" y="130.67" width="3.94" height="3.94"/><rect class="cls-2" x="252.8" y="75.44" width="3.94" height="3.94"/><rect class="cls-2" x="252.8" y="83.33" width="3.94" height="3.94"/><rect class="cls-2" x="268.58" y="59.67" width="3.94" height="3.94"/><rect class="cls-2" x="260.69" y="67.56" width="3.94" height="3.94"/><rect class="cls-2" x="268.58" y="67.56" width="3.94" height="3.94"/><rect class="cls-2" x="260.69" y="75.44" width="3.94" height="3.94"/><rect class="cls-2" x="260.69" y="83.33" width="3.94" height="3.94"/><rect class="cls-2" x="276.47" y="59.67" width="3.94" height="3.94"/><rect class="cls-2" x="276.47" y="67.56" width="3.94" height="3.94"/><rect class="cls-2" x="276.47" y="75.44" width="3.94" height="3.94"/><rect class="cls-2" x="276.47" y="83.33" width="3.94" height="3.94"/><rect class="cls-2" x="284.36" y="67.56" width="3.94" height="3.94"/><rect class="cls-2" x="292.25" y="67.56" width="3.94" height="3.94"/><rect class="cls-2" x="284.36" y="75.44" width="3.94" height="3.94"/><rect class="cls-2" x="292.25" y="75.44" width="3.94" height="3.94"/><rect class="cls-2" x="284.36" y="83.33" width="3.94" height="3.94"/><rect class="cls-2" x="292.25" y="83.33" width="3.94" height="3.94"/><rect class="cls-2" x="300.13" y="99.11" width="3.94" height="3.94"/><rect class="cls-2" x="300.13" y="107" width="3.94" height="3.94"/><rect class="cls-2" x="308.02" y="99.11" width="3.94" height="3.94"/><rect class="cls-2" x="300.13" y="91.22" width="3.94" height="3.94"/><rect class="cls-2" x="308.02" y="91.22" width="3.94" height="3.94"/><rect class="cls-2" x="308.02" y="107" width="3.94" height="3.94"/><rect class="cls-2" x="300.13" y="114.89" width="3.94" height="3.94"/><rect class="cls-2" x="300.13" y="122.78" width="3.94" height="3.94"/><rect class="cls-2" x="308.02" y="122.78" width="3.94" height="3.94"/><rect class="cls-2" x="300.13" y="130.67" width="3.94" height="3.94"/><rect class="cls-2" x="308.02" y="130.67" width="3.94" height="3.94"/><rect class="cls-2" x="315.91" y="99.11" width="3.94" height="3.94"/><rect class="cls-2" x="315.91" y="107" width="3.94" height="3.94"/><rect class="cls-2" x="323.8" y="99.11" width="3.94" height="3.94"/><rect class="cls-2" x="315.91" y="91.22" width="3.94" height="3.94"/><rect class="cls-2" x="323.8" y="91.22" width="3.94" height="3.94"/><rect class="cls-2" x="323.8" y="107" width="3.94" height="3.94"/><rect class="cls-3" x="314.31" y="113.28" width="7.16" height="7.16"/><rect class="cls-2" x="323.8" y="114.89" width="3.94" height="3.94"/><rect class="cls-2" x="323.8" y="122.78" width="3.94" height="3.94"/><rect class="cls-2" x="323.8" y="130.67" width="3.94" height="3.94"/><rect class="cls-2" x="331.69" y="99.11" width="3.94" height="3.94"/><rect class="cls-2" x="331.69" y="91.22" width="3.94" height="3.94"/><rect class="cls-2" x="331.69" y="107" width="3.94" height="3.94"/><rect class="cls-2" x="331.69" y="114.89" width="3.94" height="3.94"/><rect class="cls-2" x="331.69" y="122.78" width="3.94" height="3.94"/><rect class="cls-2" x="331.69" y="130.67" width="3.94" height="3.94"/><rect class="cls-2" x="339.58" y="99.11" width="3.94" height="3.94"/><rect class="cls-2" x="339.58" y="107" width="3.94" height="3.94"/><rect class="cls-2" x="347.47" y="99.11" width="3.94" height="3.94"/><rect class="cls-2" x="339.58" y="91.22" width="3.94" height="3.94"/><rect class="cls-2" x="347.47" y="91.22" width="3.94" height="3.94"/><rect class="cls-2" x="347.47" y="107" width="3.94" height="3.94"/><rect class="cls-2" x="339.58" y="114.89" width="3.94" height="3.94"/><rect class="cls-2" x="347.47" y="114.89" width="3.94" height="3.94"/><rect class="cls-2" x="339.58" y="122.78" width="3.94" height="3.94"/><rect class="cls-2" x="347.47" y="122.78" width="3.94" height="3.94"/><rect class="cls-2" x="339.58" y="130.67" width="3.94" height="3.94"/><rect class="cls-2" x="347.47" y="130.67" width="3.94" height="3.94"/><rect class="cls-2" x="355.36" y="99.11" width="3.94" height="3.94"/><rect class="cls-2" x="355.36" y="107" width="3.94" height="3.94"/><rect class="cls-2" x="363.24" y="99.11" width="3.94" height="3.94"/><rect class="cls-2" x="355.36" y="91.22" width="3.94" height="3.94"/><rect class="cls-2" x="363.24" y="91.22" width="3.94" height="3.94"/><rect class="cls-2" x="363.24" y="107" width="3.94" height="3.94"/><rect class="cls-2" x="355.36" y="114.89" width="3.94" height="3.94"/><rect class="cls-2" x="363.24" y="114.89" width="3.94" height="3.94"/><rect class="cls-2" x="355.36" y="122.78" width="3.94" height="3.94"/><rect class="cls-2" x="363.24" y="122.78" width="3.94" height="3.94"/><rect class="cls-2" x="355.36" y="130.67" width="3.94" height="3.94"/><rect class="cls-2" x="363.24" y="130.67" width="3.94" height="3.94"/><rect class="cls-2" x="371.13" y="99.11" width="3.94" height="3.94"/><rect class="cls-2" x="371.13" y="107" width="3.94" height="3.94"/><rect class="cls-2" x="379.02" y="99.11" width="3.94" height="3.94"/><rect class="cls-2" x="371.13" y="91.22" width="3.94" height="3.94"/><rect class="cls-2" x="379.02" y="91.22" width="3.94" height="3.94"/><rect class="cls-2" x="379.02" y="107" width="3.94" height="3.94"/><rect class="cls-2" x="371.13" y="114.89" width="3.94" height="3.94"/><rect class="cls-2" x="379.02" y="114.89" width="3.94" height="3.94"/><rect class="cls-2" x="371.13" y="122.78" width="3.94" height="3.94"/><rect class="cls-2" x="379.02" y="122.78" width="3.94" height="3.94"/><rect class="cls-2" x="371.13" y="130.67" width="3.94" height="3.94"/><rect class="cls-2" x="379.02" y="130.67" width="3.94" height="3.94"/><rect class="cls-2" x="386.91" y="99.11" width="3.94" height="3.94"/><rect class="cls-2" x="386.91" y="107" width="3.94" height="3.94"/><rect class="cls-2" x="386.91" y="114.89" width="3.94" height="3.94"/><rect class="cls-2" x="386.91" y="122.78" width="3.94" height="3.94"/><rect class="cls-2" x="386.91" y="130.67" width="3.94" height="3.94"/><rect class="cls-2" x="394.8" y="99.11" width="3.94" height="3.94"/><rect class="cls-2" x="394.8" y="107" width="3.94" height="3.94"/><rect class="cls-2" x="402.69" y="99.11" width="3.94" height="3.94"/><rect class="cls-2" x="394.8" y="91.22" width="3.94" height="3.94"/><rect class="cls-2" x="402.69" y="91.22" width="3.94" height="3.94"/><rect class="cls-2" x="402.69" y="107" width="3.94" height="3.94"/><rect class="cls-2" x="394.8" y="114.89" width="3.94" height="3.94"/><rect class="cls-2" x="402.69" y="114.89" width="3.94" height="3.94"/><rect class="cls-2" x="394.8" y="122.78" width="3.94" height="3.94"/><rect class="cls-2" x="402.69" y="122.78" width="3.94" height="3.94"/><rect class="cls-2" x="394.8" y="130.67" width="3.94" height="3.94"/><rect class="cls-2" x="402.69" y="130.67" width="3.94" height="3.94"/><rect class="cls-2" x="229.14" y="146.44" width="3.94" height="3.94"/><rect class="cls-2" x="229.14" y="154.33" width="3.94" height="3.94"/><rect class="cls-2" x="237.03" y="146.44" width="3.94" height="3.94"/><rect class="cls-2" x="237.03" y="138.55" width="3.94" height="3.94"/><rect class="cls-2" x="237.03" y="154.33" width="3.94" height="3.94"/><rect class="cls-2" x="229.14" y="162.22" width="3.94" height="3.94"/><rect class="cls-2" x="237.03" y="162.22" width="3.94" height="3.94"/><rect class="cls-2" x="229.14" y="170.11" width="3.94" height="3.94"/><rect class="cls-2" x="237.03" y="170.11" width="3.94" height="3.94"/><rect class="cls-2" x="229.14" y="178" width="3.94" height="3.94"/><rect class="cls-2" x="237.03" y="178" width="3.94" height="3.94"/><rect class="cls-2" x="244.91" y="146.44" width="3.94" height="3.94"/><rect class="cls-2" x="244.91" y="154.33" width="3.94" height="3.94"/><rect class="cls-2" x="252.8" y="146.44" width="3.94" height="3.94"/><rect class="cls-2" x="244.91" y="138.55" width="3.94" height="3.94"/><rect class="cls-2" x="252.8" y="138.55" width="3.94" height="3.94"/><rect class="cls-2" x="252.8" y="154.33" width="3.94" height="3.94"/><rect class="cls-2" x="244.91" y="162.22" width="3.94" height="3.94"/><rect class="cls-2" x="252.8" y="162.22" width="3.94" height="3.94"/><rect class="cls-2" x="244.91" y="170.11" width="3.94" height="3.94"/><rect class="cls-2" x="252.8" y="170.11" width="3.94" height="3.94"/><rect class="cls-2" x="244.91" y="178" width="3.94" height="3.94"/><rect class="cls-2" x="252.8" y="178" width="3.94" height="3.94"/><rect class="cls-2" x="260.69" y="146.44" width="3.94" height="3.94"/><rect class="cls-2" x="260.69" y="154.33" width="3.94" height="3.94"/><rect class="cls-2" x="268.58" y="146.44" width="3.94" height="3.94"/><rect class="cls-2" x="260.69" y="138.55" width="3.94" height="3.94"/><rect class="cls-2" x="268.58" y="154.33" width="3.94" height="3.94"/><rect class="cls-2" x="260.69" y="162.22" width="3.94" height="3.94"/><rect class="cls-2" x="268.58" y="162.22" width="3.94" height="3.94"/><rect class="cls-2" x="260.69" y="170.11" width="3.94" height="3.94"/><rect class="cls-2" x="268.58" y="170.11" width="3.94" height="3.94"/><rect class="cls-2" x="260.69" y="178" width="3.94" height="3.94"/><rect class="cls-2" x="268.58" y="178" width="3.94" height="3.94"/><rect class="cls-2" x="276.47" y="146.44" width="3.94" height="3.94"/><rect class="cls-2" x="276.47" y="138.55" width="3.94" height="3.94"/><rect class="cls-2" x="276.47" y="154.33" width="3.94" height="3.94"/><rect class="cls-2" x="276.47" y="162.22" width="3.94" height="3.94"/><rect class="cls-2" x="276.47" y="170.11" width="3.94" height="3.94"/><rect class="cls-2" x="276.47" y="178" width="3.94" height="3.94"/><rect class="cls-2" x="284.36" y="146.44" width="3.94" height="3.94"/><rect class="cls-2" x="284.36" y="154.33" width="3.94" height="3.94"/><rect class="cls-2" x="292.25" y="146.44" width="3.94" height="3.94"/><rect class="cls-2" x="292.25" y="138.55" width="3.94" height="3.94"/><rect class="cls-2" x="284.36" y="162.22" width="3.94" height="3.94"/><rect class="cls-2" x="292.25" y="162.22" width="3.94" height="3.94"/><rect class="cls-2" x="284.36" y="170.11" width="3.94" height="3.94"/><rect class="cls-2" x="292.25" y="170.11" width="3.94" height="3.94"/><rect class="cls-2" x="284.36" y="178" width="3.94" height="3.94"/><rect class="cls-2" x="292.25" y="178" width="3.94" height="3.94"/><rect class="cls-2" x="300.13" y="146.44" width="3.94" height="3.94"/><rect class="cls-2" x="300.13" y="154.33" width="3.94" height="3.94"/><rect class="cls-2" x="308.02" y="146.44" width="3.94" height="3.94"/><rect class="cls-2" x="300.13" y="138.55" width="3.94" height="3.94"/><rect class="cls-2" x="308.02" y="138.55" width="3.94" height="3.94"/><rect class="cls-2" x="308.02" y="154.33" width="3.94" height="3.94"/><rect class="cls-2" x="308.02" y="162.22" width="3.94" height="3.94"/><rect class="cls-2" x="300.13" y="170.11" width="3.94" height="3.94"/><rect class="cls-2" x="300.13" y="178" width="3.94" height="3.94"/><rect class="cls-3" x="306.42" y="176.39" width="7.16" height="7.16"/><rect class="cls-2" x="315.91" y="154.33" width="3.94" height="3.94"/><rect class="cls-2" x="323.8" y="146.44" width="3.94" height="3.94"/><rect class="cls-2" x="315.91" y="138.55" width="3.94" height="3.94"/><rect class="cls-2" x="323.8" y="138.55" width="3.94" height="3.94"/><rect class="cls-3" x="322.19" y="152.73" width="7.16" height="7.16"/><rect class="cls-2" x="315.91" y="162.22" width="3.94" height="3.94"/><rect class="cls-2" x="323.8" y="162.22" width="3.94" height="3.94"/><rect class="cls-2" x="315.91" y="178" width="3.94" height="3.94"/><rect class="cls-2" x="331.69" y="146.44" width="3.94" height="3.94"/><rect class="cls-2" x="331.69" y="138.55" width="3.94" height="3.94"/><rect class="cls-2" x="339.58" y="146.44" width="3.94" height="3.94"/><rect class="cls-2" x="339.58" y="154.33" width="3.94" height="3.94"/><rect class="cls-2" x="347.47" y="146.44" width="3.94" height="3.94"/><rect class="cls-2" x="339.58" y="138.55" width="3.94" height="3.94"/><rect class="cls-2" x="347.47" y="138.55" width="3.94" height="3.94"/><rect class="cls-2" x="347.47" y="154.33" width="3.94" height="3.94"/><rect class="cls-2" x="347.47" y="162.22" width="3.94" height="3.94"/><rect class="cls-2" x="355.36" y="146.44" width="3.94" height="3.94"/><rect class="cls-2" x="355.36" y="154.33" width="3.94" height="3.94"/><rect class="cls-2" x="363.24" y="146.44" width="3.94" height="3.94"/><rect class="cls-2" x="355.36" y="138.55" width="3.94" height="3.94"/><rect class="cls-2" x="363.24" y="138.55" width="3.94" height="3.94"/><rect class="cls-2" x="363.24" y="154.33" width="3.94" height="3.94"/><rect class="cls-2" x="355.36" y="162.22" width="3.94" height="3.94"/><rect class="cls-2" x="363.24" y="162.22" width="3.94" height="3.94"/><rect class="cls-2" x="355.36" y="170.11" width="3.94" height="3.94"/><rect class="cls-2" x="363.24" y="170.11" width="3.94" height="3.94"/><rect class="cls-2" x="355.36" y="178" width="3.94" height="3.94"/><rect class="cls-2" x="371.13" y="146.44" width="3.94" height="3.94"/><rect class="cls-2" x="371.13" y="154.33" width="3.94" height="3.94"/><rect class="cls-2" x="379.02" y="146.44" width="3.94" height="3.94"/><rect class="cls-2" x="371.13" y="138.55" width="3.94" height="3.94"/><rect class="cls-2" x="379.02" y="138.55" width="3.94" height="3.94"/><rect class="cls-2" x="379.02" y="154.33" width="3.94" height="3.94"/><rect class="cls-3" x="377.41" y="160.61" width="7.16" height="7.16"/><rect class="cls-2" x="386.91" y="146.44" width="3.94" height="3.94"/><rect class="cls-2" x="386.91" y="138.55" width="3.94" height="3.94"/><rect class="cls-2" x="386.91" y="154.33" width="3.94" height="3.94"/><rect class="cls-2" x="386.91" y="162.22" width="3.94" height="3.94"/><rect class="cls-2" x="386.91" y="170.11" width="3.94" height="3.94"/><rect class="cls-2" x="386.91" y="178" width="3.94" height="3.94"/><rect class="cls-2" x="394.8" y="146.44" width="3.94" height="3.94"/><rect class="cls-2" x="394.8" y="154.33" width="3.94" height="3.94"/><rect class="cls-2" x="402.69" y="146.44" width="3.94" height="3.94"/><rect class="cls-2" x="394.8" y="138.55" width="3.94" height="3.94"/><rect class="cls-2" x="402.69" y="138.55" width="3.94" height="3.94"/><rect class="cls-2" x="402.69" y="154.33" width="3.94" height="3.94"/><rect class="cls-2" x="394.8" y="162.22" width="3.94" height="3.94"/><rect class="cls-2" x="402.69" y="162.22" width="3.94" height="3.94"/><rect class="cls-2" x="394.8" y="170.11" width="3.94" height="3.94"/><rect class="cls-2" x="402.69" y="170.11" width="3.94" height="3.94"/><rect class="cls-2" x="394.8" y="178" width="3.94" height="3.94"/><rect class="cls-2" x="300.13" y="51.78" width="3.94" height="3.94"/><rect class="cls-2" x="300.13" y="59.67" width="3.94" height="3.94"/><rect class="cls-2" x="300.13" y="43.89" width="3.94" height="3.94"/><rect class="cls-2" x="308.02" y="59.67" width="3.94" height="3.94"/><rect class="cls-2" x="300.13" y="67.56" width="3.94" height="3.94"/><rect class="cls-2" x="308.02" y="67.56" width="3.94" height="3.94"/><rect class="cls-2" x="300.13" y="75.44" width="3.94" height="3.94"/><rect class="cls-2" x="308.02" y="75.44" width="3.94" height="3.94"/><rect class="cls-2" x="300.13" y="83.33" width="3.94" height="3.94"/><rect class="cls-2" x="308.02" y="83.33" width="3.94" height="3.94"/><rect class="cls-2" x="315.91" y="51.78" width="3.94" height="3.94"/><rect class="cls-2" x="315.91" y="59.67" width="3.94" height="3.94"/><rect class="cls-2" x="323.8" y="51.78" width="3.94" height="3.94"/><rect class="cls-2" x="315.91" y="43.89" width="3.94" height="3.94"/><rect class="cls-2" x="323.8" y="43.89" width="3.94" height="3.94"/><rect class="cls-2" x="323.8" y="59.67" width="3.94" height="3.94"/><rect class="cls-2" x="315.91" y="67.56" width="3.94" height="3.94"/><rect class="cls-2" x="323.8" y="67.56" width="3.94" height="3.94"/><rect class="cls-2" x="315.91" y="75.44" width="3.94" height="3.94"/><rect class="cls-2" x="323.8" y="75.44" width="3.94" height="3.94"/><rect class="cls-2" x="315.91" y="83.33" width="3.94" height="3.94"/><rect class="cls-2" x="323.8" y="83.33" width="3.94" height="3.94"/><rect class="cls-2" x="331.69" y="51.78" width="3.94" height="3.94"/><rect class="cls-2" x="331.69" y="43.89" width="3.94" height="3.94"/><rect class="cls-2" x="331.69" y="59.67" width="3.94" height="3.94"/><rect class="cls-2" x="331.69" y="67.56" width="3.94" height="3.94"/><rect class="cls-2" x="331.69" y="75.44" width="3.94" height="3.94"/><rect class="cls-2" x="331.69" y="83.33" width="3.94" height="3.94"/><rect class="cls-2" x="339.58" y="51.78" width="3.94" height="3.94"/><rect class="cls-2" x="339.58" y="59.67" width="3.94" height="3.94"/><rect class="cls-2" x="347.47" y="51.78" width="3.94" height="3.94"/><rect class="cls-2" x="339.58" y="43.89" width="3.94" height="3.94"/><rect class="cls-2" x="347.47" y="43.89" width="3.94" height="3.94"/><rect class="cls-2" x="347.47" y="59.67" width="3.94" height="3.94"/><rect class="cls-2" x="339.58" y="67.56" width="3.94" height="3.94"/><rect class="cls-2" x="347.47" y="67.56" width="3.94" height="3.94"/><rect class="cls-2" x="339.58" y="75.44" width="3.94" height="3.94"/><rect class="cls-2" x="347.47" y="75.44" width="3.94" height="3.94"/><rect class="cls-2" x="339.58" y="83.33" width="3.94" height="3.94"/><rect class="cls-2" x="347.47" y="83.33" width="3.94" height="3.94"/><rect class="cls-2" x="355.36" y="51.78" width="3.94" height="3.94"/><rect class="cls-2" x="355.36" y="59.67" width="3.94" height="3.94"/><rect class="cls-2" x="363.24" y="51.78" width="3.94" height="3.94"/><rect class="cls-2" x="355.36" y="43.89" width="3.94" height="3.94"/><rect class="cls-2" x="363.24" y="43.89" width="3.94" height="3.94"/><rect class="cls-2" x="363.24" y="59.67" width="3.94" height="3.94"/><rect class="cls-2" x="355.36" y="67.56" width="3.94" height="3.94"/><rect class="cls-2" x="363.24" y="67.56" width="3.94" height="3.94"/><rect class="cls-2" x="355.36" y="75.44" width="3.94" height="3.94"/><rect class="cls-2" x="363.24" y="75.44" width="3.94" height="3.94"/><rect class="cls-2" x="355.36" y="83.33" width="3.94" height="3.94"/><rect class="cls-2" x="363.24" y="83.33" width="3.94" height="3.94"/><rect class="cls-2" x="371.13" y="51.78" width="3.94" height="3.94"/><rect class="cls-2" x="371.13" y="59.67" width="3.94" height="3.94"/><rect class="cls-2" x="379.02" y="51.78" width="3.94" height="3.94"/><rect class="cls-2" x="371.13" y="43.89" width="3.94" height="3.94"/><rect class="cls-2" x="379.02" y="43.89" width="3.94" height="3.94"/><rect class="cls-2" x="379.02" y="59.67" width="3.94" height="3.94"/><rect class="cls-2" x="371.13" y="67.56" width="3.94" height="3.94"/><rect class="cls-3" x="377.41" y="65.95" width="7.16" height="7.16"/><rect class="cls-2" x="371.13" y="75.44" width="3.94" height="3.94"/><rect class="cls-2" x="379.02" y="75.44" width="3.94" height="3.94"/><rect class="cls-2" x="371.13" y="83.33" width="3.94" height="3.94"/><rect class="cls-2" x="379.02" y="83.33" width="3.94" height="3.94"/><rect class="cls-2" x="386.91" y="51.78" width="3.94" height="3.94"/><rect class="cls-2" x="386.91" y="43.89" width="3.94" height="3.94"/><rect class="cls-2" x="386.91" y="59.67" width="3.94" height="3.94"/><rect class="cls-2" x="386.91" y="67.56" width="3.94" height="3.94"/><rect class="cls-2" x="386.91" y="75.44" width="3.94" height="3.94"/><rect class="cls-2" x="386.91" y="83.33" width="3.94" height="3.94"/><rect class="cls-2" x="394.8" y="51.78" width="3.94" height="3.94"/><rect class="cls-2" x="394.8" y="59.67" width="3.94" height="3.94"/><rect class="cls-2" x="402.69" y="51.78" width="3.94" height="3.94"/><rect class="cls-2" x="394.8" y="43.89" width="3.94" height="3.94"/><rect class="cls-2" x="402.69" y="43.89" width="3.94" height="3.94"/><rect class="cls-2" x="402.69" y="59.67" width="3.94" height="3.94"/><rect class="cls-2" x="394.8" y="67.56" width="3.94" height="3.94"/><rect class="cls-2" x="402.69" y="67.56" width="3.94" height="3.94"/><rect class="cls-2" x="394.8" y="75.44" width="3.94" height="3.94"/><rect class="cls-2" x="402.69" y="75.44" width="3.94" height="3.94"/><rect class="cls-2" x="394.8" y="83.33" width="3.94" height="3.94"/><rect class="cls-2" x="402.69" y="83.33" width="3.94" height="3.94"/><rect class="cls-2" x="229.14" y="20.22" width="3.94" height="3.94"/><rect class="cls-2" x="252.8" y="28.11" width="3.94" height="3.94"/><rect class="cls-2" x="252.8" y="36" width="3.94" height="3.94"/><rect class="cls-2" x="260.69" y="28.11" width="3.94" height="3.94"/><rect class="cls-2" x="292.25" y="12.34" width="3.94" height="3.94"/><rect class="cls-2" x="284.36" y="20.22" width="3.94" height="3.94"/><rect class="cls-2" x="292.25" y="20.22" width="3.94" height="3.94"/><rect class="cls-2" x="308.02" y="36" width="3.94" height="3.94"/><rect class="cls-2" x="323.8" y="4.45" width="3.94" height="3.94"/><rect class="cls-2" x="331.69" y="12.34" width="3.94" height="3.94"/><rect class="cls-2" x="331.69" y="36" width="3.94" height="3.94"/><rect class="cls-2" x="339.58" y="12.34" width="3.94" height="3.94"/><rect class="cls-2" x="339.58" y="20.22" width="3.94" height="3.94"/><rect class="cls-2" x="347.47" y="20.22" width="3.94" height="3.94"/><rect class="cls-2" x="339.58" y="28.11" width="3.94" height="3.94"/><rect class="cls-2" x="347.47" y="28.11" width="3.94" height="3.94"/><rect class="cls-2" x="339.58" y="36" width="3.94" height="3.94"/><rect class="cls-2" x="347.47" y="36" width="3.94" height="3.94"/><rect class="cls-2" x="355.36" y="20.22" width="3.94" height="3.94"/><rect class="cls-2" x="355.36" y="28.11" width="3.94" height="3.94"/><rect class="cls-2" x="363.24" y="28.11" width="3.94" height="3.94"/><rect class="cls-2" x="355.36" y="36" width="3.94" height="3.94"/><rect class="cls-2" x="363.24" y="36" width="3.94" height="3.94"/><rect class="cls-2" x="379.02" y="28.11" width="3.94" height="3.94"/><rect class="cls-2" x="371.13" y="36" width="3.94" height="3.94"/><rect class="cls-2" x="379.02" y="36" width="3.94" height="3.94"/><rect class="cls-2" x="386.91" y="12.34" width="3.94" height="3.94"/><rect class="cls-2" x="386.91" y="20.22" width="3.94" height="3.94"/><rect class="cls-2" x="386.91" y="36" width="3.94" height="3.94"/><rect class="cls-2" x="394.8" y="12.34" width="3.94" height="3.94"/><rect class="cls-2" x="402.69" y="12.34" width="3.94" height="3.94"/><rect class="cls-2" x="394.8" y="20.22" width="3.94" height="3.94"/><rect class="cls-2" x="394.8" y="28.11" width="3.94" height="3.94"/><rect class="cls-2" x="402.69" y="28.11" width="3.94" height="3.94"/><rect class="cls-2" x="394.8" y="36" width="3.94" height="3.94"/><rect class="cls-2" x="402.69" y="36" width="3.94" height="3.94"/><rect class="cls-2" x="410.58" y="99.11" width="3.94" height="3.94"/><rect class="cls-2" x="410.58" y="107" width="3.94" height="3.94"/><rect class="cls-2" x="418.46" y="99.11" width="3.94" height="3.94"/><rect class="cls-2" x="410.58" y="91.22" width="3.94" height="3.94"/><rect class="cls-2" x="418.46" y="91.22" width="3.94" height="3.94"/><rect class="cls-2" x="418.46" y="107" width="3.94" height="3.94"/><rect class="cls-2" x="410.58" y="114.89" width="3.94" height="3.94"/><rect class="cls-2" x="418.46" y="114.89" width="3.94" height="3.94"/><rect class="cls-2" x="410.58" y="122.78" width="3.94" height="3.94"/><rect class="cls-2" x="418.46" y="122.78" width="3.94" height="3.94"/><rect class="cls-2" x="410.58" y="130.67" width="3.94" height="3.94"/><rect class="cls-2" x="418.46" y="130.67" width="3.94" height="3.94"/><rect class="cls-2" x="426.35" y="99.11" width="3.94" height="3.94"/><rect class="cls-2" x="426.35" y="107" width="3.94" height="3.94"/><rect class="cls-2" x="434.24" y="99.11" width="3.94" height="3.94"/><rect class="cls-2" x="426.35" y="91.22" width="3.94" height="3.94"/><rect class="cls-2" x="434.24" y="91.22" width="3.94" height="3.94"/><rect class="cls-2" x="434.24" y="107" width="3.94" height="3.94"/><rect class="cls-2" x="426.35" y="114.89" width="3.94" height="3.94"/><rect class="cls-2" x="426.35" y="122.78" width="3.94" height="3.94"/><rect class="cls-2" x="434.24" y="130.67" width="3.94" height="3.94"/><rect class="cls-2" x="442.13" y="99.11" width="3.94" height="3.94"/><rect class="cls-2" x="442.13" y="107" width="3.94" height="3.94"/><rect class="cls-2" x="442.13" y="114.89" width="3.94" height="3.94"/><rect class="cls-2" x="442.13" y="122.78" width="3.94" height="3.94"/><rect class="cls-2" x="442.13" y="130.67" width="3.94" height="3.94"/><rect class="cls-2" x="457.91" y="91.22" width="3.94" height="3.94"/><rect class="cls-2" x="410.58" y="146.44" width="3.94" height="3.94"/><rect class="cls-3" x="408.97" y="152.73" width="7.16" height="7.16"/><rect class="cls-2" x="418.46" y="146.44" width="3.94" height="3.94"/><rect class="cls-2" x="410.58" y="138.55" width="3.94" height="3.94"/><rect class="cls-2" x="418.46" y="138.55" width="3.94" height="3.94"/><rect class="cls-2" x="418.46" y="154.33" width="3.94" height="3.94"/><rect class="cls-2" x="418.46" y="170.11" width="3.94" height="3.94"/><rect class="cls-2" x="434.24" y="138.55" width="3.94" height="3.94"/><rect class="cls-2" x="426.35" y="170.11" width="3.94" height="3.94"/><rect class="cls-2" x="426.35" y="178" width="3.94" height="3.94"/><rect class="cls-2" x="410.58" y="51.78" width="3.94" height="3.94"/><rect class="cls-2" x="410.58" y="59.67" width="3.94" height="3.94"/><rect class="cls-2" x="418.46" y="51.78" width="3.94" height="3.94"/><rect class="cls-2" x="410.58" y="43.89" width="3.94" height="3.94"/><rect class="cls-2" x="418.46" y="43.89" width="3.94" height="3.94"/><rect class="cls-2" x="418.46" y="59.67" width="3.94" height="3.94"/><rect class="cls-2" x="410.58" y="67.56" width="3.94" height="3.94"/><rect class="cls-2" x="418.46" y="67.56" width="3.94" height="3.94"/><rect class="cls-2" x="410.58" y="75.44" width="3.94" height="3.94"/><rect class="cls-2" x="418.46" y="75.44" width="3.94" height="3.94"/><rect class="cls-2" x="410.58" y="83.33" width="3.94" height="3.94"/><rect class="cls-2" x="418.46" y="83.33" width="3.94" height="3.94"/><rect class="cls-2" x="426.35" y="51.78" width="3.94" height="3.94"/><rect class="cls-2" x="426.35" y="59.67" width="3.94" height="3.94"/><rect class="cls-2" x="434.24" y="51.78" width="3.94" height="3.94"/><rect class="cls-2" x="426.35" y="43.89" width="3.94" height="3.94"/><rect class="cls-2" x="434.24" y="43.89" width="3.94" height="3.94"/><rect class="cls-2" x="434.24" y="59.67" width="3.94" height="3.94"/><rect class="cls-2" x="426.35" y="67.56" width="3.94" height="3.94"/><rect class="cls-2" x="434.24" y="67.56" width="3.94" height="3.94"/><rect class="cls-2" x="426.35" y="75.44" width="3.94" height="3.94"/><rect class="cls-2" x="426.35" y="83.33" width="3.94" height="3.94"/><rect class="cls-2" x="442.13" y="51.78" width="3.94" height="3.94"/><rect class="cls-2" x="442.13" y="43.89" width="3.94" height="3.94"/><rect class="cls-2" x="442.13" y="59.67" width="3.94" height="3.94"/><rect class="cls-2" x="450.02" y="51.78" width="3.94" height="3.94"/><rect class="cls-2" x="450.02" y="59.67" width="3.94" height="3.94"/><rect class="cls-2" x="457.91" y="51.78" width="3.94" height="3.94"/><rect class="cls-2" x="450.02" y="43.89" width="3.94" height="3.94"/><rect class="cls-2" x="457.91" y="43.89" width="3.94" height="3.94"/><rect class="cls-2" x="457.91" y="59.67" width="3.94" height="3.94"/><rect class="cls-2" x="450.02" y="67.56" width="3.94" height="3.94"/><rect class="cls-2" x="450.02" y="75.44" width="3.94" height="3.94"/><rect class="cls-2" x="457.91" y="75.44" width="3.94" height="3.94"/><rect class="cls-2" x="450.02" y="83.33" width="3.94" height="3.94"/><rect class="cls-2" x="457.91" y="83.33" width="3.94" height="3.94"/><rect class="cls-2" x="465.8" y="51.78" width="3.94" height="3.94"/><rect class="cls-2" x="465.8" y="43.89" width="3.94" height="3.94"/><rect class="cls-2" x="142.36" y="225.33" width="3.94" height="3.94"/><rect class="cls-3" x="132.87" y="215.83" width="7.16" height="7.16"/><rect class="cls-2" x="142.36" y="217.44" width="3.94" height="3.94"/><rect class="cls-2" x="142.36" y="233.22" width="3.94" height="3.94"/><rect class="cls-2" x="142.36" y="241.11" width="3.94" height="3.94"/><rect class="cls-2" x="134.47" y="249" width="3.94" height="3.94"/><rect class="cls-2" x="142.36" y="249" width="3.94" height="3.94"/><rect class="cls-2" x="134.47" y="256.88" width="3.94" height="3.94"/><rect class="cls-2" x="142.36" y="256.88" width="3.94" height="3.94"/><rect class="cls-2" x="150.25" y="225.33" width="3.94" height="3.94"/><rect class="cls-2" x="150.25" y="217.44" width="3.94" height="3.94"/><rect class="cls-2" x="150.25" y="233.22" width="3.94" height="3.94"/><rect class="cls-2" x="150.25" y="241.11" width="3.94" height="3.94"/><rect class="cls-2" x="150.25" y="249" width="3.94" height="3.94"/><rect class="cls-2" x="150.25" y="256.88" width="3.94" height="3.94"/><rect class="cls-2" x="158.14" y="225.33" width="3.94" height="3.94"/><rect class="cls-2" x="158.14" y="233.22" width="3.94" height="3.94"/><rect class="cls-2" x="166.03" y="225.33" width="3.94" height="3.94"/><rect class="cls-2" x="158.14" y="217.44" width="3.94" height="3.94"/><rect class="cls-2" x="166.03" y="217.44" width="3.94" height="3.94"/><rect class="cls-2" x="166.03" y="233.22" width="3.94" height="3.94"/><rect class="cls-2" x="158.14" y="241.11" width="3.94" height="3.94"/><rect class="cls-3" x="164.42" y="239.5" width="7.16" height="7.16"/><rect class="cls-2" x="158.14" y="249" width="3.94" height="3.94"/><rect class="cls-2" x="158.14" y="256.88" width="3.94" height="3.94"/><rect class="cls-2" x="166.03" y="249" width="3.94" height="3.94"/><rect class="cls-2" x="173.92" y="225.33" width="3.94" height="3.94"/><rect class="cls-2" x="173.92" y="233.22" width="3.94" height="3.94"/><rect class="cls-2" x="181.81" y="225.33" width="3.94" height="3.94"/><rect class="cls-2" x="173.92" y="217.44" width="3.94" height="3.94"/><rect class="cls-2" x="181.81" y="217.44" width="3.94" height="3.94"/><rect class="cls-2" x="134.47" y="272.66" width="3.94" height="3.94"/><rect class="cls-2" x="142.36" y="272.66" width="3.94" height="3.94"/><rect class="cls-2" x="134.47" y="264.77" width="3.94" height="3.94"/><rect class="cls-2" x="142.36" y="264.77" width="3.94" height="3.94"/><rect class="cls-2" x="142.36" y="280.55" width="3.94" height="3.94"/><rect class="cls-2" x="150.25" y="272.66" width="3.94" height="3.94"/><rect class="cls-2" x="150.25" y="264.77" width="3.94" height="3.94"/><rect class="cls-2" x="150.25" y="288.44" width="3.94" height="3.94"/><rect class="cls-2" x="126.59" y="185.89" width="3.94" height="3.94"/><rect class="cls-2" x="118.7" y="193.77" width="3.94" height="3.94"/><rect class="cls-2" x="126.59" y="193.77" width="3.94" height="3.94"/><rect class="cls-2" x="118.7" y="201.66" width="3.94" height="3.94"/><rect class="cls-2" x="126.59" y="201.66" width="3.94" height="3.94"/><rect class="cls-2" x="126.59" y="209.55" width="3.94" height="3.94"/><rect class="cls-2" x="134.47" y="185.89" width="3.94" height="3.94"/><rect class="cls-2" x="142.36" y="185.89" width="3.94" height="3.94"/><rect class="cls-2" x="134.47" y="193.77" width="3.94" height="3.94"/><rect class="cls-2" x="142.36" y="193.77" width="3.94" height="3.94"/><rect class="cls-2" x="134.47" y="201.66" width="3.94" height="3.94"/><rect class="cls-2" x="142.36" y="201.66" width="3.94" height="3.94"/><rect class="cls-2" x="134.47" y="209.55" width="3.94" height="3.94"/><rect class="cls-2" x="142.36" y="209.55" width="3.94" height="3.94"/><rect class="cls-2" x="150.25" y="185.89" width="3.94" height="3.94"/><rect class="cls-2" x="150.25" y="193.77" width="3.94" height="3.94"/><rect class="cls-2" x="150.25" y="201.66" width="3.94" height="3.94"/><rect class="cls-2" x="150.25" y="209.55" width="3.94" height="3.94"/><rect class="cls-2" x="158.14" y="185.89" width="3.94" height="3.94"/><rect class="cls-2" x="166.03" y="185.89" width="3.94" height="3.94"/><rect class="cls-2" x="158.14" y="193.77" width="3.94" height="3.94"/><rect class="cls-2" x="166.03" y="193.77" width="3.94" height="3.94"/><rect class="cls-2" x="158.14" y="201.66" width="3.94" height="3.94"/><rect class="cls-2" x="166.03" y="201.66" width="3.94" height="3.94"/><rect class="cls-2" x="158.14" y="209.55" width="3.94" height="3.94"/><rect class="cls-2" x="166.03" y="209.55" width="3.94" height="3.94"/><rect class="cls-2" x="173.92" y="193.77" width="3.94" height="3.94"/><rect class="cls-3" x="180.2" y="192.17" width="7.16" height="7.16"/><rect class="cls-2" x="173.92" y="201.66" width="3.94" height="3.94"/><rect class="cls-2" x="181.81" y="201.66" width="3.94" height="3.94"/><rect class="cls-2" x="173.92" y="209.55" width="3.94" height="3.94"/><rect class="cls-2" x="181.81" y="209.55" width="3.94" height="3.94"/><rect class="cls-2" x="189.69" y="201.66" width="3.94" height="3.94"/><rect class="cls-2" x="260.69" y="225.33" width="3.94" height="3.94"/><rect class="cls-2" x="268.58" y="225.33" width="3.94" height="3.94"/><rect class="cls-2" x="260.69" y="217.44" width="3.94" height="3.94"/><rect class="cls-2" x="268.58" y="217.44" width="3.94" height="3.94"/><rect class="cls-2" x="268.58" y="233.22" width="3.94" height="3.94"/><rect class="cls-2" x="268.58" y="241.11" width="3.94" height="3.94"/><rect class="cls-2" x="276.47" y="225.33" width="3.94" height="3.94"/><rect class="cls-2" x="276.47" y="217.44" width="3.94" height="3.94"/><rect class="cls-2" x="276.47" y="233.22" width="3.94" height="4.9"/><rect class="cls-2" x="276.47" y="241.11" width="3.94" height="3.94"/><rect class="cls-2" x="284.36" y="225.33" width="3.94" height="3.94"/><rect class="cls-3" x="282.75" y="231.61" width="7.16" height="7.16"/><rect class="cls-2" x="292.25" y="225.33" width="3.94" height="3.94"/><rect class="cls-2" x="284.36" y="217.44" width="3.94" height="3.94"/><rect class="cls-2" x="292.25" y="217.44" width="3.94" height="3.94"/><rect class="cls-3" x="251.2" y="184.28" width="7.16" height="7.16"/><rect class="cls-2" x="252.8" y="193.77" width="3.94" height="3.94"/><rect class="cls-2" x="260.69" y="185.89" width="3.94" height="3.94"/><rect class="cls-2" x="268.58" y="185.89" width="3.94" height="3.94"/><rect class="cls-2" x="260.69" y="193.77" width="3.94" height="3.94"/><rect class="cls-2" x="268.58" y="193.77" width="3.94" height="3.94"/><rect class="cls-2" x="260.69" y="201.66" width="3.94" height="3.94"/><rect class="cls-2" x="268.58" y="201.66" width="3.94" height="3.94"/><rect class="cls-2" x="260.69" y="209.55" width="3.94" height="3.94"/><rect class="cls-2" x="268.58" y="209.55" width="3.94" height="3.94"/><rect class="cls-2" x="276.47" y="185.89" width="3.94" height="3.94"/><rect class="cls-2" x="276.47" y="193.77" width="3.94" height="3.94"/><rect class="cls-2" x="276.47" y="201.66" width="3.94" height="3.94"/><rect class="cls-2" x="276.47" y="209.55" width="3.94" height="3.94"/><rect class="cls-2" x="284.36" y="185.89" width="3.94" height="3.94"/><rect class="cls-2" x="292.25" y="185.89" width="3.94" height="3.94"/><rect class="cls-2" x="284.36" y="193.77" width="3.94" height="3.94"/><rect class="cls-2" x="284.36" y="201.66" width="3.94" height="3.94"/><rect class="cls-2" x="292.25" y="201.66" width="3.94" height="3.94"/><rect class="cls-2" x="284.36" y="209.55" width="3.94" height="3.94"/><rect class="cls-2" x="292.25" y="209.55" width="3.94" height="3.94"/><rect class="cls-2" x="308.02" y="225.33" width="3.94" height="3.94"/><rect class="cls-2" x="308.02" y="217.44" width="3.94" height="3.94"/><rect class="cls-2" x="315.91" y="217.44" width="3.94" height="3.94"/><rect class="cls-2" x="300.13" y="185.89" width="3.94" height="3.94"/><rect class="cls-2" x="308.02" y="185.89" width="3.94" height="3.94"/><rect class="cls-2" x="300.13" y="193.77" width="3.94" height="3.94"/><rect class="cls-2" x="300.13" y="201.66" width="3.94" height="3.94"/><rect class="cls-2" x="300.13" y="209.55" width="3.94" height="3.94"/><rect class="cls-2" x="315.91" y="209.55" width="3.94" height="3.94"/><rect class="cls-2" x="386.91" y="185.89" width="3.94" height="3.94"/><rect class="cls-2" x="394.8" y="185.89" width="3.94" height="3.94"/><rect class="cls-2" x="394.8" y="193.77" width="3.94" height="3.94"/><rect class="cls-2" x="402.69" y="193.77" width="3.94" height="3.94"/><rect class="cls-2" x="402.69" y="201.66" width="3.94" height="3.94"/><rect class="cls-2" x="410.58" y="233.22" width="3.94" height="3.94"/><rect class="cls-2" x="418.46" y="225.33" width="3.94" height="3.94"/><rect class="cls-2" x="418.46" y="233.22" width="3.94" height="3.94"/><rect class="cls-2" x="410.58" y="241.11" width="3.94" height="3.94"/><rect class="cls-2" x="418.46" y="241.11" width="3.94" height="3.94"/><rect class="cls-2" x="410.58" y="249" width="3.94" height="3.94"/><rect class="cls-2" x="418.46" y="249" width="3.94" height="3.94"/><rect class="cls-2" x="426.35" y="225.33" width="3.94" height="3.94"/><rect class="cls-2" x="426.35" y="233.22" width="3.94" height="3.94"/><rect class="cls-2" x="434.24" y="225.33" width="3.94" height="3.94"/><rect class="cls-2" x="426.35" y="217.44" width="3.94" height="3.94"/><rect class="cls-2" x="434.24" y="217.44" width="3.94" height="3.94"/><rect class="cls-2" x="434.24" y="233.22" width="3.94" height="3.94"/><rect class="cls-2" x="426.35" y="241.11" width="3.94" height="3.94"/><rect class="cls-3" x="432.63" y="239.5" width="7.16" height="7.16"/><rect class="cls-2" x="442.13" y="225.33" width="3.94" height="3.94"/><rect class="cls-2" x="442.13" y="217.44" width="3.94" height="3.94"/><rect class="cls-2" x="442.13" y="233.22" width="3.94" height="3.94"/><rect class="cls-2" x="442.13" y="241.11" width="3.94" height="3.94"/><rect class="cls-2" x="442.13" y="249" width="3.94" height="3.94"/><rect class="cls-2" x="442.13" y="256.88" width="3.94" height="3.94"/><rect class="cls-2" x="450.02" y="225.33" width="3.94" height="3.94"/><rect class="cls-2" x="450.02" y="233.22" width="3.94" height="3.94"/><rect class="cls-2" x="457.91" y="225.33" width="3.94" height="3.94"/><rect class="cls-2" x="450.02" y="217.44" width="3.94" height="3.94"/><rect class="cls-2" x="457.91" y="217.44" width="3.94" height="3.94"/><rect class="cls-2" x="457.91" y="233.22" width="3.94" height="3.94"/><rect class="cls-2" x="450.02" y="241.11" width="3.94" height="3.94"/><rect class="cls-2" x="457.91" y="241.11" width="3.94" height="3.94"/><rect class="cls-2" x="450.02" y="249" width="3.94" height="3.94"/><rect class="cls-2" x="457.91" y="249" width="3.94" height="3.94"/><rect class="cls-2" x="450.02" y="256.88" width="3.94" height="3.94"/><rect class="cls-2" x="457.91" y="256.88" width="3.94" height="3.94"/><rect class="cls-2" x="465.8" y="225.33" width="3.94" height="3.94"/><rect class="cls-2" x="465.8" y="233.22" width="3.94" height="3.94"/><rect class="cls-2" x="465.8" y="241.11" width="3.94" height="3.94"/><rect class="cls-2" x="465.8" y="249" width="3.94" height="3.94"/><rect class="cls-2" x="497.35" y="256.88" width="3.94" height="3.94"/><rect class="cls-2" x="450.02" y="272.66" width="3.94" height="3.94"/><rect class="cls-2" x="450.02" y="264.77" width="3.94" height="3.94"/><rect class="cls-2" x="473.69" y="280.55" width="3.94" height="3.94"/><rect class="cls-2" x="481.57" y="272.66" width="3.94" height="3.94"/><rect class="cls-2" x="481.57" y="280.55" width="3.94" height="3.94"/><rect class="cls-2" x="489.46" y="272.66" width="3.94" height="3.94"/><rect class="cls-2" x="489.46" y="264.77" width="3.94" height="3.94"/><rect class="cls-2" x="497.35" y="264.77" width="3.94" height="3.94"/><rect class="cls-2" x="410.58" y="185.89" width="3.94" height="3.94"/><rect class="cls-2" x="418.46" y="185.89" width="3.94" height="3.94"/><rect class="cls-2" x="410.58" y="193.77" width="3.94" height="3.94"/><rect class="cls-2" x="418.46" y="193.77" width="3.94" height="3.94"/><rect class="cls-2" x="418.46" y="201.66" width="3.94" height="3.94"/><rect class="cls-2" x="426.35" y="193.77" width="3.94" height="3.94"/><rect class="cls-2" x="426.35" y="209.55" width="3.94" height="3.94"/><rect class="cls-2" x="442.13" y="193.77" width="3.94" height="3.94"/><rect class="cls-2" x="442.13" y="209.55" width="3.94" height="3.94"/><rect class="cls-2" x="450.02" y="193.77" width="3.94" height="3.94"/><rect class="cls-2" x="450.02" y="201.66" width="3.94" height="3.94"/><rect class="cls-2" x="457.91" y="201.66" width="3.94" height="3.94"/><rect class="cls-2" x="450.02" y="209.55" width="3.94" height="3.94"/><rect class="cls-2" x="465.8" y="201.66" width="3.94" height="3.94"/><rect class="cls-2" x="465.8" y="209.55" width="3.94" height="3.94"/><rect class="cls-2" x="410.58" y="28.11" width="3.94" height="3.94"/><rect class="cls-2" x="418.46" y="28.11" width="3.94" height="3.94"/><rect class="cls-2" x="410.58" y="36" width="3.94" height="3.94"/><rect class="cls-2" x="418.46" y="36" width="3.94" height="3.94"/><rect class="cls-2" x="426.35" y="28.11" width="3.94" height="3.94"/><rect class="cls-2" x="434.24" y="28.11" width="3.94" height="3.94"/><rect class="cls-2" x="426.35" y="36" width="3.94" height="3.94"/><rect class="cls-2" x="434.24" y="36" width="3.94" height="3.94"/><rect class="cls-2" x="442.13" y="20.22" width="3.94" height="3.94"/><rect class="cls-2" x="442.13" y="28.11" width="3.94" height="3.94"/><rect class="cls-2" x="442.13" y="36" width="3.94" height="3.94"/><rect class="cls-2" x="450.02" y="20.22" width="3.94" height="3.94"/><rect class="cls-2" x="450.02" y="28.11" width="3.94" height="3.94"/><rect class="cls-2" x="457.91" y="28.11" width="3.94" height="3.94"/><rect class="cls-2" x="450.02" y="36" width="3.94" height="3.94"/><rect class="cls-2" x="457.91" y="36" width="3.94" height="3.94"/><rect class="cls-2" x="465.8" y="28.11" width="3.94" height="3.94"/><path class="cls-4" d="M424.49,370.13q0,4.38-1.4,6.34t-5.08,2q-3.67,0-5.07-2t-1.4-6.33c0-2.88.48-5,1.42-6.42s2.63-2.09,5-2.09,4.1.69,5.06,2.08S424.49,367.21,424.49,370.13Zm-11.08-.05a10.49,10.49,0,0,0,.95,5.17c.63,1.05,1.85,1.58,3.65,1.58s3-.51,3.65-1.54a10.55,10.55,0,0,0,.93-5.16,10.87,10.87,0,0,0-1-5.28q-1-1.65-3.63-1.65c-1.77,0-3,.54-3.62,1.64A10.86,10.86,0,0,0,413.41,370.08Z"/><path class="cls-4" d="M429.79,367.91V378.2H428V367.91h-1.49v-1.54H428V365.3a5.91,5.91,0,0,1,.71-3.42,3,3,0,0,1,2.49-.91l2.39.17,0,1.47c-.89,0-1.62-.05-2.19-.05a1.34,1.34,0,0,0-1.23.57,4.38,4.38,0,0,0-.37,2.2v1h3.43v1.54Z"/><path class="cls-4" d="M437.62,367.91V378.2h-1.77V367.91h-1.49v-1.54h1.49V365.3a5.83,5.83,0,0,1,.71-3.42A3,3,0,0,1,439,361l2.39.17,0,1.47c-.89,0-1.62-.05-2.19-.05a1.34,1.34,0,0,0-1.23.57,4.38,4.38,0,0,0-.37,2.2v1h3.43v1.54Z"/><path class="cls-4" d="M443.18,363.69v-2.06H445v2.06Zm0,14.51V366.37H445V378.2Z"/><path class="cls-4" d="M452.79,366.13a20.53,20.53,0,0,1,2.65.29l.57.07-.07,1.44q-1.89-.21-2.79-.21a3.26,3.26,0,0,0-2.74,1,6.22,6.22,0,0,0-.72,3.55,6.89,6.89,0,0,0,.68,3.6c.45.68,1.38,1,2.8,1l2.79-.21.07,1.47a24.26,24.26,0,0,1-3.29.33c-1.84,0-3.12-.48-3.82-1.42s-1.05-2.55-1.05-4.79.38-3.83,1.13-4.74A4.68,4.68,0,0,1,452.79,366.13Z"/><path class="cls-4" d="M466.59,376.73l.68-.07.05,1.4a34.32,34.32,0,0,1-4.61.38,4.17,4.17,0,0,1-3.62-1.48,7.94,7.94,0,0,1-1.07-4.6q0-6.23,5-6.23a4.53,4.53,0,0,1,3.57,1.34,6.22,6.22,0,0,1,1.18,4.2l-.09,1.35h-7.81a4.87,4.87,0,0,0,.71,2.91,2.9,2.9,0,0,0,2.47.95C464.18,376.88,465.37,376.83,466.59,376.73ZM466,371.6a5.12,5.12,0,0,0-.7-3.08,2.69,2.69,0,0,0-2.27-.9,2.92,2.92,0,0,0-2.37.95,4.73,4.73,0,0,0-.81,3Z"/><path class="cls-4" d="M421.22,398.91h-9V382.53H414v14.75h7.19Z"/><path class="cls-4" d="M422.59,393a7.56,7.56,0,0,1,1.16-4.69,6,6,0,0,1,7.83,0,7.64,7.64,0,0,1,1.14,4.69,8,8,0,0,1-1.09,4.71c-.72,1-2.05,1.47-4,1.47s-3.25-.49-4-1.47A8.05,8.05,0,0,1,422.59,393Zm1.83,0a7.7,7.7,0,0,0,.62,3.64,2.86,2.86,0,0,0,2.63,1c1.33,0,2.21-.35,2.62-1a7.67,7.67,0,0,0,.61-3.64,6.62,6.62,0,0,0-.69-3.58,2.87,2.87,0,0,0-2.54-1,2.9,2.9,0,0,0-2.55,1A6.49,6.49,0,0,0,424.42,392.93Z"/><path class="cls-4" d="M440,386.84a20.18,20.18,0,0,1,2.65.28l.56.07-.07,1.45c-1.26-.14-2.19-.22-2.79-.22a3.24,3.24,0,0,0-2.73,1,6.27,6.27,0,0,0-.72,3.55,7,7,0,0,0,.67,3.61c.45.68,1.38,1,2.8,1l2.8-.21.07,1.46a25,25,0,0,1-3.29.34c-1.85,0-3.12-.48-3.82-1.42s-1.06-2.55-1.06-4.8.38-3.82,1.14-4.73A4.68,4.68,0,0,1,440,386.84Z"/><path class="cls-4" d="M454.28,390.65v6.06c.05.58.51.93,1.38,1l-.08,1.4a3.82,3.82,0,0,1-2.81-.95,10.44,10.44,0,0,1-4.26.95,3.21,3.21,0,0,1-2.49-.93,3.8,3.8,0,0,1-.85-2.65,3.29,3.29,0,0,1,.88-2.54,4.62,4.62,0,0,1,2.74-1l3.72-.35v-1a2.42,2.42,0,0,0-.52-1.73,1.91,1.91,0,0,0-1.42-.52,33.52,33.52,0,0,0-3.93.24l-.73.07-.08-1.35a23.71,23.71,0,0,1,4.62-.52,3.3,3.3,0,0,1,3.83,3.81ZM447,395.48c0,1.45.6,2.17,1.8,2.17a9.6,9.6,0,0,0,3.17-.54l.55-.19V393l-3.51.33a2.26,2.26,0,0,0-1.53.61A2.18,2.18,0,0,0,447,395.48Z"/><path class="cls-4" d="M463.91,388.61h-3.76v5.66a7.47,7.47,0,0,0,.3,2.67c.19.43.66.64,1.41.64l2.1-.14.12,1.47a16.7,16.7,0,0,1-2.41.26,3.1,3.1,0,0,1-2.56-.9,5.88,5.88,0,0,1-.71-3.43v-6.23h-1.68v-1.53h1.68v-3.63h1.75v3.63h3.76Z"/><path class="cls-4" d="M465.57,393a7.56,7.56,0,0,1,1.16-4.69,4.76,4.76,0,0,1,3.92-1.44q2.76,0,3.9,1.44A7.57,7.57,0,0,1,475.7,393a8,8,0,0,1-1.09,4.71c-.72,1-2.05,1.47-4,1.47s-3.26-.49-4-1.47A8,8,0,0,1,465.57,393Zm1.82,0a7.55,7.55,0,0,0,.63,3.64c.42.69,1.29,1,2.63,1s2.2-.35,2.61-1a7.64,7.64,0,0,0,.62-3.64,6.62,6.62,0,0,0-.69-3.58,2.88,2.88,0,0,0-2.54-1,2.93,2.93,0,0,0-2.56,1A6.58,6.58,0,0,0,467.39,392.93Z"/><path class="cls-4" d="M478.59,398.91V387.08h1.75v1.61a11.49,11.49,0,0,1,4.33-1.87v1.79a13.16,13.16,0,0,0-2.07.6,11.94,11.94,0,0,0-1.65.71l-.59.3v8.69Z"/><g id="lake_forest_open_lands_association"><path class="cls-5" d="M46.51,309.76c5.86,0,11.81.88,18.38.88,3,0,6.32,0,9.48.24,4,.26,8.27-.44,10.49,1.53a8,8,0,0,1,1.06,1.42,8.85,8.85,0,0,1,.94,1.47c1.16,2.75.88,6.6,1,10.54,0,0-.06,0-.06.06a8,8,0,0,1-2.48,2c-6,4.46-12,8.44-18.2,13-3.33,2.46-6.86,5.08-10.19,7.66-1.62,1.25-3.5,2.35-5.24,3.71A12.72,12.72,0,0,1,49,354.12c-1,.45-2.18,1.25-3.13,1.3-2.37.12-2.32-1.65-2.77-3.66-.1-.46-.13-1.13-.23-1.76a5.1,5.1,0,0,1-.18-1.71c.27-.8,1.44-.81,2.59-1.12a12.57,12.57,0,0,0,6.42-4,19.29,19.29,0,0,0,2.71-3.3,16.49,16.49,0,0,0,1.12-3,18.76,18.76,0,0,0,.83-3.3,21.25,21.25,0,0,0-.24-5.42,18.73,18.73,0,0,0-2.3-4.77c-2.2-3.79-4.32-7.24-6.48-11.19-.29-.55-1.3-1.81-1-2.3A.44.44,0,0,1,46.51,309.76Z"/><path class="cls-5" d="M42.09,313.59a3.46,3.46,0,0,1-1.18,1.53c-.45.45-.91.9-1.35,1.36-2.37,3-5.21,5.55-7.66,8.48-.52,1.46-1.1,2.9-1.59,4.42a34.76,34.76,0,0,0-1.54,4.48c-.31,1.75.18,3.73.06,5.77,0,.05.06.06.06.12a20.79,20.79,0,0,0,1.77,2.88,19.26,19.26,0,0,0,1.88,2.71c1.63,1.85,4.06,3,6,4.6A7.13,7.13,0,0,1,41,354.77a22.12,22.12,0,0,1,.18,2.41,3.23,3.23,0,0,1-.36,2.24,2,2,0,0,1-1.7-.17,9.68,9.68,0,0,1-1.48-.65,7.39,7.39,0,0,1-1.41-2c-1.27-2.07-2.88-4-4-6.06a20.59,20.59,0,0,0-2.71-4.07c-.48-.52-1.05-1.16-1.65-1.71a9.73,9.73,0,0,0-1.82-1.53,19.07,19.07,0,0,0-5.48-1.12,14,14,0,0,0-4.78.71,18.55,18.55,0,0,0-3.35,1.88c-1.13.71-2.44,1.25-3.42,2a19.2,19.2,0,0,0-2.65,3c-.43.51-.91,1-1.3,1.53s-.64,1.3-1.35,1.42a17.33,17.33,0,0,1-.12-3.95c0-3.87-.55-7.75-.71-11.79-.1-2.71-.13-5.41-.17-8s-.1-5.42.06-8c.17-2.89,1.46-5.58,3.41-6.83,2.71-1.74,8-1.2,12.2-1,5.14.25,10.51-.17,15.85.12,1.34.07,2.68.08,4,.12A14,14,0,0,1,42.09,313.59Z"/><path class="cls-5" d="M88.87,357.48a6.2,6.2,0,0,1-2.3.77c-2.38.59-4.95,1.23-7.54,1.65q-2.58.41-5.24.88c-1.74.31-3.53.45-5.31.76-3.4.6-6.73,1.53-10.31,1.95a52.34,52.34,0,0,1-5.89.23c-2.81,0-6.23.35-7.3-1.47a9,9,0,0,1,.06-2.83,6.19,6.19,0,0,1,1.88-2.24,20.25,20.25,0,0,1,2.3-1.82c1.8-.33,4.59-1.1,6.48-.65a9.37,9.37,0,0,1,1.65.82c.57.27,1.17.46,1.71.71a20.66,20.66,0,0,0,3.35,1.53,41.42,41.42,0,0,0,4.72.47,10.48,10.48,0,0,0,1.47.18,7,7,0,0,0,2.24-.88,44.43,44.43,0,0,0,5.89-3.3c1.11-1.69,2.17-3.54,3.24-5.42a41.41,41.41,0,0,0,2.94-5.66c1.19-3.08,2.49-6.11,3.54-9.37.48-1.49,1.27-2.63,1.71-4.24a6,6,0,0,1,.29-1.35c.32-.52,1.37-.78,1.89-1,1-.42.62,1.17.58,1.42a55.1,55.1,0,0,0-.29,5.89,55.26,55.26,0,0,1-.65,7.6c-.32,2.55-.39,5.19-.59,7.66S89.22,355.08,88.87,357.48Z"/><path class="cls-5" d="M41.62,370.56a6.74,6.74,0,0,1-3.48-.06,22.77,22.77,0,0,1-2.3-1.18c-2.24-1.14-4.08-2.7-6.42-3.83a41.91,41.91,0,0,0-4.89-2c-2.52-.85-5.66-2-8.77-1a9.68,9.68,0,0,0-3.12,2.06,76.52,76.52,0,0,0-8,7.42c-.56.32-.83,1.24-1.65,1.12A3.79,3.79,0,0,1,2.68,371c-.08-3.83-.06-7.38-.24-11.31,0-.61-.09-1.35-.11-2.18s-.2-1.93.17-2.06a.44.44,0,0,1,.18-.12c3,.19,6.06.65,9.07,1.06,2.74.37,5.53.64,8.25,1.06,4,.61,8,1.19,12,1.94,2.28.43,4.95.45,6.12,1.95a11.17,11.17,0,0,1,1,2.29c.31.75.71,1.52,1,2.18C40.75,367.37,41.57,368.76,41.62,370.56Z"/><path class="cls-5" d="M85.63,360.6c.61-.2.41,1.34.41,1.94,0,2.17-.05,4.35,0,6.78.06,2.89.33,5.82.53,8.54a112,112,0,0,1,.06,13c-.06,1.58.18,3.39-.24,4.77a19.35,19.35,0,0,1-.82,1.77c-.73,1.67-2.14,3.81-3.77,4.48-1.11.46-2.55.29-4.13.29s-3-.06-4.41-.11c-3.07-.13-6.33-.06-8.78-.06-2.92,0-5.82-.24-8.72-.24s-5.9-.15-8.72-.35c-.68-1.45-.63-3.31-.82-5.13-.39-3.69-1.08-6.65-1.36-10.49-.11-1.49-.16-4.48.83-4.94a3.35,3.35,0,0,1,2.29.35c.78.31,1.55.47,2.18.71,4.1,1.51,8.45,3.28,12.55,4.65,4.34,1.45,8.59,2.91,12.9,4.36.72.24,1.46.49,2.18.71s1.43.67,2.18.41a7.58,7.58,0,0,0-.94-3.06c-.79-1.93-1.6-3.85-2.42-5.78-.41-1-.73-2-1.18-2.88a17.75,17.75,0,0,0-2.12-3.13,21,21,0,0,0-2.59-2.65c-4.69-2.17-10.47-.26-15.14.77a22.85,22.85,0,0,0-5.95,2c-1.52-.08-2.26.54-3.71.83-1,.19-2.55.32-3.06-.3s-.19-2.52-.06-3.41a21.34,21.34,0,0,1,1.65-5.95,10.08,10.08,0,0,1,1.18-2.6,6.34,6.34,0,0,1,1.53-.59,7.7,7.7,0,0,1,1.65-.47,9.46,9.46,0,0,1,2.83.65,51.85,51.85,0,0,1,6.89,3.36c2.26,1.19,4.45,2.28,7,3.3A11.75,11.75,0,0,0,68,373a9.55,9.55,0,0,0,5.89-.88A18.85,18.85,0,0,0,77,369.5c1-.91,2-2,2.88-2.83C81.94,364.77,83.67,362.65,85.63,360.6Z"/><path class="cls-5" d="M38.67,376.1a59,59,0,0,1,2.24,8.18,6.77,6.77,0,0,1,.41,2.77c-.58.46-1.4.21-2.06.18-9.56-.45-19.31-.86-28.69-1.53-.73-.05-1.5-.08-2.24-.12s-1.37-.28-1.94.12c0,.87.67,1.54,1.06,2.3s.8,1.48,1.18,2.23A36.16,36.16,0,0,0,11,394.65a11.52,11.52,0,0,0,3.54,2.77,14.11,14.11,0,0,0,1.94,1,11.24,11.24,0,0,0,2.36.77,16.35,16.35,0,0,0,2.36.06c1.13,0,2.48,0,3.53-.12a10,10,0,0,0,2.06-.77c.67-.26,1.33-.58,2-.82,3.52-1.39,5.33-3.67,8.54-5.48.52-.29,1.48-.93,1.88-.88s.74.78.95,1.41.51,1.18.64,1.65a27,27,0,0,1,.71,4.3,22.39,22.39,0,0,1,.59,4.3,9.26,9.26,0,0,1-3.24.06c-1.15,0-2.33-.12-3.54-.12-6.93,0-14.53.38-21.08.36-.76,0-1.56-.12-2.36-.12a7.89,7.89,0,0,1-3.54-.47,7.39,7.39,0,0,1-1.88-1.42c-1.06-1.06-2.07-1.84-2.24-3.71a43.34,43.34,0,0,1,.24-5.48c.2-4.32.32-9.12.53-13.61a6.52,6.52,0,0,1,.35-2.47,16.33,16.33,0,0,1,5.6.77c1.7.45,3.34,1,5,1.59,3.27,1.2,6.71,2.73,10.48,2.65,2.49-.06,4.52-1.51,6.31-2.6.72-.43,1.48-.88,2.24-1.35C36,376.22,37.31,374.79,38.67,376.1Z"/></g><path class="cls-4" d="M112.16,334.34V314.68h4.09l7.53,17.72h.6V314.68h2.16v19.66h-4l-7.64-17.73h-.54v17.73Z"/><path class="cls-4" d="M146.1,324.65c0,3.5-.55,6-1.67,7.61s-3.15,2.36-6.09,2.36-5-.8-6.09-2.41-1.68-4.14-1.68-7.6.57-6,1.7-7.7,3.16-2.51,6-2.51,4.92.83,6.07,2.5S146.1,321.15,146.1,324.65Zm-13.29,0q0,4.31,1.14,6.2t4.39,1.89q3.24,0,4.37-1.85t1.12-6.19q0-4.35-1.16-6.33t-4.36-2q-3.19,0-4.34,2T132.81,324.6Z"/><path class="cls-4" d="M152.15,328.43q0,4.26,4.61,4.26a5.51,5.51,0,0,0,3.59-1,4,4,0,0,0,1.2-3.25V314.68h2.16v13.69q0,3.3-1.74,4.77a7.8,7.8,0,0,1-5.16,1.48,7.63,7.63,0,0,1-5.12-1.48q-1.73-1.47-1.72-4.77V314.68h2.18Z"/><path class="cls-4" d="M170.59,326.81v7.53H168.4V314.68h7.27a6.71,6.71,0,0,1,4.7,1.45,5.87,5.87,0,0,1,1.58,4.52c0,3-1.21,4.93-3.61,5.7l3.78,8H179.7l-3.55-7.53Zm5.11-1.93q4,0,4-4.13t-4-4.14h-5.08v8.27Z"/><path class="cls-4" d="M188.08,326.81v7.53H185.9V314.68h7.27a6.71,6.71,0,0,1,4.7,1.45,5.86,5.86,0,0,1,1.57,4.52q0,4.55-3.6,5.7l3.78,8H197.2l-3.55-7.53Zm5.12-1.93q4,0,4-4.13t-4-4.14h-5.09v8.27Z"/><path class="cls-4" d="M203.39,334.34V314.68h2.19v19.66Z"/><path class="cls-4" d="M212.57,326.81v7.53h-2.19V314.68h7.27a6.71,6.71,0,0,1,4.7,1.45,5.87,5.87,0,0,1,1.58,4.52c0,3-1.21,4.93-3.61,5.7l3.78,8h-2.42l-3.55-7.53Zm5.11-1.93q4,0,4-4.13t-4-4.14h-5.08v8.27Z"/><path class="cls-4" d="M114.21,360c0,2.84,1.54,4.26,4.6,4.26a5.54,5.54,0,0,0,3.6-1,4,4,0,0,0,1.2-3.25V346.24h2.16v13.69c0,2.19-.58,3.79-1.75,4.77a9.67,9.67,0,0,1-10.28,0c-1.14-1-1.72-2.58-1.72-4.77V346.24h2.19Z"/><path class="cls-4" d="M130.46,365.89V346.24h4.08L142.07,364h.6V346.24h2.16v19.65h-4l-7.64-17.72h-.54v17.72Z"/><path class="cls-6" d="M156.48,365.89V340h7.31l5.79,20.26,5.8-20.26h7.34v25.94h-4.24V344.61h-.57l-6.13,20.22h-4.39l-6.14-20.22h-.57v21.28Z"/><path class="cls-6" d="M206.3,363.13q-2.34,3.18-8.2,3.18t-8.22-3.2q-2.34-3.19-2.35-10.05t2.37-10.19q2.37-3.33,8.2-3.33c3.89,0,6.61,1.1,8.18,3.31s2.35,5.61,2.35,10.21S207.85,361,206.3,363.13Zm-13.12-2.73q1.27,2.24,4.92,2.24c2.42,0,4.06-.73,4.9-2.2s1.27-3.92,1.27-7.36-.43-6-1.31-7.52-2.49-2.35-4.86-2.35-4,.78-4.89,2.35-1.32,4.06-1.32,7.48S192.32,358.91,193.18,360.4Z"/><path class="cls-6" d="M213.51,365.89V340h7.35l7.88,22.23h.56V340h4.21v25.94h-7.2l-8.06-22.26h-.53v22.26Z"/><path class="cls-6" d="M248.46,365.89h-9V340h9q6,0,8.18,3t2.2,9.51a30.51,30.51,0,0,1-.44,5.59,12.83,12.83,0,0,1-1.53,4.14Q254.71,365.9,248.46,365.89Zm6-13.4q0-4.69-1.17-6.78t-4.85-2.08h-4.77v18.55h4.77q3.75,0,5-2.76a10.91,10.91,0,0,0,.81-3A30.94,30.94,0,0,0,254.48,352.49Z"/><path class="cls-6" d="M263.76,365.89V340h16.36v3.68H268V351h9.88v3.64H268v7.57h12.15v3.71Z"/><path class="cls-4" d="M112,397.45V378h12.26v2.75h-9.11v5.51h7.41V389h-7.41v5.68h9.11v2.78Z"/><path class="cls-4" d="M127.7,397.45V378h5.51l5.91,16.67h.42V378h3.16v19.45h-5.4l-6.05-16.7h-.4v16.7Z"/><path class="cls-7" d="M169.41,397.07a31.69,31.69,0,0,1-6.63.8,12.77,12.77,0,0,1-4.72-.73,5.8,5.8,0,0,1-2.77-2.33,10,10,0,0,1-1.39-3.75,31.13,31.13,0,0,1-.39-5.41c0-4.56.65-7.74,1.93-9.53s3.65-2.69,7.1-2.69a30,30,0,0,1,6.91.94l-.14,3.81a40.28,40.28,0,0,0-5.71-.51,6.51,6.51,0,0,0-3.25.6,3.77,3.77,0,0,0-1.44,2.31,24.85,24.85,0,0,0-.47,5.8q0,4.1,1,5.67c.63,1.06,1.91,1.58,3.82,1.58a41.46,41.46,0,0,0,6.09-.48Z"/><path class="cls-7" d="M186.87,397.45v-9.79h-8.78v9.79H173.3V373.84h4.79v9.66h8.78v-9.66h4.79v23.61Z"/><path class="cls-7" d="M194.82,397.45l5.31-23.61h9.1l5.31,23.61h-4.79l-.94-4.27h-8.26l-.94,4.27Zm9-19.65L201.45,389h6.46l-2.4-11.22Z"/><path class="cls-7" d="M217.7,397.45V373.84h8.09l5.69,19.44h.35V373.84h4.79v23.61h-7.88L222.84,378h-.35v19.44Z"/><path class="cls-7" d="M251.58,389v-4.16h6.87v12.25a53.32,53.32,0,0,1-8,.8c-3.68,0-6.21-1-7.59-2.95s-2.06-5.09-2.06-9.38.72-7.37,2.15-9.26,3.88-2.85,7.33-2.85a36.33,36.33,0,0,1,7,.73l1.25.24-.14,3.72a63.2,63.2,0,0,0-6.82-.45,8,8,0,0,0-3.73.62,3.72,3.72,0,0,0-1.58,2.31,23,23,0,0,0-.5,5.76q0,4.08,1,5.71c.68,1.09,2.06,1.63,4.17,1.63l2.88-.14V389Z"/><path class="cls-7" d="M263,397.45V373.84h15.27V378H267.75v5.52h8.41v4.1h-8.41v5.65h10.49v4.17Z"/><path class="cls-7" d="M282.2,397.45V373.84h8.15l4.17,17.22,4.16-17.22h8.16v23.61h-4.79V379.19h-.52l-4.62,17.22h-4.79l-4.61-17.22H287v18.26Z"/><path class="cls-7" d="M312,397.45V373.84h15.27V378H316.77v5.52h8.4v4.1h-8.4v5.65h10.48v4.17Z"/><path class="cls-7" d="M331.21,397.45V373.84h8.09L345,393.28h.35V373.84h4.79v23.61h-7.88L336.35,378H336v19.44Z"/><path class="cls-7" d="M353.14,378.08v-4.24H370.5v4.24h-6.25v19.37h-4.79V378.08Z"/><rect class="cls-4" x="385.91" y="312.05" width="0.99" height="89.73"/><circle class="cls-6" cx="485.08" cy="333.32" r="22.19"/><polygon class="cls-5" points="466.06 344.75 485.08 380.38 505.1 342.89 466.06 344.75"/><circle class="cls-8" cx="485.08" cy="333.32" r="13.31"/></svg>