<svg id="Calque_1" data-name="Calque 1" xmlns="http://www.w3.org/2000/svg" viewBox="0 0 512 407"><defs><style>.cls-1{fill:#d0d0ce;}.cls-2{fill:#98bc62;}.cls-3{font-size:23.67px;font-family:TitilliumWeb-Regular, Titillium Web;}.cls-3,.cls-7{fill:#13322b;}.cls-4{letter-spacing:-0.01em;}.cls-5{letter-spacing:0em;}.cls-6,.cls-8{fill:#88b04b;}.cls-6{fill-rule:evenodd;}.cls-9{fill:#bfd833;}.cls-10{fill:#fff;}</style></defs><rect class="cls-1" x="64.48" y="97.38" width="3.94" height="3.94"/><rect class="cls-1" x="72.37" y="97.38" width="3.94" height="3.94"/><rect class="cls-1" x="64.48" y="89.5" width="3.94" height="3.94"/><rect class="cls-1" x="72.37" y="89.5" width="3.94" height="3.94"/><rect class="cls-1" x="72.37" y="105.27" width="3.94" height="3.94"/><rect class="cls-2" x="62.87" y="111.56" width="7.16" height="7.16"/><rect class="cls-1" x="72.37" y="113.16" width="3.94" height="3.94"/><rect class="cls-1" x="64.48" y="121.05" width="3.94" height="3.94"/><rect class="cls-1" x="72.37" y="121.05" width="3.94" height="3.94"/><rect class="cls-1" x="64.48" y="128.94" width="3.94" height="3.94"/><rect class="cls-1" x="72.37" y="128.94" width="3.94" height="3.94"/><rect class="cls-1" x="80.25" y="97.38" width="3.94" height="3.94"/><rect class="cls-1" x="80.25" y="105.27" width="3.94" height="3.94"/><rect class="cls-1" x="88.14" y="97.38" width="3.94" height="3.94"/><rect class="cls-1" x="80.25" y="89.5" width="3.94" height="3.94"/><rect class="cls-1" x="88.14" y="89.5" width="3.94" height="3.94"/><rect class="cls-1" x="88.14" y="105.27" width="3.94" height="3.94"/><rect class="cls-1" x="80.25" y="113.16" width="3.94" height="3.94"/><rect class="cls-1" x="88.14" y="113.16" width="3.94" height="3.94"/><rect class="cls-1" x="80.25" y="121.05" width="3.94" height="3.94"/><rect class="cls-1" x="88.14" y="121.05" width="3.94" height="3.94"/><rect class="cls-1" x="80.25" y="128.94" width="3.94" height="3.94"/><rect class="cls-1" x="88.14" y="128.94" width="3.94" height="3.94"/><rect class="cls-1" x="96.03" y="97.38" width="3.94" height="3.94"/><rect class="cls-1" x="96.03" y="89.5" width="3.94" height="3.94"/><rect class="cls-1" x="96.03" y="105.27" width="3.94" height="3.94"/><rect class="cls-1" x="96.03" y="113.16" width="3.94" height="3.94"/><rect class="cls-1" x="96.03" y="121.05" width="3.94" height="3.94"/><rect class="cls-1" x="96.03" y="128.94" width="3.94" height="3.94"/><rect class="cls-1" x="103.92" y="97.38" width="3.94" height="3.94"/><rect class="cls-1" x="103.92" y="105.27" width="3.94" height="3.94"/><rect class="cls-1" x="103.92" y="89.5" width="3.94" height="3.94"/><rect class="cls-1" x="111.81" y="89.5" width="3.94" height="3.94"/><rect class="cls-1" x="111.81" y="105.27" width="3.94" height="3.94"/><rect class="cls-1" x="103.92" y="113.16" width="3.94" height="3.94"/><rect class="cls-1" x="111.81" y="113.16" width="3.94" height="3.94"/><rect class="cls-1" x="103.92" y="121.05" width="3.94" height="3.94"/><rect class="cls-1" x="111.81" y="121.05" width="3.94" height="3.94"/><rect class="cls-1" x="103.92" y="128.94" width="3.94" height="3.94"/><rect class="cls-1" x="111.81" y="128.94" width="3.94" height="3.94"/><rect class="cls-1" x="9.26" y="81.61" width="3.94" height="3.94"/><rect class="cls-1" x="17.14" y="81.61" width="3.94" height="3.94"/><rect class="cls-1" x="32.92" y="50.05" width="3.94" height="3.94"/><rect class="cls-1" x="25.03" y="42.16" width="3.94" height="3.94"/><rect class="cls-1" x="32.92" y="57.94" width="3.94" height="3.94"/><rect class="cls-1" x="32.92" y="65.83" width="3.94" height="3.94"/><rect class="cls-1" x="25.03" y="73.72" width="3.94" height="3.94"/><rect class="cls-1" x="32.92" y="73.72" width="3.94" height="3.94"/><rect class="cls-1" x="40.81" y="50.05" width="3.94" height="3.94"/><rect class="cls-1" x="40.81" y="42.16" width="3.94" height="3.94"/><rect class="cls-1" x="40.81" y="57.94" width="3.94" height="3.94"/><rect class="cls-1" x="40.81" y="65.83" width="3.94" height="3.94"/><rect class="cls-1" x="48.7" y="50.05" width="3.94" height="3.94"/><rect class="cls-1" x="48.7" y="57.94" width="3.94" height="3.94"/><rect class="cls-1" x="56.59" y="50.05" width="3.94" height="3.94"/><rect class="cls-1" x="48.7" y="42.16" width="3.94" height="3.94"/><rect class="cls-1" x="56.59" y="42.16" width="3.94" height="3.94"/><rect class="cls-1" x="56.59" y="57.94" width="3.94" height="3.94"/><rect class="cls-1" x="56.59" y="65.83" width="3.94" height="3.94"/><rect class="cls-1" x="64.48" y="50.05" width="3.94" height="3.94"/><rect class="cls-1" x="64.48" y="57.94" width="3.94" height="3.94"/><rect class="cls-1" x="72.37" y="50.05" width="3.94" height="3.94"/><rect class="cls-1" x="64.48" y="42.16" width="3.94" height="3.94"/><rect class="cls-1" x="72.37" y="42.16" width="3.94" height="3.94"/><rect class="cls-1" x="72.37" y="57.94" width="3.94" height="3.94"/><rect class="cls-1" x="64.48" y="65.83" width="3.94" height="3.94"/><rect class="cls-1" x="72.37" y="65.83" width="3.94" height="3.94"/><rect class="cls-1" x="64.48" y="73.72" width="3.94" height="3.94"/><rect class="cls-1" x="72.37" y="73.72" width="3.94" height="3.94"/><rect class="cls-1" x="64.48" y="81.61" width="3.94" height="3.94"/><rect class="cls-1" x="72.37" y="81.61" width="3.94" height="3.94"/><rect class="cls-1" x="80.25" y="50.05" width="3.94" height="3.94"/><rect class="cls-1" x="80.25" y="57.94" width="3.94" height="3.94"/><rect class="cls-1" x="80.25" y="42.16" width="3.94" height="3.94"/><rect class="cls-1" x="88.14" y="42.16" width="3.94" height="3.94"/><rect class="cls-1" x="88.14" y="57.94" width="3.94" height="3.94"/><rect class="cls-1" x="80.25" y="65.83" width="3.94" height="3.94"/><rect class="cls-1" x="88.14" y="65.83" width="3.94" height="3.94"/><rect class="cls-1" x="80.25" y="73.72" width="3.94" height="3.94"/><rect class="cls-1" x="88.14" y="73.72" width="3.94" height="3.94"/><rect class="cls-1" x="80.25" y="81.61" width="3.94" height="3.94"/><rect class="cls-1" x="88.14" y="81.61" width="3.94" height="3.94"/><rect class="cls-1" x="96.03" y="50.05" width="3.94" height="3.94"/><rect class="cls-1" x="96.03" y="42.16" width="3.94" height="3.94"/><rect class="cls-1" x="96.03" y="57.94" width="3.94" height="3.94"/><rect class="cls-1" x="96.03" y="73.72" width="3.94" height="3.94"/><rect class="cls-1" x="96.03" y="81.61" width="3.94" height="3.94"/><rect class="cls-1" x="103.92" y="50.05" width="3.94" height="3.94"/><rect class="cls-1" x="103.92" y="57.94" width="3.94" height="3.94"/><rect class="cls-1" x="103.92" y="42.16" width="3.94" height="3.94"/><rect class="cls-1" x="111.81" y="42.16" width="3.94" height="3.94"/><rect class="cls-1" x="111.81" y="57.94" width="3.94" height="3.94"/><rect class="cls-1" x="103.92" y="65.83" width="3.94" height="3.94"/><rect class="cls-1" x="111.81" y="65.83" width="3.94" height="3.94"/><rect class="cls-1" x="103.92" y="73.72" width="3.94" height="3.94"/><rect class="cls-1" x="111.81" y="73.72" width="3.94" height="3.94"/><rect class="cls-1" x="103.92" y="81.61" width="3.94" height="3.94"/><rect class="cls-1" x="111.81" y="81.61" width="3.94" height="3.94"/><rect class="cls-1" x="119.7" y="97.38" width="3.94" height="3.94"/><rect class="cls-1" x="127.59" y="97.38" width="3.94" height="3.94"/><rect class="cls-1" x="119.7" y="89.5" width="3.94" height="3.94"/><rect class="cls-1" x="127.59" y="89.5" width="3.94" height="3.94"/><rect class="cls-1" x="127.59" y="105.27" width="3.94" height="3.94"/><rect class="cls-1" x="119.7" y="113.16" width="3.94" height="3.94"/><rect class="cls-1" x="119.7" y="121.05" width="3.94" height="3.94"/><rect class="cls-1" x="127.59" y="121.05" width="3.94" height="3.94"/><rect class="cls-1" x="119.7" y="128.94" width="3.94" height="3.94"/><rect class="cls-1" x="127.59" y="128.94" width="3.94" height="3.94"/><rect class="cls-1" x="135.47" y="97.38" width="3.94" height="3.94"/><rect class="cls-1" x="135.47" y="105.27" width="3.94" height="3.94"/><rect class="cls-1" x="143.36" y="97.38" width="3.94" height="3.94"/><rect class="cls-1" x="143.36" y="89.5" width="3.94" height="3.94"/><rect class="cls-1" x="143.36" y="105.27" width="3.94" height="3.94"/><rect class="cls-1" x="135.47" y="113.16" width="3.94" height="3.94"/><rect class="cls-1" x="143.36" y="113.16" width="3.94" height="3.94"/><rect class="cls-1" x="135.47" y="121.05" width="3.94" height="3.94"/><rect class="cls-1" x="143.36" y="121.05" width="3.94" height="3.94"/><rect class="cls-2" x="133.87" y="127.33" width="7.16" height="7.16"/><rect class="cls-1" x="151.25" y="97.38" width="3.94" height="3.94"/><rect class="cls-1" x="151.25" y="89.5" width="3.94" height="3.94"/><rect class="cls-1" x="151.25" y="113.16" width="3.94" height="3.94"/><rect class="cls-1" x="159.14" y="97.38" width="3.94" height="3.94"/><rect class="cls-1" x="159.14" y="105.27" width="3.94" height="3.94"/><rect class="cls-1" x="167.03" y="97.38" width="3.94" height="3.94"/><rect class="cls-1" x="159.14" y="89.5" width="3.94" height="3.94"/><rect class="cls-1" x="167.03" y="105.27" width="3.94" height="3.94"/><rect class="cls-1" x="72.37" y="144.72" width="3.94" height="3.94"/><rect class="cls-1" x="72.37" y="136.83" width="3.94" height="3.94"/><rect class="cls-1" x="80.25" y="152.61" width="3.94" height="3.94"/><rect class="cls-1" x="88.14" y="144.72" width="3.94" height="3.94"/><rect class="cls-1" x="80.25" y="136.83" width="3.94" height="3.94"/><rect class="cls-1" x="88.14" y="136.83" width="3.94" height="3.94"/><rect class="cls-1" x="88.14" y="152.61" width="3.94" height="3.94"/><rect class="cls-1" x="88.14" y="160.49" width="3.94" height="3.94"/><rect class="cls-1" x="96.03" y="144.72" width="3.94" height="3.94"/><rect class="cls-1" x="96.03" y="136.83" width="3.94" height="3.94"/><rect class="cls-1" x="96.03" y="152.61" width="3.94" height="3.94"/><rect class="cls-1" x="96.03" y="160.49" width="3.94" height="3.94"/><rect class="cls-1" x="103.92" y="136.83" width="3.94" height="3.94"/><rect class="cls-1" x="111.81" y="136.83" width="3.94" height="3.94"/><rect class="cls-1" x="103.92" y="160.49" width="3.94" height="3.94"/><rect class="cls-1" x="111.81" y="160.49" width="3.94" height="3.94"/><rect class="cls-1" x="103.92" y="168.38" width="3.94" height="3.94"/><rect class="cls-1" x="111.81" y="168.38" width="3.94" height="3.94"/><rect class="cls-1" x="119.7" y="144.72" width="3.94" height="3.94"/><rect class="cls-1" x="119.7" y="152.61" width="3.94" height="3.94"/><rect class="cls-1" x="119.7" y="136.83" width="3.94" height="3.94"/><rect class="cls-1" x="127.59" y="136.83" width="3.94" height="3.94"/><rect class="cls-1" x="127.59" y="152.61" width="3.94" height="3.94"/><rect class="cls-1" x="127.59" y="160.49" width="3.94" height="3.94"/><rect class="cls-1" x="119.7" y="168.38" width="3.94" height="3.94"/><rect class="cls-1" x="119.7" y="176.27" width="3.94" height="3.94"/><rect class="cls-1" x="127.59" y="176.27" width="3.94" height="3.94"/><rect class="cls-1" x="135.47" y="160.49" width="3.94" height="3.94"/><rect class="cls-1" x="143.36" y="160.49" width="3.94" height="3.94"/><rect class="cls-1" x="135.47" y="176.27" width="3.94" height="3.94"/><rect class="cls-1" x="143.36" y="176.27" width="3.94" height="3.94"/><rect class="cls-1" x="151.25" y="176.27" width="3.94" height="3.94"/><rect class="cls-1" x="159.14" y="176.27" width="3.94" height="3.94"/><rect class="cls-2" x="220.64" y="143.11" width="7.16" height="7.16"/><rect class="cls-1" x="222.25" y="152.61" width="3.94" height="3.94"/><rect class="cls-1" x="214.36" y="160.49" width="3.94" height="3.94"/><rect class="cls-1" x="222.25" y="160.49" width="3.94" height="3.94"/><rect class="cls-1" x="214.36" y="168.38" width="3.94" height="3.94"/><rect class="cls-1" x="222.25" y="168.38" width="3.94" height="3.94"/><rect class="cls-1" x="222.25" y="176.27" width="3.94" height="3.94"/><rect class="cls-1" x="119.7" y="50.05" width="3.94" height="3.94"/><rect class="cls-1" x="119.7" y="57.94" width="3.94" height="3.94"/><rect class="cls-1" x="127.59" y="50.05" width="3.94" height="3.94"/><rect class="cls-1" x="127.59" y="42.16" width="3.94" height="3.94"/><rect class="cls-1" x="127.59" y="57.94" width="3.94" height="3.94"/><rect class="cls-1" x="119.7" y="65.83" width="3.94" height="3.94"/><rect class="cls-1" x="127.59" y="65.83" width="3.94" height="3.94"/><rect class="cls-1" x="119.7" y="73.72" width="3.94" height="3.94"/><rect class="cls-1" x="119.7" y="81.61" width="3.94" height="3.94"/><rect class="cls-1" x="135.47" y="57.94" width="3.94" height="3.94"/><rect class="cls-1" x="143.36" y="50.05" width="3.94" height="3.94"/><rect class="cls-1" x="135.47" y="42.16" width="3.94" height="3.94"/><rect class="cls-1" x="143.36" y="42.16" width="3.94" height="3.94"/><rect class="cls-1" x="135.47" y="65.83" width="3.94" height="3.94"/><rect class="cls-1" x="143.36" y="65.83" width="3.94" height="3.94"/><rect class="cls-1" x="143.36" y="73.72" width="3.94" height="3.94"/><rect class="cls-1" x="143.36" y="81.61" width="3.94" height="3.94"/><rect class="cls-1" x="151.25" y="50.05" width="3.94" height="3.94"/><rect class="cls-1" x="151.25" y="42.16" width="3.94" height="3.94"/><rect class="cls-1" x="151.25" y="57.94" width="3.94" height="3.94"/><rect class="cls-1" x="151.25" y="65.83" width="3.94" height="3.94"/><rect class="cls-1" x="151.25" y="81.61" width="3.94" height="3.94"/><rect class="cls-1" x="159.14" y="50.05" width="3.94" height="3.94"/><rect class="cls-1" x="159.14" y="57.94" width="3.94" height="3.94"/><rect class="cls-1" x="159.14" y="65.83" width="3.94" height="3.94"/><rect class="cls-2" x="157.53" y="72.11" width="7.16" height="7.16"/><rect class="cls-1" x="159.14" y="81.61" width="3.94" height="3.94"/><rect class="cls-1" x="182.81" y="50.05" width="3.94" height="3.94"/><rect class="cls-1" x="182.81" y="42.16" width="3.94" height="3.94"/><rect class="cls-1" x="182.81" y="57.94" width="3.94" height="3.94"/><rect class="cls-1" x="174.92" y="65.83" width="3.94" height="3.94"/><rect class="cls-1" x="182.81" y="65.83" width="3.94" height="3.94"/><rect class="cls-1" x="174.92" y="73.72" width="3.94" height="3.94"/><rect class="cls-1" x="182.81" y="73.72" width="3.94" height="3.94"/><rect class="cls-1" x="182.81" y="81.61" width="3.94" height="3.94"/><rect class="cls-1" x="190.7" y="50.05" width="3.94" height="3.94"/><rect class="cls-1" x="190.7" y="57.94" width="3.94" height="3.94"/><rect class="cls-1" x="198.58" y="50.05" width="3.94" height="3.94"/><rect class="cls-1" x="190.7" y="42.16" width="3.94" height="3.94"/><rect class="cls-1" x="198.58" y="42.16" width="3.94" height="3.94"/><rect class="cls-1" x="198.58" y="57.94" width="3.94" height="3.94"/><rect class="cls-1" x="190.7" y="65.83" width="3.94" height="3.94"/><rect class="cls-1" x="198.58" y="65.83" width="3.94" height="3.94"/><rect class="cls-1" x="190.7" y="73.72" width="3.94" height="3.94"/><rect class="cls-1" x="206.47" y="50.05" width="3.94" height="3.94"/><rect class="cls-1" x="206.47" y="42.16" width="3.94" height="3.94"/><rect class="cls-1" x="206.47" y="57.94" width="3.94" height="3.94"/><rect class="cls-1" x="214.36" y="50.05" width="3.94" height="3.94"/><rect class="cls-1" x="214.36" y="57.94" width="3.94" height="3.94"/><rect class="cls-1" x="222.25" y="42.16" width="3.94" height="3.94"/><rect class="cls-1" x="214.36" y="73.72" width="3.94" height="3.94"/><rect class="cls-1" x="222.25" y="73.72" width="3.94" height="3.94"/><rect class="cls-1" x="222.25" y="65.83" width="3.94" height="3.94"/><rect class="cls-1" x="32.92" y="34.28" width="3.94" height="3.94"/><rect class="cls-1" x="40.81" y="34.28" width="3.94" height="3.94"/><rect class="cls-1" x="48.7" y="26.39" width="3.94" height="3.94"/><rect class="cls-1" x="56.59" y="26.39" width="3.94" height="3.94"/><rect class="cls-1" x="48.7" y="34.28" width="3.94" height="3.94"/><rect class="cls-1" x="56.59" y="34.28" width="3.94" height="3.94"/><rect class="cls-1" x="64.48" y="26.39" width="3.94" height="3.94"/><rect class="cls-1" x="64.48" y="34.28" width="3.94" height="3.94"/><rect class="cls-1" x="72.37" y="34.28" width="3.94" height="3.94"/><rect class="cls-1" x="80.25" y="34.28" width="3.94" height="3.94"/><rect class="cls-1" x="111.81" y="18.5" width="3.94" height="3.94"/><rect class="cls-1" x="103.92" y="26.39" width="3.94" height="3.94"/><rect class="cls-1" x="111.81" y="26.39" width="3.94" height="3.94"/><rect class="cls-1" x="103.92" y="34.28" width="3.94" height="3.94"/><rect class="cls-1" x="111.81" y="34.28" width="3.94" height="3.94"/><rect class="cls-1" x="119.7" y="10.61" width="3.94" height="3.94"/><rect class="cls-1" x="127.59" y="10.61" width="3.94" height="3.94"/><rect class="cls-1" x="119.7" y="18.5" width="3.94" height="3.94"/><rect class="cls-1" x="127.59" y="18.5" width="3.94" height="3.94"/><rect class="cls-1" x="119.7" y="34.28" width="3.94" height="3.94"/><rect class="cls-1" x="127.59" y="34.28" width="3.94" height="3.94"/><rect class="cls-1" x="143.36" y="10.61" width="3.94" height="3.94"/><rect class="cls-1" x="143.36" y="18.5" width="3.94" height="3.94"/><rect class="cls-1" x="135.47" y="26.39" width="3.94" height="3.94"/><rect class="cls-1" x="143.36" y="26.39" width="3.94" height="3.94"/><rect class="cls-1" x="135.47" y="34.28" width="3.94" height="3.94"/><rect class="cls-1" x="151.25" y="10.61" width="3.94" height="3.94"/><rect class="cls-1" x="151.25" y="26.39" width="3.94" height="3.94"/><rect class="cls-1" x="151.25" y="34.28" width="3.94" height="3.94"/><rect class="cls-1" x="159.14" y="2.72" width="3.94" height="3.94"/><rect class="cls-1" x="159.14" y="10.61" width="3.94" height="3.94"/><rect class="cls-1" x="167.03" y="2.72" width="3.94" height="3.94"/><rect class="cls-1" x="167.03" y="10.61" width="3.94" height="3.94"/><rect class="cls-1" x="159.14" y="18.5" width="3.94" height="3.94"/><rect class="cls-1" x="159.14" y="26.39" width="3.94" height="3.94"/><rect class="cls-1" x="167.03" y="26.39" width="3.94" height="3.94"/><rect class="cls-1" x="174.92" y="2.72" width="3.94" height="3.94"/><rect class="cls-1" x="182.81" y="2.72" width="3.94" height="3.94"/><rect class="cls-1" x="182.81" y="10.61" width="3.94" height="3.94"/><rect class="cls-1" x="174.92" y="18.5" width="3.94" height="3.94"/><rect class="cls-1" x="182.81" y="18.5" width="3.94" height="3.94"/><rect class="cls-1" x="174.92" y="26.39" width="3.94" height="3.94"/><rect class="cls-1" x="182.81" y="26.39" width="3.94" height="3.94"/><rect class="cls-1" x="174.92" y="34.28" width="3.94" height="3.94"/><rect class="cls-1" x="182.81" y="34.28" width="3.94" height="3.94"/><rect class="cls-1" x="190.7" y="10.61" width="3.94" height="3.94"/><rect class="cls-1" x="198.58" y="10.61" width="3.94" height="3.94"/><rect class="cls-1" x="190.7" y="18.5" width="3.94" height="3.94"/><rect class="cls-1" x="198.58" y="18.5" width="3.94" height="3.94"/><rect class="cls-1" x="190.7" y="26.39" width="3.94" height="3.94"/><rect class="cls-1" x="198.58" y="26.39" width="3.94" height="3.94"/><rect class="cls-1" x="190.7" y="34.28" width="3.94" height="3.94"/><rect class="cls-1" x="198.58" y="34.28" width="3.94" height="3.94"/><rect class="cls-1" x="206.47" y="2.72" width="3.94" height="3.94"/><rect class="cls-1" x="206.47" y="10.61" width="3.94" height="3.94"/><rect class="cls-1" x="206.47" y="18.5" width="3.94" height="3.94"/><rect class="cls-1" x="206.47" y="26.39" width="3.94" height="3.94"/><rect class="cls-1" x="206.47" y="34.28" width="3.94" height="3.94"/><rect class="cls-1" x="214.36" y="2.72" width="3.94" height="3.94"/><rect class="cls-1" x="222.25" y="10.61" width="3.94" height="3.94"/><rect class="cls-1" x="214.36" y="18.5" width="3.94" height="3.94"/><rect class="cls-1" x="222.25" y="18.5" width="3.94" height="3.94"/><rect class="cls-1" x="214.36" y="26.39" width="3.94" height="3.94"/><rect class="cls-1" x="222.25" y="26.39" width="3.94" height="3.94"/><rect class="cls-1" x="214.36" y="34.28" width="3.94" height="3.94"/><rect class="cls-1" x="222.25" y="34.28" width="3.94" height="3.94"/><rect class="cls-1" x="230.14" y="97.38" width="3.94" height="3.94"/><rect class="cls-1" x="230.14" y="105.27" width="3.94" height="3.94"/><rect class="cls-1" x="238.03" y="97.38" width="3.94" height="3.94"/><rect class="cls-1" x="238.03" y="89.5" width="3.94" height="3.94"/><rect class="cls-1" x="238.03" y="105.27" width="3.94" height="3.94"/><rect class="cls-1" x="238.03" y="113.16" width="3.94" height="3.94"/><rect class="cls-1" x="230.14" y="121.05" width="3.94" height="3.94"/><rect class="cls-1" x="238.03" y="121.05" width="3.94" height="3.94"/><rect class="cls-1" x="230.14" y="128.94" width="3.94" height="3.94"/><rect class="cls-1" x="245.92" y="105.27" width="3.94" height="3.94"/><rect class="cls-1" x="253.8" y="97.38" width="3.94" height="3.94"/><rect class="cls-1" x="253.8" y="105.27" width="3.94" height="3.94"/><rect class="cls-1" x="245.92" y="113.16" width="3.94" height="3.94"/><rect class="cls-1" x="253.8" y="113.16" width="3.94" height="3.94"/><rect class="cls-1" x="245.92" y="121.05" width="3.94" height="3.94"/><rect class="cls-1" x="253.8" y="128.94" width="3.94" height="3.94"/><rect class="cls-1" x="261.69" y="97.38" width="3.94" height="3.94"/><rect class="cls-2" x="260.09" y="103.67" width="7.16" height="7.16"/><rect class="cls-1" x="269.58" y="97.38" width="3.94" height="3.94"/><rect class="cls-1" x="269.58" y="89.5" width="3.94" height="3.94"/><rect class="cls-1" x="269.58" y="105.27" width="3.94" height="3.94"/><rect class="cls-1" x="261.69" y="113.16" width="3.94" height="3.94"/><rect class="cls-1" x="269.58" y="113.16" width="3.94" height="3.94"/><rect class="cls-1" x="261.69" y="121.05" width="3.94" height="3.94"/><rect class="cls-1" x="269.58" y="121.05" width="3.94" height="3.94"/><rect class="cls-1" x="261.69" y="128.94" width="3.94" height="3.94"/><rect class="cls-1" x="277.47" y="97.38" width="3.94" height="3.94"/><rect class="cls-1" x="277.47" y="89.5" width="3.94" height="3.94"/><rect class="cls-1" x="277.47" y="105.27" width="3.94" height="3.94"/><rect class="cls-1" x="277.47" y="113.16" width="3.94" height="3.94"/><rect class="cls-1" x="277.47" y="121.05" width="3.94" height="3.94"/><rect class="cls-1" x="285.36" y="97.38" width="3.94" height="3.94"/><rect class="cls-1" x="285.36" y="105.27" width="3.94" height="3.94"/><rect class="cls-1" x="293.25" y="97.38" width="3.94" height="3.94"/><rect class="cls-1" x="285.36" y="89.5" width="3.94" height="3.94"/><rect class="cls-1" x="293.25" y="89.5" width="3.94" height="3.94"/><rect class="cls-1" x="293.25" y="105.27" width="3.94" height="3.94"/><rect class="cls-1" x="285.36" y="113.16" width="3.94" height="3.94"/><rect class="cls-1" x="293.25" y="113.16" width="3.94" height="3.94"/><rect class="cls-1" x="285.36" y="128.94" width="3.94" height="3.94"/><rect class="cls-1" x="293.25" y="128.94" width="3.94" height="3.94"/><rect class="cls-1" x="253.8" y="73.72" width="3.94" height="3.94"/><rect class="cls-1" x="253.8" y="81.61" width="3.94" height="3.94"/><rect class="cls-1" x="269.58" y="57.94" width="3.94" height="3.94"/><rect class="cls-1" x="261.69" y="65.83" width="3.94" height="3.94"/><rect class="cls-1" x="269.58" y="65.83" width="3.94" height="3.94"/><rect class="cls-1" x="261.69" y="73.72" width="3.94" height="3.94"/><rect class="cls-1" x="261.69" y="81.61" width="3.94" height="3.94"/><rect class="cls-1" x="277.47" y="57.94" width="3.94" height="3.94"/><rect class="cls-1" x="277.47" y="65.83" width="3.94" height="3.94"/><rect class="cls-1" x="277.47" y="73.72" width="3.94" height="3.94"/><rect class="cls-1" x="277.47" y="81.61" width="3.94" height="3.94"/><rect class="cls-1" x="285.36" y="65.83" width="3.94" height="3.94"/><rect class="cls-1" x="293.25" y="65.83" width="3.94" height="3.94"/><rect class="cls-1" x="285.36" y="73.72" width="3.94" height="3.94"/><rect class="cls-1" x="293.25" y="73.72" width="3.94" height="3.94"/><rect class="cls-1" x="285.36" y="81.61" width="3.94" height="3.94"/><rect class="cls-1" x="293.25" y="81.61" width="3.94" height="3.94"/><rect class="cls-1" x="301.14" y="97.38" width="3.94" height="3.94"/><rect class="cls-1" x="301.14" y="105.27" width="3.94" height="3.94"/><rect class="cls-1" x="309.02" y="97.38" width="3.94" height="3.94"/><rect class="cls-1" x="301.14" y="89.5" width="3.94" height="3.94"/><rect class="cls-1" x="309.02" y="89.5" width="3.94" height="3.94"/><rect class="cls-1" x="309.02" y="105.27" width="3.94" height="3.94"/><rect class="cls-1" x="301.14" y="113.16" width="3.94" height="3.94"/><rect class="cls-1" x="301.14" y="121.05" width="3.94" height="3.94"/><rect class="cls-1" x="309.02" y="121.05" width="3.94" height="3.94"/><rect class="cls-1" x="301.14" y="128.94" width="3.94" height="3.94"/><rect class="cls-1" x="309.02" y="128.94" width="3.94" height="3.94"/><rect class="cls-1" x="316.91" y="97.38" width="3.94" height="3.94"/><rect class="cls-1" x="316.91" y="105.27" width="3.94" height="3.94"/><rect class="cls-1" x="324.8" y="97.38" width="3.94" height="3.94"/><rect class="cls-1" x="316.91" y="89.5" width="3.94" height="3.94"/><rect class="cls-1" x="324.8" y="89.5" width="3.94" height="3.94"/><rect class="cls-1" x="324.8" y="105.27" width="3.94" height="3.94"/><rect class="cls-2" x="315.31" y="111.56" width="7.16" height="7.16"/><rect class="cls-1" x="324.8" y="113.16" width="3.94" height="3.94"/><rect class="cls-1" x="324.8" y="121.05" width="3.94" height="3.94"/><rect class="cls-1" x="324.8" y="128.94" width="3.94" height="3.94"/><rect class="cls-1" x="332.69" y="97.38" width="3.94" height="3.94"/><rect class="cls-1" x="332.69" y="89.5" width="3.94" height="3.94"/><rect class="cls-1" x="332.69" y="105.27" width="3.94" height="3.94"/><rect class="cls-1" x="332.69" y="113.16" width="3.94" height="3.94"/><rect class="cls-1" x="332.69" y="121.05" width="3.94" height="3.94"/><rect class="cls-1" x="332.69" y="128.94" width="3.94" height="3.94"/><rect class="cls-1" x="340.58" y="97.38" width="3.94" height="3.94"/><rect class="cls-1" x="340.58" y="105.27" width="3.94" height="3.94"/><rect class="cls-1" x="348.47" y="97.38" width="3.94" height="3.94"/><rect class="cls-1" x="340.58" y="89.5" width="3.94" height="3.94"/><rect class="cls-1" x="348.47" y="89.5" width="3.94" height="3.94"/><rect class="cls-1" x="348.47" y="105.27" width="3.94" height="3.94"/><rect class="cls-1" x="340.58" y="113.16" width="3.94" height="3.94"/><rect class="cls-1" x="348.47" y="113.16" width="3.94" height="3.94"/><rect class="cls-1" x="340.58" y="121.05" width="3.94" height="3.94"/><rect class="cls-1" x="348.47" y="121.05" width="3.94" height="3.94"/><rect class="cls-1" x="340.58" y="128.94" width="3.94" height="3.94"/><rect class="cls-1" x="348.47" y="128.94" width="3.94" height="3.94"/><rect class="cls-1" x="356.36" y="97.38" width="3.94" height="3.94"/><rect class="cls-1" x="356.36" y="105.27" width="3.94" height="3.94"/><rect class="cls-1" x="364.24" y="97.38" width="3.94" height="3.94"/><rect class="cls-1" x="356.36" y="89.5" width="3.94" height="3.94"/><rect class="cls-1" x="364.24" y="89.5" width="3.94" height="3.94"/><rect class="cls-1" x="364.24" y="105.27" width="3.94" height="3.94"/><rect class="cls-1" x="356.36" y="113.16" width="3.94" height="3.94"/><rect class="cls-1" x="364.24" y="113.16" width="3.94" height="3.94"/><rect class="cls-1" x="356.36" y="121.05" width="3.94" height="3.94"/><rect class="cls-1" x="364.24" y="121.05" width="3.94" height="3.94"/><rect class="cls-1" x="356.36" y="128.94" width="3.94" height="3.94"/><rect class="cls-1" x="364.24" y="128.94" width="3.94" height="3.94"/><rect class="cls-1" x="372.13" y="97.38" width="3.94" height="3.94"/><rect class="cls-1" x="372.13" y="105.27" width="3.94" height="3.94"/><rect class="cls-1" x="380.02" y="97.38" width="3.94" height="3.94"/><rect class="cls-1" x="372.13" y="89.5" width="3.94" height="3.94"/><rect class="cls-1" x="380.02" y="89.5" width="3.94" height="3.94"/><rect class="cls-1" x="380.02" y="105.27" width="3.94" height="3.94"/><rect class="cls-1" x="372.13" y="113.16" width="3.94" height="3.94"/><rect class="cls-1" x="380.02" y="113.16" width="3.94" height="3.94"/><rect class="cls-1" x="372.13" y="121.05" width="3.94" height="3.94"/><rect class="cls-1" x="380.02" y="121.05" width="3.94" height="3.94"/><rect class="cls-1" x="372.13" y="128.94" width="3.94" height="3.94"/><rect class="cls-1" x="380.02" y="128.94" width="3.94" height="3.94"/><rect class="cls-1" x="387.91" y="97.38" width="3.94" height="3.94"/><rect class="cls-1" x="387.91" y="105.27" width="3.94" height="3.94"/><rect class="cls-1" x="387.91" y="113.16" width="3.94" height="3.94"/><rect class="cls-1" x="387.91" y="121.05" width="3.94" height="3.94"/><rect class="cls-1" x="387.91" y="128.94" width="3.94" height="3.94"/><rect class="cls-1" x="395.8" y="97.38" width="3.94" height="3.94"/><rect class="cls-1" x="395.8" y="105.27" width="3.94" height="3.94"/><rect class="cls-1" x="403.69" y="97.38" width="3.94" height="3.94"/><rect class="cls-1" x="395.8" y="89.5" width="3.94" height="3.94"/><rect class="cls-1" x="403.69" y="89.5" width="3.94" height="3.94"/><rect class="cls-1" x="403.69" y="105.27" width="3.94" height="3.94"/><rect class="cls-1" x="395.8" y="113.16" width="3.94" height="3.94"/><rect class="cls-1" x="403.69" y="113.16" width="3.94" height="3.94"/><rect class="cls-1" x="395.8" y="121.05" width="3.94" height="3.94"/><rect class="cls-1" x="403.69" y="121.05" width="3.94" height="3.94"/><rect class="cls-1" x="395.8" y="128.94" width="3.94" height="3.94"/><rect class="cls-1" x="403.69" y="128.94" width="3.94" height="3.94"/><rect class="cls-1" x="230.14" y="144.72" width="3.94" height="3.94"/><rect class="cls-1" x="230.14" y="152.61" width="3.94" height="3.94"/><rect class="cls-1" x="238.03" y="144.72" width="3.94" height="3.94"/><rect class="cls-1" x="238.03" y="136.83" width="3.94" height="3.94"/><rect class="cls-1" x="238.03" y="152.61" width="3.94" height="3.94"/><rect class="cls-1" x="230.14" y="160.49" width="3.94" height="3.94"/><rect class="cls-1" x="238.03" y="160.49" width="3.94" height="3.94"/><rect class="cls-1" x="230.14" y="168.38" width="3.94" height="3.94"/><rect class="cls-1" x="238.03" y="168.38" width="3.94" height="3.94"/><rect class="cls-1" x="230.14" y="176.27" width="3.94" height="3.94"/><rect class="cls-1" x="238.03" y="176.27" width="3.94" height="3.94"/><rect class="cls-1" x="245.92" y="144.72" width="3.94" height="3.94"/><rect class="cls-1" x="245.92" y="152.61" width="3.94" height="3.94"/><rect class="cls-1" x="253.8" y="144.72" width="3.94" height="3.94"/><rect class="cls-1" x="245.92" y="136.83" width="3.94" height="3.94"/><rect class="cls-1" x="253.8" y="136.83" width="3.94" height="3.94"/><rect class="cls-1" x="253.8" y="152.61" width="3.94" height="3.94"/><rect class="cls-1" x="245.92" y="160.49" width="3.94" height="3.94"/><rect class="cls-1" x="253.8" y="160.49" width="3.94" height="3.94"/><rect class="cls-1" x="245.92" y="168.38" width="3.94" height="3.94"/><rect class="cls-1" x="253.8" y="168.38" width="3.94" height="3.94"/><rect class="cls-1" x="245.92" y="176.27" width="3.94" height="3.94"/><rect class="cls-1" x="253.8" y="176.27" width="3.94" height="3.94"/><rect class="cls-1" x="261.69" y="144.72" width="3.94" height="3.94"/><rect class="cls-1" x="261.69" y="152.61" width="3.94" height="3.94"/><rect class="cls-1" x="269.58" y="144.72" width="3.94" height="3.94"/><rect class="cls-1" x="261.69" y="136.83" width="3.94" height="3.94"/><rect class="cls-1" x="269.58" y="152.61" width="3.94" height="3.94"/><rect class="cls-1" x="261.69" y="160.49" width="3.94" height="3.94"/><rect class="cls-1" x="269.58" y="160.49" width="3.94" height="3.94"/><rect class="cls-1" x="261.69" y="168.38" width="3.94" height="3.94"/><rect class="cls-1" x="269.58" y="168.38" width="3.94" height="3.94"/><rect class="cls-1" x="261.69" y="176.27" width="3.94" height="3.94"/><rect class="cls-1" x="269.58" y="176.27" width="3.94" height="3.94"/><rect class="cls-1" x="277.47" y="144.72" width="3.94" height="3.94"/><rect class="cls-1" x="277.47" y="136.83" width="3.94" height="3.94"/><rect class="cls-1" x="277.47" y="152.61" width="3.94" height="3.94"/><rect class="cls-1" x="277.47" y="160.49" width="3.94" height="3.94"/><rect class="cls-1" x="277.47" y="168.38" width="3.94" height="3.94"/><rect class="cls-1" x="277.47" y="176.27" width="3.94" height="3.94"/><rect class="cls-1" x="285.36" y="144.72" width="3.94" height="3.94"/><rect class="cls-1" x="285.36" y="152.61" width="3.94" height="3.94"/><rect class="cls-1" x="293.25" y="144.72" width="3.94" height="3.94"/><rect class="cls-1" x="293.25" y="136.83" width="3.94" height="3.94"/><rect class="cls-1" x="285.36" y="160.49" width="3.94" height="3.94"/><rect class="cls-1" x="293.25" y="160.49" width="3.94" height="3.94"/><rect class="cls-1" x="285.36" y="168.38" width="3.94" height="3.94"/><rect class="cls-1" x="293.25" y="168.38" width="3.94" height="3.94"/><rect class="cls-1" x="285.36" y="176.27" width="3.94" height="3.94"/><rect class="cls-1" x="293.25" y="176.27" width="3.94" height="3.94"/><rect class="cls-1" x="301.14" y="144.72" width="3.94" height="3.94"/><rect class="cls-1" x="301.14" y="152.61" width="3.94" height="3.94"/><rect class="cls-1" x="309.02" y="144.72" width="3.94" height="3.94"/><rect class="cls-1" x="301.14" y="136.83" width="3.94" height="3.94"/><rect class="cls-1" x="309.02" y="136.83" width="3.94" height="3.94"/><rect class="cls-1" x="309.02" y="152.61" width="3.94" height="3.94"/><rect class="cls-1" x="309.02" y="160.49" width="3.94" height="3.94"/><rect class="cls-1" x="301.14" y="168.38" width="3.94" height="3.94"/><rect class="cls-1" x="301.14" y="176.27" width="3.94" height="3.94"/><rect class="cls-2" x="307.42" y="174.67" width="7.16" height="7.16"/><rect class="cls-1" x="316.91" y="152.61" width="3.94" height="3.94"/><rect class="cls-1" x="324.8" y="144.72" width="3.94" height="3.94"/><rect class="cls-1" x="316.91" y="136.83" width="3.94" height="3.94"/><rect class="cls-1" x="324.8" y="136.83" width="3.94" height="3.94"/><rect class="cls-2" x="323.2" y="151" width="7.16" height="7.16"/><rect class="cls-1" x="316.91" y="160.49" width="3.94" height="3.94"/><rect class="cls-1" x="324.8" y="160.49" width="3.94" height="3.94"/><rect class="cls-1" x="316.91" y="176.27" width="3.94" height="3.94"/><rect class="cls-1" x="332.69" y="144.72" width="3.94" height="3.94"/><rect class="cls-1" x="332.69" y="136.83" width="3.94" height="3.94"/><rect class="cls-1" x="340.58" y="144.72" width="3.94" height="3.94"/><rect class="cls-1" x="340.58" y="152.61" width="3.94" height="3.94"/><rect class="cls-1" x="348.47" y="144.72" width="3.94" height="3.94"/><rect class="cls-1" x="340.58" y="136.83" width="3.94" height="3.94"/><rect class="cls-1" x="348.47" y="136.83" width="3.94" height="3.94"/><rect class="cls-1" x="348.47" y="152.61" width="3.94" height="3.94"/><rect class="cls-1" x="348.47" y="160.49" width="3.94" height="3.94"/><rect class="cls-1" x="356.36" y="144.72" width="3.94" height="3.94"/><rect class="cls-1" x="356.36" y="152.61" width="3.94" height="3.94"/><rect class="cls-1" x="364.24" y="144.72" width="3.94" height="3.94"/><rect class="cls-1" x="356.36" y="136.83" width="3.94" height="3.94"/><rect class="cls-1" x="364.24" y="136.83" width="3.94" height="3.94"/><rect class="cls-1" x="364.24" y="152.61" width="3.94" height="3.94"/><rect class="cls-1" x="356.36" y="160.49" width="3.94" height="3.94"/><rect class="cls-1" x="364.24" y="160.49" width="3.94" height="3.94"/><rect class="cls-1" x="356.36" y="168.38" width="3.94" height="3.94"/><rect class="cls-1" x="364.24" y="168.38" width="3.94" height="3.94"/><rect class="cls-1" x="356.36" y="176.27" width="3.94" height="3.94"/><rect class="cls-1" x="372.13" y="144.72" width="3.94" height="3.94"/><rect class="cls-1" x="372.13" y="152.61" width="3.94" height="3.94"/><rect class="cls-1" x="380.02" y="144.72" width="3.94" height="3.94"/><rect class="cls-1" x="372.13" y="136.83" width="3.94" height="3.94"/><rect class="cls-1" x="380.02" y="136.83" width="3.94" height="3.94"/><rect class="cls-1" x="380.02" y="152.61" width="3.94" height="3.94"/><rect class="cls-2" x="378.42" y="158.89" width="7.16" height="7.16"/><rect class="cls-1" x="387.91" y="144.72" width="3.94" height="3.94"/><rect class="cls-1" x="387.91" y="136.83" width="3.94" height="3.94"/><rect class="cls-1" x="387.91" y="152.61" width="3.94" height="3.94"/><rect class="cls-1" x="387.91" y="160.49" width="3.94" height="3.94"/><rect class="cls-1" x="387.91" y="168.38" width="3.94" height="3.94"/><rect class="cls-1" x="387.91" y="176.27" width="3.94" height="3.94"/><rect class="cls-1" x="395.8" y="144.72" width="3.94" height="3.94"/><rect class="cls-1" x="395.8" y="152.61" width="3.94" height="3.94"/><rect class="cls-1" x="403.69" y="144.72" width="3.94" height="3.94"/><rect class="cls-1" x="395.8" y="136.83" width="3.94" height="3.94"/><rect class="cls-1" x="403.69" y="136.83" width="3.94" height="3.94"/><rect class="cls-1" x="403.69" y="152.61" width="3.94" height="3.94"/><rect class="cls-1" x="395.8" y="160.49" width="3.94" height="3.94"/><rect class="cls-1" x="403.69" y="160.49" width="3.94" height="3.94"/><rect class="cls-1" x="395.8" y="168.38" width="3.94" height="3.94"/><rect class="cls-1" x="403.69" y="168.38" width="3.94" height="3.94"/><rect class="cls-1" x="395.8" y="176.27" width="3.94" height="3.94"/><rect class="cls-1" x="301.14" y="50.05" width="3.94" height="3.94"/><rect class="cls-1" x="301.14" y="57.94" width="3.94" height="3.94"/><rect class="cls-1" x="301.14" y="42.16" width="3.94" height="3.94"/><rect class="cls-1" x="309.02" y="57.94" width="3.94" height="3.94"/><rect class="cls-1" x="301.14" y="65.83" width="3.94" height="3.94"/><rect class="cls-1" x="309.02" y="65.83" width="3.94" height="3.94"/><rect class="cls-1" x="301.14" y="73.72" width="3.94" height="3.94"/><rect class="cls-1" x="309.02" y="73.72" width="3.94" height="3.94"/><rect class="cls-1" x="301.14" y="81.61" width="3.94" height="3.94"/><rect class="cls-1" x="309.02" y="81.61" width="3.94" height="3.94"/><rect class="cls-1" x="316.91" y="50.05" width="3.94" height="3.94"/><rect class="cls-1" x="316.91" y="57.94" width="3.94" height="3.94"/><rect class="cls-1" x="324.8" y="50.05" width="3.94" height="3.94"/><rect class="cls-1" x="316.91" y="42.16" width="3.94" height="3.94"/><rect class="cls-1" x="324.8" y="42.16" width="3.94" height="3.94"/><rect class="cls-1" x="324.8" y="57.94" width="3.94" height="3.94"/><rect class="cls-1" x="316.91" y="65.83" width="3.94" height="3.94"/><rect class="cls-1" x="324.8" y="65.83" width="3.94" height="3.94"/><rect class="cls-1" x="316.91" y="73.72" width="3.94" height="3.94"/><rect class="cls-1" x="324.8" y="73.72" width="3.94" height="3.94"/><rect class="cls-1" x="316.91" y="81.61" width="3.94" height="3.94"/><rect class="cls-1" x="324.8" y="81.61" width="3.94" height="3.94"/><rect class="cls-1" x="332.69" y="50.05" width="3.94" height="3.94"/><rect class="cls-1" x="332.69" y="42.16" width="3.94" height="3.94"/><rect class="cls-1" x="332.69" y="57.94" width="3.94" height="3.94"/><rect class="cls-1" x="332.69" y="65.83" width="3.94" height="3.94"/><rect class="cls-1" x="332.69" y="73.72" width="3.94" height="3.94"/><rect class="cls-1" x="332.69" y="81.61" width="3.94" height="3.94"/><rect class="cls-1" x="340.58" y="50.05" width="3.94" height="3.94"/><rect class="cls-1" x="340.58" y="57.94" width="3.94" height="3.94"/><rect class="cls-1" x="348.47" y="50.05" width="3.94" height="3.94"/><rect class="cls-1" x="340.58" y="42.16" width="3.94" height="3.94"/><rect class="cls-1" x="348.47" y="42.16" width="3.94" height="3.94"/><rect class="cls-1" x="348.47" y="57.94" width="3.94" height="3.94"/><rect class="cls-1" x="340.58" y="65.83" width="3.94" height="3.94"/><rect class="cls-1" x="348.47" y="65.83" width="3.94" height="3.94"/><rect class="cls-1" x="340.58" y="73.72" width="3.94" height="3.94"/><rect class="cls-1" x="348.47" y="73.72" width="3.94" height="3.94"/><rect class="cls-1" x="340.58" y="81.61" width="3.94" height="3.94"/><rect class="cls-1" x="348.47" y="81.61" width="3.94" height="3.94"/><rect class="cls-1" x="356.36" y="50.05" width="3.94" height="3.94"/><rect class="cls-1" x="356.36" y="57.94" width="3.94" height="3.94"/><rect class="cls-1" x="364.24" y="50.05" width="3.94" height="3.94"/><rect class="cls-1" x="356.36" y="42.16" width="3.94" height="3.94"/><rect class="cls-1" x="364.24" y="42.16" width="3.94" height="3.94"/><rect class="cls-1" x="364.24" y="57.94" width="3.94" height="3.94"/><rect class="cls-1" x="356.36" y="65.83" width="3.94" height="3.94"/><rect class="cls-1" x="364.24" y="65.83" width="3.94" height="3.94"/><rect class="cls-1" x="356.36" y="73.72" width="3.94" height="3.94"/><rect class="cls-1" x="364.24" y="73.72" width="3.94" height="3.94"/><rect class="cls-1" x="356.36" y="81.61" width="3.94" height="3.94"/><rect class="cls-1" x="364.24" y="81.61" width="3.94" height="3.94"/><rect class="cls-1" x="372.13" y="50.05" width="3.94" height="3.94"/><rect class="cls-1" x="372.13" y="57.94" width="3.94" height="3.94"/><rect class="cls-1" x="380.02" y="50.05" width="3.94" height="3.94"/><rect class="cls-1" x="372.13" y="42.16" width="3.94" height="3.94"/><rect class="cls-1" x="380.02" y="42.16" width="3.94" height="3.94"/><rect class="cls-1" x="380.02" y="57.94" width="3.94" height="3.94"/><rect class="cls-1" x="372.13" y="65.83" width="3.94" height="3.94"/><rect class="cls-2" x="378.42" y="64.22" width="7.16" height="7.16"/><rect class="cls-1" x="372.13" y="73.72" width="3.94" height="3.94"/><rect class="cls-1" x="380.02" y="73.72" width="3.94" height="3.94"/><rect class="cls-1" x="372.13" y="81.61" width="3.94" height="3.94"/><rect class="cls-1" x="380.02" y="81.61" width="3.94" height="3.94"/><rect class="cls-1" x="387.91" y="50.05" width="3.94" height="3.94"/><rect class="cls-1" x="387.91" y="42.16" width="3.94" height="3.94"/><rect class="cls-1" x="387.91" y="57.94" width="3.94" height="3.94"/><rect class="cls-1" x="387.91" y="65.83" width="3.94" height="3.94"/><rect class="cls-1" x="387.91" y="73.72" width="3.94" height="3.94"/><rect class="cls-1" x="387.91" y="81.61" width="3.94" height="3.94"/><rect class="cls-1" x="395.8" y="50.05" width="3.94" height="3.94"/><rect class="cls-1" x="395.8" y="57.94" width="3.94" height="3.94"/><rect class="cls-1" x="403.69" y="50.05" width="3.94" height="3.94"/><rect class="cls-1" x="395.8" y="42.16" width="3.94" height="3.94"/><rect class="cls-1" x="403.69" y="42.16" width="3.94" height="3.94"/><rect class="cls-1" x="403.69" y="57.94" width="3.94" height="3.94"/><rect class="cls-1" x="395.8" y="65.83" width="3.94" height="3.94"/><rect class="cls-1" x="403.69" y="65.83" width="3.94" height="3.94"/><rect class="cls-1" x="395.8" y="73.72" width="3.94" height="3.94"/><rect class="cls-1" x="403.69" y="73.72" width="3.94" height="3.94"/><rect class="cls-1" x="395.8" y="81.61" width="3.94" height="3.94"/><rect class="cls-1" x="403.69" y="81.61" width="3.94" height="3.94"/><rect class="cls-1" x="230.14" y="18.5" width="3.94" height="3.94"/><rect class="cls-1" x="253.8" y="26.39" width="3.94" height="3.94"/><rect class="cls-1" x="253.8" y="34.28" width="3.94" height="3.94"/><rect class="cls-1" x="261.69" y="26.39" width="3.94" height="3.94"/><rect class="cls-1" x="293.25" y="10.61" width="3.94" height="3.94"/><rect class="cls-1" x="285.36" y="18.5" width="3.94" height="3.94"/><rect class="cls-1" x="293.25" y="18.5" width="3.94" height="3.94"/><rect class="cls-1" x="309.02" y="34.28" width="3.94" height="3.94"/><rect class="cls-1" x="324.8" y="2.72" width="3.94" height="3.94"/><rect class="cls-1" x="332.69" y="10.61" width="3.94" height="3.94"/><rect class="cls-1" x="332.69" y="34.28" width="3.94" height="3.94"/><rect class="cls-1" x="340.58" y="10.61" width="3.94" height="3.94"/><rect class="cls-1" x="340.58" y="18.5" width="3.94" height="3.94"/><rect class="cls-1" x="348.47" y="18.5" width="3.94" height="3.94"/><rect class="cls-1" x="340.58" y="26.39" width="3.94" height="3.94"/><rect class="cls-1" x="348.47" y="26.39" width="3.94" height="3.94"/><rect class="cls-1" x="340.58" y="34.28" width="3.94" height="3.94"/><rect class="cls-1" x="348.47" y="34.28" width="3.94" height="3.94"/><rect class="cls-1" x="356.36" y="18.5" width="3.94" height="3.94"/><rect class="cls-1" x="356.36" y="26.39" width="3.94" height="3.94"/><rect class="cls-1" x="364.24" y="26.39" width="3.94" height="3.94"/><rect class="cls-1" x="356.36" y="34.28" width="3.94" height="3.94"/><rect class="cls-1" x="364.24" y="34.28" width="3.94" height="3.94"/><rect class="cls-1" x="380.02" y="26.39" width="3.94" height="3.94"/><rect class="cls-1" x="372.13" y="34.28" width="3.94" height="3.94"/><rect class="cls-1" x="380.02" y="34.28" width="3.94" height="3.94"/><rect class="cls-1" x="387.91" y="10.61" width="3.94" height="3.94"/><rect class="cls-1" x="387.91" y="18.5" width="3.94" height="3.94"/><rect class="cls-1" x="387.91" y="34.28" width="3.94" height="3.94"/><rect class="cls-1" x="395.8" y="10.61" width="3.94" height="3.94"/><rect class="cls-1" x="403.69" y="10.61" width="3.94" height="3.94"/><rect class="cls-1" x="395.8" y="18.5" width="3.94" height="3.94"/><rect class="cls-1" x="395.8" y="26.39" width="3.94" height="3.94"/><rect class="cls-1" x="403.69" y="26.39" width="3.94" height="3.94"/><rect class="cls-1" x="395.8" y="34.28" width="3.94" height="3.94"/><rect class="cls-1" x="403.69" y="34.28" width="3.94" height="3.94"/><rect class="cls-1" x="411.58" y="97.38" width="3.94" height="3.94"/><rect class="cls-1" x="411.58" y="105.27" width="3.94" height="3.94"/><rect class="cls-1" x="419.46" y="97.38" width="3.94" height="3.94"/><rect class="cls-1" x="411.58" y="89.5" width="3.94" height="3.94"/><rect class="cls-1" x="419.46" y="89.5" width="3.94" height="3.94"/><rect class="cls-1" x="419.46" y="105.27" width="3.94" height="3.94"/><rect class="cls-1" x="411.58" y="113.16" width="3.94" height="3.94"/><rect class="cls-1" x="419.46" y="113.16" width="3.94" height="3.94"/><rect class="cls-1" x="411.58" y="121.05" width="3.94" height="3.94"/><rect class="cls-1" x="419.46" y="121.05" width="3.94" height="3.94"/><rect class="cls-1" x="411.58" y="128.94" width="3.94" height="3.94"/><rect class="cls-1" x="419.46" y="128.94" width="3.94" height="3.94"/><rect class="cls-1" x="427.35" y="97.38" width="3.94" height="3.94"/><rect class="cls-1" x="427.35" y="105.27" width="3.94" height="3.94"/><rect class="cls-1" x="435.24" y="97.38" width="3.94" height="3.94"/><rect class="cls-1" x="427.35" y="89.5" width="3.94" height="3.94"/><rect class="cls-1" x="435.24" y="89.5" width="3.94" height="3.94"/><rect class="cls-1" x="435.24" y="105.27" width="3.94" height="3.94"/><rect class="cls-1" x="427.35" y="113.16" width="3.94" height="3.94"/><rect class="cls-1" x="427.35" y="121.05" width="3.94" height="3.94"/><rect class="cls-1" x="435.24" y="128.94" width="3.94" height="3.94"/><rect class="cls-1" x="443.13" y="97.38" width="3.94" height="3.94"/><rect class="cls-1" x="443.13" y="105.27" width="3.94" height="3.94"/><rect class="cls-1" x="443.13" y="113.16" width="3.94" height="3.94"/><rect class="cls-1" x="443.13" y="121.05" width="3.94" height="3.94"/><rect class="cls-1" x="443.13" y="128.94" width="3.94" height="3.94"/><rect class="cls-1" x="458.91" y="89.5" width="3.94" height="3.94"/><rect class="cls-1" x="411.58" y="144.72" width="3.94" height="3.94"/><rect class="cls-2" x="409.97" y="151" width="7.16" height="7.16"/><rect class="cls-1" x="419.46" y="144.72" width="3.94" height="3.94"/><rect class="cls-1" x="411.58" y="136.83" width="3.94" height="3.94"/><rect class="cls-1" x="419.46" y="136.83" width="3.94" height="3.94"/><rect class="cls-1" x="419.46" y="152.61" width="3.94" height="3.94"/><rect class="cls-1" x="419.46" y="168.38" width="3.94" height="3.94"/><rect class="cls-1" x="435.24" y="136.83" width="3.94" height="3.94"/><rect class="cls-1" x="427.35" y="168.38" width="3.94" height="3.94"/><rect class="cls-1" x="427.35" y="176.27" width="3.94" height="3.94"/><rect class="cls-1" x="411.58" y="50.05" width="3.94" height="3.94"/><rect class="cls-1" x="411.58" y="57.94" width="3.94" height="3.94"/><rect class="cls-1" x="419.46" y="50.05" width="3.94" height="3.94"/><rect class="cls-1" x="411.58" y="42.16" width="3.94" height="3.94"/><rect class="cls-1" x="419.46" y="42.16" width="3.94" height="3.94"/><rect class="cls-1" x="419.46" y="57.94" width="3.94" height="3.94"/><rect class="cls-1" x="411.58" y="65.83" width="3.94" height="3.94"/><rect class="cls-1" x="419.46" y="65.83" width="3.94" height="3.94"/><rect class="cls-1" x="411.58" y="73.72" width="3.94" height="3.94"/><rect class="cls-1" x="419.46" y="73.72" width="3.94" height="3.94"/><rect class="cls-1" x="411.58" y="81.61" width="3.94" height="3.94"/><rect class="cls-1" x="419.46" y="81.61" width="3.94" height="3.94"/><rect class="cls-1" x="427.35" y="50.05" width="3.94" height="3.94"/><rect class="cls-1" x="427.35" y="57.94" width="3.94" height="3.94"/><rect class="cls-1" x="435.24" y="50.05" width="3.94" height="3.94"/><rect class="cls-1" x="427.35" y="42.16" width="3.94" height="3.94"/><rect class="cls-1" x="435.24" y="42.16" width="3.94" height="3.94"/><rect class="cls-1" x="435.24" y="57.94" width="3.94" height="3.94"/><rect class="cls-1" x="427.35" y="65.83" width="3.94" height="3.94"/><rect class="cls-1" x="435.24" y="65.83" width="3.94" height="3.94"/><rect class="cls-1" x="427.35" y="73.72" width="3.94" height="3.94"/><rect class="cls-1" x="427.35" y="81.61" width="3.94" height="3.94"/><rect class="cls-1" x="443.13" y="50.05" width="3.94" height="3.94"/><rect class="cls-1" x="443.13" y="42.16" width="3.94" height="3.94"/><rect class="cls-1" x="443.13" y="57.94" width="3.94" height="3.94"/><rect class="cls-1" x="451.02" y="50.05" width="3.94" height="3.94"/><rect class="cls-1" x="451.02" y="57.94" width="3.94" height="3.94"/><rect class="cls-1" x="458.91" y="50.05" width="3.94" height="3.94"/><rect class="cls-1" x="451.02" y="42.16" width="3.94" height="3.94"/><rect class="cls-1" x="458.91" y="42.16" width="3.94" height="3.94"/><rect class="cls-1" x="458.91" y="57.94" width="3.94" height="3.94"/><rect class="cls-1" x="451.02" y="65.83" width="3.94" height="3.94"/><rect class="cls-1" x="451.02" y="73.72" width="3.94" height="3.94"/><rect class="cls-1" x="458.91" y="73.72" width="3.94" height="3.94"/><rect class="cls-1" x="451.02" y="81.61" width="3.94" height="3.94"/><rect class="cls-1" x="458.91" y="81.61" width="3.94" height="3.94"/><rect class="cls-1" x="466.8" y="50.05" width="3.94" height="3.94"/><rect class="cls-1" x="466.8" y="42.16" width="3.94" height="3.94"/><rect class="cls-1" x="143.36" y="223.6" width="3.94" height="3.94"/><rect class="cls-2" x="133.87" y="214.11" width="7.16" height="7.16"/><rect class="cls-1" x="143.36" y="215.71" width="3.94" height="3.94"/><rect class="cls-1" x="143.36" y="231.49" width="3.94" height="3.94"/><rect class="cls-1" x="143.36" y="239.38" width="3.94" height="3.94"/><rect class="cls-1" x="135.47" y="247.27" width="3.94" height="3.94"/><rect class="cls-1" x="143.36" y="247.27" width="3.94" height="3.94"/><rect class="cls-1" x="135.47" y="255.16" width="3.94" height="3.94"/><rect class="cls-1" x="143.36" y="255.16" width="3.94" height="3.94"/><rect class="cls-1" x="151.25" y="223.6" width="3.94" height="3.94"/><rect class="cls-1" x="151.25" y="215.71" width="3.94" height="3.94"/><rect class="cls-1" x="151.25" y="231.49" width="3.94" height="3.94"/><rect class="cls-1" x="151.25" y="239.38" width="3.94" height="3.94"/><rect class="cls-1" x="151.25" y="247.27" width="3.94" height="3.94"/><rect class="cls-1" x="151.25" y="255.16" width="3.94" height="3.94"/><rect class="cls-1" x="159.14" y="223.6" width="3.94" height="3.94"/><rect class="cls-1" x="159.14" y="231.49" width="3.94" height="3.94"/><rect class="cls-1" x="167.03" y="223.6" width="3.94" height="3.94"/><rect class="cls-1" x="159.14" y="215.71" width="3.94" height="3.94"/><rect class="cls-1" x="167.03" y="215.71" width="3.94" height="3.94"/><rect class="cls-1" x="167.03" y="231.49" width="3.94" height="3.94"/><rect class="cls-1" x="159.14" y="239.38" width="3.94" height="3.94"/><rect class="cls-2" x="165.42" y="237.77" width="7.16" height="7.16"/><rect class="cls-1" x="159.14" y="247.27" width="3.94" height="3.94"/><rect class="cls-1" x="159.14" y="255.16" width="3.94" height="3.94"/><rect class="cls-1" x="167.03" y="247.27" width="3.94" height="3.94"/><rect class="cls-1" x="174.92" y="223.6" width="3.94" height="3.94"/><rect class="cls-1" x="174.92" y="231.49" width="3.94" height="3.94"/><rect class="cls-1" x="182.81" y="223.6" width="3.94" height="3.94"/><rect class="cls-1" x="174.92" y="215.71" width="3.94" height="3.94"/><rect class="cls-1" x="182.81" y="215.71" width="3.94" height="3.94"/><rect class="cls-1" x="135.47" y="270.93" width="3.94" height="3.94"/><rect class="cls-1" x="143.36" y="270.93" width="3.94" height="3.94"/><rect class="cls-1" x="135.47" y="263.05" width="3.94" height="3.94"/><rect class="cls-1" x="143.36" y="263.05" width="3.94" height="3.94"/><rect class="cls-1" x="143.36" y="278.82" width="3.94" height="3.94"/><rect class="cls-1" x="151.25" y="270.93" width="3.94" height="3.94"/><rect class="cls-1" x="151.25" y="263.05" width="3.94" height="3.94"/><rect class="cls-1" x="151.25" y="286.71" width="3.94" height="3.94"/><rect class="cls-1" x="127.59" y="184.16" width="3.94" height="3.94"/><rect class="cls-1" x="119.7" y="192.05" width="3.94" height="3.94"/><rect class="cls-1" x="127.59" y="192.05" width="3.94" height="3.94"/><rect class="cls-1" x="119.7" y="199.94" width="3.94" height="3.94"/><rect class="cls-1" x="127.59" y="199.94" width="3.94" height="3.94"/><rect class="cls-1" x="127.59" y="207.83" width="3.94" height="3.94"/><rect class="cls-1" x="135.47" y="184.16" width="3.94" height="3.94"/><rect class="cls-1" x="143.36" y="184.16" width="3.94" height="3.94"/><rect class="cls-1" x="135.47" y="192.05" width="3.94" height="3.94"/><rect class="cls-1" x="143.36" y="192.05" width="3.94" height="3.94"/><rect class="cls-1" x="135.47" y="199.94" width="3.94" height="3.94"/><rect class="cls-1" x="143.36" y="199.94" width="3.94" height="3.94"/><rect class="cls-1" x="135.47" y="207.83" width="3.94" height="3.94"/><rect class="cls-1" x="143.36" y="207.83" width="3.94" height="3.94"/><rect class="cls-1" x="151.25" y="184.16" width="3.94" height="3.94"/><rect class="cls-1" x="151.25" y="192.05" width="3.94" height="3.94"/><rect class="cls-1" x="151.25" y="199.94" width="3.94" height="3.94"/><rect class="cls-1" x="151.25" y="207.83" width="3.94" height="3.94"/><rect class="cls-1" x="159.14" y="184.16" width="3.94" height="3.94"/><rect class="cls-1" x="167.03" y="184.16" width="3.94" height="3.94"/><rect class="cls-1" x="159.14" y="192.05" width="3.94" height="3.94"/><rect class="cls-1" x="167.03" y="192.05" width="3.94" height="3.94"/><rect class="cls-1" x="159.14" y="199.94" width="3.94" height="3.94"/><rect class="cls-1" x="167.03" y="199.94" width="3.94" height="3.94"/><rect class="cls-1" x="159.14" y="207.83" width="3.94" height="3.94"/><rect class="cls-1" x="167.03" y="207.83" width="3.94" height="3.94"/><rect class="cls-1" x="174.92" y="192.05" width="3.94" height="3.94"/><rect class="cls-2" x="181.2" y="190.44" width="7.16" height="7.16"/><rect class="cls-1" x="174.92" y="199.94" width="3.94" height="3.94"/><rect class="cls-1" x="182.81" y="199.94" width="3.94" height="3.94"/><rect class="cls-1" x="174.92" y="207.83" width="3.94" height="3.94"/><rect class="cls-1" x="182.81" y="207.83" width="3.94" height="3.94"/><rect class="cls-1" x="190.7" y="199.94" width="3.94" height="3.94"/><rect class="cls-1" x="261.69" y="223.6" width="3.94" height="3.94"/><rect class="cls-1" x="269.58" y="223.6" width="3.94" height="3.94"/><rect class="cls-1" x="261.69" y="215.71" width="3.94" height="3.94"/><rect class="cls-1" x="269.58" y="215.71" width="3.94" height="3.94"/><rect class="cls-1" x="269.58" y="231.49" width="3.94" height="3.94"/><rect class="cls-1" x="269.58" y="239.38" width="3.94" height="3.94"/><rect class="cls-1" x="277.47" y="223.6" width="3.94" height="3.94"/><rect class="cls-1" x="277.47" y="215.71" width="3.94" height="3.94"/><rect class="cls-1" x="277.47" y="231.49" width="3.94" height="4.9"/><rect class="cls-1" x="277.47" y="239.38" width="3.94" height="3.94"/><rect class="cls-1" x="285.36" y="223.6" width="3.94" height="3.94"/><rect class="cls-2" x="283.75" y="229.89" width="7.16" height="7.16"/><rect class="cls-1" x="293.25" y="223.6" width="3.94" height="3.94"/><rect class="cls-1" x="285.36" y="215.71" width="3.94" height="3.94"/><rect class="cls-1" x="293.25" y="215.71" width="3.94" height="3.94"/><rect class="cls-2" x="252.2" y="182.55" width="7.16" height="7.16"/><rect class="cls-1" x="253.8" y="192.05" width="3.94" height="3.94"/><rect class="cls-1" x="261.69" y="184.16" width="3.94" height="3.94"/><rect class="cls-1" x="269.58" y="184.16" width="3.94" height="3.94"/><rect class="cls-1" x="261.69" y="192.05" width="3.94" height="3.94"/><rect class="cls-1" x="269.58" y="192.05" width="3.94" height="3.94"/><rect class="cls-1" x="261.69" y="199.94" width="3.94" height="3.94"/><rect class="cls-1" x="269.58" y="199.94" width="3.94" height="3.94"/><rect class="cls-1" x="261.69" y="207.83" width="3.94" height="3.94"/><rect class="cls-1" x="269.58" y="207.83" width="3.94" height="3.94"/><rect class="cls-1" x="277.47" y="184.16" width="3.94" height="3.94"/><rect class="cls-1" x="277.47" y="192.05" width="3.94" height="3.94"/><rect class="cls-1" x="277.47" y="199.94" width="3.94" height="3.94"/><rect class="cls-1" x="277.47" y="207.83" width="3.94" height="3.94"/><rect class="cls-1" x="285.36" y="184.16" width="3.94" height="3.94"/><rect class="cls-1" x="293.25" y="184.16" width="3.94" height="3.94"/><rect class="cls-1" x="285.36" y="192.05" width="3.94" height="3.94"/><rect class="cls-1" x="285.36" y="199.94" width="3.94" height="3.94"/><rect class="cls-1" x="293.25" y="199.94" width="3.94" height="3.94"/><rect class="cls-1" x="285.36" y="207.83" width="3.94" height="3.94"/><rect class="cls-1" x="293.25" y="207.83" width="3.94" height="3.94"/><rect class="cls-1" x="309.02" y="223.6" width="3.94" height="3.94"/><rect class="cls-1" x="309.02" y="215.71" width="3.94" height="3.94"/><rect class="cls-1" x="316.91" y="215.71" width="3.94" height="3.94"/><rect class="cls-1" x="301.14" y="184.16" width="3.94" height="3.94"/><rect class="cls-1" x="309.02" y="184.16" width="3.94" height="3.94"/><rect class="cls-1" x="301.14" y="192.05" width="3.94" height="3.94"/><rect class="cls-1" x="301.14" y="199.94" width="3.94" height="3.94"/><rect class="cls-1" x="301.14" y="207.83" width="3.94" height="3.94"/><rect class="cls-1" x="316.91" y="207.83" width="3.94" height="3.94"/><rect class="cls-1" x="387.91" y="184.16" width="3.94" height="3.94"/><rect class="cls-1" x="395.8" y="184.16" width="3.94" height="3.94"/><rect class="cls-1" x="395.8" y="192.05" width="3.94" height="3.94"/><rect class="cls-1" x="403.69" y="192.05" width="3.94" height="3.94"/><rect class="cls-1" x="403.69" y="199.94" width="3.94" height="3.94"/><rect class="cls-1" x="411.58" y="231.49" width="3.94" height="3.94"/><rect class="cls-1" x="419.46" y="223.6" width="3.94" height="3.94"/><rect class="cls-1" x="419.46" y="231.49" width="3.94" height="3.94"/><rect class="cls-1" x="411.58" y="239.38" width="3.94" height="3.94"/><rect class="cls-1" x="419.46" y="239.38" width="3.94" height="3.94"/><rect class="cls-1" x="411.58" y="247.27" width="3.94" height="3.94"/><rect class="cls-1" x="419.46" y="247.27" width="3.94" height="3.94"/><rect class="cls-1" x="427.35" y="223.6" width="3.94" height="3.94"/><rect class="cls-1" x="427.35" y="231.49" width="3.94" height="3.94"/><rect class="cls-1" x="435.24" y="223.6" width="3.94" height="3.94"/><rect class="cls-1" x="427.35" y="215.71" width="3.94" height="3.94"/><rect class="cls-1" x="435.24" y="215.71" width="3.94" height="3.94"/><rect class="cls-1" x="435.24" y="231.49" width="3.94" height="3.94"/><rect class="cls-1" x="427.35" y="239.38" width="3.94" height="3.94"/><rect class="cls-2" x="433.64" y="237.77" width="7.16" height="7.16"/><rect class="cls-1" x="443.13" y="223.6" width="3.94" height="3.94"/><rect class="cls-1" x="443.13" y="215.71" width="3.94" height="3.94"/><rect class="cls-1" x="443.13" y="231.49" width="3.94" height="3.94"/><rect class="cls-1" x="443.13" y="239.38" width="3.94" height="3.94"/><rect class="cls-1" x="443.13" y="247.27" width="3.94" height="3.94"/><rect class="cls-1" x="443.13" y="255.16" width="3.94" height="3.94"/><rect class="cls-1" x="451.02" y="223.6" width="3.94" height="3.94"/><rect class="cls-1" x="451.02" y="231.49" width="3.94" height="3.94"/><rect class="cls-1" x="458.91" y="223.6" width="3.94" height="3.94"/><rect class="cls-1" x="451.02" y="215.71" width="3.94" height="3.94"/><rect class="cls-1" x="458.91" y="215.71" width="3.94" height="3.94"/><rect class="cls-1" x="458.91" y="231.49" width="3.94" height="3.94"/><rect class="cls-1" x="451.02" y="239.38" width="3.94" height="3.94"/><rect class="cls-1" x="458.91" y="239.38" width="3.94" height="3.94"/><rect class="cls-1" x="451.02" y="247.27" width="3.94" height="3.94"/><rect class="cls-1" x="458.91" y="247.27" width="3.94" height="3.94"/><rect class="cls-1" x="451.02" y="255.16" width="3.94" height="3.94"/><rect class="cls-1" x="458.91" y="255.16" width="3.94" height="3.94"/><rect class="cls-1" x="466.8" y="223.6" width="3.94" height="3.94"/><rect class="cls-1" x="466.8" y="231.49" width="3.94" height="3.94"/><rect class="cls-1" x="466.8" y="239.38" width="3.94" height="3.94"/><rect class="cls-1" x="466.8" y="247.27" width="3.94" height="3.94"/><rect class="cls-1" x="498.35" y="255.16" width="3.94" height="3.94"/><rect class="cls-1" x="451.02" y="270.93" width="3.94" height="3.94"/><rect class="cls-1" x="451.02" y="263.05" width="3.94" height="3.94"/><rect class="cls-1" x="474.69" y="278.82" width="3.94" height="3.94"/><rect class="cls-1" x="482.57" y="270.93" width="3.94" height="3.94"/><rect class="cls-1" x="482.57" y="278.82" width="3.94" height="3.94"/><rect class="cls-1" x="490.46" y="270.93" width="3.94" height="3.94"/><rect class="cls-1" x="490.46" y="263.05" width="3.94" height="3.94"/><rect class="cls-1" x="498.35" y="263.05" width="3.94" height="3.94"/><rect class="cls-1" x="411.58" y="184.16" width="3.94" height="3.94"/><rect class="cls-1" x="419.46" y="184.16" width="3.94" height="3.94"/><rect class="cls-1" x="411.58" y="192.05" width="3.94" height="3.94"/><rect class="cls-1" x="419.46" y="192.05" width="3.94" height="3.94"/><rect class="cls-1" x="419.46" y="199.94" width="3.94" height="3.94"/><rect class="cls-1" x="427.35" y="192.05" width="3.94" height="3.94"/><rect class="cls-1" x="427.35" y="207.83" width="3.94" height="3.94"/><rect class="cls-1" x="443.13" y="192.05" width="3.94" height="3.94"/><rect class="cls-1" x="443.13" y="207.83" width="3.94" height="3.94"/><rect class="cls-1" x="451.02" y="192.05" width="3.94" height="3.94"/><rect class="cls-1" x="451.02" y="199.94" width="3.94" height="3.94"/><rect class="cls-1" x="458.91" y="199.94" width="3.94" height="3.94"/><rect class="cls-1" x="451.02" y="207.83" width="3.94" height="3.94"/><rect class="cls-1" x="466.8" y="199.94" width="3.94" height="3.94"/><rect class="cls-1" x="466.8" y="207.83" width="3.94" height="3.94"/><rect class="cls-1" x="411.58" y="26.39" width="3.94" height="3.94"/><rect class="cls-1" x="419.46" y="26.39" width="3.94" height="3.94"/><rect class="cls-1" x="411.58" y="34.28" width="3.94" height="3.94"/><rect class="cls-1" x="419.46" y="34.28" width="3.94" height="3.94"/><rect class="cls-1" x="427.35" y="26.39" width="3.94" height="3.94"/><rect class="cls-1" x="435.24" y="26.39" width="3.94" height="3.94"/><rect class="cls-1" x="427.35" y="34.28" width="3.94" height="3.94"/><rect class="cls-1" x="435.24" y="34.28" width="3.94" height="3.94"/><rect class="cls-1" x="443.13" y="18.5" width="3.94" height="3.94"/><rect class="cls-1" x="443.13" y="26.39" width="3.94" height="3.94"/><rect class="cls-1" x="443.13" y="34.28" width="3.94" height="3.94"/><rect class="cls-1" x="451.02" y="18.5" width="3.94" height="3.94"/><rect class="cls-1" x="451.02" y="26.39" width="3.94" height="3.94"/><rect class="cls-1" x="458.91" y="26.39" width="3.94" height="3.94"/><rect class="cls-1" x="451.02" y="34.28" width="3.94" height="3.94"/><rect class="cls-1" x="458.91" y="34.28" width="3.94" height="3.94"/><rect class="cls-1" x="466.8" y="26.39" width="3.94" height="3.94"/><text class="cls-3" transform="translate(411.19 376.47)">Offi<tspan class="cls-4" x="36.47" y="0">c</tspan><tspan x="46.64" y="0">e </tspan><tspan class="cls-5" x="0" y="20.71">L</tspan><tspan x="11.22" y="20.71">ocator</tspan></text><g id="lake_forest_open_lands_association"><path class="cls-6" d="M47.51,308c5.86,0,11.81.88,18.38.88,3,0,6.32,0,9.49.23,4,.26,8.26-.43,10.48,1.54a7.51,7.51,0,0,1,1.06,1.41,9.63,9.63,0,0,1,1,1.47c1.16,2.75.87,6.61.94,10.55,0,0-.06,0-.06.06a8.43,8.43,0,0,1-2.47,2c-6,4.45-12,8.43-18.21,13-3.33,2.45-6.86,5.08-10.19,7.66-1.61,1.25-3.5,2.34-5.24,3.71A12.7,12.7,0,0,1,50,352.39c-1,.45-2.17,1.25-3.13,1.3-2.37.13-2.32-1.65-2.76-3.65-.11-.46-.13-1.14-.24-1.77a5.06,5.06,0,0,1-.18-1.71c.27-.8,1.44-.81,2.59-1.12a12.62,12.62,0,0,0,6.42-4,19.68,19.68,0,0,0,2.71-3.3,16.32,16.32,0,0,0,1.12-3,18.87,18.87,0,0,0,.83-3.31,21.15,21.15,0,0,0-.24-5.41,18.79,18.79,0,0,0-2.3-4.78c-2.2-3.79-4.31-7.23-6.48-11.19-.29-.55-1.3-1.81-1-2.3A.42.42,0,0,1,47.51,308Z"/><path class="cls-6" d="M43.09,311.86a3.55,3.55,0,0,1-1.18,1.54c-.45.45-.91.89-1.35,1.35-2.37,3-5.21,5.56-7.66,8.48-.52,1.47-1.1,2.91-1.59,4.42a34.25,34.25,0,0,0-1.53,4.48c-.32,1.76.17,3.74,0,5.77,0,.05.06.06.06.12a21.94,21.94,0,0,0,1.77,2.89,20,20,0,0,0,1.89,2.71c1.62,1.85,4.05,3,6,4.59A7.16,7.16,0,0,1,42,353a22.51,22.51,0,0,1,.18,2.42,3.23,3.23,0,0,1-.36,2.24,2,2,0,0,1-1.7-.18,9.16,9.16,0,0,1-1.48-.65,7.33,7.33,0,0,1-1.41-2c-1.27-2.08-2.88-4-4-6.07a21.19,21.19,0,0,0-2.71-4.07c-.47-.51-1.05-1.15-1.65-1.7a9.8,9.8,0,0,0-1.82-1.54,19.35,19.35,0,0,0-5.48-1.11,13.88,13.88,0,0,0-4.77.7A18.35,18.35,0,0,0,13.46,343c-1.13.7-2.43,1.24-3.42,2a20.16,20.16,0,0,0-2.65,3c-.43.51-.91,1-1.3,1.54s-.64,1.29-1.35,1.41A17.9,17.9,0,0,1,4.62,347c0-3.87-.55-7.75-.7-11.78-.11-2.72-.14-5.41-.18-8s-.1-5.42.06-8c.17-2.9,1.46-5.58,3.41-6.84,2.72-1.74,8-1.2,12.2-1,5.14.25,10.51-.16,15.85.12,1.34.08,2.68.09,4,.12A14.41,14.41,0,0,1,43.09,311.86Z"/><path class="cls-6" d="M89.87,355.75a6.14,6.14,0,0,1-2.3.77c-2.38.59-4.95,1.23-7.54,1.65-1.72.28-3.47.56-5.24.88s-3.53.46-5.31.77c-3.4.6-6.73,1.52-10.31,1.94a52.14,52.14,0,0,1-5.89.24c-2.81,0-6.23.35-7.3-1.48A9,9,0,0,1,46,357.7a6,6,0,0,1,1.88-2.24,19.33,19.33,0,0,1,2.3-1.83c1.8-.32,4.59-1.1,6.48-.65a10.2,10.2,0,0,1,1.65.83c.57.26,1.17.46,1.71.7a22.14,22.14,0,0,0,3.36,1.54,43.38,43.38,0,0,0,4.71.47,10.38,10.38,0,0,0,1.47.17,6.74,6.74,0,0,0,2.24-.88,43.33,43.33,0,0,0,5.89-3.3c1.11-1.69,2.17-3.54,3.24-5.42a43.1,43.1,0,0,0,3-5.65c1.18-3.09,2.48-6.12,3.53-9.37.48-1.5,1.27-2.64,1.71-4.24a6.12,6.12,0,0,1,.29-1.36c.32-.52,1.37-.77,1.89-1,1-.43.62,1.16.59,1.41a52.7,52.7,0,0,0-.3,5.89,55.13,55.13,0,0,1-.65,7.6c-.32,2.56-.39,5.19-.59,7.66S90.22,353.35,89.87,355.75Z"/><path class="cls-6" d="M42.62,368.83a6.64,6.64,0,0,1-3.48-.06,20.75,20.75,0,0,1-2.29-1.18c-2.25-1.13-4.09-2.7-6.43-3.83a42.47,42.47,0,0,0-4.88-2c-2.53-.85-5.67-2-8.78-1a10,10,0,0,0-3.12,2.06,76.52,76.52,0,0,0-8,7.42c-.56.33-.83,1.25-1.65,1.12a3.78,3.78,0,0,1-.29-2.06c-.07-3.83-.06-7.38-.24-11.31,0-.61-.09-1.35-.11-2.18s-.2-1.93.17-2.06a.44.44,0,0,1,.18-.12c3,.2,6.06.65,9.07,1.06,2.74.37,5.53.65,8.25,1.06,4,.62,8,1.19,12,1.95,2.28.43,4.95.44,6.12,1.94a11,11,0,0,1,1,2.3c.31.75.71,1.51,1,2.18C41.75,365.65,42.57,367,42.62,368.83Z"/><path class="cls-6" d="M86.63,358.88c.61-.21.41,1.33.41,1.94,0,2.17-.05,4.34,0,6.77.06,2.89.33,5.82.53,8.55a112,112,0,0,1,.06,13c-.06,1.57.18,3.38-.24,4.77-.17.57-.55,1.13-.82,1.77-.72,1.66-2.14,3.8-3.77,4.47a11.62,11.62,0,0,1-4.13.3c-1.6,0-3-.06-4.41-.12-3.07-.13-6.33-.06-8.78-.06-2.92,0-5.82-.24-8.72-.24s-5.9-.15-8.72-.35c-.68-1.45-.63-3.31-.82-5.12-.39-3.69-1.08-6.65-1.36-10.49-.11-1.5-.16-4.48.83-4.95a3.4,3.4,0,0,1,2.29.35c.78.31,1.55.48,2.18.71,4.1,1.52,8.45,3.28,12.55,4.66,4.34,1.45,8.59,2.91,12.9,4.35.72.24,1.46.49,2.18.71s1.43.67,2.18.41a7.67,7.67,0,0,0-.94-3.06c-.79-1.92-1.6-3.85-2.42-5.77-.41-1-.73-2-1.17-2.89a18.22,18.22,0,0,0-2.12-3.12,21.05,21.05,0,0,0-2.6-2.65c-4.69-2.17-10.47-.26-15.14.76a22.85,22.85,0,0,0-5.95,2c-1.52-.08-2.26.53-3.71.82-1,.2-2.55.32-3.06-.29s-.19-2.53-.06-3.42a21.89,21.89,0,0,1,1.65-6,10.34,10.34,0,0,1,1.18-2.59,5.61,5.61,0,0,1,1.53-.59,7.17,7.17,0,0,1,1.65-.47,8.83,8.83,0,0,1,2.83.65,51.83,51.83,0,0,1,6.89,3.35c2.26,1.19,4.46,2.28,7,3.3a12,12,0,0,0,2.53.89,9.55,9.55,0,0,0,5.89-.89A18.85,18.85,0,0,0,78,367.77c1-.91,2-2,2.88-2.83C82.94,363,84.67,360.92,86.63,358.88Z"/><path class="cls-6" d="M39.68,374.37a60.64,60.64,0,0,1,2.23,8.19,6.9,6.9,0,0,1,.42,2.77c-.59.46-1.41.21-2.07.17-9.56-.45-19.31-.86-28.69-1.53-.73-.05-1.5-.08-2.23-.12S8,383.57,7.39,384a5.61,5.61,0,0,0,1.06,2.3c.39.74.8,1.49,1.18,2.24a35.58,35.58,0,0,0,2.42,4.42,11.5,11.5,0,0,0,3.53,2.77,16.75,16.75,0,0,0,1.94,1,10.84,10.84,0,0,0,2.36.76,16.35,16.35,0,0,0,2.36.06,33.92,33.92,0,0,0,3.53-.12,9.89,9.89,0,0,0,2.06-.76c.67-.26,1.33-.58,2-.83,3.52-1.39,5.33-3.66,8.54-5.47.52-.3,1.48-.94,1.88-.89s.75.79.95,1.42.51,1.18.65,1.65a28,28,0,0,1,.7,4.3,22.39,22.39,0,0,1,.59,4.3,9.26,9.26,0,0,1-3.24.05c-1.15,0-2.33-.11-3.53-.11-6.94,0-14.54.37-21.09.35-.76,0-1.56-.12-2.36-.12a7.68,7.68,0,0,1-3.53-.47,7.43,7.43,0,0,1-1.89-1.41c-1.06-1.06-2.06-1.85-2.24-3.71a43.26,43.26,0,0,1,.24-5.48c.2-4.33.32-9.12.53-13.61a6.57,6.57,0,0,1,.35-2.48,16.3,16.3,0,0,1,5.6.77c1.7.45,3.34,1,4.95,1.59,3.27,1.2,6.71,2.74,10.48,2.65,2.5-.06,4.52-1.51,6.31-2.59l2.24-1.36C37,374.49,38.31,373.07,39.68,374.37Z"/></g><path class="cls-7" d="M113.17,332.61V313h4.09l7.52,17.72h.6V313h2.16v19.65h-4l-7.64-17.72h-.54v17.72Z"/><path class="cls-7" d="M147.11,322.92c0,3.51-.56,6-1.68,7.62s-3.15,2.35-6.09,2.35-5-.8-6.09-2.41-1.68-4.14-1.68-7.6.57-6,1.7-7.69,3.16-2.52,6-2.52,4.92.84,6.07,2.5S147.11,319.42,147.11,322.92Zm-13.3-.05q0,4.32,1.14,6.21t4.39,1.88c2.17,0,3.62-.61,4.37-1.84s1.12-3.3,1.12-6.2-.38-5-1.16-6.33-2.23-2-4.36-2-3.58.66-4.34,2S133.81,320,133.81,322.87Z"/><path class="cls-7" d="M153.16,326.7q0,4.26,4.6,4.26a5.43,5.43,0,0,0,3.59-1,4,4,0,0,0,1.2-3.25V313h2.16v13.69q0,3.28-1.74,4.77a7.84,7.84,0,0,1-5.16,1.47,7.69,7.69,0,0,1-5.12-1.47q-1.73-1.49-1.72-4.77V313h2.19Z"/><path class="cls-7" d="M171.59,325.08v7.53H169.4V313h7.27a6.71,6.71,0,0,1,4.7,1.45,5.84,5.84,0,0,1,1.58,4.51c0,3-1.21,4.93-3.61,5.71l3.78,8H180.7l-3.55-7.53Zm5.11-1.93c2.67,0,4-1.37,4-4.13s-1.34-4.13-4-4.13h-5.08v8.26Z"/><path class="cls-7" d="M189.09,325.08v7.53H186.9V313h7.27a6.71,6.71,0,0,1,4.7,1.45,5.84,5.84,0,0,1,1.57,4.51q0,4.54-3.6,5.71l3.78,8H198.2l-3.55-7.53Zm5.11-1.93c2.67,0,4-1.37,4-4.13s-1.34-4.13-4-4.13h-5.08v8.26Z"/><path class="cls-7" d="M204.39,332.61V313h2.19v19.65Z"/><path class="cls-7" d="M213.57,325.08v7.53h-2.19V313h7.27a6.71,6.71,0,0,1,4.7,1.45,5.84,5.84,0,0,1,1.58,4.51c0,3-1.21,4.93-3.61,5.71l3.78,8h-2.42l-3.55-7.53Zm5.11-1.93c2.67,0,4-1.37,4-4.13s-1.34-4.13-4-4.13h-5.08v8.26Z"/><path class="cls-7" d="M115.21,358.26c0,2.84,1.54,4.26,4.6,4.26a5.54,5.54,0,0,0,3.6-1,4,4,0,0,0,1.2-3.25V344.52h2.16V358.2q0,3.3-1.75,4.78a9.72,9.72,0,0,1-10.28,0c-1.14-1-1.72-2.58-1.72-4.78V344.52h2.19Z"/><path class="cls-7" d="M131.46,364.17V344.52h4.09l7.52,17.72h.6V344.52h2.16v19.65h-4l-7.64-17.73h-.54v17.73Z"/><path class="cls-8" d="M157.48,364.17V338.23h7.31l5.79,20.26,5.8-20.26h7.34v25.94h-4.24V342.89h-.56l-6.14,20.22h-4.39l-6.14-20.22h-.56v21.28Z"/><path class="cls-8" d="M207.3,361.4c-1.55,2.12-4.29,3.18-8.2,3.18s-6.65-1.06-8.22-3.19-2.35-5.49-2.35-10.06.79-8,2.37-10.19,4.31-3.33,8.2-3.33,6.61,1.11,8.18,3.32,2.35,5.6,2.35,10.2S208.85,359.28,207.3,361.4Zm-13.12-2.72c.85,1.49,2.5,2.23,4.92,2.23s4.06-.73,4.9-2.19,1.27-3.92,1.27-7.37-.43-6-1.31-7.52-2.49-2.35-4.86-2.35-4,.79-4.89,2.35-1.32,4.06-1.32,7.48S193.32,357.19,194.18,358.68Z"/><path class="cls-8" d="M214.51,364.17V338.23h7.35l7.88,22.23h.56V338.23h4.21v25.94h-7.2l-8.06-22.27h-.53v22.27Z"/><path class="cls-8" d="M249.46,364.17h-9V338.23h9q6,0,8.18,3c1.47,2,2.2,5.18,2.2,9.5a31.52,31.52,0,0,1-.43,5.59,13,13,0,0,1-1.54,4.14Q255.71,364.17,249.46,364.17Zm6-13.41c0-3.13-.4-5.39-1.18-6.78s-2.4-2.08-4.85-2.08h-4.77v18.56h4.77q3.75,0,5-2.77a10.92,10.92,0,0,0,.82-3A32.79,32.79,0,0,0,255.49,350.76Z"/><path class="cls-8" d="M264.76,364.17V338.23h16.36v3.67H269v7.35h9.88v3.63H269v7.58h12.15v3.71Z"/><path class="cls-7" d="M113,395.73V376.27h12.26V379h-9.11v5.51h7.41v2.72h-7.41v5.68h9.11v2.79Z"/><path class="cls-7" d="M128.7,395.73V376.27h5.51l5.91,16.67h.42V376.27h3.16v19.46h-5.4L132.25,379h-.4v16.7Z"/><path class="cls-9" d="M170.41,395.34a31,31,0,0,1-6.63.8,12.57,12.57,0,0,1-4.72-.73,5.78,5.78,0,0,1-2.77-2.32,10.18,10.18,0,0,1-1.39-3.75,31.25,31.25,0,0,1-.39-5.42c0-4.56.65-7.73,1.93-9.53s3.65-2.69,7.1-2.69a30.54,30.54,0,0,1,6.91.94l-.14,3.82a39.06,39.06,0,0,0-5.71-.52,6.38,6.38,0,0,0-3.25.61,3.75,3.75,0,0,0-1.44,2.31,24.69,24.69,0,0,0-.47,5.79c0,2.73.32,4.63,1,5.68s1.91,1.58,3.82,1.58a40.19,40.19,0,0,0,6.09-.49Z"/><path class="cls-9" d="M187.87,395.73v-9.79h-8.78v9.79H174.3V372.12h4.79v9.65h8.78v-9.65h4.79v23.61Z"/><path class="cls-9" d="M195.82,395.73l5.32-23.61h9.09l5.31,23.61h-4.79l-.94-4.27h-8.26l-.94,4.27Zm9-19.65-2.4,11.21h6.46l-2.39-11.21Z"/><path class="cls-9" d="M218.7,395.73V372.12h8.09l5.69,19.44h.35V372.12h4.79v23.61h-7.88l-5.9-19.44h-.35v19.44Z"/><path class="cls-9" d="M252.58,387.26v-4.17h6.87v12.25a52,52,0,0,1-8,.8q-5.52,0-7.59-2.95c-1.37-2-2.06-5.09-2.06-9.37s.72-7.37,2.15-9.27,3.88-2.85,7.33-2.85a37.14,37.14,0,0,1,7,.73l1.25.25-.14,3.71a65.9,65.9,0,0,0-6.82-.45,8.08,8.08,0,0,0-3.73.62,3.78,3.78,0,0,0-1.58,2.31,23.07,23.07,0,0,0-.5,5.76c0,2.73.33,4.63,1,5.71s2.05,1.63,4.16,1.63l2.88-.13v-4.58Z"/><path class="cls-9" d="M264,395.73V372.12h15.27v4.17H268.76v5.51h8.4v4.1h-8.4v5.66h10.48v4.17Z"/><path class="cls-9" d="M283.2,395.73V372.12h8.15l4.17,17.22,4.16-17.22h8.16v23.61h-4.79V377.47h-.52l-4.62,17.21h-4.79l-4.61-17.21H288v18.26Z"/><path class="cls-9" d="M313,395.73V372.12h15.27v4.17H317.77v5.51h8.4v4.1h-8.4v5.66h10.48v4.17Z"/><path class="cls-9" d="M332.21,395.73V372.12h8.09L346,391.56h.35V372.12h4.79v23.61h-7.88l-5.9-19.44H337v19.44Z"/><path class="cls-9" d="M354.15,376.36v-4.24H371.5v4.24h-6.25v19.37h-4.79V376.36Z"/><rect class="cls-7" x="391.91" y="310.33" width="0.99" height="89.73"/><circle class="cls-8" cx="486.08" cy="326.6" r="22.19"/><polygon class="cls-6" points="467.06 338.02 486.08 373.66 506.1 336.16 467.06 338.02"/><circle class="cls-10" cx="486.08" cy="326.6" r="13.31"/></svg>