<svg id="Calque_1" data-name="Calque 1" xmlns="http://www.w3.org/2000/svg" viewBox="0 0 600 407"><defs><style>.cls-1{fill:#d0d0ce;}.cls-2{fill:#98bc62;}.cls-3{fill:none;stroke:#13322b;stroke-miterlimit:10;}.cls-4,.cls-6{fill:#88b04b;}.cls-4{fill-rule:evenodd;}.cls-5{fill:#13322b;}.cls-7{fill:#bfd833;}.cls-8{isolation:isolate;}.cls-9{fill:#fff;}</style></defs><rect class="cls-1" x="59.91" y="211.51" width="3.94" height="3.94"/><rect class="cls-1" x="67.8" y="211.51" width="3.94" height="3.94"/><rect class="cls-1" x="59.91" y="203.62" width="3.94" height="3.94"/><rect class="cls-1" x="67.8" y="203.62" width="3.94" height="3.94"/><rect class="cls-1" x="67.8" y="219.4" width="3.94" height="3.94"/><rect class="cls-2" x="58.3" y="225.68" width="7.16" height="7.16"/><rect class="cls-1" x="67.8" y="227.29" width="3.94" height="3.94"/><rect class="cls-1" x="59.91" y="235.18" width="3.94" height="3.94"/><rect class="cls-1" x="67.8" y="235.18" width="3.94" height="3.94"/><rect class="cls-1" x="59.91" y="243.07" width="3.94" height="3.94"/><rect class="cls-1" x="67.8" y="243.07" width="3.94" height="3.94"/><rect class="cls-1" x="75.68" y="211.51" width="3.94" height="3.94"/><rect class="cls-1" x="75.68" y="219.4" width="3.94" height="3.94"/><rect class="cls-1" x="83.57" y="211.51" width="3.94" height="3.94"/><rect class="cls-1" x="75.68" y="203.62" width="3.94" height="3.94"/><rect class="cls-1" x="83.57" y="203.62" width="3.94" height="3.94"/><rect class="cls-1" x="83.57" y="219.4" width="3.94" height="3.94"/><rect class="cls-1" x="75.68" y="227.29" width="3.94" height="3.94"/><rect class="cls-1" x="83.57" y="227.29" width="3.94" height="3.94"/><rect class="cls-1" x="75.68" y="235.18" width="3.94" height="3.94"/><rect class="cls-1" x="83.57" y="235.18" width="3.94" height="3.94"/><rect class="cls-1" x="75.68" y="243.07" width="3.94" height="3.94"/><rect class="cls-1" x="83.57" y="243.07" width="3.94" height="3.94"/><rect class="cls-1" x="91.46" y="211.51" width="3.94" height="3.94"/><rect class="cls-1" x="91.46" y="203.62" width="3.94" height="3.94"/><rect class="cls-1" x="91.46" y="219.4" width="3.94" height="3.94"/><rect class="cls-1" x="91.46" y="227.29" width="3.94" height="3.94"/><rect class="cls-1" x="91.46" y="235.18" width="3.94" height="3.94"/><rect class="cls-1" x="91.46" y="243.07" width="3.94" height="3.94"/><rect class="cls-1" x="99.35" y="211.51" width="3.94" height="3.94"/><rect class="cls-1" x="99.35" y="219.4" width="3.94" height="3.94"/><rect class="cls-1" x="99.35" y="203.62" width="3.94" height="3.94"/><rect class="cls-1" x="107.24" y="203.62" width="3.94" height="3.94"/><rect class="cls-1" x="107.24" y="219.4" width="3.94" height="3.94"/><rect class="cls-1" x="99.35" y="227.29" width="3.94" height="3.94"/><rect class="cls-1" x="107.24" y="227.29" width="3.94" height="3.94"/><rect class="cls-1" x="99.35" y="235.18" width="3.94" height="3.94"/><rect class="cls-1" x="107.24" y="235.18" width="3.94" height="3.94"/><rect class="cls-1" x="99.35" y="243.07" width="3.94" height="3.94"/><rect class="cls-1" x="107.24" y="243.07" width="3.94" height="3.94"/><rect class="cls-1" x="4.69" y="195.73" width="3.94" height="3.94"/><rect class="cls-1" x="12.57" y="195.73" width="3.94" height="3.94"/><rect class="cls-1" x="28.35" y="164.18" width="3.94" height="3.94"/><rect class="cls-1" x="20.46" y="156.29" width="3.94" height="3.94"/><rect class="cls-1" x="28.35" y="172.07" width="3.94" height="3.94"/><rect class="cls-1" x="28.35" y="179.96" width="3.94" height="3.94"/><rect class="cls-1" x="20.46" y="187.84" width="3.94" height="3.94"/><rect class="cls-1" x="28.35" y="187.84" width="3.94" height="3.94"/><rect class="cls-1" x="36.24" y="164.18" width="3.94" height="3.94"/><rect class="cls-1" x="36.24" y="156.29" width="3.94" height="3.94"/><rect class="cls-1" x="36.24" y="172.07" width="3.94" height="3.94"/><rect class="cls-1" x="36.24" y="179.96" width="3.94" height="3.94"/><rect class="cls-1" x="44.13" y="164.18" width="3.94" height="3.94"/><rect class="cls-1" x="44.13" y="172.07" width="3.94" height="3.94"/><rect class="cls-1" x="52.02" y="164.18" width="3.94" height="3.94"/><rect class="cls-1" x="44.13" y="156.29" width="3.94" height="3.94"/><rect class="cls-1" x="52.02" y="156.29" width="3.94" height="3.94"/><rect class="cls-1" x="52.02" y="172.07" width="3.94" height="3.94"/><rect class="cls-1" x="52.02" y="179.96" width="3.94" height="3.94"/><rect class="cls-1" x="59.91" y="164.18" width="3.94" height="3.94"/><rect class="cls-1" x="59.91" y="172.07" width="3.94" height="3.94"/><rect class="cls-1" x="67.8" y="164.18" width="3.94" height="3.94"/><rect class="cls-1" x="59.91" y="156.29" width="3.94" height="3.94"/><rect class="cls-1" x="67.8" y="156.29" width="3.94" height="3.94"/><rect class="cls-1" x="67.8" y="172.07" width="3.94" height="3.94"/><rect class="cls-1" x="59.91" y="179.96" width="3.94" height="3.94"/><rect class="cls-1" x="67.8" y="179.96" width="3.94" height="3.94"/><rect class="cls-1" x="59.91" y="187.84" width="3.94" height="3.94"/><rect class="cls-1" x="67.8" y="187.84" width="3.94" height="3.94"/><rect class="cls-1" x="59.91" y="195.73" width="3.94" height="3.94"/><rect class="cls-1" x="67.8" y="195.73" width="3.94" height="3.94"/><rect class="cls-1" x="75.68" y="164.18" width="3.94" height="3.94"/><rect class="cls-1" x="75.68" y="172.07" width="3.94" height="3.94"/><rect class="cls-1" x="75.68" y="156.29" width="3.94" height="3.94"/><rect class="cls-1" x="83.57" y="156.29" width="3.94" height="3.94"/><rect class="cls-1" x="83.57" y="172.07" width="3.94" height="3.94"/><rect class="cls-1" x="75.68" y="179.96" width="3.94" height="3.94"/><rect class="cls-1" x="83.57" y="179.96" width="3.94" height="3.94"/><rect class="cls-1" x="75.68" y="187.84" width="3.94" height="3.94"/><rect class="cls-1" x="83.57" y="187.84" width="3.94" height="3.94"/><rect class="cls-1" x="75.68" y="195.73" width="3.94" height="3.94"/><rect class="cls-1" x="83.57" y="195.73" width="3.94" height="3.94"/><rect class="cls-1" x="91.46" y="164.18" width="3.94" height="3.94"/><rect class="cls-1" x="91.46" y="156.29" width="3.94" height="3.94"/><rect class="cls-1" x="91.46" y="172.07" width="3.94" height="3.94"/><rect class="cls-1" x="91.46" y="187.84" width="3.94" height="3.94"/><rect class="cls-1" x="91.46" y="195.73" width="3.94" height="3.94"/><rect class="cls-1" x="99.35" y="164.18" width="3.94" height="3.94"/><rect class="cls-1" x="99.35" y="172.07" width="3.94" height="3.94"/><rect class="cls-1" x="99.35" y="156.29" width="3.94" height="3.94"/><rect class="cls-1" x="107.24" y="156.29" width="3.94" height="3.94"/><rect class="cls-1" x="107.24" y="172.07" width="3.94" height="3.94"/><rect class="cls-1" x="99.35" y="179.96" width="3.94" height="3.94"/><rect class="cls-1" x="107.24" y="179.96" width="3.94" height="3.94"/><rect class="cls-1" x="99.35" y="187.84" width="3.94" height="3.94"/><rect class="cls-1" x="107.24" y="187.84" width="3.94" height="3.94"/><rect class="cls-1" x="99.35" y="195.73" width="3.94" height="3.94"/><rect class="cls-1" x="107.24" y="195.73" width="3.94" height="3.94"/><rect class="cls-1" x="115.13" y="211.51" width="3.94" height="3.94"/><rect class="cls-1" x="123.02" y="211.51" width="3.94" height="3.94"/><rect class="cls-1" x="115.13" y="203.62" width="3.94" height="3.94"/><rect class="cls-1" x="123.02" y="203.62" width="3.94" height="3.94"/><rect class="cls-1" x="123.02" y="219.4" width="3.94" height="3.94"/><rect class="cls-1" x="115.13" y="227.29" width="3.94" height="3.94"/><rect class="cls-1" x="115.13" y="235.18" width="3.94" height="3.94"/><rect class="cls-1" x="123.02" y="235.18" width="3.94" height="3.94"/><rect class="cls-1" x="115.13" y="243.07" width="3.94" height="3.94"/><rect class="cls-1" x="123.02" y="243.07" width="3.94" height="3.94"/><rect class="cls-1" x="130.9" y="211.51" width="3.94" height="3.94"/><rect class="cls-1" x="130.9" y="219.4" width="3.94" height="3.94"/><rect class="cls-1" x="138.79" y="211.51" width="3.94" height="3.94"/><rect class="cls-1" x="138.79" y="203.62" width="3.94" height="3.94"/><rect class="cls-1" x="138.79" y="219.4" width="3.94" height="3.94"/><rect class="cls-1" x="130.9" y="227.29" width="3.94" height="3.94"/><rect class="cls-1" x="138.79" y="227.29" width="3.94" height="3.94"/><rect class="cls-1" x="130.9" y="235.18" width="3.94" height="3.94"/><rect class="cls-1" x="138.79" y="235.18" width="3.94" height="3.94"/><rect class="cls-2" x="129.3" y="241.46" width="7.16" height="7.16"/><rect class="cls-1" x="146.68" y="211.51" width="3.94" height="3.94"/><rect class="cls-1" x="146.68" y="203.62" width="3.94" height="3.94"/><rect class="cls-1" x="146.68" y="227.29" width="3.94" height="3.94"/><rect class="cls-1" x="154.57" y="211.51" width="3.94" height="3.94"/><rect class="cls-1" x="154.57" y="219.4" width="3.94" height="3.94"/><rect class="cls-1" x="162.46" y="211.51" width="3.94" height="3.94"/><rect class="cls-1" x="154.57" y="203.62" width="3.94" height="3.94"/><rect class="cls-1" x="162.46" y="219.4" width="3.94" height="3.94"/><rect class="cls-1" x="67.8" y="258.84" width="3.94" height="3.94"/><rect class="cls-1" x="67.8" y="250.95" width="3.94" height="3.94"/><rect class="cls-1" x="75.68" y="266.73" width="3.94" height="3.94"/><rect class="cls-1" x="83.57" y="258.84" width="3.94" height="3.94"/><rect class="cls-1" x="75.68" y="250.95" width="3.94" height="3.94"/><rect class="cls-1" x="83.57" y="250.95" width="3.94" height="3.94"/><rect class="cls-1" x="83.57" y="266.73" width="3.94" height="3.94"/><rect class="cls-1" x="83.57" y="274.62" width="3.94" height="3.94"/><rect class="cls-1" x="91.46" y="258.84" width="3.94" height="3.94"/><rect class="cls-1" x="91.46" y="250.95" width="3.94" height="3.94"/><rect class="cls-1" x="91.46" y="266.73" width="3.94" height="3.94"/><rect class="cls-1" x="91.46" y="274.62" width="3.94" height="3.94"/><rect class="cls-1" x="99.35" y="250.95" width="3.94" height="3.94"/><rect class="cls-1" x="107.24" y="250.95" width="3.94" height="3.94"/><rect class="cls-1" x="99.35" y="274.62" width="3.94" height="3.94"/><rect class="cls-1" x="107.24" y="274.62" width="3.94" height="3.94"/><rect class="cls-1" x="99.35" y="282.51" width="3.94" height="3.94"/><rect class="cls-1" x="107.24" y="282.51" width="3.94" height="3.94"/><rect class="cls-1" x="115.13" y="258.84" width="3.94" height="3.94"/><rect class="cls-1" x="115.13" y="266.73" width="3.94" height="3.94"/><rect class="cls-1" x="115.13" y="250.95" width="3.94" height="3.94"/><rect class="cls-1" x="123.02" y="250.95" width="3.94" height="3.94"/><rect class="cls-1" x="123.02" y="266.73" width="3.94" height="3.94"/><rect class="cls-1" x="123.02" y="274.62" width="3.94" height="3.94"/><rect class="cls-1" x="115.13" y="282.51" width="3.94" height="3.94"/><rect class="cls-1" x="115.13" y="290.4" width="3.94" height="3.94"/><rect class="cls-1" x="123.02" y="290.4" width="3.94" height="3.94"/><rect class="cls-1" x="130.9" y="274.62" width="3.94" height="3.94"/><rect class="cls-1" x="138.79" y="274.62" width="3.94" height="3.94"/><rect class="cls-1" x="130.9" y="290.4" width="3.94" height="3.94"/><rect class="cls-1" x="138.79" y="290.4" width="3.94" height="3.94"/><rect class="cls-1" x="146.68" y="290.4" width="3.94" height="3.94"/><rect class="cls-1" x="154.57" y="290.4" width="3.94" height="3.94"/><rect class="cls-2" x="216.07" y="257.24" width="7.16" height="7.16"/><rect class="cls-1" x="217.68" y="266.73" width="3.94" height="3.94"/><rect class="cls-1" x="209.79" y="274.62" width="3.94" height="3.94"/><rect class="cls-1" x="217.68" y="274.62" width="3.94" height="3.94"/><rect class="cls-1" x="209.79" y="282.51" width="3.94" height="3.94"/><rect class="cls-1" x="217.68" y="282.51" width="3.94" height="3.94"/><rect class="cls-1" x="217.68" y="290.4" width="3.94" height="3.94"/><rect class="cls-1" x="115.13" y="164.18" width="3.94" height="3.94"/><rect class="cls-1" x="115.13" y="172.07" width="3.94" height="3.94"/><rect class="cls-1" x="123.02" y="164.18" width="3.94" height="3.94"/><rect class="cls-1" x="123.02" y="156.29" width="3.94" height="3.94"/><rect class="cls-1" x="123.02" y="172.07" width="3.94" height="3.94"/><rect class="cls-1" x="115.13" y="179.96" width="3.94" height="3.94"/><rect class="cls-1" x="123.02" y="179.96" width="3.94" height="3.94"/><rect class="cls-1" x="115.13" y="187.84" width="3.94" height="3.94"/><rect class="cls-1" x="115.13" y="195.73" width="3.94" height="3.94"/><rect class="cls-1" x="130.9" y="172.07" width="3.94" height="3.94"/><rect class="cls-1" x="138.79" y="164.18" width="3.94" height="3.94"/><rect class="cls-1" x="130.9" y="156.29" width="3.94" height="3.94"/><rect class="cls-1" x="138.79" y="156.29" width="3.94" height="3.94"/><rect class="cls-1" x="130.9" y="179.96" width="3.94" height="3.94"/><rect class="cls-1" x="138.79" y="179.96" width="3.94" height="3.94"/><rect class="cls-1" x="138.79" y="187.84" width="3.94" height="3.94"/><rect class="cls-1" x="138.79" y="195.73" width="3.94" height="3.94"/><rect class="cls-1" x="146.68" y="164.18" width="3.94" height="3.94"/><rect class="cls-1" x="146.68" y="156.29" width="3.94" height="3.94"/><rect class="cls-1" x="146.68" y="172.07" width="3.94" height="3.94"/><rect class="cls-1" x="146.68" y="179.96" width="3.94" height="3.94"/><rect class="cls-1" x="146.68" y="195.73" width="3.94" height="3.94"/><rect class="cls-1" x="154.57" y="164.18" width="3.94" height="3.94"/><rect class="cls-1" x="154.57" y="172.07" width="3.94" height="3.94"/><rect class="cls-1" x="154.57" y="179.96" width="3.94" height="3.94"/><rect class="cls-2" x="152.96" y="186.24" width="7.16" height="7.16"/><rect class="cls-1" x="154.57" y="195.73" width="3.94" height="3.94"/><rect class="cls-1" x="178.24" y="164.18" width="3.94" height="3.94"/><rect class="cls-1" x="178.24" y="156.29" width="3.94" height="3.94"/><rect class="cls-1" x="178.24" y="172.07" width="3.94" height="3.94"/><rect class="cls-1" x="170.35" y="179.96" width="3.94" height="3.94"/><rect class="cls-1" x="178.24" y="179.96" width="3.94" height="3.94"/><rect class="cls-1" x="170.35" y="187.84" width="3.94" height="3.94"/><rect class="cls-1" x="178.24" y="187.84" width="3.94" height="3.94"/><rect class="cls-1" x="178.24" y="195.73" width="3.94" height="3.94"/><rect class="cls-1" x="186.12" y="164.18" width="3.94" height="3.94"/><rect class="cls-1" x="186.12" y="172.07" width="3.94" height="3.94"/><rect class="cls-1" x="194.01" y="164.18" width="3.94" height="3.94"/><rect class="cls-1" x="186.12" y="156.29" width="3.94" height="3.94"/><rect class="cls-1" x="194.01" y="156.29" width="3.94" height="3.94"/><rect class="cls-1" x="194.01" y="172.07" width="3.94" height="3.94"/><rect class="cls-1" x="186.12" y="179.96" width="3.94" height="3.94"/><rect class="cls-1" x="194.01" y="179.96" width="3.94" height="3.94"/><rect class="cls-1" x="186.12" y="187.84" width="3.94" height="3.94"/><rect class="cls-1" x="201.9" y="164.18" width="3.94" height="3.94"/><rect class="cls-1" x="201.9" y="156.29" width="3.94" height="3.94"/><rect class="cls-1" x="201.9" y="172.07" width="3.94" height="3.94"/><rect class="cls-1" x="209.79" y="164.18" width="3.94" height="3.94"/><rect class="cls-1" x="209.79" y="172.07" width="3.94" height="3.94"/><rect class="cls-1" x="217.68" y="156.29" width="3.94" height="3.94"/><rect class="cls-1" x="209.79" y="187.84" width="3.94" height="3.94"/><rect class="cls-1" x="217.68" y="187.84" width="3.94" height="3.94"/><rect class="cls-1" x="217.68" y="179.96" width="3.94" height="3.94"/><rect class="cls-1" x="28.35" y="148.4" width="3.94" height="3.94"/><rect class="cls-1" x="36.24" y="148.4" width="3.94" height="3.94"/><rect class="cls-1" x="44.13" y="140.51" width="3.94" height="3.94"/><rect class="cls-1" x="52.02" y="140.51" width="3.94" height="3.94"/><rect class="cls-1" x="44.13" y="148.4" width="3.94" height="3.94"/><rect class="cls-1" x="52.02" y="148.4" width="3.94" height="3.94"/><rect class="cls-1" x="59.91" y="140.51" width="3.94" height="3.94"/><rect class="cls-1" x="59.91" y="148.4" width="3.94" height="3.94"/><rect class="cls-1" x="67.8" y="148.4" width="3.94" height="3.94"/><rect class="cls-1" x="75.68" y="148.4" width="3.94" height="3.94"/><rect class="cls-1" x="107.24" y="132.62" width="3.94" height="3.94"/><rect class="cls-1" x="99.35" y="140.51" width="3.94" height="3.94"/><rect class="cls-1" x="107.24" y="140.51" width="3.94" height="3.94"/><rect class="cls-1" x="99.35" y="148.4" width="3.94" height="3.94"/><rect class="cls-1" x="107.24" y="148.4" width="3.94" height="3.94"/><rect class="cls-1" x="115.13" y="124.74" width="3.94" height="3.94"/><rect class="cls-1" x="123.02" y="124.74" width="3.94" height="3.94"/><rect class="cls-1" x="115.13" y="132.62" width="3.94" height="3.94"/><rect class="cls-1" x="123.02" y="132.62" width="3.94" height="3.94"/><rect class="cls-1" x="115.13" y="148.4" width="3.94" height="3.94"/><rect class="cls-1" x="123.02" y="148.4" width="3.94" height="3.94"/><rect class="cls-1" x="138.79" y="124.74" width="3.94" height="3.94"/><rect class="cls-1" x="138.79" y="132.62" width="3.94" height="3.94"/><rect class="cls-1" x="130.9" y="140.51" width="3.94" height="3.94"/><rect class="cls-1" x="138.79" y="140.51" width="3.94" height="3.94"/><rect class="cls-1" x="130.9" y="148.4" width="3.94" height="3.94"/><rect class="cls-1" x="146.68" y="124.74" width="3.94" height="3.94"/><rect class="cls-1" x="146.68" y="140.51" width="3.94" height="3.94"/><rect class="cls-1" x="146.68" y="148.4" width="3.94" height="3.94"/><rect class="cls-1" x="154.57" y="116.85" width="3.94" height="3.94"/><rect class="cls-1" x="154.57" y="124.74" width="3.94" height="3.94"/><rect class="cls-1" x="162.46" y="116.85" width="3.94" height="3.94"/><rect class="cls-1" x="162.46" y="124.74" width="3.94" height="3.94"/><rect class="cls-1" x="154.57" y="132.62" width="3.94" height="3.94"/><rect class="cls-1" x="154.57" y="140.51" width="3.94" height="3.94"/><rect class="cls-1" x="162.46" y="140.51" width="3.94" height="3.94"/><rect class="cls-1" x="170.35" y="116.85" width="3.94" height="3.94"/><rect class="cls-1" x="178.24" y="116.85" width="3.94" height="3.94"/><rect class="cls-1" x="178.24" y="124.74" width="3.94" height="3.94"/><rect class="cls-1" x="170.35" y="132.62" width="3.94" height="3.94"/><rect class="cls-1" x="178.24" y="132.62" width="3.94" height="3.94"/><rect class="cls-1" x="170.35" y="140.51" width="3.94" height="3.94"/><rect class="cls-1" x="178.24" y="140.51" width="3.94" height="3.94"/><rect class="cls-1" x="170.35" y="148.4" width="3.94" height="3.94"/><rect class="cls-1" x="178.24" y="148.4" width="3.94" height="3.94"/><rect class="cls-1" x="186.12" y="124.74" width="3.94" height="3.94"/><rect class="cls-1" x="194.01" y="124.74" width="3.94" height="3.94"/><rect class="cls-1" x="186.12" y="132.62" width="3.94" height="3.94"/><rect class="cls-1" x="194.01" y="132.62" width="3.94" height="3.94"/><rect class="cls-1" x="186.12" y="140.51" width="3.94" height="3.94"/><rect class="cls-1" x="194.01" y="140.51" width="3.94" height="3.94"/><rect class="cls-1" x="186.12" y="148.4" width="3.94" height="3.94"/><rect class="cls-1" x="194.01" y="148.4" width="3.94" height="3.94"/><rect class="cls-1" x="201.9" y="116.85" width="3.94" height="3.94"/><rect class="cls-1" x="201.9" y="124.74" width="3.94" height="3.94"/><rect class="cls-1" x="201.9" y="132.62" width="3.94" height="3.94"/><rect class="cls-1" x="201.9" y="140.51" width="3.94" height="3.94"/><rect class="cls-1" x="201.9" y="148.4" width="3.94" height="3.94"/><rect class="cls-1" x="209.79" y="116.85" width="3.94" height="3.94"/><rect class="cls-1" x="217.68" y="124.74" width="3.94" height="3.94"/><rect class="cls-1" x="209.79" y="132.62" width="3.94" height="3.94"/><rect class="cls-1" x="217.68" y="132.62" width="3.94" height="3.94"/><rect class="cls-1" x="209.79" y="140.51" width="3.94" height="3.94"/><rect class="cls-1" x="217.68" y="140.51" width="3.94" height="3.94"/><rect class="cls-1" x="209.79" y="148.4" width="3.94" height="3.94"/><rect class="cls-1" x="217.68" y="148.4" width="3.94" height="3.94"/><rect class="cls-1" x="225.57" y="211.51" width="3.94" height="3.94"/><rect class="cls-1" x="225.57" y="219.4" width="3.94" height="3.94"/><rect class="cls-1" x="233.46" y="211.51" width="3.94" height="3.94"/><rect class="cls-1" x="233.46" y="203.62" width="3.94" height="3.94"/><rect class="cls-1" x="233.46" y="219.4" width="3.94" height="3.94"/><rect class="cls-1" x="233.46" y="227.29" width="3.94" height="3.94"/><rect class="cls-1" x="225.57" y="235.18" width="3.94" height="3.94"/><rect class="cls-1" x="233.46" y="235.18" width="3.94" height="3.94"/><rect class="cls-1" x="225.57" y="243.07" width="3.94" height="3.94"/><rect class="cls-1" x="241.34" y="219.4" width="3.94" height="3.94"/><rect class="cls-1" x="249.23" y="211.51" width="3.94" height="3.94"/><rect class="cls-1" x="249.23" y="219.4" width="3.94" height="3.94"/><rect class="cls-1" x="241.34" y="227.29" width="3.94" height="3.94"/><rect class="cls-1" x="249.23" y="227.29" width="3.94" height="3.94"/><rect class="cls-1" x="241.34" y="235.18" width="3.94" height="3.94"/><rect class="cls-1" x="249.23" y="243.07" width="3.94" height="3.94"/><rect class="cls-1" x="257.12" y="211.51" width="3.94" height="3.94"/><rect class="cls-2" x="255.52" y="217.79" width="7.16" height="7.16"/><rect class="cls-1" x="265.01" y="211.51" width="3.94" height="3.94"/><rect class="cls-1" x="265.01" y="203.62" width="3.94" height="3.94"/><rect class="cls-1" x="265.01" y="219.4" width="3.94" height="3.94"/><rect class="cls-1" x="257.12" y="227.29" width="3.94" height="3.94"/><rect class="cls-1" x="265.01" y="227.29" width="3.94" height="3.94"/><rect class="cls-1" x="257.12" y="235.18" width="3.94" height="3.94"/><rect class="cls-1" x="265.01" y="235.18" width="3.94" height="3.94"/><rect class="cls-1" x="257.12" y="243.07" width="3.94" height="3.94"/><rect class="cls-1" x="272.9" y="211.51" width="3.94" height="3.94"/><rect class="cls-1" x="272.9" y="203.62" width="3.94" height="3.94"/><rect class="cls-1" x="272.9" y="219.4" width="3.94" height="3.94"/><rect class="cls-1" x="272.9" y="227.29" width="3.94" height="3.94"/><rect class="cls-1" x="272.9" y="235.18" width="3.94" height="3.94"/><rect class="cls-1" x="280.79" y="211.51" width="3.94" height="3.94"/><rect class="cls-1" x="280.79" y="219.4" width="3.94" height="3.94"/><rect class="cls-1" x="288.68" y="211.51" width="3.94" height="3.94"/><rect class="cls-1" x="280.79" y="203.62" width="3.94" height="3.94"/><rect class="cls-1" x="288.68" y="203.62" width="3.94" height="3.94"/><rect class="cls-1" x="288.68" y="219.4" width="3.94" height="3.94"/><rect class="cls-1" x="280.79" y="227.29" width="3.94" height="3.94"/><rect class="cls-1" x="288.68" y="227.29" width="3.94" height="3.94"/><rect class="cls-1" x="280.79" y="243.07" width="3.94" height="3.94"/><rect class="cls-1" x="288.68" y="243.07" width="3.94" height="3.94"/><rect class="cls-1" x="249.23" y="187.84" width="3.94" height="3.94"/><rect class="cls-1" x="249.23" y="195.73" width="3.94" height="3.94"/><rect class="cls-1" x="265.01" y="172.07" width="3.94" height="3.94"/><rect class="cls-1" x="257.12" y="179.96" width="3.94" height="3.94"/><rect class="cls-1" x="265.01" y="179.96" width="3.94" height="3.94"/><rect class="cls-1" x="257.12" y="187.84" width="3.94" height="3.94"/><rect class="cls-1" x="257.12" y="195.73" width="3.94" height="3.94"/><rect class="cls-1" x="272.9" y="172.07" width="3.94" height="3.94"/><rect class="cls-1" x="272.9" y="179.96" width="3.94" height="3.94"/><rect class="cls-1" x="272.9" y="187.84" width="3.94" height="3.94"/><rect class="cls-1" x="272.9" y="195.73" width="3.94" height="3.94"/><rect class="cls-1" x="280.79" y="179.96" width="3.94" height="3.94"/><rect class="cls-1" x="288.68" y="179.96" width="3.94" height="3.94"/><rect class="cls-1" x="280.79" y="187.84" width="3.94" height="3.94"/><rect class="cls-1" x="288.68" y="187.84" width="3.94" height="3.94"/><rect class="cls-1" x="280.79" y="195.73" width="3.94" height="3.94"/><rect class="cls-1" x="288.68" y="195.73" width="3.94" height="3.94"/><rect class="cls-1" x="296.56" y="211.51" width="3.94" height="3.94"/><rect class="cls-1" x="296.56" y="219.4" width="3.94" height="3.94"/><rect class="cls-1" x="304.45" y="211.51" width="3.94" height="3.94"/><rect class="cls-1" x="296.56" y="203.62" width="3.94" height="3.94"/><rect class="cls-1" x="304.45" y="203.62" width="3.94" height="3.94"/><rect class="cls-1" x="304.45" y="219.4" width="3.94" height="3.94"/><rect class="cls-1" x="296.56" y="227.29" width="3.94" height="3.94"/><rect class="cls-1" x="296.56" y="235.18" width="3.94" height="3.94"/><rect class="cls-1" x="304.45" y="235.18" width="3.94" height="3.94"/><rect class="cls-1" x="296.56" y="243.07" width="3.94" height="3.94"/><rect class="cls-1" x="304.45" y="243.07" width="3.94" height="3.94"/><rect class="cls-1" x="312.34" y="211.51" width="3.94" height="3.94"/><rect class="cls-1" x="312.34" y="219.4" width="3.94" height="3.94"/><rect class="cls-1" x="320.23" y="211.51" width="3.94" height="3.94"/><rect class="cls-1" x="312.34" y="203.62" width="3.94" height="3.94"/><rect class="cls-1" x="320.23" y="203.62" width="3.94" height="3.94"/><rect class="cls-1" x="320.23" y="219.4" width="3.94" height="3.94"/><rect class="cls-2" x="310.74" y="225.68" width="7.16" height="7.16"/><rect class="cls-1" x="320.23" y="227.29" width="3.94" height="3.94"/><rect class="cls-1" x="320.23" y="235.18" width="3.94" height="3.94"/><rect class="cls-1" x="320.23" y="243.07" width="3.94" height="3.94"/><rect class="cls-1" x="328.12" y="211.51" width="3.94" height="3.94"/><rect class="cls-1" x="328.12" y="203.62" width="3.94" height="3.94"/><rect class="cls-1" x="328.12" y="219.4" width="3.94" height="3.94"/><rect class="cls-1" x="328.12" y="227.29" width="3.94" height="3.94"/><rect class="cls-1" x="328.12" y="235.18" width="3.94" height="3.94"/><rect class="cls-1" x="328.12" y="243.07" width="3.94" height="3.94"/><rect class="cls-1" x="336.01" y="211.51" width="3.94" height="3.94"/><rect class="cls-1" x="336.01" y="219.4" width="3.94" height="3.94"/><rect class="cls-1" x="343.9" y="211.51" width="3.94" height="3.94"/><rect class="cls-1" x="336.01" y="203.62" width="3.94" height="3.94"/><rect class="cls-1" x="343.9" y="203.62" width="3.94" height="3.94"/><rect class="cls-1" x="343.9" y="219.4" width="3.94" height="3.94"/><rect class="cls-1" x="336.01" y="227.29" width="3.94" height="3.94"/><rect class="cls-1" x="343.9" y="227.29" width="3.94" height="3.94"/><rect class="cls-1" x="336.01" y="235.18" width="3.94" height="3.94"/><rect class="cls-1" x="343.9" y="235.18" width="3.94" height="3.94"/><rect class="cls-1" x="336.01" y="243.07" width="3.94" height="3.94"/><rect class="cls-1" x="343.9" y="243.07" width="3.94" height="3.94"/><rect class="cls-1" x="351.79" y="211.51" width="3.94" height="3.94"/><rect class="cls-1" x="351.79" y="219.4" width="3.94" height="3.94"/><rect class="cls-1" x="359.67" y="211.51" width="3.94" height="3.94"/><rect class="cls-1" x="351.79" y="203.62" width="3.94" height="3.94"/><rect class="cls-1" x="359.67" y="203.62" width="3.94" height="3.94"/><rect class="cls-1" x="359.67" y="219.4" width="3.94" height="3.94"/><rect class="cls-1" x="351.79" y="227.29" width="3.94" height="3.94"/><rect class="cls-1" x="359.67" y="227.29" width="3.94" height="3.94"/><rect class="cls-1" x="351.79" y="235.18" width="3.94" height="3.94"/><rect class="cls-1" x="359.67" y="235.18" width="3.94" height="3.94"/><rect class="cls-1" x="351.79" y="243.07" width="3.94" height="3.94"/><rect class="cls-1" x="359.67" y="243.07" width="3.94" height="3.94"/><rect class="cls-1" x="367.56" y="211.51" width="3.94" height="3.94"/><rect class="cls-1" x="367.56" y="219.4" width="3.94" height="3.94"/><rect class="cls-1" x="375.45" y="211.51" width="3.94" height="3.94"/><rect class="cls-1" x="367.56" y="203.62" width="3.94" height="3.94"/><rect class="cls-1" x="375.45" y="203.62" width="3.94" height="3.94"/><rect class="cls-1" x="375.45" y="219.4" width="3.94" height="3.94"/><rect class="cls-1" x="367.56" y="227.29" width="3.94" height="3.94"/><rect class="cls-1" x="375.45" y="227.29" width="3.94" height="3.94"/><rect class="cls-1" x="367.56" y="235.18" width="3.94" height="3.94"/><rect class="cls-1" x="375.45" y="235.18" width="3.94" height="3.94"/><rect class="cls-1" x="367.56" y="243.07" width="3.94" height="3.94"/><rect class="cls-1" x="375.45" y="243.07" width="3.94" height="3.94"/><rect class="cls-1" x="383.34" y="211.51" width="3.94" height="3.94"/><rect class="cls-1" x="383.34" y="219.4" width="3.94" height="3.94"/><rect class="cls-1" x="383.34" y="227.29" width="3.94" height="3.94"/><rect class="cls-1" x="383.34" y="235.18" width="3.94" height="3.94"/><rect class="cls-1" x="383.34" y="243.07" width="3.94" height="3.94"/><rect class="cls-1" x="391.23" y="211.51" width="3.94" height="3.94"/><rect class="cls-1" x="391.23" y="219.4" width="3.94" height="3.94"/><rect class="cls-1" x="399.12" y="211.51" width="3.94" height="3.94"/><rect class="cls-1" x="391.23" y="203.62" width="3.94" height="3.94"/><rect class="cls-1" x="399.12" y="203.62" width="3.94" height="3.94"/><rect class="cls-1" x="399.12" y="219.4" width="3.94" height="3.94"/><rect class="cls-1" x="391.23" y="227.29" width="3.94" height="3.94"/><rect class="cls-1" x="399.12" y="227.29" width="3.94" height="3.94"/><rect class="cls-1" x="391.23" y="235.18" width="3.94" height="3.94"/><rect class="cls-1" x="399.12" y="235.18" width="3.94" height="3.94"/><rect class="cls-1" x="391.23" y="243.07" width="3.94" height="3.94"/><rect class="cls-1" x="399.12" y="243.07" width="3.94" height="3.94"/><rect class="cls-1" x="225.57" y="258.84" width="3.94" height="3.94"/><rect class="cls-1" x="225.57" y="266.73" width="3.94" height="3.94"/><rect class="cls-1" x="233.46" y="258.84" width="3.94" height="3.94"/><rect class="cls-1" x="233.46" y="250.95" width="3.94" height="3.94"/><rect class="cls-1" x="233.46" y="266.73" width="3.94" height="3.94"/><rect class="cls-1" x="225.57" y="274.62" width="3.94" height="3.94"/><rect class="cls-1" x="233.46" y="274.62" width="3.94" height="3.94"/><rect class="cls-1" x="225.57" y="282.51" width="3.94" height="3.94"/><rect class="cls-1" x="233.46" y="282.51" width="3.94" height="3.94"/><rect class="cls-1" x="225.57" y="290.4" width="3.94" height="3.94"/><rect class="cls-1" x="233.46" y="290.4" width="3.94" height="3.94"/><rect class="cls-1" x="241.34" y="258.84" width="3.94" height="3.94"/><rect class="cls-1" x="241.34" y="266.73" width="3.94" height="3.94"/><rect class="cls-1" x="249.23" y="258.84" width="3.94" height="3.94"/><rect class="cls-1" x="241.34" y="250.95" width="3.94" height="3.94"/><rect class="cls-1" x="249.23" y="250.95" width="3.94" height="3.94"/><rect class="cls-1" x="249.23" y="266.73" width="3.94" height="3.94"/><rect class="cls-1" x="241.34" y="274.62" width="3.94" height="3.94"/><rect class="cls-1" x="249.23" y="274.62" width="3.94" height="3.94"/><rect class="cls-1" x="241.34" y="282.51" width="3.94" height="3.94"/><rect class="cls-1" x="249.23" y="282.51" width="3.94" height="3.94"/><rect class="cls-1" x="241.34" y="290.4" width="3.94" height="3.94"/><rect class="cls-1" x="249.23" y="290.4" width="3.94" height="3.94"/><rect class="cls-1" x="257.12" y="258.84" width="3.94" height="3.94"/><rect class="cls-1" x="257.12" y="266.73" width="3.94" height="3.94"/><rect class="cls-1" x="265.01" y="258.84" width="3.94" height="3.94"/><rect class="cls-1" x="257.12" y="250.95" width="3.94" height="3.94"/><rect class="cls-1" x="265.01" y="266.73" width="3.94" height="3.94"/><rect class="cls-1" x="257.12" y="274.62" width="3.94" height="3.94"/><rect class="cls-1" x="265.01" y="274.62" width="3.94" height="3.94"/><rect class="cls-1" x="257.12" y="282.51" width="3.94" height="3.94"/><rect class="cls-1" x="265.01" y="282.51" width="3.94" height="3.94"/><rect class="cls-1" x="257.12" y="290.4" width="3.94" height="3.94"/><rect class="cls-1" x="265.01" y="290.4" width="3.94" height="3.94"/><rect class="cls-1" x="272.9" y="258.84" width="3.94" height="3.94"/><rect class="cls-1" x="272.9" y="250.95" width="3.94" height="3.94"/><rect class="cls-1" x="272.9" y="266.73" width="3.94" height="3.94"/><rect class="cls-1" x="272.9" y="274.62" width="3.94" height="3.94"/><rect class="cls-1" x="272.9" y="282.51" width="3.94" height="3.94"/><rect class="cls-1" x="272.9" y="290.4" width="3.94" height="3.94"/><rect class="cls-1" x="280.79" y="258.84" width="3.94" height="3.94"/><rect class="cls-1" x="280.79" y="266.73" width="3.94" height="3.94"/><rect class="cls-1" x="288.68" y="258.84" width="3.94" height="3.94"/><rect class="cls-1" x="288.68" y="250.95" width="3.94" height="3.94"/><rect class="cls-1" x="280.79" y="274.62" width="3.94" height="3.94"/><rect class="cls-1" x="288.68" y="274.62" width="3.94" height="3.94"/><rect class="cls-1" x="280.79" y="282.51" width="3.94" height="3.94"/><rect class="cls-1" x="288.68" y="282.51" width="3.94" height="3.94"/><rect class="cls-1" x="280.79" y="290.4" width="3.94" height="3.94"/><rect class="cls-1" x="288.68" y="290.4" width="3.94" height="3.94"/><rect class="cls-1" x="296.56" y="258.84" width="3.94" height="3.94"/><rect class="cls-1" x="296.56" y="266.73" width="3.94" height="3.94"/><rect class="cls-1" x="304.45" y="258.84" width="3.94" height="3.94"/><rect class="cls-1" x="296.56" y="250.95" width="3.94" height="3.94"/><rect class="cls-1" x="304.45" y="250.95" width="3.94" height="3.94"/><rect class="cls-1" x="304.45" y="266.73" width="3.94" height="3.94"/><rect class="cls-1" x="304.45" y="274.62" width="3.94" height="3.94"/><rect class="cls-1" x="296.56" y="282.51" width="3.94" height="3.94"/><rect class="cls-1" x="296.56" y="290.4" width="3.94" height="3.94"/><rect class="cls-2" x="302.85" y="288.79" width="7.16" height="7.16"/><rect class="cls-1" x="312.34" y="266.73" width="3.94" height="3.94"/><rect class="cls-1" x="320.23" y="258.84" width="3.94" height="3.94"/><rect class="cls-1" x="312.34" y="250.95" width="3.94" height="3.94"/><rect class="cls-1" x="320.23" y="250.95" width="3.94" height="3.94"/><rect class="cls-2" x="318.62" y="265.13" width="7.16" height="7.16"/><rect class="cls-1" x="312.34" y="274.62" width="3.94" height="3.94"/><rect class="cls-1" x="320.23" y="274.62" width="3.94" height="3.94"/><rect class="cls-1" x="312.34" y="290.4" width="3.94" height="3.94"/><rect class="cls-1" x="328.12" y="258.84" width="3.94" height="3.94"/><rect class="cls-1" x="328.12" y="250.95" width="3.94" height="3.94"/><rect class="cls-1" x="336.01" y="258.84" width="3.94" height="3.94"/><rect class="cls-1" x="336.01" y="266.73" width="3.94" height="3.94"/><rect class="cls-1" x="343.9" y="258.84" width="3.94" height="3.94"/><rect class="cls-1" x="336.01" y="250.95" width="3.94" height="3.94"/><rect class="cls-1" x="343.9" y="250.95" width="3.94" height="3.94"/><rect class="cls-1" x="343.9" y="266.73" width="3.94" height="3.94"/><rect class="cls-1" x="343.9" y="274.62" width="3.94" height="3.94"/><rect class="cls-1" x="351.79" y="258.84" width="3.94" height="3.94"/><rect class="cls-1" x="351.79" y="266.73" width="3.94" height="3.94"/><rect class="cls-1" x="359.67" y="258.84" width="3.94" height="3.94"/><rect class="cls-1" x="351.79" y="250.95" width="3.94" height="3.94"/><rect class="cls-1" x="359.67" y="250.95" width="3.94" height="3.94"/><rect class="cls-1" x="359.67" y="266.73" width="3.94" height="3.94"/><rect class="cls-1" x="351.79" y="274.62" width="3.94" height="3.94"/><rect class="cls-1" x="359.67" y="274.62" width="3.94" height="3.94"/><rect class="cls-1" x="351.79" y="282.51" width="3.94" height="3.94"/><rect class="cls-1" x="359.67" y="282.51" width="3.94" height="3.94"/><rect class="cls-1" x="351.79" y="290.4" width="3.94" height="3.94"/><rect class="cls-1" x="367.56" y="258.84" width="3.94" height="3.94"/><rect class="cls-1" x="367.56" y="266.73" width="3.94" height="3.94"/><rect class="cls-1" x="375.45" y="258.84" width="3.94" height="3.94"/><rect class="cls-1" x="367.56" y="250.95" width="3.94" height="3.94"/><rect class="cls-1" x="375.45" y="250.95" width="3.94" height="3.94"/><rect class="cls-1" x="375.45" y="266.73" width="3.94" height="3.94"/><rect class="cls-2" x="373.84" y="273.01" width="7.16" height="7.16"/><rect class="cls-1" x="383.34" y="258.84" width="3.94" height="3.94"/><rect class="cls-1" x="383.34" y="250.95" width="3.94" height="3.94"/><rect class="cls-1" x="383.34" y="266.73" width="3.94" height="3.94"/><rect class="cls-1" x="383.34" y="274.62" width="3.94" height="3.94"/><rect class="cls-1" x="383.34" y="282.51" width="3.94" height="3.94"/><rect class="cls-1" x="383.34" y="290.4" width="3.94" height="3.94"/><rect class="cls-1" x="391.23" y="258.84" width="3.94" height="3.94"/><rect class="cls-1" x="391.23" y="266.73" width="3.94" height="3.94"/><rect class="cls-1" x="399.12" y="258.84" width="3.94" height="3.94"/><rect class="cls-1" x="391.23" y="250.95" width="3.94" height="3.94"/><rect class="cls-1" x="399.12" y="250.95" width="3.94" height="3.94"/><rect class="cls-1" x="399.12" y="266.73" width="3.94" height="3.94"/><rect class="cls-1" x="391.23" y="274.62" width="3.94" height="3.94"/><rect class="cls-1" x="399.12" y="274.62" width="3.94" height="3.94"/><rect class="cls-1" x="391.23" y="282.51" width="3.94" height="3.94"/><rect class="cls-1" x="399.12" y="282.51" width="3.94" height="3.94"/><rect class="cls-1" x="391.23" y="290.4" width="3.94" height="3.94"/><rect class="cls-1" x="296.56" y="164.18" width="3.94" height="3.94"/><rect class="cls-1" x="296.56" y="172.07" width="3.94" height="3.94"/><rect class="cls-1" x="296.56" y="156.29" width="3.94" height="3.94"/><rect class="cls-1" x="304.45" y="172.07" width="3.94" height="3.94"/><rect class="cls-1" x="296.56" y="179.96" width="3.94" height="3.94"/><rect class="cls-1" x="304.45" y="179.96" width="3.94" height="3.94"/><rect class="cls-1" x="296.56" y="187.84" width="3.94" height="3.94"/><rect class="cls-1" x="304.45" y="187.84" width="3.94" height="3.94"/><rect class="cls-1" x="296.56" y="195.73" width="3.94" height="3.94"/><rect class="cls-1" x="304.45" y="195.73" width="3.94" height="3.94"/><rect class="cls-1" x="312.34" y="164.18" width="3.94" height="3.94"/><rect class="cls-1" x="312.34" y="172.07" width="3.94" height="3.94"/><rect class="cls-1" x="320.23" y="164.18" width="3.94" height="3.94"/><rect class="cls-1" x="312.34" y="156.29" width="3.94" height="3.94"/><rect class="cls-1" x="320.23" y="156.29" width="3.94" height="3.94"/><rect class="cls-1" x="320.23" y="172.07" width="3.94" height="3.94"/><rect class="cls-1" x="312.34" y="179.96" width="3.94" height="3.94"/><rect class="cls-1" x="320.23" y="179.96" width="3.94" height="3.94"/><rect class="cls-1" x="312.34" y="187.84" width="3.94" height="3.94"/><rect class="cls-1" x="320.23" y="187.84" width="3.94" height="3.94"/><rect class="cls-1" x="312.34" y="195.73" width="3.94" height="3.94"/><rect class="cls-1" x="320.23" y="195.73" width="3.94" height="3.94"/><rect class="cls-1" x="328.12" y="164.18" width="3.94" height="3.94"/><rect class="cls-1" x="328.12" y="156.29" width="3.94" height="3.94"/><rect class="cls-1" x="328.12" y="172.07" width="3.94" height="3.94"/><rect class="cls-1" x="328.12" y="179.96" width="3.94" height="3.94"/><rect class="cls-1" x="328.12" y="187.84" width="3.94" height="3.94"/><rect class="cls-1" x="328.12" y="195.73" width="3.94" height="3.94"/><rect class="cls-1" x="336.01" y="164.18" width="3.94" height="3.94"/><rect class="cls-1" x="336.01" y="172.07" width="3.94" height="3.94"/><rect class="cls-1" x="343.9" y="164.18" width="3.94" height="3.94"/><rect class="cls-1" x="336.01" y="156.29" width="3.94" height="3.94"/><rect class="cls-1" x="343.9" y="156.29" width="3.94" height="3.94"/><rect class="cls-1" x="343.9" y="172.07" width="3.94" height="3.94"/><rect class="cls-1" x="336.01" y="179.96" width="3.94" height="3.94"/><rect class="cls-1" x="343.9" y="179.96" width="3.94" height="3.94"/><rect class="cls-1" x="336.01" y="187.84" width="3.94" height="3.94"/><rect class="cls-1" x="343.9" y="187.84" width="3.94" height="3.94"/><rect class="cls-1" x="336.01" y="195.73" width="3.94" height="3.94"/><rect class="cls-1" x="343.9" y="195.73" width="3.94" height="3.94"/><rect class="cls-1" x="351.79" y="164.18" width="3.94" height="3.94"/><rect class="cls-1" x="351.79" y="172.07" width="3.94" height="3.94"/><rect class="cls-1" x="359.67" y="164.18" width="3.94" height="3.94"/><rect class="cls-1" x="351.79" y="156.29" width="3.94" height="3.94"/><rect class="cls-1" x="359.67" y="156.29" width="3.94" height="3.94"/><rect class="cls-1" x="359.67" y="172.07" width="3.94" height="3.94"/><rect class="cls-1" x="351.79" y="179.96" width="3.94" height="3.94"/><rect class="cls-1" x="359.67" y="179.96" width="3.94" height="3.94"/><rect class="cls-1" x="351.79" y="187.84" width="3.94" height="3.94"/><rect class="cls-1" x="359.67" y="187.84" width="3.94" height="3.94"/><rect class="cls-1" x="351.79" y="195.73" width="3.94" height="3.94"/><rect class="cls-1" x="359.67" y="195.73" width="3.94" height="3.94"/><rect class="cls-1" x="367.56" y="164.18" width="3.94" height="3.94"/><rect class="cls-1" x="367.56" y="172.07" width="3.94" height="3.94"/><rect class="cls-1" x="375.45" y="164.18" width="3.94" height="3.94"/><rect class="cls-1" x="367.56" y="156.29" width="3.94" height="3.94"/><rect class="cls-1" x="375.45" y="156.29" width="3.94" height="3.94"/><rect class="cls-1" x="375.45" y="172.07" width="3.94" height="3.94"/><rect class="cls-1" x="367.56" y="179.96" width="3.94" height="3.94"/><rect class="cls-2" x="373.84" y="178.35" width="7.16" height="7.16"/><rect class="cls-1" x="367.56" y="187.84" width="3.94" height="3.94"/><rect class="cls-1" x="375.45" y="187.84" width="3.94" height="3.94"/><rect class="cls-1" x="367.56" y="195.73" width="3.94" height="3.94"/><rect class="cls-1" x="375.45" y="195.73" width="3.94" height="3.94"/><rect class="cls-1" x="383.34" y="164.18" width="3.94" height="3.94"/><rect class="cls-1" x="383.34" y="156.29" width="3.94" height="3.94"/><rect class="cls-1" x="383.34" y="172.07" width="3.94" height="3.94"/><rect class="cls-1" x="383.34" y="179.96" width="3.94" height="3.94"/><rect class="cls-1" x="383.34" y="187.84" width="3.94" height="3.94"/><rect class="cls-1" x="383.34" y="195.73" width="3.94" height="3.94"/><rect class="cls-1" x="391.23" y="164.18" width="3.94" height="3.94"/><rect class="cls-1" x="391.23" y="172.07" width="3.94" height="3.94"/><rect class="cls-1" x="399.12" y="164.18" width="3.94" height="3.94"/><rect class="cls-1" x="391.23" y="156.29" width="3.94" height="3.94"/><rect class="cls-1" x="399.12" y="156.29" width="3.94" height="3.94"/><rect class="cls-1" x="399.12" y="172.07" width="3.94" height="3.94"/><rect class="cls-1" x="391.23" y="179.96" width="3.94" height="3.94"/><rect class="cls-1" x="399.12" y="179.96" width="3.94" height="3.94"/><rect class="cls-1" x="391.23" y="187.84" width="3.94" height="3.94"/><rect class="cls-1" x="399.12" y="187.84" width="3.94" height="3.94"/><rect class="cls-1" x="391.23" y="195.73" width="3.94" height="3.94"/><rect class="cls-1" x="399.12" y="195.73" width="3.94" height="3.94"/><rect class="cls-1" x="225.57" y="132.62" width="3.94" height="3.94"/><rect class="cls-1" x="249.23" y="140.51" width="3.94" height="3.94"/><rect class="cls-1" x="249.23" y="148.4" width="3.94" height="3.94"/><rect class="cls-1" x="257.12" y="140.51" width="3.94" height="3.94"/><rect class="cls-1" x="288.68" y="124.74" width="3.94" height="3.94"/><rect class="cls-1" x="280.79" y="132.62" width="3.94" height="3.94"/><rect class="cls-1" x="288.68" y="132.62" width="3.94" height="3.94"/><rect class="cls-1" x="304.45" y="148.4" width="3.94" height="3.94"/><rect class="cls-1" x="320.23" y="116.85" width="3.94" height="3.94"/><rect class="cls-1" x="328.12" y="124.74" width="3.94" height="3.94"/><rect class="cls-1" x="328.12" y="148.4" width="3.94" height="3.94"/><rect class="cls-1" x="336.01" y="124.74" width="3.94" height="3.94"/><rect class="cls-1" x="336.01" y="132.62" width="3.94" height="3.94"/><rect class="cls-1" x="343.9" y="132.62" width="3.94" height="3.94"/><rect class="cls-1" x="336.01" y="140.51" width="3.94" height="3.94"/><rect class="cls-1" x="343.9" y="140.51" width="3.94" height="3.94"/><rect class="cls-1" x="336.01" y="148.4" width="3.94" height="3.94"/><rect class="cls-1" x="343.9" y="148.4" width="3.94" height="3.94"/><rect class="cls-1" x="351.79" y="132.62" width="3.94" height="3.94"/><rect class="cls-1" x="351.79" y="140.51" width="3.94" height="3.94"/><rect class="cls-1" x="359.67" y="140.51" width="3.94" height="3.94"/><rect class="cls-1" x="351.79" y="148.4" width="3.94" height="3.94"/><rect class="cls-1" x="359.67" y="148.4" width="3.94" height="3.94"/><rect class="cls-1" x="375.45" y="140.51" width="3.94" height="3.94"/><rect class="cls-1" x="367.56" y="148.4" width="3.94" height="3.94"/><rect class="cls-1" x="375.45" y="148.4" width="3.94" height="3.94"/><rect class="cls-1" x="383.34" y="124.74" width="3.94" height="3.94"/><rect class="cls-1" x="383.34" y="132.62" width="3.94" height="3.94"/><rect class="cls-1" x="383.34" y="148.4" width="3.94" height="3.94"/><rect class="cls-1" x="391.23" y="124.74" width="3.94" height="3.94"/><rect class="cls-1" x="399.12" y="124.74" width="3.94" height="3.94"/><rect class="cls-1" x="391.23" y="132.62" width="3.94" height="3.94"/><rect class="cls-1" x="391.23" y="140.51" width="3.94" height="3.94"/><rect class="cls-1" x="399.12" y="140.51" width="3.94" height="3.94"/><rect class="cls-1" x="391.23" y="148.4" width="3.94" height="3.94"/><rect class="cls-1" x="399.12" y="148.4" width="3.94" height="3.94"/><rect class="cls-1" x="407.01" y="211.51" width="3.94" height="3.94"/><rect class="cls-1" x="407.01" y="219.4" width="3.94" height="3.94"/><rect class="cls-1" x="414.89" y="211.51" width="3.94" height="3.94"/><rect class="cls-1" x="407.01" y="203.62" width="3.94" height="3.94"/><rect class="cls-1" x="414.89" y="203.62" width="3.94" height="3.94"/><rect class="cls-1" x="414.89" y="219.4" width="3.94" height="3.94"/><rect class="cls-1" x="407.01" y="227.29" width="3.94" height="3.94"/><rect class="cls-1" x="414.89" y="227.29" width="3.94" height="3.94"/><rect class="cls-1" x="407.01" y="235.18" width="3.94" height="3.94"/><rect class="cls-1" x="414.89" y="235.18" width="3.94" height="3.94"/><rect class="cls-1" x="407.01" y="243.07" width="3.94" height="3.94"/><rect class="cls-1" x="414.89" y="243.07" width="3.94" height="3.94"/><rect class="cls-1" x="422.78" y="211.51" width="3.94" height="3.94"/><rect class="cls-1" x="422.78" y="219.4" width="3.94" height="3.94"/><rect class="cls-1" x="430.67" y="211.51" width="3.94" height="3.94"/><rect class="cls-1" x="422.78" y="203.62" width="3.94" height="3.94"/><rect class="cls-1" x="430.67" y="203.62" width="3.94" height="3.94"/><rect class="cls-1" x="430.67" y="219.4" width="3.94" height="3.94"/><rect class="cls-1" x="422.78" y="227.29" width="3.94" height="3.94"/><rect class="cls-1" x="422.78" y="235.18" width="3.94" height="3.94"/><rect class="cls-1" x="430.67" y="243.07" width="3.94" height="3.94"/><rect class="cls-1" x="438.56" y="211.51" width="3.94" height="3.94"/><rect class="cls-1" x="438.56" y="219.4" width="3.94" height="3.94"/><rect class="cls-1" x="438.56" y="227.29" width="3.94" height="3.94"/><rect class="cls-1" x="438.56" y="235.18" width="3.94" height="3.94"/><rect class="cls-1" x="438.56" y="243.07" width="3.94" height="3.94"/><rect class="cls-1" x="454.34" y="203.62" width="3.94" height="3.94"/><rect class="cls-1" x="407.01" y="258.84" width="3.94" height="3.94"/><rect class="cls-2" x="405.4" y="265.13" width="7.16" height="7.16"/><rect class="cls-1" x="414.89" y="258.84" width="3.94" height="3.94"/><rect class="cls-1" x="407.01" y="250.95" width="3.94" height="3.94"/><rect class="cls-1" x="414.89" y="250.95" width="3.94" height="3.94"/><rect class="cls-1" x="414.89" y="266.73" width="3.94" height="3.94"/><rect class="cls-1" x="414.89" y="282.51" width="3.94" height="3.94"/><rect class="cls-1" x="430.67" y="250.95" width="3.94" height="3.94"/><rect class="cls-1" x="422.78" y="282.51" width="3.94" height="3.94"/><rect class="cls-1" x="422.78" y="290.4" width="3.94" height="3.94"/><rect class="cls-1" x="407.01" y="164.18" width="3.94" height="3.94"/><rect class="cls-1" x="407.01" y="172.07" width="3.94" height="3.94"/><rect class="cls-1" x="414.89" y="164.18" width="3.94" height="3.94"/><rect class="cls-1" x="407.01" y="156.29" width="3.94" height="3.94"/><rect class="cls-1" x="414.89" y="156.29" width="3.94" height="3.94"/><rect class="cls-1" x="414.89" y="172.07" width="3.94" height="3.94"/><rect class="cls-1" x="407.01" y="179.96" width="3.94" height="3.94"/><rect class="cls-1" x="414.89" y="179.96" width="3.94" height="3.94"/><rect class="cls-1" x="407.01" y="187.84" width="3.94" height="3.94"/><rect class="cls-1" x="414.89" y="187.84" width="3.94" height="3.94"/><rect class="cls-1" x="407.01" y="195.73" width="3.94" height="3.94"/><rect class="cls-1" x="414.89" y="195.73" width="3.94" height="3.94"/><rect class="cls-1" x="422.78" y="164.18" width="3.94" height="3.94"/><rect class="cls-1" x="422.78" y="172.07" width="3.94" height="3.94"/><rect class="cls-1" x="430.67" y="164.18" width="3.94" height="3.94"/><rect class="cls-1" x="422.78" y="156.29" width="3.94" height="3.94"/><rect class="cls-1" x="430.67" y="156.29" width="3.94" height="3.94"/><rect class="cls-1" x="430.67" y="172.07" width="3.94" height="3.94"/><rect class="cls-1" x="422.78" y="179.96" width="3.94" height="3.94"/><rect class="cls-1" x="430.67" y="179.96" width="3.94" height="3.94"/><rect class="cls-1" x="422.78" y="187.84" width="3.94" height="3.94"/><rect class="cls-1" x="422.78" y="195.73" width="3.94" height="3.94"/><rect class="cls-1" x="438.56" y="164.18" width="3.94" height="3.94"/><rect class="cls-1" x="438.56" y="156.29" width="3.94" height="3.94"/><rect class="cls-1" x="438.56" y="172.07" width="3.94" height="3.94"/><rect class="cls-1" x="446.45" y="164.18" width="3.94" height="3.94"/><rect class="cls-1" x="446.45" y="172.07" width="3.94" height="3.94"/><rect class="cls-1" x="454.34" y="164.18" width="3.94" height="3.94"/><rect class="cls-1" x="446.45" y="156.29" width="3.94" height="3.94"/><rect class="cls-1" x="454.34" y="156.29" width="3.94" height="3.94"/><rect class="cls-1" x="454.34" y="172.07" width="3.94" height="3.94"/><rect class="cls-1" x="446.45" y="179.96" width="3.94" height="3.94"/><rect class="cls-1" x="446.45" y="187.84" width="3.94" height="3.94"/><rect class="cls-1" x="454.34" y="187.84" width="3.94" height="3.94"/><rect class="cls-1" x="446.45" y="195.73" width="3.94" height="3.94"/><rect class="cls-1" x="454.34" y="195.73" width="3.94" height="3.94"/><rect class="cls-1" x="462.23" y="164.18" width="3.94" height="3.94"/><rect class="cls-1" x="462.23" y="156.29" width="3.94" height="3.94"/><rect class="cls-1" x="138.79" y="337.73" width="3.94" height="3.94"/><rect class="cls-2" x="129.3" y="328.23" width="7.16" height="7.16"/><rect class="cls-1" x="138.79" y="329.84" width="3.94" height="3.94"/><rect class="cls-1" x="138.79" y="345.62" width="3.94" height="3.94"/><rect class="cls-1" x="138.79" y="353.51" width="3.94" height="3.94"/><rect class="cls-1" x="130.9" y="361.4" width="3.94" height="3.94"/><rect class="cls-1" x="138.79" y="361.4" width="3.94" height="3.94"/><rect class="cls-1" x="130.9" y="369.28" width="3.94" height="3.94"/><rect class="cls-1" x="138.79" y="369.28" width="3.94" height="3.94"/><rect class="cls-1" x="146.68" y="337.73" width="3.94" height="3.94"/><rect class="cls-1" x="146.68" y="329.84" width="3.94" height="3.94"/><rect class="cls-1" x="146.68" y="345.62" width="3.94" height="3.94"/><rect class="cls-1" x="146.68" y="353.51" width="3.94" height="3.94"/><rect class="cls-1" x="146.68" y="361.4" width="3.94" height="3.94"/><rect class="cls-1" x="146.68" y="369.28" width="3.94" height="3.94"/><rect class="cls-1" x="154.57" y="337.73" width="3.94" height="3.94"/><rect class="cls-1" x="154.57" y="345.62" width="3.94" height="3.94"/><rect class="cls-1" x="162.46" y="337.73" width="3.94" height="3.94"/><rect class="cls-1" x="154.57" y="329.84" width="3.94" height="3.94"/><rect class="cls-1" x="162.46" y="329.84" width="3.94" height="3.94"/><rect class="cls-1" x="162.46" y="345.62" width="3.94" height="3.94"/><rect class="cls-1" x="154.57" y="353.51" width="3.94" height="3.94"/><rect class="cls-2" x="160.85" y="351.9" width="7.16" height="7.16"/><rect class="cls-1" x="154.57" y="361.4" width="3.94" height="3.94"/><rect class="cls-1" x="154.57" y="369.28" width="3.94" height="3.94"/><rect class="cls-1" x="162.46" y="361.4" width="3.94" height="3.94"/><rect class="cls-1" x="170.35" y="337.73" width="3.94" height="3.94"/><rect class="cls-1" x="170.35" y="345.62" width="3.94" height="3.94"/><rect class="cls-1" x="178.24" y="337.73" width="3.94" height="3.94"/><rect class="cls-1" x="170.35" y="329.84" width="3.94" height="3.94"/><rect class="cls-1" x="178.24" y="329.84" width="3.94" height="3.94"/><rect class="cls-1" x="130.9" y="385.06" width="3.94" height="3.94"/><rect class="cls-1" x="138.79" y="385.06" width="3.94" height="3.94"/><rect class="cls-1" x="130.9" y="377.16" width="3.94" height="3.94"/><rect class="cls-1" x="138.79" y="377.16" width="3.94" height="3.94"/><rect class="cls-1" x="138.79" y="392.94" width="3.94" height="3.94"/><rect class="cls-1" x="146.68" y="385.06" width="3.94" height="3.94"/><rect class="cls-1" x="146.68" y="377.16" width="3.94" height="3.94"/><rect class="cls-1" x="146.68" y="400.84" width="3.94" height="3.94"/><rect class="cls-1" x="123.02" y="298.29" width="3.94" height="3.94"/><rect class="cls-1" x="115.13" y="306.17" width="3.94" height="3.94"/><rect class="cls-1" x="123.02" y="306.17" width="3.94" height="3.94"/><rect class="cls-1" x="115.13" y="314.06" width="3.94" height="3.94"/><rect class="cls-1" x="123.02" y="314.06" width="3.94" height="3.94"/><rect class="cls-1" x="123.02" y="321.95" width="3.94" height="3.94"/><rect class="cls-1" x="130.9" y="298.29" width="3.94" height="3.94"/><rect class="cls-1" x="138.79" y="298.29" width="3.94" height="3.94"/><rect class="cls-1" x="130.9" y="306.17" width="3.94" height="3.94"/><rect class="cls-1" x="138.79" y="306.17" width="3.94" height="3.94"/><rect class="cls-1" x="130.9" y="314.06" width="3.94" height="3.94"/><rect class="cls-1" x="138.79" y="314.06" width="3.94" height="3.94"/><rect class="cls-1" x="130.9" y="321.95" width="3.94" height="3.94"/><rect class="cls-1" x="138.79" y="321.95" width="3.94" height="3.94"/><rect class="cls-1" x="146.68" y="298.29" width="3.94" height="3.94"/><rect class="cls-1" x="146.68" y="306.17" width="3.94" height="3.94"/><rect class="cls-1" x="146.68" y="314.06" width="3.94" height="3.94"/><rect class="cls-1" x="146.68" y="321.95" width="3.94" height="3.94"/><rect class="cls-1" x="154.57" y="298.29" width="3.94" height="3.94"/><rect class="cls-1" x="162.46" y="298.29" width="3.94" height="3.94"/><rect class="cls-1" x="154.57" y="306.17" width="3.94" height="3.94"/><rect class="cls-1" x="162.46" y="306.17" width="3.94" height="3.94"/><rect class="cls-1" x="154.57" y="314.06" width="3.94" height="3.94"/><rect class="cls-1" x="162.46" y="314.06" width="3.94" height="3.94"/><rect class="cls-1" x="154.57" y="321.95" width="3.94" height="3.94"/><rect class="cls-1" x="162.46" y="321.95" width="3.94" height="3.94"/><rect class="cls-1" x="170.35" y="306.17" width="3.94" height="3.94"/><rect class="cls-2" x="176.63" y="304.57" width="7.16" height="7.16"/><rect class="cls-1" x="170.35" y="314.06" width="3.94" height="3.94"/><rect class="cls-1" x="178.24" y="314.06" width="3.94" height="3.94"/><rect class="cls-1" x="170.35" y="321.95" width="3.94" height="3.94"/><rect class="cls-1" x="178.24" y="321.95" width="3.94" height="3.94"/><rect class="cls-1" x="186.12" y="314.06" width="3.94" height="3.94"/><rect class="cls-1" x="257.12" y="337.73" width="3.94" height="3.94"/><rect class="cls-1" x="265.01" y="337.73" width="3.94" height="3.94"/><rect class="cls-1" x="257.12" y="329.84" width="3.94" height="3.94"/><rect class="cls-1" x="265.01" y="329.84" width="3.94" height="3.94"/><rect class="cls-1" x="265.01" y="345.62" width="3.94" height="3.94"/><rect class="cls-1" x="265.01" y="353.51" width="3.94" height="3.94"/><rect class="cls-1" x="272.9" y="337.73" width="3.94" height="3.94"/><rect class="cls-1" x="272.9" y="329.84" width="3.94" height="3.94"/><rect class="cls-1" x="272.9" y="345.62" width="3.94" height="4.9"/><rect class="cls-1" x="272.9" y="353.51" width="3.94" height="3.94"/><rect class="cls-1" x="280.79" y="337.73" width="3.94" height="3.94"/><rect class="cls-2" x="279.18" y="344.01" width="7.16" height="7.16"/><rect class="cls-1" x="288.68" y="337.73" width="3.94" height="3.94"/><rect class="cls-1" x="280.79" y="329.84" width="3.94" height="3.94"/><rect class="cls-1" x="288.68" y="329.84" width="3.94" height="3.94"/><rect class="cls-2" x="247.63" y="296.68" width="7.16" height="7.16"/><rect class="cls-1" x="249.23" y="306.17" width="3.94" height="3.94"/><rect class="cls-1" x="257.12" y="298.29" width="3.94" height="3.94"/><rect class="cls-1" x="265.01" y="298.29" width="3.94" height="3.94"/><rect class="cls-1" x="257.12" y="306.17" width="3.94" height="3.94"/><rect class="cls-1" x="265.01" y="306.17" width="3.94" height="3.94"/><rect class="cls-1" x="257.12" y="314.06" width="3.94" height="3.94"/><rect class="cls-1" x="265.01" y="314.06" width="3.94" height="3.94"/><rect class="cls-1" x="257.12" y="321.95" width="3.94" height="3.94"/><rect class="cls-1" x="265.01" y="321.95" width="3.94" height="3.94"/><rect class="cls-1" x="272.9" y="298.29" width="3.94" height="3.94"/><rect class="cls-1" x="272.9" y="306.17" width="3.94" height="3.94"/><rect class="cls-1" x="272.9" y="314.06" width="3.94" height="3.94"/><rect class="cls-1" x="272.9" y="321.95" width="3.94" height="3.94"/><rect class="cls-1" x="280.79" y="298.29" width="3.94" height="3.94"/><rect class="cls-1" x="288.68" y="298.29" width="3.94" height="3.94"/><rect class="cls-1" x="280.79" y="306.17" width="3.94" height="3.94"/><rect class="cls-1" x="280.79" y="314.06" width="3.94" height="3.94"/><rect class="cls-1" x="288.68" y="314.06" width="3.94" height="3.94"/><rect class="cls-1" x="280.79" y="321.95" width="3.94" height="3.94"/><rect class="cls-1" x="288.68" y="321.95" width="3.94" height="3.94"/><rect class="cls-1" x="304.45" y="337.73" width="3.94" height="3.94"/><rect class="cls-1" x="304.45" y="329.84" width="3.94" height="3.94"/><rect class="cls-1" x="312.34" y="329.84" width="3.94" height="3.94"/><rect class="cls-1" x="296.56" y="298.29" width="3.94" height="3.94"/><rect class="cls-1" x="304.45" y="298.29" width="3.94" height="3.94"/><rect class="cls-1" x="296.56" y="306.17" width="3.94" height="3.94"/><rect class="cls-1" x="296.56" y="314.06" width="3.94" height="3.94"/><rect class="cls-1" x="296.56" y="321.95" width="3.94" height="3.94"/><rect class="cls-1" x="312.34" y="321.95" width="3.94" height="3.94"/><rect class="cls-1" x="383.34" y="298.29" width="3.94" height="3.94"/><rect class="cls-1" x="391.23" y="298.29" width="3.94" height="3.94"/><rect class="cls-1" x="391.23" y="306.17" width="3.94" height="3.94"/><rect class="cls-1" x="399.12" y="306.17" width="3.94" height="3.94"/><rect class="cls-1" x="399.12" y="314.06" width="3.94" height="3.94"/><rect class="cls-1" x="407.01" y="345.62" width="3.94" height="3.94"/><rect class="cls-1" x="414.89" y="337.73" width="3.94" height="3.94"/><rect class="cls-1" x="414.89" y="345.62" width="3.94" height="3.94"/><rect class="cls-1" x="407.01" y="353.51" width="3.94" height="3.94"/><rect class="cls-1" x="414.89" y="353.51" width="3.94" height="3.94"/><rect class="cls-1" x="407.01" y="361.4" width="3.94" height="3.94"/><rect class="cls-1" x="414.89" y="361.4" width="3.94" height="3.94"/><rect class="cls-1" x="422.78" y="337.73" width="3.94" height="3.94"/><rect class="cls-1" x="422.78" y="345.62" width="3.94" height="3.94"/><rect class="cls-1" x="430.67" y="337.73" width="3.94" height="3.94"/><rect class="cls-1" x="422.78" y="329.84" width="3.94" height="3.94"/><rect class="cls-1" x="430.67" y="329.84" width="3.94" height="3.94"/><rect class="cls-1" x="430.67" y="345.62" width="3.94" height="3.94"/><rect class="cls-1" x="422.78" y="353.51" width="3.94" height="3.94"/><rect class="cls-2" x="429.06" y="351.9" width="7.16" height="7.16"/><rect class="cls-1" x="438.56" y="337.73" width="3.94" height="3.94"/><rect class="cls-1" x="438.56" y="329.84" width="3.94" height="3.94"/><rect class="cls-1" x="438.56" y="345.62" width="3.94" height="3.94"/><rect class="cls-1" x="438.56" y="353.51" width="3.94" height="3.94"/><rect class="cls-1" x="438.56" y="361.4" width="3.94" height="3.94"/><rect class="cls-1" x="438.56" y="369.28" width="3.94" height="3.94"/><rect class="cls-1" x="446.45" y="337.73" width="3.94" height="3.94"/><rect class="cls-1" x="446.45" y="345.62" width="3.94" height="3.94"/><rect class="cls-1" x="454.34" y="337.73" width="3.94" height="3.94"/><rect class="cls-1" x="446.45" y="329.84" width="3.94" height="3.94"/><rect class="cls-1" x="454.34" y="329.84" width="3.94" height="3.94"/><rect class="cls-1" x="454.34" y="345.62" width="3.94" height="3.94"/><rect class="cls-1" x="446.45" y="353.51" width="3.94" height="3.94"/><rect class="cls-1" x="454.34" y="353.51" width="3.94" height="3.94"/><rect class="cls-1" x="446.45" y="361.4" width="3.94" height="3.94"/><rect class="cls-1" x="454.34" y="361.4" width="3.94" height="3.94"/><rect class="cls-1" x="446.45" y="369.28" width="3.94" height="3.94"/><rect class="cls-1" x="454.34" y="369.28" width="3.94" height="3.94"/><rect class="cls-1" x="462.23" y="337.73" width="3.94" height="3.94"/><rect class="cls-1" x="462.23" y="345.62" width="3.94" height="3.94"/><rect class="cls-1" x="462.23" y="353.51" width="3.94" height="3.94"/><rect class="cls-1" x="462.23" y="361.4" width="3.94" height="3.94"/><rect class="cls-1" x="493.78" y="369.28" width="3.94" height="3.94"/><rect class="cls-1" x="446.45" y="385.06" width="3.94" height="3.94"/><rect class="cls-1" x="446.45" y="377.16" width="3.94" height="3.94"/><rect class="cls-1" x="470.12" y="392.94" width="3.94" height="3.94"/><rect class="cls-1" x="478" y="385.06" width="3.94" height="3.94"/><rect class="cls-1" x="478" y="392.94" width="3.94" height="3.94"/><rect class="cls-1" x="485.89" y="385.06" width="3.94" height="3.94"/><rect class="cls-1" x="485.89" y="377.16" width="3.94" height="3.94"/><rect class="cls-1" x="493.78" y="377.16" width="3.94" height="3.94"/><rect class="cls-1" x="407.01" y="298.29" width="3.94" height="3.94"/><rect class="cls-1" x="414.89" y="298.29" width="3.94" height="3.94"/><rect class="cls-1" x="407.01" y="306.17" width="3.94" height="3.94"/><rect class="cls-1" x="414.89" y="306.17" width="3.94" height="3.94"/><rect class="cls-1" x="414.89" y="314.06" width="3.94" height="3.94"/><rect class="cls-1" x="422.78" y="306.17" width="3.94" height="3.94"/><rect class="cls-1" x="422.78" y="321.95" width="3.94" height="3.94"/><rect class="cls-1" x="438.56" y="306.17" width="3.94" height="3.94"/><rect class="cls-1" x="438.56" y="321.95" width="3.94" height="3.94"/><rect class="cls-1" x="446.45" y="306.17" width="3.94" height="3.94"/><rect class="cls-1" x="446.45" y="314.06" width="3.94" height="3.94"/><rect class="cls-1" x="454.34" y="314.06" width="3.94" height="3.94"/><rect class="cls-1" x="446.45" y="321.95" width="3.94" height="3.94"/><rect class="cls-1" x="462.23" y="314.06" width="3.94" height="3.94"/><rect class="cls-1" x="462.23" y="321.95" width="3.94" height="3.94"/><rect class="cls-1" x="407.01" y="140.51" width="3.94" height="3.94"/><rect class="cls-1" x="414.89" y="140.51" width="3.94" height="3.94"/><rect class="cls-1" x="407.01" y="148.4" width="3.94" height="3.94"/><rect class="cls-1" x="414.89" y="148.4" width="3.94" height="3.94"/><rect class="cls-1" x="422.78" y="140.51" width="3.94" height="3.94"/><rect class="cls-1" x="430.67" y="140.51" width="3.94" height="3.94"/><rect class="cls-1" x="422.78" y="148.4" width="3.94" height="3.94"/><rect class="cls-1" x="430.67" y="148.4" width="3.94" height="3.94"/><rect class="cls-1" x="438.56" y="132.62" width="3.94" height="3.94"/><rect class="cls-1" x="438.56" y="140.51" width="3.94" height="3.94"/><rect class="cls-1" x="438.56" y="148.4" width="3.94" height="3.94"/><rect class="cls-1" x="446.45" y="132.62" width="3.94" height="3.94"/><rect class="cls-1" x="446.45" y="140.51" width="3.94" height="3.94"/><rect class="cls-1" x="454.34" y="140.51" width="3.94" height="3.94"/><rect class="cls-1" x="446.45" y="148.4" width="3.94" height="3.94"/><rect class="cls-1" x="454.34" y="148.4" width="3.94" height="3.94"/><rect class="cls-1" x="462.23" y="140.51" width="3.94" height="3.94"/><rect class="cls-3" x="401.81" y="49.46" width="109.5" height="58.5" rx="7.56"/><g id="lake_forest_open_lands_association" data-name="lake forest open lands association"><path class="cls-4" d="M46.32,16.72c5.86,0,11.81.88,18.38.88,3,0,6.32,0,9.48.24,4,.26,8.27-.44,10.49,1.53a7.72,7.72,0,0,1,1.06,1.42,8.14,8.14,0,0,1,.94,1.47c1.16,2.75.88,6.6,1,10.54a.06.06,0,0,0-.06.06,8,8,0,0,1-2.48,2c-6,4.46-12,8.44-18.2,13-3.33,2.46-6.86,5.08-10.19,7.66-1.62,1.25-3.5,2.35-5.24,3.71a12.48,12.48,0,0,1-2.69,1.85,11,11,0,0,1-3.13,1.3c-2.37.12-2.32-1.65-2.77-3.66-.1-.46-.13-1.13-.23-1.76a5.51,5.51,0,0,1-.18-1.71c.27-.8,1.44-.81,2.59-1.12a12.52,12.52,0,0,0,6.42-4,19,19,0,0,0,2.71-3.3,16.17,16.17,0,0,0,1.12-3,17.92,17.92,0,0,0,.83-3.3,20.51,20.51,0,0,0-.24-5.42,18.43,18.43,0,0,0-2.3-4.77c-2.2-3.79-4.32-7.24-6.48-11.19-.29-.55-1.3-1.81-1-2.3A.52.52,0,0,1,46.32,16.72Z"/><path class="cls-4" d="M41.9,20.55a3.49,3.49,0,0,1-1.18,1.53c-.45.45-.91.9-1.35,1.36-2.37,3-5.21,5.55-7.66,8.48-.52,1.46-1.1,2.9-1.59,4.42a36.41,36.41,0,0,0-1.54,4.48c-.31,1.75.18,3.73.06,5.77,0,0,.06.06.06.12a22.92,22.92,0,0,0,1.77,2.88,20.15,20.15,0,0,0,1.88,2.71c1.63,1.85,4.06,3,6,4.6a7.09,7.09,0,0,1,2.46,4.83A19.4,19.4,0,0,1,41,64.14a3.19,3.19,0,0,1-.36,2.24,2,2,0,0,1-1.7-.17,10.23,10.23,0,0,1-1.48-.65,7.78,7.78,0,0,1-1.41-2c-1.27-2.07-2.88-4-4-6.06a19.76,19.76,0,0,0-2.71-4.07c-.48-.52-1-1.16-1.65-1.71a9.53,9.53,0,0,0-1.82-1.53,19,19,0,0,0-5.48-1.12,14.11,14.11,0,0,0-4.78.71,19,19,0,0,0-3.35,1.88c-1.13.71-2.44,1.25-3.42,2a19.42,19.42,0,0,0-2.65,3c-.43.51-.91,1-1.3,1.53s-.64,1.3-1.35,1.42a17.4,17.4,0,0,1-.12-4c0-3.87-.55-7.75-.71-11.79-.1-2.71-.13-5.41-.17-8s-.1-5.42.06-8C2.76,25,4.05,22.29,6,21c2.71-1.74,8-1.2,12.2-1,5.14.25,10.51-.17,15.85.12,1.34.07,2.68.08,4,.12A13.81,13.81,0,0,1,41.9,20.55Z"/><path class="cls-4" d="M88.68,64.44a6.2,6.2,0,0,1-2.3.77c-2.38.59-4.95,1.23-7.54,1.65-1.72.27-3.46.56-5.24.88s-3.53.45-5.31.76c-3.4.6-6.73,1.53-10.31,2a52.54,52.54,0,0,1-5.89.23c-2.81,0-6.23.35-7.3-1.47a9.26,9.26,0,0,1,.06-2.83,6.19,6.19,0,0,1,1.88-2.24A21.12,21.12,0,0,1,49,62.32c1.8-.33,4.59-1.1,6.48-.65a9.06,9.06,0,0,1,1.65.82c.57.27,1.17.46,1.71.71a20.66,20.66,0,0,0,3.35,1.53,44.11,44.11,0,0,0,4.72.47,12.29,12.29,0,0,0,1.47.18,6.89,6.89,0,0,0,2.24-.88,43.51,43.51,0,0,0,5.89-3.3c1.11-1.69,2.17-3.54,3.24-5.42a40.49,40.49,0,0,0,2.94-5.66C83.91,47,85.21,44,86.26,40.75c.48-1.49,1.27-2.63,1.71-4.24a6.91,6.91,0,0,1,.29-1.35c.32-.52,1.37-.78,1.89-1,1-.42.62,1.17.58,1.42a57.78,57.78,0,0,0-.29,5.89,53.88,53.88,0,0,1-.65,7.6c-.32,2.55-.39,5.19-.59,7.66S89,62,88.68,64.44Z"/><path class="cls-4" d="M41.43,77.52A6.84,6.84,0,0,1,38,77.46c-.78-.35-1.55-.75-2.3-1.18-2.24-1.14-4.08-2.7-6.42-3.83a40.77,40.77,0,0,0-4.89-2c-2.52-.85-5.66-2-8.77-1a9.86,9.86,0,0,0-3.12,2.06,76.91,76.91,0,0,0-8,7.42c-.56.32-.83,1.24-1.65,1.12A3.86,3.86,0,0,1,2.49,78c-.08-3.83-.06-7.38-.24-11.31,0-.61-.09-1.35-.11-2.18s-.2-1.93.17-2.06a.41.41,0,0,1,.18-.12c3,.19,6.06.65,9.07,1.06,2.74.37,5.53.64,8.25,1.06,4,.61,8,1.19,12,1.94,2.28.43,4.95.45,6.12,2a10.6,10.6,0,0,1,1,2.29c.31.75.71,1.52,1,2.18C40.56,74.33,41.38,75.72,41.43,77.52Z"/><path class="cls-4" d="M85.44,67.56c.61-.2.41,1.34.41,1.94,0,2.17,0,4.35,0,6.78.06,2.89.33,5.82.53,8.54a108.43,108.43,0,0,1,.06,13c-.06,1.58.18,3.39-.24,4.77a17.65,17.65,0,0,1-.82,1.77c-.73,1.67-2.14,3.81-3.77,4.48-1.11.46-2.55.29-4.13.29s-3-.06-4.41-.11c-3.07-.13-6.33-.06-8.78-.06-2.92,0-5.82-.24-8.72-.24s-5.9-.15-8.72-.35c-.68-1.45-.63-3.31-.82-5.13-.39-3.69-1.08-6.65-1.36-10.49-.11-1.49-.16-4.48.83-4.94a3.31,3.31,0,0,1,2.29.35c.78.31,1.55.47,2.18.71,4.1,1.51,8.45,3.28,12.55,4.65,4.34,1.45,8.59,2.91,12.9,4.36.72.24,1.46.49,2.18.71s1.43.67,2.18.41a7.48,7.48,0,0,0-.94-3.06c-.79-1.93-1.6-3.85-2.42-5.78-.41-1-.73-2-1.18-2.88a17.06,17.06,0,0,0-2.12-3.13,20.27,20.27,0,0,0-2.59-2.65c-4.69-2.17-10.47-.26-15.14.77a22.93,22.93,0,0,0-6,2c-1.52-.08-2.26.54-3.71.83-1,.19-2.55.32-3.06-.3s-.19-2.52-.06-3.41a21.58,21.58,0,0,1,1.65-6,10.18,10.18,0,0,1,1.18-2.6A6.63,6.63,0,0,1,47,72.25a7.54,7.54,0,0,1,1.65-.47,9.41,9.41,0,0,1,2.83.65,51.6,51.6,0,0,1,6.89,3.36,72,72,0,0,0,7,3.3,12.09,12.09,0,0,0,2.47.87,9.59,9.59,0,0,0,5.89-.88,18.61,18.61,0,0,0,3.11-2.62c1-.91,2-2,2.88-2.83C81.75,71.73,83.48,69.61,85.44,67.56Z"/><path class="cls-4" d="M38.48,83.06a57.87,57.87,0,0,1,2.24,8.18A6.7,6.7,0,0,1,41.13,94c-.58.46-1.4.21-2.06.18-9.56-.45-19.31-.86-28.69-1.53-.73,0-1.5-.08-2.24-.12s-1.37-.28-1.94.12c0,.87.67,1.54,1.06,2.3s.8,1.48,1.18,2.23a37.55,37.55,0,0,0,2.37,4.42,11.64,11.64,0,0,0,3.54,2.77,14.22,14.22,0,0,0,1.94,1,11.63,11.63,0,0,0,2.36.77,18.65,18.65,0,0,0,2.36.06,33.92,33.92,0,0,0,3.53-.12,9.8,9.8,0,0,0,2.06-.77c.67-.26,1.33-.58,2-.82,3.52-1.39,5.33-3.67,8.54-5.48.52-.29,1.48-.93,1.88-.88s.74.78.95,1.41.51,1.18.64,1.65a26.07,26.07,0,0,1,.71,4.3,21.5,21.5,0,0,1,.59,4.3,9.28,9.28,0,0,1-3.24.06c-1.15,0-2.33-.12-3.54-.12-6.93,0-14.53.38-21.08.36-.76,0-1.56-.12-2.36-.12a8.05,8.05,0,0,1-3.54-.47,7.63,7.63,0,0,1-1.88-1.42C5.21,107,4.2,106.25,4,104.38a45.58,45.58,0,0,1,.24-5.48c.2-4.32.32-9.12.53-13.61a6.67,6.67,0,0,1,.35-2.47,16.32,16.32,0,0,1,5.6.77c1.7.45,3.34,1,5,1.59,3.27,1.2,6.71,2.73,10.48,2.65,2.49-.06,4.52-1.51,6.31-2.6.72-.43,1.48-.88,2.24-1.35C35.81,83.18,37.12,81.75,38.48,83.06Z"/></g><path class="cls-5" d="M112,41.3V21.64h4.09l7.53,17.72h.6V21.64h2.16V41.3h-4l-7.64-17.73h-.54V41.3Z"/><path class="cls-5" d="M145.91,31.61c0,3.5-.55,6-1.67,7.61s-3.15,2.36-6.09,2.36-5-.8-6.09-2.41-1.68-4.14-1.68-7.6.57-6,1.7-7.7,3.16-2.51,6-2.51,4.92.83,6.07,2.5S145.91,28.11,145.91,31.61Zm-13.29,0q0,4.3,1.14,6.2c.76,1.26,2.23,1.89,4.39,1.89s3.62-.62,4.37-1.85,1.13-3.3,1.12-6.19-.38-5-1.16-6.33-2.22-2-4.36-2-3.57.66-4.34,2a13.12,13.12,0,0,0-1.16,6.23Z"/><path class="cls-5" d="M152,35.39q0,4.26,4.61,4.26a5.52,5.52,0,0,0,3.59-1,4,4,0,0,0,1.2-3.25V21.64h2.16V35.33q0,3.3-1.74,4.77a7.79,7.79,0,0,1-5.16,1.48,7.66,7.66,0,0,1-5.12-1.48q-1.73-1.47-1.72-4.77V21.64H152Z"/><path class="cls-5" d="M170.4,33.77V41.3h-2.19V21.64h7.27a6.69,6.69,0,0,1,4.7,1.45,5.85,5.85,0,0,1,1.58,4.52c0,3-1.21,4.93-3.61,5.7l3.78,8h-2.42L176,33.78Zm5.11-1.93q4,0,4-4.13t-4-4.14h-5.08v8.27Z"/><path class="cls-5" d="M187.89,33.77V41.3h-2.18V21.64H193a6.69,6.69,0,0,1,4.7,1.45,5.81,5.81,0,0,1,1.57,4.52q0,4.55-3.6,5.7l3.78,8H197l-3.55-7.53ZM193,31.84q4,0,4-4.13t-4-4.14h-5.09v8.27Z"/><path class="cls-5" d="M203.2,41.3V21.64h2.19V41.3Z"/><path class="cls-5" d="M212.38,33.77V41.3h-2.19V21.64h7.27a6.69,6.69,0,0,1,4.7,1.45,5.85,5.85,0,0,1,1.58,4.52c0,3-1.21,4.93-3.61,5.7l3.78,8h-2.42l-3.55-7.53Zm5.11-1.93q4,0,4-4.13t-4-4.14h-5.08v8.27Z"/><path class="cls-5" d="M114,67c0,2.84,1.54,4.26,4.6,4.26a5.55,5.55,0,0,0,3.6-1,4,4,0,0,0,1.2-3.25V53.2h2.16V66.89c0,2.19-.58,3.79-1.75,4.77a9.68,9.68,0,0,1-10.28,0c-1.14-1-1.72-2.58-1.72-4.77V53.2H114Z"/><path class="cls-5" d="M130.27,72.85V53.2h4.08L141.88,71h.6V53.2h2.16V72.85h-4L133,55.13h-.54V72.85Z"/><path class="cls-6" d="M156.29,72.85V47h7.31l5.79,20.26L175.19,47h7.34V72.9h-4.24V51.57h-.57l-6.13,20.22H167.2l-6.14-20.22h-.57V72.85Z"/><path class="cls-6" d="M206.11,70.09q-2.34,3.18-8.2,3.18t-8.22-3.2q-2.34-3.19-2.35-10t2.37-10.19c1.58-2.22,4.32-3.33,8.2-3.33s6.61,1.1,8.18,3.31,2.35,5.61,2.35,10.21S207.66,68,206.11,70.09ZM193,67.36q1.27,2.23,4.92,2.24c2.42,0,4.06-.73,4.9-2.2s1.27-3.92,1.27-7.36-.43-6-1.31-7.52-2.49-2.35-4.86-2.35-4,.78-4.89,2.35S191.7,56.58,191.7,60s.43,5.87,1.29,7.36Z"/><path class="cls-6" d="M213.32,72.85V47h7.35l7.88,22.23h.56V47h4.21V72.9h-7.2l-8.06-22.26h-.53V72.9Z"/><path class="cls-6" d="M248.27,72.85h-9V47h9q6,0,8.18,3t2.2,9.51a30,30,0,0,1-.44,5.59,12.54,12.54,0,0,1-1.53,4.14Q254.52,72.86,248.27,72.85Zm6-13.4q0-4.7-1.17-6.78c-.78-1.4-2.39-2.09-4.85-2.08h-4.77V69.14h4.77q3.75,0,5-2.76a10.51,10.51,0,0,0,.81-3,30.47,30.47,0,0,0,.23-3.93Z"/><path class="cls-6" d="M263.57,72.85V47h16.36v3.68H267.81V58h9.88V61.6h-9.88v7.57H280v3.71Z"/><path class="cls-5" d="M111.81,104.41V85h12.26v2.75H115v5.51h7.41V96H115v5.68h9.11v2.78Z"/><path class="cls-5" d="M127.51,104.41V85H133l5.91,16.67h.42V85h3.16v19.45h-5.4l-6.05-16.7h-.4v16.7Z"/><path class="cls-7" d="M169.22,104a31.38,31.38,0,0,1-6.63.8,12.88,12.88,0,0,1-4.72-.73,5.89,5.89,0,0,1-2.77-2.33A10.13,10.13,0,0,1,153.71,98a32.67,32.67,0,0,1-.39-5.41c0-4.56.65-7.74,1.93-9.53s3.65-2.69,7.1-2.69a29.73,29.73,0,0,1,6.91.94l-.14,3.81a38.84,38.84,0,0,0-5.71-.51,6.53,6.53,0,0,0-3.25.6,3.79,3.79,0,0,0-1.44,2.31,25.07,25.07,0,0,0-.47,5.8c0,2.73.34,4.62,1,5.67s1.91,1.58,3.82,1.58a41.32,41.32,0,0,0,6.09-.48Z"/><path class="cls-7" d="M186.68,104.41V94.62H177.9v9.79h-4.79V80.8h4.79v9.66h8.78V80.8h4.79v23.61Z"/><path class="cls-7" d="M194.63,104.41l5.31-23.61H209l5.31,23.61h-4.79l-.94-4.27h-8.26l-.94,4.27Zm9-19.65L201.26,96h6.46l-2.4-11.22Z"/><path class="cls-7" d="M217.51,104.41V80.8h8.09l5.69,19.44h.35V80.8h4.79v23.61h-7.88L222.65,85h-.35V104.4Z"/><path class="cls-7" d="M251.39,96V91.8h6.87v12.25a53.54,53.54,0,0,1-8,.8c-3.68,0-6.21-1-7.59-2.95s-2.06-5.09-2.06-9.38.72-7.37,2.15-9.26,3.88-2.85,7.33-2.85a35.69,35.69,0,0,1,7,.73l1.25.24-.14,3.72a62.14,62.14,0,0,0-6.82-.45,8,8,0,0,0-3.73.62,3.74,3.74,0,0,0-1.58,2.31,23.67,23.67,0,0,0-.5,5.76c0,2.72.34,4.62,1,5.71s2.06,1.63,4.17,1.63l2.88-.14V96Z"/><path class="cls-7" d="M262.81,104.41V80.8h15.27V85H267.56v5.52H276v4.1h-8.41v5.65h10.49v4.17Z"/><path class="cls-7" d="M282,104.41V80.8h8.15L294.33,98l4.16-17.22h8.16v23.61h-4.79V86.15h-.52l-4.62,17.22h-4.79l-4.61-17.22h-.51v18.26Z"/><path class="cls-7" d="M311.81,104.41V80.8h15.27V85h-10.5v5.52H325v4.1h-8.4v5.65h10.48v4.17Z"/><path class="cls-7" d="M331,104.41V80.8h8.09l5.7,19.44h.35V80.8H350v23.61h-7.88L336.16,85h-.35V104.4Z"/><path class="cls-7" d="M353,85V80.8h17.36V85h-6.25v19.37h-4.79V85Z"/><rect class="cls-5" x="384.71" y="19.01" width="3" height="89.73"/><g class="cls-8"><g class="cls-8"><path class="cls-5" d="M408.23,59.53V57.84h8.5v1.69h-3.29v10h-1.9v-10Z"/></g><g class="cls-8"><path class="cls-5" d="M416.93,69.49V61h1.83v1a8,8,0,0,1,2.89-1.21v1.85a12.86,12.86,0,0,0-2.5.75l-.37.16v5.93Z"/></g><g class="cls-8"><path class="cls-5" d="M423.46,61.91a4.38,4.38,0,0,1,5.83,0,5.21,5.21,0,0,1,.88,3.31,5.43,5.43,0,0,1-.85,3.33,4.42,4.42,0,0,1-5.88,0,5.43,5.43,0,0,1-.85-3.33A5.28,5.28,0,0,1,423.46,61.91Zm1.39,5.52a2.06,2.06,0,0,0,3.06,0,4.7,4.7,0,0,0,.39-2.23,4.21,4.21,0,0,0-.42-2.19,1.64,1.64,0,0,0-1.5-.64,1.66,1.66,0,0,0-1.51.64,4.33,4.33,0,0,0-.41,2.19A4.7,4.7,0,0,0,424.85,67.43Z"/><path class="cls-5" d="M437.16,61H439v8.5h-1.83V69a4.64,4.64,0,0,1-2.3.71,2.54,2.54,0,0,1-2.34-.94,6.56,6.56,0,0,1-.6-3.31V61h1.85v4.45A5.44,5.44,0,0,0,434,67.5c.17.35.57.53,1.19.53a4.2,4.2,0,0,0,1.68-.34l.26-.11Z"/></g><g class="cls-8"><path class="cls-5" d="M440.44,61h1.94L444,67.91h.54l1.7-6.92h1.89l-2.21,8.5h-3.3Z"/></g><g class="cls-8"><path class="cls-5" d="M455.5,68l.47,0,0,1.37a16.92,16.92,0,0,1-3.44.39,3.27,3.27,0,0,1-2.71-1,5.35,5.35,0,0,1-.82-3.32q0-4.51,3.69-4.52t3.57,3.89L456.18,66h-5.27a2.31,2.31,0,0,0,.46,1.55,2.15,2.15,0,0,0,1.65.49C453.82,68.06,454.65,68,455.5,68Zm-1-3.37a3,3,0,0,0-.4-1.76,1.65,1.65,0,0,0-1.35-.5,1.7,1.7,0,0,0-1.39.53,2.78,2.78,0,0,0-.45,1.73Z"/><path class="cls-5" d="M458.08,69.49V61h1.84v1a7.88,7.88,0,0,1,2.89-1.21v1.85a12.65,12.65,0,0,0-2.5.75l-.37.16v5.93Z"/><path class="cls-5" d="M473.11,61H475v8.5h-1.84V69a4.61,4.61,0,0,1-2.29.71,2.57,2.57,0,0,1-2.35-.94,6.56,6.56,0,0,1-.6-3.31V61h1.86v4.45A5.49,5.49,0,0,0,470,67.5c.17.35.57.53,1.19.53a4.29,4.29,0,0,0,1.69-.34l.25-.11Z"/><path class="cls-5" d="M479,69.49h-1.85V61H479v.53a4.68,4.68,0,0,1,2.34-.72,2.55,2.55,0,0,1,2.32,1,6,6,0,0,1,.62,3.17v4.56h-1.83V65a4.55,4.55,0,0,0-.3-2,1.23,1.23,0,0,0-1.22-.58,4.15,4.15,0,0,0-1.66.34l-.26.1Z"/></g><g class="cls-8"><path class="cls-5" d="M409.13,85.49V77H411v1a8,8,0,0,1,2.89-1.21v1.85a12.86,12.86,0,0,0-2.5.75l-.37.16v5.93Z"/></g><g class="cls-8"><path class="cls-5" d="M421.25,84l.47,0,0,1.37a16.92,16.92,0,0,1-3.44.39,3.27,3.27,0,0,1-2.71-1,5.35,5.35,0,0,1-.82-3.32q0-4.51,3.69-4.52t3.57,3.89L421.93,82h-5.27a2.31,2.31,0,0,0,.46,1.55,2.15,2.15,0,0,0,1.65.49C419.57,84.06,420.4,84,421.25,84Zm-5.1-9.47,4-1.72.58,1.6-4.15,1.33Zm4.08,6.1a3,3,0,0,0-.4-1.76,1.65,1.65,0,0,0-1.35-.5,1.7,1.7,0,0,0-1.39.53,2.78,2.78,0,0,0-.45,1.73Z"/><path class="cls-5" d="M423.83,89.14V77h1.84v.53a4.22,4.22,0,0,1,2.19-.72,2.91,2.91,0,0,1,2.47,1,5.85,5.85,0,0,1,.78,3.45,5.11,5.11,0,0,1-.89,3.41,3.77,3.77,0,0,1-2.92,1,10,10,0,0,1-1.61-.15v3.62Zm3.71-10.69a3.84,3.84,0,0,0-1.6.36l-.25.12v5a7.62,7.62,0,0,0,1.49.14,1.77,1.77,0,0,0,1.6-.67,4.3,4.3,0,0,0,.44-2.26Q429.22,78.45,427.54,78.45Z"/></g><g class="cls-8"><path class="cls-5" d="M433,85.49V77h1.83v1a8,8,0,0,1,2.89-1.21v1.85a12.86,12.86,0,0,0-2.5.75l-.37.16v5.93Z"/></g><g class="cls-8"><path class="cls-5" d="M445.08,84l.47,0,0,1.37a16.92,16.92,0,0,1-3.44.39,3.27,3.27,0,0,1-2.71-1,5.35,5.35,0,0,1-.82-3.32q0-4.51,3.69-4.52t3.57,3.89L445.76,82h-5.27a2.31,2.31,0,0,0,.46,1.55,2.15,2.15,0,0,0,1.65.49C443.4,84.06,444.23,84,445.08,84Zm-1-3.37a3,3,0,0,0-.4-1.76,1.65,1.65,0,0,0-1.35-.5,1.7,1.7,0,0,0-1.39.53,2.78,2.78,0,0,0-.45,1.73Z"/><path class="cls-5" d="M453.56,78.74a24.74,24.74,0,0,0-2.91-.27,2.64,2.64,0,0,0-1.25.21.73.73,0,0,0-.34.67.66.66,0,0,0,.38.65,8.53,8.53,0,0,0,1.8.43,4.06,4.06,0,0,1,2,.77,2.42,2.42,0,0,1,.6,1.87,2.3,2.3,0,0,1-.86,2,4.21,4.21,0,0,1-2.51.62,15.11,15.11,0,0,1-2.61-.28l-.53-.09.07-1.55a23.89,23.89,0,0,0,2.94.28,2.79,2.79,0,0,0,1.28-.22.78.78,0,0,0,.38-.74.72.72,0,0,0-.36-.7,7.53,7.53,0,0,0-1.75-.43,4.56,4.56,0,0,1-2-.72,2.15,2.15,0,0,1-.65-1.8,2.29,2.29,0,0,1,.89-2,3.83,3.83,0,0,1,2.29-.64,16.43,16.43,0,0,1,2.67.27l.53.1Z"/><path class="cls-5" d="M461.69,84l.47,0,0,1.37a16.92,16.92,0,0,1-3.44.39,3.27,3.27,0,0,1-2.71-1,5.35,5.35,0,0,1-.82-3.32q0-4.51,3.69-4.52t3.57,3.89L462.37,82H457.1a2.31,2.31,0,0,0,.46,1.55,2.14,2.14,0,0,0,1.64.49C460,84.06,460.84,84,461.69,84Zm-1-3.37a3,3,0,0,0-.4-1.76,1.65,1.65,0,0,0-1.35-.5,1.7,1.7,0,0,0-1.39.53,2.78,2.78,0,0,0-.45,1.73Z"/><path class="cls-5" d="M466.12,85.49h-1.85V77h1.84v.53a4.68,4.68,0,0,1,2.34-.72,2.54,2.54,0,0,1,2.32,1,6,6,0,0,1,.62,3.17v4.56h-1.83V81a4.55,4.55,0,0,0-.3-2,1.23,1.23,0,0,0-1.22-.58,4.15,4.15,0,0,0-1.66.34l-.26.1Z"/><path class="cls-5" d="M478.13,78.57h-2.35v3.74a4.09,4.09,0,0,0,.15,1.38c.1.22.37.34.78.34l1.4,0,.08,1.47a9.57,9.57,0,0,1-1.73.22,2.45,2.45,0,0,1-2-.66,4.13,4.13,0,0,1-.54-2.5V78.57h-1.08V77h1.08V74.52h1.84V77h2.35Z"/><path class="cls-5" d="M485.93,79.61v3.87a.82.82,0,0,0,.19.56,1,1,0,0,0,.56.22l-.05,1.41a3.56,3.56,0,0,1-2.26-.62,6.46,6.46,0,0,1-2.74.62c-1.69,0-2.54-.9-2.54-2.7a2.32,2.32,0,0,1,.69-1.87,3.74,3.74,0,0,1,2.12-.69l2.19-.19v-.61a1.27,1.27,0,0,0-.3-1,1.24,1.24,0,0,0-.87-.27c-.73,0-1.63.05-2.72.14l-.54,0-.07-1.31A15,15,0,0,1,483,76.8a3.17,3.17,0,0,1,2.24.67A2.88,2.88,0,0,1,485.93,79.61Zm-3.81,2.1A1.15,1.15,0,0,0,481,83c0,.78.34,1.17,1,1.17a6.68,6.68,0,0,0,1.81-.27l.3-.1V81.53Z"/><path class="cls-5" d="M490.11,85.49h-1.85V77h1.83v.53a4.71,4.71,0,0,1,2.35-.72,2.55,2.55,0,0,1,2.32,1,6.12,6.12,0,0,1,.62,3.17v4.56h-1.84V81a4.59,4.59,0,0,0-.29-2,1.24,1.24,0,0,0-1.22-.58,4.11,4.11,0,0,0-1.66.34l-.26.1Z"/><path class="cls-5" d="M502.11,78.57h-2.34v3.74a4.09,4.09,0,0,0,.15,1.38c.1.22.36.34.78.34l1.4,0,.08,1.47a9.67,9.67,0,0,1-1.73.22,2.43,2.43,0,0,1-2-.66,4.13,4.13,0,0,1-.54-2.5V78.57h-1.09V77h1.09V74.52h1.84V77h2.34Z"/></g><g class="cls-8"><path class="cls-5" d="M412.31,92.8a11.25,11.25,0,0,1,2.12.24l.43.08-.07,1.47c-.9-.09-1.56-.14-2-.14a2.1,2.1,0,0,0-1.74.58,3.82,3.82,0,0,0-.44,2.17,4,4,0,0,0,.43,2.21,2,2,0,0,0,1.77.62l2-.14.06,1.48a16.56,16.56,0,0,1-2.59.3,3.21,3.21,0,0,1-2.73-1,5.84,5.84,0,0,1-.79-3.43,5.36,5.36,0,0,1,.84-3.39A3.33,3.33,0,0,1,412.31,92.8Z"/></g><g class="cls-8"><path class="cls-5" d="M417,93.91a4.38,4.38,0,0,1,5.83,0,5.21,5.21,0,0,1,.88,3.31,5.43,5.43,0,0,1-.85,3.33,4.42,4.42,0,0,1-5.88,0,5.43,5.43,0,0,1-.85-3.33A5.28,5.28,0,0,1,417,93.91Zm1.39,5.52a2.06,2.06,0,0,0,3.06,0,4.7,4.7,0,0,0,.39-2.23,4.21,4.21,0,0,0-.42-2.19,1.64,1.64,0,0,0-1.5-.64,1.66,1.66,0,0,0-1.51.64A4.33,4.33,0,0,0,418,97.2,4.7,4.7,0,0,0,418.41,99.43Z"/><path class="cls-5" d="M427.42,101.49h-1.85V93h1.83v.53a4.4,4.4,0,0,1,2.21-.72,2.63,2.63,0,0,1,2.16.83,6.51,6.51,0,0,1,3.08-.83,2.4,2.4,0,0,1,2.16,1,6,6,0,0,1,.63,3.18v4.56H435.8V97a4.79,4.79,0,0,0-.28-2,1.16,1.16,0,0,0-1.16-.58,4.47,4.47,0,0,0-1.65.34l-.29.12a9.44,9.44,0,0,1,.13,2.18v4.4h-1.83V97.12a5.5,5.5,0,0,0-.27-2.09,1.19,1.19,0,0,0-1.2-.58,3.68,3.68,0,0,0-1.58.34l-.25.1Z"/><path class="cls-5" d="M441.66,101.49h-1.85V93h1.84v.53a4.37,4.37,0,0,1,2.21-.72,2.66,2.66,0,0,1,2.16.83,6.47,6.47,0,0,1,3.07-.83,2.4,2.4,0,0,1,2.16,1,6,6,0,0,1,.63,3.18v4.56h-1.83V97a5,5,0,0,0-.28-2,1.17,1.17,0,0,0-1.17-.58,4.55,4.55,0,0,0-1.65.34l-.29.12a9.17,9.17,0,0,1,.14,2.18v4.4H445V97.12a5.5,5.5,0,0,0-.27-2.09,1.17,1.17,0,0,0-1.19-.58,3.65,3.65,0,0,0-1.58.34l-.26.1Z"/><path class="cls-5" d="M460.11,100l.48,0,0,1.37a16.91,16.91,0,0,1-3.43.39,3.28,3.28,0,0,1-2.72-1,5.35,5.35,0,0,1-.82-3.32q0-4.51,3.69-4.52t3.57,3.89L460.79,98h-5.27a2.31,2.31,0,0,0,.46,1.55,2.15,2.15,0,0,0,1.65.49C458.43,100.06,459.26,100,460.11,100Zm-1-3.37a2.89,2.89,0,0,0-.4-1.76,1.65,1.65,0,0,0-1.35-.5,1.7,1.7,0,0,0-1.39.53,2.78,2.78,0,0,0-.45,1.73Z"/></g><g class="cls-8"><path class="cls-5" d="M462.7,101.49V93h1.83v1a8,8,0,0,1,2.89-1.21v1.85a12.86,12.86,0,0,0-2.5.75l-.37.16v5.93Z"/></g><g class="cls-8"><path class="cls-5" d="M472,92.8a11.25,11.25,0,0,1,2.12.24l.42.08-.06,1.47c-.9-.09-1.56-.14-2-.14a2.1,2.1,0,0,0-1.74.58,3.82,3.82,0,0,0-.44,2.17,4,4,0,0,0,.43,2.21,2,2,0,0,0,1.76.62l2-.14.05,1.48a16.34,16.34,0,0,1-2.58.3,3.21,3.21,0,0,1-2.73-1,5.84,5.84,0,0,1-.79-3.43,5.36,5.36,0,0,1,.84-3.39A3.33,3.33,0,0,1,472,92.8Z"/><path class="cls-5" d="M476.28,91.54v-2h1.85v2Zm0,9.95V93h1.85v8.5Z"/><path class="cls-5" d="M486.67,95.61v3.87a.82.82,0,0,0,.19.56,1,1,0,0,0,.55.22l-.05,1.41a3.59,3.59,0,0,1-2.26-.62,6.42,6.42,0,0,1-2.73.62c-1.69,0-2.54-.9-2.54-2.7a2.32,2.32,0,0,1,.69-1.87,3.74,3.74,0,0,1,2.12-.69l2.19-.19v-.61a1,1,0,0,0-1.17-1.23c-.73,0-1.63.05-2.72.14l-.55,0-.06-1.31a15,15,0,0,1,3.4-.44,3.18,3.18,0,0,1,2.25.67A2.88,2.88,0,0,1,486.67,95.61Zm-3.81,2.1A1.15,1.15,0,0,0,481.69,99c0,.78.34,1.17,1,1.17a6.68,6.68,0,0,0,1.81-.27l.3-.1V97.53Z"/><path class="cls-5" d="M489.1,101.49v-12H491v12Z"/></g></g><circle class="cls-6" cx="498.74" cy="24.46" r="22.19"/><polygon class="cls-4" points="479.71 35.88 498.74 71.52 518.76 34.02 479.71 35.88"/><path class="cls-9" d="M498.81,10.12a15,15,0,1,0,15,15h0A15,15,0,0,0,498.81,10.12Zm0,27.5A12.5,12.5,0,0,1,489.13,33a2.89,2.89,0,0,1,2.33-1.56c2.8-.65,5.57-1.23,4.24-3.68-3.94-7.28-1.12-11.4,3.11-11.4s7,4,3.11,11.4c-1.29,2.44,1.38,3,4.24,3.68A2.92,2.92,0,0,1,508.5,33,12.45,12.45,0,0,1,498.81,37.62Z"/></svg>