<svg id="Calque_1" data-name="Calque 1" xmlns="http://www.w3.org/2000/svg" viewBox="0 0 306 142"><defs><style>.cls-1{fill:#13322b;}</style></defs><path class="cls-1" d="M146.37,84.21h-2.52V78.29h8.56V97.62h-6Z"/><path class="cls-1" d="M163.31,97.62V93.74H156.1V88.63l6.33-10.52h6.65V88.63h1.82v5.11h-1.82v3.88Zm-1.95-9h2.4V86c0-.51,0-.94,0-1.28s.05-.63.09-.9c-.12.35-.26.69-.42,1s-.41.81-.73,1.38Z"/><path class="cls-1" d="M173.23,88a12.5,12.5,0,0,1,1.93-7.4,6.6,6.6,0,0,1,10.62,0A12.56,12.56,0,0,1,187.7,88a12.59,12.59,0,0,1-1.92,7.43,6.56,6.56,0,0,1-10.61,0A12.5,12.5,0,0,1,173.23,88Zm5.88,0a10.52,10.52,0,0,0,.33,3.09c.22.65.56,1,1,1s.81-.32,1-1a10.89,10.89,0,0,0,.32-3.1,10.78,10.78,0,0,0-.32-3.08c-.22-.65-.56-1-1-1s-.82.32-1,1A10.89,10.89,0,0,0,179.11,88Z"/><path class="cls-1" d="M190.29,88a12.5,12.5,0,0,1,1.94-7.4,6.59,6.59,0,0,1,10.61,0A12.56,12.56,0,0,1,204.76,88a12.59,12.59,0,0,1-1.92,7.43,6.56,6.56,0,0,1-10.61,0A12.58,12.58,0,0,1,190.29,88Zm5.88,0a10.52,10.52,0,0,0,.33,3.09c.22.65.56,1,1,1s.82-.32,1-1a10.53,10.53,0,0,0,.32-3.1,10.42,10.42,0,0,0-.32-3.08c-.21-.65-.56-1-1-1s-.82.32-1,1A10.89,10.89,0,0,0,196.17,88Z"/><path class="cls-1" d="M209.91,84.21h-2.52V78.29H216V97.62h-6Z"/><path class="cls-1" d="M86.69,53.91c-.72-1.22-1.35-2.33-1.91-3.31v4.32c.44-.21.84-.41,1.2-.61ZM103,43.6c2.83.32,5.44.73,7.8,1.18-1.38-1.25-3-2.63-4.83-4.14C105,41.63,104,42.62,103,43.6ZM90.57,31.17a37.52,37.52,0,0,0-5.79-1.66V34l1.15,1.18A23.78,23.78,0,0,0,90.57,31.17Zm-3.3,5.38C89,38.42,91,40.62,92.92,43c2.64,0,5.16.18,7.54.39h0c1.41-1.29,2.77-2.61,4-3.91l-2.08-1.63a46.83,46.83,0,0,0-10-5.89A24.59,24.59,0,0,1,87.27,36.55ZM84.78,70.62v1.67l.89-.3C85.36,71.54,85.08,71.08,84.78,70.62ZM95.7,68v0C92.82,64,90,59.4,87.66,55.54c-.27.17-.53.31-.76.44-.62.34-1.34.68-2.12,1V67c.86,1.47,1.77,2.93,2.76,4.33C89.77,70.51,92.61,69.38,95.7,68ZM90.84,78.22a42.05,42.05,0,0,1-4-4.62c-.82.29-1.51.52-2.08.7V84.54a48.29,48.29,0,0,0,10.56-2.18C93.94,81.19,92.45,79.83,90.84,78.22ZM93,86.87a37.62,37.62,0,0,0,7.41-.74c-1-.64-2.1-1.42-3.29-2.34a48.69,48.69,0,0,1-10.64,2.5A37.82,37.82,0,0,0,93,86.87Zm17.16-56.53c-.56-.36-1.12-.73-1.7-1.09a30.89,30.89,0,0,0-13.19-4.11,9,9,0,0,1-.29,2,12,12,0,0,1-1.41,3.22,49.07,49.07,0,0,1,10,6L105.74,38c2.18-2.49,3.77-4.85,4.21-6.74C110,31,110.09,30.65,110.15,30.34Zm-18,46.54a63.93,63.93,0,0,0,5.24,4.74,40.65,40.65,0,0,0,7.2-3.6A28.6,28.6,0,0,1,102,75.68a55.7,55.7,0,0,1-5.08-6.08h0c-3,1.38-5.86,2.49-8.14,3.33A40.8,40.8,0,0,0,92.19,76.88Zm1.7-55.31A4.35,4.35,0,0,1,95,23.17a33,33,0,0,1,14.49,4.46l1,.67a24.54,24.54,0,0,0,.16-4.63,36.78,36.78,0,0,0-13.82-4.26H89.05c-1.07.12-2.13.27-3.17.47C89.3,19.62,92.23,20,93.89,21.57ZM92.65,23,92.58,23c-1.24-1.17-4-1.5-7.8-1v1.56A49.39,49.39,0,0,1,92.65,23Zm.48,3.58A6.19,6.19,0,0,0,93.34,25a47.89,47.89,0,0,0-8.56.41v2.12a37.72,37.72,0,0,1,7,2A10.18,10.18,0,0,0,93.13,26.62ZM90.42,43c-1.65-1.94-3.3-3.77-4.79-5.35-.28.18-.56.34-.85.5v5C86.71,43,88.59,43,90.43,43ZM112.6,24.81a26.81,26.81,0,0,1-.35,4.62A57.1,57.1,0,0,1,123.37,39c.17-1.07.29-2.07.36-3A34.79,34.79,0,0,0,112.6,24.81Zm-.8,6.91c-.51,2.19-2.24,4.81-4.58,7.51,3,2.43,5.33,4.54,7.16,6.3,2.77.64,5.05,1.29,6.8,1.84a16.39,16.39,0,0,0,.84-2.31c.36-1.3.65-2.51.89-3.66a52.57,52.57,0,0,0-11-9.92Zm-.54,50.33h0a36.38,36.38,0,0,1-5-2.84A41.59,41.59,0,0,1,99.2,83a36,36,0,0,0,3.85,2.51A36.81,36.81,0,0,0,111.26,82.05Zm12.6-36.49A21,21,0,0,1,123,48l-.29-.1,1.27.45a19.35,19.35,0,0,1,2.31,1.07c0-.64.07-1.28.07-1.95V46.38c-.59-1-1.24-2-2-3C124.25,44.08,124.07,44.8,123.86,45.56Zm2.51-4.35c-.32-.81-.68-1.6-1.06-2.38-.1.66-.21,1.34-.35,2.05.5.63,1,1.28,1.41,1.92Z"/><path class="cls-1" d="M201.47,39.07h-.88v1.19h.93a1.22,1.22,0,0,0,.68-.13.53.53,0,0,0,.18-.46.56.56,0,0,0-.18-.47A1.47,1.47,0,0,0,201.47,39.07Zm12.64.07h-.57v3.14h.55a1.35,1.35,0,0,0,1.06-.34,2.67,2.67,0,0,0,0-2.44A1.27,1.27,0,0,0,214.11,39.14Zm-54.47-.07h-.88v1.19h.93a1.25,1.25,0,0,0,.68-.13.53.53,0,0,0,.18-.46.56.56,0,0,0-.18-.47A1.49,1.49,0,0,0,159.64,39.07ZM209.1,54.4a4.58,4.58,0,0,0-4-1.79,4.64,4.64,0,0,0-4,1.8q-1.29,1.8-1.29,5.67t1.29,5.65a4.62,4.62,0,0,0,4,1.81,4.56,4.56,0,0,0,4-1.8c.84-1.19,1.27-3.08,1.27-5.66S209.94,55.6,209.1,54.4Zm-75-34.93a50.63,50.63,0,0,1,8.51,54.15h14.5V46.49H166V73.62h7.81A11,11,0,0,1,170.54,72a9.17,9.17,0,0,1-3.54-6.8h8.47a3.48,3.48,0,0,0,1.27,2.13,4.76,4.76,0,0,0,2.74.64,4.63,4.63,0,0,0,2.39-.52,1.63,1.63,0,0,0,.87-1.45q0-1.47-3.65-2.4L178,63.29c-2-.52-3.6-1-4.79-1.41a12.32,12.32,0,0,1-2.58-1.19A7.24,7.24,0,0,1,168.26,58a7.75,7.75,0,0,1-.79-3.57,7.51,7.51,0,0,1,3-6.33c2-1.54,4.81-2.3,8.36-2.3s6.23.73,8.23,2.2a8.37,8.37,0,0,1,3.38,6.31h-8.25a2.62,2.62,0,0,0-1.06-1.79,4.31,4.31,0,0,0-2.44-.59,3.81,3.81,0,0,0-2.08.46,1.59,1.59,0,0,0-.68,1.4q0,1.35,3.57,2.25l.48.13,1.56.38a23.22,23.22,0,0,1,6.18,2.18,7.7,7.7,0,0,1,2.63,2.72,7.49,7.49,0,0,1,.83,3.61,8.2,8.2,0,0,1-3.14,6.9,10.66,10.66,0,0,1-3.34,1.66H199.9a12.16,12.16,0,0,1-5.13-3.09Q191,66.69,191,60.08t3.79-10.46q3.78-3.82,10.32-3.82t10.29,3.82q3.78,3.84,3.78,10.46t-3.78,10.45a12.15,12.15,0,0,1-5.11,3.09h10.09V19.47Zm28.57,24.42h-2.07l-.08-.4a1.57,1.57,0,0,1,0-.27v-.63a1,1,0,0,0-.19-.69.91.91,0,0,0-.68-.2h-.87v2.19h-2V37.53h3a3.6,3.6,0,0,1,2,.43,1.58,1.58,0,0,1,.62,1.4,1.81,1.81,0,0,1-.25,1,1.67,1.67,0,0,1-.78.6,1.28,1.28,0,0,1,.78.45,1.78,1.78,0,0,1,.26,1l0,.88v0c0,.26.07.39.19.4Zm6,0H163.5V37.53h5.08v1.52h-3v.85h2.57v1.46h-2.57v1h3.17Zm7,0H174.4l-.1-.55a2.09,2.09,0,0,1-.84.55,3.23,3.23,0,0,1-1.13.18,2.7,2.7,0,0,1-2.15-.9,3.56,3.56,0,0,1-.79-2.45,3.06,3.06,0,0,1,3.33-3.36,3.11,3.11,0,0,1,2,.62,2.51,2.51,0,0,1,.9,1.74h-1.94a1.15,1.15,0,0,0-.37-.58,1.07,1.07,0,0,0-.65-.2,1,1,0,0,0-.92.47,2.69,2.69,0,0,0-.3,1.41,2.19,2.19,0,0,0,.31,1.29,1,1,0,0,0,.93.43,1.33,1.33,0,0,0,.76-.21.88.88,0,0,0,.39-.56h-.92V40.4h2.79Zm3.28,0h-2.08V37.53H179Zm5.9-.39a3.41,3.41,0,0,1-2.12.57,3.19,3.19,0,0,1-2-.57,2.11,2.11,0,0,1-.83-1.59h2a.81.81,0,0,0,.3.5,1.13,1.13,0,0,0,.65.15,1,1,0,0,0,.56-.13.37.37,0,0,0,.21-.33c0-.24-.29-.42-.86-.57l-.27-.06c-.47-.12-.84-.23-1.12-.33a2.75,2.75,0,0,1-.61-.28,1.82,1.82,0,0,1-.55-.63,1.92,1.92,0,0,1-.18-.84,1.78,1.78,0,0,1,.71-1.49,3.19,3.19,0,0,1,2-.54,3.26,3.26,0,0,1,1.94.52,2,2,0,0,1,.79,1.48h-1.94a.61.61,0,0,0-.25-.42,1,1,0,0,0-.57-.13.92.92,0,0,0-.49.1.36.36,0,0,0-.16.33c0,.21.28.39.84.53l.11,0,.37.09a5,5,0,0,1,1.45.51,1.79,1.79,0,0,1,.62.64,1.71,1.71,0,0,1,.19.84A1.93,1.93,0,0,1,184.89,43.5Zm6.87-4.29h-1.83v4.68h-2.05V39.21h-1.83V37.53h5.71Zm5.86,4.68h-5.21V37.53h5.09v1.52h-3v.85H197v1.46h-2.57v1h3.16Zm6.89,0h-2.06c0-.15-.07-.29-.09-.4a1.42,1.42,0,0,1,0-.27v-.63a1,1,0,0,0-.2-.69.91.91,0,0,0-.68-.2h-.87v2.19h-2V37.53h3a3.6,3.6,0,0,1,2,.43,1.58,1.58,0,0,1,.62,1.4,1.81,1.81,0,0,1-.25,1,1.67,1.67,0,0,1-.78.6,1.28,1.28,0,0,1,.78.45,1.78,1.78,0,0,1,.26,1l0,.88s0,0,0,0c0,.26.06.39.18.4Zm6,0h-5.21V37.53h5.08v1.52h-3v.85h2.57v1.46h-2.57v1h3.17Zm6.54-1.36a2.54,2.54,0,0,1-1.21,1.1,3,3,0,0,1-.78.2,13.39,13.39,0,0,1-1.5.06h-2.1V37.53H214a9.45,9.45,0,0,1,1.4.08,2.7,2.7,0,0,1,.8.28,2.43,2.43,0,0,1,1,1.09,4.08,4.08,0,0,1,.33,1.73A3.6,3.6,0,0,1,217.08,42.53Z"/><path class="cls-1" d="M127,19.41H104c15,4.8,25.59,16.52,26.09,32.38A26.56,26.56,0,0,0,124,48.33a99.81,99.81,0,0,0-39.47-5.17V45c16-1,30.41,1.94,38.84,5.06,4.77,1.77,12.46,8.91,16.28,15.6a23.53,23.53,0,0,0,.62-3.28,47.12,47.12,0,0,0,.89-9.1A47.82,47.82,0,0,0,127,19.41Zm-23.71,55c-7.06-7.06-16.91-24.69-18.72-28v3.75C88.08,56.41,95.91,69.63,102,75.68a34.3,34.3,0,0,0,10.71,7A39.87,39.87,0,0,1,87.26,88c-.83-.09-1.66-.21-2.48-.33V99.41H107.4a51.8,51.8,0,0,0,21.47-14.34H129c.42-.64.86-1.36,1.28-2.14C120.38,85.07,109.27,80.42,103.24,74.38Z"/><path class="cls-1" d="M99.82,53.5l9.81,7.63-6.15,3,7.79-1.87,7.94,4.67-9.5,4L121,68.6l8.1,3.89L117,77.17l14.83-3L139.3,79s3.34-.39,1.67-1.68-8.91-5.72-8.91-5.72l-3.28-12.92.55,11.6-6.46-3.74-3.82-11.76,1.4,10.59-8.25-4.67-1.94-8.33v7.4Z"/></svg>