<svg id="Calque_1" data-name="Calque 1" xmlns="http://www.w3.org/2000/svg" viewBox="0 0 306 142"><defs><style>.cls-1{fill:#13322b;}.cls-2,.cls-4{fill:#f5f5f5;}.cls-3{fill:none;stroke:#13322b;stroke-miterlimit:10;stroke-width:2px;}.cls-4{font-size:15.67px;font-family:MyriadPro-Regular, Myriad Pro;}</style></defs><path class="cls-1" d="M186.22,64.13a37.69,37.69,0,1,1-37.68-37.68,37.69,37.69,0,0,1,37.68,37.68"/><path class="cls-2" d="M167.05,62.12a2,2,0,0,1-1.2,1.49,4.11,4.11,0,0,1-3.43-.21,3.1,3.1,0,0,1-1-2.41,16.19,16.19,0,0,1,.29-5.27,2.54,2.54,0,0,1,2.43-1.33,3.08,3.08,0,0,1,2.64,1,4.6,4.6,0,0,1,.45,2.06,32.25,32.25,0,0,1-.16,4.7m6.17-7.32a6.82,6.82,0,0,0-2.62-3.13,12.59,12.59,0,0,0-12.07-.37A7,7,0,0,0,155,56.19c-.71,3.25-.53,7.13,2,9.57a11.87,11.87,0,0,0,11,2.08,4.52,4.52,0,0,0,1.14-.38l.11,0A7.76,7.76,0,0,0,172.33,65c1.93-2.82,2.06-7.06.89-10.24"/><path class="cls-2" d="M136.08,63.71c-.86-.05-1.83,0-2.67-.08l0-9,.05-.08,2.59,0c0-1.47,0-3,0-4.37l-9.85,0-1.62,0c0,1.36,0,3,0,4.34.89,0,1.72,0,2.59.08V63.3l0,.36-2.59.05c0,1.44,0,2.82,0,4.24h11.53"/><path class="cls-2" d="M155.37,77.27l-1.23.38a2.79,2.79,0,0,1-.58-.41l.06-.07a23.72,23.72,0,0,0,4.62-3.57,9.57,9.57,0,0,1,2,1.1,17.55,17.55,0,0,1-4.88,2.57m-2.51.72a20.1,20.1,0,0,1-8.63,0c0-.13.13-.16.21-.23a8.17,8.17,0,0,1,8.6.12c.08.16-.13.11-.18.16m-9.7-.34a18.48,18.48,0,0,1-6.11-2.87V74.7A14,14,0,0,1,139,73.62a26.58,26.58,0,0,0,4.7,3.62,1.89,1.89,0,0,1-.52.41m-3.37-4.39A17,17,0,0,1,143,72.13l.1,0a40.49,40.49,0,0,0,2.64,4.08c-.36.21-.81.33-1.17.54a17.73,17.73,0,0,1-4.76-3.44ZM144,71.88a22.46,22.46,0,0,1,4.23-.47l0,4.35c-.55.12-1.15.12-1.68.25a22.57,22.57,0,0,1-2.71-4Zm5-.47a20.9,20.9,0,0,1,4.37.52l0,.08a25.58,25.58,0,0,1-2.64,4,6.4,6.4,0,0,1-1.3-.15l-.45,0c0-1.52-.08-2.85,0-4.37m5.15.77.08-.05a14.86,14.86,0,0,1,3.19,1.11,16.81,16.81,0,0,1-2.9,2.46c-.6.36-1.21.75-1.83,1l-1.13-.48.08-.18a30.52,30.52,0,0,0,2.51-3.91m10.9-2.31a19.73,19.73,0,0,1-4,4.26c-.05.08-.21.05-.26,0-.66-.41-1.36-.74-2-1.15a22.31,22.31,0,0,0,2.28-3.11h-.82a18.59,18.59,0,0,1-2.19,2.8,26.5,26.5,0,0,0-3.37-1.19l-.13-.09a14.84,14.84,0,0,0,.63-1.52h-.71l-.71,1.38a33.87,33.87,0,0,0-4.8-.61c-.08-.23,0-.57-.08-.77h-.68c-.06.31.08.54-.08.79a31,31,0,0,0-4.7.57l-.71-1.36a2.46,2.46,0,0,0-.73,0l.65,1.52-.08.07a34.35,34.35,0,0,0-3.45,1.21l-.1,0a20.73,20.73,0,0,1-2-2.54c-.13-.44-.66-.18-.94-.23A22.24,22.24,0,0,0,138.4,73a22.48,22.48,0,0,1-2.14,1.2,18.7,18.7,0,0,1-4.13-4.34,3.29,3.29,0,0,0-.83,0,20.45,20.45,0,0,0,7.86,7s0,0,0,0,.08,0,0,.08a21.76,21.76,0,0,0,6.59,2,20.61,20.61,0,0,0,20.13-9.1,5.89,5.89,0,0,0-.84,0"/><path class="cls-2" d="M136.94,43.37a18.59,18.59,0,0,1,5.41-2.72c.08-.08.13-.16.24-.16v.06c.21.05.36-.19.54,0s.35.23.48.36a26.24,26.24,0,0,0-4.68,3.62,8.74,8.74,0,0,1-2-1.08Zm15.94-3.19v.06a8,8,0,0,1-8.36.28c-.13-.11-.39-.16-.42-.34a19.57,19.57,0,0,1,8.78,0m1.05.26a18.65,18.65,0,0,1,6.14,2.88l0,.1-1.8,1h-.14a22.61,22.61,0,0,0-4.65-3.54c.06-.18.32-.31.5-.44m3.35,4.39a16.64,16.64,0,0,1-3.19,1.08,42.27,42.27,0,0,0-2.7-4c.37-.2.81-.36,1.21-.56a18.49,18.49,0,0,1,4.73,3.43Zm-8.34,1.8c-.06-1.36,0-2.88,0-4.29l1.62-.23a22.25,22.25,0,0,1,2.69,4,18.35,18.35,0,0,1-4.31.52m-.81,0a9.41,9.41,0,0,1-2.12-.07,14.27,14.27,0,0,1-2.3-.42,23.1,23.1,0,0,1,2.72-4l1.67.23c.08,1.33,0,2.87,0,4.28m-5.2-.69-.11,0a20.33,20.33,0,0,1-3.11-1.06l0-.15a20.61,20.61,0,0,1,4.63-3.36c.39.15.78.28,1.17.46l-.07.2a32.46,32.46,0,0,0-2.56,3.88m-10.85,2.26a23.58,23.58,0,0,1,2.12-2.54,13.49,13.49,0,0,1,2-1.72c.68.43,1.43.8,2.09,1.21a21.82,21.82,0,0,0-2.25,3.08,1.58,1.58,0,0,0,.78,0,20.4,20.4,0,0,1,2.2-2.75c1.12.41,2.22.85,3.37,1.15l.1.11-.65,1.49a2.76,2.76,0,0,0,.76,0c.23-.44.41-.93.68-1.37a25.18,25.18,0,0,0,4.73.57c.21.18,0,.57.13.8h.7c.08-.26,0-.54.08-.77a25.09,25.09,0,0,0,4.58-.6l.13,0,.7,1.34a1.63,1.63,0,0,0,.74-.06l-.66-1.48.05-.06A27.14,27.14,0,0,0,158,45.37a23.89,23.89,0,0,1,2.25,2.83,2.38,2.38,0,0,0,.78-.06,10.53,10.53,0,0,0-1.12-1.61,11.3,11.3,0,0,0-1.15-1.39V45l1.83-1,.26-.1A19.27,19.27,0,0,1,165,48.14c.31,0,.57.11.84,0A20.68,20.68,0,0,0,150.27,39l0,0-.06,0a11.28,11.28,0,0,0-2.33,0,6.39,6.39,0,0,0-1,0,20.49,20.49,0,0,0-15.66,9.17c.27,0,.58.08.84,0"/><path class="cls-2" d="M148.15,63.91a6.94,6.94,0,0,1-6.9-1.69c-.2-.26-.34-.56-.55-.82l-3.52,0c-.06,2.08-.08,4.47,0,6.53l3.92,0,.05-1.23c.44.2.89.46,1.33.69a11,11,0,0,0,8.91,0A5.27,5.27,0,0,0,154.11,62a6.21,6.21,0,0,0-4.49-4.7l-6.33-1.83-.47-.23a.71.71,0,0,1-.29-.69c.5-.85,1.65-.59,2.51-.57a6.45,6.45,0,0,1,4.79,2.55c1.15,0,2.48,0,3.73,0,.06-2.1,0-4-.05-6.08-1.18,0-2.61,0-3.79,0a4.65,4.65,0,0,1-.08,1l-1.2-.64c-2.88-1.21-6.9-1.33-9.51.54a5.2,5.2,0,0,0-1.78,5.4c.34,1.84,2.12,3.2,3.82,3.85,2.32.82,4.75,1.41,7.11,2.2.23.11.54.34.49.62s-.23.36-.42.46"/><path class="cls-1" d="M120.46,31.37l1,1c1.21,1.22,1.16,2.65-.26,4.06s-2.86,1.44-4.07.22l-3.94-4c-1.21-1.22-1.16-2.65.26-4.06s2.86-1.44,4.07-.21l.73.74-1.37,1.36-.81-.82a1.05,1.05,0,1,0-1.5,1.48l4.09,4.14a1.06,1.06,0,0,0,1.5-1.49l-1.08-1.09"/><path class="cls-1" d="M124.17,26l2.38-1.48.81,1.31L125,27.29,126.65,30l3-1.85.81,1.3-4.72,2.94-5.68-9.15,4.73-2.94.81,1.31-3,1.86"/><path class="cls-1" d="M132.19,18.71l1.06,3.13.76-.25c.72-.24,1.07-.65.79-1.47l-.34-1c-.24-.73-.65-.94-1.33-.71Zm5.06,8a2.8,2.8,0,0,1-.59-1.19l-.55-1.6c-.32-.95-.82-1.17-1.7-.87l-.67.22,1.41,4.16-1.94.65-3.44-10.2,2.92-1c2-.67,3.12-.19,3.65,1.38l.27.8a2,2,0,0,1-.57,2.48v0c1.08,0,1.65.66,2,1.73l.53,1.57a2.68,2.68,0,0,0,.63,1.17"/><path class="cls-1" d="M140.46,14.89l6.28-.62.15,1.54-2.12.2.9,9.19-2,.2-.91-9.18-2.12.2"/><path class="cls-1" d="M151.77,14.44l2,.17-.9,10.73-2-.17Z"/><path class="cls-1" d="M160.07,20.62l2.54.69-.4,1.49-2.54-.7-1.18,4.29-2-.54,2.85-10.39,5.21,1.43-.41,1.48-3.24-.88"/><path class="cls-1" d="M169.32,18.86l1.83.89-4.69,9.69-1.84-.89Z"/><path class="cls-1" d="M175,27.41l2.24,1.66-.91,1.24-2.25-1.67-1.88,2.53,2.83,2.1-.92,1.24-4.47-3.32,6.43-8.65,4.46,3.32-.92,1.24L176.78,25"/><path class="cls-1" d="M184.71,32.18l-5.87,5,.75.87a.91.91,0,0,0,1.47.12l4.27-3.62a.91.91,0,0,0,.12-1.47Zm-.15-2.55,2.09,2.46c1.32,1.56,1.25,2.93-.06,4l-4.16,3.52c-1.31,1.12-2.67,1-4-.59l-2.09-2.47"/><path class="cls-1" d="M117,99.79l-1.14,1c-1.37,1.18-2.87,1-4.24-.56s-1.31-3.1.07-4.29l4.46-3.84c1.37-1.19,2.87-1,4.24.56s1.31,3.1-.06,4.28l-.84.72-1.32-1.53.92-.8a1.11,1.11,0,1,0-1.46-1.68l-4.63,4a1.11,1.11,0,0,0,1.45,1.69l1.23-1.06"/><path class="cls-1" d="M122.16,106.09a1.11,1.11,0,1,0,1.85,1.23l3.39-5.09a1.11,1.11,0,1,0-1.85-1.23Zm1.54-6.19c1-1.51,2.53-1.73,4.29-.57s2.14,2.67,1.13,4.18l-3.26,4.91c-1,1.51-2.53,1.73-4.29.57s-2.14-2.67-1.13-4.18"/><path class="cls-1" d="M136.41,112.06h0L140,104.7l2.88.8-3,10.92-2-.54,2.17-7.83h0l-3.57,7.44-1.95-.54.64-8.14h0L133,114.51l-1.81-.5,3-10.92,2.88.8"/><path class="cls-1" d="M149.26,107.27l.15,3.83,1,0c.68,0,1-.3,1-1.11l-.06-1.7c0-.81-.41-1.05-1.09-1Zm4.26,1,0,1.47c.07,1.81-.94,2.83-3.09,2.91l-1,0,.16,4.26-2.15.08-.42-11.33,3.16-.11c2.14-.08,3.23.86,3.3,2.68"/><path class="cls-1" d="M161,111.65l2-.62-2.69-5.16h0Zm5.75,2-2.06.65-1-1.85-2.52.79.27,2.07-1.88.6-1.32-11.47,3-.94"/><path class="cls-1" d="M170,102.67l0,0,4.6,6.8-1.6,1.08-6.35-9.38,2.23-1.51,5.6,4.4,0,0-3.8-5.62,1.58-1.07,6.35,9.39L176.74,108"/><path class="cls-1" d="M182.39,97.84l-7.56-2.76,1.43-1.72,5,2,0,0-2.93-4.54,1.31-1.58,4.09,6.93,2.89,2.4-1.37,1.65"/><circle class="cls-3" cx="148.91" cy="63.58" r="55"/><text class="cls-4" transform="translate(127.65 92.92)">26000</text></svg>